<svg xmlns="http://www.w3.org/2000/svg" width="332.961" height="472.8" viewBox="0 0 88.096 125.095"><path d="M-33.939-1.47v125.095h-83.096c-2.216 0-5-2.784-5-5V3.53c0-2.216 2.784-5 5-5h79.096z" style="opacity:1;fill:#172748;fill-opacity:1;stroke-width:1" transform="translate(122.035 1.47)"/><g style="fill:#f7b75f;fill-opacity:1"><path d="M169.911 149.504v-1.317l1.462-.006c1.128-.004 1.469.004 1.49.038.014.024.061.143.104.265s.128.3.19.398c.156.242.532.578.79.705.237.116.623.21.868.21.82 0 1.614-.583 1.868-1.37l.08-.248 1.477-.003 1.478-.003v2.648h-9.807zm4.657-.31a1.39 1.39 0 0 1-1.126-1.16c-.092-.591.22-1.186.762-1.453.2-.098.28-.116.557-.128.283-.013.35-.003.541.073.568.23.896.704.896 1.296.001.87-.77 1.518-1.63 1.372m-4.657-3.048v-1.322h9.807v2.645h-2.953l-.074-.224a1.97 1.97 0 0 0-1.047-1.19c-.583-.27-1.147-.26-1.729.03-.462.231-.868.733-1.005 1.24l-.038.144h-2.961zm8.917-10.303c-.668-.162-1.167-.72-1.215-1.358-.025-.325.043-.62.225-.977.414-.815 1.076-1.176 1.77-.965.68.206 1.183.928 1.185 1.697.001.352-.051.564-.22.892-.318.616-.997.893-1.745.711m.727-.334a.9.9 0 0 0 .5-.483c.088-.212.107-.753.037-1.104-.16-.806-.356-1.022-.925-1.022h-.272l-.144.15c-.288.302-.426.672-.466 1.248l-.023.327-.197.041-.196.04.28.26c.64.592.952.713 1.406.543m3.971.356c-.207-.064-.291-.16-1.125-1.28-.068-.091-.134-.155-.147-.14-.042.044-.137.528-.137.694q0 .286.27.584l.126.14h-1.251l.092-.124c.299-.399.274-.332.231-.62-.027-.183-.028-.442-.005-.861.044-.766.01-1.069-.156-1.401a1 1 0 0 1-.083-.203c0-.055 1.271-.046 1.54.01.46.097.753.453.753.917 0 .233-.116.428-.366.617-.106.08-.203.177-.215.215-.013.041.02.163.085.306.06.13.108.26.108.29 0 .064.094.149.556.5l.362.276-.168.037c-.286.064-.376.072-.47.043zm-.857-1.88.259-.15-.002-.177c-.003-.213-.047-.537-.077-.568-.04-.04-.565-.125-.592-.096-.054.057-.14.416-.14.583 0 .243.146.557.258.557.02 0 .151-.067.294-.15zm2.535 1.89c-.26-.055-.257-.04-.041-.193l.2-.142v-2.38l-.137-.078c-.235-.131-.338-.102-.626.178-.163.158-.19.171-.26.134-.055-.03-.072-.063-.058-.118.01-.042.038-.192.061-.332l.042-.256h2.493l.018.08c.031.144.09.497.09.544 0 .076-.05.055-.3-.13-.197-.145-.265-.176-.384-.176-.301.001-.318.06-.32 1.11l-.003.847-.098.23-.118.271c-.01.025.065.085.188.147.113.058.236.128.274.157.064.048.056.054-.117.09-.175.038-.754.049-.904.017zm-21.742-.037q-.083-.015-.063-.075c.256-.837.266-2.086.024-2.862a1 1 0 0 1-.058-.24c.007-.008.294-.027.637-.043.681-.031.893-.005 1.125.138.387.239.556.824.355 1.227-.147.296-.259.357-.746.408l-.416.043-.187.491c-.102.27-.174.502-.159.516s.142.085.282.159c.14.073.248.144.239.158-.05.082-.743.135-1.033.08m1.26-1.79c.16-.083.23-.222.231-.46.001-.256-.082-.39-.346-.551l-.172-.107-.09.082c-.183.17-.22.384-.144.842l.04.245h.191a.8.8 0 0 0 .29-.051m5.092 1.753-.326-.056.002-.461.002-.462.148.177c.354.421.482.511.732.511.137 0 .56-.168.562-.223a1.4 1.4 0 0 0-.094-.228c-.12-.253-.333-.467-.742-.741-.525-.353-.698-.558-.685-.813.041-.851.598-1.185 1.544-.926l.287.08.02.164c.012.09.032.312.045.492.03.4.021.4-.32-.008a3 3 0 0 0-.36-.372c-.162-.11-.34-.101-.52.024-.123.087-.146.123-.155.243-.016.218.096.35.52.606.626.38.82.581.962 1.003.064.188.067.236.03.4-.051.231-.218.414-.494.54-.247.114-.68.133-1.158.05zm2.813-.004-.37-.057-.006-.38c-.004-.24.008-.379.03-.379.02 0 .136.093.258.207q.382.357.665.358c.162 0 .39-.113.467-.23.054-.082.051-.098-.047-.308-.128-.273-.32-.462-.692-.681-.572-.337-.764-.544-.764-.824 0-.31.192-.707.418-.866.144-.101.17-.107.459-.103.168.003.476.017.685.03l.38.026-.01.499c-.008.468-.013.499-.078.499-.045 0-.164-.118-.339-.335-.283-.353-.32-.376-.62-.384-.142-.004-.146-.001-.258.21l-.114.213.207.25c.17.205.317.323.818.66l.61.409-.018.313c-.03.493-.208.785-.549.899-.165.055-.688.043-1.132-.026zm.238-2.004a.3.3 0 0 0-.123 0c-.034.009-.006.016.062.016s.095-.007.061-.016m2.215 1.772c.154-.561.205-.975.183-1.481-.019-.418-.11-.994-.194-1.22-.103-.279-.11-.27.23-.318.76-.108 1.486.11 1.724.515.08.137.1.22.113.461.018.348-.017.457-.207.628-.155.14-.287.182-.827.265-.378.057-.388.061-.375.145.007.047.01.302.008.566-.003.265.012.525.032.578.02.054.033.102.028.107s-.188.02-.405.034l-.394.026zm1.231-1.534c.144-.095.345-.358.32-.42a6 6 0 0 0-.252-.399l-.232-.346-.086.068c-.137.107-.29.316-.325.444-.044.16.009.377.14.566.088.129.125.155.22.155.061 0 .158-.03.215-.068m-10.577 1.767c-.011-.02 1.372-3.35 1.405-3.384.03-.03.38.605.533.962.325.761.477 1.218.5 1.505l.02.27.276.224c.152.123.273.245.269.272-.024.154-.495.23-.817.133-.156-.047-.147-.025-.25-.596l-.061-.344h-1.074l-.08.273c-.043.15-.107.37-.142.485l-.063.212-.25.005c-.139.003-.258-.005-.266-.017zm1.594-1.435a3 3 0 0 0-.129-.374c-.128-.335-.143-.359-.175-.278l-.162.387c-.07.164-.126.303-.126.31 0 .012.576-.031.592-.045m-2.336-3.634c-.079-.188-.101-.354-.059-.433.055-.103.395-.3.762-.44.175-.067.343-.132.373-.145.043-.019.084.04.183.26l.128.284-.113.049a35 35 0 0 0-.633.299c-.286.138-.536.25-.555.25s-.058-.055-.086-.124m37.072.023c.026-.041.161-.123.161-.098a.3.3 0 0 1-.092.076c-.05.033-.082.043-.069.022zm-29.002-.148c-.25-.124-.288-.178-.257-.375.057-.358.109-.482.268-.641.085-.086.163-.148.173-.138s-.006.132-.036.272c-.078.372-.075.388.088.452.158.062.165.088.084.292-.079.195-.146.224-.32.138m6.657-.054c-.455-.122-.662-.35-.722-.79-.019-.138-.116-.49-.145-.523-.006-.007-.119.05-.251.127-.959.554-1.804.901-2.59 1.065-.405.085-1.086.149-1.156.11-.061-.035.513-.32 1.53-.76 1.216-.526 1.921-.89 2.46-1.268.203-.142.205-.146.185-.286-.01-.077-.11-.33-.22-.563-.168-.353-.201-.455-.202-.618-.001-.214.126-.53.213-.53s.495.434.595.631c.053.104.12.303.15.441.064.309.025.615-.14 1.075-.089.25-.109.36-.108.605 0 .315.075.562.205.67.054.044.055.052.005.07-.048.016-.044.034.028.124l.083.105.49-.227c.689-.32 1.484-.731 1.664-.86.113-.081.184-.175.277-.368a1.4 1.4 0 0 0 .112-.268 10 10 0 0 0-.399-.14c-.213-.07-.403-.146-.423-.166s-.042-.162-.05-.316c-.015-.336.053-.507.308-.776l.164-.172.22.108c.162.08.256.155.35.283.155.212.326.325.613.405.187.052.272.055.627.023.388-.035 1.03-.198 1.03-.262 0-.039-.251-.128-.476-.17a3.4 3.4 0 0 0-.495-.038c-.35 0-.658-.054-.84-.148-.136-.068-.138-.073-.12-.23.028-.248.123-.32.485-.366.164-.02.402-.028.528-.015.213.022 2.716.636 3.193.784.227.07.274.142.194.292-.083.154-.241.212-.583.212-.59 0-1.091.091-2.328.423-.408.11-1.206.247-1.436.247-.014 0-.081.12-.15.268-.24.522-.627.946-1.254 1.373-.644.44-1.103.558-1.621.42zm-10.524-.462c-.084-.277-.088-.316-.042-.387.047-.072.062-.075.157-.035.154.065.283.189.283.272 0 .101-.08.245-.202.361l-.103.098zm-5.74.192c-.281-.139-.415-.307-.513-.645-.071-.243-.056-.592.04-.935.053-.191.095-.258.26-.42l.195-.193.012.135c.007.082-.031.264-.097.466-.06.182-.109.38-.109.438 0 .168.126.382.24.407.052.012.117.028.144.036.172.055.453-.133 1.061-.709.722-.682 1.444-1.08 1.98-1.089.173-.003.294-.023.347-.058l.081-.054-.15-.218-.151-.218.1-.24c.197-.472.37-.788.454-.826.106-.048.23.015.44.22.337.333.379.606.185 1.226-.062.201-.109.368-.102.372l.143.104c.268.197 1.344.33 2.387.293 1.056-.036 1.748-.156 3.76-.654l1.129-.28.104.209.105.208h.182c.213 0 .349-.078.655-.378.11-.107.215-.189.235-.182s.117.09.215.183c.099.093.193.161.21.151s.05-.138.073-.284.057-.274.074-.284c.044-.028.283.078.378.167.142.134.076.57-.122.802-.149.175-.38.231-.83.202-.17-.01-.316-.006-.326.01-.034.055-.393.242-.54.281-.185.05-.347-.003-.609-.2l-.192-.145-.882.21c-2.063.49-3.092.648-4.216.646-1.244-.002-1.706-.122-2.392-.62l-.293-.213-.33.107c-.414.134-.998.408-1.292.607-.358.241-.546.412-.903.82-.406.463-.546.56-.838.576a.8.8 0 0 1-.302-.03zm.435-.315.077-.042-.089-.025c-.143-.04-.36-.037-.333.006s.148.098.221.101a.3.3 0 0 0 .124-.04zm3.665-2.782c.012-.084-.004-.123-.071-.177-.136-.107-.197-.09-.17.046.02.105.131.239.198.239.015 0 .034-.049.043-.108m18.534 3.017a.5.5 0 0 1-.149-.114c-.056-.075-.06-.295-.01-.485.052-.194.248-.617.285-.617.076 0 .1.185.048.362-.09.3-.076.358.096.433.083.036.156.07.164.075.02.014-.276.4-.306.4a.6.6 0 0 1-.128-.054m-1.917-.247c-.11-.078-.22-.276-.22-.398 0-.064.035-.15.085-.208l.085-.099.323.16.322.158-.17.152c-.301.271-.341.293-.425.234m-3.901-1.251a5 5 0 0 1-.056-.212c-.054-.22-.363-4.504-.336-4.656.019-.105.238-.46.284-.46.034 0 .392.795.363.806-.053.02-.037 1.764.027 2.89.057 1.004.057 1.077 0 1.252-.069.214-.255.465-.282.38m-10.43-1.14c0-.232.013-.315.057-.36.041-.04.069-.046.096-.02.058.06.234.582.205.61a.6.6 0 0 1-.192.05l-.167.023zm2.474-.056c-.074-.047-.114-.333-.075-.542a2 2 0 0 1 .15-.414l.114-.23.01.358.01.357.157.084c.087.046.158.096.158.112 0 .064-.111.236-.174.27-.083.044-.284.047-.35.005m-8.568-.296c-.204-.077-.24-.14-.236-.423.003-.274.109-.71.23-.954.084-.165.348-.53.37-.51.007.008-.042.291-.11.63-.066.338-.122.639-.122.669 0 .045.035.05.215.033.198-.019.217-.014.244.057.041.108-.027.31-.142.42a.43.43 0 0 1-.449.078m11.13-1.118c-.21-.25-.38-.469-.38-.485 0-.05.2-.15.298-.15.1 0 .28.079.383.17.06.051.076.04.252-.155l.189-.21.13.07c.073.038.14.087.148.11.013.035-.466.878-.595 1.045-.042.054-.086.013-.426-.395m-5.037.162c-.159-.053-.165-.098-.032-.25.157-.178.33-.27.916-.49.466-.176.781-.286 2.433-.852l1.47-.506c.508-.176 1.048-.344 1.199-.376.258-.053.277-.053.32.005a.2.2 0 0 1 .044.09c0 .057-.27.277-.44.358-.284.136-1.243.48-2.7.97-2.14.72-2.203.743-2.521.89-.38.175-.535.212-.689.16m8.687-.394a.6.6 0 0 1-.205-.19l-.095-.143.1-.145a.6.6 0 0 1 .144-.162c.05-.02.542.264.542.312 0 .06-.099.268-.139.293a.4.4 0 0 1-.347.035m3.402-.01c-.077-.085-.074-.151.017-.363l.075-.175.103.151c.056.084.133.21.17.28l.067.128-.109.022c-.18.036-.262.025-.323-.043m2.164-.272c0-.012.04-.09.088-.172.084-.144.111-.16.52-.314l1.327-.5c.827-.313.897-.334.939-.278.054.074.002.226-.12.354-.092.095-1.899.815-2.19.872-.164.033-.564.06-.564.038m-16.676-.144c-.093-.05-.181-.1-.196-.114-.036-.035.168-.275.254-.297.066-.017.355.153.355.209 0 .048-.146.254-.193.272-.028.01-.127-.021-.22-.07m9.488-.48c.008-.025.044-.05.081-.058.057-.01.06-.005.02.045-.057.067-.122.075-.101.012m-10.833-.064-.082-.033.073-.102c.13-.184.333-.332.655-.481.745-.344 1.759-.643 2.392-.706l.219-.022-.194.178c-.21.192-.214.194-1.464.68-1.415.552-1.425.555-1.599.486m11.125-.096c.06-.053.254-.22.433-.37l.324-.275v-.237c0-.312.074-.46.281-.564.26-.13.264-.127.372.31.053.215.091.395.084.4l-.279.24c-.552.477-.779.595-1.142.593l-.18-.001zm4.18-.139c0-.141.088-.262.24-.33a23 23 0 0 1 2.21-.812c.33-.099.356-.101.398-.045.06.084.057.097-.049.223q-.169.2-.665.35c-.136.04-.422.146-.635.236s-.54.21-.724.267c-.358.111-.776.17-.776.111m-10.92-.047a1.3 1.3 0 0 1-.024-.309c0-.284.048-.467.182-.678l.077-.123-.021.34-.021.341.133.08c.073.044.14.085.146.09.026.02-.139.254-.193.275-.088.033-.254.024-.28-.016m-5.537-.35c-.067-.075-.057-.182.028-.299.048-.065.059-.06.25.121.223.21.215.246-.053.247-.117 0-.18-.02-.225-.069m8.875-.315c-.056-.056-.064-.09-.04-.17.018-.054.076-.245.129-.425s.108-.326.12-.326c.022 0 .246.796.246.873 0 .02-.06.047-.132.06s-.16.031-.192.04c-.033.01-.092-.013-.13-.052m-8.767-.242c.029-.16.024-.152.08-.117.038.023.036.049-.01.139q-.114.22-.07-.022m-14.645-2.305c-.028-.045-.026-.048.116-.096.141-.047.143-.04.011.057-.066.05-.112.063-.127.04m24.389-6.924c-.405-.374-.724-.468-1.757-.516-2.7-.127-6.384-.821-9.278-1.748a28 28 0 0 0-.529-.165c-.194-.055-1.6-.583-1.814-.68a2 2 0 0 0-.21-.089c-.05 0-1.37-.62-2.139-1.004a75 75 0 0 1-2.24-1.166 10 10 0 0 1-.607-.36c-.241-.159-.293-.21-.31-.303-.052-.296-.08-1.044-.084-2.3-.007-1.862.07-3.314.184-3.487.037-.057.906-.601 2.945-1.846.966-.59 1.163-.748 1.451-1.173.076-.111.18-.23.234-.265.248-.163.574-.088 1.003.23l.28.207.339-.12c.187-.065.348-.128.358-.138.034-.034.816-2.173 1.015-2.774.106-.32.203-.681.216-.802l.023-.22-.207-.001c-.433-.001-.453-.044-.304-.627.644-2.512.725-2.862.94-4.047.295-1.62.452-2.913.536-4.41l.024-.423-.19.174c-.105.096-.341.318-.525.494l-.335.32-.028.229c-.015.126-.042.428-.06.67-.02.243-.05.658-.07.924-.086 1.12-.416 1.727-1.382 2.54l-.196.164-.022.382a3.57 3.57 0 0 1-.58 1.757c-.206.316-.721.828-1.082 1.078l-.28.193-.08.322q-.21.836-.655 1.415c-.246.32-.805.814-1.301 1.15-.192.13-.2.14-.28.422-.19.663-.613 1.317-1.123 1.735-.251.207-.701.487-.914.57-.146.056-.15.062-.152.22-.001.09-.016.592-.033 1.116-.035 1.11-.078 1.34-.35 1.905-.365.763-.987 1.388-1.801 1.812a4 4 0 0 1-.54.234c-.192.055-.21.055-.332-.006a.6.6 0 0 1-.194-.153c-.06-.083-.06-.113-.012-.511.028-.233.068-.646.09-.918.047-.61.049-9.606 0-9.731-.022-.06-.076-.095-.193-.125q-.16-.04-.161-.095c0-.03.047-.169.104-.308.166-.403.249-.753.276-1.17.014-.214.017-1.483.008-2.82l-.018-2.43-.192-.066a1 1 0 0 1-.224-.096c-.017-.017.007-.105.056-.202.153-.303.275-.69.327-1.036.04-.265.05-.797.05-2.523l-.001-2.187-.16-.102a.6.6 0 0 1-.18-.151c-.01-.028.028-.173.087-.322.14-.359.21-.679.252-1.172.063-.722.12-3.502.106-5.238-.03-3.892-.019-4.21.18-4.992.242-.951.911-2.37 1.58-3.351 1.09-1.599 2.281-2.692 3.64-3.342.385-.184.637-.237 1.13-.237.694-.001 1.021.12 1.897.697.676.446.9.577 1.375.805 1.362.652 2.865.948 4.577.901 1.483-.04 2.701-.43 3.365-1.08.72-.702 1.072-1.864.802-2.641-.158-.454-.393-.81-.944-1.434l-.295-.334-.82-.001-.821-.002-.131.265c-.08.16-.153.264-.186.264-.085 0-.309-.201-.404-.364-.187-.319-.207-1.08-.042-1.569.138-.409.296-.623.728-.99.384-.328.564-.502 1.065-1.033.248-.263.571-.563.726-.674.614-.443 1.596-.849 2.543-1.052.433-.093 1.406-.13 1.85-.071 1.331.177 2.35.739 3.54 1.949q.929.947 1.511 1.882c.097.155.228.361.292.458.14.213.727 1.364 1.043 2.048.548 1.186 1.37 2.785 1.61 3.136.264.383.691.72 1.153.908.705.288 2.22.192 3.207-.202.125-.05.886-.425 1.69-.832.805-.407 1.59-.786 1.743-.842.992-.362 1.88-.237 2.827.399.505.339.867.642 1.396 1.17.586.583.661.67 1.087 1.236.33.439.551.786.551.867 0 .03.1.165.222.3.122.136.255.294.296.351.096.136.517 1.068.791 1.753.394.983.36.445.385 6.077.02 4.253.03 4.939.078 5.168l.135.664.08.398-.108.096a.6.6 0 0 0-.146.214c-.052.16-.055 3.929-.003 4.343.02.165.094.589.164.942s.118.663.108.69-.085.068-.165.092l-.147.044.012 2.706c.012 2.647.014 2.714.092 3.086.044.21.126.514.184.677.057.162.104.31.104.328s-.085.09-.188.158l-.188.125-.023 3.717c-.023 3.635-.001 5.327.085 6.779.047.783.046.785-.187.823s-1.128-.398-1.71-.83c-.803-.597-1.258-1.389-1.387-2.414-.02-.158-.036-.693-.036-1.188v-.9l-.205-.08c-.288-.112-.675-.376-.946-.644-.3-.298-.658-.837-.735-1.11-.154-.54-.438-.886-1.253-1.527a5 5 0 0 1-.535-.475 3.35 3.35 0 0 1-.634-1.28c-.104-.43-.257-.638-.696-.947a4 4 0 0 1-.517-.451c-.443-.471-.685-1.01-.842-1.873-.06-.332-.117-.539-.182-.658-.051-.095-.273-.354-.492-.576-.353-.357-.416-.44-.558-.736-.257-.536-.282-.696-.299-1.953l-.015-1.091-.41-.436c-.388-.412-.8-.786-.864-.786-.016 0-.02.028-.01.062.043.136.164.912.249 1.596.174 1.398.236 1.825.393 2.681.168.921.46 2.466.579 3.072.154.78.387 2.006.387 2.037 0 .018-.119.084-.264.148s-.265.124-.265.136c0 .011.065.26.144.55.339 1.249.62 2.072.96 2.809l.124.267.294.141.295.142.224-.172c.34-.26.483-.324.73-.326.177-.002.24.015.362.096.16.105.339.328.487.61.09.168.108.182.367.273.269.096.442.202 2.61 1.592l1.014.65.256.164v5.862l-.697.4c-2.728 1.564-3.005 1.694-6.553 3.085-1.421.558-2.925.965-4.953 1.341q-2.818.523-4.907.58c-1.073.03-1.17.052-1.565.354-.252.194-.415.285-.506.282-.035 0-.154-.085-.265-.187zm.73-1.262c.214-.11.452-.218.53-.241.085-.026.57-.055 1.217-.073 1.439-.04 2.345-.14 4.163-.462 2.087-.368 3.373-.674 4.71-1.12.721-.24.724-.241 1.73-.648a60 60 0 0 1 1.481-.572c1.172-.431 2.078-.858 2.82-1.33.35-.222.71-.45.803-.507.104-.065.18-.144.203-.209.02-.057.07-.14.11-.183.073-.076.073-.088.03-.642-.036-.447-.036-.794-.004-1.67.045-1.188.013-2.156-.074-2.236a7 7 0 0 0-.433-.28c-.427-.265-.954-.62-1.249-.844-.995-.75-1.195-.87-1.511-.896l-.195-.016.025.173c.014.094.05.267.08.384.088.33.08.706-.017.905-.115.233-.46.596-.683.717-.157.085-.24.105-.494.118l-.305.014-.357.278a6 6 0 0 1-.371.278c-.008 0-.065-.087-.126-.194-.133-.233-.123-.236-.51.157-.156.156-.296.284-.312.284a2 2 0 0 1-.294-.215 2.9 2.9 0 0 1-.654-.802l-.059-.107-.805.269c-3.433 1.144-6.249 1.737-8.426 1.776-.227.004-.425.025-.476.051a6 6 0 0 0-.459.334c-.204.159-.39.297-.414.307s-.274-.129-.556-.308c-.527-.334-.691-.401-.89-.365-.064.011-.136.005-.16-.015s-.266-.062-.537-.094c-2.389-.281-4.116-.63-6.086-1.23l-1.529-.464-1.017-.309-.106.128a6 6 0 0 0-.217.284c-.38.533-.54.723-.606.724-.038 0-.252-.137-.474-.305-.36-.272-.408-.298-.441-.243-.089.15-.17.232-.23.232-.035 0-.227-.127-.427-.283s-.38-.282-.403-.282c-.022 0-.113.025-.202.055l-.162.055-.189-.131c-.237-.167-.506-.422-.597-.567-.145-.232-.176-.433-.165-1.067.007-.41-.003-.611-.03-.639-.052-.052-.21.031-.621.327-1.457 1.044-1.49 1.066-2.003 1.342-.408.22-.585.416-.651.723-.014.063-.027 1.086-.028 2.273l-.003 2.158.879.438c.484.24.946.492 1.027.559.119.096 1.044.55 2.183 1.07.34.155 1.636.664 2.22.872 2.91 1.033 6.093 1.67 9.578 1.915 1.355.096 1.507.126 2.046.406.165.085.308.152.318.148s.192-.096.405-.205zm-1.161-1.552c-.188-.068-.232-.072-.428-.036-.352.065-.458.054-.588-.062-.112-.1-.113-.105-.05-.173.13-.145.244-.163.724-.119.245.023.511.042.592.042h.146l.048-.186c.052-.205.064-1.019.02-1.42l-.027-.247.292-.254c.242-.211.296-.244.316-.194.013.033.048.304.077.602s.059.548.067.556.23.011.49.005l.475-.01-.291-.599-.292-.599.095-.057c.052-.031.266-.153.476-.27l.38-.212.581.196c.32.107.58.21.58.229 0 .076-.55 1.233-.598 1.259-.03.015-.165.039-.3.052-.397.04-.407.087-.039.174l.262.062.623-.2.623-.199-.02-.13a62 62 0 0 1-.128-1.081c-.058-.524-.127-1.135-.153-1.358-.033-.295-.035-.415-.008-.44l.311-.277c.314-.278.276-.313.361.328.08.596.15 1.33.211 2.188l.075 1.047.021.289-.24.074c-.454.141-.854.179-2.094.198-.65.01-1.202.017-1.227.016-.025 0-.115.148-.2.331-.147.318-.163.338-.342.428a1.01 1.01 0 0 1-.821.047zm.925-1.037c-.01-.011-.03.009-.043.043q-.032.074.02.02c.023-.024.034-.052.023-.063m1.745-1.202c.034-.034-.013-.12-.066-.12-.055 0-.058.007-.028.085.023.058.058.071.094.035m-5.072 2.103c-.174-.036-.44-.141-.44-.173 0-.042.294-.216.368-.217l.397-.01.325-.006.073.19c.04.105.063.2.051.212-.033.033-.618.037-.774.005zm.759-.774-1.558-.165-.622-.063-.04-.134a1.4 1.4 0 0 1-.004-.655c.058-.216.34-.485.707-.676a9 9 0 0 0 .315-.167c.014-.012.14-1.592.143-1.799 0-.1.033-.133.31-.32.17-.116.33-.223.358-.24.072-.041.032.821-.084 1.776a8 8 0 0 0-.081 1.252l.01.5.272.01.272.01.01-.466.01-.468.353-.22c.423-.266.387-.313.424.54.014.327.038.626.052.665.024.064.033.059.101-.053.064-.105.076-.178.076-.484v-.361l.29-.23.292-.23.065.203c.097.305.114 1.028.032 1.437l-.063.318-.14.047c-.242.082-.534.076-1.5-.027zm-1.384-.927c-.022-.065-.098-.076-.098-.014 0 .031.025.056.056.056.03 0 .05-.019.042-.042zm8.424.673a3.6 3.6 0 0 1-.14-.845 12 12 0 0 0-.093-.847c-.157-1.049-.184-1.305-.188-1.784-.002-.275.007-.511.02-.525s.165.061.336.167l.31.193.024.191c.013.105.04.374.061.597l.09.935c.108 1.105.173 1.886.158 1.9a2 2 0 0 1-.289.04c-.216.02-.276.016-.29-.022m-10.347-.167c-.141-.05-.256-.103-.256-.116s.07-.064.155-.114l.154-.09-.087-.24c-.077-.209-.086-.279-.07-.556.01-.175.066-.516.125-.759.069-.284.12-.618.144-.937.038-.503.096-.771.219-1.013l.068-.134.105.062c.058.035.16.119.228.188l.122.125-.209 1.234-.3 1.78c-.05.301-.103.573-.117.605-.023.051-.052.048-.281-.035m12.396-.078c-.25-.041-.527-.19-.767-.412-.321-.298-.32-.29-.029-.523.314-.25.45-.395.646-.685.085-.126.197-.27.25-.318l.095-.088-.02.088c-.028.117-.22 1.008-.252 1.16l-.024.12.56-.02a5 5 0 0 0 .876-.093c.349-.08 1.07-.31 1.134-.36.03-.024.008-.14-.08-.429a14 14 0 0 1-.16-.558l-.04-.164.217-.284c.12-.157.23-.293.247-.304.038-.023.191.255.302.55.046.123.134.472.195.775.06.303.125.601.142.662.03.105.023.119-.11.215-.203.147-.438.226-.982.33-.262.05-.739.145-1.059.21-.684.142-.909.167-1.14.128zm-13.975-.193a29 29 0 0 1-3.55-.812 6 6 0 0 0-.576-.157c-.033 0-.323.12-.645.266-.323.146-.607.258-.632.249-.081-.032-.473-.592-.599-.857-.17-.358-.313-.456-1.3-.886-1.132-.492-1.145-.498-1.22-.574-.092-.092-.087-.273.011-.395l.08-.099.317.128c.175.07.405.165.512.21s.376.156.6.246c.222.09.596.244.828.34l.64.265.218.09.044.294c.052.35.077.404.163.35.103-.064.183-.2.253-.427l.067-.22-.244-.163a4 4 0 0 0-.534-.286l-.448-.19c-.087-.037-.492-.204-.9-.37-.63-.258-1.273-.562-1.366-.648-.02-.019.606-1.566.654-1.614.013-.013.13.16.34.507l.113.185-.165.266c-.153.245-.162.273-.123.368a.35.35 0 0 0 .154.155c.484.228 1.405.596 2.083.833.29.101.586.222.66.268.266.168.435.414.476.692.024.163.184.559.225.559.014 0 .079-.108.145-.238.111-.221.12-.263.12-.574 0-.386-.057-.539-.393-1.04l-.189-.283.303-.1.302-.101.083.077c.12.112.33.552.371.773q.075.4-.018 1.097c-.029.22-.048.405-.043.41s.12.057.256.115l.246.105.078-.377c.14-.68.103-.607.39-.757.14-.074.273-.123.294-.11.073.044.142.266.12.38-.013.061-.07.252-.129.424-.112.333-.11.522.01.597.052.033.378-.167.99-.61.141-.103.145-.104.249-.044.18.106.395.377.59.747.175.334.192.353.249.301.142-.128.373-.803.474-1.384.067-.386.137-1.195.11-1.266-.056-.145.019-.225.38-.41.197-.101.374-.188.395-.194.138-.038-.37 3.306-.576 3.788-.073.172-.113.225-.167.223a18 18 0 0 1-.776-.122zm18.468.034a1 1 0 0 1-.222-.082c-.016-.016.093-.087.243-.158l.271-.13-.022-.29c-.027-.34-.147-.806-.316-1.222l-.121-.296.07-.119c.038-.065.139-.224.223-.352.146-.222.155-.23.186-.15.206.544.428 1.184.427 1.229 0 .03-.064.159-.14.285l-.14.23.202.017.203.017.064.256.063.256-.131.157c-.172.205-.392.361-.544.386a1 1 0 0 1-.316-.034zm-.697-.739c-.044-.03-.08-.078-.08-.104 0-.099-.252-.908-.493-1.584a16 16 0 0 1-.351-1.094c-.103-.4-.206-1.03-.174-1.06.016-.017.726.24.76.275.016.015.183.644.595 2.245.107.417.21.806.226.864.084.288.084.29-.077.384-.21.122-.311.14-.406.074m.202-.59c0-.093-.056-.193-.089-.16-.032.032.018.24.058.24.017 0 .032-.036.031-.08m1.712-.141a2 2 0 0 1-.188-.29c-.064-.147-1.03-3.317-1.03-3.381 0-.026-.007-.029.451.136.285.102.365.146.378.205.01.042.042.216.072.389.075.417.25.984.501 1.618.21.53.285.661.38.661.034 0 .16-.213.344-.581l.29-.582.195.02c.508.053.798.182.934.415.074.129.195.511.195.618 0 .057-.412.254-.917.44a61 61 0 0 1-1.458.515 4 4 0 0 1-.147-.183m1.59-1.111c-.024-.025-.09.025-.09.068q.002.034.053-.007c.03-.025.047-.052.038-.061m-6.514.388c-.105-.054-.189-.113-.185-.131.012-.07.588-.264.787-.264.289-.001.317.03.183.212-.222.302-.446.354-.785.183m7.853-.614-.207-.322.059-.221c.08-.305.077-.323-.077-.402-.237-.12-.439-.388-.703-.931-.135-.278-.298-.565-.362-.638l-.116-.132.08-.253c.125-.388.216-.624.244-.624.05 0 .396.568.658 1.082.152.298.34.61.424.706l.15.17.025-.126c.031-.165-.023-.357-.214-.764a8 8 0 0 1-.156-.342c0-.006-.094-.208-.21-.448s-.199-.44-.185-.445a6 6 0 0 1 .519.058c.271.036.496.064.5.061a3 3 0 0 0-.038-.262c-.025-.145-.03-.266-.013-.277.017-.01.166 0 .33.023.249.036.31.057.354.125.107.164 1.461 3.054 1.444 3.082-.028.044-.406.299-.42.282-.014-.015-.68-1.208-1.24-2.22a12 12 0 0 0-.376-.652c-.047-.048-.004.368.064.615.03.106.123.33.21.5.19.374.243.624.192.903-.02.11-.037.212-.037.226s.078.052.174.084c.233.077.368.237.459.542.04.133.072.264.072.291 0 .03-.266.163-.68.341-.373.16-.687.291-.697.291-.011 0-.113-.145-.227-.323zm-19.575-.11c-.035-.292-.027-.412.036-.544.073-.155.19-.214.312-.158.15.068.173.172.104.482-.07.313-.14.406-.311.406-.117 0-.119-.003-.14-.186m-5.245-.034a11 11 0 0 0-.312-.087c-.078-.02-.081-.032-.06-.199.03-.222.045-.246.14-.224.098.023.86.322.887.349.032.032-.188.175-.314.203q-.113.025-.34-.042m-7.267-.27a6 6 0 0 1-.63-.28c-.24-.12-.46-.218-.489-.218-.08 0-.034-.218.103-.488.218-.43.578-.64 1.122-.657l.298-.009.167-.186c.218-.243.398-.615.507-1.043.048-.19.096-.354.106-.364.022-.022.77-.21.786-.198.022.019-.152.541-.295.881-.081.194-.32.694-.529 1.111s-.449.926-.531 1.13l-.15.37-.135.008a1.1 1.1 0 0 1-.33-.056zm.032-.793c.03-.036.022-.063-.032-.112-.067-.06-.076-.06-.13-.007-.047.048-.05.067-.012.112.056.068.121.07.174.007m.522-2.399c-.113-.022-.207-.053-.208-.07-.003-.058.45-.798.49-.798.074-.001.223.212.223.32a.7.7 0 0 1-.057.236 2 2 0 0 0-.08.237c-.028.123-.073.133-.368.075m21.218 9.501a.34.34 0 0 0-.194-.067c-.108.002-.107.004.048.069.205.085.25.085.146-.001zm-27.4-7.61c.115-.123.114-.157-.006-.143-.081.009-.1.03-.108.126-.014.14 0 .141.115.018zm22.778-.958c.49-.231.682-.276 1.446-.335 1.094-.085 3.135-.406 4.207-.663.528-.126.615-.138.774-.106.175.034.183.032.477-.136.192-.11.48-.229.814-.335.816-.26.814-.258 1.045-.49.163-.164.256-.303.401-.601.318-.65.399-.903.419-1.306.022-.449-.039-.695-.28-1.146-.098-.185-.346-.66-.55-1.059-.205-.397-.377-.729-.383-.736s-.083.03-.173.083a.6.6 0 0 1-.175.083 5 5 0 0 1-.115-.347 14.7 14.7 0 0 0-1.84-3.774c-.247-.365-.689-.952-.718-.952-.038-.001-.032.214.013.43.057.275.633 2.38.934 3.414.145.495.351 1.225.46 1.623.323 1.192.404 1.401.911 2.346.146.272.266.512.266.534.002.132-.696.26-1.428.26l-.53.001-.166.343c-.203.42-.318.563-.558.694-.335.182-.752.166-1.443-.056-.32-.102-.336-.104-.378-.042-.18.264-.266.359-.445.491-.219.163-.5.283-.785.336-.17.031-.2.023-.837-.233a14 14 0 0 0-.69-.264c-.015 0-.09.083-.167.185-.201.266-.37.425-.67.627l-.265.179-.308-.204a4.5 4.5 0 0 1-.625-.53l-.318-.326-.211.135a3.4 3.4 0 0 1-.46.233c-.322.13-.707.135-1.146.016-.334-.09-.352-.105-.699-.552l-.223-.288-.182.14c-.282.213-.595.28-.993.211-.685-.12-1.027-.422-1.07-.945-.017-.214-.02-.221-.127-.24-.06-.01-.451-.014-.868-.01-.732.01-.765.007-.943-.073a1 1 0 0 1-.223-.13c-.046-.056.029-.226.254-.58.405-.636.626-1.203 1.054-2.71.137-.48.552-1.78.923-2.89l.675-2.019-.066-.193c-.052-.154-.075-.186-.112-.155-.096.079-1.166 1.623-1.328 1.916-.033.058-.074.13-.093.159-.202.313-.679 1.257-.88 1.74-.147.357-.46 1.298-.46 1.383 0 .104-.08.084-.269-.07a1.2 1.2 0 0 0-.226-.16c-.016 0-.04.051-.054.114-.066.31-.22.683-.563 1.365-.447.89-.511 1.06-.537 1.431-.04.586.124.926 1.023 2.128.132.176.267.328.3.338.86.255 1.491.443 1.855.554.25.075.516.137.591.137.076 0 .57.087 1.099.193 1.618.324 2.274.42 3.306.48.72.041.782.055 1.446.337.243.103.46.188.48.188.022.001.205-.076.407-.171zm21.356-.664c-.012-.403-.025-2.754-.028-5.224-.006-3.95-.013-4.496-.06-4.524l-.37-.232a43 43 0 0 0-.659-.402l-.34-.203-.026.305c-.031.374.011 2.908.056 3.321.018.165.057.597.087.96.053.636.052.678-.016 1.146-.057.388-.072.667-.072 1.369 0 .976.05 2.13.109 2.494.056.352.226.67.53.995.21.227.756.72.8.725.006 0 .001-.328-.01-.73m-43.11.423c.027-.034.17-.205.318-.38a3.5 3.5 0 0 0 .389-.565c.21-.432.224-.542.242-1.904.01-.679.036-1.496.06-1.817.114-1.512.011-6.24-.138-6.328-.013-.007-.145.084-.294.203l-.573.456-.303.24.005.448a7 7 0 0 1-.043.8c-.061.453-.06.568.015 1.16.073.585.08 1.68.015 2.384-.047.504-.05.944-.025 2.842.015 1.095.01 1.194-.066 1.654l-.082.49.077.189c.075.184.082.19.215.19.088 0 .155-.023.188-.062zm9.93-.913q.187-.242.248-1.043c.02-.278.055-.568.076-.645.042-.157.189-.462.236-.491.017-.01.177.163.355.385.179.223.33.405.337.405.033 0-.32-.791-.45-1.005-.168-.28-.494-.62-.662-.69-.108-.044-.117-.042-.194.054a.8.8 0 0 0-.118.245c-.021.079-.159.612-.305 1.184-.286 1.12-.3 1.24-.15 1.402.07.077.46.292.53.292.012 0 .056-.042.096-.093m23.285-.02c.266-.1.275-.28.056-1.07-.193-.696-.232-.91-.232-1.25a.9.9 0 0 0-.108-.495 4 4 0 0 0-.12-.24c-.016-.016-.364.16-.48.242-.088.062-.4.652-.682 1.285l-.125.282.22-.244c.518-.578.514-.575.572-.498.142.185.2.452.228 1.06.025.532.038.623.12.804l.09.204.186-.024c.103-.013.227-.039.275-.057m1.207-.337c.183-.146.194-.177.116-.326-.1-.193-.16-.547-.212-1.25-.056-.746-.148-1.185-.249-1.185-.029 0-.145.047-.258.104-.206.104-.282.2-.34.43-.056.228.459 2.13.621 2.292.094.094.133.086.322-.065m-25.834-.058c.14-.11.267-.666.315-1.38l.023-.352.173-.011.172-.011-.021-.207c-.03-.28-.113-.473-.26-.602-.126-.11-.422-.272-.445-.243-.007.009-.072.34-.145.738-.306 1.68-.316 1.754-.282 1.931.028.148.045.17.138.19.123.025.261.003.332-.053m26.944-.336c.357-.17.395-.33.225-.955-.075-.274-.08-.346-.06-.831.024-.614-.002-.753-.174-.925l-.118-.12-.158.109c-.356.245-.465.491-.41.925.02.162.02.428-.001.71-.042.548.01.852.182 1.06.133.161.22.166.514.027m-27.84-.073c.032-.053.02-2.115-.013-2.259-.056-.237-.151-.387-.304-.477-.224-.131-.28-.118-.345.085-.031.095-.1.642-.154 1.23-.109 1.18-.101 1.3.085 1.401.11.06.696.076.73.02m13.852-.38c.218-.29.241-.344.317-.718.107-.528.108-.918.016-5.13-.011-.504-.03-1.67-.041-2.592-.02-1.529-.043-1.905-.117-1.905-.013 0-.051.044-.084.097a2 2 0 0 1-.124.178l-.063.08-.252-.104-.251-.103-.02.076c-.018.067-.072 1.663-.157 4.627-.048 1.63-.05 4.526-.003 4.745a1.48 1.48 0 0 0 .633.917c.011 0 .077-.076.146-.168zm-2.522-.312a.91.91 0 0 0 .602-.508c.197-.395.21-.506.415-3.757l.07-1.076c.01-.126.042-.626.07-1.111l.143-2.35c.091-1.488.088-1.726-.025-1.802-.412-.277-.616-.357-1.008-.398l-.22-.022v.143c0 .119.015.15.087.184q.089.04.11.161c.022.113-.076.845-.376 2.814a1743 1743 0 0 0-.805 5.397c-.106.707-.156 1.277-.134 1.52.027.286.145.518.371.73.173.16.184.165.348.146.093-.012.252-.043.352-.071m5.184-.012c.235-.139.347-.37.398-.823.036-.325.015-.58-.118-1.42-.049-.31-.144-1.024-.212-1.587a140 140 0 0 0-.372-2.734c-.138-.94-.329-2.266-.426-2.946a86 86 0 0 0-.192-1.31c-.02-.089-.149-.13-.311-.1-.14.027-.63.383-.67.487a1.5 1.5 0 0 0-.027.341c0 .25.189 4.098.236 4.851.024.384-.02.572-.155.657-.067.041-.066.05.05.294.119.249.12.26.172 1.079.096 1.508.155 1.961.322 2.483.151.476.279.659.542.778.18.08.586.054.763-.05m2.3-.369a.7.7 0 0 0 .158-.12c.062-.068.06-.093-.08-.77a1540 1540 0 0 1-.918-4.458c-.119-.573-.246-1.192-.282-1.376a167 167 0 0 0-.247-1.2c-.1-.475-.21-1.015-.247-1.199a57 57 0 0 0-.37-1.756 2 2 0 0 0-.344.07l-.332.081.38 2.47.435 2.822c.247 1.623.73 4.633.762 4.752.092.342.31.669.474.708.155.038.52.023.61-.024m-9.566-.118c.195-.14.25-.315.402-1.3.077-.503.22-1.42.318-2.038.1-.634.168-1.167.156-1.223a.33.33 0 0 1 .035-.21c.032-.06.112-.447.179-.858l.317-1.947c.397-2.439.485-3.085.422-3.11a2 2 0 0 0-.337-.005l-.295.01-.024.106c-.012.059-.072.32-.132.582a124 124 0 0 0-.747 3.422c-.056.282-.246 1.218-.423 2.082-.715 3.505-.776 3.836-.776 4.202 0 .404-.028.382.458.372.286-.005.352-.018.447-.085m-2.228-.877c.175-.013.352-.037.395-.052.114-.043.348-.357.432-.581.04-.108.123-.39.183-.626.061-.237.146-.502.19-.59.048-.096.089-.261.103-.423.043-.468.144-.962.848-4.18l.247-1.129.267-1.213c.111-.503.126-.674.068-.783-.036-.066-.04-.066-.203.018-.51.261-.775.655-.854 1.266-.033.25-.11.556-.676 2.652-.242.9-1.238 4.416-1.439 5.08a3 3 0 0 0-.089.42l-.025.207.118-.021c.064-.012.26-.032.435-.045zm13.654-.02c.01-.012-.051-.313-.139-.67l-.3-1.229c-.165-.684-.491-2.012-1.004-4.092l-.5-2.027c-.149-.612-.185-.693-.443-.987-.405-.462-.623-.606-1.017-.672l-.153-.026.024.136c.018.099.063.169.165.255a1 1 0 0 1 .195.224c.07.137.337 1.135.43 1.615l.308 1.57c.15.767.298 1.41.41 1.782.106.351.265 1.03.4 1.713.272 1.37.374 1.791.488 2.014.175.343.362.442.807.425.17-.006.317-.02.329-.032m4.238-.612c.23-.048.455-.097.501-.107.08-.019.084-.03.063-.225-.027-.255-.089-.442-.313-.937a13 13 0 0 1-.7-1.862c-.16-.527-.327-.865-.536-1.08l-.15-.155-.04.367c-.036.313-.205 1.114-.245 1.156-.007.008-.097-.049-.2-.126-.376-.282-.455-.336-.47-.32-.008.007.016.108.053.223.038.115.143.446.234.735l.165.526.26.277c.303.324.412.535.506.976.077.36.14.505.256.586.103.072.125.07.616-.034m-21.763-.195a2 2 0 0 0 .222-.475c.166-.587.182-.62.802-1.565l.193-.295.156.021c.138.02.154.014.138-.04-.01-.033-.07-.267-.131-.52a7 7 0 0 0-.125-.473c-.007-.009-.147.126-.31.3-.165.173-.3.29-.3.262a31 31 0 0 0-.226-1.4c-.013-.014-.488.338-.52.385a5 5 0 0 0-.119.461c-.134.593-.39 1.53-.475 1.748-.04.1-.115.249-.167.331-.15.238-.278.544-.395.943-.059.203-.104.372-.1.375a21 21 0 0 0 1.171.177c.02-.004.103-.11.186-.235m29.853-3.59V92.87l-.574-.374c-.627-.41-.678-.436-.712-.381-.033.053-.047 3.809-.017 4.606.023.6.036.708.13 1.023.186.621.332.937.545 1.182.132.152.546.491.602.493.014 0 .026-1.473.026-3.274m-38.441 2.92c.378-.334.809-.976.942-1.405.066-.215.07-.335.07-2.97v-2.747l-.697.506-.697.506-.02.7c-.027.96-.01 5.516.02 5.614.025.078.026.078.118.012.052-.036.17-.134.264-.217m36.219-5.285v-2.924l-.427-.33c-.633-.492-.667-.513-.704-.453-.066.106-.074.475-.059 2.626.016 2.373.018 2.402.205 2.99.07.22.098.257.38.51.168.151.36.326.428.389a.6.6 0 0 0 .15.114c.015 0 .027-1.315.027-2.922m-33.876 2.684q.55-.577.75-1.173c.171-.511.177-.61.175-2.96 0-1.214-.013-2.26-.027-2.324l-.025-.116-.478.398-.626.52-.148.123-.003 1.607c-.003 1.476-.033 2.439-.089 2.869-.012.093-.003.243.02.333.022.09.05.3.06.465.02.292.077.461.158.461.022 0 .126-.091.233-.203m8.956-2.02c.086-.145.22-.43.3-.634.572-1.469 1.223-2.463 2.138-3.267.885-.777 1.665-1.072 2.716-1.027q.714.03 1.304.291c.317.14.779.463 1.036.724l.244.247.38-.303c.804-.643 1.392-.887 2.22-.924a3 3 0 0 1 .776.043c.434.078 1.117.3 1.44.47.283.149.63.459.808.723.068.1.239.294.38.43.14.136.32.35.402.476.355.55.91 1.625 1.62 3.131.095.199.191.362.215.362.031 0 .05-.13.066-.45.013-.248.03-.506.038-.573l.016-.137c.003-.032.14.109.437.453a30 30 0 0 0 .49.557l.132.15v-.133a3 3 0 0 0-.052-.409c-.063-.327-.067-.502-.015-.65l.037-.109.144.05c.079.029.282.13.45.227.34.195.525.28.698.32.106.024.114.02.114-.065 0-.05-.097-.402-.215-.781a40 40 0 0 1-1.124-4.508c-.262-1.36-.298-1.781-.3-3.573 0-1.33.009-1.643.063-2.046.088-.651.353-2.09.504-2.741l.124-.537-.059-.297a2 2 0 0 0-.087-.343c-.023-.037-.09-.03-.34.035a4 4 0 0 0-.362.108c-.1.053-.748 1.051-.997 1.534-.446.867-.833 1.385-1.651 2.21-.282.284-.701.718-.932.964a7 7 0 0 1-.618.596c-.108.08-.216.17-.238.2-.023.028-.086.219-.139.423a9 9 0 0 1-.104.38 3 3 0 0 1-.362-.184c-.195-.108-.376-.196-.404-.196a3 3 0 0 0-.409.123 8 8 0 0 1-.376.123c-.009 0-.017-.055-.017-.122 0-.144.03-.145-.635.018-.749.184-.983.216-1.693.236-.749.02-1.234-.023-2.075-.182-.533-.1-1.204-.15-1.24-.092-.017.027-.116.005-.32-.07-.163-.06-.329-.1-.368-.09-.04.01-.164.098-.276.195-.2.172-.404.263-.504.225-.065-.025-.067-.015.055-.223l.106-.18-.108-.213a1.38 1.38 0 0 0-.583-.618c-.18-.093-.193-.108-.175-.202.018-.093-.047-.167-.891-1.005-.512-.508-1.007-1.034-1.13-1.2-.12-.162-.38-.567-.577-.9-.462-.779-.526-.868-.77-1.063-.139-.111-.21-.196-.224-.267a5 5 0 0 0-.076-.295l-.055-.19-.219-.02-.404-.035-.185-.015v.13c0 .07.025.39.055.71s.055.717.054.882c0 .192.018.338.051.406.064.13.282 1.132.357 1.637.11.74.052 3.46-.097 4.541-.064.467-.408 2.02-.95 4.282-.473 1.979-.558 2.345-.546 2.358.006.007.232-.114.5-.267l.689-.393.2-.114-.017.187c-.01.103-.028.374-.043.602-.023.384-.02.416.04.435.036.011.07.015.075.009l.374-.471c.2-.252.416-.518.48-.591l.118-.132v1.392l.18-.246a7 7 0 0 0 .336-.511m22.728-3.28a51 51 0 0 0-.019-1.933l-.023-.293-.515-.41-.515-.409-.01 1.249c-.024 2.773.147 3.604.862 4.196l.171.141.023-.45c.012-.248.024-1.189.026-2.091m-29.454 2.152c.212-.31.347-.607.445-.978.089-.333.094-.406.141-2.067.05-1.714.05-1.723-.022-1.881-.04-.087-.087-.154-.105-.148-.093.032-.788.623-.822.7-.026.06-.043.762-.052 2.204-.012 1.935-.008 2.134.049 2.32l.061.204.087-.08c.047-.044.146-.167.218-.274m-6.78-.618c.313-.218.367-.272.478-.476.34-.626.446-1.19.448-2.381 0-.388.024-1.087.052-1.552.071-1.181.068-1.443-.02-1.727-.04-.13-.084-.23-.1-.225-.014.007-.282.21-.596.452l-.57.441-.001 1.94a70 70 0 0 1-.035 2.488l-.057.93c-.016.253-.012.38.012.37.02-.007.194-.124.389-.26m43.066-.661c-.01-.47-.02-1.738-.02-2.817l.001-1.962-.38-.248c-.743-.486-.892-.573-.984-.573h-.093l.025.255c.033.339.089 2.52.09 3.52.001.436.018.896.038 1.022.052.33.264.751.514 1.022.2.216.724.637.795.637.021 0 .026-.319.014-.856m-2.383-3.267v-2.747l-.442-.384c-.461-.4-.8-.649-.884-.649-.03 0-.05.037-.05.095 0 .053-.018.225-.04.382-.034.23-.033.328.005.496.034.15.054.696.07 1.955.022 1.697.025 1.754.104 1.994.18.546.472 1.052.799 1.381.16.162.232.201.394.219.035.004.044-.566.044-2.742zM155.96 91.33c.148-.116.187-.16.433-.48.186-.242.442-.748.545-1.079.076-.241.078-.296.089-2.483.006-1.23-.001-2.25-.016-2.264-.023-.021-1.312.865-1.423.977-.016.017-.007.126.02.243.037.154.05.437.048 1.04-.002.64.01.872.05 1.017.048.167.048.2 0 .315a.6.6 0 0 0-.038.253c.008.07-.013.658-.048 1.308s-.064 1.21-.065 1.245c-.002.097.23.043.404-.092m32.084-3.05v-2.107l-.272-.247-.493-.45a1.6 1.6 0 0 0-.248-.203c-.015 0-.019.862-.01 1.914l.018 1.914.093.255q.155.423.37.68c.104.123.428.353.498.353.035 0 .044-.433.044-2.108zm-25.474 1.763c.24-.235.41-.547.483-.885.037-.169.06-.71.084-1.962.03-1.532.02-1.95-.044-2.015-.026-.026-1.367.891-1.364.932a.7.7 0 0 0 .168.13l.166.106.02 1.94c.011 1.068.032 1.968.047 2.002.025.055.037.056.13.008.056-.03.196-.144.31-.256m29.638-3.038V84.61l-.232-.206a2.6 2.6 0 0 0-.344-.265c-.14-.074-.547-.188-.574-.16-.012.01-.034.525-.05 1.143-.037 1.35 0 2.353.098 2.71.112.408.28.765.476 1.012.172.215.537.555.6.557.014 0 .026-1.077.026-2.395m-33.686 1.947c.305-.322.537-.758.65-1.218.072-.297.125-1.67.103-2.672-.016-.71-.051-1.06-.12-1.19-.014-.028-.192.067-.545.292-.288.183-.531.333-.54.333s-.04.024-.07.053c-.046.047-.047.16-.01.944.027.575.034 1.303.018 2.055-.016.788-.012 1.244.014 1.411.063.397.057.389.207.27.071-.058.203-.182.293-.278m31.463-3.606v-2.01l-.12-.056a1.4 1.4 0 0 1-.285-.216c-.218-.209-.364-.295-.5-.295-.109 0-.111.004-.126.185-.008.102.006.638.03 1.19l.07 1.588c.019.488.033.594.086.653.035.039.137.197.228.353s.208.327.259.383c.093.101.281.234.332.234.014 0 .026-.904.026-2.01zm-29.62 1.88c.252-.16.355-.325.51-.815.08-.247.185-.624.235-.838q.092-.388.161-.447c.069-.058.069-.06-.01-.194-.077-.13-.08-.167-.08-.946 0-.725-.007-.825-.066-.935-.133-.249-.149-.256-.351-.153-.267.135-.367.22-.493.415l-.113.177-.012.989c-.013 1.027.023 2.84.056 2.84.01 0 .084-.041.164-.092m26.108-13.506c-.083-.67-.105-1.441-.052-1.771.047-.295.171-.734.2-.706.008.01.056.26.103.556.048.297.112.628.143.736.162.575.408 1.306.454 1.343.029.024.122.149.208.278.186.281.322.415.456.448.097.024.1.021.08-.095-.138-.852-.154-1.89-.035-2.288.07-.234.18-.459.225-.459s.097.195.163.6c.267 1.64.438 2.194.873 2.84.295.44.746.97.824.97q.047.002.03-.115c-.104-.742-.16-1.68-.16-2.727 0-.86.026-1.2.11-1.42.034-.09.036-.089.142.096.188.33.268.604.4 1.38.253 1.495.438 2.133.851 2.928.21.404.597.951.672.951.026 0 .08-.031.118-.07.084-.084.088-.21.037-1.134a35 35 0 0 1-.07-2.528c.001-.518.004-.962.006-.986.004-.058.03-.056.125.011.11.077.226.32.357.744.228.742.342 1.485.377 2.461.025.678.093 1.07.261 1.491.229.572.445.878.78 1.102.387.258.35.527.35-2.484 0-1.854.01-2.628.037-2.628.021 0 .14.1.264.225.26.257.41.54.49.92.058.27.16 1.912.16 2.568 0 .75.075 1.219.266 1.666.101.236.4.674.562.824.17.157.47.323.583.323.066 0 .07-.016.053-.185-.071-.708-.087-1.605-.087-4.948 0-4.148 0-4.143-.214-4.78-.201-.602-.292-.757-1.051-1.8-1.013-1.39-1.352-1.829-1.962-2.54-1.117-1.3-1.85-1.834-2.519-1.834-.432 0-1.027.242-1.75.711-1.258.814-2.08 1.202-2.905 1.369-.34.069-1.095.155-1.735.198-1.471.1-2.896-.67-3.66-1.978-.177-.301-.784-1.476-1.496-2.89-.953-1.896-1.292-2.42-2.055-3.178-.361-.36-.683-.601-1.47-1.107-.3-.192-.584-.382-.632-.422l-.089-.073.353.011c.24.007.471.042.719.106.201.053.374.087.385.076.058-.058-.082-.205-.3-.315a4 4 0 0 1-.373-.212c-.437-.299-1.081-.566-1.685-.697-.32-.07-.47-.08-1.127-.08-.857-.001-1.26.058-1.897.276-.759.26-1.21.552-1.93 1.25-.294.285-.64.61-.77.722-.396.344-.589.71-.589 1.118v.201l.203-.031c.112-.017.314-.07.45-.117.36-.123.652-.144 1.009-.072.402.08.763.207 1.143.4.258.132.38.225.656.5.293.291.362.383.502.672.239.492.318.857.316 1.463-.002.726-.104 1.193-.388 1.764-.415.835-1.101 1.47-2.318 2.146-.485.27-.846.408-1.363.524-.333.074-.454.082-1.25.082-.873 0-1.203-.025-2.1-.16-1.373-.204-2.622-.673-3.913-1.469-1.018-.627-1.19-.7-1.66-.694-.391.004-.716.086-1.13.286-.297.144-.376.204-.702.535a56 56 0 0 0-1.821 1.984c-.968 1.119-1.755 2.32-2.012 3.068-.214.624-.2.327-.228 5.128-.017 2.839-.04 4.485-.063 4.62-.02.117-.034.215-.03.22.004.004.11.018.236.03l.229.023.147-.153c.123-.128.206-.291.489-.965l.34-.811-.044-.496c-.053-.605-.025-1.828.052-2.317.07-.445.179-.866.282-1.096.088-.195.304-.425.436-.464l.08-.024v5.258l.36-.234c.306-.196.375-.259.445-.398.08-.162.201-.263.34-.288.091-.015.123-.06.124-.172 0-.05.017-.108.039-.129.028-.028.026-.06-.004-.118-.049-.09-.036-.31.074-1.251.075-.64.224-1.603.37-2.381.105-.57.225-.833.468-1.038l.164-.137.025.137c.039.22.031.998-.024 2.343-.071 1.752-.072 2.072-.007 2.223l.054.123.198-.212c.23-.245.526-.676.69-1.003.17-.34.368-.981.474-1.537.342-1.787.419-2.103.577-2.38l.13-.23.018 2.022.018 2.022.14-.102c.294-.214.542-.554.796-1.09.408-.864.6-1.599.666-2.551.028-.4.037-.438.133-.557a.7.7 0 0 1 .138-.14c.02-.006.064.219.104.528.075.586.09 1.47.039 2.187-.035.481-.006.52.194.265.065-.083.24-.298.388-.479.404-.49.518-.798.701-1.894.078-.465.148-.865.156-.888.027-.074.156-.008.175.09.12.62.13 1.204.039 2.298-.055.648-.06 1.297-.057 6.28.002 3.055.014 5.64.026 5.741.012.102.034.194.05.204s.2-.196.41-.457c.355-.44.398-.482.603-.57.205-.09.22-.104.22-.21 0-.062-.05-.262-.113-.444l-.112-.331-.014-.958c-.013-.855-.02-.96-.073-.974-.05-.013-.07-.163-.146-1.052-.11-1.285-.11-1.434-.007-1.716.079-.217.08-.22.017-.423-.056-.18-.063-.345-.061-1.368.003-1.198.036-1.672.195-2.78.148-1.035.52-2.684.636-2.823.063-.076.064-.074.064.152 0 .126-.032.523-.073.882-.066.587-.075.917-.091 3.292-.01 1.452-.007 2.71.006 2.796.013.09.062.203.117.267l.094.112.223-.244.224-.243-.023-.291c-.02-.251-.013-.312.05-.441.158-.328.184-.461.217-1.124.055-1.109.121-1.57.298-2.095.13-.383.45-1.153.686-1.65l.147-.31-.066-.308-.066-.308.133-.29c.131-.287.133-.293.084-.459l-.12-.427-.072-.26.467.025c.525.027.428.063.82-.3.167-.156.19-.166.434-.188.312-.03.39-.068.779-.383.444-.361.879-.64 1.396-.894.56-.275 1-.435 1.69-.616.54-.142.896-.308.93-.432.009-.034.02-.062.025-.062.086 0 .761-.16.813-.192.038-.025.165-.174.282-.331a2.5 2.5 0 0 1 .229-.286c.022 0 .31.391.415.566.084.14.164.17.604.228.157.021.213.049.319.158.162.167.294.221.768.317 1.076.216 2.029.679 4.126 2l.676.427.33.024c.18.012.357.03.39.04.102.028.079.26-.05.523l-.114.229.136.327c.776 1.867 1.205 3.42 1.363 4.93.02.204.039.72.039 1.147v.776l.168.163c.184.178.484.32.528.249.04-.066.143-1.258.18-2.087.069-1.559-.073-3.775-.337-5.274a4 4 0 0 1-.05-.353v-.07l.055.07c.281.363.66 1.583.772 2.49.071.581.068.562.17.967.132.516.226 1.705.14 1.758-.015.01-.016.237-.002.505l.057 1.088c.05.983-.019 2.268-.198 3.67a9.5 9.5 0 0 0-.094 1.516c.001.745.005.79.1 1.094.136.447.3.719.634 1.053l.287.287.01-5.891c.01-5.234.003-5.943-.047-6.35zm-26.298-5.768c0-.02.016-.035.036-.035s.035.016.035.035-.016.035-.035.035a.035.035 0 0 1-.036-.035m17.626-6.12c-.01-.03-.006-.054.012-.054.048 0 .078.063.04.086-.017.01-.04-.004-.052-.033m-6.154-3.982c-.31-.083-.524-.356-.713-.91l-.08-.234-.256-.04c-.285-.047-.316-.082-.249-.286.051-.157.19-.233.536-.296.46-.083.658-.097 1.392-.097.747 0 .976.036 1.23.192l.12.073-.473.128-.473.129-.01.289a2 2 0 0 0 0 .288c.006 0 .063-.015.127-.033.101-.029.114-.025.099.027l-.054.2c-.091.348-.315.535-.697.585-.29.037-.307.037-.499-.015zm-.027-.52a2 2 0 0 0-.202-.182l-.135-.107.056.138c.067.16.141.225.26.225.087 0 .087 0 .02-.074m.26-.406c-.03-.032-.074-.047-.095-.034-.07.044-.04.09.057.09.088 0 .092-.004.039-.056zm-3.048.852c.043-.168.092-.268.141-.287.051-.02.318.1.355.158.017.029-.406.216-.488.216-.016 0-.02-.04-.008-.087zm28.05 27.635c-.04-.357-.052-.906-.053-2.24 0-.973-.01-1.841-.022-1.93l-.022-.162-.7-.408a19 19 0 0 0-.719-.407c-.01 0-.019.367-.019.816 0 .712-.007.822-.057.858-.042.031-.05.07-.032.154.013.062.038.112.054.112.069 0 .115.289.125.772.018.906.194 1.583.59 2.27.118.204.166.253.372.369.39.22.518.287.527.278a6 6 0 0 0-.043-.482m-42.981.05c.348-.363.627-.872.76-1.384.07-.28.09-.458.107-1.026.012-.378.02-.807.017-.953-.012-.764-.046-1.814-.057-1.825-.007-.008-.293.188-.635.434l-.62.447v.287l-.009 1.328a163 163 0 0 0 0 2.02l.009.98.132-.069c.073-.037.206-.145.296-.238m21.912-.034a.36.36 0 0 0 .218-.123c.083-.099.093-.101.434-.101.26 0 .404-.019.575-.076.257-.085.716-.37.693-.43-.104-.284-.168-.529-.143-.55.017-.014.214-.043.438-.065l.407-.038.29-.294.29-.293.073.087a.22.22 0 0 1 .055.194l-.03.177c-.01.062.011.072.172.081a.6.6 0 0 0 .353-.075c.372-.189 1.103-.819 1.665-1.435.405-.444.652-.734.67-.789.007-.022.14-.293.296-.604.301-.603.395-.838.433-1.09.023-.154.02-.16-.077-.181-.206-.045-.473-.133-.53-.175-.051-.037-.032-.076.175-.35.182-.241.23-.33.22-.407a14 14 0 0 1-.038-.46l-.026-.361.155.024c.085.014.241.047.347.073a.8.8 0 0 0 .204.038 5 5 0 0 0 .063-.396c.154-1.159-.03-2.466-.52-3.7-.145-.367-.589-1.295-.67-1.402-.042-.056-.07-.045-.35.13l-.305.191-.043-.165c-.133-.513-.247-.685-.66-.995l-.235-.18c-.017-.014.102-.092.264-.173.163-.082.302-.154.31-.162.046-.042-.603-.59-1.121-.946-1.103-.757-2.342-1.242-3.785-1.482l-.13-.022-.056.194a5 5 0 0 0-.079.304c-.012.06-.04.117-.063.126s-.188-.04-.367-.11l-.326-.126-.213.114c-.234.125-.419.143-.52.052-.037-.034-.078-.16-.105-.321-.025-.146-.06-.266-.08-.266s-.197.041-.395.09c-1.879.475-3.084 1.074-4.107 2.044-.18.17-.327.324-.327.342s.11.083.246.145c.135.062.246.132.247.155.003.077-.096.14-.288.182-.146.033-.204.065-.247.139-.03.053-.162.286-.292.52-.13.232-.243.43-.252.438-.008.008-.067-.036-.132-.1-.11-.105-.133-.113-.325-.103l-.207.011-.063.239c-.062.238-.194.49-.285.544-.026.016-.066.12-.088.233-.042.211-.104.358-.295.695-.09.158-.122.282-.18.67-.047.325-.087.488-.124.515-.089.065-.114.43-.092 1.355.02.869.042 1.057.131 1.18.047.063.061.059.32-.103.149-.093.278-.162.286-.154s-.01.232-.04.496l-.055.48.149.25c.082.139.163.26.18.27.072.045.014.121-.251.33l-.282.222.129.235c.07.128.181.326.246.439s.118.21.118.219c0 .037.573 1.052.669 1.184.06.083.358.38.663.661l1.113 1.026c.055.05.161.095.257.11l.163.024.181-.222.182-.222.11.106c.06.059.188.2.282.315l.172.21h.406c.405.002.53.034.53.14 0 .023-.057.142-.124.263a1.4 1.4 0 0 0-.124.258c0 .02.044.054.097.074l.374.142c.497.19 1.185.327 2.157.43.24.026.409.061.441.093q.054.05.159.03zm-1.597-1.251c-.84-.097-1.359-.263-2.223-.71-.954-.495-1.333-.764-2.022-1.435-1.092-1.062-1.75-2.343-2.005-3.901-.07-.425-.052-1.635.035-2.356.062-.519.086-.625.195-.864.07-.15.16-.392.201-.537.118-.412.433-1.04.612-1.219.15-.15.362-.43.531-.7.263-.42.453-.64.65-.752.09-.052.314-.246.498-.432a3.2 3.2 0 0 1 .706-.557c.484-.288.948-.49 1.331-.58.17-.04.445-.118.61-.172.477-.157.903-.219 1.48-.215.282.001.663.027.847.056.185.03.51.08.723.111.948.141 1.68.422 2.24.86a1 1 0 0 0 .304.14c.248.058.544.262.878.605.156.159.263.278.239.264q-.044-.022-.045.041-.001.067.084.064c.064-.001.171.1.457.433.444.518.554.678.809 1.188.58 1.161.827 2.065.862 3.164.062 1.928-.437 3.552-1.488 4.844-1.152 1.416-3.096 2.45-5.01 2.663a9 9 0 0 1-1.5-.003m1.552-.542c.243-.029.67-.091.948-.14.48-.083.52-.096.741-.246.282-.191.485-.268.71-.268.155 0 .178-.012.336-.18.159-.17.684-.618 1.647-1.407.376-.308.419-.356.524-.582.064-.136.192-.404.286-.597s.165-.355.157-.363a6 6 0 0 0-.591.077 55 55 0 0 1-2.077.298c-1.016.11-3.279.153-4.057.078-.223-.022-.68-.04-1.015-.04h-.61l-.038.097c-.08.196-.077.841.006 1.49.075.59.079.878.014 1.238-.022.125-.022.126.192.222.3.134.745.264 1.098.32.406.065 1.193.066 1.729.003zm-3.543-.998c-.026-.319-.175-2.9-.237-4.1-.11-2.11-.033-4.05.237-6.015.102-.742.116-.792.172-.606l.04.135.083-.067.082-.067-.17-.535c-.092-.295-.186-.536-.207-.536-.067 0-.394.165-.574.29a9 9 0 0 0-1.196 1.02c-1.187 1.216-1.833 2.672-1.992 4.493a6.18 6.18 0 0 0 1.021 3.969c.332.49.413.594.767.978.723.785 1.47 1.303 1.896 1.313l.1.002zm5.59-2.904c.61-.04 1.295-.114 1.798-.193.6-.094 1.78-.37 1.836-.428.05-.053.212-1.091.25-1.605.067-.905-.084-1.962-.358-2.5-.064-.125-.064-.126-.622-.255-1.717-.398-2.739-.498-5.057-.497-1.5.002-3.05.053-3.101.104-.027.027-.042 4.856-.016 5.047.019.14.03.152.237.247l.217.1 1.182.02c1.426.025 2.891.008 3.633-.04m-9.676-3.25c-.007-.103-.013-.028-.013.166s.006.278.013.186c.007-.091.007-.25 0-.352zm.416-1.83c.013-.02.017-.043.01-.051-.025-.024-.17.025-.17.058 0 .044.132.039.16-.007zm12.566-.16c-.012-.011-.042-.013-.068-.002-.028.01-.02.02.021.02.038.002.058-.006.047-.018m-8.778-.216-.003-.168-.043.141q-.057.188.04.194a.8.8 0 0 0 .006-.167zm8.646-.128c0-.076-.34-.758-.52-1.041a7 7 0 0 0-1.007-1.172c-1.693-1.472-4.045-2.048-5.931-1.454-.157.05-.341.118-.41.153l-.125.064-.151.92c-.163.987-.243 1.775-.203 1.99l.025.133.642-.028a53 53 0 0 1 3.306-.002c.842.043 2.176.18 3.51.36.585.079.864.104.864.077m-8.34-3.505c-.035-.036-.065.018-.035.065.022.036.03.036.042 0 .008-.024.005-.054-.007-.065zm15.176 11.213-.482-.44a3 3 0 0 0-.306-.262c-.038.038-.05 1.268-.018 1.72.081 1.111.14 1.226.85 1.652l.123.074.009-1.287.009-1.288zm-25.36 2.573c.29-.17.297-.178.41-.477.22-.586.316-1.288.29-2.127-.01-.317-.026-.585-.038-.596-.011-.012-.064-.021-.118-.021-.146 0-.65.535-.799.847l-.112.238-.012.9c-.012.886.025 1.375.106 1.375.02 0 .142-.063.273-.14m32.036-.448c0-.522-.005-.563-.091-.738-.117-.24-.15-.63-.073-.875.05-.164.05-.177-.019-.27-.094-.127-.06-.242.08-.27l.103-.02-.001-.87-.001-.868-.212-.265c-.194-.24-.25-.285-.643-.5a6 6 0 0 0-.46-.238c-.016-.002-.023.843-.015 1.876.017 2.09.018 2.1.263 2.596.084.172.206.34.36.496.228.232.578.493.664.496.034.001.045-.132.045-.55m-38.514.344c.063-.039.236-.205.386-.369.25-.273.28-.321.347-.567.04-.148.103-.336.138-.418.162-.374.244-1.648.182-2.83-.05-.945-.063-1.041-.138-1.041-.056 0-.297.176-.934.682l-.308.246v4.429l.107-.03c.059-.017.158-.063.22-.102m36.291-3.386v-2.253l-.233-.207c-.445-.396-.654-.497-.907-.44a.7.7 0 0 0-.146.044 2 2 0 0 0-.028.248c-.012.16-.005.24.022.25.029.01.04.39.043 1.35.004 1.53.024 1.675.304 2.238.122.247.212.364.508.661.198.2.377.362.398.362.028 0 .04-.632.04-2.253m-33.776 1.783a2.9 2.9 0 0 0 .55-.842c.195-.458.206-.589.206-2.36 0-.89-.007-1.62-.015-1.62s-.261.144-.561.32l-.546.318-.042.219c-.024.121-.056.77-.072 1.454-.03 1.214-.046 1.446-.109 1.484-.046.029-.038.187.04.81.039.309.07.583.07.61 0 .067.238-.127.48-.393m31.527-1.744-.017-2.23c-.006-.771-.023-1.24-.046-1.28-.02-.035-.243-.214-.494-.398l-.456-.336-.035.098c-.053.146-.04 2.884.015 3.238.057.367.185.773.363 1.147.108.226.2.357.38.538.132.13.252.238.269.238s.026-.457.021-1.015zm-29.69.83c.205-.189.435-.512.559-.785.17-.376.234-.697.267-1.341.016-.33.04-.666.053-.747a.8.8 0 0 0-.034-.34c-.067-.231-.071-.529-.015-1.1.042-.43.028-.63-.05-.734-.04-.051-.06-.043-.188.074-.08.073-.29.258-.468.412l-.323.279v1.766c0 1.443-.01 1.817-.054 2.048-.048.248-.045.503.007.59.03.053.086.025.245-.122zm2.213-1.364c.227-.214.428-.527.524-.812.076-.226.078-.286.09-2.137.013-1.867.001-2.276-.065-2.276-.019 0-.133.066-.254.147a2.2 2.2 0 0 0-.475.467l-.256.321v4.648l.132-.098c.073-.054.21-.17.304-.26m25.045-4.793c-.413-.397-.493-.46-.527-.414-.056.077-.1 2.13-.07 3.28.023.842.032.936.112 1.173.047.142.124.317.17.39.107.165.413.461.622.601l.158.107.011-2.335.01-2.334zm-19.691-2.997c-.14-.058-.162-.044-.132.077.023.09.024.09.137.031l.114-.06zm14.018-.577c.106-.08.185-.16.174-.178-.023-.037-.004-.045-.286.126-.15.09-.212.148-.198.184.025.066.075.045.31-.132m-8.563-3.425c-.07-.045-.18-.035-.266.025-.132.093-.088.115.116.058q.194-.053.15-.083m-5.037-9.515a1 1 0 0 0-.132-.175c-.115-.134-.145-.15-.23-.128-.134.034-.308.214-.308.319 0 .074.017.085.12.085.104 0 .121.014.14.108l.021.107.195-.147a1 1 0 0 0 .194-.169m1.588.113a1 1 0 0 0-.089-.175c-.122-.207-.295-.264-.496-.162-.123.063-.296.213-.258.224.023.006.75.127.799.132.024.003.044-.006.044-.019M188.403 46.6c-.213-.03-.256-.046-.24-.092.01-.031.054-.152.096-.268.071-.193.078-.282.082-1l.004-.788-.115.135c-.131.155-.338.56-.517 1.01-.166.419-.34.72-.51.886l-.142.137-.378-.772c-.207-.425-.45-.9-.54-1.055l-.163-.282-.032.3c-.018.165-.034.53-.036.811-.003.493.001.519.095.696.053.101.097.19.097.2 0 .008-.05.032-.112.053-.145.05-.44.05-.726-.003l-.227-.042.258-.13.26-.13.003-1.125c.005-1.342-.014-1.465-.271-1.757l-.108-.123.082-.02c.045-.012.24-.016.435-.01l.353.01.591 1.196c.326.657.599 1.188.608 1.18s.266-.547.574-1.196l.558-1.18.539-.01.539-.01-.13.114c-.177.156-.29.345-.35.586-.042.164-.046.387-.026 1.19.024.957.028.99.107 1.103.045.063.13.14.187.17.14.072.115.125-.095.198-.193.066-.363.07-.75.018zm-45.77-.053c-.328-.119-.576-.404-.697-.801-.026-.087-.052-.516-.066-1.112l-.023-.97-.132-.235a3 3 0 0 1-.132-.253c0-.05.437-.1.723-.084.316.02.688.107.688.164 0 .016-.048.05-.107.074a.8.8 0 0 0-.228.185c-.18.21-.208.403-.183 1.26.022.783.063 1.01.218 1.194.115.136.391.25.668.277.211.02.234.014.378-.09.188-.135.325-.303.427-.524.075-.162.078-.204.069-1.068l-.01-.9-.245-.238-.245-.238h.546c.3 0 .546.01.546.02 0 .012-.052.135-.114.274l-.115.253-.02 1.005c-.03 1.43-.047 1.466-.837 1.728-.492.162-.815.185-1.11.079zm7.307.026c-.412-.057-.414-.063-.117-.263l.261-.176-.009-1.2-.009-1.2-.15-.248a2 2 0 0 1-.15-.274c0-.013.286-.024.634-.024h.633l-.122.132c-.203.222-.21.267-.21 1.508 0 1.11.002 1.132.082 1.295a.7.7 0 0 0 .239.27l.157.104-.221.038c-.34.058-.761.074-1.019.038zm8.994.013-.128-.015.118-.176c.188-.28.2-.357.213-1.373.013-1.042-.013-1.296-.162-1.604a1 1 0 0 1-.092-.22c.005-.006.374-.012.818-.013.869-.002 1.057.024 1.388.194.089.046.252.126.363.178.258.12.391.283.504.617.402 1.192-.01 2.082-1.09 2.352-.211.053-1.619.097-1.932.06m1.797-.47c.252-.108.515-.393.587-.636.106-.358.06-.99-.094-1.287a1.7 1.7 0 0 0-.504-.531c-.192-.113-.56-.149-.793-.078l-.158.048-.026.651c-.024.634-.01 1.506.03 1.77.016.113.033.132.13.146.245.035.646-.005.827-.083m46.704.451a9 9 0 0 1-.582-.054c-.159-.026-.167-.034-.227-.203a1.17 1.17 0 0 1 .028-.747l.058-.135.112.139.253.317c.078.099.213.216.3.26.176.091.333.087.713-.018.181-.05.207-.07.235-.173.069-.247-.094-.542-.298-.542a.17.17 0 0 1-.13-.072c-.025-.04-.222-.176-.438-.304-.618-.365-.842-.629-.84-.988.004-.354.24-.72.572-.883.18-.088.238-.099.52-.094.206.003.43.034.635.088l.318.083v.418c0 .23-.011.424-.024.432s-.095-.076-.182-.188c-.395-.51-.6-.596-.97-.411-.222.11-.305.243-.278.445.023.167.09.246.332.392 1.144.69 1.362.832 1.288.833q-.044.003.026.078c.136.146.136.386 0 .75-.099.263-.25.427-.467.507-.238.088-.44.103-.954.07zm-54.761-.054.146-.5.129-.436-.026-.996-.026-.996-.18-.022c-.39-.047-.43-.037-.53.128-.05.082-.127.194-.173.248-.081.097-.082.097-.145.028-.063-.07-.07-.129-.06-.54l.005-.204h2.716v.846l-.222-.222c-.186-.186-.256-.232-.434-.282a1.6 1.6 0 0 0-.302-.06c-.086 0-.09.011-.112.265a1.8 1.8 0 0 0 .03.514c.061.29.069.89.015 1.165-.034.17-.026.242.07.643.06.248.108.459.108.467s-.23.016-.513.016c-.473 0-.513-.005-.496-.062zm2.593-.003a.5.5 0 0 1 .093-.113c.032-.026.108-.12.17-.208l.111-.161.01-1.13c.012-1.278.012-1.276-.264-1.485l-.148-.112.236-.048c.269-.054 1.738-.067 2.133-.018.27.033.255.01.29.435.02.236.017.254-.052.277-.059.018-.116-.016-.262-.154-.246-.233-.481-.306-.873-.274a2 2 0 0 0-.328.044c-.045.017-.054.1-.054.476v.456l.097.04c.053.023.2.041.326.041.247 0 .479-.093.685-.275a.4.4 0 0 1 .132-.09c.017 0 .03.262.03.582 0 .399-.012.582-.039.582-.021 0-.144-.097-.273-.216l-.235-.216-.347.02c-.19.01-.353.024-.36.032-.023.022-.029.213-.022.688l.006.43.183.055c.403.12.66.061 1.299-.295.203-.113.375-.194.38-.179.007.015-.065.216-.158.445l-.17.418-1.315.01c-1.27.008-1.314.006-1.28-.057zm8.94.04c-.023-.009.04-.126.155-.286.279-.388.518-.876.966-1.965.256-.623.478-1.076.526-1.076.169 0 .562.73.753 1.397.05.177.21.581.353.9.248.55.27.584.432.693.094.063.188.12.207.128.059.022-.092.12-.263.17-.177.051-.617.061-.82.018l-.132-.028.088-.174a.9.9 0 0 0 .088-.229c0-.03-.051-.174-.114-.318l-.113-.264h-1.102l-.15.284-.149.283.126.225c.07.124.126.235.126.247 0 .024-.905.018-.976-.006m1.882-1.503a3 3 0 0 0-.108-.362c-.091-.273-.132-.353-.187-.361a.13.13 0 0 0-.111.04c-.043.052-.252.641-.252.71 0 .028.094.031.324.011.178-.016.328-.033.334-.038m2.42 1.458c-.083-.037-.15-.078-.15-.09a.4.4 0 0 1 .103-.108c.223-.188.24-.28.267-1.41.03-1.27.01-1.369-.317-1.572-.059-.037-.09-.066-.07-.067.018 0 .19-.032.382-.07.623-.126 1.15-.087 1.61.12.107.047.222.095.257.106.034.01.07.047.08.082.01.034.084.194.165.354.144.289.145.293.087.406a5 5 0 0 1-.3.442c-.321.438-.321.499.003.966.165.238.222.349.2.384-.053.084-.038.101.082.098.171-.005.467.124.467.203 0 .053-.046.073-.247.108-.442.077-.446.075-.677-.185a4.4 4.4 0 0 1-.644-.963c-.119-.246-.125-.253-.23-.231-.162.034-.192.082-.237.39-.057.39-.006.564.236.814.1.103.172.187.16.187-.01 0-.162.024-.336.052-.437.072-.708.067-.891-.016zm1.285-1.858c.177-.074.39-.283.42-.411a.65.65 0 0 0-.21-.651c-.219-.192-.29-.185-.71.067l-.37.222.11.086c.148.117.276.401.277.616v.17l.182-.024c.1-.014.235-.048.3-.075m4.543 1.87c.014-.036.043-.163.064-.282.041-.232.005-.385-.15-.64l-.07-.114h-1.08l-.137.28-.136.28.092.212c.05.118.08.221.064.231a4 4 0 0 1-.51.015c-.374-.003-.482-.014-.482-.05a.1.1 0 0 1 .036-.069c.057-.035.288-.363.447-.634.18-.307.333-.638.652-1.409.263-.636.555-1.255.592-1.255.122 0 .32.298.408.617.033.117.345.789.695 1.493s.624 1.292.61 1.305c-.013.014-.233.025-.488.026s-.503.015-.55.03c-.073.026-.08.021-.057-.036m-.306-1.539a10 10 0 0 1-.219-.388c-.092-.17-.182-.308-.2-.308-.017 0-.12.174-.226.388l-.195.388h.891zm.027-1.006c-.032-.032-.13.027-.107.064q.023.039.074-.005c.028-.023.043-.05.034-.059zm2.37 2.578c-.07-.018-.076-.093-.027-.366.02-.105.075-.493.125-.861.076-.57.084-.695.048-.835-.033-.128-.033-.232 0-.47l.043-.304-.233-.254-.232-.254.24-.022c.693-.064 1.78-.009 2.028.103.2.09.36.254.465.477.143.303.145.393.025.808-.06.205-.109.394-.108.42 0 .027.056.103.124.17.24.24.33.582.21.811-.129.251-.553.478-1.056.565-.202.035-1.526.045-1.652.012m1.546-.395c.154-.07.394-.323.426-.45.028-.115-.178-.522-.32-.63-.16-.123-.398-.144-.69-.063l-.23.065.012.528c.006.29.014.531.019.535.011.012.45.073.552.077a.7.7 0 0 0 .23-.062m.072-1.668c.144-.07.234-.215.252-.407.015-.15.004-.187-.083-.291-.096-.113-.412-.282-.625-.333-.114-.027-.295.067-.411.215-.084.107-.093.347-.023.646.042.18.053.196.166.218.177.035.614.007.724-.048m12.133 2.054c-.01-.015.016-.057.057-.094.172-.156.187-.234.211-1.072.016-.556.04-.846.077-.97l.088-.286c.032-.101.016-.138-.207-.476a4 4 0 0 1-.243-.393c0-.015.292-.027.651-.027s.653.014.653.03a.3.3 0 0 1-.066.115c-.22.282-.245.442-.255 1.602-.009 1.034.003 1.126.179 1.404.059.092.107.175.107.183 0 .027-1.235.011-1.252-.016m.652-1.236a.035.035 0 0 0-.036-.036.035.035 0 0 0-.035.036c0 .019.016.035.035.035s.036-.016.036-.035m5.053 1.245q-.045-.015.076-.163c.305-.374.54-.824 1.115-2.14.248-.567.48-1.024.52-1.024.072 0 .27.346.466.812.343.814.508 1.178.838 1.836.18.36.328.665.328.677s-.254.022-.565.023c-.31 0-.564-.012-.564-.028 0-.015.026-.08.057-.141.109-.22.104-.371-.02-.621l-.112-.23h-1.09l-.135.292-.136.29.1.203c.056.11.101.208.101.216 0 .02-.925.019-.979-.002m1.932-1.556c0-.225-.246-.677-.369-.677-.035 0-.302.64-.302.726 0 .008.151.015.336.015.3 0 .335-.007.335-.064m2.399 1.562c0-.01.055-.129.123-.264l.124-.245v-.508c0-.408.01-.517.053-.552s.052-.155.052-.656v-.612l-.15-.078c-.281-.145-.537-.093-.869.175l-.155.126.026-.333a5 5 0 0 1 .033-.34c.004-.005.165-.027.358-.05.336-.039 2.358-.03 2.4.011.025.027.093.615.08.703-.01.071-.03.062-.241-.108-.317-.257-.425-.305-.59-.264-.112.027-.14.054-.177.168-.094.286-.124.643-.103 1.24.025.742.077.989.329 1.562.015.034-.125.044-.637.044-.361 0-.656-.009-.656-.019m2.736-.013c-.009-.014.043-.083.116-.153.072-.07.17-.204.217-.298.085-.167.086-.188.091-1.105.006-1.172-.015-1.321-.233-1.65l-.077-.114h2.466l.021.325c.012.18.016.331.008.339-.007.007-.129-.065-.271-.16a4 4 0 0 0-.358-.214q-.187-.081-.659 0l-.247.042v.964l.132.022c.418.07.724-.002.95-.22.062-.06.12-.098.128-.083.023.038.026.965.003 1-.01.018-.085-.014-.166-.07-.312-.213-.379-.231-.789-.221l-.218.005-.058.176c-.07.211-.074.655-.008.882.044.153.053.16.239.204.464.11.91-.023 1.286-.383.19-.182.225-.203.264-.157.033.04.035.079.008.15-.208.548-.273.702-.305.724-.047.034-2.519.03-2.54-.005zm-57.452-.034c0-.012.062-.083.138-.156.075-.074.174-.209.219-.3.078-.161.08-.2.088-1.225l.007-1.058-.25-.255c-.139-.14-.24-.266-.225-.28.04-.041.487-.058.78-.03l.261.024.203.335c.138.228.249.367.346.434.207.142.436.4.65.731.13.2.239.322.352.396l.165.107.03-.131a7 7 0 0 0 .034-.734l.006-.602-.107-.174c-.06-.095-.137-.217-.172-.27l-.064-.098h1.14l-.127.112a.77.77 0 0 0-.27.526 10 10 0 0 0 .016.703c.038.748-.012 1.506-.116 1.773-.044.111-.091.202-.106.202s-.106-.066-.206-.146c-.202-.165-.494-.504-.907-1.053-.285-.38-.89-1.023-.963-1.023-.028 0-.041.178-.044.608-.002.335-.002.649.001.697.012.202.088.454.2.663.066.122.12.228.12.237s-.27.014-.6.012c-.33-.001-.6-.012-.6-.025m36.218.007c-.047-.047-.02-.085.096-.14.095-.046.124-.085.141-.185.039-.232.023-.805-.03-1.078-.05-.269-.044-.373.026-.373.025 0 .03-.154.015-.476-.024-.545-.074-.702-.29-.911l-.133-.13h2.613l.04.291c.023.16.05.337.061.393.023.115.035.119-.28-.093-.37-.249-.489-.285-.919-.282-.21.002-.39.012-.4.022s-.032.144-.05.298a3 3 0 0 1-.098.495l-.066.214.18.061c.364.123.83.054 1.108-.164a.4.4 0 0 1 .12-.07c.016 0 .03.206.03.458s-.008.459-.017.459-.098-.062-.197-.137a.96.96 0 0 0-.663-.22c-.382.012-.448.126-.416.724.014.248.04.432.062.447.105.064.616.145.781.123.183-.025.503-.172.838-.386.17-.109.197-.117.218-.064.05.122.026.244-.093.493l-.122.254h-1.266c-.696 0-1.276-.01-1.289-.023m10.635-.18c.125-.358.173-.736.175-1.367.002-.776-.075-1.3-.236-1.611-.027-.053-.036-.104-.02-.113s.207-.038.425-.061c.426-.047 1.006-.005 1.345.095.227.068.441.232.537.411.068.128.08.204.08.503 0 .392.025.342-.32.651a2 2 0 0 0-.2.2c-.015.023.028.187.096.363.106.279.15.346.34.528.12.114.343.275.495.356.407.217.38.248-.212.248h-.49l-.559-.742-.559-.741-.05.133c-.032.082-.052.275-.054.504-.003.38.033.514.213.767l.057.08h-1.134zm1.569-1.884.127-.253-.1-.21a1.1 1.1 0 0 0-.205-.298c-.095-.08-.126-.086-.312-.067a1.2 1.2 0 0 0-.24.042c-.017.011-.032.25-.032.53v.509h.634zm12.777-2.46c.011-.03.05-.104.085-.162.083-.138.08-.193-.026-.525a2 2 0 0 1-.079-.287l.337-.21c.206-.126.35-.193.39-.18.034.01.14.098.233.194.124.126.178.211.194.309.016.104.04.137.1.146.123.017.095.101-.095.286-.196.19-.554.359-.932.438-.207.044-.226.043-.207-.009m-57.032.006c-.112-.014-.117-.02-.096-.127.049-.251.232-.388.597-.446.138-.022.343-.09.478-.157.13-.066.362-.162.517-.214.28-.095 1.001-.244 1.032-.214.029.029-.169.335-.241.373-.15.08-2.099.814-2.14.805zm-4.732-.222c0-.02.048-.132.107-.249l.107-.212-.068-.095a2 2 0 0 0-.178-.2.5.5 0 0 1-.109-.127c0-.014.088-.1.196-.193l.197-.167.116.112c.145.141.267.382.267.529a.53.53 0 0 1-.182.378c-.11.102-.453.27-.453.224m41.228-.06a52 52 0 0 1-.447-1.614c0-.053.277.106.381.22.14.152.198.281.296.658.062.24.066.3.029.423-.068.229-.207.396-.259.312m-16.828-.298a6 6 0 0 1-.026-.615c.002-.022.07-.049.151-.06.176-.023.225.024.26.245.028.182-.04.338-.228.521l-.136.132zm24.733.195c-.033-.01-.061-.031-.061-.047 0-.068.23-.216.417-.267.218-.06.968-.31 2.264-.756 1.138-.392 1.376-.48 1.769-.662.306-.141.359-.18.526-.389.166-.207.182-.24.15-.323l-.251-.623c-.258-.64-.268-.678-.238-.88.021-.14.034-.158.114-.158.127 0 .298.115.452.302.123.15.135.187.215.678.1.613.105.854.028 1.094-.12.369-.468.69-1.213 1.117-.778.445-1.47.633-2.998.812-.93.11-1.098.124-1.173.102m-1.216-.103c.08-.096.078-.126-.025-.329l-.086-.17.106-.128c.129-.156.185-.162.242-.025.097.234.036.43-.199.637q-.102.09-.038.015m-10.575-.421a6 6 0 0 1-.364-.439c-.007-.02.028-.075.077-.124.117-.117.259-.115.476.006l.172.096.131-.105c.321-.256.375-.266.56-.102.07.06.09.102.068.131l-.378.493c-.19.247-.355.449-.367.448-.012 0-.18-.183-.375-.404m-9.654.32c-.179-.046-.341-.14-.369-.21-.01-.026.014-.124.05-.22.083-.209.183-.26.384-.194.122.04.162.035.434-.062l.3-.106.194.127c.107.07.229.154.271.187l.077.059-.08.173-.08.174-.385.048c-.545.069-.612.07-.796.023m5.168-.037c-.325-.165-.47-.443-.489-.932q-.01-.296-.058-.325a2 2 0 0 0-.294-.106 1.5 1.5 0 0 1-.28-.105 3 3 0 0 1-.18-.304c-.08-.151-.173-.28-.204-.286-.032-.006-.34.086-.685.205-.545.188-.67.219-.962.235-.22.013-.384.042-.478.086-.15.07-.757.182-1.78.328-1.018.146-1.423.176-2.31.176-1.518-.002-2.438-.137-3.105-.455-.35-.167-.874-.648-1.027-.943-.046-.088-.07-.097-.238-.097-.15 0-.216.02-.326.1-.132.096-.778.964-.982 1.32-.116.2-.278.344-.388.344-.23 0-.633-.291-.832-.602-.205-.32-.183-.8.059-1.278.091-.18.145-.196.212-.062.032.063.03.12-.01.252-.047.157-.045.198.024.49.083.352.07.341.48.406.252.04.295 0 .775-.712.547-.813.814-1.072 1.11-1.076.229-.003.386.132.599.513.096.173.455.506.663.616.474.25 1.217.432 2.033.498.252.02.903.038 1.447.038.86 0 1.024-.008 1.27-.068.37-.09.856-.159 1.763-.25.643-.066.783-.091 1.059-.193.271-.1 1.84-.583 1.895-.583.01 0 .072.128.137.285.064.157.144.3.177.317.097.052.43.077.525.04.048-.02.145-.08.214-.136l.126-.1-.07-.31c-.076-.336-.059-.481.08-.66l.069-.088.094.088c.223.209.356.655.316 1.061-.014.134-.04.253-.057.264-.06.037-.445.562-.52.71-.136.267-.091.482.149.712.117.113.135.119.303.1.295-.036.48-.144.844-.493.677-.649 1.297-.994 2.262-1.26.493-.136.865-.251.922-.286.032-.02.028-.049-.017-.116-.08-.122-.172-.166-.461-.221-.135-.026-.26-.062-.278-.08s-.021-.115-.007-.22a.43.43 0 0 1 .16-.318c.113-.108.19-.142.464-.208.441-.107.942-.108 1.263-.003.133.043.322.074.45.075q.376 0 .573.196c.048.048.126.116.173.151.14.107.08.216-.318.561l-.356.31.206.028c.114.015.366.023.56.017.296-.01.374-.025.486-.094.145-.09.215-.2.25-.397.025-.136-.098-1.73-.246-3.204-.05-.493-.081-.961-.07-1.04.025-.16.155-.412.225-.435.102-.034.275.224.399.596l.123.366-.101.705c-.057.391-.12.717-.143.733q-.043.026.13.18l.172.15-.017 1.021c-.016.983-.02 1.031-.11 1.306a2 2 0 0 1-.2.434c-.233.321-.693.49-1.219.447-.548-.044-.869-.169-1.144-.444l-.135-.135-1 .35c-.55.192-1.166.43-1.37.529-.432.21-1.029.599-1.428.933-.39.326-.571.413-.9.431-.232.013-.286.003-.447-.078zM174.2 39.64c-.077-.068-.125-.084-.194-.067-.165.04-.157.082.018.106.095.013.188.028.207.035.073.025.068.013-.031-.074m3.028-.046c.06-.023.053-.03-.044-.05-.104-.02-.289.02-.289.063 0 .028.254.018.333-.013m-2.644-.163c-.147-.068-.233-.066-.143.002.038.029.11.05.159.049.09-.003.09-.003-.016-.051m8.202-.705a.5.5 0 0 0-.012-.158c-.02 0-.2.264-.2.293 0 .013.048.024.107.024.101 0 .105-.006.105-.159m.395-.322c.142-.026.087-.112-.136-.211a2 2 0 0 0-.207-.084c-.009 0-.016.08-.016.178v.178l.132-.022zm16.206 2.98c-.027-.083-.133-.775-.12-.784q.245-.18.271-.14c.013.02.068.092.122.162.107.137.13.284.065.406-.079.147-.323.403-.338.355m-11.238-.027c-.106-.031-.108-.003.035-.452.092-.288.129-.362.181-.362.057 0 .066.03.066.228v.227l.159.11c.087.06.158.116.158.125 0 .01-.051.048-.114.087-.117.07-.318.086-.485.037m-22.151-.36-.19-.607-.077-.242.08-.066c.066-.052.097-.057.166-.026.156.07.37.475.37.697 0 .14-.097.441-.17.532-.064.08-.065.078-.179-.287m35.186.236a4 4 0 0 0-.297-.055c-.325-.054-.426-.138-.426-.355 0-.08-.04-.315-.09-.522-.05-.206-.112-.47-.139-.587-.026-.116-.058-.497-.07-.847-.022-.673-.148-3.637-.175-4.148-.019-.347.034-.504.201-.596.087-.047.102-.047.132 0 .099.151.193.687.267 1.517.07.778.05 2.438-.033 2.91-.043.245-.043.29 0 .34.029.032.084.143.125.247.064.165.072.26.069.741l-.004.553.114.04c.216.077.567.085.922.02l.34-.06.365-.43c.414-.485.711-.777.83-.815.137-.044.308.013.468.155l.153.137-.063.18c-.035.1-.056.194-.046.21a.5.5 0 0 0 .162.075c.08.027.152.061.162.077s-.052.104-.138.196a1.7 1.7 0 0 0-.23.313c-.128.254-.373.288-.808.112l-.22-.09-.397.231a9 9 0 0 1-.61.328c-.197.09-.482.152-.564.123zm1.773-.98c-.018-.054-.168-.082-.168-.032 0 .03.059.058.153.071.016.002.023-.016.015-.04m-2.49-1.023c-.025-.025-.042-.027-.042-.005 0 .047.042.089.066.065.01-.01 0-.037-.024-.06zm-24.084 1.946a.9.9 0 0 1-.245-.151l-.139-.119.137-.19.145-.202c.004-.006.1.035.214.09.258.128.31.22.248.436-.04.136-.058.157-.15.162a.7.7 0 0 1-.21-.026m27.637-.082c.14-.145.427-.302.993-.541.415-.176.756-.399.867-.568.157-.236-.093-.994-.504-1.533-.093-.12-.68-.736-1.306-1.368-1.173-1.184-1.354-1.385-1.646-1.828-.211-.32-.255-.425-.283-.684-.023-.202-.023-.202.074-.207.054-.002.13 0 .168.003.247.021.55.322.83.825.201.362.474.71 1.095 1.403.203.226.395.46.429.521s.089.121.123.133c.352.124.614.355.767.675.053.111.11.229.128.262.019.036.018.068-.003.081-.066.04-.038.117.035.098.04-.01.06-.036.048-.058q-.024-.043.018-.003c.022.02.13.337.239.705.11.368.202.673.206.678.021.027.237-.078.264-.13.071-.132.36-1.538.342-1.66-.016-.1-.001-.147.08-.245l.1-.12.046.367c.058.462.059 1.044.002 1.32-.064.309-.29.744-.506.975-.566.604-1.186.849-2.532 1.001l-.194.022zm.532-4.203c-.033-.04-.055-.043-.092-.013-.068.056-.061.067.044.067.079 0 .086-.008.048-.054m-44.785 4.075a3 3 0 0 1-.376-.244l-.173-.139-.184.055c-.101.03-.279.085-.395.122-.317.102-.72.125-.914.051-.172-.066-.445-.333-.537-.526l-.058-.121-.216.086c-1.186.471-1.57.587-2.156.649-.476.05-.833.022-.995-.078-.114-.07-.222-.236-.273-.419-.112-.401-.211-.67-.248-.67-.061 0-1.12.32-1.818.548-1.34.44-2.34.616-3.494.616-.719 0-1.072-.073-1.462-.302-.385-.225-.77-.768-.821-1.157l-.026-.192-.436.422c-.347.337-.487.447-.688.543a2.6 2.6 0 0 0-.455.292c-.42.354-.846.501-1.472.509-.413.005-.583-.047-.703-.216-.125-.177-.144-.35-.143-1.328l.001-.952.124-.318c.069-.174.166-.424.216-.555l.091-.237-.276-.31-.34-.382c-.062-.07-.061-.08.031-.294l.096-.222.137.022c.224.036.485.192.727.434l.228.228.34-.363c.219-.234.349-.349.365-.322a.8.8 0 0 1 .044.21c.016.143 0 .205-.105.415a4 4 0 0 1-.195.355l-.072.108.09.133c.05.073.14.239.202.368.273.579.025 1.193-.582 1.442l-.457.186-.268.11-.02.29c-.012.162-.006.304.012.323.062.063.673.066.968.005.335-.07.877-.307 1.226-.537.282-.186.764-.652.94-.908l.114-.165-.097-.273-.423-1.186-.328-.913.129-.315.129-.315.063.082c.096.124.397.717.518 1.022.135.34.235.732.29 1.14.034.246.092.43.253.812.114.272.241.55.282.618.242.402.596.685 1.03.821.227.071.318.078 1.06.077.921-.002 1.192-.038 2.01-.27.272-.077.883-.248 1.359-.379.475-.131.927-.27 1.005-.31l.14-.073-.137-.057c-.346-.145-.555-.173-1.484-.199-.505-.014-.92-.027-.922-.03a2 2 0 0 1-.043-.156c-.047-.186-.003-.375.103-.44.088-.056.504-.133.897-.166.297-.026.665.021.83.106.05.026.249.064.442.086.442.048.899.16 1.127.277.173.088.19.09 1.023.096.466.003.948.018 1.072.033l.225.027-.02.19c-.025.238-.132.418-.282.472-.062.023-.312.049-.554.058a9 9 0 0 0-.893.09c-.51.084-.543.108-.503.36.03.185.098.287.24.36.094.05.188.056.59.04.4-.017.571-.043 1.055-.164.94-.236 1.215-.322 1.31-.41a.8.8 0 0 1 .449-.192c.203.001.235.03.338.301.054.145.126.276.159.293.032.017.19.052.35.078l.292.046.265-.139c.189-.098.272-.163.287-.223.012-.046-.012-.594-.053-1.217s-.118-1.803-.17-2.623l-.097-1.49.077-.157c.067-.139.234-.3.27-.263.007.008.104.226.215.485l.202.472-.08.269c-.144.49-.144.486-.07 1.619.111 1.683.176 2.452.215 2.551.033.084.07.097.495.173l.459.083.069.135c.106.209.183.553.159.708a.8.8 0 0 1-.1.254c-.19.29-.472.345-.821.161m.336-.65c0-.01-.036-.036-.08-.06-.072-.038-.075-.036-.03.017.044.054.11.08.11.042m-.318-.267c-.037-.069-.14-.099-.14-.04 0 .023.11.095.168.108.006.002-.007-.029-.028-.068m-2.72-.225c.033-.04.021-.052-.06-.064q-.22-.03-.145.063a.135.135 0 0 0 .205.001m-14.354-1.343a.43.43 0 0 0 .317-.23c.042-.079.035-.094-.092-.203a5 5 0 0 0-.23-.187l-.093-.069-.252.336c-.163.216-.236.34-.207.35.137.047.293.048.557.003m51.752 2.32c0-.103.163-.32.513-.684.299-.31.484-.562.413-.562-.016 0-.362.105-.768.232-2.396.75-3.294.924-4.283.828-.932-.09-1.33-.301-1.522-.81-.064-.168-.072-.249-.057-.55.019-.385.092-.646.25-.895.092-.143.102-.15.157-.095.076.075.076.358 0 .62-.099.345.051.608.468.82.506.258 1.098.3 2.152.153.337-.047.74-.096.896-.108.346-.028 1.588-.432 2.09-.68.275-.135.367-.163.589-.177.254-.016.265-.014.352.085.05.055.123.169.164.251l.074.15-.078.16c-.202.42-.676.881-1.277 1.247-.124.075-.133.076-.133.015m-1.27-.96c0-.037-.206-.091-.235-.062-.01.01-.008.036.005.056.028.046.23.05.23.005zm-31.799.91c-.008-.027-.088-1.224-.178-2.66-.09-1.435-.182-2.867-.203-3.18l-.04-.57.092-.153c.184-.312.18-.31.31-.189.107.101.315.48.315.574 0 .025.046.145.101.267l.1.223-.08.16c-.12.235-.157.623-.119 1.228.22 3.463.22 3.496.012 3.933-.103.217-.288.436-.31.366m25.781-.023c-.025-.017-.047-.33-.061-.908-.02-.754-.12-2.641-.183-3.457-.072-.916-.116-1.714-.098-1.786.025-.1.215-.446.26-.473.053-.033.244.27.3.475.028.108.078.286.109.397.052.185.052.225-.001.516-.079.43-.073.769.034 2.135.05.643.093 1.384.095 1.646.01.96-.199 1.626-.455 1.455m21.433-.3c-.057-.25-.082-1.133-.042-1.525.03-.3.026-.333-.068-.605-.085-.243-.105-.377-.135-.882-.083-1.419-.137-2.93-.109-3.053.036-.158.163-.37.249-.416.067-.036.09.009.39.77.112.283.115.303.07.46-.14.488-.17.983-.107 1.68.018.194.053.934.076 1.644.048 1.421.042 1.497-.145 1.894-.057.12-.111.219-.12.219a.6.6 0 0 1-.059-.185m.143-2.534c0-.087-.015-.139-.038-.131-.02.007-.037.024-.035.038 0 .014.003.073.003.132 0 .058.016.105.035.105s.035-.064.035-.144zm-.127-1.413c.023-.145-.025-.367-.094-.436q-.036-.036-.013.084c.012.065.022.204.022.309 0 .224.052.25.085.043m-11.455 2.642c-.032-.121-.114-.816-.183-1.543-.069-.728-.164-1.721-.212-2.208-.097-.997-.091-1.062.113-1.313.12-.147.126-.15.193-.09.104.094.3.535.328.736a.6.6 0 0 0 .074.231c.043.048.04.084-.026.265-.096.264-.1.647-.014 1.233.05.35.06.609.05 1.482l-.013 1.057-.118.185a2 2 0 0 1-.126.186c-.005 0-.035-.1-.066-.22m-27.133-.177c-.124-.212-.197-.433-.197-.601 0-.148.106-.41.196-.484.089-.074.157.022.157.219 0 .138.018.191.09.262.15.15.197.105.292-.277.11-.442.149-.447.357-.044.085.165.165.3.178.3s.053-.19.089-.424.075-.423.088-.423c.053 0 .178.173.269.37.083.182.097.26.1.547l.001.334-.176.12c-.176.118-.178.119-.485.097-.27-.018-.344-.01-.578.067a6 6 0 0 1-.28.088 1 1 0 0 1-.101-.151m-22.063-.34c-.226-.47-.38-.648-.776-.907l-.317-.21c-.027-.02.22-.41.302-.474.203-.16.404-.069.8.36l.261.286.13-.261c.297-.6.428-.711.75-.633.163.04.17.046.264.279.053.13.097.254.097.274s-.115.057-.256.082a3 3 0 0 0-.33.074c-.1.038-.2.258-.313.685-.097.367-.221.635-.35.757l-.077.071zm.23-.398q-.018-.041-.021.022c-.001.037.007.058.018.046.012-.012.013-.042.003-.068zm30.787.466a.5.5 0 0 1-.16-.148c-.073-.103-.083-.155-.081-.435.002-.403.09-.62.342-.847.167-.15.238-.19.238-.131 0 .014-.055.23-.123.477-.068.248-.124.456-.124.464 0 .007.111.024.247.037.279.028.291.048.191.298-.098.244-.327.367-.53.285m-5.164-.398a16 16 0 0 0-.355-.43 11 11 0 0 1-.258-.308l-.132-.164.155-.162c.22-.23.286-.221.69.093.249.195.244.196.391-.078.136-.253.363-.381.54-.304.05.022.15.093.223.158.15.133.166.108-.216.32-.271.15-.31.207-.424.62-.099.356-.229.555-.356.544-.016-.001-.132-.131-.258-.289m-15.957.182c-.072-.042-.48-.05-.693-.014-.19.032-.49-.059-.609-.184l-.094-.098.113-.212.112-.211.565-.01.565-.01.184.133c.101.074.184.157.184.186 0 .074-.185.436-.228.448-.019.005-.064-.008-.099-.029m43.646-.113c.22-.232.473-.34 1.182-.501.531-.122.553-.119.378.05-.273.262-.895.5-1.444.554l-.236.023zm-10.161-.119-.307-.208c-.007-.006.047-.107.12-.224l.131-.214h1.077l.154.127.162.136c.005.005-.037.113-.094.24l-.104.233-.188-.05c-.267-.071-.332-.064-.504.054l-.153.105zm15.269-.267-.091-.452c-.09-.432-.194-1.195-.29-2.132-.106-1.033-.106-1.048.032-1.339l.116-.245.18.298c.098.164.248.421.334.571l.155.273-.16.317c-.14.28-.154.328-.12.415.12.302.104.442-.075.627-.095.099-.1.12-.08.308l.02.203.172.022.171.023v.158a.35.35 0 0 1-.106.28c-.115.13-.126.199-.066.399.034.116.03.145-.044.26a.5.5 0 0 1-.106.128c-.012 0-.03-.05-.042-.114zm.055-2.233c.017-.085.014-.086-.048-.03-.078.071-.085.12-.018.12.027 0 .057-.04.066-.09m-12.183 1.885-.5-.592c-.179-.21-.192-.29-.088-.518.05-.111.099-.108.348.025.224.12.32.225.476.525.088.17.102.183.113.105.064-.448.321-.826.612-.9.077-.018.109.005.237.175.196.259.21.301.106.305a1.6 1.6 0 0 0-.308.08l-.225.076-.206.542c-.113.298-.211.548-.219.556s-.163-.163-.346-.38m-26.648.176a.9.9 0 0 1 .26-.411c.112-.103.507-.243 3.496-1.234 3.082-1.023 3.391-1.119 3.625-1.124s.256 0 .256.064c0 .126-.108.303-.24.392-.072.048-.392.17-.713.27-.32.101-.669.213-.776.25-.106.036-.551.179-.988.317-1.629.518-2.063.662-3.862 1.281-.37.127-.764.242-.877.255-.206.024-.207.024-.181-.06m-13.416-.066a.76.76 0 0 1-.16-.51c.021-.207.323-.742.384-.681.013.013.008.069-.013.123s-.049.21-.061.347l-.023.249.146.066a.6.6 0 0 1 .164.095c.017.028-.299.419-.337.415a.4.4 0 0 1-.1-.104m8.621-.001a.45.45 0 0 1-.157-.274c-.047-.225.007-.726.113-1.029.086-.247.353-.69.435-.722.058-.023.152.012.152.056 0 .018-.071.317-.159.665-.087.347-.158.647-.158.665s.095.009.21-.02c.254-.065.319-.046.319.09a.71.71 0 0 1-.354.606c-.186.095-.258.088-.4-.037m25.66.026c-.2-.106-.26-.263-.23-.607.037-.428.123-.681.34-1.006.123-.183.314-.391.314-.342 0 .027-.234 1.143-.267 1.276l-.022.087.25-.07c.138-.037.258-.069.268-.069.043 0 .013.335-.04.446-.065.14-.314.366-.401.366a.7.7 0 0 1-.211-.08m-12.403-.316c-.088-.13-.101-.183-.1-.397 0-.183.02-.284.075-.388.096-.181.415-.587.389-.494l-.105.37c-.123.432-.138.53-.087.547.024.008.111.032.193.053.111.028.15.056.15.106a.36.36 0 0 1-.176.294c-.157.093-.228.074-.339-.091m-24.338-.19a2 2 0 0 1-.203-.116c-.038-.035.107-.59.21-.797.087-.177.228-.35.33-.406.05-.027.05.009-.007.33-.088.498-.088.507.05.535.25.05.248.048.226.207-.023.175-.185.34-.333.34a.8.8 0 0 1-.273-.092zm4.64-.16a.46.46 0 0 1-.107-.286c0-.182.075-.59.109-.59.014 0 .086.103.16.23.074.125.143.229.154.229s.068-.131.128-.29l.108-.29.16.276c.177.305.17.307.242-.076.023-.12.055-.22.07-.22.043 0 .175.179.23.313.06.142.061.392.003.586l-.043.142-.44.059c-.659.088-.65.089-.774-.082zm8.53.011c-.22-.073-.452-.204-.452-.255 0-.018.057-.124.127-.235l.127-.203.52-.009c.491-.008.528-.004.64.072a.7.7 0 0 1 .19.21l.07.13-.105.11c-.161.17-.278.214-.61.23-.238.013-.352.002-.506-.05m15.296-.048c.038-.191.165-.337.374-.43.183-.08.702-.25 2.399-.783.397-.125.885-.257 1.084-.292l.361-.066-.022.093a1 1 0 0 1-.054.154c-.057.113-.612.358-1.281.567-.876.274-2.835.87-2.858.87-.014 0-.016-.05-.004-.113zm21.086-.151c-.126-.25-.116-.458.033-.704.067-.11.16-.234.206-.277l.084-.077-.02.14-.045.327-.024.185.123.052c.147.06.183.161.117.32-.057.136-.075.148-.253.177-.137.022-.14.02-.221-.143m-24.099-.03c0-.065.036-.172.08-.238.074-.111.133-.138.803-.36.397-.133 1.246-.408 1.886-.611 1.048-.333 1.18-.367 1.32-.342l.154.029-.12.157c-.115.15-.15.17-.755.397-.796.3-1.841.656-2.415.823-.634.184-.914.263-.935.263-.01 0-.018-.053-.018-.118m20.602-.074c0-.011.067-.094.15-.182.236-.257.643-.43 1.16-.491.199-.024.199-.024.182.066-.024.124-.086.169-.455.334-.386.172-1.037.344-1.037.273m-7.514-.192c0-.075.336-.321.557-.41.13-.051.413-.187.627-.301s.505-.268.646-.34c.217-.114.252-.145.236-.209-.05-.204-.081-.55-.057-.657.06-.267.278-.432.626-.473l.173-.021.078.507c.043.279.078.54.078.58 0 .057-.09.127-.38.298-.208.124-.444.268-.523.32a6.8 6.8 0 0 1-1.197.571 3 3 0 0 1-.493.112c-.117.012-.248.03-.291.04-.044.008-.08 0-.08-.017m-34.53-.654c.167-.144.645-.384 1.017-.512.37-.126 1.272-.364 1.295-.34.01.009-.06.094-.155.189-.391.39-1.112.66-1.985.743l-.297.028zm48.99.005c-.217-.147-.301-.453-.194-.71.05-.117.36-.47.39-.441a1 1 0 0 1-.034.244c-.068.317-.07.31.107.395.087.043.159.088.159.101 0 .042-.26.492-.284.492a.7.7 0 0 1-.143-.081m-62.79-.125c-.212-.07-.424-.173-.424-.205 0-.01.058-.113.129-.228l.128-.208h.565c.545 0 .57.003.678.086a.6.6 0 0 1 .158.195c.054.13.025.162-.282.311-.254.123-.664.144-.952.049m8.287-.362c-.24-.403-.277-.446-.45-.539-.248-.133-.325-.288-.226-.456q.117-.2.438-.152c.162.025.147.007.393.453.04.073.084.133.097.133.014 0 .07-.114.126-.253.13-.325.275-.476.488-.507.121-.019.182-.01.251.035a.55.55 0 0 1 .19.344c0 .026-.123.084-.284.134l-.284.088-.212.511-.239.58c-.022.055-.076-.015-.288-.37m18.349.263c-.146-.061-.19-.118-.282-.37-.066-.18-.112-.231-.443-.507-.332-.275-.37-.319-.37-.422q0-.116.093-.209c.14-.14.322-.243.374-.211.024.015.208.144.407.286.2.142.38.249.398.237a.6.6 0 0 0 .101-.151c.185-.359.462-.535.741-.473.11.025.126.045.167.203.073.281.078.275-.262.379l-.308.094-.212.583c-.116.32-.228.589-.249.597s-.09-.008-.155-.036m-20.863-.107c-.17-.165-.245-.342-.223-.519.023-.175.206-.546.324-.658l.092-.086-.024.392-.025.392.19.062c.104.034.196.067.203.074.016.013-.356.467-.385.47a.8.8 0 0 1-.152-.127m22.998-.062c-.159-.337-.11-.61.185-1.039.158-.23.172-.197.113.27-.047.37-.037.394.154.395.097 0 .1.007.081.128a.5.5 0 0 1-.066.182c-.057.069-.311.255-.349.255-.015 0-.068-.086-.118-.191m-16.815-.272-.5-.589a1.3 1.3 0 0 1-.168-.218c0-.014.07-.1.155-.19.135-.146.166-.163.255-.142.108.025.238.114.43.294.065.06.132.109.15.109s.111-.118.208-.262c.166-.246.187-.264.333-.286q.327-.049.389.202c.03.121.024.136-.088.229-.45.372-.544.498-.686.914-.052.154-.106.291-.12.306s-.175-.15-.358-.367m11.652.322c-.14-.059-.196-.255-.15-.525.047-.28.204-.618.352-.76.13-.125.132-.115.056.349a3 3 0 0 0-.044.322l.193.1a.8.8 0 0 1 .185.11c0 .05-.141.288-.203.344a.43.43 0 0 1-.39.06m29.223-.061c-.056-.056-.128-.273-.148-.45-.029-.24.061-.446.307-.706.102-.107.19-.19.196-.183.006.006-.028.175-.077.376-.049.2-.081.372-.072.38.009.01.111.051.228.093l.212.077-.078.14a.8.8 0 0 1-.197.219c-.116.078-.317.107-.371.054m-5.001-.034c-.083-.013-.1-.04-.137-.2a.98.98 0 0 1 .107-.672c.08-.129.39-.438.39-.39 0 .02-.04.193-.086.387-.094.387-.094.387.128.425.073.012.14.034.15.049.031.051-.057.303-.129.364-.069.06-.2.07-.423.037m-26.9-.07c-.026-.02.122-.137.428-.338.457-.3.47-.312.515-.475.025-.093.083-.25.128-.35.078-.174.09-.185.264-.222a1 1 0 0 1 .19-.03c.021.022.193.646.193.698 0 .032-.08.097-.185.152a7 7 0 0 0-.45.264 3 3 0 0 1-.423.232c-.179.07-.596.112-.66.068m35.69-.1c-.022-.058-.094-.26-.16-.45a6 6 0 0 0-.14-.379c-.034-.055.045-.04.195.036.197.1.26.239.238.53a1 1 0 0 1-.054.302c-.035.063-.041.06-.079-.038m-19.896-.096c-.074-.038-.093-.083-.119-.274-.043-.32.013-.506.209-.694.288-.278.3-.27.204.123a7 7 0 0 0-.082.368c0 .015.095.053.211.085.117.033.212.07.212.084s-.06.092-.132.173c-.104.117-.163.152-.274.165a.46.46 0 0 1-.23-.03m3.966-.028-.215-.068.026-.191q.064-.477.262-.725c.123-.153.257-.27.282-.244a2 2 0 0 1-.054.33c-.094.452-.095.45.093.54.148.072.16.088.139.175-.055.225-.223.283-.533.183m-26.626-.13c-.012-.02.226-.162.533-.32l.554-.285.037-.28c.02-.154.057-.306.083-.337.058-.07.259-.128.447-.128h.143l.062.321c.033.177.056.325.05.33-.613.461-1.1.679-1.601.714-.175.012-.295.006-.308-.015m20.673-.062a1 1 0 0 1-.153-.065c-.01-.01-.003-.15.016-.312s.027-.352.017-.422c-.018-.141.059-.326.159-.38.07-.038.245.023.319.112.04.048.035.1-.027.326l-.074.269.124.145c.068.08.124.157.124.171 0 .041-.184.16-.282.183a.5.5 0 0 1-.223-.027m-32.841-.047c-.054-.006-.097-.024-.097-.04 0-.05.34-.347.48-.418.55-.28 1.88-.572 2.218-.487l.097.024-.137.123c-.162.146-.302.223-.67.372-.703.283-1.525.468-1.891.426m-2.529-.154-.12-.034.332-.175.583-.303.252-.128.092-.308c.071-.238.117-.33.201-.4.06-.051.13-.092.157-.092s.07-.01.1-.02c.041-.017.081.066.181.374.07.217.123.4.117.405-.04.04-1.666.722-1.714.72a1 1 0 0 1-.18-.039m32.036-.173c-.177-.102-.185-.112-.14-.185.449-.72.522-.776.522-.397 0 .222.002.228.13.308l.16.103c.052.035-.01.134-.13.208-.162.1-.322.09-.542-.037m25.218-1.832c0-.02.023-.035.052-.035.03 0 .053.016.053.035s-.023.036-.053.036-.052-.016-.052-.036" style="fill:#f7b75f;stroke-width:.0352779;fill-opacity:1" transform="matrix(.96043 0 0 .96043 -124.229 -24.623)"/></g></svg>