<svg xmlns="http://www.w3.org/2000/svg" xml:space="preserve" width="300" height="419"><defs><clipPath id="a"><path d="m1096.604 568.617-23.76-5.396-152.115-34.148 61.312-273.138 131.132 29.435 20.985 4.713 35.078 7.873c2.696.606 5.168 1.6 3.317 8.092l-58.657 261.263c-.901 3.593-3.435 4.835-17.292 1.306"/></clipPath></defs><g clip-path="url(#a)" transform="matrix(1.40575 .31163 .31165 -1.40567 -1451.446 464.877)"><path d="m1174.114 299.052-192.073-43.117-61.242 272.82 192.074 43.115z" style="fill:#882c50;fill-opacity:1;fill-rule:nonzero;stroke:none"/></g><path d="m743.726-627.621 9.974.026m-9.85-3.432 9.685.028m-8.678 7.888.013-4.434m1.244 4.26.013-4.27m1.246 4.274.012-4.268m1.245 4.27.012-4.27m1.243 4.276.013-4.27m1.244 4.272.012-4.27m1.246 4.272.013-4.27m-7.53-3.365.012-3.896m1.247 3.78.012-4.671m1.245 4.675.014-5.154m1.244 5.158.012-5.353m1.242 5.356.014-5.388m1.242 5.39.012-4.742m1.246 4.745.012-3.818m-17.551 22.938s-1.044.063-1.763-.117c-.716-.182-.92-.34-.92-.34s.015.062-.36-.162c0 0 .52.069 1.059.235.543.158 1.107.247 1.533.226 0 0 .353-.015.45.001.094.023.16.085.012.157zm-1.032-2.908s-1.186-.357-3.01-1.987c-.99-.884-1.46-.93-1.44-.903 0 0-.154-.238.049-.217.205.02 1.051.456 2.082 1.326.613.51 1.912 1.534 2.383 1.601 0 0 .384.23-.058.185zm-.347-4.165s-1.48-.995-3.19-3.5c0 0-.56-.833-.96-1.285 0 0 1.279 1.152 1.744 1.81 0 0 1.794 2.41 2.583 2.726 0 0 .222.187.138.295-.091.116-.317-.041-.317-.041zm1.671-3.235s-2.506-4.376-2.82-5.212c0 0-1.3-3.041-1.5-3.338 0 0 .012-.175.156-.02 0 0 1.188 2.164 1.501 2.936 0 0 2.283 4.709 2.78 5.247 0 0 .176.23.157.494 0 0-.097.183-.275-.1zm2.823-2.786s-1.344-2.886-1.693-6.265c0 0-.216-3.286-.486-4.054 0 0-.126-.182.084-.27.083-.024.163.283.163.283s.485 2.539.544 3.982c0 0 .883 5.137 1.544 6.035 0 0 .24.278.064.393-.183.118-.226-.106-.226-.106zm3.082-1.388s-.478-3.543-.352-5.376c0 0 .128-.87-.023-1.412 0 0-.024-.179.13-.17.15-.007.152.24.152.24s.178.568.054 1.497c0 0 .023 3.965.291 4.954 0 0 .114.167-.029.319-.156.145-.212-.046-.212-.046zm-6.464-7.254c.272 1.614.473 2.882.473 2.882.48 2.165 2.2 7.035 2.2 7.035.12.538-.18.056-.18.056-.925-1.259-3.037-8.17-3.407-9.373l.014.064q-.264.134-.56.23l-.044.049c.464 1.412.929 2.708.929 2.708.414 1.683 2.589 6.88 2.589 6.88.028.213-.212.122-.212.122-.626-.72-2.441-5.795-2.441-5.795-.09-1.293-.484-1.297-.484-1.297-.509.212-.628-.452-.628-.452-.072-.546-.291-1.235-.56-1.945l.057-.035c-1.218.218-2.666-.042-3.924-1.678-1.459-1.882-.729-3.802-.137-4.81l.014.058a3.4 3.4 0 0 0-.715-.484c-.873-.397-1.92-.037-2.134.504-.212.541.352.63.352.63.24.127.902.755 1.233 1.686.33.934 2.174 5.018 2.174 5.018s3.194 6.706 3.884 7.76c.412.625 1.914 2.946 1.914 2.946.064.236-.153.118-.153.118-.54-.185-2.992-4.06-2.992-4.06s-2.298-3.402-2.781-3.999c-.475-.6-2.84-3.132-2.84-3.132-.6-.299-.962-.03-.962-.03-.335.328.089.508.089.508.33.156.937.718.937.718 2.125 1.688 4.425 5.359 4.425 5.359s2.216 3.096 2.423 3.396c.209.304 1.169 1.415 1.169 1.415s.214.11.122.212c-.237.217-1.978-1.928-1.978-1.928s-1.318-1.476-1.404-1.745c-.183-.541-.479-1.053-.479-1.053 0 .211-.362.36-.362.36s-.956-1.265-1.35-1.472c-.395-.205-1.023-.963-1.023-.963-.147-.571-.63-.689-.63-.689-.144.454-.814.119-.814.119s0-.243-1.283-.363c-1.29-.125-1.33 1.433-1.33 1.433.601.066 1.92.999 1.92.999s2.003 1.595 3.59 3.94c.73 1.076 4.312 4.274 4.312 4.274s.179.095.034.148c-.285.118-1.59-1.144-2.036-1.443-.447-.305-2.247-1.63-2.247-1.63a8.9 8.9 0 0 0-3.148-1.509s-.288-.051-.333.187c-.044.249.3.361.3.361.52.115 1.115.422 1.115.422 1.949.82 3.595 2.23 3.595 2.23 1.27.885 2.4 1.778 2.4 1.778.206.27-.188.145-.188.145-.6-.176-3.442-2.5-3.442-2.5s-.489.448-1.025-.124c-.365-.38-1.196-.334-1.196-.334-.03.693-.69.57-.69.57s-1.142-.36-1.533.148c-.828 1.08.023 1.44.023 1.44.301-.511 1.773.182 1.773.182s2.009 1.06 2.905 1.69c.904.632 3.57 1.75 3.57 1.75s.148-.034.145.093c0 .227-.895-.064-.895-.064-.576-.115-2.008-.633-4.05-1.123-2.045-.484-2.585-.068-2.585-.068-.366.543.215.389.215.389.694-.117 2.337.19 2.64.28.301.095 2.247.545 2.791.728.538.184 2.252.635 2.252.635-.27-.06-1.77-.183-1.77-.183s-1.377-.033-1.954-.218c-.572-.18-1.113-.181-1.113-.181s.207.363-.215.415c-.598.09-.687.51-.687.51-.334.81.383.843.383.843s.154-.097 1.417-.028a5.4 5.4 0 0 1 2.16.576s.93.423 1.678.425c.753.001 1.291.215 1.291.215-.073.266-1.566.173-1.566.173-1.704 0-2.432.54-2.432.54-.355.207-.233.505-.233.505.089.244.472.005.472.005.722-.54 1.35-.571 2.38-.624a56 56 0 0 0 1.945-.145c.186-.006.216.181.216.181-.222.326-2.438.202-2.438.202-.303.477.04.6.04.6-.962.386-.245 1.531-.245 1.531.216-.388.932-.808.932-.808.514-.327 2.067-.364 2.067-.364s.291-.378.772-.896c0 0 .176-.113-.161-.25 0 0-.552-.524-.69-.88 0 0-.243-.405-.049-.81 0 0-.428-.496-.555-.923-.135-.43-.535-.614-.535-.614l-.497-.334.788-.72-.943-.993s-1.092-.81-.197-1.692c.728-.725 1.008-.492 1.008-.492l-.717-.834s-.337-.554.114-1.169c.632-.855 1.739-1.056 1.739-1.056s.059-.82.14-1.054c.209-.609 1.242-.88 1.242-.88s.227-.017.228-.174c-.012-.158.175-1.552 1.113-2.137.426-.272 1.465.363 1.465.363l1.51-1.525s1 .284 1.728 1.026l.012-4.217s-.674 2.295-.673 2.61c0 .315-.14.542-.228.225-.083-.316.041-.943.041-.943.053-1.172.24-4.01.24-4.01 0-.583-.314.042-.314.042-.136.673-.376 3.51-.376 3.51-.096 1.575-.356 1.037-.356 1.037s.18-1.579.271-3.243c.096-1.666.233-2.473.233-2.473-.268 0-.354-.274-.354-.274.318-1.711.012-3.282.012-3.282-.129-.186-.587.088-.587.088-.983-3.156-2.333-2.888-2.333-2.888-.457.131 0 .72 0 .72.313.45.361 1.396.361 1.396.218 1.355.076 5.221.076 5.221-.058 2.076.473 5.618.473 5.618.121.748-.3.055-.3.055-.36-.779-.645-4.806-.645-4.806-.122-1.14-.122-1.199-.29-5.222-.164-4.024-.82-3.966-.82-3.966-.605-.483-.309.237-.309.237.184.238.361 1.2.361 1.2.232.907.577 7.207.577 7.207-.07 1.923.586 5.045.586 5.045.119.54-.183.54-.183.54-.536-.66-.71-2.884-.71-2.884s-.113-3.78-.466-5.343c-.563-2.465-.705-5.528-.705-5.528l-.485-.065c-1.076-.141-.171-2.524-.171-2.524-1.558.357-1.533-.662-1.533-.662-.25-.974-.529-1.8-.83-2.501v-.062c-.29.414-.66.804-1.084.976-.153.079-.309.13-.47.166l-.174 1.471a.265.265 0 0 1 .234.283l-.026.289v.04c.06.226.136.468.185.657v.012c.243.03.5.097.765.182l-.19 1.352s-.067-.021-.19.01l.014.063c.335 1.176.811 3.806 1.17 5.925m-3.611-5.438c.195-.125.411-.231.624-.311l.016.066c.622 1.343 1.297 3.23 1.877 5.81l.066-.015q-.34.025-.638.007l.013.062c-.318-.967-.593-1.883-.695-2.346 0 0-.46-1.583-1.162-3.162l-.013-.059m-1.198 1.78c-.304 1.843.728 2.764.728 2.764s.372.444 1.174.716l.013.065c-.657-1.45-1.363-2.7-1.363-2.7s-.209-.295-.512-.712l-.041.052m4.915 3.481c0-.007.037-.056.059-.03-.103.03-.21.055-.21.055.09-.007.124-.113.147-.192-.083-.078-.193-.1-.283-.036l.185-.143c-.05-.045-.096-.09-.163-.068l.44-.124c.099-.029.225.012.273.101.047.097.035.21-.061.276l-.42.322c.07-.032.103-.112.098-.187m-4.761-7.196c.185-.095.397-.187.62-.27v.063c-.601-.97-1.034-1.33-1.034-1.33-.657-.662-.836-.303-.836-.303-.243.299.24.722.24.722.347.25.68.677 1.004 1.18v-.06m35.145 3.918-.116-1.127a27 27 0 0 0-.589 1.68l.463-.036c.055-.2.242-.517.242-.517zm.984-1.915c.55-1.249 1.246-2.534 1.982-3.062 0 0 .484-.417.247-.72 0 0-.175-.36-.844.298 0 0-.66.555-1.511 2.148zm-1.704-5.164c-1.032-.228-1.494-1.118-1.494-1.118a16 16 0 0 0-.845 2.484s.018 1.02-1.541.656c0 0 .891 2.39-.18 2.522l-.485.064s-.16 3.065-.738 5.519c-.367 1.56-.497 5.343-.497 5.343s-.187 2.224-.724 2.878c0 0-.304 0-.183-.539 0 0 .67-3.119.61-5.043 0 0 .382-6.302.625-7.201 0 0 .18-.957.36-1.197 0 0 .3-.725-.299-.243 0 0-.66-.06-.848 3.96-.19 4.022-.19 4.081-.313 5.218 0 0-.308 4.022-.676 4.807 0 0-.423.686-.297-.067 0 0 .551-3.541.51-5.613 0 0-.13-3.872.102-5.221 0 0 .053-.949.369-1.4 0 0 .447-.582 0-.716 0 0-1.352-.273-2.35 2.877 0 0-.454-.274-.591-.09 0 0-.318 1.573-.012 3.281 0 0-.086.274-.357.273 0 0 .136.81.223 2.478.086 1.665.257 3.24.257 3.24s-.268.54-.352-1.034c0 0-.218-2.84-.354-3.514 0 0-.314-.63-.316-.042 0 0 .17 2.839.217 4.006 0 0 .14.63.04.947-.087.317-.225.093-.22-.226 0-.316-.667-2.615-.667-2.615l-.012 4.216c.73-.737 1.733-1.013 1.733-1.013l1.51 1.536s1.026-.631 1.456-.36c.93.594 1.1 1.984 1.097 2.14.012.161.228.188.228.188s1.034.272 1.238.879c.085.237.126 1.059.126 1.059s1.108.204 1.735 1.06c.454.618.109 1.171.109 1.171l-.722.83s.284-.232 1.007.499c.885.887-.208 1.689-.208 1.689l-.944.988.786.72-.497.337s-.402.178-.537.606-.566.92-.566.92c.212.405-.046.81-.046.81-.137.362-.697.877-.697.877-.337.14-.161.251-.161.251.477.52.769.903.769.903s1.549.043 2.064.374c0 0 .717.421.926.812 0 0 .714-1.143-.236-1.536 0 0 .328-.116.038-.597 0 0-2.222.116-2.43-.216 0 0 .024-.182.212-.18 0 0 .927.09 1.948.158 1.019.061 1.652.093 2.369.635 0 0 .384.243.48-.001 0 0 .122-.297-.238-.509 0 0-.725-.542-2.43-.55 0 0-1.5.09-1.563-.18 0 0 .541-.21 1.29-.206.749.002 1.681-.416 1.681-.416s.905-.51 2.168-.566c1.257-.055 1.409.037 1.409.037s.72-.03.39-.84c0 0-.082-.425-.684-.513-.42-.067-.208-.425-.208-.425s-.54 0-1.113.178c-.57.18-1.953.207-1.953.207s-1.504.115-1.767.175c0 0 1.709-.445 2.25-.623.54-.183 2.49-.62 2.797-.713.296-.094 1.948-.385 2.641-.264 0 0 .563.154.204-.392 0 0-.534-.424-2.58.059-2.043.47-3.483.977-4.058 1.097 0 0-.899.284-.897.057.012-.121.147-.093.147-.093s2.673-1.107 3.581-1.73c.899-.63 2.91-1.672 2.91-1.672s1.477-.687 1.777-.176c0 0 .86-.356.028-1.444-.39-.506-1.523-.153-1.523-.153s-.663.117-.697-.572c0 0-.83-.058-1.199.326-.54.568-1.022.116-1.022.116s-2.857 2.308-3.455 2.484c0 0-.392.125-.183-.154 0 0 1.132-.883 2.412-1.763 0 0 1.649-1.406 3.612-2.21 0 0 .595-.298 1.103-.421 0 0 .349-.111.306-.358-.052-.237-.33-.184-.33-.184s-1.656.355-3.153 1.494c0 0-1.808 1.315-2.256 1.618-.456.29-1.76 1.544-2.046 1.43-.153-.063.018-.148.018-.148s3.6-3.177 4.336-4.25c1.603-2.338 3.615-3.924 3.615-3.924s1.32-.926 1.925-.983c0 0-.028-1.563-1.324-1.445-1.287.116-1.287.357-1.287.357s-.665.332-.814-.12c0 0-.476.118-.63.687 0 0-.633.749-1.031.961-.394.205-1.347 1.47-1.347 1.47s-.363-.149-.363-.364c0 0-.299.508-.476 1.051-.096.267-1.423 1.737-1.423 1.737s-1.746 2.142-1.981 1.916c-.102-.093.122-.21.122-.21s.965-1.108 1.177-1.407c.21-.299 2.435-3.385 2.435-3.385s2.317-3.658 4.464-5.332c0 0 .598-.569.934-.717 0 0 .42-.174.088-.507 0 0-.359-.276-.96.023 0 0-2.382 2.517-2.857 3.115-.491.6-2.807 3.984-2.807 3.984s-2.467 3.872-3.015 4.045c0 0-.21.12-.152-.115 0 0 1.513-2.308 1.927-2.934.693-1.05 3.926-7.737 3.926-7.737s.554-1.22 1.106-2.466l-2.496.225.054.424s-.09.526-.557.584c-.477.063-.632-.5-.632-.5l-.049-.395.014.062c-.501 1.093-.984 2.306-1.102 3.178 0 0-.12.658-.63.45 0 0-.394-.004-.482 1.287 0 0-1.855 5.068-2.482 5.786 0 0-.243.089-.211-.124 0 0 2.208-5.185 2.632-6.865 0 0 .697-1.933 1.25-3.632l-.68.061c-.037.158-.07.318-.118.479 0 0-2.48 8.155-3.5 9.535 0 0-.304.476-.18-.057 0 0 1.746-4.859 2.237-7.02 0 0 .123-1.257.477-2.834 0-.01-.117.013-.117.013l-.226-2.676s.839-.048.845-.072c.157-.602.618-3.144.846-3.764l.606-2.361-.145-1.622zm4.947 7.163.2 1.743c.3-.684.552-1.281.652-1.575.334-.93.995-1.56 1.233-1.68 0 0 .57-.087.362-.629s-1.252-.91-2.126-.517c-1.07.479-2.423 2.332-2.81 2.896l2.484-.24zm-7.129 24.846c.1-.02.453 0 .453 0 .426.02.995-.066 1.538-.22.54-.157 1.056-.222 1.056-.222-.365.134-.365.151-.365.151s-.203.157-.918.337c-.722.18-1.763.108-1.763.108-.156-.066-.088-.139-.012-.155zm.98-2.925c.476-.063 1.778-1.081 2.394-1.59 1.028-.87 1.882-1.295 2.085-1.315.202-.016.058.217.058.217-.012-.035-.452.02-1.447.9-1.832 1.619-3.02 1.97-3.02 1.97-.45.045-.075-.177-.075-.177zm.123-3.94c-.089-.115.135-.292.135-.292.788-.312 2.59-2.72 2.59-2.72.478-.651 1.766-1.796 1.766-1.796-.4.453-.97 1.283-.97 1.283-1.718 2.492-3.207 3.48-3.207 3.48s-.228.161-.314.042zm-1.616-3.178a.83.83 0 0 1 .169-.495c.492-.54 2.806-5.238 2.806-5.238.315-.763 1.52-2.918 1.52-2.918.146-.162.153.02.153.02-.201.292-1.518 3.327-1.518 3.327-.315.83-2.846 5.194-2.846 5.194-.186.29-.274.113-.274.113zm-2.762-2.804c-.177-.125.07-.391.07-.391.662-.899 1.57-6.03 1.57-6.03.065-1.44.572-3.974.572-3.974s.088-.315.163-.288c.23.095.097.27.097.27-.27.764-.51 4.051-.51 4.051-.364 3.376-1.727 6.257-1.727 6.257s-.048.222-.229.106zm-3.053-1.468c-.145-.156-.03-.315-.03-.315.273-.99.31-4.952.31-4.952-.107-.933.067-1.502.067-1.502s0-.24.153-.24c.145.006.125.182.125.182-.156.542-.038 1.41-.038 1.41.115 1.833-.378 5.371-.378 5.371s-.061.194-.208.047m-24.835-6.044c-1.138-.11-2.152-.72-2.995-1.814-2.2-2.842.35-5.794.385-5.825.013.065 2.12-2.343 5.232-1.358.11.036.174.132.156.245l-.178 1.35a.226.226 0 0 1-.228.194c.032-.06-2.77-.018-3.3 1.717-.628 2.077.466 3.105.516 3.148.068.08 1.317 1.47 4.143.557.103-.02.212.01.259.106.047.095.035.207-.037.277-.088.063-1.852 1.605-3.952 1.406zm-2.273-7.34c-.1.106-2.338 2.705-.373 5.25.772.988 1.669 1.547 2.691 1.64 1.104.108 2.107-.333 2.779-.732-2.35.36-3.51-.777-3.56-.843.018.062-.84-.772-.835-2.24 0-.396.06-.847.21-1.349.56-1.852 2.946-2.015 3.538-2.032l.126-.953c-2.725-.744-4.504 1.173-4.58 1.26zm4.65-.316-.014-.065.014.065m-1.017-2.39a.23.23 0 0 1-.194-.254l.183-1.306c.026-.122.133-.21.256-.197.122.015.21.134.193.252l-.184 1.31c-.026.123-.133.21-.254.195m-1.124-.09a.234.234 0 0 1-.194-.254l.135-1.301a.236.236 0 0 1 .246-.207c.12.017.206.131.196.255l-.142 1.303a.234.234 0 0 1-.25.206m1.066 1.045-1.155-.11a.48.48 0 0 1-.426-.523l.055-.66.507-.211 1.147.112a.48.48 0 0 1 .436.522l-.044.433a.48.48 0 0 1-.523.433zm-1.098-1.026-.04.432c-.015-.059.011-.067 0 .057l1.152.108c0 .064-.053.04 0 .062l.044-.432c0-.012 0-.026.014.065l-1.15-.109c.02-.065.066.02.066.015m1.57-5.482c-.013.068-.087-.06-.095-.1l.216-2.616c.19.008-.03 2.632-.03 2.632 0-.061-.048.09-.096.089m-1.392-1.14c-.123-.016-.216-.125-.203-.244-.068.002.133-1.217.602-1.744.074-.094.218-.101.319-.026.079.09.104.227.013.317-.304.348-.453 1.197-.49 1.496a.22.22 0 0 1-.244.2m1.739 1.252a.224.224 0 0 1-.121-.296c.501-1.165.037-2.58.037-2.594a.23.23 0 0 1 .148-.286c.111-.034.245.022.278.146.016.072.522 1.592-.059 2.919a.22.22 0 0 1-.285.119m-1.323.53-.332-.016c-.071-.021-.18-.057-.173-.133.013-.073.016-.123.092-.12l.445.003a.8.8 0 0 0 .269.024c-.07-.058-.173-.09-.173-.09-.124-.093-.331-.267-.41-.24-.078.005-.147-.018-.17-.088-.014-.07.018-.146.091-.17.21-.047.434.122.656.29l.32.202c0 .06.073.061.087.094v.089c0 .007 0 .015-.014-.062 0-.06-.095.02-.128.055l-.012.066.026-.062c-.158.1-.362.114-.577.088m-.094-4.14c.055-.425.434-.834 1.127-.731l.724.39.151.627-.312.52-.817.169c-.682-.102-.933-.563-.877-.976zm.444.07c-.043.343.334.436.503.462l.484-.081.13-.226-.064-.293-.425-.22c-.334-.045-.575.09-.618.351m3.143 5.459a.23.23 0 0 1-.147-.284l.23-.673a.22.22 0 0 1 .281-.144c.124.04.185.17.149.284l-.232.671a.22.22 0 0 1-.28.144m-4.188 1.713c-.348-.045-.548-.381-.713-.653l-.086-.165.238-.22.543-.1c.07 0 .193-.01.21.077 0 .075.017.115-.054.133l-.708.169c.224.206.379.466.601.496.068.024.123.078.119.15-.028.072-.068.128-.152.118m.988-3.63-.341-.14c-.056-.043-.176-.113-.149-.177.032-.066.016-.107.09-.08l.532.167s.06.041.13.055a.7.7 0 0 0-.122-.161l-.199-.682v-.028c-.066-.008.05-.09.101-.111.074-.012.157.035.171.109l.197.622.145.423c-.131.172-.538.012-.538.012m-.208 1.591c-.046-.058-.06-.147-.012-.203l.49-.62c-.025.2-.513.226-.513.226-.066-.019-.17-.052-.17-.127.012-.073.029-.134.1-.133l.588-.026c0 .058.157.023.178.075 0-.063.068.11.044.144l-.524.663c-.06.048-.126.054-.182.007m-.537-1.668-.014-.056c-.848-.006-1.302-.159-1.422-.502-.095-.262.042-.576.38-.861.587-.485 1.26-.231 1.666-.084.343.18.433.547.248 1l-.038.06-.191.174c-.146.112-.426.272-.65.193zm.123-.43c.083.013.291-.134.347-.192.036-.073.103-.327-.03-.393-.524-.194-.88-.26-1.193.013-.193.161-.267.312-.251.36 0 0 .083.208 1.003.205l.125.005m-1.718 2.192c-.218-.068-.285-.331-.31-.55-.038-.165.018-1.214.018-1.214.315-.706 1.332-.48 1.87-.357l.077.039.144.114c.162.194.078.512.012.771-.078.151-.417.338-.417.338.013.064-.235.15-.235.15l-.439.297-.153.15c-.152.164-.345.359-.575.287zm.118-1.57c-.014-.058-.022.774-.022.774.017.143.059.256.07.314-.024-.063.084-.11.084-.11l.283-.244.365-.25.211-.161c.165-.07.313-.15.322-.152 0 0 0-.014-.066.01.014-.095.036-.281.036-.281-.552-.073-1.182-.186-1.337.16m.01 2.276c-.053-.103-.153-.817-.153-.817l.614-.525.352-.183c.426-.24.962-.543 1.427-.161l.064.062.096.229c.05.3-.158.66-.302.813l-.688.593c0-.067-.273.154-.273.154v.06l-.75.192-.433-.318zm1.03-1.14-.393.205-.377.272.096.37c.033.062.179.165.179.165l.392-.126.237-.136c.026-.062.604-.521.604-.521.126-.139.21-.377.183-.445-.226-.173-.505-.033-.927.206m.235 2.427a1.7 1.7 0 0 1-.191-.722c0-.271.082-.524.286-.72l.516-.127.501-.084a5 5 0 0 0 .172-.305l.214-.388c.13-.143.217-.22.208-.229.066.013-.094-1.084-.094-1.084a.44.44 0 0 1 .244-.384l.082-.038.166.02.96.237c.429.31.706.748.746 1.193.018.123-.084.231-.203.244a.244.244 0 0 1-.25-.205c-.04-.446-.415-.762-.58-.873 0-.012-.672-.149-.672-.149 0-.059-.079 0-.083 0-.064.021.1 1.127.1 1.127l-.012.105-.2.219-.084.09c-.026.064-.137.288-.137.288s-.353.521-.353.523c0-.007-.746.146-.746.146l-.218.011a.56.56 0 0 0-.124.392c0 .141.037.297.095.432 0 .06.21-.01.21-.01l1.203-.194c.542-.225.96-.802 1.222-1.251.069-.106.205-.143.306-.08.108.058.15.196.083.306-.303.507-.786 1.163-1.416 1.43-.02.064-1.399.236-1.399.236l-.558-.159zm1.348-1.262-.014-.062.014.062m6.683-11.664v-1.307c0-.146.123-.27.267-.27a.28.28 0 0 1 .276.27v1.312a.275.275 0 0 1-.276.268.27.27 0 0 1-.265-.272m-1.777 1.473a.27.27 0 0 1 .103-.365l1.18-.628a.28.28 0 0 1 .367.104.275.275 0 0 1-.116.365l-1.173.627c-.133.069-.3.024-.362-.115m-1.793 1.836a.26.26 0 0 1-.016-.382l1.032-1.125a.27.27 0 0 1 .38-.016c.113.102.125.271.017.379l-1.032 1.126a.27.27 0 0 1-.378.017m-.004 2.142-.222-1.26a.26.26 0 0 1 .222-.308.273.273 0 0 1 .314.215l.213 1.264a.257.257 0 0 1-.219.31c-.144.032-.286-.076-.309-.221m.569 2.568a.27.27 0 0 1-.267-.276l.054-1.534c.012-.148.125-.265.27-.262a.273.273 0 0 1 .26.284l-.048 1.53c-.012.15-.126.268-.275.265m-.41 2.012c-.15-.02-.244-.169-.215-.316l.229-1.122a.27.27 0 0 1 .315-.214c.155.021.243.168.22.317l-.23 1.125a.264.264 0 0 1-.326.207m3.152-10.937-.145-.046-.144-.187-.036-.366.334-1.152a.476.476 0 0 1 .587-.333.23.23 0 0 1 .16.28.217.217 0 0 1-.281.147c.042.021.054.028.05.04l-.324 1.152c.04.013-.05-.039-.05-.039l.727.204c-.012-.014-.052-.022-.053-.024l.331-1.157a.227.227 0 0 1 .276-.156c.122.038.192.16.162.278l-.398 1.37-.53.117-.722-.207m-2.705 11.768a.235.235 0 0 1-.162-.275l.164-.608c.013.062 0 .064 0-.039l-.723-.216c-.014-.065.067-.01 0-.06-.014-.062-.168.4-.168.4a.22.22 0 0 1-.285.12.23.23 0 0 1-.125-.3l.163-.364a.49.49 0 0 1 .587-.305c0 .002.722.216.722.216.25.079.394.34.322.593l-.156.606c-.028.123-.157.188-.276.162m4.25-10.274-.188.318-1.085.8-.236-.003-.314-.187-.445-.604a.48.48 0 0 1 .101-.674l1.083-.8.242.001.317.19.531.726v.235zm-.888-.696.054.035-.97.713c.038.011.046.019.05.017l.448.604c-.055-.017-.054-.036-.054-.036l.964-.712-.052-.017-.442-.602m.4-.242.05.04v-.002l.014-.066m-3.544 3.063-.448-.779.03-.23.224-.293 1.168-.679.236.022.33.254-.032.06.375.65a.486.486 0 0 1-.175.66l-1.035.6a.486.486 0 0 1-.662-.174zm.02-.916c.042.006.05.013.05.013l.38.653c-.013-.01-.066-.014-.06-.025l1.04-.6c-.04-.008-.048-.014-.057-.013l-.382-.649.058.03-1.04.604m-.527 3.034-.898-.097-.17-.156-.102-.358.152-1.414.508-.198.968.107.208.504-.13 1.193a.48.48 0 0 1-.526.427zm-.595-1.756-.13 1.192c.001.017.032-.06.032-.06l.747.08v.057l.131-1.197c.012.01.06.025.018.062l-.744-.081c.047.01.055.008.06.014m.153 6.162a.48.48 0 0 1-.428-.526l.123-1.192a.48.48 0 0 1 .524-.43l.896.092.177.162.108.35-.143 1.347-.159.173-.347.11-.75-.078zm.14-1.67-.126 1.188c0 .014 0 .059.027-.064l.746.078v.063l.123-1.2v-.06l-.745-.08c.031-.06.042-.053 0-.06m-.253-.618-.542-1.076a.475.475 0 0 1 .216-.643l.666-.334a.49.49 0 0 1 .65.217l.6 1.207-.041.233-.238.279-.873.432-.44-.314zm-.143-1.288v.012l.537 1.075c-.04.053-.067-.01-.05-.045l.67-.334c.014.064-.061.026-.061.026l-.541-1.072v-.06l-.676.33c-.014-.062 0-.067.026-.063m-.102 7.048c-.15-.364-.159-.385-.743-.436l-.136-.006-.206-.242a.75.75 0 0 1 .129-.712l.227-.517.136-.426c.494-.255.737-.005.909.182l.646.354c.108.058.256.217.196.331-.058.11-.091.175-.195.124l-.976-.495c-.141-.155-.198-.197-.25-.194-.032.06-.057.036 0 .06-.015.07-.05.218-.05.218l-.301.684c-.062.049-.064.154-.067.211-.013-.06 0 .031.065.008.727.045.866.18 1.09.68-.083-.082.05-.09.05-.09a1 1 0 0 1 .092-.085c.072-.04.186-.168.26-.136.067.04.17-.007.187.06.037.225-.098.443-.367.575-.317.1-.559.046-.637-.153m3.95 3.609c-.43-.581-.143-1.352.352-1.792a.22.22 0 0 1 .317.025.24.24 0 0 1-.014.318c-.298.256-.584.803-.294 1.18.08.099.052.24-.042.314-.096.071-.242.054-.31-.042m-.254-2.697-.352-.165c-.014-.065-.765-.502-.765-.502-.07.01-.289-.206-.289-.206 0 .062-.26-.165-.26-.165l-.398-.267c0 .06-.427-.26-.427-.26l-.318-.185a.236.236 0 0 1-.08-.305.24.24 0 0 1 .323-.07l.293.17.51.324c0 .062.31.199.31.199l.26.149c.142.144.228.194.228.194l.797.509.37.176.52.228c.037-.06.248.023.248.023-.11-.006-.356.06-.384.16-.025.11-.128.199-.023.248l-.561-.245m3.75 1.339c-.116-.007-.216-.101-.217-.215l.028-.338-.042-.625c-.066-.123-.329-.584-.845-.625l-.67-.016-.97-.042c0-.007-.694-.205-.694-.205v.002c0-.006-.626-.35-.626-.35l-.403-.27c0-.061-1.354-.765-1.806-1.021-.014-.065 0-.059 0-.059 0 .018-.11.498-.11.498-.07.23-.127.452-.128.651a.56.56 0 0 0 .096.365c0 .01.676.553.676.553l.302.193a.3.3 0 0 1 .092.18c0-.063-.024.09-.04.128-.068.104-.225.117-.327.058l-.267-.186-.828-.7c-.267-.442-.135-.938-.012-1.374l.107-.422c.041-.053.248-.433.248-.433l.099-.21.232.196 1.847 1.048c.056.037.46.279.46.279l.185.155.407.181c.037-.058.57.18.57.18 0 .06.924.04.924.04l.72.012c.505.047.96.38 1.213.892 0 .012.082.842.082.842l-.014.293c-.012.126-.108.234-.24.22zm-4.92-.486-.461-.312c-.414-.202-.67-.407-.546-1.318a.225.225 0 0 1 .251-.192.22.22 0 0 1 .191.251c-.088.66.02.715.308.858l.573.397c.108.07.096.182.028.284-.076.1-.241.1-.341.03m.18.26c-.346-.38-.484-.857-.376-1.402a.22.22 0 0 1 .26-.18c.118.028.2.14.18.261-.078.406.02.747.312 1.074.07-.004.146.155.146.155-.091-.084-.208-.065-.3.013-.09.082-.073.233 0 .326l-.219-.256m1.076 1.287c-.347-.248-.724-.761-.763-1.29-.012-.29.072-.54.268-.72a.237.237 0 0 1 .325.001.235.235 0 0 1-.014.319c-.098.089-.137.213-.128.364.013.322.263.732.576.958.101.076.124.215.053.314a.23.23 0 0 1-.313.053m25.867-2.604c.014.046.048-.086.078-.101 0-.067.094.031.1.073l.724 6.59c-.183.023-.9-6.569-.9-6.569m-.644-6.511c.014.045.032-.095.076-.1 0-.067.098.034.098.075l.18 1.7c-.182.022-.357-1.68-.357-1.68m.53 13.389-.748-6.982a.22.22 0 0 1 .205-.248.22.22 0 0 1 .246.203l.747 6.981c0 .12-.085.233-.204.247a.223.223 0 0 1-.25-.194m1.158-.124-.715-6.833c-.018-.122.087-.234.203-.246.121-.005.236.075.245.203l.713 6.833a.216.216 0 0 1-.201.243.22.22 0 0 1-.246-.204m-1.246-11.83-.17-1.7c-.016-.118.071-.23.203-.245a.236.236 0 0 1 .245.202l.177 1.696c0 .127-.086.235-.203.247a.236.236 0 0 1-.257-.196m-.136 1.535c-.053.041-.06-.031-.02-.105-.013-.052.079-.083.117-.107l.222-.103.505-.144c.072-.004.062.033.083.09-.013-.023-.013-.022-.013-.02.014.064-.103.134-.166.15 0 0-.33.121-.346.129.125.064.263.124.263.124-.068-.04-.123.005-.149.076-.047.055.021.155.085.19l-.615-.32m-.873-.221-.306-2.899a.217.217 0 0 1 .205-.247.217.217 0 0 1 .243.203l.305 2.896a.224.224 0 0 1-.445.056m-.206-2.774-.303-.528c-.056-.431.217-.918.882-1.012.685-.09 1.063.315 1.12.74l-.141.582-.742.386-.817-.166zm.144-.65c-.013-.019.013.042.013.061l.13.228.483.082.443-.207.056-.252c-.04-.262-.273-.404-.612-.355-.314.042-.5.222-.501.444m1.109 14.762a.217.217 0 0 1-.11-.3l.178-.403c.213-.28.745-.635 1.476-.29.104.111.336.559.336.559.06.11 0 .243-.108.303a.224.224 0 0 1-.297-.107l-.223-.453a.7.7 0 0 0-.79.216c-.012-.024-.158.354-.158.354a.22.22 0 0 1-.299.111m.486 3.184a8 8 0 0 1-.13-.595.234.234 0 0 1 .182-.26.24.24 0 0 1 .266.183l.08.498c-.014-.042.224.189.398.179.147-.021.261-.203.343-.357a8 8 0 0 0-.053-.293c.013.024.013.021.013.031.012-.117.079-.213.202-.22a.22.22 0 0 1 .249.191l.048.405c-.21.509-.444.72-.736.747-.455.038-.808-.402-.839-.452m-3.08-.432-.267-2.87 7.572-.715.298 3.098-7.581.712zm.426-.271c.407-.038 6.272-.588 6.682-.629-.03-.338-.177-1.857-.212-2.197-.4.039-6.27.593-6.678.632.032.338.177 1.855.208 2.194m-1.333-12.084-.225-.674a.234.234 0 0 1 .148-.286.23.23 0 0 1 .28.148l.226.673a.235.235 0 0 1-.136.29.234.234 0 0 1-.284-.148m4.297 1.757c0-.075.046-.143.122-.156.22-.018.369-.285.501-.512l-.616-.148c-.067-.019-.053-.063-.042-.133.031-.067.14-.088.217-.078l.728.146-.044.348c-.158.269-.364.601-.717.64-.071-.01-.148-.047-.154-.12m-1.15-4.06.155-.498c.028-.071.086-.137.168-.106.067-.011.095.064.102.11-.012-.022-.012-.018.014.038l-.164.556s-.031.092-.06.186c-.012-.053.082-.048.082-.048l.495-.065c.076.01.084.048.102.114.016.072-.086.136-.162.15l-.353.066-.326.061c-.131-.17 0-.541 0-.541m.293 2.128-.27-.158-.43-.33c-.068-.003-.031-.072-.028-.121-.014-.055.082-.072.124-.095l.281-.074.608-.08c.077.002.082.039.096.105-.012-.022-.012-.022-.012-.02.014.065-.097.126-.177.133l-.452.08s.014.05 0 .066c.067.057.148.095.148.095l.333.214c-.014-.063.043.052.043.085.012.031.013.056-.038.083a.19.19 0 0 1-.21.027m.061-1.855-.053-.043-.165-.196c-.175-.457-.092-.828.231-.99.552-.205 1.156-.377 1.689.073.34.284.476.597.377.86-.124.344-.573.5-1.42.496l.015.044c-.23.075-.503-.088-.649-.192zm.194-.81c-.109.057-.04.301.012.405.026-.062.249.173.322.168l.131-.007c.912 0 .999-.199.999-.199-.014-.057-.052-.205-.251-.362-.314-.27-.685-.204-1.211-.007m1.472 2.484-.162-.15-.442-.298-.178-.137c-.033.063-.387-.201-.387-.201-.144-.408-.229-.725-.068-.923l.056-.055.18-.073c.545-.122 1.56-.346 1.882.376.014.041.044 1.028.044 1.028-.067.394-.133.655-.351.722-.238.075-.422-.133-.566-.294zm.318-.309s.071.065.123.116c.013.023.014.05.014.061-.014-.053.016-.102.016-.102.025-.11.03-.412.03-.644-.013-.169-.001-.303-.001-.303-.161-.355-.787-.247-1.362-.126a9 9 0 0 1 .084.324c-.014-.041.107.047.107.047.178.071.384.227.384.227l.377.257.013.04.284.245m-1.085 1.35-.21-.124c.015.052-.706-.615-.706-.615-.13-.14-.304-.445-.3-.724-.013-.035-.014-.062.016-.09l.031-.084.151-.197c.472-.382 1-.075 1.429.174l.35.183.608.527-.105.713c-.046.108-.487.421-.487.421l-.75-.194zm.231-.386-.013-.043.4.126.149-.115c.026-.062.122-.425.122-.425l-.37-.283-.395-.205c-.41-.244-.7-.385-.908-.214.012.028.012.036.014.05-.012.092.072.275.185.4 0 0 .612.534.623.54l.188.11zm-.266.372-.014-.049-.013-.043v.067m-1.999 1.08c-.607-.252-1.091-.914-1.385-1.42-.07-.11-.026-.246.08-.31.116-.058.242-.033.308.082.259.448.682 1.025 1.196 1.245-.014-.043 1.22.209 1.22.209l.273-.047c.041-.072.042-.19.052-.304-.012-.167-.04-.353-.167-.48-.013-.02-.194.009-.194.009l-.765-.17v-.002c.013.018-.323-.507-.323-.507l-.11-.24a5 5 0 0 1-.32-.446c.012.022.075-1.1.075-1.173a.3.3 0 0 1 .014.052c.014.044-.68.162-.68.162-.178.123-.554.44-.6.882a.235.235 0 0 1-.248.206.23.23 0 0 1-.202-.244c.066-.607.508-1.01.774-1.191.013.025.953-.224.953-.224l.094-.027.151.063c.103.067.229.176.255.312-.012.07-.085 1.27-.085 1.27.06-.03.252.274.252.274-.065-.156.144.227.144.227l.156.298c-.014-.043.523.094.523.094l.514.127c.377.379.33.982.13 1.384-.051.049-.606.213-.606.213l-1.42-.257zm-6.522-12.865v-1.308c.012-.15.124-.272.274-.268.15-.008.27.124.268.271v1.306c-.012.148-.124.27-.271.269-.151.008-.27-.125-.272-.27m1.945 1.59-1.17-.633a.263.263 0 0 1-.102-.363.27.27 0 0 1 .362-.114l1.167.632a.265.265 0 0 1 .102.367.26.26 0 0 1-.36.102m1.768 1.718-1.033-1.128a.275.275 0 0 1 .017-.382.274.274 0 0 1 .377.015l1.031 1.126a.265.265 0 0 1-.017.382.273.273 0 0 1-.384-.015m.068 2.38a.256.256 0 0 1-.212-.313l.225-1.259c.019-.15.168-.243.313-.218.14.032.246.17.214.314l-.222 1.258a.274.274 0 0 1-.315.218m-.55 2.08-.041-1.529c-.012-.147.111-.27.268-.276a.26.26 0 0 1 .273.266l.041 1.533c.012.148-.111.272-.268.274a.27.27 0 0 1-.273-.266m.357 2.074-.221-1.126c-.023-.154.066-.292.217-.321.148-.033.288.063.318.218l.22 1.123a.273.273 0 0 1-.206.32.28.28 0 0 1-.328-.21m-3.846-10.592-.23-.284-.325-1.156c-.04-.122.034-.246.16-.28a.22.22 0 0 1 .267.155l.332 1.155c-.019-.051-.018-.059-.018-.059l.727-.2c-.018-.037-.014-.047-.018-.05l-.323-1.152a.2.2 0 0 1 .02.062.24.24 0 0 0 .166-.217c.013.017.013.037.014.054a.215.215 0 0 0-.216-.164.49.49 0 0 1 .537.342l.323 1.159a.486.486 0 0 1-.333.59l-.864.243-.216-.09zm.558-2.249c.013.034.02.053-.037.058-.012-.033-.02-.053.037-.058m2.95 13.634-.198-.752.082-.218.285-.234.722-.206c.258-.07.522.069.6.325.014.057.143.344.143.344a.226.226 0 0 1-.122.294.23.23 0 0 1-.299-.111l-.154-.375c0 .067-.05-.041-.043-.053l-.723.21a.2.2 0 0 1 .014.047c0 .005.164.616.164.616a.23.23 0 0 1-.162.277.23.23 0 0 1-.274-.16m-2.867-9.175-1.087-.807-.064-.231.092-.354.459-.597a.487.487 0 0 1 .671-.101l1.141.851-.083.541-.447.602a.48.48 0 0 1-.67.1zm-.7-1.121c.022.023.024.04-.013-.036l.961.717c-.019-.04-.018-.05-.02-.052l.455-.592.014.04-.966-.719c.018.04.016.048.02.053l-.445.601m2.844 2.366-1.04-.613a.48.48 0 0 1-.17-.659l.386-.643a.483.483 0 0 1 .659-.173l1.035.612c.225.128.303.43.167.658l-.381.648a.486.486 0 0 1-.656.171zm-.818-1.042c.017.024.018.038-.014-.04l1.04.613c-.014-.038-.014-.051-.017-.055l.38-.65c-.012-.025.013.03.013.037l-1.038-.613c.016.04.014.05.014.051l-.386.645m1.468 2.59-.126-1.194a.49.49 0 0 1 .428-.53l.743-.078a.49.49 0 0 1 .53.429l.128 1.198c.023.26-.17.5-.43.52l-.748.081a.48.48 0 0 1-.527-.426zm1.094-1.35-.744.075a.2.2 0 0 1 .014.052l.125 1.194c-.013-.021-.013-.06-.014-.064l.75-.074c-.012-.034-.013-.04-.013-.05l-.13-1.195a.2.2 0 0 1 .014.063m-1.544 5.892-.134-1.42.449-.299.974-.099.292.459.14 1.417-.45.3-.749.073a.49.49 0 0 1-.527-.431zm1.11-1.345-.748.075c.014.039.017.043.014.05l.116 1.197c-.013-.018-.013-.059-.013-.062l.745-.071a.3.3 0 0 1-.014-.052l-.115-1.194c.013.018.014.059.014.066m-1.044-.858a.48.48 0 0 1-.215-.641l.544-1.073a.48.48 0 0 1 .642-.215l.87.44.012.539-.638 1.276-.55.008-.67-.336zm.727-1.512-.536 1.073c.017.028-.013-.04-.013-.04l.67.337c-.015-.041-.015-.053-.015-.053s.545-1.079.546-1.085c.013.022.013.017.014.06l-.668-.335c.014.04.013.048.013.06m.279 7.408c-.301-.142-.436-.367-.39-.589.03-.073.112-.033.179-.055.084-.016.203.084.262.135l.121.095a1 1 0 0 1 .105.017c.136-.428.28-.561 1.034-.63.013.044-.024-.157-.082-.23.012.037-.305-.69-.305-.69s-.073-.207-.092-.293c.014.053-.061.093-.195.236l-.972.49c-.11.057-.144-.009-.198-.127-.058-.108.084-.27.206-.323l.65-.352c.17-.186.41-.43.779-.29.125.115.262.539.262.539l.23.524a.77.77 0 0 1 .121.71l-.05.123-.289.132c-.575.05-.59.078-.742.436-.09.186-.318.243-.606.151m-3.769 3.459a.217.217 0 0 1-.04-.316c.291-.38.015-.919-.286-1.179-.094-.084-.094-.224-.013-.323a.23.23 0 0 1 .317-.015c.5.438.787 1.213.34 1.791a.225.225 0 0 1-.313.04m-.284-2.458c-.1-.008-.082-.09-.1-.193-.02-.102.14-.219.24-.261l.516-.226.38-.17c0-.067.618-.407.618-.407l.251-.16c.15-.136.406-.29.406-.29l.284-.184c-.02-.046.538-.329.538-.329l.3-.17a.243.243 0 0 1 .314.081.21.21 0 0 1-.079.3l-.331.186-.446.27c-.023-.038-.383.245-.383.245l-.22.126c.028.045-.277.21-.277.21.023.06-.819.523-.819.523 0-.005-.363.163-.363.163l-.606.263-.193.008-.012.066m-3.156.782-.012-.29.074-.834c.259-.522.72-.855 1.223-.9 0 .006.719-.007.719-.007l.886-.028c0 .06.566-.155.566-.155.012-.067.46-.193.46-.193l.181-.15.493-.295c.028.042 1.82-1.026 1.82-1.026l.205-.115.134.123.247.473c.013.031.1.39.1.39.066.245.142.51.142.777-.012.202-.042.405-.173.596l-.818.69-.273.186a.24.24 0 0 1-.324-.06 1 1 0 0 0-.041-.129c.014-.071.03-.136.104-.178l.3-.189.679-.542c.073-.113.088-.242.095-.374 0-.203-.054-.419-.118-.648l-.116-.469c.013.02.016.064-.043-.071-.33.19-1.76 1-1.76 1 .033.043-.352.225-.352.225-.097.037-.764.411-.763.413-.016-.066-.687.182-.687.182-.016-.065-.935.04-.935.04h-.672c-.406.04-.71.357-.85.64v.006c0-.06-.04.607-.04.607l.013.332c-.012.12-.088.212-.211.213a.234.234 0 0 1-.24-.222zm2.933-1.614zm4.126-.027zm-2.248 1.373c-.066-.105-.07-.217.037-.284l.57-.397c.29-.137.4-.191.308-.854a.226.226 0 0 1 .195-.253.23.23 0 0 1 .251.192c.12.912-.146 1.114-.558 1.32l-.46.308c-.104.067-.276.074-.347-.033m-.053.215c-.077-.088-.204-.106-.291-.014l.107-.115c.317-.37.415-.713.342-1.12a.215.215 0 0 1 .18-.26.22.22 0 0 1 .255.178c.028.121.031.231.032.337q.002.605-.44 1.11c-.012-.064-.19.209-.19.209.074-.095.09-.243 0-.328zm.193.12v.006-.005m-1.375 1.177c-.061-.101-.054-.239.054-.314.312-.223.563-.631.575-.954.012-.158-.023-.275-.129-.367a.213.213 0 0 1 0-.318.22.22 0 0 1 .318-.002c.195.177.288.43.27.718-.038.53-.418 1.04-.774 1.288-.096.072-.234.052-.313-.055m-10.935 34.085v-.359l4.155.012v.358l-4.158-.012m.003.676v-.36l4.139.014v.36l-4.141-.014m4.011-.174v-1.138l.364-.001v1.102l.31 1.478-.355.08-.31-1.517m-4.544 1.422.324-1.512-.012-1.069.364.005v1.102c.036-.057-.326 1.549-.326 1.549l-.352-.08m3.875-.447s-.338.056-.54.097c-.011.155 0 .395 0 .395l-.366-.005.012-.541c.012-.1.076-.184.181-.182l.886.001c.171.13.337.672.337.672l-.344.108-.158-.544m-3.005.442.172-.543 1.06-.122c.095.014.178.073.177.177l.012.54-.364.004v-.362c-.21-.004-.589.001-.66-.002-.052.042-.045-.05.055.04a3 3 0 0 1-.08.364l-.337-.108m3.01 1.108c-.102-.007-.182-.077-.18-.18v-.86c.015-.098.078-.183.18-.18l1.369.004c.096.006.179.073.177.179v.856c-.016.096-.074.18-.18.179l-1.366-.001zm1.185-.361c-.012-.162 0-.33-.001-.492-.222-.002-.773 0-.997-.006.012.167 0 .333 0 .495.225 0 .775.004.999.002m-3.197.355c-.096-.016-.181-.075-.182-.18v-.855c.012-.097.074-.179.18-.178l1.412.002a.164.164 0 0 1 .174.177v.86c-.012.096-.072.178-.18.179l-1.413-.005zm1.234-.359c-.012-.162 0-.33 0-.496a61 61 0 0 0-1.05-.001c.012.167 0 .332 0 .496h1.046m-3.234.355c-.096-.008-.177-.072-.17-.184v-.857c.012-.1.074-.178.176-.174h1.366a.2.2 0 0 1 .182.181v.86c-.012.1-.077.182-.19.174l-1.363-.004zm1.187-.355c-.012-.167 0-.332 0-.499a65 65 0 0 0-1.01 0c-.012.165.001.33 0 .491.235.001.776.004 1.01.007m.59-7.717c-.496.091-2.89-.365-2.89-.365-.542-.108-.602-.248-1.22-.29-.89-.065-1.595.235-1.595.235s-.64.278-.843.868c-.26.817.177 1.338.177 1.338s.109.212.498.274c.666.1.48-.602.48-.602s-.357.243-.524-.07c-.163-.313.055-.633.055-.633s.29-.34.497-.38c0 0-.047.367.137.475 0 0 .62-.476 1.093-.487.483-.022 1.548.08 1.548.08s1.486.064 2.01.023c.527-.047.858-.227.858-.227l-.281-.232m-.405 3.13c-.047-.095-.215-.08-.3-.04l.664-.332c.088-.044.12.006.167.087.035.09-.07.219-.153.265l-.398.205c.093-.045.07-.106.028-.196m-.699.208c-.103-.018-.168-.107-.144-.209-.037.057.181-.978.943-.975.603.005 1.038.71 1.055.737.043.09.026.198-.067.25a.17.17 0 0 1-.241-.067c-.101-.159-.42-.569-.745-.571-.465-.002-.587.675-.59.681-.035.098-.108.164-.207.144m-1.672-12.824c.516-.227.898.004.898.004.538.157.405.81.405.81-.188 1.577 2.497 3.204 2.497 3.204-.838-.532-2.395-.364-2.395-.364-.585.265-.99.253-.99.253s-.384.005-.314-.325c.064-.337.463-.19.463-.19 0-.54-.421-.502-.421-.502s-.74.131-.857.854c-.114.72 1.1.971 1.1.971-.044.135-.651.515-.651.515s-.408.53-1.463.473c-.793-.048-.967-.926-.967-.926s-.15-.53.472-.653c.313-.058.59.294.59.294.43-.312.044-.675.044-.675s-.578-.614-1.393.085c-.77.661.073 1.967.073 1.967s-.512 1.026-.012.897c.014.06.435-.118 1.742.158.262.058.611-.053.904-.119.445-.087 1.653-.91 1.653-.91-.159 1.036.349 1.57.975 1.641.623.065.564-.654.564-.654-.468-.02-.486-.388-.486-.388s-.191-.854.81-.695c1.358.22 1.216 1.327 1.216 1.327s.026 1.032-1.079 1.037c-.885 0-1.577-.412-1.8-.524-.227-.118-.298-.067-.298-.067s-.21.27-.989.539c-.64.218-.577.599-.577.599l.634.029s.72.063 1.195.454c.486.391 1.419.575 1.419.575-.84.087-1.015.264-1.015.264-.985.795-1.892.762-1.892.762-.298.029-.758-.467-.758-.467-.8.808-.675 2.402-.675 2.402.123.93 1.735.477 1.735.477.256.94 1.105.88 1.105.88l4.662.012c.425-.534 1.173.561 1.173.561.421-.419-.177-1.2-.177-1.2 1.632-.177 1.376 1.038 1.376 1.038.77-.074.654-.851.654-.851-.094-1.02-1.5-1.04-1.5-1.04 1.122-.464 1.992.23 1.992.23 1.363.636 1.275 1.489 1.275 1.489.047.27-.543.689-.543.689.044.15.23.146.23.146.815-.023.947-.869.947-.869.262-.868-1.256-2.12-1.256-2.12.544-.476.077-1.182.077-1.182-.234.274-.928.342-.928.342s-.735-.002-1.695.358c-.964.353-1.223.192-1.223.192s3.143-1.282 4.36-2.811c1.06-1.319.145-2.565.145-2.565-.675-.634-1.14-.034-1.14-.034.241.154.49.618.49.618.333.677-.414 1.813-.414 1.813s-.272.518-.736.613c-.436.086-.799-.482-.799-.482-.265.691-.911.778-.911.778.209-.375.627-1.05.627-1.05s.756-.986 1.15-.99c.393.003.653.44.653.44s.303-.794-.258-1.215c-.574-.425-1.47-.392-1.47-.392.12-.748.933-1.768.933-1.768-.627-.454-.223-.813-.223-.813.216-.389 1.234.096 1.234.096-.046-.26-.134-1.13-1.082-1.101-.948.027-1.743 2.187-1.743 2.187-.731-.561-.656-1.938-.656-1.938s.06-.765.785-.84c.331-.031.764.397.764.397s.102-1.217-.884-1.337c-.768-.101-1.659 1.362-1.659 1.362s-.248-1.306.785-1.664c0 0-.352-.616-.856-.53 0 0 .186-.267.542-.314.365-.048.762-.24.85-.147.87.975 1.877 1.16 1.877 1.16s.689-.018 1.901.478c1.228.496.499 1.27.499 1.27s-.266.098-.687.703c-.418.6.561 1.459.561 1.459s-.14 1.059.836 1.41c1.118.403 1.454-1.09 1.454-1.09.297.066.574.698.574.698-.801.666-.578 2.401-.578 2.401-1.005-.72-1.696-.06-1.696-.06-.544.538-.176 1.906-.126 2.306.03.228.658 1.266 1.719 1.536 2.044.517 1.396 1.63 1.396 1.63s1.115-.474.512-1.286c0 0-.868-.695-.772-1.144.09-.452.416-.455.416-.455s.315-.326.476-.538c.365-.45-.054-.84-.054-.84s.445-.257.787-1.113c.22-.572.497-.542.676-.719l-.49-.475s-.34-.126.022-.458c0 0 1.031-1.01 1.178-1.222 0 0 .732-.561-.233-1.049l-1.127-.52.858-.954s.59-.422-.02-1.018c-.95-.925-1.71-.696-1.71-.696l-.03-1.291s-.031-.233-.296-.385c-.268-.153-.96-.427-.96-.427s-.206.048-.268-.542c-.042-.454-.388-1.173-.561-1.386-.19-.207-.185-.483-.72-.299-.54.183-.96.48-.96.48l-1.506-1.564s-1.044.328-1.62 1.259v1.03l-9.737-.03v-1.027c-.57-.931-1.614-1.265-1.614-1.265l-1.501 1.56s-.423-.303-.962-.488c-.54-.183-.54.092-.725.3-.179.21-.522.926-.571 1.38-.06.584-.282.537-.282.537s-.686.272-.963.422a.58.58 0 0 0-.298.386l-.035 1.29s-.751-.236-1.71.686c-.613.591-.03 1.02-.03 1.02l.861.957-1.142.51c-.96.48-.233 1.05-.233 1.05.148.21 1.177 1.228 1.177 1.228.35.337.012.459.012.459l-.49.471c.18.179.455.155.674.735.331.855.773 1.113.773 1.113s-.422.387-.064.839c.175.206.481.542.481.542s.333-.002.415.452c.097.45-.78 1.14-.78 1.14-.603.808.51 1.29.51 1.29s-.647-1.119 1.4-1.624c1.062-.262 1.711-1.299 1.736-1.528.038-.399.42-1.761-.124-2.303 0 0-.678-.666-1.686.048 0 0 .228-1.73-.572-2.403 0 0 .284-.634.58-.695 0 0 .32 1.497 1.442 1.106.995-.352.839-1.41.839-1.41s.99-.858.57-1.457c-.415-.6-.686-.707-.686-.707s-.727-.774.502-1.266c1.227-.49 1.914-.47 1.914-.47s.919-.013 1.884-1.15l.088-.095zm-.595 11.098s.53.233 1.39.026c.857-.202 1.012-.57 1.657-.756 1.16-.345 1.892-.688 2.133-1.576 0 0-.796.596-1.498.448-.772-.159-1.606-.854-2.146-.9 0 0 .433-.096.57-.225 0 0 1.271.603 1.916.542.532-.048 1.53-.511 1.533-1.072 0 0 .743.086-.012 1.573-.698 1.395-1.447 1.488-1.574 1.553-.58.282-.5.365-.515.446 0 0-.058.317.48.455.334.086.363.363.454.54.084.183.281.644 1.275.605 0 0-.2.139-.734.19-.541.046-1.309-.057-1.624.06-.312.11-.512.372-1.125.126-.344-.142-.335-.685-.275-.923 0 0-.45.331-.878.444 0 0-1.21.426-1.283-.157 0 0-.176-.852.251-1.394m4.078-25.758c2.69.007 4.894 2.193 4.887 4.883l.289-2.278s-.043-1.892 1.09-3.015c1.124-1.122 1.67-2.247 1.985-2.787s2.308-1.793 3.069-1.026c0 0 .274-2.744-3.38-.594 0 0-.351-1.352.32-2.071 0 0-1.28.156-1.733.648 0 0-.96-.657-1.502-.52 0 0-.136 1.037-.826 1.796-.67.769-.715 1.532-.896 1.983-.186.447-.596 2.745-1.136 2.653-.543-.095-.226-.632-.226-.632s.71-1.821.234-2.79c0 0-.241.245-.698.243 0 0 .39-2.477 2.017-2.988 1.464-.462 2.09-.941 2.455-1.818.364-.878.122-2.227-.85-2.05 0 0 1.01 1.101.223 1.488-.79.38-.682-.744-.682-.744s-2.269.916-2.93 2.917c0 0-.811-1.237 1.697-3.415 0 0 1.986-1.252 3.313-.193 0 0 .916.81-.208 1.28 0 0 .11.72 1.013.118 0 0 .538-.562.166-1.668 0 0-.652-2.025-3.737-1.135 0 0 .228-.899 2.069-.718 0 0 .14.303.798.001 0 0 1.14-.36 1.226.427 0 0 .584-.145.576-1.02 0 0 1.29-.51 1.468.245 0 0 .666-.778.037-1.684 0 0 1.168.425.47 1.801 0 0-.45 1.055-1.284.304 0 0-.424.895.508.869 0 0 1.084.093 1.51-1.855 0 0 .147-2.133-1.709-2.95 0 0 .905-1.922-1.288-1.622 0 0 .695.516.334.898 0 0-.192.301-.7.39-.508.087-1.198.779-1.385 1.164-.177.39-.08.515-.477.81-.584.43-.718.205-1.172.657-.331.327-3.162 1.676-3.92 5.634 0 0-.273.274-.269-.06 0 0-.14-4.266 3.406-5.668 0 0 3.488-1.914 3.104-4.404 0 0-.712-3.451-3.925-2.056 0 0 .962-.115 1.68.338 0 0 1.77.962 1.103 2.463-.662 1.499-1.899 1.799-2.043 1.466-.152-.333-.525-.543-1.038-.393 0 0 .483.57-.018 1.065-.59.58-1.49 1.302-1.728 1.633 0 0 .589-3.465 2.11-3.614 1.484-.145 1.18.864 1.095.95 0 0 1.323-.536.15-1.921 0 0 .993-.958-.142-1.38 0 0-.012.406-.487.479-1.016.145-2.734 2.243-2.734 2.243s.212-.72.695-1.438c.163-.256.055-.422.055-.422-.032-.246-.056-.57.855-.597 0 0 .59-.977-1.476-.74l-.167.006c-.283-.654-.997-1.49-.997-1.49-.426-.505.468-.534.468-.534-.134-.21-.409-.396-.54-.434-.823-.259-.745 1.102-.745 1.102.012.428-.715 1.336-.715 1.336-2.062-.243-1.486.733-1.486.733.923.03.885.354.855.601 0 0-.108.171.065.419.476.722.68 1.447.68 1.447s-1.705-2.11-2.722-2.262c-.477-.073-.483-.48-.483-.48-1.143.417-.15 1.381-.15 1.381-1.175 1.376.14 1.919.14 1.919-.084-.092-.382-1.095 1.097-.94 1.519.156 2.094 3.62 2.094 3.62-.236-.33-1.141-1.047-1.718-1.638-.502-.497-.012-1.069-.012-1.069-.515-.15-.888.059-1.041.393-.15.33-1.383.022-2.032-1.479-.66-1.502 1.115-2.46 1.115-2.46.722-.446 1.677-.326 1.677-.326-3.202-1.42-3.934 2.03-3.934 2.03-.395 2.494 3.08 4.421 3.08 4.421 3.539 1.422 3.374 5.685 3.374 5.685 0 .33-.266.06-.266.06-.741-3.966-3.565-5.326-3.892-5.66-.454-.45-.582-.225-1.163-.658-.396-.307-.308-.42-.485-.812-.176-.39-.864-1.082-1.372-1.175-.51-.09-.697-.39-.697-.39-.364-.38.338-.898.338-.898-2.185-.31-1.298 1.615-1.298 1.615-1.856.807-1.72 2.936-1.72 2.936.416 1.954 1.497 1.866 1.497 1.866.935.03.519-.868.519-.868-.84.747-1.288-.304-1.288-.304-.69-1.382.48-1.802.48-1.802-.628.902.026 1.685.026 1.685.18-.751 1.472-.238 1.472-.238-.012.873.571 1.023.571 1.023.09-.777 1.226-.419 1.226-.419.66.303.804.006.804.006 1.837-.175 2.06.726 2.06.726-3.082-.91-3.738 1.118-3.738 1.118-.382 1.1.157 1.665.157 1.665.897.61 1.013-.11 1.013-.11-1.126-.48-.206-1.282-.206-1.282 1.336-1.057 3.313.208 3.313.208 2.494 2.192 1.677 3.43 1.677 3.43-.645-2.007-2.916-2.94-2.916-2.94s.108 1.13-.682.744c-.784-.385.232-1.485.232-1.485-.97-.183-1.222 1.164-.86 2.044.364.879.987 1.36 2.446 1.83 1.625.524 1.991 2.998 1.991 2.998-.443-.002-.69-.246-.69-.246-.483.966.222 2.793.222 2.793s.312.54-.232.63c-.54.089-.94-2.209-1.124-2.661-.186-.449-.214-1.217-.893-1.983-.678-.765-.81-1.803-.81-1.803-.539-.135-1.502.512-1.502.512-.451-.493-1.735-.657-1.735-.657.68.724.313 2.075.313 2.075-3.648-2.174-3.377.574-3.377.574.769-.762 2.741.504 3.053 1.043.316.543.856 1.672 1.972 2.8 1.13 1.128 1.073 3.018 1.073 3.018l.279 2.28c0-2.688 2.28-4.868 4.888-4.858" style="fill:none;stroke:#ffd283;stroke-width:.33999997;stroke-linecap:butt;stroke-linejoin:miter;stroke-miterlimit:4;stroke-opacity:1;stroke-dasharray:none" transform="matrix(1.25 0 0 -1.25 -783.07 -587.299)"/><g style="font-size:13.82245922px"><path d="M822.882 551.662v-9.6h1.27v3.943h4.99v-3.942h1.27v9.6h-1.27v-4.525h-4.99v4.524zm-4.307-3.366 1.27.321q-.399 1.566-1.437 2.387-1.038.822-2.538.822-1.552 0-2.524-.632-.972-.631-1.48-1.83a6.5 6.5 0 0 1-.507-2.574q0-1.5.573-2.615a3.93 3.93 0 0 1 1.63-1.696 4.76 4.76 0 0 1 2.328-.58q1.44 0 2.423.733.982.735 1.368 2.063l-1.25.295q-.334-1.048-.97-1.526t-1.597-.478q-1.107 0-1.85.53a2.8 2.8 0 0 0-1.044 1.425q-.302.894-.302 1.843 0 1.224.357 2.138t1.11 1.365a3.1 3.1 0 0 0 1.63.452q1.068 0 1.808-.616.74-.615 1.002-1.826m-11.662 3.366v-9.6h1.27v9.6zm-9.215 0v-9.6h6.94v1.134h-5.67v2.94h5.31v1.126h-5.31v3.267h5.893v1.133zm-9.649 0v-9.6h4.256q1.284 0 1.952.26.667.258 1.067.913.4.654.4 1.447 0 1.021-.662 1.722-.66.7-2.043.89.504.243.766.479.557.51 1.054 1.277l1.67 2.612h-1.598l-1.27-1.997a18 18 0 0 0-.917-1.323q-.36-.458-.645-.641a1.9 1.9 0 0 0-.579-.256 4 4 0 0 0-.707-.046h-1.474v4.263zm1.27-5.363h2.731q.87 0 1.362-.18a1.45 1.45 0 0 0 .746-.576q.255-.396.256-.861a1.43 1.43 0 0 0-.495-1.12q-.495-.438-1.561-.438h-3.039zm-10.912 5.363v-9.6h4.257q1.283 0 1.95.26.669.258 1.068.913.4.654.4 1.447 0 1.021-.662 1.722-.66.7-2.043.89.505.243.766.479.557.51 1.055 1.277l1.67 2.612h-1.598l-1.27-1.997a18 18 0 0 0-.917-1.323q-.36-.458-.645-.641a1.9 1.9 0 0 0-.58-.256 4 4 0 0 0-.707-.046h-1.473v4.263zm1.27-5.363h2.731q.87 0 1.362-.18a1.45 1.45 0 0 0 .747-.576q.255-.396.255-.861a1.43 1.43 0 0 0-.494-1.12q-.495-.438-1.562-.438h-3.038zm-10.288 5.363v-9.6h6.94v1.134h-5.67v2.94h5.31v1.126h-5.31v3.267h5.893v1.133zm-6.502 0v-8.466h-3.162v-1.133h7.608v1.133h-3.175v8.466zm-11.779-3.084 1.198-.105q.086.72.397 1.182.31.462.965.747t1.474.285a3.5 3.5 0 0 0 1.283-.217q.557-.216.828-.592.273-.376.272-.822a1.25 1.25 0 0 0-.262-.789q-.262-.338-.864-.566-.386-.15-1.71-.469-1.321-.317-1.852-.599-.688-.36-1.025-.893a2.2 2.2 0 0 1-.337-1.196q0-.726.412-1.358.413-.632 1.205-.96a4.6 4.6 0 0 1 1.762-.327q1.067 0 1.882.344.816.344 1.254 1.012.44.668.471 1.512l-1.217.092q-.099-.91-.665-1.375t-1.673-.465q-1.152 0-1.68.422-.527.423-.527 1.018 0 .518.373.852.367.333 1.916.684 1.548.35 2.125.612.837.387 1.237.98.4.592.4 1.364 0 .766-.44 1.444-.438.678-1.26 1.054-.82.377-1.85.377-1.302 0-2.183-.38a3.06 3.06 0 0 1-1.382-1.143 3.24 3.24 0 0 1-.527-1.725m-11.822-1.591q0-2.39 1.283-3.742 1.284-1.353 3.314-1.352 1.33 0 2.396.635a4.15 4.15 0 0 1 1.627 1.771q.56 1.135.56 2.577 0 1.46-.59 2.612-.588 1.153-1.669 1.745a4.8 4.8 0 0 1-2.33.593q-1.357 0-2.424-.655a4.2 4.2 0 0 1-1.617-1.788 5.4 5.4 0 0 1-.55-2.396m1.31.02q0 1.735.933 2.733.933.999 2.34.999 1.435 0 2.361-1.009t.927-2.861q0-1.171-.397-2.046a3.04 3.04 0 0 0-1.159-1.356 3.14 3.14 0 0 0-1.712-.481q-1.35 0-2.321.927-.972.926-.972 3.093m1.427-5.547v-1.342h1.231v1.342zm2.442 0v-1.342h1.231v1.342zM725.5 551.662v-9.6h1.27v4.761l4.767-4.76h1.722l-4.027 3.89 4.204 5.71h-1.676l-3.418-4.86-1.572 1.533v3.326zm-4.76 0v-9.6h1.27v9.6zm-8.45 0v-9.6h1.27v8.467h4.729v1.133zm-9.52 0v-9.6h3.601q1.1 0 1.765.292.665.291 1.04.897.377.606.377 1.267 0 .615-.334 1.16-.333.543-1.008.877.87.255 1.339.87.468.617.468 1.454 0 .675-.285 1.254-.284.58-.704.894t-1.05.475q-.633.16-1.55.16zm1.27-5.566h2.076q.845 0 1.211-.11.484-.145.73-.479t.246-.838q0-.479-.23-.842a1.16 1.16 0 0 0-.654-.497q-.425-.135-1.46-.134h-1.92zm0 4.433h2.39q.615 0 .864-.045.439-.08.734-.262.294-.184.484-.534a1.7 1.7 0 0 0 .19-.809q0-.537-.275-.933a1.45 1.45 0 0 0-.763-.556q-.488-.16-1.404-.16h-2.22zm-5.258-8.466h1.27v5.546q0 1.447-.327 2.298-.329.852-1.182 1.385-.855.534-2.243.534-1.35 0-2.207-.465a2.65 2.65 0 0 1-1.224-1.346q-.367-.88-.367-2.406v-5.546h1.27v5.54q0 1.25.233 1.843.232.593.799.913.566.321 1.385.321 1.401 0 1.997-.635.596-.636.596-2.443zm-15.204 9.6v-9.6h3.621q.957 0 1.46.092.708.117 1.186.448.477.33.769.927.291.595.291 1.31 0 1.223-.779 2.072-.78.848-2.815.848h-2.462v3.902zm1.27-5.036h2.482q1.23 0 1.749-.459.517-.457.517-1.29 0-.602-.305-1.03a1.42 1.42 0 0 0-.802-.567q-.321-.085-1.185-.085h-2.455zm-10.269 5.035v-9.6h6.94v1.134h-5.67v2.94h5.31v1.126h-5.31v3.267h5.894v1.133zm-9.648 0v-9.6h4.256q1.283 0 1.951.26.668.258 1.067.913.4.654.4 1.447 0 1.022-.661 1.722-.662.7-2.043.89.504.243.766.479.556.51 1.054 1.277l1.67 2.612h-1.598l-1.27-1.997a18 18 0 0 0-.917-1.323q-.36-.458-.645-.641a1.9 1.9 0 0 0-.58-.256 4 4 0 0 0-.707-.046H666.2v4.263zm1.27-5.363h2.73q.872 0 1.362-.18a1.45 1.45 0 0 0 .747-.576q.255-.396.255-.861a1.43 1.43 0 0 0-.494-1.12q-.495-.438-1.562-.438H666.2zm151.021-25.662v-9.599h1.303l5.042 7.537v-7.537h1.218v9.6h-1.303l-5.042-7.544v7.543zm-12.24-4.675q0-2.39 1.283-3.742t3.313-1.352q1.329 0 2.397.635a4.15 4.15 0 0 1 1.627 1.771q.56 1.137.56 2.577 0 1.46-.59 2.613-.59 1.152-1.67 1.745a4.8 4.8 0 0 1-2.33.592q-1.356 0-2.423-.655a4.2 4.2 0 0 1-1.618-1.787 5.4 5.4 0 0 1-.55-2.397m1.309.02q0 1.735.933 2.734t2.34.998q1.436 0 2.361-1.008.927-1.009.927-2.862 0-1.171-.396-2.046a3.04 3.04 0 0 0-1.16-1.355 3.14 3.14 0 0 0-1.711-.482q-1.35 0-2.322.927t-.972 3.094m-5.736 4.655v-9.599h1.27v9.6zm-10.556 0v-9.599h1.303l5.042 7.537v-7.537h1.218v9.6h-1.303l-5.042-7.544v7.543zm-4.027-9.599h1.27v5.546q0 1.447-.327 2.299t-1.182 1.384-2.242.534q-1.35 0-2.207-.465a2.65 2.65 0 0 1-1.224-1.345q-.367-.881-.367-2.407v-5.546h1.27v5.54q0 1.25.233 1.843.232.593.798.913t1.385.321q1.402 0 1.998-.635.595-.635.595-2.442zm-19.776 9.6v-9.6h6.94v1.133h-5.67v2.94h5.31v1.126h-5.31v3.268h5.893v1.132zm-10.367 0v-9.6h1.27v3.942h4.99v-3.942h1.27v9.6h-1.27v-4.525h-4.99v4.524zm-4.307-3.366 1.27.32q-.399 1.566-1.437 2.387-1.038.822-2.537.822-1.552 0-2.525-.632-.972-.631-1.48-1.83a6.5 6.5 0 0 1-.507-2.573q0-1.5.573-2.616a3.93 3.93 0 0 1 1.63-1.696 4.76 4.76 0 0 1 2.328-.58q1.44 0 2.423.734.982.733 1.369 2.062l-1.251.295q-.334-1.047-.97-1.526-.634-.477-1.597-.478-1.107 0-1.85.53a2.8 2.8 0 0 0-1.044 1.425q-.3.894-.301 1.843 0 1.226.357 2.138.355.914 1.11 1.365a3.1 3.1 0 0 0 1.63.452q1.067 0 1.807-.615.74-.616 1.002-1.827m-16.186.281 1.198-.104q.086.72.397 1.181.31.462.965.747t1.474.285a3.5 3.5 0 0 0 1.283-.216q.557-.216.828-.593.273-.376.272-.822a1.25 1.25 0 0 0-.262-.789q-.262-.336-.864-.566-.386-.15-1.71-.468-1.322-.318-1.852-.6-.688-.36-1.025-.893a2.2 2.2 0 0 1-.337-1.195q0-.728.412-1.359.413-.63 1.205-.96a4.6 4.6 0 0 1 1.762-.327q1.067 0 1.882.344.816.345 1.254 1.012.439.668.471 1.512l-1.217.092q-.099-.91-.665-1.375t-1.673-.465q-1.152 0-1.68.422-.527.423-.527 1.019 0 .517.373.85.367.336 1.916.685 1.548.351 2.125.612.837.387 1.237.98.4.592.4 1.365 0 .766-.44 1.443-.438.678-1.26 1.055-.82.375-1.85.376-1.302 0-2.183-.38a3.06 3.06 0 0 1-1.382-1.142 3.24 3.24 0 0 1-.527-1.726m-4.38 3.084v-9.599h1.27v9.6zm-11.664 0 3.686-9.599h1.369l3.929 9.6h-1.447l-1.12-2.908h-4.014l-1.054 2.907zm2.77-3.941h3.254l-1.002-2.659a26 26 0 0 1-.68-1.99 12 12 0 0 1-.518 1.833zm-.256-6.26v-1.343h1.231v1.343zm2.443 0v-1.343h1.23v1.343zm-12.807 10.201v-9.599h3.62q.957 0 1.461.092.708.118 1.185.448t.77.927q.291.596.291 1.31 0 1.224-.78 2.072-.778.848-2.815.848h-2.462v3.902zm1.27-5.035h2.482q1.23 0 1.748-.458.517-.459.517-1.29 0-.603-.304-1.032a1.42 1.42 0 0 0-.802-.566q-.322-.085-1.185-.085h-2.456zm-13.524.36q0-2.39 1.283-3.742 1.284-1.352 3.313-1.352 1.329 0 2.397.635a4.15 4.15 0 0 1 1.627 1.771q.56 1.137.56 2.577 0 1.46-.59 2.613-.588 1.152-1.67 1.745a4.8 4.8 0 0 1-2.33.592q-1.356 0-2.423-.655a4.2 4.2 0 0 1-1.617-1.787 5.4 5.4 0 0 1-.55-2.397m1.31.02q0 1.735.932 2.734.933.998 2.341.998 1.434 0 2.36-1.008.927-1.009.927-2.862 0-1.171-.396-2.046a3.04 3.04 0 0 0-1.159-1.355 3.14 3.14 0 0 0-1.712-.482q-1.35 0-2.321.927-.973.927-.973 3.094m-10.546 4.655v-9.599h4.256q1.283 0 1.951.259t1.067.913q.4.656.4 1.447 0 1.021-.662 1.722-.66.702-2.042.89.504.243.766.479.555.51 1.054 1.277l1.67 2.612h-1.598l-1.27-1.997a18 18 0 0 0-.917-1.322q-.36-.459-.645-.642a1.9 1.9 0 0 0-.58-.255 4 4 0 0 0-.707-.046h-1.473v4.262zm1.27-5.362h2.73q.871 0 1.362-.18a1.45 1.45 0 0 0 .747-.577q.255-.396.255-.86a1.43 1.43 0 0 0-.494-1.12q-.495-.44-1.562-.44h-3.038zm-5.33-4.237h1.27v5.546q0 1.447-.327 2.299-.329.851-1.182 1.384-.855.534-2.243.534-1.35 0-2.207-.465a2.65 2.65 0 0 1-1.224-1.345q-.367-.881-.367-2.407v-5.546h1.27v5.54q0 1.25.233 1.843.232.593.799.913.566.321 1.385.321 1.401 0 1.997-.635t.596-2.442zm-15.299 9.6v-9.6h6.941v1.133h-5.67v2.94h5.31v1.126h-5.31v3.268h5.893v1.132z" style="font-size:13.41029358px;font-variant:normal;font-weight:500;writing-mode:lr-tb;fill:#ffd283;fill-opacity:1;fill-rule:nonzero;stroke:none;font-family:StymieBT;-inkscape-font-specification:StymieBT-Medium" transform="matrix(1.25003 -.0034 .0034 1.24996 -783.07 -587.299)"/></g><g style="font-size:13.82245922px"><path d="m788.45 714.218 1.613-.14q.115.969.533 1.59.42.622 1.3 1.005.882.384 1.984.384.978 0 1.727-.291t1.116-.798a1.85 1.85 0 0 0 .365-1.106q0-.609-.352-1.062t-1.164-.763q-.52-.202-2.3-.63t-2.495-.806q-.925-.486-1.38-1.204a2.95 2.95 0 0 1-.453-1.608q0-.979.555-1.83.554-.85 1.622-1.29 1.066-.441 2.371-.441 1.437 0 2.534.462 1.098.464 1.688 1.362.59.9.635 2.036l-1.64.124q-.132-1.225-.894-1.851-.763-.626-2.253-.626-1.55 0-2.26.568-.71.57-.71 1.371 0 .696.502 1.146.495.45 2.579.921t2.86.824q1.128.52 1.666 1.318t.538 1.838q0 1.03-.59 1.943-.592.913-1.698 1.42t-2.49.506q-1.755 0-2.94-.51-1.185-.512-1.86-1.539a4.36 4.36 0 0 1-.709-2.323m-11.806 0 1.613-.14q.114.969.533 1.59t1.3 1.005q.883.384 1.984.384.978 0 1.727-.291t1.115-.798a1.85 1.85 0 0 0 .366-1.106q0-.609-.352-1.062t-1.164-.763q-.52-.202-2.3-.63t-2.495-.806q-.925-.486-1.38-1.204a2.95 2.95 0 0 1-.453-1.608q0-.979.555-1.83.554-.85 1.622-1.29 1.065-.441 2.371-.441 1.437 0 2.534.462 1.097.464 1.688 1.362.59.9.635 2.036l-1.64.124q-.132-1.225-.894-1.851-.764-.626-2.253-.626-1.55 0-2.26.568-.71.57-.71 1.371 0 .696.502 1.146.495.45 2.579.921t2.86.824q1.128.52 1.666 1.318.537.798.538 1.838 0 1.03-.591 1.943t-1.697 1.42-2.49.506q-1.755 0-2.94-.51-1.185-.512-1.86-1.539a4.36 4.36 0 0 1-.709-2.323m-14.647 4.152 4.962-12.922h1.843l5.288 12.922h-1.948l-1.507-3.914h-5.403l-1.42 3.914zm3.728-5.306h4.381l-1.348-3.579q-.618-1.63-.917-2.68a16.5 16.5 0 0 1-.697 2.468zm-12.617 5.306v-12.922h4.874q1.287 0 1.966.123.952.159 1.595.604.645.446 1.036 1.247.393.803.392 1.763 0 1.65-1.049 2.79-1.048 1.142-3.79 1.142h-3.314v5.253zm1.71-6.778h3.34q1.658 0 2.354-.617t.696-1.737q0-.81-.41-1.388a1.92 1.92 0 0 0-1.08-.763q-.43-.114-1.595-.114h-3.305zm-13.643 6.778v-12.922h9.343v1.525h-7.633v3.958h7.148v1.516h-7.148v4.398h7.933v1.525zm-12.424-4.152 1.613-.14q.115.969.534 1.59.418.622 1.3 1.005.881.384 1.983.384.978 0 1.728-.291.749-.291 1.115-.798a1.85 1.85 0 0 0 .366-1.106q0-.609-.353-1.062t-1.164-.763q-.52-.202-2.3-.63t-2.495-.806q-.925-.486-1.38-1.204a2.95 2.95 0 0 1-.453-1.608q0-.979.555-1.83.555-.85 1.622-1.29t2.371-.441q1.437 0 2.534.462 1.098.464 1.688 1.362.591.9.635 2.036l-1.64.124q-.132-1.225-.894-1.851-.763-.626-2.252-.626-1.551 0-2.261.568-.71.57-.71 1.371 0 .696.503 1.146.493.45 2.578.921t2.86.824q1.129.52 1.666 1.318.538.798.538 1.838 0 1.03-.59 1.943-.591.913-1.697 1.42t-2.49.506q-1.755 0-2.94-.51-1.185-.512-1.86-1.539a4.36 4.36 0 0 1-.71-2.323m-5.716 4.152v-12.922h1.71v12.922zm-12.224 0v-12.922h9.343v1.525h-7.633v3.958h7.148v1.516h-7.148v4.398h7.933v1.525zm-12.808 0v-12.922h5.73q1.727 0 2.626.348.9.348 1.437 1.23.537.881.538 1.948 0 1.375-.89 2.318t-2.75 1.199q.678.326 1.03.643.75.688 1.42 1.72l2.247 3.516h-2.15l-1.71-2.688q-.75-1.165-1.235-1.78-.484-.618-.868-.865a2.6 2.6 0 0 0-.78-.343q-.29-.063-.952-.062h-1.983v5.738zm1.71-7.219h3.676q1.171 0 1.833-.242.66-.243 1.005-.776t.344-1.16q0-.915-.666-1.507-.666-.59-2.102-.59h-4.09z" style="font-size:18.05225182px;font-variant:normal;font-weight:500;writing-mode:lr-tb;fill:#ffd283;fill-opacity:1;fill-rule:nonzero;stroke:none;font-family:StymieBT;-inkscape-font-specification:StymieBT-Medium" transform="matrix(1.25003 -.00341 .00341 1.24996 -783.07 -587.299)"/></g><path d="m756.25-741.62-.038-.269-.118-.416-.18-.39-.203-.39-.27-.352-.271-.33-.327-.328-.356-.274-.387-.265-.385-.213-.446-.185-.448-.153-.474-.121-.508-.057-.508-.034-.505.022-.478.065-.477.117-.447.152-.445.185-.391.204-.388.266-.358.275-.328.327-.268.329-.27.352-.214.389-.148.388-.147.416-.038.295-8.999-.021.018-6.41 28.628.077-.014 6.38-9.806-.027m-2.853 1.837-.327.3-.356.272-.42.206-.475.117-.51.055-.474-.062-.479-.121-.42-.205-.355-.273-.328-.3-.213-.385-.148-.387-.055-.445.059-.449.15-.416.213-.36.327-.326.361-.262.418-.205.478-.15.477-.033.507.034.475.15.421.205.355.274.324.331.212.357.148.417.06.451-.06.444-.149.39-.212.383m-6.815.004-.018-.061.149.416.207.356.263.364.272.354.325.298.357.274.387.271.389.202.446.185.445.153.48.121.48.052.503.034.51-.034.508-.055.473-.117.447-.151.448-.186.39-.203.384-.268.364-.264.326-.299.273-.358.273-.355.209-.355.173-.42-.016-.066 9.944.025-.017 6.086-28.629-.077.017-6.054 9.174.024" style="fill:#ffd283;fill-opacity:1;fill-rule:evenodd;stroke:none" transform="matrix(1.25 0 0 -1.25 -783.07 -587.299)"/><path d="M31.025 27.033V.059M.239 36.01h21.649m1199.667-8.977V.059m30.786 35.951h-21.65M31.025 886.915v26.975M.239 877.938h21.649m1199.667 8.977v26.975m30.786-35.952h-21.65" style="fill:none;stroke:#231f20;stroke-width:.25;stroke-linecap:butt;stroke-linejoin:miter;stroke-miterlimit:4;stroke-opacity:1;stroke-dasharray:none" transform="matrix(1.25 0 0 -1.25 -783.07 -587.299)"/></svg>