<svg xmlns="http://www.w3.org/2000/svg" xml:space="preserve" width="333.662" height="473.169" version="1.2"><path fill="#003875" d="M162.802 144.942c0 1.69-.658 3.366-1.961 4.647a6.75 6.75 0 0 1-4.728 1.929H55.095V5.073h101.018c1.706 0 3.424.647 4.728 1.928a6.51 6.51 0 0 1 1.96 4.646z" style="opacity:1;fill:#01150b;fill-opacity:1;stroke:none;stroke-width:.316886;stroke-miterlimit:4;stroke-dasharray:none;stroke-opacity:1;paint-order:stroke fill markers" transform="matrix(3.0888 0 0 3.22406 -169.69 -15.845)"/><path fill="#f7f49a" d="M110.132 135.778a1.341 1.341 0 1 0-2.683-.001 1.341 1.341 0 0 0 2.683 0m-1.342 2.032c-1 0-1.842-.73-2.001-1.682h-3.653v2.743h11.309v-2.743h-3.652c-.17.961-1 1.682-2.003 1.682m-5.654-5.135v2.743h3.653c.17-.952 1-1.682 2.001-1.682s1.843.73 2.003 1.682h3.652v-2.743z" style="opacity:1;fill:#a48c6d;fill-opacity:1;stroke-width:.839662" transform="matrix(3.0888 0 0 3.22406 -169.2 -15.334)"/><g aria-label="PASPORT PASSPORT" style="font-style:normal;font-variant:normal;font-weight:400;font-stretch:normal;font-size:6.02488px;line-height:1.04;font-family:BywayEMod;-inkscape-font-specification:BywayEMod;text-align:center;text-anchor:middle;fill:#a48c6d;fill-opacity:1;stroke:none;stroke-width:.150621"><path d="M94.05 115.9h.874q.709 0 1.02.133.315.129.495.423.182.291.182.7 0 .453-.238.753-.235.3-.641.418-.239.068-.868.068v1.833h-.824zm.824 1.692h.262q.309 0 .43-.044.12-.044.187-.145.071-.102.071-.247 0-.25-.194-.364-.141-.086-.524-.086h-.232zM98.748 115.9h.836l1.665 4.328h-.856l-.339-.892H98.29l-.353.892h-.856zm.424 1.148-.577 1.485h1.15zM104.158 116.489l-.609.538q-.32-.447-.653-.447-.162 0-.265.088-.102.085-.102.194 0 .11.073.206.1.13.603.556.47.394.57.497.25.253.354.486.106.23.106.503 0 .532-.368.88-.368.347-.959.347-.462 0-.806-.227-.341-.227-.586-.712l.692-.418q.312.574.718.574.211 0 .356-.124.144-.123.144-.285 0-.147-.11-.294-.108-.147-.479-.45-.706-.577-.912-.889-.206-.314-.206-.626 0-.45.342-.771.344-.324.847-.324.324 0 .615.15.294.15.635.548M105.017 115.9h.874q.709 0 1.02.133.316.129.495.423.182.291.182.7 0 .453-.238.753-.235.3-.641.418-.238.068-.868.068v1.833h-.824zm.824 1.692h.262q.309 0 .43-.044.12-.044.188-.145.07-.102.07-.247 0-.25-.194-.364-.141-.086-.524-.086h-.232zM110.442 115.791q.918 0 1.577.665.662.665.662 1.621 0 .947-.653 1.603-.65.656-1.58.656-.974 0-1.618-.673-.644-.674-.644-1.6 0-.621.3-1.142t.823-.824q.527-.306 1.133-.306m-.009.806q-.6 0-1.009.418t-.409 1.062q0 .718.515 1.136.4.326.918.326.585 0 .997-.423.412-.424.412-1.045 0-.618-.415-1.044-.415-.43-1.009-.43M113.513 115.9h.874q.718 0 1.02.13.307.126.492.423.186.297.186.703 0 .427-.206.715-.203.286-.615.433l1.023 1.924h-.9l-.973-1.833h-.077v1.833h-.824zm.824 1.692h.259q.394 0 .541-.103.15-.103.15-.341 0-.142-.073-.245-.074-.106-.197-.15-.124-.047-.453-.047h-.227zM116.526 115.9h2.391v.812h-.788v3.516h-.835v-3.516h-.768zM92.485 122.27h.874q.709 0 1.02.132.315.13.495.423.182.291.182.7 0 .453-.238.754-.235.3-.641.417-.239.068-.868.068v1.833h-.824zm.824 1.69h.262q.309 0 .43-.043.12-.044.187-.144.071-.103.071-.248 0-.25-.194-.364-.141-.086-.524-.086h-.232zM97.183 122.27h.836l1.665 4.327h-.856l-.339-.892h-1.765l-.353.892h-.856zm.424 1.147-.577 1.485h1.15zM102.593 122.858l-.609.538q-.32-.447-.653-.447-.162 0-.265.088-.103.085-.103.194t.074.206q.1.13.603.556.47.394.57.497.25.253.354.486.106.23.106.503 0 .532-.368.88-.368.346-.96.346-.46 0-.805-.226-.341-.227-.586-.712l.692-.418q.312.574.718.574.211 0 .356-.124.144-.123.144-.285 0-.147-.11-.294-.108-.147-.479-.45-.706-.577-.912-.889-.206-.314-.206-.626 0-.45.342-.771.344-.324.847-.324.324 0 .615.15.294.15.635.548M105.723 122.858l-.609.538q-.32-.447-.653-.447-.161 0-.264.088-.103.085-.103.194t.073.206q.1.13.603.556.47.394.57.497.25.253.354.486.106.23.106.503 0 .532-.368.88-.368.346-.959.346-.462 0-.806-.226-.341-.227-.585-.712l.69-.418q.313.574.719.574.211 0 .356-.124.144-.123.144-.285 0-.147-.11-.294-.108-.147-.479-.45-.706-.577-.912-.889-.205-.314-.205-.626 0-.45.34-.771.345-.324.848-.324.324 0 .615.15.294.15.635.548M106.582 122.27h.874q.71 0 1.02.132.316.13.495.423.183.291.183.7 0 .453-.239.754-.235.3-.641.417-.238.068-.868.068v1.833h-.824zm.824 1.69h.262q.309 0 .43-.043.12-.044.188-.144.07-.103.07-.248 0-.25-.194-.364-.141-.086-.523-.086h-.233zM112.007 122.16q.918 0 1.577.665.662.665.662 1.621 0 .947-.653 1.603-.65.657-1.58.657-.974 0-1.618-.674t-.644-1.6q0-.621.3-1.142t.824-.824q.526-.306 1.132-.306m-.009.806q-.6 0-1.009.418t-.409 1.062q0 .718.515 1.136.4.326.918.326.585 0 .997-.423.412-.424.412-1.045 0-.617-.415-1.044-.415-.43-1.009-.43M115.078 122.27h.874q.718 0 1.02.129.307.126.492.423.186.297.186.703 0 .427-.206.715-.203.286-.615.433l1.024 1.924h-.9l-.974-1.833h-.077v1.833h-.824zm.824 1.69h.259q.394 0 .541-.102.15-.103.15-.341 0-.142-.073-.245-.074-.106-.197-.15-.124-.047-.453-.047h-.227zM118.09 122.27h2.393v.811h-.789v3.516h-.835v-3.516h-.768z" style="font-style:normal;font-variant:normal;font-weight:700;font-stretch:normal;font-family:&quot;Century Gothic&quot;;-inkscape-font-specification:&quot;Century Gothic Bold&quot;;text-align:center;text-anchor:middle;stroke-width:.150621;fill:#a48c6d;fill-opacity:1" transform="matrix(3.1557 0 0 3.1557 -169.2 -15.334)"/></g><g transform="matrix(3.0888 0 0 3.22406 -170.947 -15.334)"><path d="M137.548 73.99a.05.048 0 0 0-.02.004s-.033.027-.033.04a30.283 29.012 0 0 1-.92 3.578c0 2.196-.083 2.787-.67 3.455-.571.687-1.275.37-.93-.864.16-.606 1.09-1.836 1.512-2.473-.07.095-.14.192-.21.279a1.026.983 0 0 0-.13.15l-.459.647c.345-1.057.704-2.234.92-3.155a.041.04 0 0 0 0-.04s-.028-.026-.042-.026a.05.048 0 0 0-.04 0s-.029.027-.029.04a37.463 35.891 0 0 1-1.076 3.618 5.73 5.49 0 0 0-.63 1.322 3.5 3.353 0 0 1 .074-1.37q.644-1.65 1.117-3.332v-.053a.046.044 0 0 0-.027 0h-.055v.027a33.549 32.141 0 0 1-1.38 3.965.041.04 0 0 0 0 .027 5.74 5.5 0 0 0-.042.055c-.09.688.192 1.54.051 1.963-.143.427-.57 1.018-.842.44-.099-.21-.101-.511-.036-.84a5.74 5.5 0 0 0-.079.26c-.197-.812.46-2.372.663-2.936a22 22 0 0 1-1.033 1.914c-.326 1.48.465 2.622-.058 3.15-.547.537-1.503 1.096-1.117-.93.057-.307.35-.87.631-1.36-2.001 3.007-4.688 5.48-7.898 7.55a26.585 25.47 0 0 1-14.208 4.266h-.828a26.608 25.492 0 0 1-16.011-5.13c-4.6-3.33-7.985-7.605-9.585-12.923-.332-.467-.8-.882-1.275-.882a1.062 1.018 0 0 0-.358.093.865.828 0 0 0-.271.233c-.92.96.243 2.045.386 2.155a.644.617 0 0 1 .16.234.685.657 0 0 1 .028.273c-.027.15-.156.26-.372.344a1.021.978 0 0 0-.46.286 1.058 1.013 0 0 0-.225.44 1.325 1.27 0 0 0 .068.604l.13.278-.314-.044h-.215a1.012.97 0 0 0-.686.207.304.29 0 0 0-.087.123.501.48 0 0 0 0 .137c.088.714 1.085 1.41 1.085 1.41a.46.44 0 0 0 0 .18.823.789 0 0 0 .074.164.377.361 0 0 0 .142.123.768.736 0 0 0 .189.071 1.38 1.322 0 0 0 .414.053.708.679 0 0 0 .17 0l.271-.027c-.5.44-.17 2.508 1.96 2.715a1.118 1.07 0 0 0 .304 0c-.99 1.286.699 1.943.699 2.467 0 .216-.272.44-.515.56-.327.18-.732.317-.732.811 0 .56.345 1.11 1.688 1.11.46 0 .99.04.99.37 0 .137-.185.287-.387.41-.203.123-.53.33-.53.617 0 .066 0 .683.99 1.013l.414.124-.387.176a.64.613 0 0 0-.27.194.524.502 0 0 0-.116.3c0 .29.244.564.787.771a4.751 4.552 0 0 0 1.246.26l.028.066.04.057a.708.679 0 0 0 .143.11.856.82 0 0 0 .175.053h.17v.163a.819.784 0 0 0 .07.304.731.7 0 0 0 .22.269 5.12 4.904 0 0 0 .718.59l.428.286-.516.027c-.814.044-1.504.507-1.619 1.084a1.118 1.07 0 0 0 0 .41 1.145 1.097 0 0 0 .175.383 1.444 1.384 0 0 0 .92.468h.101a2.76 2.644 0 0 0 .685-.11c.428-.098.576-.098.76.44.156.44.27.74.698.74h.272s-.543 1.52.115 2.085a.432.414 0 0 0 .29.066c.353 0 .841-.441 1.214-.882a1.573 1.507 0 0 1 1.002-.643h.056l.041.026a1.61 1.542 0 0 0 .56.194.727.696 0 0 1 .286.137.515.494 0 0 1 .17.26.46.44 0 0 1 0 .313.515.494 0 0 1-.183.26 1.56 1.494 0 0 0-.414 1.017 1.256 1.203 0 0 0 .068.494 1.426 1.366 0 0 0 .258.441 1.136 1.088 0 0 0 .414.26 1.421 1.362 0 0 0 .488.084 1.237 1.185 0 0 0 .602-.097 1.38 1.322 0 0 0 .46-.344 1.49 1.428 0 0 0 .373-1.04.644.617 0 0 1 0-.22.828.793 0 0 1 .101-.208.212.203 0 0 1 .128-.08.52.498 0 0 1 .143-.025.566.542 0 0 1 .304.093 1.246 1.194 0 0 0 .754.303.993.952 0 0 0 .561-.194.736.705 0 0 0 .285-.357l.088-.246.198.194a.975.934 0 0 0 .299.207.856.82 0 0 0 .372.066 1.246 1.194 0 0 0 .676-.19l.253-.194v.358a.598.573 0 0 0 .069.246.589.564 0 0 0 .189.19c.354.22.984-.053.984-.053s-.956.533-1.071.63a.24.23 0 0 0-.074.097.396.379 0 0 0 0 .123c.046.3.602.41.975.41a1.624 1.555 0 0 0 .372-.04 2.185 2.093 0 0 0 .515-.193 14.097 13.506 0 0 1 2.848-1.56 25.844 24.76 0 0 0-2.52 1.586.46.44 0 0 0-.157.194.552.529 0 0 0-.028.247c.083.357.842.44 1.058.44a2.847 2.728 0 0 0 1.444-.41.189.18 0 0 0 .042-.052 7.36 7.05 0 0 1 1.535-1.26l.088-.058.102.057c.556.3 1.715.956 2.332 1.3l.183.11.203.123a.745.714 0 0 0 .298.097 3.312 3.173 0 0 0 .53.027c1.071 0 1.84-.41 1.84-.767a.345.33 0 0 0-.056-.194.506.485 0 0 0-.156-.123c-.497-.207-2.3-1.013-3.547-1.604l1.03.097.088.026c.63.07 2.157.903 3.004 1.397h.027a1.458 1.397 0 0 0 .59.124c.413 0 1.085-.168 1.158-.494a.46.44 0 0 0-.046-.264.4.383 0 0 0-.212-.177l-3.992-1.52.083-.304a64.03 61.343 0 0 0 6.77 2.344l-.202.163c-.271.207-1.072.714-2.787.96a6.9 6.61 0 0 0 1.628.137 9.01 8.632 0 0 0 3.68-.832 12.419 11.898 0 0 1 .34-1.715l.028-.123 1.09-.026-.23.273a3.22 3.085 0 0 0-.429.793 14.171 13.576 0 0 0 2.415-1.273 3.68 3.525 0 0 0 .745-1.441.823.789 0 0 0-.101-.137 31.598 30.273 0 0 1-4.875.18 3.164 3.032 0 0 1 .34-.193 15.27 14.63 0 0 0 4.88-.85 4.816 4.614 0 0 1 .76-.22 12.626 12.096 0 0 0 3.104-1.323.05.048 0 0 0 0-.03v-.054a.046.044 0 0 0-.027 0h-.061a11.742 11.25 0 0 1-4.107 1.52 5.469 5.24 0 0 1-2.36-.466c1.546.194 3.864-.657 5.64-1.6a11.232 10.76 0 0 0 2.833-1.621v-.08h-.088a10.179 9.752 0 0 1-2.203 1.344 6.853 6.566 0 0 1-2.99.19c1.072-.084 2.475-.767 3.593-1.441a22.077 21.151 0 0 0 3.601-2.177s.032-.026.032-.04a.046.044 0 0 0 0-.044s-.027-.026-.04-.026a.05.048 0 0 0-.042 0 22.818 21.86 0 0 1-2.893 1.811 5.924 5.676 0 0 1-2.346 0c1.606-.097 2.893-.881 4.093-1.837a18.21 17.445 0 0 0 2.632-1.975v-.083h-.148a18.858 18.067 0 0 1-2.3 1.762 6.044 5.79 0 0 1-2.575.278c1.504-.14 2.63-1.018 3.477-1.825a19.736 18.908 0 0 0 2.176-1.947.05.048 0 0 0 0-.04v-.04a.055.053 0 0 0-.046 0 .041.04 0 0 0-.042 0 21.342 20.446 0 0 1-1.582 1.424 2.86 2.74 0 0 1-1.504.353c.713-.216 1.817-1.19 2.534-2.093a20.941 20.063 0 0 0 2.631-3.222v-.084c0-.026 0 0-.027 0h-.06a21.861 20.944 0 0 1-2.447 3.027 6.361 6.094 0 0 1-1.145.155c.69-.29 1.09-1.097 1.89-2.181a15.344 14.7 0 0 0 2-2.688.028.026 0 0 0 0-.04s0-.027-.027-.04a.028.026 0 0 0-.041 0s-.028 0-.046.027a14.01 13.422 0 0 1-1.546 2.163 1.591 1.525 0 0 1-.92.441 9.162 8.778 0 0 0 1.417-2.044 11.37 10.893 0 0 0 1.38-2.358v-.079a.046.044 0 0 0-.028 0h-.087a10.505 10.064 0 0 1-1.416 2.397 2.148 2.058 0 0 1-.732.44c.819-.753 1.104-1.797 1.38-2.714a13.54 12.973 0 0 0 1.21-2.674h-.004v-.053a.046.044 0 0 0-.033 0h-.055a.046.044 0 0 0 0 .026 26.787 25.664 0 0 1-1.003 2.41 3.008 2.882 0 0 1-.92.798 2.838 2.719 0 0 0 .57-1.278 14.015 13.427 0 0 0 1.206-2.851v-.053a.069.066 0 0 0-.032 0h-.055c-.028 0 0 0 0 .027a13.697 13.123 0 0 1-1.017 2.538 7.948 7.614 0 0 0 .042-1.097 11.82 11.325 0 0 0 .919-2.675v-.053a.046.044 0 0 0-.027 0 .05.048 0 0 0-.042 0s-.032.026-.032.04a12.92 12.378 0 0 1-.814 2.428v-.961a27.813 26.646 0 0 0 .814-3.291v-.054h-.027a.05.048 0 0 0-.021-.004zm-54.664.608c.597.048 1.284.99 1.502 1.578a26.636 25.518 0 0 0 1.959 4.314s.46 1.833-.088 1.08a18.61 17.829 0 0 0-2.672-5.346.083.08 0 0 0-.046-.026.05.048 0 0 0-.041 0c-.028.013-.028.04-.028.04a.06.057 0 0 0 0 .043 20.399 19.543 0 0 1 2.332 4.301 6.821 6.535 0 0 0-1.679-1.798l-.115-.097a.05.048 0 0 0-.041 0l-.042.027a.041.04 0 0 0 0 .04.05.05 0 0 1 .032.044l.116.092a6.136 5.878 0 0 1 2.028 2.644c.488 1.441-.198 2.701-1.228 2.67-1.315 0-1.877-1.238-1.877-1.762-.027-.82.764-.917.82-1.56.054-.644-1.16-1.441-1.463-1.648-.442-.295-.686-.881.344-1.322a.603.577 0 0 0 .23-.18.649.621 0 0 0 .116-.261.731.7 0 0 0 0-.286.658.63 0 0 0-.148-.247c-.989-1.084-.989-1.52-.53-2.084a.6.6 0 0 1 .4-.253.6.6 0 0 1 .119-.003m-1.508 5.02c.39-.014.93.09 1.28.365a4.218 4.04 0 0 1-.786 1.044c-.548-.392-1.104-1.062-.962-1.273.054-.08.234-.129.468-.137m1.707.47a.083.08 0 0 1 .001 0 .083.08 0 0 1 .027.005.078.075 0 0 1 .06.03c.028.014.028.04.028.054v.053l.014.013a.152.145 0 0 1-.157.154.147.141 0 0 1-.115-.044.166.159 0 0 1-.046-.11.161.154 0 0 1 .046-.106.147.141 0 0 1 .115-.044.083.08 0 0 1 .027-.004m-.478.569a.175.167 0 0 1 .005 0 .161.154 0 0 1 .115.04.166.159 0 0 1 0 .22.161.154 0 0 1-.115.04.083.08 0 0 1-.069-.014.092.088 0 0 1-.06-.026c-.028-.013-.027-.044-.027-.057v-.053a.17.163 0 0 1 .041-.11.175.167 0 0 1 .11-.04m.594 0a.285.273 0 0 1 .115.04.143.137 0 1 1-.115-.04m53.492.286a4.783 4.583 0 0 1-1.274 2.384c-.584.507-1.628-.039-.672-1.04.502-.52 1.26-.533 1.946-1.344m-54.56.234a.161.154 0 0 1 .019 0 .313.3 0 0 1 .115.026.175.167 0 0 1 .041.11.161.154 0 0 1-.041.11.175.167 0 0 1-.115.04.161.154 0 0 1-.115-.026.166.159 0 0 1-.046-.11.18.172 0 0 1 .046-.11.161.154 0 0 1 .096-.04m.506 0a.161.154 0 0 1 .02 0 .313.3 0 0 1 .114.04.175.167 0 0 1 .041.11.161.154 0 0 1-.041.11.175.167 0 0 1-.115.04.161.154 0 0 1-.115-.04.166.159 0 0 1-.046-.11.18.172 0 0 1 .046-.11.161.154 0 0 1 .096-.04m4.789 1.04c.469.687.97 1.344 1.499 1.987-.11.538-.57 1.389-1.03 1.168-.557-.26-.3-.85-.17-1.084.128-.234.1-.507-.515-.947a.796.762 0 0 1-.217-.287.64.613 0 0 1-.028-.343.773.74 0 0 1 .157-.3.736.705 0 0 1 .304-.194m44.095.947c-.028.564.032 1.195-.028 1.715-.299.326-.713.766-1.086 1.207a.69.661 0 0 1-.16-.22.598.573 0 0 1-.056-.26c.184-.194.387-.41.59-.657v-.084l-.047.014h-.082a6 6 0 0 1-.46.546c.04-.793.956-1.917 1.329-2.26m4.47.3c-.703 1.265-1.375 1.869-1.917 1.908a.704.674 0 0 1-.415-.057.658.63 0 0 1-.27-.287.63.604 0 0 1-.047-.383.685.657 0 0 1 .202-.344c.428-.467 1.886-.22 2.447-.837m-49.736.775c.504-.037.791.388 1.102 1.05.377.766 1.09.383 1.38.096a1.504 1.44 0 0 1 1.044-.207 12.538 12.012 0 0 0 1.03 1.036 3.721 3.565 0 0 1 .115.942.998.956 0 0 0-.203 0 1.762 1.688 0 0 0-.827.248 1.32 1.265 0 0 0-.603.643 1.297 1.243 0 0 0-.042.881 15 15 0 0 1-.745-.696 11.223 10.752 0 0 1 .06-2.204v-.026a.046.044 0 0 0 0-.026h-.055a.046.044 0 0 0-.027 0v.026a10.96 10.5 0 0 0-.074 2.071 21.526 20.622 0 0 1-2.346-2.961c-.013-.03-.041-.031-.041-.031a.046.044 0 0 0-.046 0c-.028.013-.028.04-.028.04a.05.048 0 0 0 0 .04 19.603 18.78 0 0 0 2.392 3.018 6.605 6.328 0 0 1-2.061-.154.055.053 0 0 0-.046 0c-.027.017-.027.044-.027.044a.05.048 0 0 0 0 .04c.013.026.041.026.041.026a8.403 8.05 0 0 0 1.591.181 3.74 3.582 0 0 0 .599-.044c.317.335.63.621.947.881a1.679 1.608 0 0 0 .46.55c.474.371.501.534.501.534s-.014.057-.128.136a1.27 1.216 0 0 0-.617.837.86.824 0 0 0 .046.261 2 1.917 0 0 1-1.26.343c-1.214-.092-1.702-.55-1.702-.974s1.003-.33 1.044-1.013c.028-.538-.658-.617-1.233-.617-1.458 0-1.614-.493-1.614-.837 0-.467.414-.507 1.044-.85.773-.406.203-.904-.257-1.287-.46-.384-.902-1.305 0-1.798.225-.124.418-.187.586-.2m46.517.38h.046v.04a12.621 12.091 0 0 1-1.38 1.59c-.225.423-.428.793-.63 1.11a42 42 0 0 0 1.918-1.85h.032v.026a28 28 0 0 1-2.148 2.045 4.443 4.257 0 0 1-.584.727c-.616.595-1.463.053-.86-.727.529-.674 1.803-1.27 2.277-1.389a13.384 12.823 0 0 0 1.329-1.572m-1.274.51a1.573 1.507 0 0 1-.3.74.676.648 0 0 1-.261.235.62.595 0 0 1-.36.066c.29-.357.635-.74.92-1.04m3.914.155c-1.284 1.82-1.61 2.036-2.3 2.203a.736.705 0 0 1-.515-.026.754.723 0 0 1-.354-.357 17.05 16.335 0 0 1-1.302 1.286c-.989 1.098-1.518 1.454-1.978 1.565-.671.132-1.246-.225-.326-.881.58-.401 1.614-.384 2.42-.922a16.715 16.013 0 0 0 1.158-1.163.87.833 0 0 1 .092-.405 1.058 1.013 0 0 1 .272-.34c.671-.66 2.345-.7 2.833-.96m-5.446.525c-1.702 1.934-1.09 2.506-1.531 3.084-.442.577-.842.811-1.058.63-.216-.176.04-.89.63-1.63a20.51 19.649 0 0 1 1.96-2.084m-38.534 1.38a.695.665 0 0 1 .12.007.777.745 0 0 1 .372.15 1.348 1.291 0 0 1 .4.604 1.27 1.216 0 0 1 0 .71c-.028 0-.097-.08-.156-.234a2.051 1.965 0 0 0-1.003-1.177.695.665 0 0 1 .267-.06m-.743.193c.616 0 1.032.589 1.235 1.061.258.63.561.573.91.327.571-.33.815.37.971 1.11s.63.617.989.547a1.113 1.066 0 0 1 1.38.727 1.72 1.648 0 0 0-.226.493 1.49 1.428 0 0 0 0 .547 1.145 1.097 0 0 0 .277.493 1.214 1.163 0 0 0 .46.317c.114.053.23.11.33.15.8.357.856.489.8.643s-.142.194-.514.194a2.107 2.018 0 0 0-.414.04c-.53-.639-1.417-1.322-2.134-1.322h-.07v-.974a.06.057 0 0 0 0-.044.064.062 0 0 0-.046 0 .05.048 0 0 0-.04 0 .06.057 0 0 0 0 .044v.987a.92.881 0 0 0-.332.137 1.38 1.322 0 0 0-.46.44 15.178 14.541 0 0 0-.92-1.762 6.936 6.645 0 0 1 .272-2.177v-.044c0-.013-.028-.04-.028-.04h-.046c-.014 0-.042.027-.042.027a6.44 6.17 0 0 0-.285 2.044 27.864 26.695 0 0 0-2.3-2.974h-.073a.05.048 0 0 0-.032 0v.053a.046.044 0 0 0 0 .026 30.416 29.14 0 0 1 2.263 2.961 5.699 5.46 0 0 0-.962-.207c-.326-.053-.699-.123-1.058-.202h-.055v.053c0 .03-.027.03 0 .03h.028c.359.084.732.15 1.058.208a4.291 4.111 0 0 1 1.103.273 14.718 14.1 0 0 1 1.013 1.877 2.534 2.428 0 0 0-.143.533h-.027a6.099 5.843 0 0 1-1.546-.533h-.06a.046.044 0 0 0-.028 0v.053a.069.066 0 0 0 0 .03h.028a5.864 5.618 0 0 0 1.606.547.547.524 0 0 1-.23.3.85.815 0 0 1-.429.11 1.062 1.018 0 0 1-.588-.176.865.828 0 0 0-.46-.124.787.754 0 0 0-.303.053.966.925 0 0 0-.24.167 1.007.965 0 0 0-.216.37 1.021.978 0 0 0-.041.41v.124a4.213 4.036 0 0 1-.975-.727c-.741-.652.46-.947.92-1.534.257-.339-.148-.713-.76-1.22-.611-.507-.441-.864.06-1.234.502-.37.327-.59-.303-1.07a1.191 1.141 0 0 1 0-1.918c.25-.158.477-.223.683-.224m43.822.211c-1.343 1.424-1.914 1.846-2.604 1.987a1.38 1.322 0 0 1-.414 0 15.04 14.41 0 0 0 1.246-.947.05.05 0 0 0 .028-.04.06.057 0 0 0 0-.044.069.066 0 0 0-.046-.026.05.048 0 0 0-.041 0 16.65 15.952 0 0 1-1.33 1 .506.485 0 0 1-.284-.163.644.617 0 0 1-.162-.273 11.039 10.576 0 0 0 1.348-1.181 17.124 16.405 0 0 1 2.259-.313m-6.992.273c-.727 1.287-.501 1.177-.57 1.935-.074.753-1.03 1.546-1.044.229 0-.97 1.301-1.943 1.614-2.164m4.535.07a11.13 10.664 0 0 1-1.159.988 1.486 1.423 0 0 1 .202-.44 1.265 1.212 0 0 1 .373-.332 2.323 2.225 0 0 1 .584-.215m-6.177 1.094c-.662 1.207-.202 1.863-.86 2.48-.672.617-1.104.155-.672-.78a5.202 4.984 0 0 1 1.532-1.7m7.162.713a5.81 5.565 0 0 1-2.76 1.688 1.154 1.106 0 0 1-.432.04.823.789 0 0 1-.4-.137 6.803 6.517 0 0 0 1.315-.881c.032-.014.032-.04.032-.04a.055.053 0 0 0 0-.044c-.019-.026-.046-.026-.046-.026a.05.048 0 0 0-.041 0 7.654 7.332 0 0 1-1.316.88.557.533 0 0 1-.074-.26 8.38 8.029 0 0 0 1.38-.902c.084-.044.17-.084.258-.137a7.102 6.804 0 0 0 2.084-.18m-2.53.172c-1.371 1.049-2.176 1.296-2.962 1.322-.787.027-1.177-.396-.258-.916.82-.441 2.263-.044 3.22-.406m-6.338.309c-.515.987.06 1.604-.773 2.41-.828.81-1.173-.04-.713-.846a7.98 7.645 0 0 1 1.486-1.564m-27.179.67s1.504.74 1.748 1.11.217.22.874.207c.658-.013 1.44.317 1.514.96.073.644.23.71 1.26.345 1.306-.468 1.49 1.079 1.38 1.682a2.047 1.96 0 0 1-.41.802c-.189.353-.4.825-.589 1.235a.92.881 0 0 1-.114.22 5.441 5.213 0 0 0-.226-.74 7.654 7.332 0 0 0-.101-.882 11.37 10.893 0 0 1-.142-1.357v-.026h-.056v.026a9.25 8.861 0 0 0 .143 1.37c.027.195.069.384.069.534a5.487 5.257 0 0 0-1.987-2.067 4.025 3.856 0 0 0-.331-1.617h-.083v.079a4.14 3.966 0 0 1 .313 1.48l-.258-.162c-.92-.63-1.84-1.22-2.3-2.345 0-.04-.027-.04-.027-.04h-.056c-.046 0-.045.027-.045.027v.053c.506 1.168 1.425 1.798 2.345 2.402l.175.123a7.773 7.447 0 0 1-1.605.123.05.048 0 0 0-.041 0c-.028.014-.028.04-.028.04v.026a.046.044 0 0 0 0 .027h.028a1.642 1.573 0 0 0 .257 0 8.817 8.447 0 0 0 1.517-.168 5.381 5.156 0 0 1 2.089 2.265 2.424 2.322 0 0 0-1.674-.044.069.066 0 0 0-.028.044c0 .027-.014.027 0 .053s.042.027.042.027h.046c.414-.177.9-.15 1.687.083a5.818 5.574 0 0 1 .226.807 1.481 1.419 0 0 1-.92.59c-.8.115-1.946.22-2.447-.326-1.058-1.167 1.003-1.084.92-2.084-.06-.63-1.205-.564-2.033-.273a1.021.978 0 0 1-1.38-1.005c.217-.573 1.118.044 1.334-.723.17-.63-.506-.647-1.348-1.03-.841-.384-.556-1.177-.197-1.618a.87.833 0 0 1 .46-.233m25.923.03c-1.159 1.3-.547 2.151-1.504 2.975-.956.833-1.357.053-.943-.74a6.84 6.552 0 0 1 2.447-2.234m3.074.494c.664-.017 1.47.279 2.533.176-1.624.903-2.314 1.027-3.004 1.027s-.887-.476-.358-.917c.254-.205.527-.278.829-.286m5.955.233c-1.214.89-2.014 1.507-3.716 1.71a1.168 1.12 0 0 1-.419 0l.602-.34c.028-.017.028-.043.028-.043a.05.048 0 0 0 0-.04c-.014-.026-.041-.026-.041-.026a.028.026 0 0 0-.042 0c-.244.15-.487.273-.704.396a.731.7 0 0 1-.46-.356 11.572 11.087 0 0 0 2.176-1.04 6.61 6.332 0 0 0 2.576-.26m-11.09.137c-.832 1.348-.9 2.463-1.572 3.111-.676.666-1.79.176-1.063-.987.616-.987 2.175-1.838 2.635-2.124m7.58.066a6.632 6.354 0 0 1 .718.04 11.83 11.334 0 0 1-2.005.934.685.657 0 0 1 0-.357 10.192 9.765 0 0 0 1.288-.617m-38.782.234a.28.269 0 0 1 .147.07.175.167 0 0 1 .041.11.193.185 0 0 1-.027.084.152.145 0 0 1-.074.053.189.18 0 0 1-.101 0 .129.123 0 0 1-.083-.044c-.014-.027-.046-.053-.046-.08a.166.159 0 0 1 0-.096.152.145 0 0 1 .055-.07.193.185 0 0 1 .088-.027m-.784.004q.147-.003.282.009a3.28 3.142 0 0 1 0 1.344c-.814-.014-1.775-.37-1.775-.753 0-.336.81-.584 1.493-.6m1.212.388a.235.225 0 0 1 .142.07.156.15 0 0 1 .042.106.193.185 0 0 1-.028.084.175.167 0 0 1-.07.057.267.256 0 0 1-.1 0 .12.115 0 0 1-.088-.044c-.013-.027-.041-.053-.041-.08a.216.207 0 0 1 0-.097.152.145 0 0 1 .055-.07.24.23 0 0 1 .088-.026m33.974.303c.718.006 1.778.3 2.637.208-1.306.74-2.019 1.071-2.99.811-.643-.167-.588-.675-.23-.904.143-.087.344-.117.583-.115m-34.451.018a.198.19 0 0 1 .002 0 .17.163 0 0 1 .143.066.152.145 0 0 1 .046.11.17.163 0 0 1-.032.085.138.132 0 0 1-.069.052.258.247 0 0 1-.1 0 .138.132 0 0 1-.089-.04c-.014-.026-.04-.052-.04-.083a.202.194 0 0 1 0-.093.12.115 0 0 1 .06-.07.198.19 0 0 1 .079-.027m28.819.027c-1.03 1.657-.428 2.057-1.776 3.305-1.214 1.123-1.458-.181-1.086-.74a9.24 8.853 0 0 1 2.862-2.565m-27.956.04a.166.159 0 0 1 .142.07.161.154 0 0 1 .042.11.198.19 0 0 1-.028.08.124.119 0 0 1-.069.057.267.256 0 0 1-.1 0 .129.123 0 0 1-.088-.04c-.014-.03-.042-.057-.042-.083a.225.216 0 0 1 0-.098.138.132 0 0 1 .055-.066.184.176 0 0 1 .088-.03m4.376.113c.587.018 1.441.62 1.916 1.186a1.614 1.547 0 0 0-.184.234 1.527 1.463 0 0 0 0 .48 1.237 1.185 0 0 0 .216.441 1.113 1.066 0 0 0 .4.357 10.533 10.09 0 0 0-1.09-.11c-.386-.203-1.56-.93-1.56-.93a.05.048 0 0 0-.04 0c-.014 0-.047.026-.047.026a.05.048 0 0 0 0 .04.069.066 0 0 0 .033.044s.892.533 1.38.82a6.927 6.636 0 0 0-2.204.44l-.082.027a2.01 1.926 0 0 1-.86-.344 7.01 6.716 0 0 0-.644-.312h-.042a.032.03 0 0 0-.032.026v.053c.212.092.428.202.625.312a3.712 3.556 0 0 0 .663.318 5.271 5.05 0 0 1-2.405.286.05.048 0 0 0-.042 0c-.032.013-.032.04-.032.04a.046.044 0 0 0 0 .044c.013.026.041.026.041.026.198.027.386.027.584.027a6.26 5.997 0 0 0 2.107-.397 6.241 5.98 0 0 1-.961 1.273v.058a.046.044 0 0 0 0 .027h.059a.046.044 0 0 0 .028 0 6.32 6.055 0 0 0 1.044-1.424 6.55 6.275 0 0 1 2.13-.44 6.927 6.636 0 0 0-1.187 1.167v.053a.046.044 0 0 0 0 .026.05.048 0 0 0 .046 0h.055a6.15 5.892 0 0 1 1.302-1.229 7.309 7.002 0 0 1 1.274.15h.041a.819.784 0 0 1 .06.313c-.129.52.359.687.359.96 0 .41-.662.644-1.417.767a2.157 2.067 0 0 0-1.338.63 1.633 1.564 0 0 0-1.017-.603c-.672.04-.754 1-1.674 1.027-.428.013-.441-.415-.671-.988s-.888-.053-1.574-.097c-.285-.013-1.113-.26-.956-1.053.156-.793 1.127-.859 1.715-.916s.46-.058.46-.701a.626.6 0 0 1 .06-.318.575.55 0 0 1 .212-.246.616.59 0 0 1 .317-.093.662.635 0 0 1 .327.08 1.233 1.18 0 0 0 .63.207 1.127 1.08 0 0 0 .644-.15c.56-.29.128-.96.975-1.525.099-.066.22-.093.356-.089m-4.83.177a.17.163 0 0 1 .137.067.152.145 0 0 1 .046.11.24.23 0 0 1-.028.084.175.167 0 0 1-.073.052.258.247 0 0 1-.102 0 .12.115 0 0 1-.082-.04c-.019-.026-.047-.057-.047-.083a.235.225 0 0 1 0-.097.147.141 0 0 1 .06-.066.198.19 0 0 1 .083-.026.17.163 0 0 1 .007 0m26.505.234c-1.43 1.921-1.697 3.507-2.387 4.124s-1.518.15-1.058-.797c.686-1.41 2.475-2.78 3.445-3.327m-26.984.027a.216.207 0 0 1 .004 0 .28.269 0 0 1 .142.066.17.163 0 0 1 .042.11.24.23 0 0 1-.028.083.133.128 0 0 1-.074.053.235.225 0 0 1-.096 0 .12.115 0 0 1-.088-.04c-.013-.026-.04-.053-.04-.083a.202.194 0 0 1 0-.093.133.128 0 0 1 .054-.07.216.207 0 0 1 .084-.026m36.583.096a5.653 5.416 0 0 1 .976.08c-.36.18-.732.343-1.105.493l-.27.088a1.89 1.811 0 0 1-.787 0 1.568 1.503 0 0 1 .129-.22 6.471 6.2 0 0 0 1.057-.44m1.173.106a6.246 5.984 0 0 0 2.42.137c-1.79 1.057-2.801 1.498-3.832 1.498a.947.908 0 0 1-.92-.414 16.31 15.625 0 0 0 1.706-.904c.198-.097.415-.194.626-.317m-20.847.184a.8.8 0 0 1 .605.288c.685.815-.13 1.678 1.044 1.762s1.56-.242 2.249.441-1.232 1.344-.23 1.81c1.114.52 1.145 1.508.685 2.055a1.688 1.617 0 0 1-.326.26 1.104 1.058 0 0 1-.53.057 1.012.97 0 0 1-.487-.181 1.191 1.141 0 0 1-.34-.384c-.345-.656-.543-.493-.874-.26-.331.234-.846.825-1.274.097-.428-.727-.037-1.59-.957-1.493-1.117.123-1.232 1.467-2.547.507a1.145 1.097 0 0 1-.318-.344 1.348 1.291 0 0 1-.143-.44 3.243 3.107 0 0 1 .304-.988q.53-.123.998-.207a1.978 1.895 0 0 1 .92.74h.082v-.083a2.01 1.926 0 0 0-.813-.71c1.058-.18 1.803-.207 2.52.066.842.63.828 1.014.8 1.617a.06.057 0 0 0 0 .044.05.05 0 0 0 .042.027.06.057 0 0 0 .046 0v-.044a1.633 1.564 0 0 0-.46-1.41 9.558 9.157 0 0 1 2.277 2.181c.013.027.04.027.04.027a.05.048 0 0 0 .042 0c.033-.013.033-.044.033-.044a.041.04 0 0 0 0-.04 10.064 9.641 0 0 0-2.3-2.204c.685.11 1.757.207 2.272 0a.05.05 0 0 0 .028-.04v-.057c-.014-.026-.014-.026-.042-.026h-.055c-.603.247-2.134.044-2.69-.11a4.319 4.138 0 0 0-2.374-.11 8.362 8.011 0 0 0 1.945-1.37.069.066 0 0 0 0-.08.064.062 0 0 0-.045 0l-.042.027a8.684 8.32 0 0 1-2.3 1.52c-.276.057-.589.11-.92.18a8.918 8.544 0 0 1 2.36-2.886c.276-.13.54-.203.775-.195m8.277.05c-1.817 1.864-1.513 2.798-2.672 3.934-.764.754-1.96.424-1.39-.727.57-1.15 2.682-2.727 4.062-3.207m7.777.042c1.08-.022 2.373.537 2.88.464a6.775 6.49 0 0 1-3.537.948c-.713-.053-1.16-.577-.313-1.15.275-.182.61-.254.97-.262m-12.056.015c.199.01.352.069.41.176.24.322-.46 1.05-.92 1.322a2.268 2.172 0 0 0-.643-1.168c.362-.234.821-.347 1.153-.33m2.444.123a17.4 16.67 0 0 0-2.13 2.274 1.417 1.357 0 0 0-.174-.247 1.702 1.63 0 0 0-.483-.383 8.376 8.024 0 0 1 2.787-1.644m-3.935.184a.216.207 0 0 1 .013 0 .216.207 0 0 1 .044.006.133.128 0 0 1 .074.057.198.19 0 0 1 .028.08.097.093 0 0 1-.047.096.074.07 0 0 1-.027.053c-.019.031-.046.031-.06.031h-.055a.156.15 0 0 1-.088-.03.138.132 0 0 1-.055-.067.198.19 0 0 1 0-.097.147.141 0 0 1 .046-.084c.028-.013.056-.04.083-.04a.216.207 0 0 1 .045-.005m-.458.464a.244.234 0 0 1 .143.066.18.172 0 0 1 .045.11.225.216 0 0 1-.032.084.138.132 0 0 1-.069.053.258.247 0 0 1-.1 0 .138.132 0 0 1-.088-.04c-.014-.026-.041-.053-.041-.083a.202.194 0 0 1 0-.093.12.115 0 0 1 .06-.07.198.19 0 0 1 .082-.027zm.575.06a.083.08 0 0 1 .006 0 .083.08 0 0 1 .076.046.092.088 0 0 1 .06.027c.028.013.028.04.028.052v.057a.198.19 0 0 1-.028.08.133.128 0 0 1-.073.057.244.234 0 0 1-.102 0 .12.115 0 0 1-.082-.04c-.014-.03-.046-.057-.046-.083a.225.216 0 0 1 0-.097.175.167 0 0 1 .06-.066.202.194 0 0 1 .087-.031.083.08 0 0 1 .013-.003zm15.408.292c.17.097.34.19.543.287a9.916 9.5 0 0 1-1.619.494 3.532 3.384 0 0 1-1.545-.313h.188a6.02 5.768 0 0 0 2.433-.468m-4.662.057c.976.04 2.137.808 3.2.908a7.272 6.967 0 0 1-3.864.477c-1.219-.15-.432-1.203.258-1.353a1.6 1.6 0 0 1 .406-.032m-10.36.032a.28.269 0 0 1 .148.066.17.163 0 0 1 .041.11.24.23 0 0 1-.028.084.152.145 0 0 1-.073.052.244.234 0 0 1-.101 0 .12.115 0 0 1-.083-.039c-.014-.026-.046-.058-.046-.084a.184.176 0 0 1 0-.097.138.132 0 0 1 .055-.066.193.185 0 0 1 .087-.026m-.56.088a.22.212 0 0 1 .142.07.147.141 0 0 1 .046.11.156.15 0 0 1-.033.08.147.141 0 0 1-.068.057.258.247 0 0 1-.102 0 .124.119 0 0 1-.087-.044c-.014-.026-.041-.053-.041-.08a.216.207 0 0 1 0-.096.152.145 0 0 1 .06-.07.198.19 0 0 1 .082-.027zm16.295.194c.575.233 1.389.41 2.939.185-2.507 1.18-3.886 1.577-5.266 1.454a8.739 8.372 0 0 0 2.162-.754c.028-.013.027-.008.027-.04 0-.03.014-.03 0-.057-.014-.026-.041-.026-.041-.026a.028.026 0 0 0-.042 0 8.969 8.593 0 0 1-2.492.81h-.097a.92.881 0 0 1-.386-.123.952.912 0 0 1-.318-.26 12.994 12.448 0 0 0 2.3-.793 11.54 11.056 0 0 0 1.214-.396m-26.645.19a1.582 1.516 0 0 1 .474.07 1.803 1.727 0 0 1 .488.29c.055.053.129.137.23.243-.087.057-.175.11-.272.18a1.237 1.185 0 0 0-.703.807.787.754 0 0 0 .06.357.879.842 0 0 0 .197.304 6.559 6.284 0 0 0-.46.52c-.055.04-1.012.67-1.513 1.084a.069.066 0 0 0 0 .08c.014.03.042.03.042.03a.041.04 0 0 0 .04 0c.332-.277.889-.66 1.22-.881a7.82 7.491 0 0 0-1.145 3.291.05.048 0 0 0 0 .04c.013.027.04.026.04.026a.06.057 0 0 0 .047 0v-.04a7.57 7.253 0 0 1 1.2-3.357 3.528 3.38 0 0 0 .46 1.701.05.05 0 0 0 .041.027.05.048 0 0 0 .042 0c.032-.013.032-.044.032-.044a.05.048 0 0 0 0-.04 3.68 3.525 0 0 1-.46-1.794 3.68 3.525 0 0 1 .46-.493l.06.053a2.107 2.018 0 0 0 1.545.48 3.974 3.807 0 0 0 1.486-.22c.433.34.502.78.203.991-.46.353-1.008-.154-1.38-.467a.543.52 0 0 0-.92.44c.027.605 1.007 1.288.271 1.741s-1.325-.414-1.84-.233-.312.604-.46 1.291a1.076 1.031 0 0 1-1.669.52 1.288 1.234 0 0 1-.29-.357 1.058 1.013 0 0 1-.115-.441 1.04.996 0 0 1 .088-.44.98.939 0 0 1 .27-.37.92.881 0 0 0 .244-.274.787.754 0 0 0 .115-.343.842.806 0 0 0-.04-.358.92.881 0 0 0-.19-.312c-.298-.317-1.389 0-1.329-.85.028-.397.373-.701 1.187-.838a3.68 3.525 0 0 0 1.674-.56.649.621 0 0 0 .217-.207.685.657 0 0 0 .069-.273.543.52 0 0 0-.083-.278.501.48 0 0 0-.217-.19c-.299-.162-.46-.59-.041-.792a1.38 1.322 0 0 0 .414-.084l.115-.026a1.582 1.516 0 0 1 .096-.003zm18.793.79c1.186.037 2.904.815 4.421.827-2.778.837-4.208.85-5.124.603s-.855-1.177.23-1.397q.22-.044.473-.033m4.049.32a2.71 2.595 0 0 0 .542.343 6.954 6.663 0 0 1-2.175-.317h.501a9.305 8.914 0 0 0 1.132-.026m.968.627a1.463 1.401 0 0 1 .563.113 5.69 5.45 0 0 0 1.886.44 11.186 10.717 0 0 1-3.79.534c.501-.137 1.03-.286 1.614-.467l.318-.093v-.004h.069v-.053c0-.013-.028-.04-.028-.04h-.055l-.317.093c-.713.207-1.344.4-1.914.55a3.647 3.494 0 0 1-1.191-.383 17.699 16.956 0 0 0 2.277-.59l.087-.026a1.463 1.401 0 0 1 .481-.074m-7.531.364c1.35.025 3.256 1.027 5.601.82a11.908 11.408 0 0 1-5.547.837c-1.619-.18-1.403-1.551-.317-1.648a2 2 0 0 1 .263-.009m-1.993.163a1.003.96 0 0 0 .47.26c-.612.19-1.316.45-2.089.767a1.283 1.23 0 0 0-.257-.41 24 24 0 0 1 1.876-.617m-18.962.177a.198.19 0 0 1 .003 0 .17.163 0 0 1 .143.07.161.154 0 0 1 .046.11.156.15 0 0 1-.032.084.138.132 0 0 1-.069.052.198.19 0 0 1-.101 0 .147.141 0 0 1-.088-.043c-.014-.027-.041-.053-.041-.08a.216.207 0 0 1 0-.096.133.128 0 0 1 .06-.071.198.19 0 0 1 .079-.026m25.268.026a3.086 2.957 0 0 0 .69.29 9.37 8.976 0 0 1-1.646-.193 6.48 6.209 0 0 0 .956-.097m-24.549.364a.216.207 0 0 1 .013 0 .216.207 0 0 1 .044.006.133.128 0 0 1 .074.057.198.19 0 0 1 .027.08.17.163 0 0 1-.073.136.161.154 0 0 1-.115.044.156.15 0 0 1-.088-.03.138.132 0 0 1-.055-.067.198.19 0 0 1 0-.097.147.141 0 0 1 .046-.083c.027-.013.055-.04.083-.04a.216.207 0 0 1 .044-.006m11.424.065c.18.02.32.154.352.505a2.355 2.256 0 0 0 .295.89l.087.15c-.115.057-.1.057-.216.11a14.769 14.15 0 0 1-1.495-1.18s.58-.517.977-.475m-11.902.025a.17.163 0 0 1 .006 0 .216.207 0 0 1 .087.026.152.145 0 0 1 .056.07.244.234 0 0 1 0 .098.12.115 0 0 1-.042.08c-.027.012-.055.039-.087.039a.202.194 0 0 1-.097 0 .133.128 0 0 1-.073-.053.193.185 0 0 1-.028-.084.184.176 0 0 1 .07-.137.17.163 0 0 1 .108-.039m-.482.123a.175.167 0 0 1 .005 0 .193.185 0 0 1 .087.027.152.145 0 0 1 .056.07.18.172 0 0 1 0 .093.129.123 0 0 1-.046.083c-.028.013-.055.04-.083.04a.216.207 0 0 1-.101 0 .152.145 0 0 1-.073-.053.216.207 0 0 1-.028-.084.212.203 0 0 1 .073-.136.175.167 0 0 1 .11-.04m18.771.256c3.077.973 5.455 1.26 9.029 1.551 0 0-.17.78-.359 1.63-1.77-.233-6.867-1.948-9.254-2.988zm12.736.004a5.082 4.87 0 0 1-.745 1.247 38.02 36.424 0 0 1-5.878-.22 13.578 13.008 0 0 0 1.357-.78 35.977 34.468 0 0 0 5.266-.247m-24.628.096c.167.004.32.151.32.151a2.07 1.983 0 0 0 1.233.59.46.44 0 0 0 .285-.097c.142.877-.203 1.137-.732 1.22-.299.054-.712-.303-.887-.55a2.94 2.816 0 0 0-.327-.603c-.115-.19-.276-.494-.06-.657a.26.26 0 0 1 .168-.054m-6.262.04a.17.163 0 0 1 .143.071.175.167 0 0 1 .041.11.193.185 0 0 1-.028.084.138.132 0 0 1-.068.053.198.19 0 0 1-.102 0 .147.141 0 0 1-.087-.044c-.014-.027-.042-.053-.042-.08a.216.207 0 0 1 0-.096.133.128 0 0 1 .06-.07.198.19 0 0 1 .083-.027m.501.027a.235.225 0 0 1 .143.07.161.154 0 0 1 .041.11.198.19 0 0 1-.027.08.147.141 0 0 1-.07.057.267.256 0 0 1-.1 0 .12.115 0 0 1-.088-.043c-.014-.027-.041-.053-.041-.08a.216.207 0 0 1 0-.097.175.167 0 0 1 .055-.07.24.23 0 0 1 .087-.027m-1.89.097a2.268 2.172 0 0 1 1.416.63c-.11.318-1.127 1.428-1.458 1.168-.257-.207-.344-1.07.042-1.798m12.019.088.27.22c.304.23.59.441.889.657l.202.137-1.734.899.258-.44a1.748 1.674 0 0 0 .16-1.032zm-.57.476a.262.251 0 0 1 .142.066.17.163 0 0 1 .041.11.24.23 0 0 1-.028.084.133.128 0 0 1-.073.053.235.225 0 0 1-.097 0 .12.115 0 0 1-.087-.04c-.014-.026-.042-.057-.042-.084a.235.225 0 0 1 0-.097.138.132 0 0 1 .055-.066.216.207 0 0 1 .088-.026m4.203.013c.032 0 .115.053.244.247-1.614.807-3.17 1.63-4.09 2.203a2.13 2.04 0 0 0-1.043-.313 45 45 0 0 1 3.26-1.7.676.648 0 0 0 .23.167.837.802 0 0 0 .272.053 1.173 1.124 0 0 0 .773-.41 1.38 1.322 0 0 1 .17-.154.299.286 0 0 1 .184-.093m-4.735.008a.216.207 0 0 1 .013 0 .216.207 0 0 1 .044.005.152.145 0 0 1 .074.054.216.207 0 0 1 .027.083l-.018.014a.166.159 0 0 1-.17.163.193.185 0 0 1-.087-.027.133.128 0 0 1-.055-.07.18.172 0 0 1 0-.093.129.123 0 0 1 .045-.084c.028-.013.055-.04.083-.04a.216.207 0 0 1 .044-.005m8.355.314s1.862.771 3.306 1.234a1.38 1.322 0 0 0-1.117.344s-1.84-.794-2.76-1.234a1.164 1.115 0 0 0 .571-.344m-8.914.128a2.63 2.52 0 0 1 .846.74s-.685.714-1.086.467c-.33-.207-.114-.877.24-1.207m1.042.065a.078.075 0 0 1 .075.045.074.07 0 0 1 .056.026c.032.014.032.044.032.057v.054a.17.163 0 0 1-.032.083.138.132 0 0 1-.07.053.258.247 0 0 1-.1 0 .138.132 0 0 1-.088-.04c-.014-.026-.041-.052-.041-.083a.202.194 0 0 1 0-.093.12.115 0 0 1 .06-.07.198.19 0 0 1 .082-.027.078.075 0 0 1 .026-.005zm4.813.142a1.532 1.467 0 0 0 .8.33 23.77 22.773 0 0 0-2.704 1.878 3.344 3.204 0 0 0-1.877-.124 29.069 27.85 0 0 1 3.78-2.084m14.148.013h.718s-1.219.657-1.26.657a5.06 4.847 0 0 1 .542-.657m-12.933.41c1.122.524 2.345 1.031 2.961 1.291a2.203 2.11 0 0 0-1.016.097 2.332 2.234 0 0 0-.86.52 60 60 0 0 0-2.258-1.208 9.277 8.888 0 0 1 1.173-.7m5.168.694c.189-.013.392.008.585.077.768.287-.56.806-1.218.476-.366-.185.067-.516.633-.553m4.09.487a8.458 8.104 0 0 0 1.242.3 7.046 6.75 0 0 1-3.059.577 4.498 4.31 0 0 0 1.817-.877m-16.034.087c.559-.004 1.139.32.511.463-.717.163-1.702-.22-.745-.44q.113-.022.234-.023m10.011.29q.15.005.31.02c.98.083-.142.986-1.84.78-.767-.088.026-.84 1.53-.8m-7.666.243c.764-.023 1.604.223.824.49-1.04.357-2.331 0-1.499-.37.175-.076.42-.113.675-.12" style="fill:#a48c6d;fill-opacity:1;stroke:none;stroke-width:.450194"/><path d="M109.747 42.744a26.631 25.514 0 1 0 24.58 15.748 26.967 25.835 0 0 0-5.768-8.28 26.571 25.456 0 0 0-18.812-7.49z" class="cls-37" style="fill:#a48c6d;fill-opacity:1;stroke-width:.450195"/><ellipse cx="-68.068" cy="109.613" class="cls-38" rx="23.685" ry="24.708" style="fill:#01150b;fill-opacity:1;stroke:none;stroke-width:.450195;stroke-opacity:1" transform="rotate(-90)"/><g style="opacity:1"><path d="M53.608 67.717c0 11.076-9.372 20.054-20.932 20.054-11.561 0-20.933-8.978-20.933-20.054s9.372-20.054 20.933-20.054 20.932 8.979 20.932 20.054" style="color:#000;font-style:normal;font-variant:normal;font-weight:400;font-stretch:normal;font-size:medium;line-height:normal;font-family:sans-serif;font-variant-ligatures:normal;font-variant-position:normal;font-variant-caps:normal;font-variant-numeric:normal;font-variant-alternates:normal;font-variant-east-asian:normal;font-feature-settings:normal;font-variation-settings:normal;text-indent:0;text-align:start;text-decoration:none;text-decoration-line:none;text-decoration-style:solid;text-decoration-color:#000;letter-spacing:normal;word-spacing:normal;text-transform:none;writing-mode:lr-tb;direction:ltr;text-orientation:mixed;dominant-baseline:auto;baseline-shift:baseline;text-anchor:start;white-space:normal;shape-padding:0;shape-margin:0;inline-size:0;clip-rule:nonzero;display:inline;overflow:visible;visibility:visible;isolation:auto;mix-blend-mode:normal;color-interpolation:sRGB;color-interpolation-filters:linearRGB;solid-color:#000;solid-opacity:1;vector-effect:none;fill:#01150b;fill-opacity:1;fill-rule:nonzero;stroke:none;stroke-width:.450195;stroke-linecap:butt;stroke-linejoin:miter;stroke-miterlimit:4;stroke-dasharray:none;stroke-dashoffset:0;stroke-opacity:1;color-rendering:auto;image-rendering:auto;shape-rendering:auto;text-rendering:auto;stop-color:#000;stop-opacity:1" transform="translate(77.076 .549)"/><path d="M32.676 47.438c-11.677 0-21.158 9.076-21.158 20.279s9.48 20.28 21.158 20.28c11.677 0 21.156-9.078 21.156-20.28s-9.48-20.28-21.156-20.28m0 .45c11.444 0 20.707 8.88 20.707 19.829s-9.263 19.83-20.707 19.83-20.707-8.882-20.707-19.83c0-10.949 9.263-19.828 20.707-19.828" style="color:#000;font-style:normal;font-variant:normal;font-weight:400;font-stretch:normal;font-size:medium;line-height:normal;font-family:sans-serif;font-variant-ligatures:normal;font-variant-position:normal;font-variant-caps:normal;font-variant-numeric:normal;font-variant-alternates:normal;font-variant-east-asian:normal;font-feature-settings:normal;font-variation-settings:normal;text-indent:0;text-align:start;text-decoration:none;text-decoration-line:none;text-decoration-style:solid;text-decoration-color:#000;letter-spacing:normal;word-spacing:normal;text-transform:none;writing-mode:lr-tb;direction:ltr;text-orientation:mixed;dominant-baseline:auto;baseline-shift:baseline;text-anchor:start;white-space:normal;shape-padding:0;shape-margin:0;inline-size:0;clip-rule:nonzero;display:inline;overflow:visible;visibility:visible;isolation:auto;mix-blend-mode:normal;color-interpolation:sRGB;color-interpolation-filters:linearRGB;solid-color:#000;solid-opacity:1;vector-effect:none;fill:#a48c6d;fill-opacity:1;fill-rule:nonzero;stroke:none;stroke-width:.450195;stroke-linecap:butt;stroke-linejoin:miter;stroke-miterlimit:4;stroke-dasharray:none;stroke-dashoffset:0;stroke-opacity:1;color-rendering:auto;image-rendering:auto;shape-rendering:auto;text-rendering:auto;stop-color:#000;stop-opacity:1" transform="translate(77.076 .549)"/></g><g style="opacity:1"><path d="M49.813 67.704c0 9.068-7.673 16.419-17.137 16.419s-17.138-7.351-17.138-16.42c0-9.067 7.673-16.418 17.138-16.418 9.464 0 17.137 7.351 17.137 16.419" style="color:#000;font-style:normal;font-variant:normal;font-weight:400;font-stretch:normal;font-size:medium;line-height:normal;font-family:sans-serif;font-variant-ligatures:normal;font-variant-position:normal;font-variant-caps:normal;font-variant-numeric:normal;font-variant-alternates:normal;font-variant-east-asian:normal;font-feature-settings:normal;font-variation-settings:normal;text-indent:0;text-align:start;text-decoration:none;text-decoration-line:none;text-decoration-style:solid;text-decoration-color:#000;letter-spacing:normal;word-spacing:normal;text-transform:none;writing-mode:lr-tb;direction:ltr;text-orientation:mixed;dominant-baseline:auto;baseline-shift:baseline;text-anchor:start;white-space:normal;shape-padding:0;shape-margin:0;inline-size:0;clip-rule:nonzero;display:inline;overflow:visible;visibility:visible;isolation:auto;mix-blend-mode:normal;color-interpolation:sRGB;color-interpolation-filters:linearRGB;solid-color:#000;solid-opacity:1;vector-effect:none;fill:#01150b;fill-opacity:1;fill-rule:nonzero;stroke:none;stroke-width:.450195;stroke-linecap:butt;stroke-linejoin:miter;stroke-miterlimit:4;stroke-dasharray:none;stroke-dashoffset:0;stroke-opacity:1;color-rendering:auto;image-rendering:auto;shape-rendering:auto;text-rendering:auto;stop-color:#000;stop-opacity:1" transform="translate(77.076 .549)"/><path d="M32.676 51.06c-9.582 0-17.364 7.448-17.364 16.643s7.782 16.645 17.364 16.645c9.581 0 17.363-7.45 17.363-16.645s-7.782-16.642-17.363-16.642m0 .45c9.348 0 16.912 7.252 16.912 16.193 0 8.94-7.564 16.195-16.912 16.195-9.349 0-16.912-7.254-16.912-16.195 0-8.94 7.563-16.193 16.912-16.193" style="color:#000;font-style:normal;font-variant:normal;font-weight:400;font-stretch:normal;font-size:medium;line-height:normal;font-family:sans-serif;font-variant-ligatures:normal;font-variant-position:normal;font-variant-caps:normal;font-variant-numeric:normal;font-variant-alternates:normal;font-variant-east-asian:normal;font-feature-settings:normal;font-variation-settings:normal;text-indent:0;text-align:start;text-decoration:none;text-decoration-line:none;text-decoration-style:solid;text-decoration-color:#000;letter-spacing:normal;word-spacing:normal;text-transform:none;writing-mode:lr-tb;direction:ltr;text-orientation:mixed;dominant-baseline:auto;baseline-shift:baseline;text-anchor:start;white-space:normal;shape-padding:0;shape-margin:0;inline-size:0;clip-rule:nonzero;display:inline;overflow:visible;visibility:visible;isolation:auto;mix-blend-mode:normal;color-interpolation:sRGB;color-interpolation-filters:linearRGB;solid-color:#000;solid-opacity:1;vector-effect:none;fill:#a48c6d;fill-opacity:1;fill-rule:nonzero;stroke:none;stroke-width:.450195;stroke-linecap:butt;stroke-linejoin:miter;stroke-miterlimit:4;stroke-dasharray:none;stroke-dashoffset:0;stroke-opacity:1;color-rendering:auto;image-rendering:auto;shape-rendering:auto;text-rendering:auto;stop-color:#000;stop-opacity:1" transform="translate(77.076 .549)"/></g><path d="M178.77 168.19a2.12 2.12 0 1 0-2.12-2.12 2.11 2.11 0 0 0 2.12 2.12M152.76 141.22a2.3 2.3 0 0 0 1-.78 2 2 0 0 0 .37-1.18 2 2 0 0 0-.37-1.18 2.2 2.2 0 0 0-1-.78 2 2 0 0 0-1.21-.12 2.17 2.17 0 0 0-1.68 1.68 2.1 2.1 0 0 0 .12 1.21 2.12 2.12 0 0 0 1.15 1.15 2.07 2.07 0 0 0 1.62 0M114.84 141.22a2.2 2.2 0 0 0 1-.78 2 2 0 0 0 .37-1.18 2 2 0 0 0-.37-1.18 2.2 2.2 0 0 0-1-.78 2 2 0 0 0-1.21-.12 2.2 2.2 0 0 0-1.09.59 2.17 2.17 0 0 0-.59 1.09 2 2 0 0 0 .13 1.21 2.11 2.11 0 0 0 2.76 1.15M87.22 168.19a2.12 2.12 0 1 0-2.11-2.12 2.08 2.08 0 0 0 2.11 2.12M87.22 206.14a2.12 2.12 0 1 0-2.11-2.14 2.1 2.1 0 0 0 2.11 2.14M113.23 228.88a2.27 2.27 0 0 0-1 .77 2.23 2.23 0 0 0-.37 1.19 2 2 0 0 0 .37 1.18 2.2 2.2 0 0 0 1 .78 2.1 2.1 0 0 0 1.21.12 2.17 2.17 0 0 0 1.68-1.68 2.11 2.11 0 0 0-1.28-2.36 2 2 0 0 0-1.61 0M151.14 228.88a2.3 2.3 0 0 0-1 .77 2.23 2.23 0 0 0-.37 1.19 2 2 0 0 0 .37 1.18 2.2 2.2 0 0 0 1 .78 2.1 2.1 0 0 0 1.22.12 2.25 2.25 0 0 0 1.09-.59 2.3 2.3 0 0 0 .59-1.09 2 2 0 0 0-.13-1.21 1.75 1.75 0 0 0-.46-.69 2.8 2.8 0 0 0-.69-.46 2.2 2.2 0 0 0-.81-.16 1.7 1.7 0 0 0-.81.16M178.77 206.14a2.12 2.12 0 1 0-2.12-2.12 2.14 2.14 0 0 0 2.12 2.12" class="cls-37" style="fill:#a48c6d;fill-opacity:1" transform="matrix(.45995 0 0 .44065 48.574 -13.276)"/><path d="m159.85 196.03 26.82-11.29-26.94-10.98 10.98-26.94-26.78 11.29-11.29-26.81-10.98 26.94-26.94-10.98 11.29 26.81-26.81 11.26 26.94 10.98-10.98 26.94 26.81-11.29 11.26 26.81 10.98-26.94 26.94 10.98z" class="cls-37" style="fill:#a48c6d;fill-opacity:1" transform="matrix(.45995 0 0 .44065 48.574 -13.276)"/><path d="m133.2 233.64 9.92-24.36 24.35 9.92-10.2-24.23 24.23-10.2-24.32-9.92 9.92-24.36-24.23 10.2-10.2-24.26-9.92 24.36-24.36-9.93 10.2 24.23-24.23 10.21 24.36 9.92-9.96 24.36 24.27-10.21z" class="cls-41" style="fill:#01150b;fill-opacity:1;fill-rule:evenodd" transform="matrix(.45995 0 0 .44065 48.574 -13.276)"/><path d="M110.11 57.915a15.307 14.665 0 0 0-1.016 4.922c0 4.306 1.872 5.429 1.872 9.787 0 .714-.184 2.195-.97 2.23-1.288 0 .036-2.86.036-4.984s-1.895-4.962-1.38-9.5c-4.489 5.181-1.499 11.492-1.228 12.078s.63 1.123.272 1.397c-.36.273-.76 0-.99-.52-1.076-2.455-1.347-5.156-.92-8.514-2.23 3.221-2.3 6.372-.786 8.99-.225-.794-.584-2.288-.156-3.345.386 5.169 2.86 6.337 3.606 6.337.745 0 1.072-.538 1.444-.538.373 0 .331.44 1.044.44 1.132 0 2.631-2.123 2.631-5.811 0-5.826-3.845-8.593-3.459-12.969m1.596 2.415c0 3.371 2.406 5.495 2.406 10.02-.008 4.195-1.541 5.425-1.541 5.425a8.9 8.527 0 0 0 3.615-6.729c0-3.644-3.836-6.61-4.48-8.716" style="fill:#a48c6d;fill-opacity:1;stroke-width:.450194"/></g><g aria-label="AZƏRBAYCAN RESPUBLİKASI REPUBLIC OF AZERBAIJAN" style="font-style:normal;font-variant:normal;font-weight:400;font-stretch:normal;font-size:6.02488px;line-height:1.04;font-family:BywayEMod;-inkscape-font-specification:BywayEMod;text-align:center;text-anchor:middle;fill:#a48c6d;fill-opacity:1;stroke:none;stroke-width:.150621"><path d="M68.118 21.902h.835l1.665 4.327h-.856l-.338-.891h-1.765l-.353.891h-.856Zm.423 1.147-.576 1.486h1.15zM71.03 21.902h2.619l-1.545 3.536h1.445v.791h-2.645l1.538-3.512H71.03zM78.326 24.04q0 1.036-.538 1.642-.562.638-1.586.638-1.038 0-1.556-.617-.33-.395-.444-.81-.121-.44-.121-1.359h3.08q-.13-.68-.58-.87-.229-.097-.526-.097-.391 0-.774.203-.17.09-.465.335h-.114v-1q.709-.347 1.5-.347 1.024 0 1.589.638.535.606.535 1.644m-1.144.386h-1.954q.018.123.06.268.155.544.535.717.179.083.382.083.441 0 .7-.344.227-.303.277-.724M79.176 21.902h.874q.718 0 1.02.13.307.126.492.423t.185.703q0 .426-.206.715-.203.285-.614.432l1.023 1.924h-.9l-.974-1.833H80v1.833h-.824zM80 23.593h.259q.394 0 .541-.103.15-.103.15-.34 0-.142-.073-.245-.074-.106-.197-.15-.124-.047-.454-.047H80zM82.615 26.23v-4.328h.68q.591 0 .865.076.388.103.617.383.23.28.23.659 0 .247-.106.45-.103.2-.338.376.394.186.576.465.183.277.183.656 0 .365-.189.665-.188.3-.485.45-.297.147-.82.147zm.824-3.543v.912h.18q.3 0 .444-.126.147-.127.147-.344 0-.203-.139-.321-.138-.12-.42-.12zm0 1.648v1.109h.206q.512 0 .688-.13.18-.13.18-.376 0-.28-.21-.442-.208-.161-.693-.161zM87.428 21.902h.836l1.665 4.327h-.856l-.339-.891H86.97l-.353.891h-.856zm.424 1.147-.577 1.486h1.15zM90.261 21.902h.886l.806 1.553.8-1.553h.874l-1.265 2.453v1.874h-.83v-1.874zM98.29 22.664l-.577.55q-.589-.62-1.324-.62-.62 0-1.047.423-.424.423-.424 1.044 0 .433.188.768.189.335.533.526.344.192.765.192.359 0 .656-.133.297-.135.653-.488l.559.582q-.48.468-.906.65-.427.18-.974.18-1.01 0-1.653-.638-.642-.642-.642-1.642 0-.647.291-1.15.295-.503.839-.81.547-.305 1.177-.305.535 0 1.03.226.496.227.855.645M100.325 21.902h.836l1.665 4.327h-.856l-.339-.891h-1.765l-.353.891h-.856zm.424 1.147-.577 1.486h1.15zM103.47 21.902h.788l1.857 2.847v-2.847h.823v4.327h-.791l-1.853-2.839v2.84h-.824zM109.665 21.902h.874q.718 0 1.021.13.306.126.491.423.186.297.186.703 0 .426-.206.715-.203.285-.615.432l1.024 1.924h-.9l-.974-1.833h-.077v1.833h-.824zm.824 1.691h.259q.394 0 .541-.103.15-.103.15-.34 0-.142-.073-.245-.074-.106-.197-.15-.124-.047-.453-.047h-.227zM113.107 21.902h2.363v.806h-1.545v.782h1.545v.792h-1.545v1.138h1.545v.81h-2.363zM118.503 22.49l-.61.538q-.32-.447-.652-.447-.162 0-.265.089-.103.085-.103.194t.073.206q.1.13.604.556.47.394.57.497.25.253.353.485.106.23.106.503 0 .533-.368.88-.367.347-.959.347-.461 0-.806-.226-.34-.227-.585-.712l.691-.418q.312.574.718.574.212 0 .356-.124t.144-.285q0-.147-.109-.295-.109-.147-.48-.45-.705-.576-.911-.888-.206-.315-.206-.627 0-.45.341-.77.344-.324.847-.324.324 0 .615.15.294.15.636.547M119.362 21.902h.873q.71 0 1.021.132.315.13.494.424.183.291.183.7 0 .453-.238.753-.236.3-.642.418-.238.067-.868.067v1.833h-.823zm.823 1.691h.262q.31 0 .43-.044t.188-.144q.07-.103.07-.247 0-.25-.194-.365-.14-.085-.523-.085h-.233zM122.712 21.902h.827v2.8q0 .362.062.512.065.15.209.241.147.089.353.089.218 0 .373-.1.16-.1.218-.253.062-.156.062-.592v-2.697h.827v2.58q0 .653-.074.906-.073.253-.282.488-.206.236-.477.35-.27.112-.63.112-.47 0-.82-.215-.347-.217-.497-.541-.15-.327-.15-1.1zM126.602 26.23v-4.328h.68q.59 0 .864.076.388.103.618.383t.23.659q0 .247-.107.45-.103.2-.338.376.394.186.577.465.182.277.182.656 0 .365-.188.665t-.486.45q-.297.147-.82.147zm.823-3.543v.912h.18q.3 0 .444-.126.147-.127.147-.344 0-.203-.138-.321-.138-.12-.42-.12zm0 1.648v1.109h.206q.512 0 .689-.13.18-.13.18-.376 0-.28-.21-.442-.209-.161-.694-.161zM130.096 21.902h.824v3.542h1.2v.785h-2.024zM132.685 21.902h.818v4.327h-.818zm.406-1.171q.177 0 .3.123.124.124.124.298 0 .176-.124.3-.123.123-.3.123-.173 0-.297-.123-.123-.124-.123-.3 0-.174.123-.298.124-.123.297-.123M134.433 21.902h.832v1.488l1.174-1.488h.991l-1.512 1.93 1.66 2.397h-.977l-1.336-1.92v1.92h-.832zM139.487 21.902h.835l1.665 4.327h-.856l-.338-.891h-1.765l-.353.891h-.856zm.423 1.147-.576 1.486h1.15zM144.897 22.49l-.61.538q-.32-.447-.652-.447-.162 0-.265.089-.103.085-.103.194t.074.206q.1.13.603.556.47.394.57.497.25.253.353.485.106.23.106.503 0 .533-.367.88-.368.347-.96.347-.461 0-.806-.226-.34-.227-.585-.712l.691-.418q.312.574.718.574.212 0 .356-.124t.144-.285q0-.147-.109-.295-.108-.147-.48-.45-.705-.576-.911-.888-.206-.315-.206-.627 0-.45.341-.77.344-.324.848-.324.323 0 .614.15.295.15.636.547M145.7 21.902h.818v4.327h-.818zM70.55 28.27h.874q.718 0 1.021.13.306.127.492.424.185.297.185.703 0 .427-.206.715-.203.285-.615.432l1.024 1.924h-.9l-.974-1.833h-.077v1.833h-.823zm.824 1.692h.26q.394 0 .54-.103.15-.103.15-.34 0-.142-.073-.245-.073-.106-.197-.15-.124-.047-.453-.047h-.227zM73.993 28.27h2.362v.807h-1.544v.782h1.544v.792h-1.544v1.138h1.544v.81h-2.362zM77.117 28.27h.874q.709 0 1.02.133.315.13.495.424.182.291.182.7 0 .453-.238.753-.236.3-.641.418-.239.067-.868.067v1.833h-.824zm.824 1.692h.261q.31 0 .43-.044t.188-.144q.07-.103.07-.247 0-.25-.193-.365-.141-.085-.524-.085h-.232zM80.468 28.27h.826v2.801q0 .362.062.512.065.15.209.242.147.088.353.088.218 0 .374-.1.158-.1.217-.253.062-.156.062-.592v-2.697h.827v2.58q0 .653-.074.906-.073.253-.282.488-.206.236-.477.35-.27.112-.63.112-.47 0-.82-.215-.347-.217-.497-.541-.15-.326-.15-1.1zM84.357 32.598v-4.327h.68q.59 0 .864.076.389.103.618.383.23.28.23.659 0 .247-.106.45-.103.2-.339.376.395.186.577.465.182.277.182.656 0 .365-.188.665t-.485.45q-.298.147-.821.147zm.824-3.542v.912h.179q.3 0 .444-.126.147-.127.147-.344 0-.203-.138-.321-.138-.12-.42-.12zm0 1.648v1.109h.205q.512 0 .689-.13.18-.13.18-.376 0-.28-.21-.441-.208-.162-.694-.162zM87.852 28.27h.823v3.543h1.2v.785h-2.023zM90.44 28.27h.818v4.328h-.817zM96.16 29.033l-.577.55q-.589-.62-1.324-.62-.62 0-1.047.423-.424.423-.424 1.044 0 .433.188.768.189.335.533.527.344.19.765.19.359 0 .656-.132.297-.135.653-.488l.559.582q-.48.468-.906.65-.427.18-.974.18-1.01 0-1.653-.638-.642-.642-.642-1.642 0-.647.292-1.15.294-.503.838-.81.547-.305 1.177-.305.535 0 1.03.226.497.227.855.645M100.605 28.162q.917 0 1.576.665.662.665.662 1.62 0 .948-.653 1.604-.65.656-1.58.656-.973 0-1.618-.674-.644-.673-.644-1.6 0-.62.3-1.141t.824-.824q.527-.306 1.133-.306m-.01.806q-.6 0-1.008.418-.41.418-.41 1.062 0 .718.515 1.135.4.327.918.327.586 0 .998-.424.411-.423.411-1.044 0-.618-.414-1.044-.415-.43-1.01-.43M103.632 28.27h2.147v.804h-1.332v.785h1.332v.792h-1.332v1.947h-.815zM109.515 28.27h.836l1.665 4.328h-.856l-.338-.891h-1.766l-.353.891h-.856zm.424 1.148-.577 1.486h1.15zM112.428 28.27h2.618l-1.544 3.537h1.444v.791h-2.645l1.539-3.512h-1.412zM115.673 28.27h2.362v.807h-1.545v.782h1.545v.792h-1.545v1.138h1.545v.81h-2.362zM118.856 28.27h.873q.718 0 1.021.13.306.127.492.424.185.297.185.703 0 .427-.206.715-.203.285-.615.432l1.024 1.924h-.9l-.974-1.833h-.077v1.833h-.823zm.823 1.692h.26q.394 0 .54-.103.15-.103.15-.34 0-.142-.073-.245-.073-.106-.197-.15-.124-.047-.453-.047h-.227zM122.295 32.598v-4.327h.68q.59 0 .864.076.389.103.618.383.23.28.23.659 0 .247-.106.45-.103.2-.339.376.394.186.577.465.182.277.182.656 0 .365-.188.665t-.485.45q-.298.147-.821.147zm.823-3.542v.912h.18q.3 0 .444-.126.147-.127.147-.344 0-.203-.138-.321-.138-.12-.42-.12zm0 1.648v1.109h.206q.512 0 .689-.13.18-.13.18-.376 0-.28-.21-.441-.209-.162-.694-.162zM127.108 28.27h.835l1.665 4.328h-.856l-.338-.891h-1.765l-.353.891h-.856zm.423 1.148-.576 1.486h1.15zM130.19 28.27h.818v4.328h-.817zM133.009 28.27h.827v2.872q0 .685-.11.962-.108.277-.358.441-.25.162-.6.162-.715 0-1.218-.627l.594-.556q.197.224.335.3.139.077.268.077.132 0 .197-.112t.065-.491zM136.145 28.27h.835l1.665 4.328h-.856l-.338-.891h-1.765l-.353.891h-.856zm.424 1.148-.577 1.486h1.15zM139.29 28.27h.788l1.856 2.849V28.27h.824v4.327h-.791l-1.854-2.839v2.84h-.823z" style="font-style:normal;font-variant:normal;font-weight:700;font-stretch:normal;font-family:&quot;Century Gothic&quot;;-inkscape-font-specification:&quot;Century Gothic Bold&quot;;text-align:center;text-anchor:middle;fill:#a48c6d;fill-opacity:1;stroke-width:.150621" transform="matrix(3.1557 0 0 3.1557 -169.2 -15.334)"/></g></svg>