<svg xmlns="http://www.w3.org/2000/svg" width="334.719" height="472.482" viewBox="0 0 88.561 125.011"><g style="fill:#51202b;fill-opacity:1"><path d="M0 0v472.32h317.364a15.085 15.085 0 0 0 15.116-15.119V15.118A15.083 15.083 0 0 0 317.363 0H37.794z" style="fill:#51202b;fill-opacity:1;stroke-width:3.77953" transform="matrix(.26636 0 0 .26467 0 0)"/></g><path d="M22.12 124.99c12.188-.013 32.133-.013 44.322 0 12.189.011 2.216.02-22.161.02s-34.35-.01-22.162-.02m17.607-13.42.024-1.038 1.204-.023 1.205-.024.133.319c.277.663.854 1.04 1.59 1.04.67 0 1.13-.268 1.489-.872l.287-.482h2.347v2.117h-8.303zm3.547-.704c-.44-.37-.46-1.004-.042-1.421.18-.18.305-.225.625-.225.496 0 .805.22.94.67.26.872-.821 1.566-1.523.976m-3.547-2.175.024-1.037 4.127-.022 4.128-.022v2.118h-2.437l-.054-.217c-.126-.502-1.036-1.139-1.625-1.137-.594.002-1.265.443-1.563 1.028l-.166.326h-2.458Zm-3.913-10.647c0-.452.034-.762.085-.762.046 0 .084.059.084.13s.079.284.175.472c.3.59 1.116.836 1.665.501.584-.356.427-.97-.37-1.437-1.455-.855-1.639-1.049-1.639-1.73 0-.288.055-.443.229-.65.421-.501.944-.61 1.72-.36.416.134.449.134.547 0 .058-.079.13-.143.16-.143.083 0 .063 1.508-.022 1.56-.04.025-.116-.12-.168-.324-.113-.449-.534-.85-.98-.934-.618-.115-1.165.463-.89.941.068.12.541.47 1.052.778.587.354 1 .667 1.122.849.385.573.165 1.335-.485 1.678-.431.228-.891.246-1.524.058-.417-.124-.463-.124-.554 0-.054.074-.123.135-.153.135s-.054-.343-.054-.762m4.064 0c0-.42.029-.762.064-.761.034 0 .14.2.232.444.143.373.23.474.547.635.465.234.809.24 1.166.023.306-.187.425-.51.308-.84-.075-.215-.282-.369-1.44-1.067-.667-.404-.876-.7-.877-1.243 0-.306.051-.456.229-.667.421-.501.944-.61 1.719-.36.417.134.45.134.548 0 .058-.079.13-.143.16-.143.079 0 .065 1.506-.015 1.556-.038.023-.112-.122-.166-.322-.118-.443-.55-.85-.989-.931-.618-.116-1.165.462-.89.94.068.12.541.47 1.052.778.587.354 1 .667 1.122.849.398.591.15 1.406-.518 1.71-.43.195-.858.202-1.47.024-.436-.127-.48-.127-.573 0-.055.075-.125.137-.155.137s-.054-.343-.054-.762m9.366.638c-.842-.3-1.344-1.04-1.395-2.058-.04-.807.1-1.285.517-1.76 1.057-1.2 2.81-1.01 3.577.389.226.412.254.541.253 1.182 0 .648-.026.767-.262 1.186-.561.996-1.657 1.429-2.69 1.06m1.535-.37c.456-.324.655-.867.655-1.792.001-.956-.165-1.477-.59-1.85-.68-.597-1.564-.404-2.015.44-.163.305-.188.481-.188 1.325 0 .882.02 1.01.212 1.352.311.555.698.789 1.235.746.262-.021.533-.108.691-.22m-23.94.325c0-.047.088-.085.195-.085.38 0 .398-.092.398-2.117s-.017-2.116-.398-2.116c-.107 0-.195-.044-.195-.097 0-.07.34-.084 1.215-.055 1.056.036 1.259.066 1.553.232.432.243.619.563.619 1.063 0 .52-.204.85-.662 1.071-.306.148-.464.17-.912.129l-.543-.05v.806c0 .9.079 1.134.38 1.134.111 0 .227.038.255.085.034.054-.295.084-.926.084-.596 0-.979-.033-.979-.084m2.378-2.45c.202-.201.247-.318.247-.638 0-.439-.174-.843-.419-.974-.09-.048-.336-.087-.55-.087h-.386v1.947h.43c.362 0 .469-.039.678-.247m1.009 2.45c0-.047.045-.085.1-.085.234 0 .444-.384 1.3-2.378.498-1.16.934-2.11.968-2.11s.44.904.9 2.009c.812 1.945 1.104 2.479 1.354 2.479.066 0 .12.038.12.085 0 .05-.355.084-.895.084-.574 0-.875-.03-.841-.084.028-.047.106-.085.171-.085.252 0 .282-.282.087-.804l-.19-.508-.892-.024-.892-.024-.213.532c-.229.57-.196.828.106.828.09 0 .185.038.214.085.033.054-.21.084-.672.084-.427 0-.725-.034-.725-.084m2.879-1.767c0-.04-.118-.354-.261-.698s-.3-.72-.345-.837c-.077-.195-.115-.14-.459.664-.206.481-.375.891-.375.91s.324.034.72.034.72-.033.72-.073m10.498 1.767c0-.047.093-.085.207-.085.42 0 .47-.221.47-2.072-.002-1.867-.05-2.1-.446-2.146-.127-.015-.23-.067-.23-.116 0-.061.39-.078 1.206-.053 1.351.042 1.705.148 2.033.609.258.36.255 1.018-.006 1.385-.271.38-.82.568-1.464.5l-.515-.053.029.891c.03.946.077 1.051.473 1.054.105 0 .19.039.19.086 0 .051-.38.084-.973.084s-.974-.033-.974-.084m2.311-2.372c.308-.243.431-.665.317-1.09-.126-.467-.429-.687-.946-.687h-.412v.917c0 .505.026.943.057.974.127.127.772.052.984-.114m7.003 2.372c0-.047.087-.085.194-.085.381 0 .398-.092.398-2.117s-.017-2.116-.398-2.116c-.107 0-.194-.044-.194-.097 0-.148 2.412-.048 2.8.117.453.192.671.517.671 1 0 .474-.277.874-.737 1.067-.153.064-.279.135-.279.158 0 .024.268.405.596.849.576.78.98 1.138 1.288 1.139.081 0 .148.038.148.085s-.262.084-.618.084h-.617l-.756-1.058c-.657-.919-.788-1.058-.991-1.058h-.235v.872c0 .927.055 1.075.398 1.075.107 0 .194.038.194.085 0 .051-.367.084-.931.084s-.931-.033-.931-.084m2.2-2.413c.135-.07.304-.211.377-.315.172-.246.169-.822-.006-1.072-.193-.277-.653-.452-1.01-.385l-.291.055v1.844h.343c.188 0 .453-.057.587-.127m3.218 2.413c0-.047.088-.085.195-.085.381 0 .398-.091.398-2.134v-1.93h-.493c-.406 0-.526.035-.678.196-.1.108-.184.258-.184.334 0 .075-.04.162-.089.192q-.088.056-.063-.482l.025-.536 1.842-.023 1.841-.023.002.362c0 .198.024.447.052.551.028.106.013.191-.035.191-.047 0-.11-.096-.139-.214-.1-.402-.339-.548-.896-.548h-.508v1.93c0 2.043.017 2.134.398 2.134.107 0 .195.038.195.085 0 .051-.367.084-.931.084s-.932-.033-.932-.084m-28.278-9.619c0-.028.172-.243.383-.477.211-.235.521-.672.689-.972.713-1.276.918-2.57.857-5.42-.022-1.037-.018-1.885.01-1.885s.222.115.431.254l.381.253h1.8c.99 0 1.8-.028 1.802-.062.001-.035.077-.154.169-.263l.166-.2.423.272c.233.15.424.305.424.345s-.118.135-.262.21l-.262.135.027 1.695.027 1.695-.21.116c-.312.173-.336.155-.336-.259v-.381h-4.04l-.058.631c-.105 1.16-.487 2.29-1.06 3.137-.408.602-1.361 1.426-1.361 1.176m6.5-6.616.023-1.376h-3.975l-.025 1.362c-.014.749-.01 1.378.011 1.398s.916.027 1.99.014l1.953-.022zm-8.011 6.237c-.14-.177-.345-.292-.699-.39-.275-.076-.5-.173-.5-.214s.313-.05.719-.017c.525.043.752.03.846-.048.107-.09.129-.393.129-1.832 0-1.247-.027-1.725-.098-1.725-.158 0-1.194.596-1.454.836l-.239.222-.248-.276c-.136-.153-.247-.31-.247-.348 0-.04.504-.264 1.121-.498l1.122-.427.024-1.206.023-1.206-.963.043c-.874.038-.972.028-1.061-.115-.094-.15-.05-.158.97-.158h1.07l-.035-1.312c-.02-.722-.025-1.313-.012-1.313.095 0 .958.473.958.525 0 .037-.076.114-.17.172-.152.095-.169.198-.169 1.017v.911h.318c.261 0 .363-.054.577-.31l.26-.31.354.32c.556.502.502.554-.577.554h-.932v1.067c0 .983.012 1.063.148 1.009.877-.35 1.463-.532 1.504-.467.027.044-.33.27-.794.502l-.842.423-.03 2.098c-.031 2.267-.053 2.379-.492 2.606-.324.168-.348.162-.581-.133m22.561.07c-.238-.177-.113-.413.347-.656.473-.25.741-.618.938-1.289.08-.269.177-.489.218-.489.04 0 .057.316.037.702-.04.77-.262 1.305-.662 1.597-.297.217-.686.277-.878.134m3.723-.473c-.033-.291-.175-.744-.345-1.099-.16-.332-.258-.623-.219-.647s.321.221.626.545c.6.635.751 1.006.56 1.37-.124.234-.24.323-.429.324-.105.001-.15-.116-.193-.493m5.71-.065q-.197-.476-.774-1.076c-.318-.33-.562-.616-.542-.636.155-.155 1.656.782 1.904 1.189.3.491.193.998-.212.998-.137 0-.224-.11-.376-.475m-2.958-.177c-.099-.316-.293-.728-.431-.914-.483-.65-.45-.777.104-.397.47.324.976.881 1.043 1.15.07.277-.132.68-.356.712-.155.022-.205-.056-.36-.55m-.988-3.666c.003-.931.014-1.693.025-1.693.01 0 .144.076.296.169.245.149.428.169 1.573.169 1.282 0 1.297-.002 1.481-.215l.187-.216.37.273.372.274-.18.146c-.17.137-.181.224-.181 1.336 0 1.119-.01 1.196-.176 1.284-.244.13-.417.043-.417-.212v-.214H57.15v.208c0 .12-.07.246-.164.297-.394.21-.398.193-.392-1.606m3.35-.127v-.974H57.15v1.948h2.794zm-7.886 1.67a260 260 0 0 1-.021-3.419l-.01-3.357.335.246c.312.23.386.246 1.12.246.744 0 .793-.012.924-.212.18-.274.262-.264.661.077l.33.283-.233.153-.234.154.03 2.738c.033 2.922.036 2.898-.371 2.901-.113.001-.148-.068-.148-.295v-.296h-1.863v.286c0 .157-.048.323-.106.368-.157.122-.4.196-.414.126m2.34-2.305v-1.228l-.91-.024-.91-.024v2.552l.91-.024.91-.024zm.043-2.625v-1.1h-1.863v2.2h1.863zm.896 2.213c-.025-.04.161-.213.413-.387.562-.387 1.159-1.014 1.383-1.454.219-.43.44-1.184.44-1.5v-.25l-.802.042c-.706.037-.819.024-.944-.115-.139-.153-.083-.157 2.021-.157h2.164l.162-.256.162-.256.404.315c.37.289.391.324.253.425a.6.6 0 0 1-.203.11c-.03 0-.093.43-.142.957-.118 1.27-.346 1.672-1.022 1.802-.192.036-.256 0-.37-.204-.1-.177-.264-.29-.573-.393-.513-.17-.506-.307.01-.207.62.12 1.042.092 1.196-.078.134-.148.3-1.065.306-1.686l.003-.275h-2.01l-.103.525c-.236 1.197-.63 1.829-1.516 2.43-.638.432-1.178.7-1.232.612M34.48 80.626c-.058-.02-.106-.101-.107-.179-.004-.267-.325-.851-.682-1.238-.196-.213-.336-.409-.31-.434.137-.138 1.354.698 1.54 1.06.202.39-.091.917-.44.791m-8.678-8.916c.185-.074.19-.112.19-1.258 0-1.057-.015-1.186-.148-1.216-.108-.025-.067-.068.149-.162.276-.119.298-.117.323.028.027.154.185.223.185.08 0-.04.111-.12.247-.176.806-.334 1.274 1.029.59 1.714-.224.223-.296.247-.63.21l-.377-.043v.323c0 .239.05.358.189.456.178.124.16.131-.36.126-.415-.004-.502-.024-.358-.082m1.355-1.084c.058-.072.106-.333.106-.58 0-.668-.393-.996-.777-.649-.183.166-.215 1.003-.046 1.222.2.26.51.264.717.007zm13.8 1.084c.185-.074.191-.113.191-1.23 0-1.125-.005-1.155-.19-1.204-.17-.044-.156-.064.148-.2.33-.146.339-.145.366.017.027.165.029.165.244-.004.297-.234.502-.214.793.077.21.21.248.315.248.682 0 .763-.37 1.175-.97 1.077l-.3-.048v.378c0 .313.032.392.19.455.143.057.052.077-.36.077s-.502-.02-.36-.077m1.219-1.006c.397-.322.202-1.447-.251-1.447-.297 0-.438.263-.438.813 0 .454.027.552.188.664.238.167.26.166.5-.03m-20.36.025c-.471-.47-.362-1.373.202-1.675q.302-.162.527-.105c.274.068.569.369.569.578 0 .135-.078.154-.635.154-.616 0-.635.006-.635.205 0 .288.39.726.647.726.116 0 .3-.099.415-.224.167-.18.208-.195.208-.078 0 .08-.111.257-.247.393-.327.327-.74.337-1.052.026m.86-1.278c-.016-.08-.13-.203-.255-.273-.207-.116-.242-.113-.402.032-.299.27-.223.386.255.386.36 0 .425-.023.401-.145m1.26 1.329c-.694-.546-.328-1.815.523-1.815.672 0 1.076.607.868 1.304-.19.633-.903.895-1.391.511m.886-.139c.193-.175.21-.86.03-1.208-.314-.61-.892-.353-.891.396 0 .746.458 1.177.86.812m5.108.207c-.41-.235-.566-.848-.35-1.367.149-.355.614-.61.957-.524.268.067.536.344.536.554 0 .155-.057.17-.635.17-.616 0-.635.006-.635.205 0 .288.39.726.646.726.114 0 .302-.094.416-.208.152-.152.208-.173.208-.078 0 .071-.112.241-.248.377-.264.264-.594.318-.895.145m.72-1.377c0-.069-.096-.188-.212-.264-.196-.128-.228-.128-.424 0-.356.234-.272.389.212.389.317 0 .423-.031.423-.125m2.289 1.099.003-.339.128.237c.156.287.51.446.68.305.23-.191.124-.405-.349-.708-.381-.244-.465-.34-.464-.531.002-.435.29-.628.829-.556.343.046.355.058.352.354-.003.288-.01.296-.124.137-.235-.328-.305-.381-.503-.381-.395 0-.362.427.047.597.467.193.667.409.667.72 0 .395-.267.564-.839.53l-.43-.027zm6.255.133c-.208-.208-.247-.315-.247-.673 0-.557.127-.818.481-.986.478-.227.95-.03 1.065.446.045.185.027.19-.583.19-.714 0-.805.078-.588.498.243.47.69.572.964.222.092-.116.186-.211.21-.211.097 0-.057.347-.242.548-.286.308-.733.293-1.06-.034m.853-1.228c0-.156-.23-.387-.387-.387-.138 0-.46.296-.46.423 0 .047.191.085.424.085.31 0 .423-.032.423-.121m3.527 1.32c-.108-.118-.14-.324-.14-.89 0-.686-.013-.743-.19-.814-.16-.065-.132-.078.169-.082l.36-.005v.751c0 .885.106 1.068.495.85.207-.116.226-.174.25-.756.02-.52 0-.649-.122-.738-.13-.094-.109-.107.165-.107h.312v.712c0 .805.043.98.242.984.138.003-.361.251-.505.251-.042 0-.075-.083-.075-.184v-.184l-.196.184c-.24.225-.576.237-.765.03zm2.336.052c-.183-.088-.19-.134-.19-1.215 0-1.216-.03-1.39-.242-1.394-.188-.004.23-.244.432-.248.129-.003.149.083.149.635v.637l.24-.177c.667-.493 1.337.517.901 1.36-.225.436-.83.624-1.29.402m.905-.289c.347-.442.107-1.3-.365-1.3-.307 0-.391.164-.391.761 0 .322.043.602.101.66.17.17.47.115.655-.12m3.978.145c-.214-.214-.247-.31-.247-.718 0-.4.037-.512.245-.746.201-.225.308-.274.593-.274.392 0 .746.267.658.497-.083.215-.296.155-.44-.125-.181-.35-.455-.31-.653.094-.371.76.449 1.59.946.958.135-.172.175-.19.175-.078 0 .25-.465.64-.762.64-.182 0-.346-.08-.515-.248m2.989.115c-.236-.165-.442-.554-.442-.834 0-.366.262-.796.577-.945.241-.115.35-.123.611-.045 1.003.3.792 1.957-.25 1.957-.169 0-.393-.06-.496-.133m.842-.177c.194-.175.211-.86.031-1.208-.314-.61-.892-.353-.891.396 0 .746.457 1.177.86.812m4.47.119q-.615-.412-.614-1.197c0-.906.535-1.491 1.362-1.491.249 0 .523.038.61.085q.159.086.212 0c.119-.193.197-.058.225.388.02.344.006.433-.056.327-.365-.627-.753-.81-1.264-.596-.722.301-.866 1.718-.233 2.282.098.087.346.178.551.2.34.039.405.014.723-.273.348-.314.457-.317.222-.007-.38.502-1.211.637-1.739.282zm8.449.1c-.095-.056-.148-.19-.148-.373 0-.32.235-.558.728-.736.207-.075.288-.156.288-.289 0-.402-.502-.504-.593-.12-.068.29-.339.337-.339.059 0-.289.218-.44.635-.44.555 0 .635.118.635.928 0 .735.041.865.225.712.18-.149.134.051-.05.217-.165.15-.513.12-.513-.045 0-.044-.113-.023-.25.048-.29.15-.413.158-.618.038m.73-.272c.111-.082.142-.202.122-.472l-.027-.364-.295.2c-.324.219-.41.431-.252.622.126.151.258.155.452.014m-49.16.19c.185-.074.191-.111.191-1.26 0-1.129-.009-1.189-.19-1.322-.181-.131-.148-.137.632-.106.716.028.85.057 1.03.227.276.26.335.538.187.891-.136.327-.556.503-.992.416l-.244-.05v.564c0 .506.02.572.19.64.141.057.036.077-.401.077-.438 0-.543-.02-.403-.076m1.265-1.45a.63.63 0 0 0 .196-.428c0-.31-.355-.68-.616-.643-.172.024-.19.079-.213.64l-.025.614h.231c.127 0 .32-.083.427-.184m7.922 1.446c.13-.075.148-.232.148-1.275 0-1.14-.007-1.19-.18-1.236-.178-.046-.177-.048.021-.158a.95.95 0 0 1 .35-.115c.135-.003.148.117.148 1.348 0 1.197.017 1.36.148 1.436.113.067.04.087-.318.087-.356 0-.43-.02-.317-.087m7.747.004c.185-.074.19-.111.19-1.26 0-1.129-.008-1.189-.19-1.322-.18-.133-.145-.138.68-.103.764.033.894.062 1.079.235a.67.67 0 0 1 .001.975c-.114.115-.251.208-.305.208-.14 0-.047.192.348.715.191.253.45.498.574.544.205.075.19.083-.17.09l-.398.006-.45-.63c-.585-.822-.745-.84-.745-.087 0 .495.02.561.19.63.14.056.035.076-.402.076s-.543-.02-.402-.076zm1.345-1.567c.167-.167.204-.268.162-.445-.072-.305-.364-.54-.633-.508-.207.024-.22.053-.243.597l-.025.571h.262c.167 0 .339-.077.477-.215m10.55 1.563c.13-.076.149-.234.149-1.31 0-1.094-.015-1.223-.144-1.223-.204 0-.037-.144.25-.215l.232-.057v1.36c0 1.205.017 1.369.148 1.445.114.066.04.087-.317.087s-.431-.02-.318-.087m1.355 0c.123-.071.148-.21.148-.801 0-.684-.008-.716-.19-.723-.15-.005-.119-.04.148-.164l.339-.158.023.863c.018.689.051.885.164.969.119.089.068.105-.32.103-.354-.002-.426-.022-.312-.089m6.498.03c.217-.082.252-.212.253-.933.001-.69-.002-.699-.21-.699-.117 0-.212-.038-.212-.084s.095-.085.212-.085c.17 0 .211-.042.211-.216 0-.322.23-.706.457-.763.492-.123 1 .148.749.4-.08.08-.145.063-.3-.082-.364-.343-.567-.21-.567.372 0 .265.021.289.254.289.14 0 .254.038.254.085 0 .046-.114.084-.254.084h-.254v.758c0 .633.025.772.148.844.112.066.024.086-.36.083-.28-.002-.45-.026-.38-.053m5.694-.03c.13-.075.148-.232.148-1.27 0-1.14-.007-1.186-.184-1.252-.173-.064-.167-.075.097-.167.155-.054.314-.098.354-.098s.072.283.072.628v.628l.327-.18c.314-.171.337-.173.55-.033.212.139.224.183.224.858 0 .534.033.745.133.845.12.12.092.132-.318.123-.248-.005-.384-.027-.302-.049.126-.033.148-.143.148-.748 0-.817-.106-.968-.527-.75-.225.117-.235.149-.235.75 0 .51.028.645.148.715.114.066.04.087-.317.087s-.431-.02-.318-.087m2.37 0c.123-.071.149-.21.149-.795 0-.606-.022-.715-.148-.745-.11-.027-.072-.07.148-.169l.296-.133.023.861c.019.687.052.883.165.967.118.089.067.105-.32.103-.354-.002-.426-.022-.312-.089m1.27 0c.122-.07.149-.207.149-.762 0-.623-.015-.681-.19-.747-.18-.067-.171-.08.137-.209.407-.17.392-.172.392.03 0 .168 0 .168.275 0 .345-.21.445-.21.656.002.143.142.17.282.17.885 0 .592.025.73.147.801.113.066.037.085-.317.08-.256-.005-.399-.025-.318-.047.127-.033.149-.143.149-.741 0-.825-.094-.98-.483-.794-.224.108-.238.148-.262.746-.021.522 0 .651.122.74.125.092.08.107-.314.105-.354-.002-.426-.022-.312-.089m-33.14-1.882c.207-.22.24-.397.074-.397-.162 0-.306-.173-.255-.307.055-.143.38-.153.518-.015.164.165.117.484-.106.707-.265.265-.479.276-.23.012m17.562-.542c-.058-.021-.106-.111-.106-.2 0-.193.297-.226.367-.042.055.143-.11.296-.26.242m14.563 0c-.175-.064-.127-.363.058-.363.09 0 .19.042.222.093.073.117-.14.323-.28.27m-43.117-3.83v-1.105h-.804c-.802 0-.804 0-.804.212 0 .131-.048.211-.127.211-.107 0-.127-.179-.127-1.1 0-1.002.055-1.269.211-1.016.03.046.41.084.852.084h.8v-.592c0-.326.033-.593.075-.593s.16.068.262.152c.17.137.175.162.052.264-.082.068-.136.243-.136.441v.328h.774c.607 0 .795-.029.872-.133.087-.12.12-.115.305.047.142.124.175.196.102.226-.075.031-.105.3-.105.926 0 .694-.025.882-.117.882-.065 0-.138-.078-.163-.173-.042-.16-.1-.17-.835-.148l-.79.024v1c0 .866-.02 1.013-.149 1.085-.137.077-.148.006-.148-1.022m0-1.867v-.677H19.39v1.354h1.608zm1.93-.021.025-.656h-1.7v.62c0 .342.026.648.059.68.032.033.404.05.825.036l.766-.024zm25.926 2.947c0-.015.257-.193.571-.396s.763-.548.997-.766c.421-.394.426-.396.625-.246l.2.151-.244.128c-.134.07-.558.32-.942.554-.614.375-1.207.657-1.207.575m-20.236-.766v-.732l-1.229.018c-.676.01-1.254-.007-1.284-.037s.523-.055 1.23-.055h1.283v-.927l.212.096c.215.098.286.239.122.239-.05 0-.079.12-.064.275l.027.275.855.024c.686.02.876-.002.963-.106.145-.175.284-.163.468.04.152.168.148.17-1.084.17h-1.238l-.024.69q-.025.691-.13.728c-.08.026-.107-.15-.107-.698m5.08.684c0-.02.143-.123.318-.228 1.346-.812 1.856-1.708 2.063-3.624l.1-.922.242.084c.236.083.332.237.146.237-.205 0 .098 1.43.475 2.244.369.795.785 1.252 1.423 1.561.468.227.497.255.267.257-.142.001-.301.045-.353.097-.139.138-.724-.362-1.124-.961-.416-.623-.655-1.262-.78-2.083l-.097-.65-.107.72c-.198 1.334-.617 2.103-1.472 2.703-.46.323-1.1.652-1.1.565m34.699-.193-.028-.238h-3.556l-.027.19c-.015.105-.081.19-.148.19-.102 0-.121-.37-.121-2.37 0-1.304.033-2.37.074-2.37s.122.057.18.127c.087.105.396.127 1.79.127 1.167 0 1.734-.032 1.847-.103.135-.084.195-.073.343.061.159.144.165.174.049.258-.111.082-.135.416-.154 2.198-.016 1.52-.05 2.11-.122 2.134-.058.02-.112-.068-.127-.204m.015-2.27v-1.905H64.77v1.848c0 1.017.025 1.874.056 1.905s.85.057 1.82.057h1.765zm-3.425 1.15c-.04-.063.18-.092.71-.092h.767v-1.185h-.545c-.3 0-.569-.038-.598-.085-.033-.053.169-.085.546-.085h.597v-.861l-.63.026c-.347.015-.658 0-.691-.035-.034-.033.485-.061 1.152-.061 1.006 0 1.24-.024 1.368-.139.125-.113.177-.119.281-.032.243.202.128.256-.548.256h-.678v.846h.364c.2 0 .41-.046.467-.102.08-.08.143-.062.29.084l.187.188h-1.308v1.185h.48c.31 0 .53-.045.622-.128.126-.114.157-.11.295.043.153.17.15.17-1.278.17-.787.001-1.512.024-1.612.05s-.206.008-.238-.043zm2.35-.73c-.211-.33-.2-.344.137-.17.242.125.376.325.283.419-.11.11-.242.03-.42-.25M41.917 65.33c-.075-.09-.067-.128.032-.166.111-.043.13-.354.13-2.225 0-2.101.005-2.17.154-2.034.131.118.37.14 1.55.14.895 0 1.427-.033 1.487-.093.067-.067.142-.066.27.003.193.103.23.218.094.301-.046.03-.084.317-.084.64 0 .466-.027.588-.127.588a.13.13 0 0 1-.127-.13c0-.108-.102-.127-.57-.107l-.568.025.026.423c.014.232.044.451.066.487s.35.064.728.064c.572 0 .718-.029.869-.17l.18-.17.2.213.199.212h-1.073c-.908 0-1.073.02-1.073.13 0 .252.424.963.701 1.174s.823.474.985.474c.046 0 .11-.238.145-.53l.061-.529.099.55c.054.303.13.624.169.713.064.15.04.157-.334.106a2.47 2.47 0 0 1-2.011-1.665l-.126-.381h-1.594l-.025.783c-.016.525.007.783.068.783.051 0 .362-.114.69-.254.88-.374.89-.31.029.174-.42.235-.799.464-.843.508-.114.114-.264.1-.377-.037m1.994-2.401a4 4 0 0 1-.054-.512c0-.189-.019-.193-.741-.17l-.741.025-.027.37c-.043.595-.03.604.84.604h.775zm1.385-1.25v-.465h-2.964v.41c0 .224.026.434.057.465.03.031.698.056 1.481.056h1.426zm7.993 3.556c-.135-.205-1.022-.919-1.24-.996-.059-.021-.088-.06-.064-.086.055-.06 1.26.497 1.456.675.16.144.212.62.07.62-.046 0-.146-.096-.222-.213m4.445.146c-.005-.033-.002-.594.007-1.246.008-.652-.003-1.166-.026-1.143a11 11 0 0 0-.368.52c-.389.57-.784 1.039-.833.99-.02-.02.117-.263.304-.54.383-.567.839-1.422.839-1.572 0-.07-.154-.083-.544-.043-.34.035-.565.023-.598-.03-.034-.056.173-.087.587-.087h.64v-.475c0-.45-.01-.472-.19-.43a7 7 0 0 1-.615.092l-.423.046.423-.126c.233-.069.756-.234 1.162-.366.688-.224.748-.23.867-.099.119.13.085.15-.42.251l-.55.11v.998h.297c.164 0 .373-.048.464-.105.139-.086.193-.079.314.042.139.14.115.147-.465.147-.61 0-.61 0-.608.233.001.196.066.26.415.414.435.19.634.429.517.617-.051.084-.174.007-.48-.3l-.412-.414-.023 1.24c-.02 1-.048 1.25-.149 1.29-.068.026-.128.02-.132-.014m1.616-2.23v-1.956l.209.136c.277.182 1.204.188 1.4.01.127-.115.158-.11.304.054.116.131.132.193.056.22-.08.027-.106.441-.106 1.68 0 1.405-.018 1.644-.127 1.644-.089 0-.127-.09-.127-.3v-.3l-.656.025-.656.025-.026.36c-.018.245-.065.36-.149.36-.102 0-.122-.309-.122-1.958zm1.609-.247v-1.358l-.656.024-.656.025-.024 1.224c-.013.673-.005 1.273.019 1.333.029.077.235.11.68.11h.637zm-12.06.857c-.04-.063.19-.092.752-.092h.81v-1.633l-.588.055c-.362.034-.608.022-.64-.03-.033-.054.182-.085.587-.085h.64v-1.359l.269.139c.23.119.248.15.127.218-.105.059-.142.197-.142.54v.462h1.524v-.675c0-.659.005-.673.186-.605.199.073.314.264.16.264-.056 0-.092.2-.092.508v.508h.329c.188 0 .373-.054.433-.127.143-.172.283-.16.466.042.152.168.148.17-.537.17h-.69v1.608h.438c.323 0 .487-.045.62-.17l.18-.17.2.213.2.212-2.407.001c-1.324 0-2.488.023-2.588.05-.1.026-.206.007-.237-.044zm3.321-.875-.024-.783h-1.44l-.024.67c-.014.368-.006.72.018.783.032.082.241.113.77.113h.725zm-24.874-.278v-.822l-.458.391c-.679.58-.75.474-.12-.18.303-.314.657-.733.787-.931.265-.402.25-.393.473-.273.153.082.146.102-.111.331-.274.244-.274.246-.317 1.24-.029.69-.075 1.006-.148 1.03-.08.027-.106-.167-.106-.786m1.842.55c-.106-.064-.148-.199-.148-.467 0-.207-.018-.376-.04-.376-.021 0-.232.076-.468.169-.698.275-.772.188-.106-.125l.614-.288v-1.446l.211.096q.337.153.127.281c-.087.054-.122.89-.036.89.078 0 .39-.176.856-.483.386-.254.46-.275.614-.179.205.128.228.238.05.238-.07 0-.453.162-.851.36l-.725.359.025.381.025.382.718.025c.815.028.927-.04.94-.57l.008-.302.085.296c.046.163.125.346.175.407.067.08.053.148-.052.254-.113.113-.329.148-1.009.166-.506.013-.927-.015-1.013-.067m12.528-12.052c-.41-.052-.746-.124-.747-.16-.013-.225.079-.242.754-.143.53.077.72.14.784.261.047.088.055.154.019.148a75 75 0 0 0-.81-.106m3.655-.034c.07-.13.243-.19.78-.268.453-.066.719-.072.774-.018.162.163-.026.249-.676.306a8 8 0 0 0-.812.102c-.133.039-.142.02-.066-.122m-9.6-.018a17 17 0 0 1-1.043-.123c-.36-.062-.363-.066-.212-.234.14-.155.23-.167.986-.131.798.038.844.05 1.1.306l.266.267-.21-.012c-.115-.007-.515-.04-.887-.073m6.814-.044c-.06-.071-.086-.15-.06-.177s.09.032.142.13c.111.206.07.23-.082.047m2.623-.027c.056-.108.125-.174.153-.146.028.029-.017.118-.101.198-.147.14-.149.137-.052-.052m5.813.096c-.134-.134-.025-.861.201-1.337l.241-.508.007.646c.005.486-.026.672-.125.755-.073.06-.173.188-.223.285-.07.135-.03.12.17-.068.24-.225.323-.248 1.055-.286.656-.034.839-.016 1.042.105l.246.148-.197-.177c-.108-.097-.184-.237-.17-.31.024-.115.059-.107.224.047.33.309.215.452-.45.558-.786.126-1.954.208-2.02.142m-8.312-.232a.6.6 0 0 0-.362-.24c-.124-.02.002-.037.282-.04.66-.006.897.067.983.298.066.18.048.19-.35.19-.35 0-.44-.035-.553-.208m1.582.004c.105-.23.386-.31 1.036-.293.24.006.342.029.229.05a.73.73 0 0 0-.366.243c-.13.165-.238.203-.576.203-.408 0-.414-.004-.323-.203m-7.653-.112c-.214-.225-.232-.297-.23-.917l.003-.673.256.575c.18.403.248.677.23.917l-.026.342zm2.837.123c-.291-.047-.53-.116-.53-.154 0-.167.297-.211.83-.124.423.07.573.13.594.24.032.166-.064.17-.894.038m.995-.052c0-.193-.085-.23-.708-.308-.264-.033-.496-.087-.517-.12-.02-.032.07-.043.2-.024.226.033.24.015.292-.366.03-.22.055-.602.055-.849 0-.475.113-.883.244-.883.044 0 .066.067.05.149s-.05.576-.075 1.1c-.038.79-.025.953.076.953.239 0 .552.2.552.352 0 .086-.038.156-.085.156-.046 0-.084-.072-.084-.16m3.386-.348c0-.567.12-.68.2-.19.085.512.065.698-.073.698-.098 0-.127-.113-.127-.508m3.441.44c-.076-.12.078-.356.232-.354.07 0 .07.017-.001.063-.053.034-.11.139-.129.232-.024.124-.051.14-.102.06m.213-.066c.024-.125.157-.18.623-.257.401-.067.626-.071.697-.013.181.146.12.21-.254.26-.197.028-.525.077-.728.11-.33.052-.365.042-.338-.1m-6.801-.134c-.02-.143-.108-.211-.342-.266l-.315-.074.044-.818c.055-1.027.106-1.368.205-1.368.042 0 .256.191.475.425l.398.426.185-.174c.111-.105.24-.153.325-.12.162.062.184.176.043.223-.059.02-.114.312-.138.731l-.04.699-.244-.047c-.7-.134-.793-.142-.666-.053.07.049.26.094.423.101q.3.014.106.05c-.105.02-.19.086-.19.147s-.055.156-.12.211c-.098.081-.127.063-.149-.093m2.945.05c-.083-.217-.06-.798.033-.798.047 0 .085.21.085.465 0 .481-.03.563-.118.332m3.355.035a.37.37 0 0 1-.105-.215c0-.06-.085-.115-.19-.12s0-.041.233-.08c.232-.038.528-.09.656-.115.252-.049.328.083.085.146-.108.029-.095.042.048.049l.197.01-.06-1.07c-.052-.895-.042-1.063.056-1.03.132.043.13.034.207 1.198l.055.834.249-.036q.247-.037.164.047c-.047.046-.371.087-.722.09-.589.005-.643.02-.703.201-.052.155-.087.174-.17.09zm-5.058-.029a5 5 0 0 0-.494-.084c-.456-.062-.466-.078-.098-.16.185-.042.22-.034.127.029-.11.073-.106.086.02.087.129 0 .149-.085.149-.634 0-.35.029-.634.064-.634.195.004.268.185.292.718.023.544.04.59.237.645l.211.059-.211.002a1.2 1.2 0 0 1-.297-.028zm2.23-.339c-.054-.411-.036-.543.061-.446.026.026.036.232.022.459l-.027.41zm1.453.31c.194-.057.216-.113.254-.65.034-.467.073-.595.187-.617.122-.023.148.06.17.543.017.394.06.582.142.61.065.02.094 0 .066-.045-.031-.05.039-.066.179-.04l.23.045-.216.059c-.3.08-1.272.173-1.012.096zm-11.345-.124c0-.064.076-.186.17-.27.164-.149.169-.148.169.026 0 .099-.077.22-.17.27-.131.07-.169.064-.169-.026m4.487-.048c0-.108.25-.298.31-.236.062.061-.127.31-.235.31a.074.074 0 0 1-.075-.074m10.076-.053c-.272-.328.52-.537.882-.233.173.146.174.146.028-.028-.083-.097-.145-.304-.142-.465l.007-.29.085.233c.047.128.123.233.168.233s.072.105.057.233c-.022.191-.085.247-.353.313-.294.072-.34.06-.484-.127-.088-.114-.16-.162-.162-.107a.2.2 0 0 0 .083.153c.104.065.112.212.01.212-.04 0-.121-.057-.18-.127m-13.441-.02c-.628-.026-.699-.046-.699-.195 0-.144.06-.166.459-.166h.458l.046-.317c.026-.175.072-.994.103-1.82.03-.827.082-1.504.114-1.504s.121.048.199.106c.12.091.149.378.199 2.032.049 1.63.04 1.924-.062 1.91-.065-.01-.433-.031-.817-.047m2.71-.023c-.106-.043-.191-.151-.191-.24 0-.088.085-.347.19-.574l.19-.413.027.37c.021.29-.015.418-.17.592-.158.18-.162.194-.019.075.1-.084.316-.148.497-.148.314 0 .318.004.196.19-.139.21-.427.27-.72.148m4.612.007c-.315-.027-.572-.077-.571-.112l.001-.412c0-.365.024-.376.443-.203.107.044.173 0 .248-.164.15-.328.4-.252.544.165.148.427.155.81.014.79a27 27 0 0 0-.679-.064m1.67.005c-.097-.098-.03-.52.083-.52.075 0 .132-.104.148-.274.036-.37.357-.438.508-.106.1.218.163.23.513.085.13-.053.149-.009.149.332 0 .24-.042.406-.106.427-.165.053-1.25.1-1.294.056m7.186-1.247c.031-.74.056-1.617.056-1.947 0-.551.017-.608.204-.693l.203-.092.053 1.158c.03.637.075 1.454.102 1.815l.049.656h.457c.4 0 .457.021.457.17 0 .153-.057.169-.614.17-.338 0-.706.026-.818.056l-.205.054zm-18.147 1.089c-.252-.047-.335-.159-.337-.454-.002-.346.24-.5.784-.5.265 0 .501.043.535.097.044.071-.079.081-.461.038-.47-.053-.52-.043-.52.096 0 .085-.065.249-.143.364-.14.207-.14.208.028.061.133-.116.317-.147.84-.142.37.003.843.037 1.052.074l.381.068-.516.01c-.4.009-.55.05-.669.18-.152.168-.463.203-.974.108m12.854-.714c-.016-.435 0-.826.034-.87.036-.044.128-.018.22.064.085.079.19.142.231.142s.256-.178.477-.396c.281-.277.414-.36.44-.275.022.067.06.51.084.984.052.97.1.898-.666.999-.233.03-.506.075-.608.099-.177.042-.185.016-.212-.747m7.17.606c-.116-.128-.27-.171-.627-.179l-.474-.01.339-.07c.186-.038.646-.072 1.022-.075.613-.004.704.016.872.195l.187.2-.396.054c-.617.085-.758.067-.923-.115zm-14.266 0c-.097-.062-.061-.082.148-.083.151 0 .275.037.275.083 0 .108-.257.108-.423 0m9.059 0c0-.046.124-.084.275-.083.209 0 .245.021.148.083-.166.108-.423.108-.423 0m-11.145-.19c.028-.105.052-.235.053-.29 0-.1.927-.569.993-.503.02.02-.042.187-.136.372a.9.9 0 0 1-.516.474c-.44.176-.455.174-.394-.053m13.17.01c-.305-.132-.426-.247-.57-.544-.1-.207-.17-.376-.153-.376.016 0 .277.112.58.25.53.24.653.38.657.745.001.134-.042.128-.514-.075m.558-.167c-.047-.31-.022-.462.119-.738.124-.244.177-.506.177-.885 0-.341.045-.597.124-.701.112-.148.125-.075.127.734.002.814-.02.95-.243 1.44l-.245.54zm-14.127-.246c-.195-.45-.224-.63-.222-1.38.002-.777.015-.846.127-.698.079.104.124.36.124.701 0 .37.053.641.17.87.176.346.216.726.096.915-.048.076-.14-.052-.295-.408m17.873.32c-.082-.126-.148-.29-.148-.365 0-.115-.07-.127-.467-.077-.571.071-.723-.027-.707-.459.007-.197.025-.239.048-.117.02.105.077.19.125.19.05 0 .071.069.05.152-.036.136.014.148.477.119.436-.028.54-.006.67.137a.54.54 0 0 1 .128.409l-.028.238zm-16.15-.409v-.512l.64-.292c.351-.16.649-.291.66-.291.032 0-.029 1.006-.08 1.333l-.043.275H38.44zm9.79.12a7 7 0 0 1-.054-.8v-.409l.613.294c.662.317.727.4.736.948l.006.36h-1.247Zm-13.876.16c-.64-.02-.825-.054-.825-.146 0-.095.115-.11.574-.07l.573.047.155-1.725c.085-.949.169-1.74.186-1.758s.147.016.288.075l.258.106-.05 1.662c-.055 1.808-.064 1.881-.225 1.855-.06-.01-.48-.03-.934-.045m9.11-.191c-.088-.442-.577-.43-.726.017-.014.042-.243-.02-.51-.137-.464-.206-.48-.223-.388-.425.074-.162.07-.241-.012-.34-.138-.167-.247-.164-.442.012-.149.135-.176.123-.535-.228l-.377-.37.17-.183c.107-.114.152-.242.12-.343-.05-.154-.046-.154.083.005.124.153.122.179-.03.33-.162.163-.161.168.105.486l.27.32.184-.173.185-.174.257.182c.222.159.245.21.174.396a2 2 0 0 0-.081.242c0 .015.16.091.356.17.337.135.363.134.466-.007.06-.082.11-.18.11-.216 0-.084.515.01.656.121.058.046.105.176.105.289 0 .193.026.204.403.18.367-.023.404-.046.428-.256.022-.185.089-.248.339-.317.314-.087.448-.018.548.283.02.06.154.036.386-.068.326-.148.35-.181.31-.422-.037-.213-.005-.29.173-.418.2-.143.23-.145.368-.021.205.186.28.172.546-.105.16-.167.213-.29.173-.402-.055-.155-.05-.156.101-.013.153.144.148.159-.189.496-.341.341-.35.344-.563.204-.174-.113-.254-.122-.399-.045-.107.058-.161.147-.133.218l.099.242c.048.119-.192.284-.686.472-.186.07-.228.053-.31-.129-.164-.358-.662-.254-.662.137 0 .243-.004.245-.51.245-.5 0-.512-.005-.562-.255zm8.874.086c0-.117.02-.164.043-.106a.33.33 0 0 1 0 .211c-.023.059-.043.011-.043-.105m.124-.268a36 36 0 0 1-.082-1.751l-.036-1.3.265-.111c.147-.062.275-.103.286-.092s.08.702.153 1.538c.186 2.119.11 1.933.763 1.872.446-.042.546-.029.546.072s-.148.124-.74.125c-.408.001-.824.024-.925.05-.168.046-.187.011-.23-.403m-16.892-.628c.005-.509.04-1.268.076-1.687q.067-.763.023.89c-.024.907-.058 1.666-.076 1.686-.017.019-.028-.381-.023-.89m8.09.648c-.038-.192-.11-.269-.286-.308-.13-.03-.3-.07-.378-.091-.09-.024-.182.035-.245.156-.055.107-.109.204-.119.217-.01.012-.156-.036-.325-.107-.281-.117-.3-.146-.224-.345.108-.285.124-.25-.218-.462-.29-.179-.307-.18-.468-.035-.16.146-.175.143-.419-.091l-.252-.242.179-.19.179-.19-.185-.26c-.146-.205-.238-.255-.445-.238-.306.024-.425-.168-.137-.222 1.152-.215 1.074-.22 1.26.082.246.396.72.788 1.261 1.039.382.177.597.217 1.147.217.903-.001 1.564-.29 2.163-.946.23-.253.42-.49.42-.528s.143-.037.317.002.46.094.635.122c.203.032.318.096.318.177 0 .098-.065.115-.284.074-.254-.048-.302-.024-.461.228-.175.275-.175.285-.02.451s.155.176-.036.413c-.189.235-.2.238-.411.1-.208-.137-.23-.135-.508.054-.247.168-.279.226-.216.395.092.25.052.313-.269.425-.234.081-.266.07-.354-.122-.082-.18-.136-.204-.356-.16-.492.099-.546.133-.573.361-.022.196-.07.233-.332.254-.28.024-.31.004-.357-.23zm-11.416-.025c-.218-.045-.416-.133-.44-.195-.054-.14.094-.694.204-.762.137-.084.091.331-.06.555-.141.206-.14.207.027.06.146-.126.287-.14.968-.102.439.025.922.061 1.075.08.16.02.256 0 .228-.046-.028-.043-.328-.08-.668-.08-.91 0-1.404-.082-1.404-.234 0-.107.101-.118.635-.07.35.032.636.028.637-.009.007-.399.25-3.353.278-3.38.02-.02.242.123.492.318l.485.377c.015.012-.02.683-.077 1.49-.126 1.77-.16 1.848-.798 1.848-.293 0-.482.043-.551.127-.117.141-.436.148-1.031.024zm2.213-.028c-.09-.108-.085-.156.032-.272.131-.132.14-.123.14.131 0 .309-.02.325-.172.141m2.677-.009a.7.7 0 0 1-.049-.193c0-.11 3.385-1.633 3.517-1.583.273.105.077.255-.956.735a39 39 0 0 0-1.4.676 10 10 0 0 1-.692.334c-.324.139-.377.143-.42.031m12.024-.586c-.834-.391-1.586-.775-1.672-.852-.158-.143-.213-.37-.089-.37.14 0 3.363 1.527 3.389 1.605.015.046-.004.138-.043.205-.056.1-.354-.011-1.585-.588m5.453.599c-.07-.084-.26-.127-.56-.127-.337 0-.456-.031-.456-.12 0-.066-.044-.135-.097-.152-.078-.026-.294-1.95-.322-2.86-.004-.145.899-.875 1.002-.81.038.022.093.49.124 1.039s.08 1.294.11 1.656l.054.659.623-.056c.522-.048.623-.036.623.07 0 .153-.495.235-1.41.235-.342 0-.622.03-.622.065s.465.036 1.033.003c.892-.054 1.054-.043 1.185.075.183.165.197.05.023-.18a.7.7 0 0 1-.12-.38c.002-.199.018-.19.175.11.267.505.175.687-.404.804-.638.128-.835.122-.961-.03zm-2.353-.678c-.01-.372-.036-1.058-.057-1.524-.035-.764-.03-.797.044-.338.045.28.07.965.057 1.524-.018.745-.03.836-.044.338m-15.375.164c-.04-.104.258-.28 1.36-.808 1.354-.649 1.763-.766 1.763-.505 0 .111-2.74 1.442-2.975 1.445-.054 0-.12-.059-.148-.132m12.521-.503a140 140 0 0 0-1.423-.653c-.113-.044.034-.32.17-.32.07 0 .752.302 1.515.671 1.085.525 1.377.7 1.337.805-.028.073-.094.131-.148.129s-.706-.286-1.451-.632m-18.389.223-.27-.053.228-.267c.214-.251.273-.271.968-.325.645-.05.741-.04.741.077 0 .096-.081.134-.29.134-.226 0-.33.056-.472.254-.187.264-.327.291-.905.18m3.639-.307c0-.233.017-.318.036-.19.02.13.02.32 0 .424s-.037 0-.036-.234m2.177.165c0-.175.124-.262.901-.629.496-.233.973-.425 1.059-.425s.157-.038.157-.085c0-.097.334-.111.479-.02.057.037-.464.334-1.25.713-1.297.626-1.346.642-1.346.446m14.665-.434c-.015-.61-.038-.7-.187-.747-.24-.076-.227-.43.017-.495.103-.027.2-.036.215-.02s.016.46 0 .99c-.022.811-.03.854-.045.272m4.487.397c-.12-.21-.198-.254-.462-.254-.233 0-.317-.036-.317-.135 0-.118.095-.127.74-.076.636.05.777.091.99.283l.25.224-.21-.26c-.196-.243-.223-.408-.443-2.698-.214-2.224-.23-2.62-.098-2.487.072.072.796 5.322.75 5.44-.036.095-.564.216-.937.216-.065 0-.184-.114-.263-.253m-23.364.106c-.317-.022-.445-.066-.445-.154 0-.083.094-.122.297-.122.224 0 .297-.036.3-.148.002-.11.067-.073.253.145.206.24.25.263.25.127-.001-.618.207-3.229.262-3.29.038-.043-.153-.32-.426-.617-.751-.82-1.353-2.21-1.358-3.132 0-.244.281-1.044.369-1.044.02 0 .212.236.426.524l.39.524v.813c0 .9.143 1.578.486 2.288.123.256.217.523.208.592-.01.07-.071.859-.137 1.753-.065.894-.144 1.666-.174 1.715a.17.17 0 0 1-.156.073c-.055-.01-.3-.03-.545-.047m17.052-.547c-.788-.387-1.2-.634-1.134-.676.178-.113.486-.078.486.055 0 .069.05.105.112.082.06-.024.518.147 1.016.38.717.334.904.457.904.595 0 .095-.033.173-.073.173s-.63-.274-1.311-.609m4.908.542c-.028-.046-.093-.765-.144-1.596s-.122-1.588-.158-1.68c-.046-.116-.016-.243.093-.397.425-.604.817-2.295.729-3.143-.033-.316.006-.415.346-.885.211-.29.412-.529.446-.529.033 0 .126.196.206.436.348 1.048-.272 2.811-1.382 3.927-.245.246-.41.46-.366.477s.127.787.186 1.714l.107 1.686.238-.285c.17-.204.239-.245.239-.141 0 .11.073.145.296.145.207 0 .297.038.297.127 0 .088-.089.127-.286.127-.157 0-.4.023-.54.05-.14.029-.278.014-.307-.033m-23.893-.271c.026-.117.204-1.336.395-2.71.19-1.373.362-2.513.381-2.532.135-.137.116.366-.093 2.528L31.13 48l-.247.236-.247.235zm22.51-.212c0-.233.017-.318.036-.19.02.13.02.32 0 .424s-.037 0-.036-.234m-9.923.167c-.669-.187-1.129-.502-1.556-1.066l-.232-.306.445-.16.445-.16.315.315c.728.728 1.875.712 2.664-.036l.267-.254.432.143.431.144-.149.256c-.526.908-1.958 1.433-3.062 1.124zm-10.318-.163-.184-.234-.777.062-.777.061.05-.454c.027-.25.136-1.36.242-2.466.135-1.402.224-2.01.295-2.01.118 0 .409.346.706.841.115.191.363.523.552.737l.343.39-.106 1.572c-.058.865-.118 1.61-.133 1.654-.015.045-.11-.024-.211-.152m21.744.08a84 84 0 0 0-.1-1.627l-.098-1.459.35-.378a8.5 8.5 0 0 0 .725-.967c.35-.546.53-.75.598-.678.032.035.47 4.426.47 4.714-.001.196-.005.197-.758.138l-.757-.06-.214.244c-.19.216-.214.224-.216.074M36.83 48.02c0-.189.999-.691 1.373-.691.369 0 .25.094-.632.498-.63.29-.741.318-.741.193m13.44-.211c-.763-.361-.894-.48-.53-.48.334 0 1.314.518 1.314.695 0 .083-.01.148-.021.143zm-13.933-.414c-.015-.733-.013-.738.175-.668a.32.32 0 0 1 .076.569q-.172.12-.204.478c-.018.198-.04.027-.047-.38m10.778.438c-.03-.049.008-.185.085-.302.116-.178.183-.204.394-.158.207.046.262.026.297-.108.032-.123.124-.166.375-.176.194-.008.333.026.333.08 0 .057-.116.08-.297.059-.172-.02-.297.003-.297.054-.004.23-.139.307-.376.217-.195-.074-.256-.064-.344.057-.059.08-.088.196-.065.256.05.13-.028.146-.105.02m-12.38-.462a10 10 0 0 1 .051-.931l.054-.508-.338-.258c-.692-.528-1.212-1.432-1.403-2.44-.104-.55-.103-1.94.002-1.903.044.016.235.235.423.488.262.352.343.537.343.788 0 .995.65 2.646 1.275 3.24l.357.339-.407-.508a5.6 5.6 0 0 1-.604-.939c-.273-.594-.537-1.67-.537-2.183v-.427l.361.354c.282.277.404.49.556.98.423 1.364 1.357 2.49 2.575 3.108l.7.354-.54-.058c-.682-.072-1.442-.308-1.786-.552-.147-.105-.288-.169-.315-.142-.026.026-.161-.01-.3-.082-.137-.071-.262-.117-.275-.102s-.062.427-.107.916-.083.699-.085.466m2.095.27c0-.145.533-.398.828-.393.2.003.167.037-.235.25-.534.282-.593.296-.593.143m13.631-.143c-.402-.213-.434-.247-.235-.25.295-.005.828.248.828.393 0 .153-.06.139-.593-.143m-10.409-.075a.7.7 0 0 1-.084-.28c.003-.06.049-.022.1.086.081.167.139.189.376.144.154-.028.28-.019.28.022s-.047.075-.105.075-.19.028-.291.06c-.138.045-.209.017-.276-.107m13.011-.555c-.036-.416-.078-.77-.094-.785s-.136.012-.267.062c-.218.082-.204.054.15-.326.664-.709 1.062-1.658 1.258-2.994.085-.583.15-.76.406-1.097.168-.22.331-.403.362-.406.207-.017.166 1.297-.07 2.233-.237.943-.833 1.83-1.51 2.249-.27.168-.273.174-.196.597.043.235.066.606.052.825-.02.31-.04.229-.09-.358m-16.402.548c0-.086.188-.204.544-.34.349-.132.26.059-.118.25-.38.195-.426.205-.426.09m14.203-.074c-.303-.134-.418-.267-.23-.267.152 0 .59.253.59.34 0 .046-.01.08-.022.075zm-12.489-.073c-.239-.046-.252-.279-.015-.279.215 0 .502.147.502.257 0 .083-.14.089-.487.022m5.13-.037c-.287-.08-1.003-.605-1.002-.735 0-.032.148-.137.327-.234.28-.152.348-.16.481-.064.21.154 1.143.149 1.356-.007.145-.106.199-.1.46.057.163.098.31.187.325.198.089.065-.21.398-.517.576-.422.245-.997.329-1.43.209m5.602.01c0-.092.352-.252.556-.252.195 0 .14.23-.07.285-.287.077-.486.064-.486-.033m-11.261-.059c-.36-.065-.4-.193-.06-.193.223 0 .314.037.314.127 0 .07-.01.122-.021.116a2 2 0 0 0-.233-.05m1.482-.024c-.031-.05.07-.084.249-.084.165 0 .301.038.301.084s-.112.085-.249.085-.273-.038-.301-.085m10.54-.057c0-.072.108-.112.302-.112.355 0 .322.133-.046.187-.175.026-.255.002-.255-.075m-11.407-.24c-.697-.152-1.47-.572-2.068-1.126-.72-.667-1.401-1.836-1.557-2.674-.072-.388-.162-.424 1.072.426.657.452.93.693 1.014.896.274.665 1.235 1.41 2.265 1.755.602.202 1.725.246 2.402.095.506-.114 1.354-.425 1.464-.537q.087-.088-.085-.018c-1.692.686-3.143.736-4.318.148-.921-.462-1.743-1.268-1.62-1.59.046-.119.076-.118.314.005.145.075.282.118.304.096s-.038-.472-.133-1c-.176-.975-.198-1.366-.073-1.29.037.024.042.085.01.136q-.053.09.083.04c.077-.03.13-.02.12.022-.012.042.046.126.127.187.1.076.208.417.33 1.044.2 1.019.26 1.146.528 1.136.153-.006.145-.02-.053-.092-.128-.047-.233-.117-.233-.157 0-.085 1.214.344 1.256.443.056.132.503.068.56-.08.031-.08.021-.158-.021-.172a1.2 1.2 0 0 1-.232-.14c-.15-.109-.15-.125 0-.525.176-.47.28-.626.416-.624.052 0 .038.038-.032.084-.073.047-.084.082-.028.083.055 0 .157.023.227.05.076.03.163-.019.217-.119.07-.132.055-.21-.073-.366l-.162-.199.347-.356.346-.355.235.167c.145.103.254.134.287.08a.2.2 0 0 1 .144-.086c.056 0 .05.047-.016.127-.136.164-.246.16-.441-.016-.15-.136-.173-.129-.456.154l-.297.297.164.203c.15.186.153.219.033.403-.107.163-.18.191-.395.15-.25-.046-.272-.029-.407.336l-.142.384.216.099c.179.081.208.14.168.34-.03.147-.017.22.035.19.158-.099.095-.535-.086-.593-.194-.061-.212-.195-.07-.507.059-.128.146-.2.212-.173l.229.093c.072.03.188-.068.305-.258.175-.283.179-.317.053-.457-.178-.196-.173-.257.045-.489.18-.19.184-.19.404-.034.222.158.224.158.507-.073.256-.209.273-.25.18-.426-.116-.215-.05-.298.315-.395.135-.036.234.003.339.132.126.157.2.175.512.125.314-.05.37-.092.413-.3.043-.218.083-.243.376-.243.308 0 .328.015.328.254 0 .192.04.254.16.254.086 0 .27.022.406.05.208.04.263.014.347-.17.099-.217.1-.218.398-.076.318.152.344.205.216.444-.066.124-.023.194.23.373.31.221.31.221.489.054.178-.167.178-.167.42.086l.244.253-.179.191c-.174.187-.174.196-.022.383.086.106.17.232.186.28.02.063.101.062.265 0 .223-.085.243-.072.367.224.076.181.097.326.05.342a1.2 1.2 0 0 0-.232.137c-.127.093-.136.148-.055.357l.095.247-.048-.276c-.026-.151-.014-.275.027-.275s.143-.049.225-.11c.142-.103.142-.127.006-.467-.121-.303-.172-.35-.324-.305-.296.09-.306.087-.453-.15-.135-.217-.134-.239.016-.404.156-.172.154-.18-.089-.449a5 5 0 0 1-.26-.301c-.008-.016-.113.036-.234.115-.204.134-.233.134-.433.003-.18-.117-.207-.186-.166-.412.046-.255.028-.28-.314-.422-.2-.083-.374-.117-.387-.075-.089.265-.243.349-.548.298-.281-.046-.318-.08-.318-.295 0-.234-.015-.243-.413-.243-.386 0-.416.016-.46.242-.041.203-.102.251-.371.295-.177.029-.333.02-.347-.019a1 1 0 0 0-.127-.207c-.093-.125-.134-.122-.471.03-.263.119-.354.204-.318.294l.103.254c.028.07.016.127-.028.127s-.12-.13-.169-.29l-.089-.29.408-.176c.515-.221.572-.22.682.02.07.156.14.19.336.16.17-.024.248-.085.248-.189 0-.36.086-.42.596-.42.493 0 .494 0 .52.27.022.213.076.282.264.332.201.053.252.03.332-.143.051-.113.14-.205.196-.205.117 0 .886.33.886.38 0 .017-.037.129-.082.247-.067.177-.05.236.102.342.168.118.2.114.378-.054.107-.1.204-.166.216-.145.011.02.171.197.354.394l.334.357-.18.192c-.151.162-.162.214-.07.34.08.108.178.135.363.098.24-.048.261-.029.44.41l.187.462.554-.201c.305-.11.632-.242.725-.292.131-.07.162-.066.133.018-.044.132-1.247.592-1.407.538-.177-.06-.438.12-.438.303 0 .134.058.167.301.167.166 0 .283-.03.26-.066s.243-.163.588-.282c.593-.205.855-.21.438-.01-.116.057-.141.094-.063.097a.46.46 0 0 0 .223-.058c.09-.057.558-2.136.481-2.136-.018 0-.188.078-.377.175-.19.096-.358.16-.375.143s.18-.135.437-.262c.259-.127.446-.191.416-.143-.068.11.008.11.219-.002.091-.05.144-.125.117-.169-.027-.043.004-.058.07-.033.1.038.09.208-.064 1.082-.101.57-.214 1.084-.25 1.143-.047.076.024.069.248-.025.49-.204.578-.181.426.112-.34.659-1.132 1.259-2.108 1.598-.529.184-.703.204-1.533.172-.722-.027-1.071-.084-1.529-.248-.929-.335-.957-.341-.506-.119 1.8.888 4.062.55 5.321-.797.221-.236.443-.545.492-.687.068-.195.335-.421 1.096-.931 1.129-.757 1.155-.75.809.203-.763 2.1-2.498 3.357-4.64 3.36-1.164 0-2.784-.458-3.293-.933-.197-.184-.252-.309-.252-.567 0-.182.048-.397.107-.478.1-.137.155-.138.858-.016.413.072.856.13.986.13h.235l-.161-.442c-.365-.996-1.03-1.694-1.887-1.98-.61-.203-1.656-.13-2.214.156-.735.377-1.565 1.444-1.565 2.013 0 .085-.048.174-.106.198-.23.092.462.049 1.163-.073.891-.156.975-.115.975.475 0 .51-.143.657-.975 1.004-1.124.468-2.643.624-3.744.384zm4.296-1.546c0-.073-.011-.116-.024-.097s-.076.103-.14.185c-.1.131-.096.144.025.097.076-.029.139-.112.139-.185m2.662.115c-.09-.066-.182-.102-.204-.08-.047.046.171.197.288.198.044.001.006-.052-.084-.118m4.808 1.302c1.358-.551 2.402-1.756 2.935-3.39.129-.395.278-.65.517-.883.184-.18.356-.307.38-.282.026.025.006.327-.042.672-.322 2.308-1.432 3.676-3.217 3.965q-1.29.21-.573-.082m-6.814-.596c-.119-.07-.148-.204-.148-.677 0-.556.012-.596.217-.673.298-.114.8-.102 1.04.024.18.094.201.165.207.683.004.415-.028.6-.115.655-.164.104-1.017.095-1.201-.012m.717-.483c-.195-.272-.215-.38-.103-.559.101-.163.099-.169-.03-.063-.175.146-.177.298-.005.56.073.113.106.255.072.315-.05.089-.04.09.054 0 .094-.086.096-.136.012-.253zm-2.868-.862c.16-.8.898-1.64 1.709-1.946.691-.26 1.666-.218 2.283.1.729.374 1.336 1.124 1.516 1.874l.06.243-.492-.06c-.27-.033-.504-.096-.52-.14a5 5 0 0 0-.296-.474c-.49-.723-1.49-.996-2.3-.628-.363.166-.973.78-.973.98 0 .164-.053.188-.584.26l-.457.061zm1.072.003c0-.164.383-.627.678-.822.409-.27 1.088-.358 1.563-.201.37.122.85.524 1.02.852l.122.234-.485-.026c-.267-.015-.593-.069-.724-.12a1.57 1.57 0 0 0-1.047.002c-.252.1-1.128.163-1.127.08zm-3.408-.609c-.361-.14-.657-.288-.657-.326 0-.076 1.264.39 1.393.513.136.13-.046.084-.736-.187m-1.686-.065-.309-.133-.213-1.102c-.222-1.15-.247-1.422-.127-1.348.04.025.052.078.026.12-.025.04.029.114.12.163q.324.174.212-.01-.057-.094.043-.033c.057.035.082.086.055.112-.026.027.004.108.068.182.096.11.518 2.125.455 2.168-.011.007-.16-.047-.33-.12zm13.278-.503c.258-1.417.292-1.538.46-1.628.09-.049.145-.122.12-.163-.026-.041-.002-.102.052-.136q.098-.06.033.045c-.048.08-.018.092.114.05.14-.044.18-.022.177.097-.005.2-.388 2.059-.43 2.086-.018.011-.17.083-.338.159l-.306.139zm-11.571.11c-.396-.16-.73-.292-.741-.293-.012 0-.021-.035-.021-.076 0-.09 1.604.513 1.607.604.002.098-.075.077-.845-.235m9.27.212c-.029-.046-.002-.083.06-.084.06-.001.424-.13.808-.285.385-.156.699-.25.699-.208 0 .041-.105.116-.233.166-1.03.405-1.289.485-1.335.41m-11.895-.302c-.392-.223-.762-.529-.762-.63 0-.157 1.097-.001 1.103.157 0 .032.035.2.075.375.041.174.05.317.02.316-.03 0-.226-.098-.436-.218m14.901.055c0-.497.335-.764.947-.755.228.003.3.036.267.12-.04.104-1.058.8-1.17.8-.024 0-.044-.074-.044-.165m-12.137-.38c-.412-.157-.793-.333-.846-.391-.077-.083-.061-.091.072-.038l.868.337c.656.253.912.386.733.38-.042-.003-.415-.132-.827-.288m9.051.22c.124-.11 1.666-.701 1.71-.656.043.042-.305.201-1.144.523-.565.216-.695.247-.566.132m-8.598-.438c-.154-.1-.02-.1.212 0q.168.073.042.078a.5.5 0 0 1-.254-.078m8.975-.084a.5.5 0 0 1 .212-.083c.046 0 .027.037-.043.083a.5.5 0 0 1-.211.082c-.047 0-.028-.037.042-.082m8.047-.064c-.002-.058.242-.373.542-.7 3.941-4.294 5.449-10.596 3.903-16.316-.403-1.493-1.272-3.53-1.905-4.468-.379-.561-.377-.55-.087-.55.226 0 .261.028.24.19-.014.107.242.729.583 1.418 1.4 2.83 1.964 5.443 1.86 8.63-.102 3.109-.882 5.787-2.465 8.455-.77 1.298-2.66 3.662-2.67 3.341m-25.877-.706c-1.222-1.429-2.176-2.91-2.856-4.432-2.224-4.981-2.071-10.646.416-15.445.3-.58.543-1.156.543-1.291 0-.177.041-.246.148-.246q.145-.003.05-.064c-.07-.045-.055-.116.056-.253.281-.347.473-.166.214.203-.068.098-.102.199-.076.225s-.073.223-.22.437c-.448.65-1.334 2.566-1.691 3.659-.67 2.043-.89 3.633-.83 5.98.042 1.628.153 2.487.493 3.826.705 2.777 2.138 5.432 4.054 7.514.29.315.472.572.405.572s-.383-.308-.706-.685m4.104.254c-.587-.468-.793-.77-.47-.689.24.061 1.254.947 1.194 1.045-.08.13-.17.086-.724-.356m3.99.304c-.117-.067-.174-.121-.128-.121.047 0 .18.054.297.12.116.067.173.122.127.122-.047 0-.18-.055-.297-.121m10.16.042a.5.5 0 0 1 .211-.082c.047 0 .028.037-.042.082a.5.5 0 0 1-.212.082c-.047 0-.028-.037.042-.082m3.555-.007c0-.05.124-.203.275-.34l.487-.437c.276-.248.627-.36.558-.178a1 1 0 0 0-.05.157c0 .015-.243.222-.54.459-.536.426-.73.516-.73.34m-17.075-.278c-.131-.157-.325-.33-.43-.384-.212-.11-.529-.671-.529-.937 0-.095-.044-.163-.097-.151-.054.011-.19-.112-.302-.275l-.205-.297.175-.116c.097-.064.175-.189.175-.278 0-.235.251-.08.536.33.32.463.305.625-.048.524-.333-.095-.403-.098-.403-.015 0 .035.12.072.265.082.51.036.97.554.934 1.053-.009.137.071.329.205.487.162.194.186.262.091.262-.07 0-.236-.128-.367-.285m16.868.06a.77.77 0 0 0 .207-.473c0-.329.232-.809.447-.923.093-.05.277-.122.408-.16.232-.066.238-.06.188.2-.08.423-.181.574-.734 1.094-.517.487-.908.686-.516.263m-14.123-.078c-.328-.178-.29-.24.043-.07.319.163.375.205.268.2a1.2 1.2 0 0 1-.31-.13m-1.968-.117c-.236-.098-.607-.509-.712-.787-.082-.217-.073-.233.133-.233.215 0 .789.296.793.41 0 .03.035.199.075.373.079.337.036.372-.289.237m15.319-.237c.065-.374.448-.748.824-.803.233-.034.248-.02.2.182-.06.262-.738.939-.938.939-.117 0-.132-.055-.086-.318m-20.478-.015-.246-.257.787-2.181c.434-1.2.815-2.212.847-2.248s.13.065.216.225l.156.291-.366 1.088c-.202.597-.394 1.125-.426 1.171-.06.085-.159.377-.528 1.55l-.194.618zm25.576-.105c-.073-.202-.242-.69-.377-1.086a225 225 0 0 0-.639-1.845c-.304-.866-.375-1.163-.31-1.286.112-.208.109-.28-.007-.208-.066.04-.065.004.003-.122.116-.217.191-.238.114-.032-.046.122-.033.13.068.049.104-.085.244.233.918 2.096.437 1.208.811 2.18.83 2.16.02-.02-.33-1.042-.778-2.272l-.814-2.237.21-.37c.162-.285.224-.339.265-.232.526 1.372 1.618 4.619 1.577 4.689-.031.05-.252.31-.491.577l-.435.485zm-26.115-.488c-.102-.14-.186-.291-.186-.338 0-.088 1.593-4.59 1.64-4.639.016-.015.116.139.223.341l.195.368-.781 2.15c-.43 1.182-.81 2.2-.843 2.26-.045.079-.114.04-.248-.142m3.099-.122a1.6 1.6 0 0 1-.27-.58l-.06-.317.28.051c.153.028.316.108.363.177.047.07.19.26.317.425.312.4.295.489-.093.5-.27.006-.363-.039-.537-.256m19.966.084c.091-.29.632-.899.797-.899.084 0 .206-.02.272-.046.205-.078.069.476-.2.818-.205.261-.29.306-.583.306-.31 0-.337-.017-.286-.18m-2.212.066c.047-.046.37-.297.72-.56.35-.261.727-.574.84-.694s.236-.219.274-.219c.078 0-.473.507-1.03.946-.38.301-.963.682-.804.527m-15.671-.661c-.374-.3-.734-.613-.801-.697s.127.056.432.31c.305.256.686.567.847.693s.272.23.246.233c-.025.002-.35-.24-.724-.54m18 .068c0-.135-.16-.13-.547.02-.242.092-.06-.396.278-.752.34-.355.438-.39.438-.158 0 .087.056.205.124.262.11.09.104.146-.044.434-.181.356-.25.409-.25.194m-23.821-.514c-.217-.334-.394-.633-.394-.666 0-.032.153.08.339.248.186.169.394.306.46.306.184 0 .205.097.092.424l-.103.296zm3.093.42c-.258-.18-.693-.817-.692-1.013.001-.084.031-.2.067-.257.109-.17.684.051.822.316.063.123.174.272.247.333.188.156.165.251-.048.195-.168-.043-.177-.024-.123.262.064.34.019.368-.273.164m21.853-.14c.046-.284.033-.307-.161-.307-.209 0-.208-.004.105-.378.302-.362.728-.604.888-.505.105.065.093.435-.02.656-.124.241-.498.642-.701.752-.148.08-.157.062-.111-.219m2.859.044c-.11-.264-.069-.436.102-.436.054 0 .241-.14.417-.312s.336-.295.355-.275c.02.02-.145.316-.366.658l-.402.62zm-27.453-.55a1.25 1.25 0 0 1-.408-.33c-.1-.128-.248-.233-.329-.233-.166 0-.646-.79-1.182-1.947-.402-.868-.795-1.948-.708-1.948.034 0 .154.257.266.572.583 1.633 1.067 2.415 1.8 2.905.7.468.916.669.916.851 0 .21-.092.243-.355.13m3.25-.058c-.273-.254-.525-.795-.525-1.127v-.291l.31.158c.323.164.876.854.876 1.092 0 .345-.37.44-.662.168m20.578.117c-.174-.07-.12-.477.11-.815.17-.25.77-.738.907-.738.11 0-.057.765-.232 1.064-.273.465-.497.605-.784.489m3.414-.087c-.087-.225-.054-.268.523-.672.315-.22.68-.498.812-.618.344-.313.75-1.04 1.184-2.122.36-.897.572-1.304.442-.848-.303 1.06-1.559 3.615-1.821 3.705-.071.025-.263.168-.426.318-.347.32-.644.418-.714.237m-27.014-.48c-.144-.107-.17-.234-.184-.884-.015-.727-.039-.813-.53-1.957-.478-1.112-.614-1.515-.446-1.315.037.044.157.309.267.588.11.28.384.878.61 1.33.224.453.4.892.39.975s.034.311.098.508c.08.246.093.44.04.618-.07.243-.088.252-.245.137m4.021-.012c-.093-.112.162-.127 2.212-.124 2.057.002 2.3.016 2.154.127-.247.186-4.21.183-4.366-.003zm4.567.006c.15-.18 5.278-.182 5.428 0 .087.103.019.121-.464.121-.356 0-.547-.031-.514-.084.03-.047.015-.085-.032-.085a.18.18 0 0 0-.134.08c-.028.044-.545.08-1.15.08-.673 0-1.082-.03-1.052-.08.028-.044.012-.08-.035-.08-.046 0-.108.038-.137.085-.028.046-.238.084-.465.084s-.437-.038-.466-.084-.09-.085-.137-.085-.061.038-.032.085c.032.052-.13.084-.429.084-.408 0-.466-.018-.38-.12m5.63-.003c-.148-.112-.091-.125.588-.127.658-.002.738.013.645.124-.141.17-1.008.173-1.232.003zm1.403-.003c.058-.07.23-.127.38-.127.152 0 .324.057.382.127.091.11.041.127-.381.127-.423 0-.473-.017-.381-.127m.924-.008c-.085-.102.048-.118.906-.11.613.006 1.054.047 1.128.106.094.075.108.073.059-.009-.05-.084.429-.105 2.29-.103 2.102.002 2.337.016 2.189.128-.242.183-6.42.172-6.572-.012m10.309-.172a1.2 1.2 0 0 1 .076-.61c.07-.166.106-.353.082-.416-.024-.062.14-.484.366-.935s.516-1.098.647-1.436c.13-.338.27-.614.308-.614.084 0-.149.612-.629 1.651-.313.679-.356.851-.396 1.575-.042.75-.149 1.092-.341 1.092-.035 0-.086-.138-.113-.307m-27.595-.35c-.267-.174-.509-.393-.537-.486a7 7 0 0 0-.329-.72c-.36-.712-.91-2.189-.863-2.315.02-.054.065-.022.1.072.812 2.158.992 2.484 1.537 2.788.216.121.41.203.43.183s-.038-.076-.129-.125c-.103-.055-.181-.209-.208-.413-.024-.178-.205-.722-.403-1.21-.487-1.203-.596-1.52-.524-1.52.034 0 .171.296.304.657.302.816.69 1.6.942 1.901.158.19.18.282.126.524a1.9 1.9 0 0 0-.003.638c.035.19.059.344.053.344s-.228-.144-.496-.318m4.995.256a11 11 0 0 1 1.058 0c.292.016.053.03-.529.03s-.82-.014-.529-.03m1.672-.022c-.03-.05-.509-.085-1.149-.085h-1.097l-.248-.275c-.383-.425-.45-.586-.349-.85l.087-.23h3.3c1.881 0 3.32.033 3.346.077.026.042-.029.057-.122.033-.12-.032-.17-.003-.17.1 0 .08.077.165.17.19.147.038.17.115.17.584 0 .49-.096.705-.194.435-.03-.085-.075-.085-.219 0-.164.097-.18.088-.18-.1 0-.194-.193-.472-.328-.472s-.265.216-.265.44c0 .13-.038.238-.085.238a.085.085 0 0 1-.084-.085c0-.122-.316-.104-.374.021-.04.085-.06.085-.1 0-.026-.058-.118-.106-.204-.106s-.177.048-.204.106c-.04.085-.06.085-.1 0-.06-.132-.348-.14-.391-.01-.023.068-.087.062-.221-.021-.158-.098-.201-.099-.26-.004-.06.095-.102.095-.263 0-.15-.09-.2-.091-.23-.008-.046.127-.164.138-.236.021zm2.837-.164c0-.137.04-.274.088-.304.135-.084.335.126.335.351 0 .159-.045.202-.212.202-.177 0-.211-.04-.211-.25m1.185-.471c0-.583.024-.72.127-.72s.127.137.127.72-.024.72-.127.72-.127-.137-.127-.72m.339.18c0-.48.02-.547.178-.588.207-.054.17-.282-.039-.245-.077.014-.14-.014-.14-.063 0-.06 1.052-.088 3.26-.088 2.117 0 3.26.03 3.26.084 0 .047-.057.085-.127.085-.188 0-.154.227.042.278.146.039.17.116.17.56 0 .288-.038.517-.085.517a.085.085 0 0 1-.085-.085c0-.123-.316-.104-.367.021-.023.058-.046-.013-.05-.159-.008-.333-.19-.504-.404-.378-.134.08-.127.088.06.07.181-.017.215.019.238.255.023.246.003.276-.191.276-.178 0-.219-.042-.227-.233-.006-.143-.025-.176-.048-.085a.21.21 0 0 1-.195.148c-.086 0-.176.048-.2.106-.031.08-.064.074-.13-.021-.069-.098-.124-.106-.24-.034-.11.069-.192.069-.302 0-.116-.072-.169-.064-.232.034-.07.107-.094.109-.158.009a.184.184 0 0 0-.212-.066c-.104.04-.136-.002-.136-.183 0-.129-.045-.28-.101-.336-.113-.112-.459-.137-.52-.037-.023.035.08.063.227.063.248 0 .27.023.294.317.025.313.021.318-.276.318-.28 0-.302-.019-.313-.275-.008-.2-.021-.223-.048-.085-.022.115-.098.19-.193.19-.086 0-.178.048-.206.106-.04.085-.059.085-.098 0a.2.2 0 0 0-.163-.106.2.2 0 0 0-.162.106c-.04.085-.06.085-.099 0-.027-.058-.119-.106-.204-.106-.086 0-.178.048-.205.106-.04.085-.06.085-.099 0-.058-.125-.374-.143-.374-.021 0 .047-.114.085-.254.085-.204 0-.254-.036-.254-.184 0-.101.063-.254.14-.339.171-.189.094-.207-.091-.022a.6.6 0 0 0-.135.36c0 .177-.019.199-.082.1-.067-.105-.11-.109-.252-.02-.166.102-.172.087-.172-.435zm1.026.009c-.083-.083-.093-.074-.047.047.032.084.079.13.105.105s0-.095-.058-.152m5.647-.19c-.022-.595-.005-.72.1-.72s.122.125.1.72c-.015.396-.06.72-.1.72s-.085-.324-.1-.72m.27.204c0-.444.023-.522.169-.56a.23.23 0 0 0 .169-.213q.002-.171-.127-.12c-.07.027-.127.012-.127-.033 0-.051 1.242-.082 3.34-.082h3.341l.056.297c.048.259.015.347-.256.678l-.312.38h-1.13c-.769 0-1.14.03-1.162.096-.023.069-.09.063-.23-.021-.155-.092-.206-.094-.236-.011-.046.125-.278.143-.278.02 0-.046-.057-.084-.127-.084s-.127.038-.127.085c0 .046-.057.084-.127.084s-.127-.038-.127-.084-.057-.085-.127-.085-.127.038-.127.085c0 .046-.057.084-.127.084s-.127-.038-.127-.084-.057-.085-.127-.085-.127.038-.127.085c0 .122-.233.104-.279-.021-.03-.085-.074-.085-.218 0-.164.097-.18.088-.18-.1a.55.55 0 0 0-.134-.339c-.185-.185-.262-.167-.091.022.077.085.14.237.14.339 0 .158-.048.183-.339.183-.186 0-.339-.038-.339-.084s-.076-.085-.169-.085-.17.038-.17.085a.085.085 0 0 1-.084.084c-.047 0-.085-.228-.085-.516m.794.046c.029-.075.014-.109-.034-.08-.046.03-.083.088-.083.132 0 .122.06.095.117-.052m3.756.408a11 11 0 0 1 1.058 0c.292.016.053.03-.529.03s-.82-.014-.529-.03m5.61-.223c0-.309.202-.534.749-.831.345-.188.517-.486 1.004-1.737.223-.571.433-1.04.466-1.04.093-.002-.41 1.39-.779 2.158a10 10 0 0 0-.381.868c-.03.106-.282.345-.558.533l-.502.34zm-27.105-.264c-.162-.451-.106-.564.107-.214.099.162.131.313.091.422-.053.142-.084.109-.198-.208m26.344.105c.002-.19.332-.7.335-.518.003.123-.242.708-.295.708-.023 0-.04-.085-.04-.19m.76-.61c0-.274.04-.405.131-.44.187-.072.58-.887 1.136-2.348.05-.135.115-.223.141-.196.027.026-.168.586-.434 1.244-.265.657-.486 1.317-.49 1.466-.006.187-.081.33-.246.467l-.238.197zM33.148 38.3c-.08-.122-.104-.196-.053-.164.098.06.295.386.234.386-.02 0-.101-.1-.181-.222m21.631-.032c.1-.14.2-.254.224-.254s-.04.115-.139.254c-.1.14-.2.254-.223.254s.039-.114.138-.254m-25.437-.018a.74.74 0 0 1-.132-.342c0-.084-.09-.333-.202-.553-.263-.52-.743-1.88-.663-1.88.034 0 .154.257.265.571.303.85.723 1.741.882 1.873.15.123.196.519.061.519-.043 0-.139-.085-.211-.188m29.068.08a.61.61 0 0 1 .18-.527c.126-.137.702-1.447.963-2.192.031-.089.08-.137.109-.108.06.06-.099.512-.567 1.622-.176.42-.343.863-.37.986-.051.23-.297.401-.315.218m-18.363-.059c0-.045.057-.06.127-.033s.127.064.127.082-.057.033-.127.033-.127-.037-.127-.082m.746.024c.062-.024.135-.021.163.007s-.022.048-.111.045c-.099-.004-.12-.024-.052-.051zm-9.74-.12c-.228-.128-.63-.766-.673-1.069-.037-.256-.026-.27.178-.223.272.063.825.429.886.586.044.114-.088.613-.192.73-.029.033-.118.022-.199-.024m25.577-.253c-.144-.479.111-.82.75-1.001.27-.078.27-.077.222.19-.086.467-.585 1.157-.837 1.157-.017 0-.078-.155-.135-.346m-19.652.029c-2.913-.02-3.365-.04-3.365-.15 0-.106.224-.125 1.468-.125 2.769 0 5.298.103 5.456.222.135.103.133.11-.024.094-.093-.01-1.684-.028-3.535-.04m10.38 0c.022-.035-1.45-.053-3.269-.04-2.255.017-3.336-.004-3.398-.065-.064-.064.94-.089 3.422-.084 1.932.004 5.026-.02 6.877-.053 3.13-.056 3.366-.05 3.366.083s-.25.142-3.379.12c-1.858-.014-3.36.005-3.339.039.022.035-.041.064-.14.064s-.162-.03-.14-.064m-14.677-.36c-.05-.093-.071-.17-.048-.17s.083.077.133.17.072.17.048.17-.083-.077-.133-.17m5.25-.085c0-.055 2.074-.084 6.053-.084s6.054.029 6.054.084-2.074.085-6.054.085c-3.979 0-6.053-.029-6.053-.085m-6.692-.384c-.27-.277-.293-.345-.322-.935l-.033-.635.285.158c.157.088.369.308.472.49.19.338.188.501-.016.989l-.096.232zm1.188.046c-.05-.093-.071-.17-.048-.17s.083.077.133.17.072.17.048.17-.083-.077-.133-.17m5.944-.275c.023-.404.045-.447.237-.468.183-.02.192-.011.063.067-.105.065-.148.2-.148.468 0 .208-.04.377-.089.377-.054 0-.079-.173-.063-.444m.244.099c-.006-.326.025-.406.194-.496.17-.09.236-.085.424.038.182.12.22.207.215.495-.004.193-.026.303-.05.245-.023-.058-.112-.106-.197-.106s-.175.048-.198.106c-.034.084-.044.084-.05 0-.003-.058-.06-.106-.126-.106a.19.19 0 0 0-.163.106c-.023.058-.046-.069-.05-.282m.94.016c-.01-.241-.068-.411-.164-.484-.131-.1-.11-.113.186-.115.284-.002.313.012.194.103-.082.062-.152.263-.17.487l-.032.38zm.16.03c-.004-.242.043-.382.164-.486.187-.16.422-.195.422-.061 0 .046.057.084.127.084.096 0 .126.099.12.403-.003.22-.025.354-.049.296a.18.18 0 0 0-.155-.106.18.18 0 0 0-.156.106c-.034.085-.044.085-.05 0-.003-.058-.079-.106-.168-.106s-.182.048-.205.106c-.024.058-.046-.048-.05-.235m.94-.056c-.01-.279-.06-.424-.163-.485-.116-.067-.066-.085.233-.083.33.003.356.015.194.094-.143.069-.193.18-.217.48l-.031.392zm.154.026c0-.262.046-.358.226-.476.207-.136.244-.137.444-.016.168.101.225.212.245.477.016.202-.01.344-.063.344-.05 0-.09-.038-.09-.084 0-.122-.232-.105-.282.02-.034.085-.044.085-.05 0-.008-.124-.26-.144-.26-.02a.085.085 0 0 1-.085.084c-.047 0-.085-.148-.085-.329m1.031 0c-.01-.241-.067-.411-.163-.484-.131-.1-.11-.113.186-.115.284-.002.313.013.194.103-.082.062-.152.263-.17.487l-.032.38zm.161-.03c-.005-.305.025-.403.12-.403.07 0 .128-.038.128-.084s.076-.085.169-.085.17.038.17.085c0 .046.056.084.126.084.096 0 .126.098.12.402-.003.222-.025.355-.049.297a.18.18 0 0 0-.155-.106.2.2 0 0 0-.163.106c-.04.084-.059.084-.098 0a.2.2 0 0 0-.163-.106.18.18 0 0 0-.155.106c-.024.058-.046-.075-.05-.297m.94.003c-.01-.278-.06-.423-.163-.484-.119-.069-.08-.086.19-.086.293 0 .32.015.196.108-.083.064-.156.264-.175.485l-.033.375zm.154.027c0-.444.245-.602.928-.602.638 0 .85.152.85.611 0 .176-.038.32-.084.32a.085.085 0 0 1-.085-.085c0-.046-.057-.084-.127-.084s-.127.038-.127.084-.19.085-.423.085-.424-.038-.424-.085c0-.046-.076-.084-.169-.084s-.17.038-.17.084a.085.085 0 0 1-.084.085c-.047 0-.085-.148-.085-.329m1.878-.027c-.01-.278-.06-.423-.163-.484-.119-.069-.08-.086.19-.086.293 0 .32.015.196.108-.083.064-.156.264-.175.485l-.033.375zm.161.048c-.005-.288.033-.375.215-.495.188-.123.254-.129.424-.038.169.09.2.17.194.496-.003.213-.026.34-.05.282a.18.18 0 0 0-.155-.106.18.18 0 0 0-.155.106c-.034.084-.044.084-.05 0-.003-.059-.08-.106-.169-.106s-.181.047-.205.106-.045-.052-.049-.245m.925-.069c0-.27-.043-.401-.149-.463-.116-.068-.066-.086.233-.086s.35.018.233.086c-.106.062-.148.194-.148.463 0 .208-.038.377-.085.377-.046 0-.084-.17-.084-.377m.26.017c-.005-.304.025-.402.12-.402.07 0 .128-.038.128-.085 0-.133.235-.099.422.062.121.103.168.244.164.486-.004.188-.026.294-.05.236-.023-.059-.112-.106-.198-.106-.085 0-.174.047-.198.106-.034.084-.044.084-.049 0-.004-.059-.06-.106-.127-.106a.19.19 0 0 0-.162.106c-.024.058-.046-.076-.05-.297m.94.004c-.01-.278-.06-.423-.163-.484-.12-.07-.082-.087.185-.089.285-.002.314.013.195.103-.082.063-.152.264-.17.487l-.032.381zm.161.057c-.005-.242.042-.383.164-.487.187-.16.422-.194.422-.06 0 .046.057.084.127.084.096 0 .125.098.12.402-.003.221-.026.355-.05.297a.18.18 0 0 0-.155-.106.18.18 0 0 0-.155.106c-.034.084-.044.084-.05 0-.003-.059-.08-.106-.169-.106s-.181.047-.205.106-.045-.048-.049-.236m.925-.078c0-.27-.043-.401-.149-.463-.116-.068-.066-.086.233-.086s.35.018.233.086c-.106.062-.148.194-.148.463 0 .207-.038.377-.085.377-.046 0-.084-.17-.084-.377m.26.031c-.005-.325.026-.405.195-.495.17-.091.236-.085.423.038.183.12.221.207.216.495-.004.193-.026.303-.05.245-.023-.059-.112-.106-.198-.106-.085 0-.174.047-.198.106-.034.084-.044.084-.049 0-.004-.059-.06-.106-.127-.106a.19.19 0 0 0-.162.106c-.024.058-.046-.07-.05-.283m.925-.03c0-.27-.042-.402-.148-.464-.132-.077-.128-.087.042-.089.175-.002.19.036.19.463 0 .256-.018.466-.042.466-.023 0-.042-.17-.042-.377m6.782.072a1.084 1.084 0 0 1 .607-1.374l.234-.098-.045.546c-.056.687-.14.91-.413 1.088-.119.078-.23.142-.245.142s-.077-.137-.138-.303m-25.698-.208c-.135-.04-.277-.055-.314-.032-.112.07-.471-.577-.511-.918a1.7 1.7 0 0 1-.022-.316c.17 0 .669.32.826.528.17.228.394.845.296.82zm26.504-.153c.09-.39.43-.829.779-1.001l.337-.167v.27c0 .148-.082.415-.182.593-.15.267-.254.342-.584.427l-.401.102zm-25.16-.359c-.075-.144-.12-.277-.102-.295.018-.019.096.1.174.262.174.365.114.393-.072.033m6.142-.077c0-.055 2.018-.084 5.884-.084s5.885.029 5.885.084-2.018.085-5.885.085-5.884-.029-5.884-.085m-.293-.248c-.027-.044.002-.11.065-.149a.6.6 0 0 0 .184-.238c.064-.155.073-.156.106-.017.028.116.08.136.22.084.24-.087 10.965-.087 11.205 0 .14.052.193.032.223-.084.036-.133.048-.128.101.036a.41.41 0 0 0 .232.242c.136.043.147.07.054.128-.16.102-12.327.1-12.39-.003zm18.333-.048c0-.047.054-.18.121-.296.067-.117.121-.174.121-.127s-.054.18-.121.296-.121.174-.121.127m-24.46-.258c-.143-.31-.116-.377.038-.094.071.132.114.256.095.275s-.08-.062-.134-.18m-1.025-.165c-.146-.352-.158-1.025-.02-1.16.165-.163.477.235.606.776.117.484.073.597-.171.444-.214-.133-.232-.13-.274.046-.027.113-.06.089-.141-.106m-3.176.02-.124-.393c-.112-.35-.112-.347-.01-.347.046 0 .108.096.137.214s.135.27.235.34c.154.11.162.14.054.21-.173.109-.254.103-.292-.023m29.164.043c0-.035.056-.244.123-.465.135-.446.373-.82.525-.823.142-.004.222.448.153.867-.077.46-.113.515-.263.39-.093-.076-.147-.078-.22-.003-.11.11-.32.132-.318.034zm3.657-.009c-.085-.054-.058-.149.12-.421.127-.194.245-.338.262-.32.048.048-.158.814-.219.812a.5.5 0 0 1-.163-.07m-30.401-.541c-.188-.942-.193-1.187-.033-1.536l.152-.329.231.334c.31.448.316.943.013 1.27-.175.19-.207.288-.165.512.029.153.02.278-.02.278s-.12-.238-.178-.53m27.997.236c.026-.23-.017-.357-.194-.567-.201-.24-.221-.317-.17-.655.031-.212.148-.492.258-.624l.202-.239.135.321c.135.32.133.485-.021 1.542-.074.507-.268.711-.21.222m-19.119.123c0-.055 1.792-.084 5.207-.084s5.207.029 5.207.084-1.792.085-5.207.085-5.207-.029-5.207-.085m-11.066-.221a4 4 0 0 0-.328-.402c-.1-.102-.224-.409-.285-.702-.13-.618-.078-.892.076-.41.06.186.233.472.385.635.344.368.728.98.658 1.049-.119.119-.364.036-.506-.17m.864.147c-.223-.048-.25-.086-.225-.308.017-.139.083-.381.149-.538s.118-.471.118-.699c0-.705.128-.456.308.603.191 1.12.212 1.063-.35.942m1-.116c-.094-.105-.214-.41-.266-.68-.08-.414-.073-.533.046-.783.097-.204.162-.262.208-.188.049.076.068.064.069-.042.002-.218-.157-.18-.268.063-.12.262-.204.269-.27.021-.13-.484-.03-.866.349-1.332.019-.023.076.034.128.127.056.099.09.547.083 1.092-.006.508.02.985.057 1.059.106.207.187.853.107.853-.039 0-.148-.085-.242-.19m28.628-.212c.147-1.103.147-1.276.003-1.58-.171-.36-.243-.375-.432-.087q-.281.431-.284-.45c0-.285.06-.558.168-.76.093-.174.17-.257.17-.184 0 .072.095.221.211.33.172.162.214.289.226.672.014.447.017.452.046.09.016-.209.053-.437.082-.507s.059-.321.066-.558c.013-.406.177-.966.284-.966.027 0 .148.095.27.211.208.2.217.243.162.769-.074.723-.182.833-.42.43-.1-.17-.199-.31-.219-.31-.06 0 .215.494.307.55.106.066.11.888.005 1.055-.062.098-.099.076-.183-.108-.109-.24-.253-.263-.31-.052-.027.102-.02.103.05.005.063-.09.114-.047.228.194.126.264.134.379.055.77-.163.816-.586 1.238-.485.487zm.725.286c0-.144.235-1.452.314-1.746.046-.17.07-.118.117.254.033.256.127.685.21.952.082.268.133.501.114.518s-.197.055-.395.085c-.279.043-.36.029-.36-.063m.847.025c0-.127.585-.996.722-1.073.062-.035.192-.25.29-.477.097-.228.195-.397.217-.375.079.08-.245 1.34-.345 1.34-.056 0-.15.115-.208.256-.11.265-.311.42-.544.42-.073 0-.132-.04-.132-.091m-21.178-.184c-.112-.092-.098-.137.11-.358.187-.197.24-.22.24-.106 0 .17.036.178.25.064.118-.063.169-.05.208.052.042.109.076.115.178.03.085-.07.126-.265.126-.602v-.498h8.636v.546c0 .519.09.75.215.55.031-.052.148-.07.26-.043.155.04.202.017.202-.097 0-.117.05-.095.239.104.444.47.51.464-5.277.464-4.082 0-5.288-.023-5.387-.106m17.889-.02c0-.047.05-.219.114-.382.062-.163.115-.24.116-.17s-.05.242-.113.382c-.064.14-.117.216-.117.17m-28.429-.324c-.134-.283-.14-.382-.047-.92.057-.333.179-.775.27-.983.093-.208.17-.535.173-.727.008-.494.125-.17.202.561.041.39.031.572-.03.572-.054 0-.093.184-.095.444a3.4 3.4 0 0 1-.162.907l-.16.462zm3.322.15a.7.7 0 0 1-.047-.236c.003-.054.042-.008.087.104s.065.218.047.236c-.019.019-.058-.028-.087-.103m28.308-.144a1 1 0 0 0-.124-.403c-.067-.116-.122-.408-.124-.649-.002-.24-.038-.45-.082-.465-.1-.036.07-1.426.175-1.426.04 0 .073.202.073.45 0 .246.036.484.08.528.126.126.344 1.05.344 1.459 0 .383-.116.696-.257.696-.045 0-.083-.086-.085-.19m-20.249-.805c-.026-.572-.004-.783.097-.928.184-.264.282-.238.217.057-.047.215-.027.258.141.299.108.026 2.025.037 4.26.024l4.065-.023.026-.275c.026-.266.185-.4.185-.156 0 .066.033.133.073.149s.046.39.013.832c-.057.762-.06.774-.073.233l-.013-.572h-8.805v.55c0 .818-.147.667-.186-.19m-11.81.305c-.101-.11-.265-.387-.363-.616-.177-.415-.178-.419-.013-.583.196-.196.37-.15.568.152.119.182.13.305.068.732l-.075.514zm32.455-.338c-.054-.513-.047-.537.217-.81.268-.276.275-.278.433-.12.155.155.156.18.023.581-.077.23-.247.522-.378.648l-.24.23zm-3.265.048c.004-.099.024-.119.051-.052.025.062.022.135-.007.163s-.048-.022-.044-.111m-25.739-.085c.004-.099.024-.119.052-.051.024.061.021.134-.007.162s-.048-.022-.045-.111m25.824-.254c.004-.099.024-.119.05-.051.025.06.022.134-.006.162s-.048-.022-.044-.111m-25.908-.085c.004-.098.024-.118.05-.05.025.06.022.133-.006.161s-.048-.022-.044-.11m-.789-.289c-.125-.201-.319-.224-.319-.037 0 .076-.04.107-.095.073-.155-.096-.022-.857.198-1.135.106-.136.213-.248.237-.251.153-.017.372.919.295 1.265-.065.296-.167.323-.316.085m26.781.035c.004-.098.024-.118.052-.05.024.06.021.133-.007.161-.028.029-.048-.021-.045-.11m-30.245-.24a10 10 0 0 0-.021-.38c-.008-.074 3.807-4.172 3.931-4.223.034-.014.029.139-.01.338-.038.2-.072.41-.074.469-.003.104-3.597 4.018-3.738 4.072-.042.015-.081-.109-.088-.276m32.567-1.685c-1.645-1.774-1.87-2.05-1.927-2.366-.035-.197-.054-.407-.042-.467s.786.702 1.72 1.693c2.444 2.591 2.276 2.376 2.187 2.796l-.075.352zm-31.48 1.738c-.183-.202-.043-.681.294-1.004l.24-.23v.301c0 .25-.286 1.085-.372 1.085a.8.8 0 0 1-.162-.152m3.081.018c.004-.099.024-.119.051-.051.025.06.022.134-.007.162s-.048-.022-.044-.111m28.928-.23a2.2 2.2 0 0 1-.148-.68v-.324l.214.254c.117.14.256.375.307.523.08.228.07.292-.065.427-.156.156-.163.152-.308-.2m-2.766-.024c.004-.099.024-.119.051-.051.025.06.022.134-.007.162s-.048-.022-.044-.111m-26.24-.205c0-.116.02-.164.043-.105a.33.33 0 0 1 0 .211c-.024.058-.043.01-.043-.106m-1.911-.157c-.028-.045-.075-.315-.105-.6-.049-.466-.034-.539.142-.727.108-.115.227-.209.264-.209.11 0 .222.272.308.744.066.363.06.44-.037.421-.064-.012-.164.07-.221.183-.116.228-.274.313-.351.188m-2.295-.379c-.059-.388-.047-.424.235-.72 3.256-3.412 3.953-4.196 3.843-4.326a1 1 0 0 1-.166-.28c-.056-.159-.227-.206-.227-.064 0 .046-.041.084-.09.084-.101 0-.056-.214.145-.688.105-.247.394-.497.576-.497.09 0 .122.676.044.931-.05.163-.108.506-.13.762a5 5 0 0 1-.102.692c-.034.125-.786.995-1.671 1.934s-1.786 1.904-2.002 2.144l-.393.437zm30.537.198c0-.117.02-.164.043-.106a.33.33 0 0 1 0 .212c-.023.058-.043.01-.043-.106m2.08-2.019c-1.965-2.078-1.99-2.108-2.05-2.545-.033-.243-.043-.46-.022-.481.022-.022.99.968 2.15 2.198l2.11 2.237-.032.347c-.019.191-.064.347-.101.347s-.963-.946-2.056-2.103M30.75 32.131c.001-.14.02-.187.042-.104a.5.5 0 0 1-.003.254c-.024.057-.041-.01-.04-.15m-1.034-.213c-.14-.337-.058-.898.163-1.134.097-.103.178-.243.18-.31.002-.066.077.012.166.175.16.291.24 1.197.106 1.176-.172-.028-.26.025-.3.179-.064.244-.193.209-.315-.086m28.206.035c-.082-.182-.122-.202-.225-.117-.107.09-.125.043-.125-.327 0-.237.065-.565.143-.73.145-.303.28-.393.28-.185 0 .062.077.183.17.267.265.24.204 1.312-.074 1.312-.038 0-.113-.099-.169-.22m-.665-.457c0-.21.016-.295.036-.19s.02.276 0 .38c-.02.105-.036.02-.036-.19m-30.585-.487c-.002-.29.031-.529.073-.529.122 0 .15.768.034.92-.087.115-.105.047-.107-.39m4.009-.487c0-.558.014-.776.03-.483.017.293.017.75 0 1.016s-.03.026-.03-.533m30.504.833c-.085-.085-.065-.646.028-.79.058-.09.082.014.083.36.002.491-.009.532-.111.43m-34.262-.559c0-.3-.032-.4-.127-.4-.07 0-.127-.033-.127-.073 0-1.069.488-4.259.682-4.453.106-.107.11-.134-.132.929-.119.523-.216 1.228-.222 1.612-.01.583.03.79.27 1.422l.28.74-.312.312-.312.312zm33.798.082-.281-.29.28-.71c.25-.632.28-.795.27-1.472-.008-.66-.232-1.972-.414-2.435-.032-.081-.023-.148.02-.148.171 0 .59 2.236.672 3.586.044.718.032.933-.056.987-.062.038-.135.228-.162.42l-.049.352zm-19.298-.757c-.33-.54-.481-.718-.592-.693-.32.07-1.259.301-1.42.35-.115.033-.02-.123.298-.492.257-.298.518-.607.58-.688.099-.127.058-.235-.316-.842-.236-.383-.419-.707-.405-.72s.339.108.724.27.732.295.771.295.327-.292.638-.649l.567-.649-.052.501c-.028.276-.06.672-.071.882l-.021.38.737.302c.406.167.758.322.782.346s-.27.111-.655.194c-.959.206-.993.23-1.002.707-.004.22-.032.587-.063.816l-.056.416zm4.634.3c0-.223-.025-.604-.054-.846l-.052-.44-.789-.19c-.434-.104-.773-.214-.755-.244s.36-.184.758-.344l.725-.29-.05-.762c-.028-.42-.067-.82-.087-.889-.032-.113.227.161.919.972l.215.253.75-.307c.412-.169.762-.294.778-.28.016.015-.163.34-.397.72l-.427.695.541.643c.298.354.533.652.522.663-.01.01-.38-.072-.819-.184-.606-.154-.815-.179-.868-.102-.037.056-.224.36-.415.675s-.38.594-.42.619c-.041.025-.075-.138-.075-.362m-18.5-.039c-.07-.185.095-.563.46-1.047.361-.477.403-.581.517-1.281.138-.848.35-1.723.419-1.723.036 0-.004.296-.089.656s-.197 1.019-.25 1.461c-.13 1.092-.195 1.264-.63 1.691-.288.282-.39.34-.426.243m32.377-.351-.39-.44-.144-1.058c-.078-.582-.2-1.281-.27-1.554-.07-.272-.111-.538-.092-.592.05-.137.218.506.407 1.55.12.66.22.966.393 1.207.401.557.61.948.612 1.145.002.275-.079.235-.516-.258m-32.667-.426c-.178-.44-.184-.514-.09-1.09.264-1.62.544-2.776.672-2.776.037 0 0 .244-.083.543-.219.787-.432 2.116-.37 2.302.029.088.13.314.225.502.17.34.17.343.005.666l-.167.325zm33.097.107c-.107-.325-.101-.377.082-.722.237-.447.212-.924-.122-2.304-.237-.979-.242-1.014-.135-.9.111.116.496 1.71.564 2.337.033.295.093.602.134.682.074.144-.176 1.026-.336 1.186-.04.039-.123-.087-.187-.28m-3.109-.206c.001-.186.018-.252.039-.147.02.105.019.258-.002.339-.021.08-.038-.005-.037-.192m-29.48-.286c-.07-.13-.054-.232.07-.45a3 3 0 0 0 .255-.745c.224-1.124.462-2.024.524-1.985.037.022.031.145-.012.272-.15.441-.419 1.903-.419 2.28 0 .247-.057.452-.164.588-.16.203-.166.204-.254.04m32.214-.006c-.11-.121-.167-.334-.185-.686-.015-.28-.126-.95-.246-1.489-.121-.538-.2-.997-.178-1.02.056-.056.186.423.394 1.455.093.466.247 1.002.342 1.19.121.242.151.401.102.535l-.07.19zm-31.203-.139c0-.091.055-.246.124-.343.068-.097.1-.201.07-.23-.03-.03-.018-.054.025-.054s.123.072.178.159c.084.134.06.196-.15.397-.222.213-.247.22-.247.071m30.162-.054c-.217-.231-.237-.345-.082-.473.082-.068.135-.03.218.158.06.136.098.308.082.383-.022.112-.061.1-.218-.068m-28.198-.107c.001-.14.02-.187.042-.105a.5.5 0 0 1-.003.254c-.024.058-.041-.01-.04-.15m-3.199-.157c-.028-.073-.01-.258.039-.411.049-.154.17-.672.267-1.152.166-.81.4-1.61.415-1.411.003.047-.09.504-.205 1.016-.116.51-.211 1.144-.212 1.406q0 .477-.127.58c-.102.085-.135.08-.177-.028m29.611-.055c0-.116.02-.164.043-.106a.33.33 0 0 1 0 .212c-.023.058-.043.01-.043-.106m3.07.072c-.034-.054-.072-.349-.087-.656s-.12-.94-.234-1.405c-.185-.751-.214-.997-.103-.883.048.05.474 1.975.474 2.146 0 .078.057.252.126.386.172.333.01.713-.177.412m-31.093-.335c-.133-.212-.06-.78.119-.928.128-.106.17-.374.048-.298-.117.072.074-.826.206-.973a.47.47 0 0 0 .12-.245c0-.06.094.028.21.197.21.31.271.68.177 1.07-.03.122-.024.158.014.085.036-.07.138-.234.227-.365l.162-.24.116.278c.115.273.112.281-.275.662l-.392.385.059-.286c.042-.2.031-.268-.035-.227-.055.034-.157-.05-.242-.2-.081-.143-.173-.26-.205-.26-.073 0 .17.488.274.553.159.098.084.598-.116.786-.245.23-.327.23-.467.006zm29.254-.06c-.267-.278-.288-.508-.071-.788.086-.11.178-.259.205-.328.039-.103.05-.105.055-.007a.56.56 0 0 0 .14.269c.226.249.298.741.137.93-.18.209-.197.206-.466-.076zm-27.569-.065c.004-.099.024-.119.052-.051.024.06.021.134-.007.162s-.048-.022-.045-.111m26.254-.205c0-.116.019-.164.042-.106a.33.33 0 0 1 0 .212c-.023.058-.042.01-.042-.106m-26.162-.254c0-.116.019-.164.042-.106a.33.33 0 0 1 0 .212c-.023.058-.042.01-.042-.106m26.715-.244c-.224-.24-.466-.577-.537-.748-.125-.297-.176-1.091-.077-1.19.11-.109.509.217.652.531.17.373.225.887.066.614-.048-.081-.117-.148-.153-.148-.084 0-.285.43-.228.488.024.023.088-.058.144-.18l.101-.223.112.19c.247.423.377.767.353.93-.022.146-.088.106-.433-.264m-.645.11c.004-.098.024-.118.052-.05.024.06.021.133-.007.161s-.048-.022-.045-.11m-25.992-.254c.004-.098.024-.118.05-.05.025.06.022.133-.006.161-.028.029-.048-.021-.044-.11m27.004-.238c-.114-.409-.059-.83.13-.987a.38.38 0 0 0 .128-.239c.005-.117.014-.118.063-.01.032.07.12.222.197.338.076.117.16.402.184.635.026.233.027.357.003.275-.066-.228-.236-.175-.343.106-.133.353-.24.318-.362-.118m-26.835-.44c.004-.098.024-.118.051-.05.025.06.022.134-.007.162s-.048-.022-.044-.111m5.186-.083c.146-.481.32-1.413.283-1.51-.024-.061-.331-.279-.684-.483-.352-.204-.641-.4-.642-.435 0-.035.199-.066.443-.07.245-.003.616-.032.824-.063l.38-.057.173-.737c.096-.405.196-.758.222-.785.027-.026.193.296.37.717.317.757.324.765.584.725.144-.022.53-.063.855-.09l.593-.049-.255.237c-.14.13-.434.388-.652.574l-.395.339.257.593c.444 1.026.436.993.218.877-.104-.056-.43-.249-.726-.43l-.537-.328-.352.293-.68.57c-.255.214-.317.239-.279.112m14.639-.434-.615-.553-.719.43c-.394.235-.718.396-.718.355 0-.04.136-.39.302-.779l.302-.705-.24-.212-.655-.574-.413-.361.754.057c.415.032.808.061.873.065.073.005.238-.281.424-.733.167-.407.328-.74.357-.74s.12.32.202.712.174.752.204.8.405.113.835.146.78.082.78.111-.304.235-.677.458c-.372.224-.677.428-.677.455 0 .026.08.389.178.805s.164.77.148.787c-.016.016-.307-.22-.645-.524m5.744.433c.004-.098.024-.118.052-.05.024.06.021.133-.007.161-.028.029-.048-.021-.045-.11m1.173-.734c-.095-.215-.185-.284-.42-.322-.409-.064-.5-.134-.667-.507-.174-.39-.14-.964.051-.89a.8.8 0 0 0 .242.047c.17 0 .715.847.715 1.11 0 .124.055.27.122.325.105.087.11.062.034-.18a6 6 0 0 0-.253-.618c-.157-.323-.158-.342-.012-.45.137-.1.17-.068.349.336.135.306.18.528.145.703a5 5 0 0 0-.07.44q-.044.445-.236.006zm-29.102.058c-.213-.15-.179-.265.11-.375.114-.044.243-.202.306-.376.06-.166.143-.301.185-.301s.059.047.037.105c-.023.059-.11.325-.194.593-.085.268-.176.487-.204.487s-.136-.06-.24-.133m1.088.048a.6.6 0 0 1 .125-.291.7.7 0 0 0 .124-.348c0-.101.14-.395.31-.654.227-.345.37-.478.542-.503.207-.03.237-.003.278.248.09.559-.317 1.125-.81 1.125-.13 0-.236.029-.237.063 0 .035-.076.16-.167.276q-.166.21-.165.084m28.992-.02c-.208-.578-.294-.87-.288-.985.004-.076.06-.017.124.13.065.147.235.35.38.453.249.178.254.194.116.347q-.252.279-.332.054m-27.47-.022c0-.047.037-.142.082-.212s.082-.089.082-.042a.5.5 0 0 1-.082.212c-.045.07-.082.088-.082.042m25.027-.173c-.082-.213-.058-.268.042-.096.05.085.072.172.05.194s-.063-.022-.092-.098m-27.993-.338c0-.401.17-.637.726-1.006.28-.186.52-.425.605-.602.219-.46.295-.344.098.15-.097.245-.21.53-.25.635s-.134.191-.208.191-.172.112-.22.249c-.074.213-.558.682-.703.682-.026 0-.048-.134-.048-.299m1.357-.05c0-.204.078-.54.172-.746.154-.339.182-.362.301-.243.12.119.115.164-.045.477-.097.19-.176.42-.176.509s-.057.21-.127.268c-.11.09-.127.054-.125-.265m29.363.13c-.204-.13-.329-.285-.366-.455-.036-.164-.109-.257-.202-.257-.101 0-.225-.193-.407-.635-.273-.664-.237-.874.053-.306.102.2.31.412.53.542.583.342.76.578.729.97l-.027.338zm-31.685-.176a3.6 3.6 0 0 1 .168-.494c.108-.246.11-.24.094.211-.013.372-.047.47-.168.494-.127.024-.142-.01-.094-.211m.605.157c-.218-.025-.234-.055-.25-.466-.028-.728-.008-.842.23-1.354.257-.555.36-.588.203-.066-.082.275-.082.439.001.791.058.244.093.597.077.783-.026.314-.045.337-.26.312m3.495.027c0-.047.037-.142.082-.212s.082-.089.082-.042a.5.5 0 0 1-.082.211c-.045.07-.082.09-.082.043m9.837-.049c.128-.343.913-2.858.913-2.926 0-.042-.55-.474-1.222-.959-.673-.485-1.204-.913-1.18-.95.023-.038.722-.07 1.554-.07h1.512l.501-1.502.501-1.503.499 1.503.499 1.503h1.547c.85 0 1.547.033 1.547.074s-.543.466-1.207.946l-1.233.89c-.015.011.184.679.443 1.484.258.805.452 1.48.432 1.5s-.593-.368-1.273-.864c-.738-.537-1.278-.876-1.338-.84-.108.067-2.222 1.595-2.423 1.752-.096.076-.111.068-.072-.038m18.185-.287c0-.196.052-.527.114-.736.093-.309.095-.454.008-.796-.059-.23-.091-.434-.072-.454.052-.053.072-.016.354.67q.26.632.18.731c-.044.054-.07.261-.057.461.023.35.012.367-.251.422l-.276.059zm.678.177c0-.11-.024-.32-.053-.466-.082-.41.09-.311.204.118.132.491.13.549-.024.549-.078 0-.127-.079-.127-.201m-4.012-.014c-.081-.213-.057-.268.043-.096.05.085.072.172.05.194s-.063-.022-.093-.098m-24.521-.238c0-.093.674-1.41.722-1.41.037 0-.61 1.346-.69 1.433-.017.019-.032.009-.032-.024m24.148-.608c-.149-.301-.252-.548-.23-.548.057 0 .569 1.027.53 1.064-.016.018-.152-.215-.3-.516m-27.534-.08c-.09-.376-.092-.535-.008-.817q.105-.349.02-.434c-.09-.09.3-.995.428-.995.089 0 .088.005-.062.43-.1.284-.111.464-.049.794.19 1.008.189 1.107-.02 1.304l-.197.185zm30.959.31c-.167-.184-.176-.483-.042-1.27.086-.5.08-.628-.041-.933-.197-.493-.062-.44.216.086.143.271.202.471.155.528-.045.055-.032.26.031.51.087.342.086.487-.008.797-.141.471-.14.47-.311.281m-27.952-.224-.083-.406c-.055-.272.037-.379.455-.526.202-.071.379-.13.393-.13.07 0-.138.521-.33.826-.283.447-.38.5-.435.236m24.776-.305c-.234-.376-.348-.757-.226-.757.022 0 .195.062.383.138.323.129.628.455.426.455-.049 0-.088.133-.088.296 0 .425-.179.377-.495-.132m-27.224.063c-.136-.508.13-.862.932-1.239.195-.092.437-.282.538-.424.32-.45.35-.277.046.272-.161.29-.342.529-.401.529-.06 0-.204.162-.32.36-.116.2-.332.435-.479.524-.266.162-.267.162-.316-.022m29.837.01c-.162-.11-.38-.35-.485-.536-.104-.185-.239-.327-.298-.316-.116.022-.728-1.036-.646-1.118.027-.027.14.085.251.25.117.17.384.386.629.506.654.321.903.624.87 1.057l-.026.356zm-28.49.02c-.081-.132.049-.534.269-.83.206-.277.74-.567.881-.48.042.026.076.006.076-.043 0-.12-.093-.113-.453.038l-.305.127.087-.233c.158-.42.522-.87.747-.924a1 1 0 0 0 .31-.122c.17-.132.116.496-.056.651a.54.54 0 0 0-.16.344c0 .178-.082.24-.276.209-.035-.006-.063.1-.063.234 0 .378-.232.857-.414.857a.4.4 0 0 0-.264.127c-.12.144-.304.166-.378.046m27.052-.042c-.06-.071-.161-.13-.226-.13-.18 0-.453-.514-.454-.856v-.304l.275.088c.396.126.763.585.774.967.01.345-.178.465-.369.235m-1.876-.575a14 14 0 0 0-.223-.402c-.118-.203-.117-.205.02-.042.168.2.405.635.346.635-.023 0-.087-.086-.143-.19m-26.69-.393a1.5 1.5 0 0 1 .076-.694c.07-.201.11-.415.087-.476-.024-.06.112-.348.3-.639.255-.391.327-.463.279-.274-.036.14-.058.625-.05 1.08l.017.826-.276.25c-.151.139-.299.253-.328.254s-.076-.146-.105-.327m2.655.194c0-.074.075-.154.165-.177.123-.032.172-.13.19-.386.021-.275.085-.388.323-.575.163-.128.435-.256.605-.286l.31-.053-.087.337c-.12.471-.532.9-1.061 1.103-.39.15-.445.154-.445.037m1.224-.076c.826-1.36 2.193-2.834 3.497-3.773.592-.427.406-.223-.268.293-.84.643-2.188 2.06-2.751 2.89-.47.694-.752 1.041-.478.59m23.499.046a1.74 1.74 0 0 1-1.046-1.063l-.135-.399.188.05c.104.029.254.052.334.053.275.002.74.503.797.857.032.197.1.33.17.33.063 0 .115.075.115.168s-.01.166-.02.161zm2.686-.118c-.173-.16-.315-.322-.314-.363s.04-.331.085-.647c.067-.461.058-.634-.044-.878-.146-.35-.15-.368-.062-.368.119 0 .614.914.564 1.043-.027.07.011.243.085.384.137.266.165.704.061.967-.052.133-.095.117-.375-.138m-2.53-.648c-.18-.38-.351-.931-.287-.931.008 0 .171.076.362.168.355.171.629.48.78.88.074.192.063.222-.077.222-.089 0-.186-.038-.214-.085-.085-.137-.282-.097-.313.063-.018.095-.109-.02-.25-.317m-26.741.015c0-.227.056-.376.19-.499.24-.221.824-.532.998-.532.073 0 .262-.133.42-.296.455-.469.468-.347.03.287-.22.322-.445.567-.498.547s-.189.1-.301.268c-.162.242-.614.549-.807.549-.018 0-.032-.146-.032-.324m25.315.07c-.1-.14-.162-.254-.139-.254.024 0 .124.114.224.254s.161.254.138.254-.124-.114-.223-.254m3.217.15c-.116-.047-.317-.235-.446-.418-.13-.183-.269-.311-.31-.286-.094.059-.89-1.045-.81-1.124.032-.032.178.085.325.26.153.18.344.317.445.317.098 0 .416.155.707.343.447.289.523.372.48.53-.027.102-.05.252-.05.334-.002.164-.034.168-.34.044m-4.051-1.205a14 14 0 0 0-1.328-1.328c-.764-.65-.952-.861-.357-.4.464.359 1.726 1.62 2.085 2.085.46.594.25.406-.4-.357m-24.566.206c0-.331.246-.946.422-1.055.047-.03.086-.091.086-.138s-.034-.064-.075-.038c-.042.026-.135-.043-.207-.153-.097-.149-.106-.224-.034-.296.136-.136.231-.118.231.044 0 .08.128-.028.305-.26.35-.46.484-.46.2-.001-.145.235-.188.421-.176.77.022.69-.107 1.055-.455 1.279l-.297.19zm28.708.093c-.279-.229-.293-.268-.342-.948-.03-.428-.11-.82-.201-.99-.224-.418-.126-.507.138-.126.13.189.23.446.23.597 0 .161.06.31.155.377.234.167.471.857.383 1.115l-.073.213zm-26.093.068a2 2 0 0 1 .005-.264c.016-.158-.204-.206-.292-.064-.08.13-.296.1-.296-.042 0-.15.572-.805.702-.805.049 0 .151-.056.228-.125.127-.115.137-.089.12.317-.022.506-.125.824-.322.986-.113.094-.137.094-.145-.003zm23.636-.07c-.159-.158-.223-.393-.278-1.022l-.027-.299.29.148c.343.175.764.641.77.851.003.16-.207.205-.294.064-.028-.047-.11-.085-.18-.085-.1 0-.117.059-.074.254.065.297.02.316-.207.09m-23.16-.131c.04-.093.076-.387.079-.652.005-.445.031-.51.34-.825.192-.197.414-.343.522-.343.103 0 .206-.048.23-.106.023-.058.046.02.05.172.009.39-.365 1.087-.666 1.243-.136.07-.27.201-.299.29a.7.7 0 0 1-.191.277c-.123.1-.131.094-.065-.056m.506.041c-.029-.047-.088-.064-.132-.037-.17.105-.066-.15.14-.34.583-.54.688-.618.912-.672l.241-.058-.19.28c-.235.341-.77.913-.855.913-.034 0-.086-.039-.116-.086m21.322-.316c-.514-.63-.562-.7-.516-.745.08-.082.51.136.671.34.089.112.23.226.315.253s.2.148.255.27c.085.186.081.212-.027.17-.07-.026-.15-.011-.177.033-.09.147-.19.086-.521-.321m.87.164a1.36 1.36 0 0 0-.424-.434c-.296-.184-.49-.569-.594-1.18-.037-.22-.024-.266.058-.202.058.046.203.107.322.135.12.028.343.208.497.4.243.303.274.395.234.692-.025.188-.01.438.035.554.117.308.026.332-.128.035m-24.985-.368c.035-.217.134-.43.241-.522.438-.37 1.2-.82 1.477-.872.225-.042.53-.273 1.232-.933.512-.482.954-.854.98-.827.028.027-.226.296-.562.599-.337.302-.926.899-1.31 1.326-.385.427-.75.771-.81.764s-.23.137-.376.318-.337.33-.426.33a.9.9 0 0 0-.333.092c-.165.088-.17.076-.113-.275m27.157.232c-.152-.055-.428-.25-.614-.43-.186-.182-.338-.305-.338-.272s-.61-.559-1.355-1.313-1.355-1.386-1.355-1.403c0-.065.654.497 1.303 1.12.367.352.74.64.827.64.255 0 .84.31 1.354.72.416.33.482.424.51.72.018.186.012.333-.012.328a7 7 0 0 1-.32-.11m-28.04-.806c-.102-.064-.103-.1-.01-.213.104-.124.127-.123.27.007.087.079.158.175.158.214 0 .095-.264.09-.418-.008zm.926-.167c0-.148.076-.417.168-.599s.149-.382.125-.445c-.09-.235 2.303-2.69 2.62-2.689.05 0-.155.218-.458.483-1.39 1.217-1.803 1.782-1.863 2.548-.038.494-.068.567-.317.758l-.275.212zm27.024-.018c-.254-.237-.276-.295-.226-.592.042-.25.01-.423-.13-.713-.178-.368-1.204-1.487-1.891-2.062-.18-.15-.308-.292-.285-.315.156-.156 2.635 2.368 2.57 2.616-.022.084.052.313.164.508.194.34.278.823.142.822-.035 0-.19-.119-.344-.264m.966.053c.162-.248.25-.267.324-.07.06.154-.078.278-.313.28-.14.001-.141-.012-.011-.21m-24.604.081c0-.264.645-1.055.86-1.055.067 0 .163-.04.213-.09.063-.064.083.01.065.254-.036.51-.346.864-.787.897-.193.014-.35.012-.35-.005zm19.744-.257a1.24 1.24 0 0 1-.286-.638 2 2 0 0 1-.017-.33c.097 0 .508.288.736.515.325.323.483.756.277.756-.068 0-.148-.04-.179-.09-.038-.06-.088-.06-.165.004-.085.07-.171.018-.366-.217zm4.642.004c0-.139.034-.305.075-.37.06-.092.096-.077.177.075.087.163.076.217-.076.369l-.178.177zm.604.034c-.083-.133-.087-.203-.015-.275.071-.071.136-.042.254.114.087.115.14.239.117.275-.075.121-.242.068-.356-.114m-27.699-.604v-.45l1.017-.987q1.522-1.476 1.523-1.277c0 .04-.311.337-.691.662-.951.814-1.31 1.284-1.382 1.812-.043.313-.11.455-.263.555l-.204.134Zm-1.593.252c-.072-.087-.042-.162.126-.32.12-.114.432-.435.692-.715 1.137-1.22 2.316-2.334 3.08-2.905 2.346-1.757 4.813-2.818 7.813-3.36 1.05-.19 3.502-.26 4.705-.134a17.9 17.9 0 0 1 9.392 3.88c1.074.87 3.11 3.04 2.978 3.173-.042.042-.225-.127-.423-.389-.544-.721-1.699-1.897-2.539-2.585-2.517-2.063-5.404-3.348-8.695-3.87-1.275-.204-3.72-.204-5.03-.003-3.846.594-7.194 2.273-9.9 4.966-.69.688-1.438 1.539-1.615 1.839-.077.131-.1.134-.18.023-.075-.103-.083-.094-.043.05.066.237-.222.517-.361.35zm27.302-.046c-.077-.086-.14-.29-.14-.453 0-.367-.283-.77-1.027-1.467-1.092-1.021-1.15-1.063-1.265-.924-.09.109-.126.094-.262-.11a2.3 2.3 0 0 1-.242-.548c-.076-.275-.24-.449-.837-.89-.02-.014-.013-.048.015-.076.057-.057 1.671 1.045 1.671 1.14 0 .034-.046.108-.103.165-.08.08-.03.16.233.373.601.486 2.197 2.051 2.267 2.225.077.19.003.72-.102.72-.037 0-.13-.07-.208-.155m1.64-.056a.3.3 0 0 1-.048-.275c.05-.133.073-.126.214.06.223.295.067.496-.167.215m-24.47-.123c0-.183-.123-.235-.212-.09-.093.15-.296.09-.296-.087 0-.219.634-.91.866-.945.1-.015.187-.1.2-.196.035-.245.625-.717.9-.718.17 0 .265-.068.36-.251.12-.23 1.063-.85 1.295-.85.146 0-.14.496-.347.604a1.6 1.6 0 0 0-.335.253.62.62 0 0 1-.394.158c-.238 0-.344.124-.344.401 0 .197-.396.681-.677.826-.276.143-.395.053-.261-.198.08-.149.047-.267-.073-.267-.029 0-.05.158-.047.352.003.242-.066.463-.222.71q-.414.653-.413.298m18.783-.178c-.223-.234-.326-.42-.326-.586 0-.134-.025-.313-.055-.398-.045-.127-.034-.136.06-.05a.43.43 0 0 0 .25.106c.164 0 .846.565.846.701 0 .067-.03.065-.102-.007-.215-.215-.326-.117-.27.237.03.186.025.339-.012.339-.036 0-.212-.154-.391-.343zm1.346.25c-.218-.126-.478-.685-.505-1.084-.013-.191-.054-.348-.091-.348s-.043.133-.012.296c.064.345.015.362-.34.119-.343-.237-.563-.54-.64-.886-.064-.28-.062-.282.201-.233.214.04.524.216.893.507.02.015.042.112.05.214.009.127.089.206.25.25.309.082.63.383.777.725.063.15.116.293.116.318 0 .082-.328.047-.382-.041-.077-.124-.231-.004-.177.137.053.139.053.139-.14.026m-22.486-.171c.02-.147.108-.226.317-.287.16-.047.56-.333.89-.637.895-.824 1.247-1.114 1.294-1.067.024.023-.104.168-.284.322-.68.582-1.467 1.37-1.512 1.512-.026.082-.138.172-.249.2-.11.027-.264.075-.343.105-.112.043-.136.012-.113-.148m3.412-.13c.052-.281.043-.303-.118-.261-.096.025-.175.016-.175-.021 0-.108.611-.544.907-.647.25-.087.266-.083.19.057a.4.4 0 0 0-.03.286c.048.124-.294.677-.513.83-.223.156-.32.067-.261-.243m21.254.191c-.14-.057-.709-.554-1.265-1.104-.983-.973-1.015-.996-1.148-.83-.136.166-.145.163-.634-.202-.523-.391-.523-.457-.002-.24.19.08.413.111.56.079.19-.042.246-.024.246.08 0 .073.028.133.063.133s.464.362.953.805c.59.534.995.833 1.206.892.257.071.318.127.318.296 0 .115-.01.206-.021.202zm-4.572-.44-.254-.219.276.183c.15.1.275.198.275.218 0 .064-.036.042-.297-.182m-20.023-.09c0-.061.104-.177.233-.258.128-.08.513-.406.856-.723.665-.613 1.157-.995 1.103-.855-.019.047-.362.377-.764.735-.402.357-.777.76-.832.894-.072.173-.174.255-.349.28q-.247.037-.247-.073m24.573.08c-.105-.02-.246-.144-.314-.275-.068-.13-.477-.565-.91-.966-.432-.4-.746-.73-.697-.73s.43.313.847.698.9.806 1.075.936c.286.212.42.415.254.385zM35.78 19.25a.28.28 0 0 1 .044-.254c.072-.087.072-.146-.002-.235-.143-.173.544-.397.935-.305.157.037.243.071.19.076s-.116.115-.142.244c-.032.16-.153.295-.382.423-.398.224-.571.237-.643.05m15.168-.064c-.406-.25-.52-.368-.19-.197.266.137.624.393.551.393-.023 0-.186-.088-.36-.196m.602-.007c-.168-.114-.33-.304-.36-.423-.03-.118-.09-.215-.137-.215-.045 0-.083-.029-.083-.064 0-.095.528-.061.969.062.29.081.366.135.302.212-.047.057-.062.224-.033.37.048.24.033.266-.15.266-.11 0-.34-.093-.508-.208m-14.592-.003c.19-.157.726-.447.593-.32a3 3 0 0 1-.424.271c-.186.105-.262.127-.169.05m12.912-.593c-.303-.159-.521-.29-.485-.292.09-.006 1.077.496 1.077.547 0 .057.02.066-.592-.255m-13.364-.347c-.134-.094-.282-.119-.485-.081-.18.034-.29.021-.29-.034 0-.049.093-.088.207-.088s.308-.094.43-.208c.329-.304.977-.502 1.245-.38.185.084.199.12.116.296-.184.391-.937.695-1.223.495m2.188.009c.116-.067.25-.121.296-.121.047 0-.01.054-.127.12-.116.067-.25.122-.296.122-.047 0 .01-.055.127-.121m12.148-.049a2 2 0 0 1-.525-.4l-.188-.225.188-.106c.301-.17 1.006.044 1.355.41a.57.57 0 0 0 .355.158c.112 0 .23.043.263.096.042.07-.026.08-.237.041a.82.82 0 0 0-.541.073c-.306.16-.268.162-.67-.047m-1.819.006c-.07-.045-.089-.082-.042-.082s.141.037.211.082.09.082.043.082a.5.5 0 0 1-.212-.082m-14.845-.202c-.161-.246-.11-.312.195-.251.147.03.36-.02.583-.133.193-.099.351-.148.351-.11 0 .082-.81.696-.92.696-.042 0-.136-.09-.209-.202m14.422.033c-.07-.045-.09-.082-.043-.082s.142.037.212.082.089.082.042.082a.5.5 0 0 1-.211-.082m-10.807-.127c-.03-.076-.01-.182.043-.234.14-.141.118-.205-.095-.272l-.19-.06.211-.068a1.32 1.32 0 0 1 1.03.069l.303.154-.18.173c-.099.095-.313.2-.475.233a8 8 0 0 0-.445.102c-.089.025-.17-.015-.202-.097m1.79-.003c.14-.064.31-.115.38-.114s-.006.054-.169.117c-.386.149-.538.147-.211-.003m10.061.016c-.194-.054-.431-.17-.527-.257l-.175-.16.294-.158c.303-.162.719-.195 1.013-.08.162.063.162.068-.021.166-.176.094-.18.114-.059.3.118.18.117.203-.007.25a.6.6 0 0 1-.151.045 9 9 0 0 0-.367-.106m2.004-.182c-.11-.117-.246-.212-.303-.212s-.185-.138-.285-.306l-.18-.306.235.055c.333.079 1.16.656 1.194.833.046.237-.42.192-.661-.064m-3.91-.016c.06-.024.133-.021.161.007.029.028-.021.048-.11.045-.1-.004-.12-.024-.052-.051zm-13.785-.159c-.001-.18.347-.456.698-.556.198-.056.583-.1.855-.096.273.004.625-.048.783-.114.474-.197.327.008-.275.386q-.562.352-.647.268-.084-.085-.405.078c-.337.172-1.008.195-1.01.034zm6.503.075c.06-.025.134-.022.162.007s-.022.048-.111.044c-.099-.004-.119-.024-.051-.051zm12.604-.125c-.225-.116-.356-.14-.427-.081-.074.06-.262-.014-.65-.258-.641-.404-.632-.396-.569-.459.027-.026.157.007.29.074.14.072.484.123.833.123.684 0 1.237.19 1.434.491.073.111.132.213.132.226s-.162.03-.36.037a1.5 1.5 0 0 1-.683-.153m-13.9.013c.028-.047-.042-.12-.157-.164-.325-.124-.34-.243-.053-.418.412-.25.877-.294 1.179-.11l.255.155-.231.21a2 2 0 0 1-.468.311c-.29.123-.597.132-.526.016m1.634.027c.062-.025.135-.022.163.007s-.022.048-.111.044c-.099-.004-.12-.024-.052-.05zm6.35 0c.062-.025.135-.022.163.007s-.022.048-.111.044c-.099-.004-.12-.024-.052-.05zm1.075-.102c-.398-.182-.742-.518-.532-.518.072 0 .18-.06.241-.134.145-.174.78-.09 1.114.148.29.207.297.306.023.375-.116.03-.211.106-.211.17 0 .161-.229.146-.635-.04m-14.574-.158a6 6 0 0 1-.225-.326c-.044-.075.939-.826 1.527-1.168.246-.142.08.114-.192.298-.207.14-.388.39-.591.815-.161.338-.306.614-.321.614s-.104-.105-.198-.233m7.488.175c.061-.024.134-.021.162.007.029.028-.021.048-.11.045-.1-.004-.12-.024-.052-.051zm5.588 0c.061-.024.134-.021.162.007.029.028-.021.048-.11.045-.1-.004-.12-.024-.052-.051zm-5.165-.084c.062-.025.135-.022.163.007s-.022.048-.111.044c-.099-.004-.12-.024-.052-.051zm4.736.002a.33.33 0 0 1 .212 0c.058.023.01.042-.106.042s-.164-.019-.106-.042M37 17.23c0-.07.038-.127.085-.127s.085-.051.085-.114c0-.326.814-.67 1.24-.524.242.082.257.106.152.25-.064.087-.127.19-.14.23-.02.06-1.16.404-1.358.41-.035 0-.064-.055-.064-.125m5.06.07a.33.33 0 0 1 .21 0c.059.024.011.044-.105.044s-.164-.02-.106-.043m3.684-.002a.5.5 0 0 1 .254.003c.057.023-.01.04-.15.039s-.187-.02-.104-.042zm4.52-.103c-.408-.1-.627-.204-.739-.35-.22-.286-.209-.313.161-.375.491-.083.98.144 1.194.555.196.377.21.373-.616.17m-7.443.017c.105-.02.276-.02.381 0s.02.037-.19.037-.296-.017-.19-.037m2.033 0a.9.9 0 0 1 .339.002c.08.021-.005.038-.192.037-.186-.001-.252-.019-.147-.039zm-4.319-.073c-.035-.036-.063-.135-.063-.22 0-.126.067-.155.36-.155.2 0 .495-.07.657-.153.162-.085.361-.14.443-.121.124.027.101.081-.139.336-.245.259-.353.309-.74.34-.25.02-.483.008-.518-.027m6.075-.011c-.093-.024-.287-.171-.431-.327-.247-.267-.252-.284-.085-.31.098-.015.292.04.431.123.14.082.419.15.62.15.33 0 .363.018.339.19-.023.159-.084.193-.366.204a2.3 2.3 0 0 1-.508-.03m-8.12-.131c.033-.058.115-.17.183-.249.138-.161.077-.323-.122-.323-.247 0 .055-.246.424-.346a1 1 0 0 1 .668.013c.312.104.318.112.173.272-.082.091-.344.252-.582.358-.239.106-.46.235-.492.286-.082.133-.328.122-.252-.011m10.62-.11c-.162-.114-.362-.208-.445-.208s-.234-.095-.335-.211c-.194-.223-.42-.304-.238-.085.09.108.066.127-.163.127-.202 0-.346-.083-.588-.337-.218-.23-.292-.364-.233-.423.13-.131.695-.104 1.05.05l.315.137-.254.121c-.207.099-.215.111-.043.067.536-.137.677-.131 1.07.047.252.115.363.203.285.227l-.238.074c-.079.025-.046.12.116.332.27.353.137.39-.299.082m-14.819.057c0-.237.197-.532.524-.786.2-.156.365-.335.365-.4 0-.063.257-.261.572-.44.665-.377.755-.31.159.117-.238.171-.435.388-.466.513-.088.35-.403.824-.595.896-.417.156-.559.181-.559.1m19.008-.031c-.304-.11-.396-.22-.682-.81a1.8 1.8 0 0 0-.593-.715c-.567-.4-.452-.446.215-.086.357.192.592.374.593.457 0 .076.144.245.318.376.347.26.458.402.544.692.062.214-.003.228-.395.086m-18.16-.136c-.003-.096.305-.523.404-.56.31-.12 1.066-.147 1.361-.05a1 1 0 0 0 .647.015c.181-.05.344-.075.363-.056.078.078-1.032.564-1.192.522-.095-.024-.302.01-.462.077-.245.102-1.12.143-1.122.052m5.036-.013c-.028-.047.01-.085.085-.085s.113.038.085.085c-.03.046-.067.085-.085.085s-.056-.039-.085-.085m11.52-.064c-.227-.093-.343-.107-.364-.043-.036.108-1.207-.381-1.207-.504 0-.044.082-.049.19-.01.209.073.458.07 1.164-.014.598-.072 1.057.081 1.27.423l.158.254-.439.015a2.2 2.2 0 0 1-.772-.121m-4.535-.012c-.476-.053-.772-.203-.98-.5-.106-.152-.095-.176.122-.266.34-.14.88.086 1.102.462.092.156.254.299.363.32.292.055-.038.046-.607-.016m-6.566-.284c.152-.365.734-.629 1.088-.494.205.079.224.113.142.265-.147.275-.596.504-.988.504h-.356zm-.715.026c0-.044.038-.103.085-.132q.215-.131-.148-.263l-.233-.085.27-.143c.323-.17.865-.188 1.075-.034.14.103.136.117-.07.211a.66.66 0 0 0-.301.313c-.066.172-.139.213-.38.213-.164 0-.298-.036-.298-.08m-4.403-.303c0-.174.254-.478.592-.709.227-.154.394-.328.372-.385-.025-.064.224-.223.653-.416.766-.346.957-.354.425-.018-.203.128-.42.365-.527.575-.307.602-.512.828-.748.828-.12 0-.341.035-.492.079-.151.043-.275.064-.275.046m1.383-.068-.269-.1.172-.211c.16-.196.22-.21.82-.194 1.609.046 1.79.057 1.728.111-.036.032-.327.16-.646.285-.446.175-.607.205-.697.13-.086-.07-.187-.071-.385-.002-.32.111-.375.11-.723-.019zm5.185.001q.045-.121-.17-.176c-.637-.16.314-.654 1.007-.523l.3.056-.182.245c-.17.23-.36.34-.812.467-.144.04-.179.023-.143-.069m3.444-.03c-.198-.07-.36-.162-.36-.205s-.073-.151-.163-.241c-.162-.162-.161-.165.092-.22.375-.082.961.028 1.128.213.155.171.112.34-.088.34a.125.125 0 0 0-.122.127c0 .151-.023.15-.487-.014m3.831-.085c-.694-.289-.714-.334-.149-.343.268-.004.781-.035 1.139-.067.633-.058.658-.053.883.173l.233.232-.318.127c-.265.106-.377.11-.67.022-.25-.075-.359-.079-.38-.011-.044.13-.154.11-.738-.133m2.522.08c-.3-.037-.65-.39-.844-.852-.064-.154-.286-.399-.494-.545-.207-.146-.357-.285-.334-.309.086-.085 1.394.615 1.394.747 0 .072.172.24.383.373.335.212.548.445.548.6 0 .049-.18.045-.653-.014m-12.435-.458c-.026-.043-.227-.054-.447-.024a2.1 2.1 0 0 1-.82-.069 2.5 2.5 0 0 0-.777-.085l-.359.038.092-.265c.06-.172.222-.34.465-.482.204-.12.372-.262.373-.316 0-.054.353-.207.783-.341s.83-.261.888-.283.106-.005.106.036-.207.144-.459.23c-.373.127-.557.266-.987.746-.448.5-.489.57-.266.455.339-.175 1.02-.175 1.46 0 .25.1.463.122.784.08.584-.077.429.06-.258.228-.308.075-.55.097-.578.052zm8.527-.079q-1.069-.309-.137-.206c.374.041.59.02.822-.078.435-.185 1.181-.176 1.42.018l.186.151-.435.112a2.3 2.3 0 0 1-.813.055c-.244-.037-.376-.025-.376.033 0 .109.007.11-.667-.085m2.783-.057c-.368-.044-.787-.356-1.128-.84-.207-.293-.365-.409-.752-.55-.723-.264-.596-.345.166-.107.36.114.742.23.846.257.105.028.192.095.193.148 0 .053.177.21.392.35.232.152.435.365.502.53.061.15.104.269.095.261-.01-.007-.15-.03-.314-.049m-9.948-.192c-.05-.081 1.61-.341 2.09-.327.321.009.299.02-.185.087-.303.042-.846.128-1.208.19-.362.063-.676.085-.697.05m5.757-.045c-.326-.06-.859-.15-1.185-.197l-.593-.087.697.035c.861.043 1.801.202 1.801.303 0 .042-.029.072-.063.066zm-7.112-.084c-.14-.064-.456-.118-.702-.12l-.449-.004.248-.361c.193-.28.35-.397.703-.521.25-.088.518-.226.597-.307.197-.203 2.527-.601 3.413-.583.443.01-.022.15-.518.157-.532.007-1.769.218-2.255.384-.197.067-.436.221-.529.341s-.302.38-.465.575c-.163.196-.23.304-.147.24.173-.137.87-.085 1.181.088l.193.107-.254.057q-.603.135-1.016-.053zm8.14.068c-.239-.036-.24-.038-.065-.16.256-.18.991-.252 1.157-.114.117.097.101.124-.135.223-.264.111-.48.123-.957.051m-7.145-.304c-.176-.098-.18-.116-.052-.244.11-.11.18-.12.339-.047.146.066.496.062 1.28-.017.593-.06 1.174-.093 1.29-.075s-.263.084-.844.144c-.58.061-1.21.164-1.397.23-.407.141-.378.14-.616.009zm6.456-.024c-.186-.063-.796-.17-1.355-.24-.944-.116-.965-.122-.296-.09.396.02 1.014.062 1.374.094.443.039.691.026.77-.04.09-.073.149-.06.257.06.132.146.127.16-.076.253-.248.113-.226.114-.674-.037m1.64-.215c-.178-.193-.345-.418-.371-.5-.1-.315-1.168-.63-2.46-.726-.416-.031-.833-.09-.926-.13-.24-.105 1.106-.005 2.032.15 1.057.177 1.479.29 1.458.391-.01.048.198.16.462.25.365.124.556.255.79.54l.307.376h-.484c-.46 0-.501-.018-.808-.351m-8.768-.154c.116-.138.226-.294.244-.347.041-.126 1.747-.406 2.778-.457.924-.046.55.04-.873.2-.928.105-1.231.226-1.497.6-.15.21-.24.255-.522.255h-.34Zm7.76-.12c-.381-.364-.396-.369-1.27-.472a71 71 0 0 1-1.352-.17l-.465-.067.423-.01c.233-.004.842.051 1.355.124.512.072 1.113.153 1.335.178.36.042.43.086.653.417l.25.37-.273-.002c-.204 0-.368-.094-.657-.369zm-6.83.147c-.055-.023-.08-.096-.054-.163.032-.082.178-.121.448-.121.22 0 .702-.04 1.07-.09a7 7 0 0 1 1.094-.064c.311.02.132.057-.678.14-.605.063-1.211.167-1.347.233-.253.123-.358.136-.532.065m6.112-.072c-.141-.062-.75-.17-1.355-.243-1.09-.129-1.092-.13-.295-.093 2.007.093 2.513.182 2.191.386-.15.095-.23.087-.541-.05" style="fill:#fbd085;stroke-width:.0846667"/></svg>