<svg width="333" height="472" viewBox="0 0 333 472" fill="none" xmlns="http://www.w3.org/2000/svg">
<rect width="333" height="472" fill="#0B123B"/>
<path d="M62.8086 109.309H75.7188C78.2708 109.309 80.3281 110.031 81.8906 111.477C83.4531 112.909 84.2344 114.927 84.2344 117.531C84.2344 119.771 83.5378 121.724 82.1445 123.391C80.7513 125.044 78.6094 125.871 75.7188 125.871H66.6953V138H62.8086V109.309ZM80.3086 117.551C80.3086 115.441 79.5273 114.009 77.9648 113.254C77.1055 112.85 75.9271 112.648 74.4297 112.648H66.6953V122.59H74.4297C76.1745 122.59 77.5872 122.219 78.668 121.477C79.7617 120.734 80.3086 119.426 80.3086 117.551ZM100.875 126.242L96.5195 113.566L91.8906 126.242H100.875ZM94.4883 109.309H98.8828L109.293 138H105.035L102.125 129.406H90.7773L87.6719 138H83.6875L94.4883 109.309ZM115.367 128.742C115.458 130.37 115.842 131.691 116.52 132.707C117.809 134.608 120.081 135.559 123.336 135.559C124.794 135.559 126.122 135.35 127.32 134.934C129.638 134.126 130.797 132.681 130.797 130.598C130.797 129.035 130.309 127.922 129.332 127.258C128.342 126.607 126.793 126.04 124.684 125.559L120.797 124.68C118.258 124.107 116.461 123.475 115.406 122.785C113.583 121.587 112.672 119.797 112.672 117.414C112.672 114.836 113.564 112.72 115.348 111.066C117.132 109.413 119.658 108.586 122.926 108.586C125.934 108.586 128.486 109.315 130.582 110.773C132.691 112.219 133.746 114.536 133.746 117.727H130.094C129.898 116.19 129.482 115.012 128.844 114.191C127.659 112.694 125.647 111.945 122.809 111.945C120.517 111.945 118.87 112.427 117.867 113.391C116.865 114.354 116.363 115.474 116.363 116.75C116.363 118.156 116.949 119.185 118.121 119.836C118.889 120.253 120.628 120.773 123.336 121.398L127.359 122.316C129.299 122.759 130.797 123.365 131.852 124.133C133.674 125.474 134.586 127.421 134.586 129.973C134.586 133.15 133.427 135.422 131.109 136.789C128.805 138.156 126.122 138.84 123.062 138.84C119.495 138.84 116.702 137.928 114.684 136.105C112.665 134.296 111.676 131.841 111.715 128.742H115.367ZM142.047 128.742C142.138 130.37 142.522 131.691 143.199 132.707C144.488 134.608 146.76 135.559 150.016 135.559C151.474 135.559 152.802 135.35 154 134.934C156.318 134.126 157.477 132.681 157.477 130.598C157.477 129.035 156.988 127.922 156.012 127.258C155.022 126.607 153.473 126.04 151.363 125.559L147.477 124.68C144.938 124.107 143.141 123.475 142.086 122.785C140.263 121.587 139.352 119.797 139.352 117.414C139.352 114.836 140.243 112.72 142.027 111.066C143.811 109.413 146.337 108.586 149.605 108.586C152.613 108.586 155.165 109.315 157.262 110.773C159.371 112.219 160.426 114.536 160.426 117.727H156.773C156.578 116.19 156.161 115.012 155.523 114.191C154.339 112.694 152.327 111.945 149.488 111.945C147.197 111.945 145.549 112.427 144.547 113.391C143.544 114.354 143.043 115.474 143.043 116.75C143.043 118.156 143.629 119.185 144.801 119.836C145.569 120.253 147.307 120.773 150.016 121.398L154.039 122.316C155.979 122.759 157.477 123.365 158.531 124.133C160.354 125.474 161.266 127.421 161.266 129.973C161.266 133.15 160.107 135.422 157.789 136.789C155.484 138.156 152.802 138.84 149.742 138.84C146.174 138.84 143.382 137.928 141.363 136.105C139.345 134.296 138.355 131.841 138.395 128.742H142.047ZM166.559 109.309H179.469C182.021 109.309 184.078 110.031 185.641 111.477C187.203 112.909 187.984 114.927 187.984 117.531C187.984 119.771 187.288 121.724 185.895 123.391C184.501 125.044 182.359 125.871 179.469 125.871H170.445V138H166.559V109.309ZM184.059 117.551C184.059 115.441 183.277 114.009 181.715 113.254C180.855 112.85 179.677 112.648 178.18 112.648H170.445V122.59H178.18C179.924 122.59 181.337 122.219 182.418 121.477C183.512 120.734 184.059 119.426 184.059 117.551ZM205.25 108.527C210.315 108.527 214.065 110.155 216.5 113.41C218.401 115.949 219.352 119.198 219.352 123.156C219.352 127.44 218.264 131.001 216.09 133.84C213.538 137.173 209.898 138.84 205.172 138.84C200.758 138.84 197.288 137.382 194.762 134.465C192.509 131.652 191.383 128.098 191.383 123.801C191.383 119.921 192.346 116.6 194.273 113.84C196.747 110.298 200.406 108.527 205.25 108.527ZM205.641 135.363C209.065 135.363 211.539 134.139 213.062 131.691C214.599 129.23 215.367 126.405 215.367 123.215C215.367 119.842 214.482 117.128 212.711 115.07C210.953 113.013 208.544 111.984 205.484 111.984C202.516 111.984 200.094 113.007 198.219 115.051C196.344 117.082 195.406 120.083 195.406 124.055C195.406 127.232 196.207 129.914 197.809 132.102C199.423 134.276 202.034 135.363 205.641 135.363ZM237.34 122.453C239.163 122.453 240.602 122.089 241.656 121.359C242.724 120.63 243.258 119.315 243.258 117.414C243.258 115.37 242.516 113.977 241.031 113.234C240.237 112.844 239.176 112.648 237.848 112.648H228.355V122.453H237.34ZM224.469 109.309H237.75C239.938 109.309 241.741 109.628 243.16 110.266C245.855 111.49 247.203 113.749 247.203 117.043C247.203 118.762 246.845 120.168 246.129 121.262C245.426 122.355 244.436 123.234 243.16 123.898C244.28 124.354 245.12 124.953 245.68 125.695C246.253 126.438 246.572 127.642 246.637 129.309L246.773 133.156C246.812 134.25 246.904 135.064 247.047 135.598C247.281 136.509 247.698 137.095 248.297 137.355V138H243.531C243.401 137.753 243.297 137.434 243.219 137.043C243.141 136.652 243.076 135.897 243.023 134.777L242.789 129.992C242.698 128.117 242.001 126.861 240.699 126.223C239.957 125.871 238.792 125.695 237.203 125.695H228.355V138H224.469V109.309ZM273.082 109.309V112.727H263.414V138H259.469V112.727H249.801V109.309H273.082Z" fill="#FDCB61"/>
<path fill-rule="evenodd" clip-rule="evenodd" d="M241 295.5C241 254.355 207.645 221 166.5 221C125.355 221 92 254.355 92 295.5C92 336.645 125.355 370 166.5 370C207.645 370 241 336.645 241 295.5ZM162.775 362.191V325.404C154.865 325.844 147.086 327.683 139.802 330.845C138.418 331.445 137.057 332.092 135.72 332.782C137.333 337.008 139.204 340.885 141.281 344.346C147.607 354.89 155.24 360.742 162.775 362.191ZM170.225 325.404V362.191C177.76 360.742 185.393 354.89 191.719 344.346C193.796 340.885 195.667 337.008 197.28 332.782C195.887 332.062 194.467 331.391 193.022 330.768C185.787 327.653 178.07 325.84 170.225 325.404ZM170.225 317.943V299.225H203.692C203.393 308.737 201.96 317.66 199.662 325.638C198.448 325.034 197.217 324.463 195.969 323.926C187.803 320.409 179.084 318.387 170.225 317.943ZM211.145 299.225C210.825 310.046 209.12 320.26 206.32 329.385C210.487 332.02 214.389 335.067 217.963 338.482C226.95 327.734 232.632 314.127 233.448 299.225H211.145ZM233.448 291.775H211.145C210.825 280.954 209.12 270.74 206.32 261.615C210.488 258.98 214.389 255.933 217.963 252.518C226.95 263.266 232.632 276.873 233.448 291.775ZM203.692 291.775H170.225V273.057C179.158 272.61 187.948 270.557 196.171 266.987C197.35 266.475 198.514 265.933 199.662 265.362C201.96 273.34 203.393 282.263 203.692 291.775ZM162.775 265.596V228.809C155.24 230.258 147.607 236.11 141.281 246.654C139.204 250.115 137.333 253.992 135.72 258.218C137.067 258.914 138.439 259.565 139.834 260.169C147.11 263.323 154.877 265.157 162.775 265.596ZM170.225 265.596C178.136 265.156 185.918 263.317 193.204 260.153C194.586 259.553 195.945 258.907 197.28 258.218C195.667 253.992 193.796 250.115 191.719 246.654C185.393 236.11 177.76 230.258 170.225 228.809V265.596ZM162.775 317.943V299.225H129.308C129.607 308.737 131.04 317.66 133.338 325.638C134.488 325.066 135.655 324.523 136.835 324.011C145.056 320.442 153.844 318.39 162.775 317.943ZM129.308 291.775H162.775V273.057C153.858 272.61 145.082 270.564 136.871 267.005C135.678 266.488 134.5 265.94 133.338 265.362C131.04 273.34 129.607 282.263 129.308 291.775ZM121.855 291.775H99.5517C100.368 276.873 106.05 263.266 115.037 252.518C118.611 255.933 122.512 258.98 126.68 261.615C123.88 270.74 122.175 280.954 121.855 291.775ZM99.5517 299.225H121.855C122.175 310.046 123.88 320.26 126.68 329.385C122.512 332.02 118.611 335.067 115.037 338.482C106.05 327.734 100.368 314.127 99.5517 299.225ZM129.22 254.38C132.607 245.866 137.017 238.579 142.158 233.006C133.89 236.228 126.42 241.044 120.124 247.075C122.942 249.773 125.986 252.217 129.22 254.38ZM120.124 343.925C126.42 349.956 133.89 354.772 142.158 357.994C137.017 352.421 132.607 345.134 129.22 336.62C125.986 338.783 122.942 341.227 120.124 343.925ZM212.876 343.925C206.58 349.956 199.11 354.772 190.842 357.994C195.983 352.421 200.393 345.134 203.78 336.62C207.014 338.783 210.058 341.226 212.876 343.925ZM212.876 247.075C210.058 249.773 207.014 252.217 203.78 254.38C200.393 245.866 195.983 238.579 190.842 233.006C199.11 236.228 206.58 241.044 212.876 247.075Z" fill="#FDCB61"/>
</svg>
