<svg xmlns="http://www.w3.org/2000/svg" width="346" height="472" fill="none"><path fill="#0B123B" d="M0 0h331c8.284 0 15 6.716 15 15v442c0 8.284-6.716 15-15 15H0z"/><path fill="#FDCB61" d="M68.809 109.309h12.91q3.829 0 6.172 2.168 2.343 2.148 2.343 6.054 0 3.36-2.09 5.86-2.09 2.48-6.425 2.48h-9.024V138H68.81zm17.5 8.242q0-3.165-2.344-4.297-1.29-.606-3.535-.606h-7.735v9.942h7.735q2.616 0 4.238-1.113 1.64-1.114 1.64-3.926m20.566 8.691-4.355-12.676-4.63 12.676zm-6.387-16.933h4.395L115.293 138h-4.258l-2.91-8.594H96.777L93.672 138h-3.984zm20.879 19.433q.136 2.441 1.153 3.965 1.933 2.852 6.816 2.852 2.187 0 3.984-.625 3.477-1.212 3.477-4.336 0-2.344-1.465-3.34-1.485-.977-4.648-1.699l-3.887-.879q-3.809-.86-5.391-1.895-2.734-1.797-2.734-5.371 0-3.867 2.676-6.348t7.578-2.48q4.512 0 7.656 2.187 3.164 2.168 3.164 6.954h-3.652q-.293-2.305-1.25-3.536-1.778-2.246-6.035-2.246-3.438 0-4.942 1.446t-1.504 3.359q0 2.11 1.758 3.086 1.153.625 5.215 1.562l4.023.918q2.91.665 4.493 1.817 2.734 2.012 2.734 5.84 0 4.766-3.477 6.816-3.456 2.05-8.047 2.051-5.35 0-8.378-2.735-3.028-2.714-2.969-7.363zm26.68 0q.136 2.441 1.152 3.965 1.933 2.852 6.817 2.852 2.187 0 3.984-.625 3.477-1.212 3.477-4.336 0-2.344-1.465-3.34-1.484-.977-4.649-1.699l-3.886-.879q-3.808-.86-5.391-1.895-2.734-1.797-2.734-5.371 0-3.867 2.675-6.348 2.676-2.48 7.578-2.48 4.512 0 7.657 2.187 3.164 2.168 3.164 6.954h-3.653q-.293-2.305-1.25-3.536-1.776-2.246-6.035-2.246-3.437 0-4.941 1.446t-1.504 3.359q0 2.11 1.758 3.086 1.152.625 5.215 1.562l4.023.918q2.91.665 4.492 1.817 2.735 2.012 2.735 5.84 0 4.766-3.477 6.816-3.457 2.05-8.047 2.051-5.351 0-8.379-2.735-3.028-2.714-2.968-7.363zm24.512-19.433h12.91q3.828 0 6.172 2.168 2.343 2.148 2.343 6.054 0 3.36-2.089 5.86-2.091 2.48-6.426 2.48h-9.024V138h-3.886zm17.5 8.242q0-3.165-2.344-4.297-1.29-.606-3.535-.606h-7.735v9.942h7.735q2.616 0 4.238-1.113 1.641-1.114 1.641-3.926m21.191-9.024q7.597 0 11.25 4.883 2.852 3.809 2.852 9.746 0 6.426-3.262 10.684-3.829 5-10.918 5-6.621 0-10.41-4.375-3.38-4.219-3.379-10.664 0-5.82 2.89-9.961 3.711-5.313 10.977-5.313m.391 26.836q5.136 0 7.421-3.672 2.305-3.691 2.305-8.476 0-5.059-2.656-8.145-2.637-3.086-7.227-3.086-4.452 0-7.265 3.067-2.813 3.046-2.813 9.004 0 4.765 2.403 8.047 2.421 3.261 7.832 3.261m31.699-12.91q2.735 0 4.316-1.094 1.602-1.093 1.602-3.945 0-3.066-2.227-4.18-1.191-.586-3.183-.586h-9.493v9.805zm-12.871-13.144h13.281q3.282 0 5.41.957 4.043 1.836 4.043 6.777 0 2.578-1.074 4.219-1.055 1.64-2.969 2.636 1.68.684 2.52 1.797.86 1.114.957 3.614l.136 3.847q.059 1.641.274 2.442.351 1.367 1.25 1.757V138h-4.766a3.6 3.6 0 0 1-.312-.957q-.117-.586-.196-2.266l-.234-4.785q-.137-2.812-2.09-3.769-1.113-.528-3.496-.528h-8.848V138h-3.886zm48.613 0v3.418h-9.668V138h-3.945v-25.273h-9.668v-3.418z"/><path fill="#FDCB61" fill-rule="evenodd" d="M247 295.5c0-41.145-33.355-74.5-74.5-74.5S98 254.355 98 295.5s33.355 74.5 74.5 74.5 74.5-33.355 74.5-74.5m-78.225 66.691v-36.787a67 67 0 0 0-27.055 7.378c1.613 4.226 3.484 8.103 5.561 11.564 6.326 10.544 13.959 16.396 21.494 17.845m7.45-36.787v36.787c7.535-1.449 15.168-7.301 21.494-17.845 2.077-3.461 3.948-7.338 5.561-11.564a67.058 67.058 0 0 0-27.055-7.378m0-7.461v-18.718h33.467c-.299 9.512-1.732 18.435-4.03 26.413a74.509 74.509 0 0 0-29.437-7.695m40.92-18.718c-.32 10.821-2.025 21.035-4.825 30.16a74.5 74.5 0 0 1 11.643 9.097c8.987-10.748 14.669-24.355 15.485-39.257zm22.303-7.45h-22.303c-.32-10.821-2.025-21.035-4.825-30.16a74.4 74.4 0 0 0 11.643-9.097c8.987 10.748 14.669 24.355 15.485 39.257m-29.756 0h-33.467v-18.718a74.5 74.5 0 0 0 29.437-7.695c2.298 7.978 3.731 16.901 4.03 26.413m-40.917-26.179v-36.787c-7.535 1.449-15.168 7.301-21.494 17.845-2.077 3.461-3.948 7.338-5.561 11.564a67.032 67.032 0 0 0 27.055 7.378m7.45 0a67 67 0 0 0 27.055-7.378c-1.613-4.226-3.484-8.103-5.561-11.564-6.326-10.544-13.959-16.396-21.494-17.845zm-7.45 52.347v-18.718h-33.467c.299 9.512 1.732 18.435 4.03 26.413a74.49 74.49 0 0 1 29.437-7.695m-33.467-26.168h33.467v-18.718a74.5 74.5 0 0 1-29.437-7.695c-2.298 7.978-3.731 16.901-4.03 26.413m-7.453 0h-22.303c.816-14.902 6.498-28.509 15.485-39.257a74.4 74.4 0 0 0 11.643 9.097c-2.8 9.125-4.505 19.339-4.825 30.16m-22.303 7.45h22.303c.32 10.821 2.025 21.035 4.825 30.16a74.4 74.4 0 0 0-11.643 9.097c-8.987-10.748-14.669-24.355-15.485-39.257m29.668-44.845c3.387-8.514 7.797-15.801 12.938-21.374a67.1 67.1 0 0 0-22.034 14.069 67 67 0 0 0 9.096 7.305m-9.096 89.545a67.1 67.1 0 0 0 22.034 14.069c-5.141-5.573-9.551-12.86-12.938-21.374a67 67 0 0 0-9.096 7.305m92.752 0a67.1 67.1 0 0 1-22.034 14.069c5.141-5.573 9.551-12.86 12.938-21.374a67 67 0 0 1 9.096 7.305m0-96.85a67 67 0 0 1-9.096 7.305c-3.387-8.514-7.797-15.801-12.938-21.374a67.1 67.1 0 0 1 22.034 14.069" clip-rule="evenodd"/></svg>