<?xml version="1.0" encoding="UTF-8" standalone="no"?>
<svg
   version="1.1"
   id="svg63455"
   width="883.97668"
   height="1253.4371"
   viewBox="0 0 883.97671 1253.4371"
   sodipodi:docname="Vietnam_passport.svg"
   inkscape:version="1.2.2 (732a01da63, 2022-12-09)"
   xml:space="preserve"
   xmlns:inkscape="http://www.inkscape.org/namespaces/inkscape"
   xmlns:sodipodi="http://sodipodi.sourceforge.net/DTD/sodipodi-0.dtd"
   xmlns="http://www.w3.org/2000/svg"
   xmlns:svg="http://www.w3.org/2000/svg"
   xmlns:rdf="http://www.w3.org/1999/02/22-rdf-syntax-ns#"
   xmlns:cc="http://creativecommons.org/ns#"
   xmlns:dc="http://purl.org/dc/elements/1.1/"><metadata
     id="metadata63461"><rdf:RDF><cc:Work
         rdf:about=""><dc:format>image/svg+xml</dc:format><dc:type
           rdf:resource="http://purl.org/dc/dcmitype/StillImage" /><dc:title /></cc:Work></rdf:RDF></metadata><defs
     id="defs63459"><inkscape:perspective
   id="perspective1223"
   inkscape:persp3d-origin="268.5 : -555.89626 : 1"
   inkscape:vp_z="537 : -463.2296 : 1"
   inkscape:vp_y="0 : 1000 : 0"
   inkscape:vp_x="0 : -463.2296 : 1"
   sodipodi:type="inkscape:persp3d" /><inkscape:perspective
   sodipodi:type="inkscape:persp3d"
   inkscape:vp_x="0 : -740.72959 : 1"
   inkscape:vp_y="0 : 1000 : 0"
   inkscape:vp_z="0.99999999 : -740.72959 : 1"
   inkscape:persp3d-origin="0.5 : -740.89626 : 1"
   id="perspective2840" /><inkscape:perspective
   sodipodi:type="inkscape:persp3d"
   inkscape:vp_x="0 : -740.72959 : 1"
   inkscape:vp_y="0 : 1000 : 0"
   inkscape:vp_z="0.99999999 : -740.72959 : 1"
   inkscape:persp3d-origin="0.5 : -740.89626 : 1"
   id="perspective2853" /><inkscape:perspective
   sodipodi:type="inkscape:persp3d"
   inkscape:vp_x="0 : -740.72959 : 1"
   inkscape:vp_y="0 : 1000 : 0"
   inkscape:vp_z="0.99999999 : -740.72959 : 1"
   inkscape:persp3d-origin="0.5 : -740.89626 : 1"
   id="perspective2866" /><inkscape:perspective
   sodipodi:type="inkscape:persp3d"
   inkscape:vp_x="0 : -740.72959 : 1"
   inkscape:vp_y="0 : 1000 : 0"
   inkscape:vp_z="0.99999999 : -740.72959 : 1"
   inkscape:persp3d-origin="0.5 : -740.89626 : 1"
   id="perspective2842" /><inkscape:perspective
   sodipodi:type="inkscape:persp3d"
   inkscape:vp_x="0 : -740.72959 : 1"
   inkscape:vp_y="0 : 1000 : 0"
   inkscape:vp_z="0.99999999 : -740.72959 : 1"
   inkscape:persp3d-origin="0.5 : -740.89626 : 1"
   id="perspective4037" /><linearGradient
   y2="148.0576"
   x2="456.58691"
   y1="148.0576"
   x1="439.24411"
   gradientUnits="userSpaceOnUse"
   id="polygon2979_2_"><stop
     id="stop822"
     style="stop-color:#000000"
     offset="0" /><stop
     id="stop824"
     style="stop-color:#FFFFFF"
     offset="1" /></linearGradient><linearGradient
   y2="174.6494"
   x2="439.24411"
   y1="174.6494"
   x1="365.92239"
   gradientUnits="userSpaceOnUse"
   id="polygon2983_2_"><stop
     id="stop828"
     style="stop-color:#000000"
     offset="0" /><stop
     id="stop830"
     style="stop-color:#FFFFFF"
     offset="1" /></linearGradient><linearGradient
   y2="217.7168"
   x2="439.24411"
   y1="217.7168"
   x1="393.90921"
   gradientUnits="userSpaceOnUse"
   id="polygon2987_2_"><stop
     id="stop834"
     style="stop-color:#000000"
     offset="0" /><stop
     id="stop836"
     style="stop-color:#FFFFFF"
     offset="1" /></linearGradient><linearGradient
   y2="217.7168"
   x2="484.5723"
   y1="217.7168"
   x1="439.24411"
   gradientUnits="userSpaceOnUse"
   id="polygon2991_2_"><stop
     id="stop840"
     style="stop-color:#000000"
     offset="0" /><stop
     id="stop842"
     style="stop-color:#FFFFFF"
     offset="1" /></linearGradient><linearGradient
   y2="179.1797"
   x2="512.5625"
   y1="179.1797"
   x1="439.24411"
   gradientUnits="userSpaceOnUse"
   id="polygon2995_2_"><stop
     id="stop846"
     style="stop-color:#000000"
     offset="0" /><stop
     id="stop848"
     style="stop-color:#FFFFFF"
     offset="1" /></linearGradient><inkscape:perspective
   sodipodi:type="inkscape:persp3d"
   inkscape:vp_x="0 : -740.72959 : 1"
   inkscape:vp_y="0 : 1000 : 0"
   inkscape:vp_z="0.99999999 : -740.72959 : 1"
   inkscape:persp3d-origin="0.5 : -740.89626 : 1"
   id="perspective3646" />






</defs><sodipodi:namedview
     showguides="true"
     inkscape:document-rotation="0"
     pagecolor="#ffffff"
     bordercolor="#666666"
     borderopacity="1"
     objecttolerance="10"
     gridtolerance="10"
     guidetolerance="10"
     inkscape:pageopacity="0"
     inkscape:pageshadow="2"
     inkscape:window-width="1920"
     inkscape:window-height="991"
     id="namedview63457"
     showgrid="false"
     inkscape:zoom="0.83221921"
     inkscape:cx="475.23536"
     inkscape:cy="657.87955"
     inkscape:window-x="-9"
     inkscape:window-y="-9"
     inkscape:window-maximized="1"
     inkscape:current-layer="g63463"
     inkscape:showpageshadow="2"
     inkscape:pagecheckerboard="0"
     inkscape:deskcolor="#d1d1d1" /><g
     transform="translate(927.08143,-293.71202)"
     inkscape:groupmode="layer"
     inkscape:label="Image"
     id="g63463"><g
       id="g107621"
       transform="matrix(-1,0,0,1,-970.1862,0)"><path
         fill="#003875"
         d="m -44.429269,1489.6576 c 0,14.4299 -5.38496,28.7486 -16.04627,39.6951 -10.66956,10.9384 -24.72554,16.4719 -38.68971,16.4719 H -925.75693 V 295.03652 h 826.591681 c 13.96417,0 28.02015,5.52502 38.68971,16.46309 10.66131,10.94681 16.04627,25.36825 16.04627,39.68664 z"
         id="path826"
         style="opacity:1;fill:#1d582f;fill-opacity:1;stroke:none;stroke-width:2.649;stroke-miterlimit:4;stroke-dasharray:none;stroke-opacity:1;paint-order:stroke fill markers" /></g><g
       id="g720"
       transform="translate(-0.10368445,89.19494)"><path
         id="path16"
         style="fill:#1d582f;fill-opacity:1;fill-rule:nonzero;stroke:none;stroke-width:2.813"
         d="m -430.7023,885.40846 82.72196,72.18163 c 0.58229,0.50635 1.52746,0.0985 1.4937,-0.65824 -0.72575,-22.49558 -3.51625,-213.4928 -12.4841,-231.44819 -2.58234,-5.18718 -8.07613,-11.1198 -18.83305,-11.1198 -10.75692,0 -25.10886,5.13092 -36.76594,11.97776 -11.6599,6.84685 -23.31698,9.40668 -29.59278,9.40668 -6.273,0 -28.70107,-4.27576 -28.70107,-4.27576 h -24.26214 c 0,0 -22.41681,4.27576 -28.70106,4.27576 -6.27581,0 -18.82461,-2.55983 -30.48169,-9.40668 -11.6599,-6.84684 -25.10886,-11.97776 -35.87703,-11.97776 -10.75692,0 -16.23946,5.93262 -18.8218,11.1198 -8.9791,17.95539 -11.75835,208.96387 -12.49536,231.44819 -0.0309,0.74545 0.91142,1.16459 1.49371,0.65824 l 82.72195,-72.18163 z" /><path
         id="path18"
         style="fill:#fcd116;fill-opacity:1;fill-rule:nonzero;stroke:none;stroke-width:2.813"
         d="m -477.40095,945.27196 -2.69204,-47.88574 6.73433,48.31331 7.16471,5.98889 8.97629,-7.702 -13.46021,-70.9833 -14.33788,0.85515 -12.56005,-1.70186 -15.24085,71.83001 8.96504,7.702 7.17597,-5.98889 6.72589,-48.31331 -2.69204,47.88574 7.62604,9.40668 z" /><path
         id="path20"
         style="fill:#fcd116;fill-opacity:1;fill-rule:nonzero;stroke:none;stroke-width:2.813"
         d="m -554.96948,762.69124 -5.74415,141.48557 12.49254,-11.19856 5.81166,-125.1561 z" /><path
         id="path22"
         style="fill:#fcd116;fill-opacity:1;fill-rule:nonzero;stroke:none;stroke-width:2.813"
         d="m -415.13233,762.69124 5.74696,141.48557 -12.48129,-11.19856 -5.81447,-125.1561 z" /><path
         id="path24"
         style="fill:#fcd116;fill-opacity:1;fill-rule:nonzero;stroke:none;stroke-width:2.813"
         d="m -542.40943,875.5742 4.48393,-86.37886 13.44896,42.76608 z" /><path
         id="path26"
         style="fill:#fcd116;fill-opacity:1;fill-rule:nonzero;stroke:none;stroke-width:2.813"
         d="m -427.68113,875.5742 -4.48112,-86.37886 -13.44896,42.76608 z" /><path
         id="path28"
         style="fill:#fcd116;fill-opacity:1;fill-rule:nonzero;stroke:none;stroke-width:2.813"
         d="m -613.98627,739.80184 c 0,0 5.65976,-4.9115 9.25196,-6.61337 3.58377,-1.71593 7.17597,-2.5739 7.17597,-2.5739 l -9.56983,214.17355 -15.59247,12.93419 c 0,0 1.97754,-132.45303 4.15199,-157.53938 2.16601,-25.0976 4.58238,-60.38109 4.58238,-60.38109 z" /><path
         id="path30"
         style="fill:#fcd116;fill-opacity:1;fill-rule:nonzero;stroke:none;stroke-width:2.813"
         d="m -593.07441,734.03237 14.33787,11.97776 -7.55854,180.33876 -15.65998,13.94405 z" /><path
         id="path32"
         style="fill:#fcd116;fill-opacity:1;fill-rule:nonzero;stroke:none;stroke-width:2.813"
         d="m -571.9994,750.71347 10.75692,8.54872 -6.05358,150.189 -12.47285,11.1845 z" /><path
         id="path34"
         style="fill:#fcd116;fill-opacity:1;fill-rule:nonzero;stroke:none;stroke-width:2.813"
         d="m -356.10148,739.80184 c 0,0 -5.67101,-4.9115 -9.25196,-6.61337 -3.59502,-1.71593 -7.17597,-2.5739 -7.17597,-2.5739 l 9.56983,214.17355 15.59247,12.93419 c 0,0 -1.98879,-132.45303 -4.15199,-157.53938 -2.17726,-25.0976 -4.58238,-60.38109 -4.58238,-60.38109 z" /><path
         id="path36"
         style="fill:#fcd116;fill-opacity:1;fill-rule:nonzero;stroke:none;stroke-width:2.813"
         d="m -377.01334,734.03237 -14.34912,11.97776 7.55853,180.33876 15.66843,13.94405 z" /><path
         id="path38"
         style="fill:#fcd116;fill-opacity:1;fill-rule:nonzero;stroke:none;stroke-width:2.813"
         d="m -398.08835,750.71347 -10.75692,8.54872 6.04233,150.189 12.4841,11.1845 z" /><path
         id="path40"
         style="fill:#fcd116;fill-opacity:1;fill-rule:nonzero;stroke:none;stroke-width:2.813"
         d="m -347.36711,959.05004 c -0.53728,0 -1.06613,-0.18566 -1.48245,-0.53728 l -82.35627,-71.85252 h -107.56639 l -82.35626,71.84127 c -0.65825,0.57104 -1.59216,0.70325 -2.40512,0.36287 -0.80452,-0.35162 -1.30805,-1.11957 -1.2771,-1.96628 0.10127,-3.18714 0.24192,-9.70205 0.44164,-18.7346 0.59354,-26.74602 1.69061,-76.53335 3.5922,-121.0041 2.35167,-55.20517 5.16467,-85.36899 8.58247,-92.21303 2.20821,-4.41641 7.73576,-11.82304 19.99763,-11.82304 10.06493,0 23.39574,4.42766 36.55778,12.15217 10.79068,6.3405 23.02161,9.2182 29.8122,9.2182 6.07608,0 28.21722,-4.20825 28.43664,-4.23919 l 0.25317,-0.0338 24.53782,0.0338 c 0.21941,0.0309 22.36055,4.23919 28.44789,4.23919 6.55992,0 18.04259,-2.84394 28.90922,-9.2182 12.77947,-7.49384 27.12016,-12.15217 37.4495,-12.15217 12.26188,0 17.80068,7.40663 19.99763,11.82304 7.82577,15.64592 10.97915,159.16529 12.17468,213.20588 0.19972,9.0213 0.34037,15.55871 0.45289,18.74585 0.0197,0.84671 -0.48384,1.61466 -1.28554,1.96628 -0.29818,0.12096 -0.6048,0.18566 -0.91423,0.18566 z m -192.40372,-74.88493 h 109.57487 l 0.38538,0.33194 82.0159,71.55433 c -0.0985,-3.4403 -0.23067,-9.60359 -0.41914,-17.85694 -1.18428,-53.87461 -4.33765,-197.0086 -11.92151,-212.18194 -2.36292,-4.74835 -7.36162,-10.40529 -17.65721,-10.40529 -9.85676,0 -23.6911,4.51487 -36.07394,11.78929 -12.06497,7.07751 -23.84582,9.59234 -30.28478,9.59234 -6.1436,0 -26.82198,-3.89039 -28.82202,-4.27295 h -24.02023 c -2.0113,0.38256 -22.66998,4.27295 -28.82202,4.27295 -7.13096,0 -19.94418,-2.99866 -31.17369,-9.59234 -12.76822,-7.49384 -25.59269,-11.78929 -35.19628,-11.78929 -10.29559,0 -15.28586,5.65694 -17.65722,10.40529 -7.5726,15.18459 -10.72598,158.31858 -11.91306,212.20445 -0.17441,8.2421 -0.31787,14.39413 -0.42758,17.83443 z" /><path
         id="path42"
         style="fill:#1d582f;fill-opacity:1;fill-rule:nonzero;stroke:none;stroke-width:2.813"
         d="m -461.71002,737.03384 c 0,0 1.80032,5.13092 0.90016,5.98889 -0.90016,0.8439 -7.17597,-0.85797 -9.86801,-2.57109 -2.68079,-1.71593 -7.16472,-5.13373 -7.16472,-5.13373 l -7.17316,8.54872 -8.07612,-8.54872 -15.24085,10.26465 2.69204,-11.1198 c 0,0 -8.96785,5.13092 -12.56005,5.98888 l -6.10984,1.45995 c -0.34038,0.0759 -0.59355,-0.28411 -0.37413,-0.53728 2.32916,-2.7258 10.03398,-12.08747 14.5601,-21.43789 5.38408,-11.12261 9.86801,-27.37333 9.86801,-35.92204 0,-8.54871 -6.27581,-17.09743 -13.45178,-17.09743 -2.23915,0 -3.58095,2.55983 -6.27299,2.55983 -1.35024,0 -1.80314,-3.41779 -1.80314,-5.13091 0,-1.71593 -0.88891,-11.1198 12.56006,-11.1198 7.62605,0 12.56005,1.71312 12.56005,1.71312 0,0 0.88891,-3.4178 5.37284,-3.4178 4.48392,0 19.73602,2.55983 25.10885,8.54871 5.38409,5.98889 6.28425,23.08631 6.28425,31.64628 0,8.54871 0,25.64614 5.37565,35.91079 4.3067,8.21959 6.318,11.50517 6.95374,12.48129 0.0872,0.14346 -0.0338,0.32068 -0.19691,0.30943 -1.96629,-0.20817 -10.01148,-1.14208 -13.94405,-3.38405 z" /><path
         id="path44"
         style="fill:#fcd116;fill-opacity:1;fill-rule:nonzero;stroke:none;stroke-width:2.813"
         d="m -521.1797,659.00398 3.83693,-4.11824 11.31671,-1.60622 9.35042,1.64842 3.51625,-3.24058 11.44892,0.99861 15.51652,6.51773 1.80314,5.98888 c 0,0 -2.69205,-1.70468 -8.07613,-1.70468 -5.37565,0 -8.06769,0.84672 -9.86801,1.70468 -1.79189,0.85515 -1.79189,3.41499 -4.48393,3.41499 -1.79188,0 -1.79188,-0.8439 -1.79188,-1.70187 0,-0.85797 -2.69205,-0.85797 -6.273,-1.71312 -4.68083,-1.12239 -8.96785,-7.69356 -16.141,-7.69356 -9.86802,0 -9.86802,8.54871 -9.86802,8.54871 z m 33.47191,1.48526 c -1.49652,0 -2.24196,0.7145 -2.24196,2.1407 0,1.41775 0.74544,2.13225 2.24196,2.13225 1.48245,0 2.69204,-0.7145 2.69204,-2.13225 0,-1.4262 -1.20959,-2.1407 -2.69204,-2.1407 z" /><path
         id="path46"
         style="fill:#fcd116;fill-opacity:1;fill-rule:nonzero;stroke:none;stroke-width:2.813"
         d="m -500.74043,677.99174 c 0,0 2.26447,-1.67936 4.95651,-1.67936 2.69205,0 4.48111,0.85515 4.48111,0.85515 0,0 -5.37283,-9.40386 -9.85675,-11.97495 -4.48112,-2.56264 -7.17316,-4.27576 -10.76818,-4.27576 -4.48111,0 -7.36162,6.93405 -8.96504,7.69075 -1.79188,0.85796 0.90017,0.85796 0.90017,0.85796 l 7.19847,-2.68079 7.54728,4.39672 z" /><path
         id="path48"
         style="fill:#1d582f;fill-opacity:1;fill-rule:nonzero;stroke:none;stroke-width:2.813"
         d="m -404.51606,952.53513 -39.65771,-133.5726 -34.77714,43.77594 23.31697,104.34551 z" /><path
         id="path50"
         style="fill:#fcd116;fill-opacity:1;fill-rule:nonzero;stroke:none;stroke-width:2.813"
         d="m -480.2252,863.0029 -0.12096,-0.55979 36.71249,-46.21763 40.70977,137.14511 -53.70021,15.2746 z m 35.51415,-41.30613 -32.84461,41.35113 22.90065,102.45236 48.53554,-13.80059 z" /><path
         id="path52"
         style="fill:#fcd116;fill-opacity:1;fill-rule:nonzero;stroke:none;stroke-width:2.813"
         d="m -451.50164,890.31996 5.24063,-53.10667 -2.59359,-0.24192 -4.62458,46.95182 -18.1748,-21.95267 -2.04506,1.54997 z" /><path
         id="path54"
         style="fill:#fcd116;fill-opacity:1;fill-rule:nonzero;stroke:none;stroke-width:2.813"
         d="m -433.59125,880.25504 4.98745,-11.90181 -2.41637,-0.92267 -3.60345,8.59372 -26.56037,-22.8894 -1.74688,1.85659 z" /><path
         id="path56"
         style="fill:#fcd116;fill-opacity:1;fill-rule:nonzero;stroke:none;stroke-width:2.813"
         d="m -471.01825,902.05581 8.18584,-26.14123 2.49513,0.7145 -8.18583,26.14123 z" /><path
         id="path58"
         style="fill:#fcd116;fill-opacity:1;fill-rule:nonzero;stroke:none;stroke-width:2.813"
         d="m -462.48922,941.20717 4.9762,-22.04269 -13.87936,-19.83447 2.16602,-1.37275 12.4616,17.82318 5.35033,-23.75861 11.40672,13.47146 5.27438,-15.95253 18.32671,16.8977 -9.16476,32.94307 -11.7893,-18.1523 -6.24205,17.85694 -11.9215,-17.05524 -4.43892,19.70227 z m 35.96423,-8.01143 7.21816,-25.97526 -14.20847,-13.10859 -5.47129,16.53482 -11.02134,-13.02982 -4.74554,21.05251 10.37154,14.83296 6.318,-18.06229 z" /><path
         id="path60"
         style="fill:#fcd116;fill-opacity:1;fill-rule:nonzero;stroke:none;stroke-width:2.813"
         d="m -446.34822,957.24972 4.47268,-11.37297 7.05219,10.47281 h 4.39673 l 4.98745,-17.42936 11.8568,13.56148 2.00005,-1.59497 -15.06363,-17.21839 -5.76947,20.19736 h -0.99017 l -9.086,-13.48272 -6.2955,15.99754 z" /><path
         id="path62"
         style="fill:#fcd116;fill-opacity:1;fill-rule:nonzero;stroke:none;stroke-width:2.813"
         d="m -510.36652,748.47151 2.77925,-11.49393 c -2.98741,1.61467 -7.80046,4.07604 -10.29559,4.68084 l -6.1211,1.46276 c -0.69199,0.16316 -1.41775,-0.10971 -1.80032,-0.68075 -0.38538,-0.58229 -0.34037,-1.31929 0.12096,-1.84814 2.24196,-2.62453 9.91021,-11.93275 14.38288,-21.18472 5.27438,-10.91163 9.74705,-27.12015 9.74705,-35.39319 0,-8.15208 -5.90167,-15.86815 -12.15498,-15.86815 -0.65824,0 -1.31648,0.4529 -2.08725,0.96768 -1.05487,0.7145 -2.37136,1.60341 -4.18574,1.60341 -2.94522,0 -3.09993,-5.30532 -3.09993,-6.37145 v -0.28693 c -0.0309,-1.51621 -0.10971,-5.54724 3.01272,-8.60216 2.37137,-2.29822 6.01983,-3.46281 10.85538,-3.46281 5.67101,0 9.87926,0.91142 11.8118,1.42901 0.88047,-1.46276 2.78206,-3.14212 6.12109,-3.14212 4.95651,0 20.50397,2.75674 26.09622,8.98754 5.94669,6.61618 6.59368,24.88944 6.59368,32.44798 0,8.23084 0,25.36203 5.24343,35.36225 4.2617,8.10707 6.23924,11.36172 6.9003,12.39409 0.29536,0.47258 0.29536,1.05487 -0.0113,1.51621 -0.32069,0.46133 -0.85797,0.7145 -1.44026,0.65824 -1.91284,-0.19691 -7.50509,-0.86641 -11.73585,-2.35167 0.88047,3.55001 0.0759,4.32077 -0.21941,4.60488 -1.84533,1.74688 -9.40668,-1.07738 -11.50518,-2.41637 -1.95504,-1.24334 -4.75679,-3.30809 -6.24205,-4.41922 l -7.32787,8.72593 -8.3293,-8.81314 z m 6.68088,-16.57139 -2.61609,10.79067 13.40677,-9.0213 7.82295,8.28711 7.03251,-8.38556 1.01268,0.78201 c 0.0422,0.0309 4.46986,3.40374 7.0747,5.07466 2.14351,1.35305 6.55992,2.58234 8.09863,2.59359 -0.0112,-0.85797 -0.46133,-2.813 -1.07738,-4.59364 l -1.11957,-3.17587 3.02116,1.72718 c 2.82426,1.61466 8.12114,2.52607 11.21826,2.95365 -1.10833,-1.88752 -2.96491,-5.20687 -5.87918,-10.74567 -5.51348,-10.52625 -5.51348,-28.05126 -5.51348,-36.47057 0,-11.70209 -1.57247,-25.95276 -5.96919,-30.84457 -5.09716,-5.67945 -20.06233,-8.10707 -24.11868,-8.10707 -3.30809,0 -4.05354,2.23071 -4.12105,2.49232 l -0.37132,1.28554 -1.33055,-0.43883 c -0.045,-0.0225 -4.8468,-1.63717 -12.12122,-1.63717 -4.1098,0 -7.13096,0.91142 -8.98755,2.7258 -2.36292,2.30666 -2.28697,5.47129 -2.26446,6.82435 l 0.0113,0.32912 c 0,1.65967 0.37413,3.36154 0.7145,3.87913 0.89172,-0.0788 1.62592,-0.55979 2.46138,-1.13364 0.97892,-0.6695 2.0985,-1.41494 3.5922,-1.41494 7.72732,0 14.74857,8.73437 14.74857,18.33796 0,8.71468 -4.47267,25.06385 -9.97772,36.43682 -3.76942,7.79201 -9.71329,15.58122 -12.98763,19.62631 l 3.42624,-0.82421 c 2.79331,-0.6723 9.7583,-4.45017 12.20843,-5.84542 z" /><path
         id="path64"
         style="fill:#fcd116;fill-opacity:1;fill-rule:nonzero;stroke:none;stroke-width:2.813"
         d="m -492.037,736.03242 -2.10975,-1.43745 c 3.505,-4.68365 6.19704,-31.38466 6.93124,-41.27237 l 2.59359,0.17441 c -0.27287,3.71316 -2.84395,36.44807 -7.41508,42.53541 z" /><path
         id="path66-8"
         style="fill:#fcd116;fill-opacity:1;fill-rule:nonzero;stroke:none;stroke-width:2.813"
         d="m -504.50985,735.06474 -2.27572,-1.20678 c 0.045,-0.0788 4.46142,-7.69356 7.10002,-14.37444 2.60484,-6.63587 5.27438,-24.37185 5.30813,-24.54625 l 2.57109,0.35162 c -0.10971,0.73701 -2.74831,18.17481 -5.4516,25.0526 -2.69204,6.86654 -7.06626,14.40538 -7.25192,14.72325 z" /><path
         id="path68"
         style="fill:#fcd116;fill-opacity:1;fill-rule:nonzero;stroke:none;stroke-width:2.813"
         d="m -478.56553,736.30809 c -1.82564,-3.49375 -2.67235,-34.53523 -2.82426,-40.72383 l 2.60484,-0.0534 c 0.34038,14.10721 1.33899,37.34823 2.54858,39.66614 z" /><path
         id="path70"
         style="fill:#fcd116;fill-opacity:1;fill-rule:nonzero;stroke:none;stroke-width:2.813"
         d="m -462.7874,737.71459 c -9.06631,-12.97638 -10.04242,-38.88694 -10.08743,-39.98683 l 2.60484,-0.076 c 0.0113,0.26161 0.98737,26.30439 9.6486,38.69004 z" /><path
         id="path72"
         style="fill:#1d582f;fill-opacity:1;fill-rule:nonzero;stroke:none;stroke-width:2.813"
         d="m -565.7264,952.53513 39.6577,-133.5726 34.76589,43.77594 -23.30572,104.34551 z" /><path
         id="path74-1"
         style="fill:#fcd116;fill-opacity:1;fill-rule:nonzero;stroke:none;stroke-width:2.813"
         d="m -513.64086,968.65645 -53.68896,-15.27461 40.71259,-137.15636 36.70967,46.22888 -0.12939,0.55979 z m -50.49057,-16.95678 48.53554,13.80059 22.88658,-102.45236 -32.82211,-41.35113 z" /><path
         id="path76-4"
         style="fill:#fcd116;fill-opacity:1;fill-rule:nonzero;stroke:none;stroke-width:2.813"
         d="m -518.74083,890.31996 -5.22937,-53.10667 2.58234,-0.24192 4.62738,46.95182 18.16356,-21.95267 2.04224,1.54997 z" /><path
         id="path78-8"
         style="fill:#fcd116;fill-opacity:1;fill-rule:nonzero;stroke:none;stroke-width:2.813"
         d="m -536.65121,880.25504 -4.98746,-11.90181 2.41637,-0.92267 3.59502,8.59372 26.5688,-22.8894 1.74688,1.85659 z" /><path
         id="path80-9"
         style="fill:#fcd116;fill-opacity:1;fill-rule:nonzero;stroke:none;stroke-width:2.813"
         d="m -509.92769,876.62908 2.49513,-0.7145 8.17458,26.14123 -2.48388,0.7145 z" /><path
         id="path82-9"
         style="fill:#fcd116;fill-opacity:1;fill-rule:nonzero;stroke:none;stroke-width:2.813"
         d="m -510.30182,941.7332 -4.43892,-19.70227 -11.9215,17.05524 -6.24205,-17.85694 -11.7893,18.1523 -9.15351,-32.94307 18.31827,-16.8977 5.28564,15.95253 11.39265,-13.47146 5.3644,23.75861 12.45879,-17.82318 2.16601,1.37275 -13.87935,19.83447 4.96776,22.04269 z m -21.88797,-26.30438 6.318,18.05385 10.37435,-14.83578 -4.74834,-21.04125 -11.02135,13.03264 -5.48254,-16.53764 -14.19722,13.11984 7.22098,25.96401 z" /><path
         id="path84-1"
         style="fill:#fcd116;fill-opacity:1;fill-rule:nonzero;stroke:none;stroke-width:2.813"
         d="m -523.9055,957.24972 -4.45861,-11.37297 -7.06626,10.47281 h -4.39672 l -4.9762,-17.42936 -11.85681,13.56148 -1.98879,-1.59497 15.04393,-17.21839 5.77791,20.19736 h 0.97893 l 9.08599,-13.48272 6.29832,15.99754 z" /><path
         id="path86-2"
         style="fill:#1d582f;fill-opacity:1;fill-rule:nonzero;stroke:none;stroke-width:2.813"
         d="m -377.80379,999.14658 c 2.69204,-1.71312 1.15333,-8.80189 1.79188,-9.40387 0.90016,-0.85797 5.72446,-2.48388 6.27299,-5.13373 0.90017,-4.27295 4.48393,-9.40387 5.38409,-9.40387 0.90297,0 0,0 0,0 -2.69204,0 -7.62605,-5.5613 -10.30684,-7.27442 -2.69204,-1.70468 -5.11966,-0.60479 -6.28425,-1.70468 -1.30804,-1.25178 0,-5.13091 -1.79188,-6.84403 -1.79188,-1.71593 -11.65708,-5.13373 -11.65708,-5.13373 l -79.8105,10.26464 h -21.57854 l -79.8105,-10.26464 c 0,0 -9.86519,3.4178 -11.65708,5.13373 -1.79188,1.71312 -0.48383,5.59225 -1.79188,6.84403 -1.15333,1.09989 -3.58095,0 -6.27299,1.70468 -2.69205,1.71312 -7.62605,7.27442 -10.3181,7.27442 0,0 -0.89172,0 0,0 0.90016,0 4.48393,5.13092 5.38409,9.40387 0.54854,2.64985 5.37283,4.27576 6.27299,5.13373 0.63856,0.60198 -0.90016,7.69075 1.79189,9.40387 2.69204,1.71592 41.24986,11.12262 107.16975,11.12262 73.97352,0 104.51991,-9.4067 107.21196,-11.12262 z" /><path
         id="path88-3"
         style="fill:#fcd116;fill-opacity:1;fill-rule:nonzero;stroke:none;stroke-width:2.813"
         d="m -575.82557,952.27061 -0.47266,0.16602 c -2.40509,0.83547 -10.43621,3.71225 -12.38281,5.58008 -1.53871,1.45151 -1.61345,3.51657 -1.68945,5.1875 -0.0113,0.51759 -0.0573,1.25188 -0.14453,1.60351 -0.21941,0.045 -0.60355,0.0674 -0.91016,0.0898 -1.2321,0.0872 -3.1013,0.2097 -5.02539,1.42773 -1.05488,0.68356 -2.30617,1.76903 -3.63672,2.93359 -1.45994,1.28554 -5.95508,4.01172 -5.95508,4.01172 v 0.0117 c -0.15588,-0.0303 -0.31851,-0.0469 -0.48437,-0.0469 -1.24053,0 -2.23828,0.88012 -2.23828,1.96875 0,1.08582 0.99775,1.96679 2.23828,1.96679 0.17501,0 0.34597,-0.0172 0.50976,-0.0508 -0.16287,0.0801 3.06356,4.43756 3.77735,7.85157 0.59354,2.77079 3.68002,4.41854 5.73633,5.51562 0.21939,0.12095 0.46026,0.24232 0.67968,0.36328 0,0.32912 -0.0102,0.7597 -0.0215,1.11133 -0.076,2.9649 -0.19799,7.05544 2.53906,8.791 3.17307,2.0113 41.52454,11.4375 108.29102,11.4375 74.63161,0 105.36682,-9.5588 108.30078,-11.4492 2.73422,-1.73555 2.62431,-5.81487 2.53711,-8.79102 0,-0.34038 -0.0117,-0.77049 -0.0117,-1.09961 0.20816,-0.12096 0.46028,-0.25358 0.67969,-0.36328 2.05629,-1.09708 5.14232,-2.74483 5.72461,-5.51562 0.72442,-3.41202 3.94095,-7.76451 3.77929,-7.84961 0.15996,0.0317 0.327,0.0488 0.49805,0.0488 1.22929,0 2.24023,-0.88097 2.24023,-1.96679 0,-1.08863 -1.01094,-1.96875 -2.24023,-1.96875 -0.16199,0 -0.32052,0.0164 -0.47266,0.0449 v -0.01 c 0,0 -4.48388,-2.72618 -5.95508,-4.01172 -1.31927,-1.16456 -2.57207,-2.25003 -3.62695,-2.93359 -1.93534,-1.22929 -3.7922,-1.35173 -5.02148,-1.42773 -0.30943,-0.0225 -0.69184,-0.0448 -0.91407,-0.0898 -0.0984,-0.35163 -0.12932,-1.08592 -0.14062,-1.60351 -0.0788,-1.67093 -0.1659,-3.73599 -1.69336,-5.1875 -1.95503,-1.86783 -9.97817,-4.74461 -12.39453,-5.58008 l -0.46094,-0.16602 -80.16992,10.30664 h -21.29688 z m 0.45312,3.94727 79.30079,10.20898 21.97656,0.008 79.45898,-10.2168 c 4.43892,1.56966 9.58134,3.68993 10.45899,4.52539 0.40789,0.39663 0.46044,1.68179 0.49414,2.62695 0.0675,1.52746 0.14354,3.1091 1.29687,4.20899 1.05487,0.99861 2.42747,1.09656 3.52735,1.16406 1.04363,0.0759 2.03403,0.13278 3.0664,0.79102 0.77921,0.50634 1.92126,1.50567 3.13086,2.56054 1.84533,1.61467 3.39428,2.93399 4.80078,3.81446 -1.86783,2.55981 -3.44804,6.34777 -3.86718,8.32812 -0.20816,1.02112 -2.59426,2.28434 -3.73633,2.90039 -0.88891,0.46133 -1.52649,0.81267 -1.97656,1.24024 -0.83545,0.782 -0.80145,1.81381 -0.74805,3.68164 0.0337,1.21803 0.13156,4.9231 -0.7461,5.49414 -2.71453,1.67092 -33.81184,10.791 -106.09179,10.791 -67.68913,0 -104.08123,-9.71362 -106.03906,-10.791 -0.87765,-0.57104 -0.7799,-4.28455 -0.7461,-5.49414 0.0422,-1.86783 0.0762,-2.88839 -0.74805,-3.68164 -0.45008,-0.42757 -1.09609,-0.77891 -1.97656,-1.24024 -1.14208,-0.61605 -3.52865,-1.87927 -3.74804,-2.90039 -0.40507,-1.98035 -1.98765,-5.75706 -3.85547,-8.32812 1.40648,-0.88047 2.95499,-2.19979 4.78906,-3.81446 1.2096,-1.05487 2.34087,-2.0542 3.14258,-2.56054 1.04362,-0.65824 2.01107,-0.71502 3.05468,-0.79102 1.11113,-0.0675 2.47294,-0.1542 3.53907,-1.16406 1.15333,-1.11114 1.23175,-2.67959 1.28515,-4.20703 0.0337,-0.94516 0.0887,-2.23228 0.50782,-2.62891 0.87763,-0.84671 6.01875,-2.95573 10.44921,-4.52539 z m 6.05469,9.15234 c -0.88891,0 -2.68124,1.71289 -4.48437,1.71289 -1.79189,0 -1.7932,-0.85742 -2.69336,-0.85742 -0.88891,0 -1.15247,1.10029 -1.79102,1.70508 -0.45008,0.42758 0.45336,2.14062 1.35352,2.14062 0.88891,0 1.79101,-1.71289 3.58008,-1.71289 1.79184,0 0.90429,1.71236 0.90429,2.57032 0,0.85797 -0.90345,5.13227 -4.48437,5.99023 -3.5922,0.84672 -5.38477,3.41774 -5.38477,5.13086 0,1.70468 21.52628,6.83398 24.20703,6.83398 2.69205,0 4.49391,-10.26118 3.59375,-11.11914 -0.90297,-0.84668 -4.48437,1.71236 -4.48437,2.57032 0,0.85797 0.89062,1.71383 0.89062,2.56054 0,0.85797 -0.8889,2.57227 -1.78906,2.57227 -0.89172,0 -4.48523,-0.85973 -5.37695,-1.71484 -0.90016,-0.85797 3.58481,-5.98903 1.79297,-8.54883 -0.49509,-0.7145 -4.64862,1.32915 -4.93555,2.13086 -0.45008,1.28835 0.9043,2.57399 0.9043,4.28711 0,1.70183 -5.38477,2.55979 -5.38477,0 0,-2.57108 4.48047,-12.83626 4.48047,-13.69141 0,-0.84671 0.002,-2.56055 -0.89844,-2.56055 z m 164.99805,1.71289 c -4.03103,0 -5.82227,1.27486 -5.82227,2.13282 0,0.85516 0.89952,2.57226 2.69141,2.57226 1.79188,0 0.88999,-1.7168 3.58203,-1.7168 3.59502,0 3.59352,8.55056 4.48242,10.26368 0.90017,1.71312 1.80337,4.27343 -0.88867,4.27343 -2.69205,0 -1.79067,-2.55859 -5.38281,-2.55859 -2.69204,0 -3.58445,5.12109 -5.38477,5.12109 -0.89172,0 -1.7921,-2.56227 -3.58398,-4.27539 -1.79188,-1.7018 -3.5814,-1.70117 -4.48438,-1.70117 -0.90016,0 -0.89952,-5.99023 -2.6914,-5.99023 -1.78907,0 -2.69141,2.56001 -2.69141,3.41797 0,1.71306 1.79102,1.71429 1.79102,2.57226 0,0.85515 -1.79101,1.701 -3.58008,3.41406 -1.79188,1.71593 0.89907,5.13477 -1.79297,5.13477 -2.69205,0 -2.69164,-5.13477 -3.5918,-5.13477 -0.89172,0 -7.16406,2.56346 -7.16406,6.84766 0,4.27576 6.27344,1.70203 6.27344,3.41797 0,1.71311 -4.93555,1.71204 -4.93555,2.98633 0,0.85797 0.45116,1.71679 1.79297,1.71679 4.03384,0 5.38453,-4.2768 6.27344,-5.13476 0.90297,-0.85516 1.80319,-2.5586 6.28711,-2.5586 4.48387,0 1.78888,4.2754 7.17578,4.2754 5.37277,0 3.57944,-5.98829 6.27148,-5.98829 2.69205,0 1.79234,1.71289 4.48438,1.71289 2.69198,0 4.9345,-2.99961 6.27343,-4.28515 2.24196,-2.13225 13.44813,-1.70507 12.99805,-3.8457 -0.17441,-0.83546 -1.33898,-2.99024 -3.13086,-2.99024 -1.79189,0 -0.89865,1.70508 -4.48242,1.70508 -3.5922,0 -3.59375,-8.54869 -3.59375,-11.11133 0,-2.57109 -5.37265,-4.27344 -7.17578,-4.27344 z m -173.06445,3.41797 c -1.12238,0 -2.02149,0.85575 -2.02149,1.92188 0,1.06612 0.89911,1.92383 2.02149,1.92383 1.1083,0 2.01171,-0.85771 2.01171,-1.92383 0,-1.06613 -0.90341,-1.92188 -2.01171,-1.92188 z m 54.69921,3.41797 c -0.90012,0 -3.58007,1.7143 -3.58007,2.57227 0,0.8439 0.88867,1.27305 0.88867,2.55859 0,1.24053 -0.5483,5.13103 -0.88867,8.54883 -0.37413,3.67097 0.43747,7.27414 -2.69336,6.84375 -1.78063,-0.23911 -0.90235,-2.55891 -0.90235,-3.41406 0,-0.85796 -3.58007,-1.28478 -3.58007,-2.57032 0,-0.85797 4.9325,-0.43219 4.48242,-2.56445 -0.18847,-0.8439 -0.90234,-2.57063 -2.69141,-3.42578 -1.79188,-0.84672 -1.79214,-5.13281 -3.58398,-5.13281 -1.80032,0 -3.5912,2.57257 -4.49414,3.42773 -0.88891,0.85796 -4.48243,1.70486 -4.48243,3.41797 0,1.71312 3.59375,1.7143 3.59375,2.57227 0,0.84667 2.24148,2.13085 -3.14257,2.13085 -5.37283,0 -3.58512,-8.12109 -5.82422,-8.12109 -0.90298,0 -2.24024,2.5602 -2.24024,3.8457 0,2.56265 1.33789,0.85799 1.33789,2.99024 0,5.13088 -6.60192,4.36432 -7.17578,5.99023 -0.45008,1.28555 -0.45045,1.28516 3.14453,1.28516 3.58095,0 6.27257,-3.41797 8.06446,-3.41797 1.80028,0 3.59288,0.8457 5.38476,0.8457 1.79189,0 1.79125,-2.55859 2.69141,-2.55859 0.8889,0 1.79297,1.71188 1.79297,2.55859 0,0.85515 3.59179,0.85547 3.59179,0.85547 0,0 -1.35088,5.5625 4.03321,5.5625 7.61475,0 7.61523,-20.95406 7.61523,-21.80078 0,-0.85796 -0.44164,-3 -1.3418,-3 z m 4.48438,0.85547 c -0.92267,0 -1.11223,5.61577 -1.79297,10.26562 -0.63574,4.35171 -1.79101,7.72462 -1.79101,8.54883 0,1.71312 0.89084,1.71289 1.79101,1.71289 4.48392,0 2.6925,-14.53745 4.48438,-15.39257 1.79184,-0.85796 0.90039,-0.85883 0.90039,-1.7168 0,-0.85796 -1.79992,-3.41797 -3.5918,-3.41797 z m 57.39062,0.85742 c -0.9001,0 -3.58007,2.56 -3.58007,3.41797 0,0.85796 0.8889,0.85773 1.78906,1.71289 0.89172,0.85796 0,2.56147 0,4.27734 0,1.71312 -5e-5,2.56 -1.78906,3.41797 -1.80314,0.85515 -3.59571,5.13069 -3.59571,6.84375 0,1.71593 0.90211,1.71485 1.79102,1.71485 0.90016,0 3.59231,-0.85742 8.07617,-0.85742 4.48393,0 8.96875,7.7e-4 8.96875,-2.57032 0,-0.85796 -1.79125,-9.4082 -2.69141,-9.4082 -0.89166,0 -3.58398,1.7143 -3.58398,2.57227 0,0.84665 0.89086,1.70344 1.79102,2.55859 0.9001,0.85797 0.9008,3.41797 -2.69141,3.41797 -3.58376,0 -3.58422,-17.09766 -4.48438,-17.09766 z m -6.72265,2.13281 c -1.11113,0 -2.02344,0.867 -2.02344,1.92188 0,1.06613 0.91231,1.93555 2.02344,1.93555 1.10833,0 2.01953,-0.86942 2.01953,-1.93555 0,-1.05488 -0.9112,-1.92188 -2.01953,-1.92188 z m -109.40039,1.28516 c 0.73701,0 1.33789,0.57066 1.33789,1.28516 0,0.70325 -0.60088,1.28711 -1.33789,1.28711 -0.74825,0 -1.35352,-0.58386 -1.35352,-1.28711 0,-0.7145 0.60527,-1.28516 1.35352,-1.28516 z m 40.79883,3.41797 c 0.90012,0 2.3e-4,3.2e-4 0.90039,0.85547 0.89172,0.85796 0.89257,-5.4e-4 0.89257,0.85742 0,0.85797 -0.89284,1.71289 -1.79296,1.71289 -0.90016,0 -2.69141,-0.85492 -2.69141,-1.71289 0,-0.85796 1.79125,-1.71289 2.69141,-1.71289 z m 69.05078,0.42773 c -1.12238,0 -2.02149,0.86895 -2.02149,1.92383 0,1.06612 0.89911,1.9336 2.02149,1.9336 1.10833,0 2.01172,-0.86748 2.01172,-1.9336 0,-1.05488 -0.90339,-1.92383 -2.01172,-1.92383 z m -35.87696,1.28516 c -1.79183,0 -2.67968,0.42735 -2.67968,1.71289 0,1.70468 0.88867,3.41942 0.88867,4.27734 0,0.85796 -10e-4,2.5586 -1.79297,2.5586 -1.78907,0 -1.7882,-5.97656 -3.58008,-5.97656 -1.80314,0 -3.5918,1.70489 -3.5918,3.41796 0,1.71311 2.69141,-0.001 2.69141,4.27149 0,4.27571 -8.07812,5.13476 -8.07812,5.13476 -0.43882,0.42755 -1.33917,2.14065 4.04492,2.14065 5.37279,0 7.17578,-5.13088 7.17578,-5.13088 l 15.24023,0.8457 c 0,0 1.78843,5.13088 4.48047,5.13088 2.69485,0 5.38867,-5.13088 5.38867,-5.13088 h 6.27149 c 2.69205,0 4.93555,-0.41493 4.93555,-2.13086 0,-1.71307 0.44894,-8.54882 -1.79297,-8.54882 -2.69205,0 -2.24156,1.27294 -4.9336,2.13085 -2.69199,0.85797 -1.35093,4.70508 -4.04297,4.70508 -2.68075,0 -0.43795,-3.84532 -1.79101,-5.13086 -1.33899,-1.28549 -11.65757,0 -14.34961,0 -2.6836,0 -1.34225,-4.27734 -4.48438,-4.27734 z m 58.29102,0.85937 c -1.78907,0 -3.58008,3.41634 -3.58008,4.27149 0,0.85797 3.58008,0.002 3.58008,4.27734 0,4.27295 -5.38281,6.84373 -5.38281,6.84373 8.07607,0 9.86718,-4.27428 9.86718,-5.99021 0,-1.71312 -2.69249,-9.40235 -4.48437,-9.40235 z m 26.01172,0 c 2.69204,0 2.69312,0.85493 3.58203,1.7129 0.90016,0.84665 -10e-4,1.70507 -1.79297,1.70507 -1.78907,0 -1.78906,-3.41797 -1.78906,-3.41797 z m 13.90039,0.42774 c 0.97893,0 1.79101,0.76926 1.79101,1.70312 0,0.94235 -0.81208,1.71289 -1.79101,1.71289 -0.99018,0 -1.80469,-0.77054 -1.80469,-1.71289 0,-0.93386 0.81451,-1.70312 1.80469,-1.70312 z m -172.62695,0.42578 c -1.12238,0 -2.02149,0.85965 -2.02149,1.92578 0,1.06612 0.89911,1.92383 2.02149,1.92383 1.10829,0 2.01171,-0.85771 2.01171,-1.92383 0,-1.06613 -0.90342,-1.92578 -2.01171,-1.92578 z m 154.24414,0 c 1.78901,0 1.78906,0.85837 1.78906,1.70508 0,0.85797 0.90274,1.71289 -0.90039,1.71289 -1.79188,0 -1.79297,-0.85492 -1.79297,-1.71289 0,-0.84671 0.001,-1.70508 0.9043,-1.70508 z M -571.9994,987.171 c -1.12239,0 -2.02344,0.86747 -2.02344,1.9336 0,1.05487 0.90105,1.92383 2.02344,1.92383 1.10832,0 2.01172,-0.86896 2.01172,-1.92383 0,-1.06613 -0.9034,-1.9336 -2.01172,-1.9336 z m 178.89844,0.51563 c -1.11957,0 -2.01953,0.86895 -2.01953,1.92383 0,1.06613 0.89996,1.92187 2.01953,1.92187 1.11114,0 2.01172,-0.85574 2.01172,-1.92187 0,-1.05488 -0.90058,-1.92383 -2.01172,-1.92383 z m -41.25,0.33984 c 0.97892,0 1.79297,0.77163 1.79297,1.7168 0,0.94517 -0.81405,1.71289 -1.79297,1.71289 -0.98737,0 -1.80078,-0.76772 -1.80078,-1.71289 0,-0.94517 0.81341,-1.7168 1.80078,-1.7168 z m -129.13281,1.28516 c -1.11958,0 -2.02344,0.85771 -2.02344,1.92383 0,1.06613 0.90386,1.92187 2.02344,1.92187 1.11113,0 2.00976,-0.85574 2.00976,-1.92187 0,-1.06612 -0.89863,-1.92383 -2.00976,-1.92383 z m 147.95703,1.28711 c 0.90016,0 1.80032,2.55859 0,2.55859 -1.79188,0 -2.68079,-2.55859 0,-2.55859 z m -80.25781,0.42969 c 5.38404,0 7.1732,3.6e-4 8.07617,0.85546 0.88891,0.84672 1.78907,5.97657 0,5.97657 -1.79188,0 -0.45203,-2.12962 -1.79102,-3.41797 -1.35305,-1.28555 -10.76848,0.85819 -11.66015,-1.71289 -0.28412,-0.81296 -6.4e-4,-1.70117 5.375,-1.70117 z m 18.83398,0 c 0.98737,0 1.79102,0.76725 1.79102,1.70117 0,0.94517 -0.80365,1.71289 -1.79102,1.71289 -0.99017,0 -1.79297,-0.76772 -1.79297,-1.71289 0,-0.93392 0.8028,-1.70117 1.79297,-1.70117 z m 13.89844,0.42773 c 0.99017,0 1.79297,0.76726 1.79297,1.70117 0,0.94517 -0.8028,1.7168 -1.79297,1.7168 -0.98737,0 -1.78907,-0.77163 -1.78907,-1.7168 0,-0.93391 0.8017,-1.70117 1.78907,-1.70117 z m 1.79297,6.4043 c -1.11114,0 -2.01172,0.86895 -2.01172,1.92383 0,1.06621 0.90058,1.93361 2.01172,1.93361 0.8807,0 1.62581,-0.5373 1.90429,-1.2852 h 0.5 c 0.28031,0.7479 1.03044,1.2852 1.90235,1.2852 1.11114,0 2.02148,-0.8674 2.02148,-1.93361 0,-1.05488 -0.91034,-1.92383 -2.02148,-1.92383 -0.69629,0 -1.316,0.34274 -1.67969,0.85937 h -0.94336 c -0.3622,-0.51663 -0.98029,-0.85937 -1.68359,-0.85937 z" /><path
         id="path94-5"
         style="fill:#1d582f;fill-opacity:1;fill-rule:nonzero;stroke:none;stroke-width:2.813"
         d="m -581.86741,949.11733 c 0,0 3.58095,-4.27295 6.27299,-4.27295 2.69486,0 18.83587,5.98888 26.90074,6.84404 8.07613,0.84671 21.5251,3.41779 31.39311,3.41779 9.85676,0 17.03273,-0.85796 18.82461,0 1.80032,0.85797 6.28425,4.27577 6.28425,5.98889 0,1.70186 -1.06613,5.73571 -1.06613,5.73571 0,0 -14.18597,0.25317 -21.35069,0.25317 -7.17597,0 -26.90918,-1.71312 -26.90918,-1.71312 0,0 -17.48281,-3.84819 -25.55894,-5.56131 -8.06487,-1.71311 -14.85546,-3.29683 -16.39417,-4.63582 -1.54997,-1.34181 1.60341,-6.0564 1.60341,-6.0564 z" /><path
         id="path96-8"
         style="fill:#fcd116;fill-opacity:1;fill-rule:nonzero;stroke:none;stroke-width:2.813"
         d="m -575.59442,943.60103 c -2.06474,0 -3.70191,1.3193 -5.02121,2.46138 -1.31648,1.14489 -2.2729,2.28697 -2.2729,2.28697 l -0.045,0.0422 -0.0338,0.0563 c 0,0 -0.83547,1.24053 -1.48246,2.71454 -0.31787,0.73701 -0.61604,1.52747 -0.7145,2.35167 -0.0984,0.82421 -0.0113,1.85659 0.81296,2.57109 0.63855,0.55979 1.44026,0.90016 2.48388,1.29679 1.04362,0.38257 2.31791,0.76795 3.79193,1.16459 2.94521,0.79045 6.68088,1.61466 10.72316,2.47262 8.05363,1.70187 25.54769,5.5585 25.54769,5.5585 l 0.0788,0.0225 h 0.0985 c 0,0 19.6235,1.71312 27.01888,1.71312 7.19847,0 21.38444,-0.23911 21.38444,-0.23911 l 0.98737,-0.0225 0.24192,-0.92266 c 0,0 0.27567,-1.02394 0.55134,-2.27572 0.26161,-1.25179 0.54854,-2.65829 0.54854,-3.75817 0,-0.94517 -0.46133,-1.60342 -0.99018,-2.28416 -0.51478,-0.67231 -1.18708,-1.3193 -1.90159,-1.9466 -1.42619,-1.25179 -2.97615,-2.32917 -4.10698,-2.86645 -0.83546,-0.39663 -1.69343,-0.45289 -2.83551,-0.49509 -1.14207,-0.045 -2.54014,-0.0113 -4.1773,0.0422 -3.27434,0.1097 -7.50509,0.32068 -12.39409,0.32068 -9.6261,0 -23.05255,-2.55139 -31.24964,-3.4178 -3.79193,-0.39663 -9.85676,-2.08725 -15.21834,-3.69347 -2.68361,-0.79045 -5.20968,-1.56965 -7.25474,-2.15195 -2.03099,-0.58229 -3.39529,-1.00143 -4.57113,-1.00143 z m 0,2.48389 c 0.16597,0 1.83689,0.32912 3.83694,0.89172 1.98879,0.57104 4.51487,1.35024 7.20691,2.15194 5.39534,1.60342 11.45173,3.34185 15.71343,3.79193 7.94392,0.83546 21.42664,3.42905 31.53657,3.42905 4.96776,0 9.25196,-0.22223 12.4841,-0.33193 1.61467,-0.0422 2.96491,-0.076 3.97759,-0.031 1.02112,0.031 1.72437,0.19691 1.78907,0.23067 0.66105,0.31787 2.24196,1.37274 3.50781,2.47263 0.63574,0.54853 1.19553,1.13083 1.56966,1.60341 0.37412,0.48384 0.47258,0.88891 0.47258,0.80171 0,0.60479 -0.24192,2.06474 -0.49509,3.25183 -0.1519,0.69199 -0.19691,0.85796 -0.29536,1.2546 -1.24335,0.0197 -13.51648,0.24191 -20.32957,0.24191 -6.9228,0 -26.5463,-1.69342 -26.70102,-1.70468 -0.12096,-0.0225 -17.41529,-3.83412 -25.47173,-5.5388 -4.03103,-0.85515 -7.72451,-1.67936 -10.5797,-2.43887 -1.41776,-0.38538 -2.6386,-0.7567 -3.55001,-1.08863 -0.91142,-0.34038 -1.54997,-0.70325 -1.67093,-0.81296 0.0563,0.045 -0.0422,-0.0197 0.0113,-0.45008 0.0563,-0.43883 0.26442,-1.07738 0.52884,-1.67936 0.52603,-1.19834 1.20678,-2.23071 1.25179,-2.28697 0.0338,-0.045 0.81295,-0.97893 1.93253,-1.94379 1.14489,-0.99017 2.64985,-1.81438 3.27433,-1.81438 z" /><path
         id="path98-0"
         style="fill:#1d582f;fill-opacity:1;fill-rule:nonzero;stroke:none;stroke-width:2.813"
         d="m -579.17537,948.26218 c 0,0 -0.90016,-0.85797 -3.5922,-0.85797 -2.69204,0 -8.06769,4.28421 -8.06769,9.41794 0,5.13091 1.79188,6.83278 1.79188,6.83278 0,0 2.69204,-4.27295 5.38409,-5.13092 2.68079,-0.85796 4.08729,-1.24053 4.08729,-1.24053 z" /><path
         id="path100-4"
         style="fill:#fcd116;fill-opacity:1;fill-rule:nonzero;stroke:none;stroke-width:2.813"
         d="m -588.77896,965.65497 -1.17583,-1.11957 c -0.23067,-0.21098 -2.17445,-2.23071 -2.17445,-7.71325 0,-5.67102 5.83416,-10.65003 9.37292,-10.65003 3.07461,0 4.29545,1.01268 4.51487,1.20959 l 0.39663,0.38538 -0.45008,10.43905 -0.90297,0.25317 c -0.0225,0 -1.41776,0.40507 -4.04229,1.24054 -1.82563,0.58229 -4.04509,3.58095 -4.68083,4.59363 z m 6.01139,-17.01022 c -1.91284,0 -6.7709,3.62596 -6.7709,8.1774 0,2.05349 0.30943,3.49374 0.63855,4.43891 1.14208,-1.429 2.91146,-3.29684 4.8243,-3.90163 1.4712,-0.47259 2.55983,-0.80171 3.24058,-1.00143 l 0.31787,-7.38413 c -0.40507,-0.1519 -1.13083,-0.32912 -2.2504,-0.32912 z" /><path
         id="path102-8"
         style="fill:#1d582f;fill-opacity:1;fill-rule:nonzero;stroke:none;stroke-width:2.813"
         d="m -539.72864,955.96418 c 1.80314,0 5.39534,1.92128 5.39534,6.9453 0,5.03246 -4.94244,8.87784 -4.94244,8.87784 l -1.16459,1.70186 -0.6273,-1.70186 c 0,0 -4.48392,-3.85663 -4.48392,-8.13239 0,-2.55983 2.24196,-7.69075 5.82291,-7.69075 z" /><path
         id="path104-2"
         style="fill:#fcd116;fill-opacity:1;fill-rule:nonzero;stroke:none;stroke-width:2.813"
         d="m -540.79195,976.29093 -1.39807,-3.81161 c -1.00986,-0.93392 -4.65833,-4.61614 -4.65833,-8.81314 0,-3.03242 2.51764,-8.9341 7.11971,-8.9341 2.7033,0 6.69213,2.59359 6.69213,8.18584 0,5.06622 -4.32921,8.94535 -5.25187,9.70486 z m 1.06331,-19.08622 c -2.57108,0 -4.52612,4.29827 -4.52612,6.45022 0,3.65971 4.02259,7.16471 4.05354,7.20972 l 0.0338,0.0113 0.0788,-0.0563 c 0.0422,-0.0338 4.46142,-3.55 4.46142,-7.91016 0,-4.35171 -3.00147,-5.70477 -4.10136,-5.70477 z" /><path
         id="path106"
         style="fill:#1d582f;fill-opacity:1;fill-rule:nonzero;stroke:none;stroke-width:2.813"
         d="m -490.85272,974.34715 c 0,0 3.14493,-3.84537 3.14493,-8.97629 0,-5.13373 -5.38408,-7.70481 -5.38408,-7.70481 0,0 -1.79189,3.42905 -2.69205,4.28701 -0.89172,0.8439 -3.57251,3.14212 -3.71597,4.12949 -0.31787,2.27572 8.64717,7.40663 8.64717,8.2646 z" /><path
         id="path108-8"
         style="fill:#fcd116;fill-opacity:1;fill-rule:nonzero;stroke:none;stroke-width:2.813"
         d="m -494.23677,956.51272 -0.49227,1.09988 c 0,0 -0.33194,0.7145 -0.75951,1.52746 -0.42758,0.82421 -1.06613,1.78907 -1.20959,1.92128 -0.40508,0.38538 -1.32774,1.19834 -2.1632,2.04505 -0.43039,0.42758 -0.82421,0.85797 -1.16459,1.2968 -0.34037,0.43882 -0.66105,0.81295 -0.74825,1.5162 -0.19691,1.384 0.66949,2.24197 1.54996,3.14213 0.87766,0.90016 2.00005,1.80313 3.11962,2.64703 1.12239,0.85797 2.24196,1.65967 3.04367,2.27572 0.40788,0.29818 0.72575,0.55979 0.91422,0.73701 v 3.24058 l 2.32917,-2.8552 c 0,0 3.40655,-4.1323 3.40655,-9.74705 0,-6.02264 -6.66119,-8.41932 -6.66119,-8.41932 z m 1.26585,3.35309 c 1.30524,0.62449 3.96634,2.1407 3.96634,5.50505 0,3.39529 -1.27429,5.6682 -2.0985,6.94249 -0.12096,-0.0985 -0.19973,-0.17441 -0.33194,-0.27286 -0.85515,-0.66106 -1.96628,-1.44026 -3.04366,-2.26447 -1.07457,-0.82421 -2.1407,-1.68217 -2.84395,-2.40512 -0.7145,-0.72575 -0.84671,-1.37555 -0.88047,-1.12238 v -0.0113 c -0.0225,0.21942 0.0338,-0.0647 0.26442,-0.36287 0.23067,-0.29537 0.58229,-0.68075 0.96768,-1.06613 0.75669,-0.7567 1.61466,-1.51621 2.10975,-1.98879 0.75669,-0.72576 1.22928,-1.66811 1.70186,-2.57109 0.10971,-0.20816 0.0985,-0.19691 0.18847,-0.38257 z" /><path
         id="path110-3"
         style="fill:#fcd116;fill-opacity:1;fill-rule:nonzero;stroke:none;stroke-width:2.813"
         d="m -576.49458,950.83326 c 0,-0.85796 0.90016,-1.71593 2.69205,-1.71593 1.80313,0 9.86801,2.57109 8.07613,4.27577 -0.90017,0.85515 -10.76818,-1.70468 -10.76818,-2.55984 z" /><path
         id="path112-2"
         style="fill:#fcd116;fill-opacity:1;fill-rule:nonzero;stroke:none;stroke-width:2.813"
         d="m -560.35357,954.24825 c 0.57385,-1.62592 12.56005,0.85796 12.56005,3.4178 0,1.71593 -13.44896,-0.8439 -12.56005,-3.4178 z" /><path
         id="path114-4"
         style="fill:#fcd116;fill-opacity:1;fill-rule:nonzero;stroke:none;stroke-width:2.813"
         d="m -531.6497,961.95306 c 0,-2.57108 1.15334,-3.20963 6.40521,-3.20963 5.25188,0 6.14078,1.4937 6.14078,2.35167 0,0.85796 -12.54599,1.70186 -12.54599,0.85796 z" /><path
         id="path116-9"
         style="fill:#fcd116;fill-opacity:1;fill-rule:nonzero;stroke:none;stroke-width:2.813"
         d="m -514.63103,962.04026 c 0.0113,-0.94516 5.39534,-2.65828 8.99035,-2.65828 3.58095,0 6.273,1.71312 1.78907,2.57108 -4.48111,0.8439 -10.79067,1.90159 -10.77942,0.0872 z" /><path
         id="path118-4"
         style="fill:#1d582f;fill-opacity:1;fill-rule:nonzero;stroke:none;stroke-width:2.813"
         d="m -388.15564,949.11733 c 0,0 -3.58095,-4.27295 -6.273,-4.27295 -2.69204,0 -18.83305,5.98888 -26.90074,6.84404 -8.07612,0.84671 -21.52509,3.41779 -31.3931,3.41779 -9.85676,0 -17.03273,-0.85796 -18.83305,0 -1.79188,0.85797 -6.27581,4.27577 -6.27581,5.98889 0,1.70186 1.05488,5.73571 1.05488,5.73571 0,0 14.19722,0.25317 21.36194,0.25317 7.17597,0 26.91199,-1.71312 26.91199,-1.71312 0,0 17.47999,-3.84819 25.55612,-5.56131 8.06769,-1.71311 14.85828,-3.29683 16.39699,-4.63582 1.5359,-1.35306 -1.60622,-6.0564 -1.60622,-6.0564 z" /><path
         id="path120-1"
         style="fill:#fcd116;fill-opacity:1;fill-rule:nonzero;stroke:none;stroke-width:2.813"
         d="m -394.42864,943.60103 c -1.17583,0 -2.54014,0.41914 -4.58238,1.00143 -2.0338,0.5823 -4.55987,1.35024 -7.24066,2.15195 -5.3644,1.60622 -11.42923,3.29684 -15.2296,3.69347 -8.19709,0.86641 -21.61511,3.4178 -31.2412,3.4178 -4.889,0 -9.11975,-0.21098 -12.39409,-0.32068 -1.63717,-0.0534 -3.03241,-0.0872 -4.17449,-0.0422 -1.14489,0.0422 -2.00005,0.0985 -2.84676,0.49509 -1.12239,0.53728 -2.66954,1.61466 -4.09855,2.86645 -0.7145,0.6273 -1.38399,1.27429 -1.90158,1.9466 -0.52604,0.68074 -0.99018,1.33899 -0.99018,2.28416 0,1.09988 0.28692,2.50638 0.55135,3.75817 0.27286,1.25178 0.54853,2.27572 0.54853,2.27572 l 0.24192,0.92266 0.99018,0.0225 c 0,0 14.18597,0.23911 21.38163,0.23911 7.39538,0 27.0217,-1.71312 27.0217,-1.71312 h 0.0872 l 0.0872,-0.0225 c 0,0 17.49406,-3.85663 25.54769,-5.5585 4.0451,-0.85796 7.76951,-1.68217 10.72598,-2.47262 1.4712,-0.39664 2.74549,-0.78202 3.78911,-1.16459 1.04362,-0.39663 1.83689,-0.737 2.48388,-1.29679 h 0.0113 c 0.81296,-0.72576 0.90016,-1.74688 0.80171,-2.57109 -0.10971,-0.8242 -0.39382,-1.62591 -0.7145,-2.35167 -0.647,-1.47401 -1.48246,-2.71454 -1.48246,-2.71454 l -0.045,-0.0563 -0.031,-0.0422 c 0,0 -0.95642,-1.14208 -2.27572,-2.28697 -1.31929,-1.14208 -2.95646,-2.46138 -5.02121,-2.46138 z m 0,2.48389 c 0.62449,0 2.12101,0.82421 3.27434,1.81438 1.10832,0.96486 1.89034,1.89034 1.93253,1.94379 0.0338,0.0563 0.7145,1.08863 1.24335,2.27572 0.27286,0.61323 0.48383,1.25178 0.53728,1.67936 0.0563,0.44164 -0.0422,0.50634 0.0113,0.46133 -0.13221,0.10971 -0.75669,0.47258 -1.67092,0.81296 -0.91141,0.33193 -2.12944,0.70325 -3.5472,1.08863 -2.85801,0.75951 -6.55992,1.58372 -10.58251,2.43887 -8.05362,1.70468 -25.35078,5.5163 -25.47173,5.5388 -0.15191,0.0113 -19.77822,1.70468 -26.71227,1.70468 -6.80184,0 -19.07497,-0.22222 -20.31832,-0.24191 -0.0985,-0.39664 -0.14065,-0.56261 -0.29536,-1.2546 -0.25317,-1.18709 -0.49509,-2.64704 -0.49509,-3.25183 0,0.0872 0.0984,-0.31787 0.47258,-0.80171 0.36288,-0.47258 0.93392,-1.05488 1.57247,-1.60341 1.26304,-1.09989 2.84676,-2.15476 3.505,-2.47263 0.0647,-0.0338 0.76795,-0.19972 1.78063,-0.23067 1.02112,-0.045 2.37136,-0.0113 3.98884,0.031 3.22933,0.1097 7.51634,0.33193 12.48129,0.33193 10.10993,0 23.59265,-2.59359 31.53657,-3.42905 4.26451,-0.45008 10.31809,-2.18851 15.71343,-3.79193 2.69204,-0.8017 5.21812,-1.5809 7.20972,-2.15194 1.99723,-0.5626 3.66816,-0.89172 3.83412,-0.89172 z" /><path
         id="path122-3"
         style="fill:#1d582f;fill-opacity:1;fill-rule:nonzero;stroke:none;stroke-width:2.813"
         d="m -390.84768,948.26218 c 0,0 0.90297,-0.85797 3.59501,-0.85797 2.69205,0 8.06488,4.28421 8.06488,9.41794 0,5.13091 -1.79188,6.83278 -1.79188,6.83278 0,0 -2.69205,-4.27295 -5.38409,-5.13092 -2.69204,-0.85796 -4.08729,-1.24053 -4.08729,-1.24053 z" /><path
         id="path124-0"
         style="fill:#fcd116;fill-opacity:1;fill-rule:nonzero;stroke:none;stroke-width:2.813"
         d="m -382.08799,964.30473 c -0.63856,-1.01268 -2.85802,-4.01134 -4.68365,-4.59363 -2.62453,-0.84672 -4.03104,-1.2321 -4.04229,-1.24335 l -0.90016,-0.25036 -0.46133,-10.43905 0.40507,-0.38538 c 0.21942,-0.20816 1.44026,-1.22084 4.51768,-1.22084 3.52751,0 9.37293,4.97901 9.37293,10.65003 0,5.49379 -1.95785,7.51352 -2.17727,7.7245 l -1.17583,1.11957 z m -7.41789,-15.3393 0.31787,7.38413 c 0.692,0.19691 1.78063,0.52603 3.24058,0.99862 1.91284,0.60479 3.68222,2.47263 4.82429,3.91288 0.32913,-0.95642 0.63856,-2.39668 0.63856,-4.45017 0,-4.55143 -4.85806,-8.16614 -6.76809,-8.16614 -1.12238,0 -1.84814,0.17722 -2.25321,0.32068 z" /><path
         id="path126-3"
         style="fill:#1d582f;fill-opacity:1;fill-rule:nonzero;stroke:none;stroke-width:2.813"
         d="m -430.30567,955.96418 c -1.79188,0 -5.38408,1.92128 -5.38408,6.9453 0,5.03246 4.94526,8.87784 4.94526,8.87784 l 1.16458,1.70186 0.62449,-1.70186 c 0,0 4.48392,-3.85663 4.48392,-8.13239 0,-2.55983 -2.24196,-7.69075 -5.83417,-7.69075 z" /><path
         id="path128-1"
         style="fill:#fcd116;fill-opacity:1;fill-rule:nonzero;stroke:none;stroke-width:2.813"
         d="m -431.73467,972.61153 c -0.92267,-0.77077 -5.25188,-4.63864 -5.25188,-9.70205 0,-5.58381 3.98884,-8.18865 6.68088,-8.18865 4.61614,0 7.13097,5.90168 7.13097,8.9341 0,4.197 -3.64847,7.87922 -4.65834,8.82439 l -1.39525,3.80036 z m -2.64704,-9.70205 c 0,4.36016 4.41642,7.87641 4.47268,7.91016 l 0.0759,0.0563 0.0225,-0.0113 c 0.0422,-0.045 4.05354,-3.55001 4.05354,-7.20972 0,-2.15195 -1.95504,-6.45022 -4.52612,-6.45022 -1.09989,0 -4.09855,1.35306 -4.09855,5.70477 z" /><path
         id="path130-1"
         style="fill:#1d582f;fill-opacity:1;fill-rule:nonzero;stroke:none;stroke-width:2.813"
         d="m -479.17033,974.34715 c 0,0 -3.14212,-3.84537 -3.14212,-8.97629 0,-5.13373 5.38409,-7.70481 5.38409,-7.70481 0,0 1.78907,3.42905 2.69204,4.28701 0.88891,0.8439 3.5697,3.14212 3.70191,4.12949 0.32912,2.27572 -8.63592,7.40663 -8.63592,8.2646 z" /><path
         id="path132-7"
         style="fill:#fcd116;fill-opacity:1;fill-rule:nonzero;stroke:none;stroke-width:2.813"
         d="m -475.78629,956.51272 -1.16458,0.42757 c 0,0 -6.65837,2.39668 -6.65837,8.43057 0,5.6035 3.40654,9.7358 3.40654,9.7358 l 2.32917,2.8552 v -3.24058 c 0.18566,-0.17722 0.50352,-0.43883 0.90016,-0.73701 0.81296,-0.61605 1.93534,-1.41775 3.05492,-2.27572 1.11957,-0.8439 2.24196,-1.74687 3.11962,-2.64703 0.88047,-0.90016 1.74687,-1.75813 1.54996,-3.14213 -0.0872,-0.70325 -0.40507,-1.07738 -0.74544,-1.5162 -0.34319,-0.43883 -0.74826,-0.86922 -1.1674,-1.2968 -0.83265,-0.84671 -1.76656,-1.65967 -2.1632,-2.04505 -0.14346,-0.13221 -0.7792,-1.09707 -1.20959,-1.92128 -0.42758,-0.81296 -0.7567,-1.52746 -0.7567,-1.52746 z m -1.27429,3.35309 c 0.0985,0.18566 0.0872,0.17441 0.19692,0.38257 0.46133,0.90298 0.94516,1.84533 1.70467,2.57109 0.49228,0.47258 1.3615,1.23209 2.12101,2.00004 0.37131,0.37413 0.72294,0.75951 0.95361,1.05488 0.23066,0.29817 0.29817,0.58229 0.26442,0.36287 v 0.0113 c -0.0338,-0.25317 -0.16597,0.39663 -0.87766,1.12238 -0.7145,0.72295 -1.76938,1.58091 -2.84676,2.40512 -1.07738,0.82421 -2.1857,1.60341 -3.04367,2.26447 -0.13221,0.0985 -0.20816,0.18566 -0.32912,0.27286 -0.82421,-1.27429 -2.0985,-3.5472 -2.0985,-6.94249 0,-3.36435 2.65829,-4.88056 3.96634,-5.50505 z" /><path
         id="path134-3"
         style="fill:#fcd116;fill-opacity:1;fill-rule:nonzero;stroke:none;stroke-width:2.813"
         d="m -393.53973,950.83326 c 0,-0.85796 -0.88891,-1.71593 -2.68079,-1.71593 -1.80313,0 -9.86801,2.57109 -8.07613,4.27577 0.90016,0.85515 10.75692,-1.70468 10.75692,-2.55984 z" /><path
         id="path136-1"
         style="fill:#fcd116;fill-opacity:1;fill-rule:nonzero;stroke:none;stroke-width:2.813"
         d="m -409.68073,954.24825 c -0.55979,-1.62592 -12.54881,0.85796 -12.54881,3.4178 0,1.71593 13.44897,-0.8439 12.54881,-3.4178 z" /><path
         id="path138-4"
         style="fill:#fcd116;fill-opacity:1;fill-rule:nonzero;stroke:none;stroke-width:2.813"
         d="m -438.37054,961.95306 c 0,-2.57108 -1.15333,-3.20963 -6.40802,-3.20963 -5.25188,0 -6.15204,1.4937 -6.15204,2.35167 0,0.85796 12.56006,1.70186 12.56006,0.85796 z" /><path
         id="path140-6"
         style="fill:#fcd116;fill-opacity:1;fill-rule:nonzero;stroke:none;stroke-width:2.813"
         d="m -455.39202,962.04026 c -0.0113,-0.94516 -5.39534,-2.65828 -8.98754,-2.65828 -3.58377,0 -6.27581,1.71312 -1.79188,2.57108 4.48392,0.8439 10.80192,1.90159 10.77942,0.0872 z" /><path
         id="path176-9"
         style="fill:#1d582f;fill-opacity:1;fill-rule:nonzero;stroke:none;stroke-width:2.813"
         d="m -485.00449,750.71347 c 29.28335,19.24094 61.4444,14.96518 61.4444,15.86815 0,75.21405 -61.45566,117.11091 -61.45566,117.11091 0,0 -61.43596,-41.89686 -61.43596,-117.11091 0,-0.90297 32.13011,3.37279 61.41346,-15.86815 z" /><path
         id="path178-5"
         style="fill:#fcd116;fill-opacity:1;fill-rule:nonzero;stroke:none;stroke-width:2.813"
         d="m -485.01575,885.21999 -0.75951,-0.51478 c -0.15471,-0.0985 -15.70217,-10.81318 -30.99647,-30.62516 -14.12127,-18.28451 -30.96553,-48.30487 -30.96553,-87.49843 v -0.50634 l 0.39382,-0.39663 c 0.5176,-0.48384 1.00143,-0.49509 3.75818,-0.48384 8.42775,0.0338 34.08796,0.10971 57.82126,-15.4912 l 0.32912,-0.22223 h 0.81296 l 0.36287,0.22223 c 23.73611,15.60091 49.42726,15.5137 57.85502,15.4912 2.74549,0 3.24058,0 3.75817,0.48384 l 0.38257,0.36287 0.0112,0.5401 c 0,39.19356 -16.84426,69.21392 -30.97678,87.49843 -15.30555,19.81198 -30.86426,30.5267 -31.01898,30.62516 z m -60.11667,-117.55255 c 0.29537,37.98678 16.67829,67.11823 30.44794,84.94141 13.14235,17.01867 26.40565,27.1736 29.66873,29.53653 3.26309,-2.37418 16.57984,-12.57131 29.74469,-29.61529 13.74714,-17.80068 30.10756,-46.90681 30.41418,-84.86265 h -1.54715 c -8.54028,0.0337 -34.41708,0.10971 -58.61172,-15.47151 -24.20869,15.58122 -50.04049,15.50526 -58.58921,15.47151 z" /><path
         id="path180-7"
         style="fill:#fcd116;fill-opacity:1;fill-rule:nonzero;stroke:none;stroke-width:2.813"
         d="m -506.43394,766.3397 v 90.12578 c 0,0 -16.29573,-16.95678 -23.89927,-36.42838 -7.60355,-19.46879 -9.40387,-34.01764 -9.84551,-38.2934 -0.43883,-4.2617 -0.43883,-11.10854 -0.43883,-11.10854 0,0 28.90923,-1.75813 34.18361,-4.29546 z" /><path
         id="path182-6"
         style="fill:#fcd116;fill-opacity:1;fill-rule:nonzero;stroke:none;stroke-width:2.813"
         d="m -464.44707,766.3397 v 90.12578 c 0,0 16.29572,-16.95678 23.89926,-36.42838 7.60355,-19.46879 9.40668,-34.01764 9.84551,-38.2934 0.44164,-4.2617 0.44164,-11.10854 0.44164,-11.10854 0,0 -28.91203,-1.75813 -34.18641,-4.29546 z" /><path
         id="path184-7"
         style="fill:#fcd116;fill-opacity:1;fill-rule:nonzero;stroke:none;stroke-width:2.813"
         d="m -485.01575,878.64038 -0.77076,-0.5176 c -0.14346,-0.0985 -14.21691,-9.86801 -28.06251,-27.89935 -12.79072,-16.64735 -28.03156,-43.98692 -28.03156,-79.67548 v -0.51759 l 0.39382,-0.39382 c 0.49508,-0.47258 0.95642,-0.47258 3.48531,-0.46415 7.62604,0.0113 30.7883,0.09 52.22619,-14.0847 l 0.32913,-0.23066 h 0.82421 l 0.36287,0.23066 c 21.43789,14.16347 44.63391,14.09596 52.24871,14.0847 2.54014,-0.008 2.99022,-0.008 3.49656,0.46415 l 0.38257,0.37132 0.0225,0.55134 c 0,35.67731 -15.26335,63.02813 -28.05126,79.67548 -13.8681,18.03134 -27.95561,27.78965 -28.08783,27.89935 z m -54.25999,-107.00661 c 0.30661,34.48178 15.10863,60.94369 27.52522,77.11846 11.77804,15.3393 23.6686,24.54625 26.73477,26.79947 3.07462,-2.26447 15.01018,-11.49393 26.79948,-26.86699 12.40534,-16.17476 27.18485,-42.6001 27.48303,-77.05094 h -1.2771 c -7.7442,0.045 -31.10618,0.10127 -53.00541,-14.04251 -21.89922,14.14378 -45.2612,14.07627 -52.99696,14.04251 z" /></g><g
       aria-label="ARAB REPUBLIC OF EGYPT"
       id="text188"
       style="font-size:42.5494px;font-family:'Nimbus Sans';-inkscape-font-specification:NimbusSans-Regular;fill:#fcd116;stroke-width:2.95233"><path
         d="m -748.79266,569.24112 11.31814,29.44418 h -4.59533 l -2.34022,-6.33986 h -13.31796 l -2.29767,6.33986 h -4.59534 l 11.1905,-29.44418 z m -7.53124,19.23233 h 10.46715 l -5.27613,-14.25405 z"
         style="font-family:Expressway;-inkscape-font-specification:Expressway"
         id="path722" /><path
         d="m -721.39086,569.24112 q 2.21257,0 4.04219,0.59569 1.82962,0.55314 3.14866,1.70198 1.31903,1.10628 1.99982,2.80826 0.72334,1.70197 0.72334,3.95709 0,3.5316 -1.65943,5.65907 -1.65943,2.12747 -4.51024,2.93591 l 7.5738,11.78618 h -4.93573 l -7.0632,-11.31814 h -7.02065 v 11.31814 h -4.34004 v -29.44418 z m -7.70144,14.3817 h 7.78654 q 2.55296,0 4.12729,-1.27649 1.57432,-1.27648 1.57432,-3.95709 0,-2.68061 -1.57432,-3.91455 -1.57433,-1.27648 -4.12729,-1.27648 h -7.78654 z"
         style="font-family:Expressway;-inkscape-font-specification:Expressway"
         id="path724" /><path
         d="m -689.39373,569.24112 11.31814,29.44418 h -4.59534 l -2.34022,-6.33986 h -13.31796 l -2.29767,6.33986 h -4.59533 l 11.19049,-29.44418 z m -7.53125,19.23233 h 10.46715 l -5.27612,-14.25405 z"
         style="font-family:Expressway;-inkscape-font-specification:Expressway"
         id="path726" /><path
         d="m -661.60899,569.24112 q 1.91472,0 3.48905,0.51059 1.61688,0.46804 2.76571,1.48923 1.14883,0.97864 1.78708,2.46786 0.63824,1.44668 0.63824,3.36141 0,4.59533 -3.65925,6.29731 2.12747,0.85099 3.3614,2.55296 1.27648,1.70198 1.27648,4.51024 0,3.95709 -2.51041,6.12711 -2.46787,2.12747 -7.1483,2.12747 h -12.76482 v -29.44418 z m -8.50988,25.52964 h 8.46733 q 2.80826,0 4.21239,-1.14884 1.40413,-1.19138 1.40413,-3.4465 0,-2.42531 -1.57433,-3.57415 -1.57433,-1.14883 -4.51023,-1.14883 h -7.99929 z m 0,-12.89247 h 8.63753 q 1.87217,0 3.14865,-1.10628 1.31903,-1.10629 1.31903,-3.31886 0,-2.17002 -1.27648,-3.1912 -1.23393,-1.06374 -3.1912,-1.06374 h -8.63753 z"
         style="font-family:Expressway;-inkscape-font-specification:Expressway"
         id="path728" /><path
         d="m -622.12322,569.24112 q 2.21256,0 4.04219,0.59569 1.82962,0.55314 3.14865,1.70198 1.31904,1.10628 1.99983,2.80826 0.72334,1.70197 0.72334,3.95709 0,3.5316 -1.65943,5.65907 -1.65943,2.12747 -4.51024,2.93591 l 7.5738,11.78618 h -4.93573 l -7.0632,-11.31814 h -7.02066 v 11.31814 h -4.34003 v -29.44418 z m -7.70145,14.3817 h 7.78654 q 2.55297,0 4.1273,-1.27649 1.57432,-1.27648 1.57432,-3.95709 0,-2.68061 -1.57432,-3.91455 -1.57433,-1.27648 -4.1273,-1.27648 h -7.78654 z"
         style="font-family:Expressway;-inkscape-font-specification:Expressway"
         id="path730" /><path
         d="m -585.31805,569.24112 v 4.04219 h -14.25405 v 8.38223 h 10.5948 v 3.91455 h -10.5948 v 9.06302 h 14.55189 v 4.04219 h -18.89193 v -29.44418 z"
         style="font-family:Expressway;-inkscape-font-specification:Expressway"
         id="path732" /><path
         d="m -563.27748,569.24112 q 2.25512,0 4.08474,0.59569 1.82962,0.59569 3.14866,1.74452 1.31903,1.14884 1.99982,2.89336 0.72334,1.70198 0.72334,3.99965 0,2.29767 -0.72334,4.04219 -0.68079,1.70198 -1.99982,2.89336 -1.31904,1.14883 -3.14866,1.74453 -1.82962,0.55314 -4.08474,0.55314 h -7.91419 v 10.97774 h -4.34004 v -29.44418 z m -7.91419,14.63699 h 7.95674 q 2.63806,0 4.21239,-1.31903 1.61688,-1.31903 1.61688,-4.04219 0,-2.68062 -1.61688,-3.99965 -1.57433,-1.31903 -4.21239,-1.31903 h -7.95674 z"
         style="font-family:Expressway;-inkscape-font-specification:Expressway"
         id="path734" /><path
         d="m -544.38558,569.24112 v 18.42389 q 0,1.78707 0.51059,3.14865 0.51059,1.36158 1.40413,2.29767 0.93609,0.89354 2.17002,1.36158 1.23393,0.46805 2.63806,0.46805 1.40413,0 2.63807,-0.46805 1.23393,-0.46804 2.17002,-1.36158 0.93608,-0.93609 1.44668,-2.29767 0.55314,-1.36158 0.55314,-3.14865 v -18.42389 h 4.34004 v 18.42389 q 0,2.80826 -0.89354,4.93573 -0.85099,2.12747 -2.38277,3.5316 -1.53178,1.40413 -3.57415,2.12747 -1.99982,0.68079 -4.29749,0.68079 -2.29766,0 -4.34003,-0.68079 -1.99983,-0.72334 -3.5316,-2.12747 -1.48923,-1.40413 -2.38277,-3.5316 -0.85099,-2.12747 -0.85099,-4.93573 v -18.42389 z"
         style="font-family:Expressway;-inkscape-font-specification:Expressway"
         id="path736" /><path
         d="m -504.89982,569.24112 q 1.91472,0 3.48905,0.51059 1.61687,0.46804 2.76571,1.48923 1.14883,0.97864 1.78707,2.46786 0.63824,1.44668 0.63824,3.36141 0,4.59533 -3.65924,6.29731 2.12747,0.85099 3.3614,2.55296 1.27648,1.70198 1.27648,4.51024 0,3.95709 -2.51041,6.12711 -2.46787,2.12747 -7.1483,2.12747 h -12.76482 v -29.44418 z m -8.50988,25.52964 h 8.46733 q 2.80826,0 4.21239,-1.14884 1.40413,-1.19138 1.40413,-3.4465 0,-2.42531 -1.57433,-3.57415 -1.57433,-1.14883 -4.51024,-1.14883 h -7.99928 z m 0,-12.89247 h 8.63752 q 1.87218,0 3.14866,-1.10628 1.31903,-1.10629 1.31903,-3.31886 0,-2.17002 -1.27648,-3.1912 -1.23393,-1.06374 -3.19121,-1.06374 h -8.63752 z"
         style="font-family:Expressway;-inkscape-font-specification:Expressway"
         id="path738" /><path
         d="m -484.9442,569.24112 v 25.40199 h 15.06248 v 4.04219 h -19.40252 v -29.44418 z"
         style="font-family:Expressway;-inkscape-font-specification:Expressway"
         id="path740" /><path
         d="m -461.24418,569.24112 v 29.44418 h -4.38259 v -29.44418 z"
         style="font-family:Expressway;-inkscape-font-specification:Expressway"
         id="path742" /><path
         d="m -433.79985,577.5808 q -1.27648,-2.29767 -3.06356,-3.57415 -1.78707,-1.27648 -4.51023,-1.27648 -3.99965,0 -6.42496,2.85081 -2.42532,2.80826 -2.42532,8.42478 0,5.57397 2.42532,8.42478 2.42531,2.80826 6.42496,2.80826 2.42531,0 4.16984,-1.06373 1.74453,-1.06374 3.23375,-3.44651 l 3.23376,2.34022 q -3.7018,6.16966 -10.72245,6.16966 -2.80826,0 -5.23358,-0.97863 -2.38276,-0.97864 -4.12729,-2.89336 -1.74452,-1.91472 -2.76571,-4.76553 -0.97864,-2.85081 -0.97864,-6.63771 0,-3.74435 0.97864,-6.59516 1.02119,-2.85081 2.76571,-4.76553 1.74453,-1.95727 4.16984,-2.93591 2.42532,-0.97863 5.27613,-0.97863 4.04219,0 6.68025,1.82962 2.63807,1.82962 4.0422,4.68043 z"
         style="font-family:Expressway;-inkscape-font-specification:Expressway"
         id="path744" /><path
         d="m -399.24976,568.68798 q 2.80826,0 5.14848,0.97863 2.38277,0.97864 4.08474,2.93591 1.70198,1.91472 2.63806,4.80808 0.97864,2.85081 0.97864,6.59516 0,3.74435 -0.97864,6.59516 -0.93608,2.85081 -2.63806,4.76553 -1.70197,1.91472 -4.08474,2.89336 -2.34022,0.97863 -5.14848,0.97863 -2.80826,0 -5.14848,-0.97863 -2.34021,-0.97864 -4.04219,-2.89336 -1.65943,-1.91472 -2.63806,-4.76553 -0.93609,-2.85081 -0.93609,-6.59516 0,-3.74435 0.93609,-6.59516 0.97863,-2.89336 2.63806,-4.80808 1.70198,-1.95727 4.04219,-2.93591 2.34022,-0.97863 5.14848,-0.97863 z m 0,4.04219 q -1.87217,0 -3.4465,0.72334 -1.53178,0.72334 -2.63806,2.12747 -1.10629,1.40413 -1.74453,3.5316 -0.59569,2.08492 -0.59569,4.89318 0,2.76571 0.59569,4.89318 0.63824,2.08492 1.74453,3.48905 1.10628,1.40413 2.63806,2.12747 1.57433,0.72334 3.4465,0.72334 1.91472,0 3.48905,-0.72334 1.57433,-0.72334 2.68061,-2.12747 1.14884,-1.40413 1.74453,-3.48905 0.63824,-2.12747 0.63824,-4.89318 0,-2.80826 -0.63824,-4.89318 -0.59569,-2.12747 -1.74453,-3.5316 -1.10628,-1.40413 -2.68061,-2.12747 -1.57433,-0.72334 -3.48905,-0.72334 z"
         style="font-family:Expressway;-inkscape-font-specification:Expressway"
         id="path746" /><path
         d="m -360.44481,569.24112 v 4.04219 h -13.36051 v 8.85028 h 9.95656 v 3.95709 h -9.95656 v 12.59462 h -4.34004 v -29.44418 z"
         style="font-family:Expressway;-inkscape-font-specification:Expressway"
         id="path748" /><path
         d="m -321.72488,569.24112 v 4.04219 h -14.25405 v 8.38223 h 10.5948 v 3.91455 h -10.5948 v 9.06302 h 14.55189 v 4.04219 h -18.89193 v -29.44418 z"
         style="font-family:Expressway;-inkscape-font-specification:Expressway"
         id="path750" /><path
         d="m -287.81303,582.98457 v 3.44651 q 0,2.89335 -0.80844,5.23357 -0.76589,2.34022 -2.25512,4.04219 -1.48922,1.70198 -3.70179,2.63807 -2.17002,0.89353 -4.97828,0.89353 -2.85081,0 -5.27613,-0.97863 -2.38277,-0.97864 -4.16984,-2.89336 -1.74453,-1.91472 -2.72316,-4.72298 -0.97864,-2.85081 -0.97864,-6.59516 0,-3.74435 0.97864,-6.59516 1.02118,-2.89336 2.76571,-4.80808 1.74452,-1.95727 4.16984,-2.93591 2.42532,-1.02118 5.27613,-1.02118 4.04219,0 6.68025,1.82962 2.63806,1.82962 4.04219,4.68043 l -3.14865,2.38277 q -1.23393,-2.29767 -3.06356,-3.57415 -1.78707,-1.27648 -4.55278,-1.27648 -3.9571,0 -6.38241,2.85081 -2.42532,2.85081 -2.42532,8.42478 0,5.57397 2.42532,8.42478 2.42531,2.80826 6.38241,2.80826 3.31885,0 5.40377,-2.12747 2.08492,-2.12747 2.17002,-6.38241 h -6.68026 v -3.74435 z"
         style="font-family:Expressway;-inkscape-font-specification:Expressway"
         id="path752" /><path
         d="m -279.47335,569.24112 8.25458,14.63699 8.33968,-14.63699 h 4.85063 l -11.06284,18.59409 v 10.85009 h -4.29749 v -10.85009 l -11.10539,-18.59409 z"
         style="font-family:Expressway;-inkscape-font-specification:Expressway"
         id="path754" /><path
         d="m -240.83858,569.24112 q 2.25512,0 4.08474,0.59569 1.82963,0.59569 3.14866,1.74452 1.31903,1.14884 1.99982,2.89336 0.72334,1.70198 0.72334,3.99965 0,2.29767 -0.72334,4.04219 -0.68079,1.70198 -1.99982,2.89336 -1.31903,1.14883 -3.14866,1.74453 -1.82962,0.55314 -4.08474,0.55314 h -7.91419 v 10.97774 h -4.34004 v -29.44418 z m -7.91419,14.63699 h 7.95674 q 2.63806,0 4.21239,-1.31903 1.61688,-1.31903 1.61688,-4.04219 0,-2.68062 -1.61688,-3.99965 -1.57433,-1.31903 -4.21239,-1.31903 h -7.95674 z"
         style="font-family:Expressway;-inkscape-font-specification:Expressway"
         id="path756" /><path
         d="m -205.56514,569.24112 v 4.04219 h -8.85027 v 25.40199 h -4.34004 v -25.40199 h -8.93538 v -4.04219 z"
         style="font-family:Expressway;-inkscape-font-specification:Expressway"
         id="path758" /></g><g
       id="g412"
       transform="matrix(0.93309165,0,0,0.93309165,-80.527643,33.464592)"><g
         aria-label=""
         id="text192"
         style="font-size:86.3704px;font-family:'DejaVu Sans';-inkscape-font-specification:DejaVuSans;fill:#fcd116;stroke-width:2.813"><path
           d="m -70.416266,486.1452 q -3.500363,-0.96998 -7.844187,-1.93996 -3.584709,-0.80129 -11.175857,-1.47606 -3.45819,-0.29521 -10.24805,-0.0422 v -7.75984 q 3.036459,-0.29521 6.199438,-0.33739 6.832033,0 14.085797,1.47606 10.880646,2.193 20.158716,6.32596 v 6.49465 q -3.205151,1.01215 -6.916379,3.20515 -7.000726,4.13296 -10.121531,6.91638 -6.115092,5.44032 -9.278071,6.57899 -9.320243,3.37385 -16.19445,3.37385 h -5.39815 v -7.75985 h 4.21731 q 9.573277,0 15.0136,-3.03645 4.385997,-2.44604 9.27807,-6.91638 3.964266,-3.62689 8.223744,-5.10294 z m -13.748413,29.14157 h 6.325957 v 6.32596 h -6.325957 z"
           id="path761" /><path
           d="m -119.62146,506.76782 q -4.09078,4.30165 -9.95283,4.30165 -9.02504,0 -13.66407,-4.13296 -2.69908,2.02431 -7.08507,2.02431 h -6.74769 v -7.75985 h 4.89207 q 2.193,0 4.04861,-1.51822 1.81345,-1.47606 2.02431,-3.54254 0.84346,-7.63332 6.53682,-11.00717 3.96427,-2.36169 7.88636,-2.36169 3.03646,0 5.81988,1.22302 8.1394,3.50036 8.85634,10.54326 0.21087,2.06648 2.36169,4.68121 1.51823,1.85562 6.03075,1.85562 h 3.16298 v 7.75984 h -5.4825 q -7.42245,0 -8.68765,-2.06648 z m -19.48394,-6.19944 q 2.61473,2.90994 9.32024,2.90994 1.98213,0 2.78342,-0.75912 2.193,-2.23517 2.193,-5.14511 0,-0.80129 -0.21087,-1.5604 -0.9278,-3.71123 -3.37384,-4.42817 -1.64475,-0.50608 -3.2895,-0.50608 -2.23517,0 -3.96426,1.13868 -2.10866,1.39171 -2.74125,5.48249 -0.29521,1.5604 -0.71694,2.86777 z"
           id="path763" /><path
           d="m -181.74779,501.20097 h 0.80129 q 1.77127,0 5.81988,-3.20515 4.80773,-3.79557 4.80773,-5.98857 0,-4.72338 -3.54254,-4.72338 -3.16298,0 -6.28378,5.9464 -1.60258,3.03646 -1.60258,7.9707 z m -7.75984,0 q 0.37956,-11.21803 5.81988,-16.53183 4.55469,-4.51252 9.99502,-4.51252 5.81988,0 8.72982,4.17514 1.93996,2.82559 1.93996,7.63332 0,4.68121 -6.87421,9.23589 h 14.50753 v 7.75985 h -14.50753 q 6.87421,4.55468 6.87421,9.23589 0,4.80773 -1.93996,7.63332 -2.90994,4.17514 -8.72982,4.17514 -5.44033,0 -9.99502,-4.51252 -5.44032,-5.39815 -5.81988,-16.53183 h -7.38028 v -7.75985 z m 7.75984,7.75985 q 0,4.93424 1.60258,7.9707 3.1208,5.9464 6.28378,5.9464 3.54254,0 3.54254,-4.72338 0,-2.193 -4.80773,-5.98857 -4.04861,-3.20515 -5.81988,-3.20515 z"
           id="path765" /><path
           d="m -213.33173,501.20097 q 0,-3.20515 -0.67477,-5.60901 -1.01215,-3.37384 -2.95211,-4.63904 -2.53038,-1.72909 -5.06077,-0.63259 -2.82559,1.22302 -3.37384,3.58471 -0.71694,3.16298 1.98213,5.44032 1.98214,1.68692 10.07936,1.85561 z m 7.54898,0 h 10.37457 v 7.75985 h -8.18157 l -2.95212,-0.0422 q -1.05432,6.579 -6.49465,12.01932 -3.50036,3.50036 -7.92853,5.4825 -8.09722,3.62688 -23.49039,3.62688 v -7.75984 q 15.22447,0 20.79132,-3.20515 7.08507,-4.00644 9.6998,-10.24805 -4.97642,-0.12652 -6.87421,-0.42173 -5.86205,-1.01216 -8.01288,-2.8256 -4.47034,-3.7534 -4.89207,-9.44676 -0.0844,-1.30737 0.33738,-3.71123 1.13867,-6.53682 8.56113,-9.6998 2.48821,-1.05433 5.22946,-1.01215 3.66905,0.0843 6.57899,2.15082 5.60902,3.87992 6.53683,9.82632 0.54825,3.50037 0.71694,7.5068 z"
           id="path767" /><path
           d="m -254.12087,502.29747 q 0.42173,-2.44603 0.42173,-5.48249 0,-5.31381 -2.23517,-11.04934 h 7.75984 q 2.10865,4.97642 2.10865,10.54326 0,3.45819 -0.33738,6.07292 -1.93996,14.76057 -14.21232,21.29739 -11.97714,6.36813 -25.55686,6.36813 v -7.75984 q 12.8206,0 21.38173,-5.39815 9.19372,-5.81988 10.66978,-14.59188 z"
           id="path769" /><path
           d="m -294.16165,505.33393 q -3.03646,3.62689 -9.65763,3.62689 h -3.79557 v -7.75985 h 1.47605 q 4.17514,0 6.03075,-1.85561 2.06648,-2.06648 2.06648,-6.53682 v -9.15155 h 7.75984 v 9.15155 q 0,7.88636 -3.87992,12.52539 z m 2.10865,9.95284 h 6.32596 v 6.32596 h -6.32596 z m -10.54326,0 h 6.32596 v 6.32596 h -6.32596 z"
           id="path771" /><path
           d="m -324.72973,497.06802 q -0.6326,-1.77127 -1.18085,-3.83775 -0.54825,-2.10865 -1.05432,-6.36813 -5.06077,0.50608 -8.51896,3.33167 -4.68121,3.7534 -4.59686,6.36813 0.0422,1.72909 3.83775,2.78342 3.79557,1.05433 11.51324,-2.27734 z m -2.82559,-16.2788 q -0.1687,-1.64475 -0.29522,-3.45819 h 7.75984 q 0.0422,7.08507 1.56041,14.42318 0.88563,4.25948 3.24732,7.59115 1.30737,1.85561 6.03075,1.85561 h 3.16298 v 7.75985 h -5.4825 q -3.79557,0 -6.87421,-2.15083 -1.89778,-1.30736 -3.50036,-3.79557 -5.81988,3.07863 -12.39888,3.07863 -2.36169,0 -4.80772,-0.6326 -7.97071,-2.0243 -7.97071,-8.51895 0,-7.29594 8.6033,-12.65192 4.59687,-2.86776 10.965,-3.50036 z m -0.37956,-16.1101 h 6.32595 v 6.32595 h -6.32595 z m -10.54326,0 h 6.32595 v 6.32595 h -6.32595 z"
           id="path773" /></g><g
         aria-label=""
         id="text196"
         style="font-size:86.3704px;font-family:'DejaVu Sans';-inkscape-font-specification:DejaVuSans;fill:#fcd116;stroke-width:2.813"><path
           d="m -390.39288,506.76782 q -4.09079,4.30165 -10.29022,4.30165 -8.68765,0 -13.32669,-4.13296 -2.69907,2.02431 -7.08507,2.02431 h -6.74769 v -7.75985 h 4.89208 q 2.193,0 4.00644,-1.47605 1.85561,-1.51823 2.06648,-3.58471 0.84346,-7.63332 6.53682,-11.00717 3.96427,-2.36169 7.38028,-2.36169 7.42246,0 11.26021,3.54254 4.09078,3.7534 4.09078,11.51324 0,6.03075 -2.78342,8.94069 z m -19.48395,-6.19944 q 2.61473,2.90994 9.32025,2.90994 1.98213,0 2.78342,-0.75912 2.193,-2.23517 2.193,-5.14511 0,-3.16298 -1.68693,-4.76555 -1.77126,-1.7291 -5.48249,-1.7291 -1.93996,0 -3.87992,1.2652 -1.89779,1.26519 -2.53039,5.35597 -0.29521,1.5604 -0.71694,2.86777 z"
           id="path776" /><path
           d="m -463.16946,508.96082 h -11.80845 q -3.1208,0 -6.4103,-1.77127 -2.74125,-1.47606 -4.386,-4.04862 -4.30165,5.81989 -11.55541,5.81989 h -5.4825 v -7.75985 h 3.16298 q 4.17513,0 6.03074,-1.85561 3.37385,-3.37384 3.37385,-7.59115 v -4.80772 h 7.75984 v 3.28949 q 0,1.01216 0.37956,2.69908 0.37955,1.68692 2.27734,3.79557 4.25948,-5.65119 8.26592,-9.19372 6.45247,-5.77771 12.52539,-8.43461 3.16298,-1.39171 6.74769,-1.39171 4.76555,0 9.36242,1.64475 8.01288,2.86776 8.01288,12.8206 0,3.16298 -1.77127,6.19944 0.59042,0.50608 1.26519,0.96998 2.57255,1.85561 6.03074,1.85561 h 3.16298 v 7.75985 h -5.48249 q -5.52467,0 -9.8685,-3.87992 l -1.18084,-1.0965 q -8.6033,4.97642 -20.41176,4.97642 z m 2.36169,-20.49611 q -7.08507,4.55469 -13.20016,12.73626 h 7.88636 q 9.99501,0 15.43534,-2.6569 7.84418,-3.83774 7.84418,-6.78986 0,-5.69336 -5.86205,-6.49465 -1.5604,-0.21086 -3.58471,-0.21086 -3.20515,0 -8.51896,3.41601 z"
           id="path778" /><path
           d="m -523.07814,485.76564 h 7.75984 q 1.26519,4.72338 1.39171,5.98857 0.42173,4.34383 3.50036,7.59115 1.77127,1.85561 6.03075,1.85561 h 3.16298 v 7.75985 h -5.4825 q -5.48249,0 -7.59115,-2.61473 -2.86776,11.7241 -13.4532,17.33312 -11.97714,6.36813 -25.55686,6.36813 v -7.75984 q 12.8206,0 21.38173,-5.39815 9.19373,-5.81988 10.66978,-14.59188 0.42173,-2.44603 0.42173,-5.48249 0,-5.31381 -2.23517,-11.04934 z"
           id="path780" /></g><g
         aria-label=""
         id="text200"
         style="font-size:86.3704px;font-family:'DejaVu Sans';-inkscape-font-specification:DejaVuSans;fill:#fcd116;stroke-width:2.813"><path
           d="m -593.15534,443.33955 h 7.75984 v 65.62127 h -7.75984 z"
           id="path783" /><path
           d="m -609.54748,493.31462 q 0,7.5068 -3.66905,11.76628 -3.37385,3.87992 -9.8685,3.87992 h -5.48249 v -7.75985 h 3.16298 q 4.17513,0 6.03074,-1.85561 2.06648,-2.06648 2.06648,-6.53682 v -49.46899 h 7.75984 z"
           id="path785" /><path
           d="m -648.60756,501.1588 q -8.18157,7.80202 -16.70052,7.80202 h -4.97642 v -7.75985 h 4.04861 q 4.51252,0 7.29594,-1.68692 2.48821,-1.51823 4.17513,-3.16298 -4.09079,-3.5847 -6.95855,-7.38028 -1.26519,-1.64475 -1.26519,-3.54253 0,-1.30737 0.54824,-3.03646 0.67477,-2.31952 5.06077,-4.51252 3.7534,-1.89779 8.77199,-1.89779 5.0186,0 8.772,1.89779 4.38599,2.193 5.06076,4.51252 0.54825,1.72909 0.54825,3.03646 0,1.89778 -1.26519,3.54253 -3.24732,4.13296 -6.95855,7.38028 1.30736,1.30737 4.17513,3.16298 2.57256,1.68692 7.29594,1.68692 h 4.04861 v 7.75985 h -4.97642 q -8.51895,0 -16.70053,-7.80202 z m 2.36169,-17.08008 q -1.26519,-0.29521 -2.36169,-0.29521 -1.09649,0 -2.36169,0.29521 -1.98213,0.50607 -1.98213,1.85561 0,1.22302 4.34382,5.22946 4.34383,-4.00644 4.34383,-5.22946 0,-1.34954 -1.98214,-1.85561 z"
           id="path787" /><path
           d="m -690.55049,485.76564 h 7.75984 q 1.26519,4.72338 1.39171,5.98857 0.42173,4.34383 3.50036,7.59115 1.77127,1.85561 6.03075,1.85561 h 3.16298 v 7.75985 h -5.4825 q -5.48249,0 -7.59115,-2.61473 -2.86776,11.7241 -13.4532,17.33312 -11.97714,6.36813 -25.55686,6.36813 v -7.75984 q 12.8206,0 21.38173,-5.39815 9.19372,-5.81988 10.66978,-14.59188 0.42173,-2.44603 0.42173,-5.48249 0,-5.31381 -2.23517,-11.04934 z"
           id="path789" /><path
           d="m -728.77789,505.33393 q -3.03646,3.62689 -9.65763,3.62689 h -3.79557 v -7.75985 h 1.47605 q 4.17513,0 6.03075,-1.85561 2.06648,-2.06648 2.06648,-6.53682 v -9.15155 h 7.75984 v 9.15155 q 0,7.88636 -3.87992,12.52539 z m -3.16298,9.95284 h 6.32596 v 6.32596 h -6.32596 z"
           id="path791" /><path
           d="m -754.94812,505.33393 q -3.24733,3.62689 -9.65763,3.62689 h -3.79557 v -7.75985 h 1.47605 q 4.17514,0 6.03075,-1.85561 2.06648,-2.06648 2.06648,-6.53682 v -9.15155 h 7.75984 v 9.15155 q 0,4.47034 2.06648,6.53682 1.85561,1.85561 6.03074,1.85561 h 2.31952 v 7.75985 h -4.63903 q -6.32596,0 -9.65763,-3.62689 z m 2.10865,9.95284 h 6.32596 v 6.32596 h -6.32596 z m -10.54326,0 h 6.32596 v 6.32596 h -6.32596 z"
           id="path793" /><path
           d="m -785.51623,497.06802 q -0.6326,-1.77127 -1.18084,-3.83775 -0.54825,-2.10865 -1.05433,-6.36813 -5.06077,0.50608 -8.51896,3.33167 -4.6812,3.7534 -4.59686,6.36813 0.0422,1.72909 3.83775,2.78342 3.79557,1.05433 11.51324,-2.27734 z m -2.82559,-16.2788 q -0.1687,-1.64475 -0.29522,-3.45819 h 7.75985 q 0.0422,7.08507 1.5604,14.42318 0.88563,4.25948 3.24732,7.59115 1.30737,1.85561 6.03075,1.85561 h 3.16298 v 7.75985 h -5.4825 q -3.79557,0 -6.87421,-2.15083 -1.89778,-1.30736 -3.50036,-3.79557 -5.81988,3.07863 -12.39887,3.07863 -2.36169,0 -4.80773,-0.6326 -7.97071,-2.0243 -7.97071,-8.51895 0,-7.29594 8.6033,-12.65192 4.59687,-2.86776 10.965,-3.50036 z m -0.37956,-16.1101 h 6.32596 v 6.32595 h -6.32596 z m -10.54326,0 h 6.32595 v 6.32595 h -6.32595 z"
           id="path795" /></g></g><g
       aria-label="PASSPORT"
       id="text204"
       style="font-size:48.397px;font-family:'Nimbus Sans';-inkscape-font-specification:NimbusSans-Regular;fill:#fcd116;stroke-width:3.86176"><path
         d="m -599.85782,1253.785 q 2.56505,0 4.64612,0.6776 2.08107,0.6775 3.58137,1.9843 1.50031,1.3067 2.27466,3.291 0.82275,1.9358 0.82275,4.5493 0,2.6134 -0.82275,4.5977 -0.77435,1.9359 -2.27466,3.291 -1.5003,1.3067 -3.58137,1.9843 -2.08107,0.6291 -4.64612,0.6291 h -9.00184 v 12.4865 h -4.93649 v -33.4908 z m -9.00184,16.6486 h 9.05024 q 3.00062,0 4.7913,-1.5003 1.83909,-1.5003 1.83909,-4.5977 0,-3.049 -1.83909,-4.5493 -1.79068,-1.5003 -4.7913,-1.5003 h -9.05024 z"
         style="font-family:Expressway;-inkscape-font-specification:Expressway"
         id="path590" /><path
         d="m -570.33634,1253.785 12.8736,33.4908 h -5.22687 l -2.66184,-7.2112 h -15.14826 l -2.61344,7.2112 h -5.22687 l 12.72841,-33.4908 z m -8.56627,21.8755 h 11.90566 l -6.00123,-16.213 z"
         style="font-family:Expressway;-inkscape-font-specification:Expressway"
         id="path592" /><path
         d="m -552.71959,1278.6127 q 1.74229,2.0811 4.35573,3.3878 2.66183,1.3067 6.29161,1.3067 3.77496,0 6.04962,-1.5003 2.27466,-1.5003 2.27466,-4.3073 0,-1.8875 -1.01634,-2.8555 -1.01633,-0.9679 -2.61343,-1.5487 -1.16153,-0.4355 -2.56504,-0.7259 -1.35512,-0.3388 -2.80703,-0.6292 -1.40351,-0.3388 -2.85542,-0.6775 -1.45191,-0.3872 -2.80703,-0.9196 -2.66183,-1.0647 -4.21054,-2.7586 -1.50031,-1.7423 -1.50031,-4.6461 0,-2.0327 0.77436,-3.7266 0.82275,-1.6939 2.32305,-2.9038 1.54871,-1.2583 3.77497,-1.9359 2.27466,-0.7259 5.13008,-0.7259 2.41985,0 4.35573,0.4839 1.93588,0.4356 3.43619,1.2099 1.5487,0.7744 2.66183,1.7423 1.16153,0.9196 1.88749,1.8875 l -3.43619,3.049 q -1.45191,-1.6455 -3.67817,-2.7586 -2.22627,-1.1615 -5.42047,-1.1615 -3.29099,0 -5.17848,1.2583 -1.88748,1.2583 -1.88748,3.3878 0,1.5971 0.96794,2.4682 0.96794,0.8228 2.22626,1.3552 1.16153,0.4355 2.51665,0.7743 1.40351,0.2904 2.85542,0.5808 1.45191,0.2904 2.90382,0.6775 1.50031,0.3388 2.90382,0.8712 1.20992,0.4839 2.27466,1.1615 1.11313,0.6292 1.93588,1.6455 0.82275,0.9679 1.30672,2.2747 0.53236,1.3067 0.53236,3.0974 0,2.565 -1.01633,4.5009 -1.01634,1.8875 -2.85543,3.1458 -1.79068,1.2583 -4.25893,1.9359 -2.41985,0.6291 -5.27527,0.6291 -5.03329,0 -8.56627,-1.7423 -3.48459,-1.7423 -5.46886,-4.3073 z"
         style="font-family:Expressway;-inkscape-font-specification:Expressway"
         id="path594" /><path
         d="m -520.9229,1278.6127 q 1.74229,2.0811 4.35573,3.3878 2.66183,1.3067 6.29161,1.3067 3.77497,0 6.04962,-1.5003 2.27466,-1.5003 2.27466,-4.3073 0,-1.8875 -1.01633,-2.8555 -1.01634,-0.9679 -2.61344,-1.5487 -1.16153,-0.4355 -2.56504,-0.7259 -1.35512,-0.3388 -2.80703,-0.6292 -1.40351,-0.3388 -2.85542,-0.6775 -1.45191,-0.3872 -2.80703,-0.9196 -2.66183,-1.0647 -4.21054,-2.7586 -1.5003,-1.7423 -1.5003,-4.6461 0,-2.0327 0.77435,-3.7266 0.82275,-1.6939 2.32305,-2.9038 1.54871,-1.2583 3.77497,-1.9359 2.27466,-0.7259 5.13008,-0.7259 2.41985,0 4.35573,0.4839 1.93588,0.4356 3.43619,1.2099 1.5487,0.7744 2.66183,1.7423 1.16153,0.9196 1.88749,1.8875 l -3.43619,3.049 q -1.45191,-1.6455 -3.67817,-2.7586 -2.22626,-1.1615 -5.42047,-1.1615 -3.29099,0 -5.17847,1.2583 -1.88749,1.2583 -1.88749,3.3878 0,1.5971 0.96794,2.4682 0.96794,0.8228 2.22626,1.3552 1.16153,0.4355 2.51665,0.7743 1.40351,0.2904 2.85542,0.5808 1.45191,0.2904 2.90382,0.6775 1.50031,0.3388 2.90382,0.8712 1.20993,0.4839 2.27466,1.1615 1.11313,0.6292 1.93588,1.6455 0.82275,0.9679 1.30672,2.2747 0.53237,1.3067 0.53237,3.0974 0,2.565 -1.01634,4.5009 -1.01634,1.8875 -2.85542,3.1458 -1.79069,1.2583 -4.25894,1.9359 -2.41985,0.6291 -5.27527,0.6291 -5.03329,0 -8.56627,-1.7423 -3.48459,-1.7423 -5.46886,-4.3073 z"
         style="font-family:Expressway;-inkscape-font-specification:Expressway"
         id="path596" /><path
         d="m -475.96231,1253.785 q 2.56504,0 4.64611,0.6776 2.08107,0.6775 3.58138,1.9843 1.50031,1.3067 2.27466,3.291 0.82275,1.9358 0.82275,4.5493 0,2.6134 -0.82275,4.5977 -0.77435,1.9359 -2.27466,3.291 -1.50031,1.3067 -3.58138,1.9843 -2.08107,0.6291 -4.64611,0.6291 h -9.00184 v 12.4865 h -4.93649 v -33.4908 z m -9.00184,16.6486 h 9.05024 q 3.00061,0 4.7913,-1.5003 1.83909,-1.5003 1.83909,-4.5977 0,-3.049 -1.83909,-4.5493 -1.79069,-1.5003 -4.7913,-1.5003 h -9.05024 z"
         style="font-family:Expressway;-inkscape-font-specification:Expressway"
         id="path598" /><path
         d="m -444.55246,1253.1559 q 3.1942,0 5.85603,1.1131 2.71023,1.1131 4.64611,3.3394 1.93588,2.1779 3.00062,5.4689 1.11313,3.2426 1.11313,7.5015 0,4.2589 -1.11313,7.5015 -1.06474,3.2426 -3.00062,5.4205 -1.93588,2.1779 -4.64611,3.291 -2.66183,1.1131 -5.85603,1.1131 -3.19421,0 -5.85604,-1.1131 -2.66184,-1.1131 -4.59772,-3.291 -1.88748,-2.1779 -3.00061,-5.4205 -1.06473,-3.2426 -1.06473,-7.5015 0,-4.2589 1.06473,-7.5015 1.11313,-3.291 3.00061,-5.4689 1.93588,-2.2263 4.59772,-3.3394 2.66183,-1.1131 5.85604,-1.1131 z m 0,4.5977 q -2.12947,0 -3.92016,0.8227 -1.74229,0.8228 -3.00062,2.4199 -1.25832,1.5971 -1.98427,4.0169 -0.67756,2.3715 -0.67756,5.5657 0,3.1458 0.67756,5.5656 0.72595,2.3715 1.98427,3.9686 1.25833,1.5971 3.00062,2.4199 1.79069,0.8227 3.92016,0.8227 2.17786,0 3.96855,-0.8227 1.79069,-0.8228 3.04901,-2.4199 1.30672,-1.5971 1.98428,-3.9686 0.72595,-2.4198 0.72595,-5.5656 0,-3.1942 -0.72595,-5.5657 -0.67756,-2.4198 -1.98428,-4.0169 -1.25832,-1.5971 -3.04901,-2.4199 -1.79069,-0.8227 -3.96855,-0.8227 z"
         style="font-family:Expressway;-inkscape-font-specification:Expressway"
         id="path600" /><path
         d="m -406.85157,1253.785 q 2.51664,0 4.59771,0.6776 2.08108,0.6292 3.58138,1.9359 1.50031,1.2583 2.27466,3.1942 0.82275,1.9359 0.82275,4.5009 0,4.0169 -1.88748,6.4368 -1.88749,2.4198 -5.13008,3.3394 l 8.61466,13.406 h -5.61405 l -8.0339,-12.8736 h -7.98551 v 12.8736 h -4.93649 v -33.4908 z m -8.75986,16.3582 h 8.85665 q 2.90382,0 4.69451,-1.4519 1.79069,-1.4519 1.79069,-4.5009 0,-3.049 -1.79069,-4.4525 -1.79069,-1.4519 -4.69451,-1.4519 h -8.85665 z"
         style="font-family:Expressway;-inkscape-font-specification:Expressway"
         id="path602" /><path
         d="m -364.31074,1253.785 v 4.5977 h -10.06657 v 28.8931 h -4.9365 v -28.8931 h -10.16337 v -4.5977 z"
         style="font-family:Expressway;-inkscape-font-specification:Expressway"
         id="path604" /></g><g
       id="g520"
       transform="translate(-26.749182,-16)"><g
         aria-label=""
         id="text208"
         style="font-size:67.5354px;font-family:'DejaVu Sans';-inkscape-font-specification:DejaVuSans;fill:#fcd116;stroke-width:3.07935"><path
           d="m -329.19571,1207.806 q -2.73703,-0.7585 -6.13358,-1.517 -2.80299,-0.6265 -8.73871,-1.1541 -2.70406,-0.2309 -8.01324,-0.033 v -6.0676 q 2.37429,-0.2309 4.84751,-0.2638 5.34216,0 11.01408,1.1541 8.50787,1.7148 15.76265,4.9465 v 5.0783 q -2.50619,0.7914 -5.4081,2.5062 -5.47406,3.2317 -7.91431,5.4081 -4.78156,4.254 -7.25478,5.1443 -7.28775,2.6381 -12.66289,2.6381 h -4.22096 v -6.0676 h 3.29763 q 7.48561,0 11.73955,-2.3743 3.42953,-1.9126 7.25478,-5.4081 3.09977,-2.836 6.43037,-3.9901 z m -10.75026,22.7866 h 4.94644 v 4.9464 h -4.94644 z"
           id="path574" /><path
           d="m -370.70813,1219.5785 q 0,-2.5062 -0.52762,-4.3859 -0.79144,-2.6381 -2.30834,-3.6273 -1.97858,-1.3521 -3.95716,-0.4947 -2.20941,0.9563 -2.6381,2.803 -0.56059,2.4732 1.54989,4.2539 1.54988,1.3191 7.88133,1.451 z m 5.90275,0 h 8.11216 v 6.0676 h -6.3974 l -2.30833,-0.033 q -0.82441,5.1443 -5.07835,9.3983 -2.73703,2.737 -6.19954,4.2869 -6.33144,2.836 -18.36778,2.836 v -6.0677 q 11.90443,0 16.2573,-2.5062 5.54001,-3.1327 7.58454,-8.0132 -3.8912,-0.099 -5.37513,-0.3298 -4.5837,-0.7914 -6.26549,-2.2094 -3.49549,-2.9349 -3.82525,-7.3867 -0.0659,-1.0222 0.26381,-2.9019 0.89036,-5.1113 6.69418,-7.5845 1.9456,-0.8244 4.08906,-0.7915 2.86894,0.066 5.1443,1.6818 4.38584,3.0339 5.11132,7.6835 0.42869,2.737 0.5606,5.8698 z"
           id="path576" /><path
           d="m -404.652,1174.335 h 6.06764 v 51.3111 h -6.06764 z"
           id="path578" /><path
           d="m -421.37682,1220.4359 q 0.32976,-1.9127 0.32976,-4.2869 0,-4.1551 -1.74774,-8.6398 h 6.06763 q 1.64881,3.8912 1.64881,8.244 0,2.7041 -0.26381,4.7486 -1.5169,11.5417 -11.113,16.653 -9.36526,4.9795 -19.98362,4.9795 v -6.0677 q 10.02479,0 16.71897,-4.2209 7.18883,-4.5508 8.343,-11.4098 z m -1.64882,-26.1172 h 4.94644 v 4.9464 h -4.94644 z"
           id="path580" /></g><g
         aria-label=""
         id="text212"
         style="font-size:67.5354px;font-family:'DejaVu Sans';-inkscape-font-specification:DejaVuSans;fill:#fcd116;stroke-width:3.07935"><path
           d="m -509.17787,1221.0954 q -1.41798,1.9456 -3.26465,3.0338 -2.5062,1.5169 -5.77085,1.5169 h -4.28691 v -6.0676 h 2.47322 q 3.26465,0 4.7156,-1.451 2.63811,-2.6381 2.63811,-5.9357 v -6.3314 h 6.06763 v 5.1443 q 0,2.1104 1.45095,5.4081 1.41798,3.2646 4.84752,3.2646 3.59441,0 5.04537,-4.0231 1.22012,-3.3965 1.22012,-9.7939 h 6.06763 q 0,6.7601 0.62655,8.4089 2.11048,5.606 5.73787,5.573 4.68263,-0.066 4.68263,-9.2334 v -9.695 h 6.06764 v 11.2779 q 0,6.5623 -3.03382,10.2886 -2.47322,3.0338 -5.8368,3.8252 -1.22012,0.2968 -2.37429,0.2968 -2.07751,0 -3.8912,-0.8244 -4.51775,-2.0115 -5.11132,-6.3644 -1.58287,5.1443 -4.74859,6.2325 -2.24238,0.7914 -4.38584,0.7914 -3.23168,0 -5.60597,-1.6158 -1.97857,-1.319 -3.3306,-3.7263 z"
           id="path583" /><path
           d="m -535.83375,1200.5182 q 6.03466,2.6381 6.82609,7.5845 0.26381,1.6489 0.26381,3.0339 0,2.4072 -0.6925,4.0231 -0.95631,2.2094 -2.14346,3.8582 1.28607,0.5606 6.13359,0.5606 h 4.18798 v 6.0676 h -7.15585 q -4.48477,0 -10.58538,-1.8796 -6.10061,1.8796 -10.58538,1.8796 h -7.15585 v -6.0676 h 4.18798 q 4.84751,0 6.13359,-0.5606 -0.95631,-1.3191 -2.14346,-3.8582 -0.6925,-1.5169 -0.6925,-4.0231 0,-1.451 0.26381,-3.0339 0.75845,-4.7156 6.85906,-7.5845 0.98929,-0.4617 3.13275,-0.4617 2.0775,0 3.16572,0.4617 z m -3.16572,5.606 q -0.49464,0 -1.08822,0.3297 -1.84667,1.0553 -2.6381,2.803 -0.32976,0.6925 -0.32976,1.6488 0,1.418 0.79143,3.1657 1.02226,2.2424 3.26465,2.9679 2.0775,-0.6925 3.26465,-2.9679 0.82441,-1.6488 0.82441,-3.1657 0,-0.7914 -0.36274,-1.6488 -0.75846,-1.7148 -2.6381,-2.803 -0.62655,-0.3297 -1.08822,-0.3297 z m -2.47322,-18.4008 h 4.94644 v 4.9464 h -4.94644 z"
           id="path585" /><path
           d="m -572.58686,1207.5092 h 6.06764 q 0.98929,3.6933 1.08822,4.6826 0.32976,3.3966 2.73703,5.9357 1.385,1.451 4.7156,1.451 h 2.47322 v 6.0676 h -4.28691 q -4.28692,0 -5.93573,-2.0445 -2.24239,9.1674 -10.51943,13.5532 -9.36526,4.9795 -19.98362,4.9795 v -6.0677 q 10.02479,0 16.71897,-4.2209 7.18882,-4.5508 8.34299,-11.4098 0.32977,-1.9127 0.32977,-4.2869 0,-4.1551 -1.74775,-8.6398 z"
           id="path587" /></g></g></g></svg>
