<svg xmlns="http://www.w3.org/2000/svg" xml:space="preserve" width="883.977" height="1253.437"><path fill="#003875" d="M-44.43 1489.658c0 14.43-5.384 28.748-16.046 39.695-10.67 10.938-24.725 16.472-38.69 16.472h-826.59V295.037h826.59c13.965 0 28.02 5.525 38.69 16.463 10.662 10.946 16.047 25.368 16.047 39.686z" style="opacity:1;fill:#1d582f;fill-opacity:1;stroke:none;stroke-width:2.649;stroke-miterlimit:4;stroke-dasharray:none;stroke-opacity:1;paint-order:stroke fill markers" transform="matrix(-1 0 0 1 -43.105 -293.712)"/><path d="m-430.702 885.408 82.722 72.182c.582.506 1.527.099 1.493-.658-.725-22.496-3.516-213.493-12.484-231.448-2.582-5.188-8.076-11.12-18.833-11.12s-25.109 5.13-36.766 11.978c-11.66 6.846-23.317 9.406-29.593 9.406-6.273 0-28.7-4.275-28.7-4.275h-24.263s-22.417 4.275-28.7 4.275c-6.277 0-18.825-2.56-30.482-9.406-11.66-6.847-25.11-11.978-35.877-11.978-10.757 0-16.24 5.932-18.822 11.12-8.98 17.955-11.759 208.964-12.496 231.448-.03.745.912 1.164 1.494.658l82.722-72.182z" style="fill:#1d582f;fill-opacity:1;fill-rule:nonzero;stroke:none;stroke-width:2.813" transform="translate(926.978 -204.517)"/><path d="m-477.401 945.272-2.692-47.886 6.734 48.314 7.165 5.988 8.976-7.702-13.46-70.983-14.338.855-12.56-1.702-15.24 71.83 8.964 7.702 7.176-5.988 6.726-48.314-2.692 47.886 7.626 9.407zM-554.97 762.691l-5.744 141.486 12.493-11.199 5.812-125.156zM-415.132 762.691l5.747 141.486-12.482-11.199-5.814-125.156zM-542.41 875.574l4.484-86.379 13.45 42.766zM-427.681 875.574l-4.481-86.379-13.45 42.766zM-613.986 739.802s5.66-4.912 9.252-6.614c3.583-1.715 7.176-2.573 7.176-2.573l-9.57 214.173-15.593 12.934s1.978-132.453 4.152-157.54c2.166-25.097 4.583-60.38 4.583-60.38M-593.074 734.032l14.337 11.978-7.558 180.339-15.66 13.944zM-572 750.713l10.758 8.55-6.054 150.188-12.473 11.185zM-356.101 739.802s-5.671-4.912-9.252-6.614c-3.595-1.715-7.176-2.573-7.176-2.573l9.57 214.173 15.592 12.934s-1.989-132.453-4.152-157.54c-2.177-25.097-4.582-60.38-4.582-60.38M-377.013 734.032l-14.35 11.978 7.56 180.339 15.667 13.944zM-398.088 750.713l-10.757 8.55 6.042 150.188 12.484 11.185z" style="fill:#fcd116;fill-opacity:1;fill-rule:nonzero;stroke:none;stroke-width:2.813" transform="translate(926.978 -204.517)"/><path d="M-347.367 959.05a2.3 2.3 0 0 1-1.483-.537l-82.356-71.853h-107.566l-82.356 71.842c-.659.57-1.593.703-2.406.362-.804-.351-1.308-1.12-1.277-1.966.102-3.187.242-9.702.442-18.735.593-26.746 1.69-76.533 3.592-121.004 2.352-55.205 5.165-85.369 8.583-92.213 2.208-4.416 7.735-11.823 19.997-11.823 10.065 0 23.396 4.428 36.558 12.152 10.79 6.341 23.022 9.219 29.812 9.219 6.076 0 28.217-4.209 28.437-4.24l.253-.033 24.538.034c.22.03 22.36 4.239 28.448 4.239 6.56 0 18.042-2.844 28.909-9.219 12.78-7.493 27.12-12.152 37.45-12.152 12.261 0 17.8 7.407 19.997 11.823 7.826 15.646 10.98 159.166 12.175 213.206.2 9.022.34 15.559.453 18.746.02.847-.484 1.615-1.286 1.966a2.4 2.4 0 0 1-.914.186m-192.404-74.885h109.575l.385.332 82.016 71.554c-.098-3.44-.23-9.603-.419-17.857-1.184-53.874-4.337-197.008-11.921-212.182-2.363-4.748-7.362-10.405-17.658-10.405-9.856 0-23.69 4.515-36.073 11.79-12.065 7.077-23.846 9.592-30.285 9.592-6.144 0-26.822-3.89-28.822-4.273h-24.02c-2.012.382-22.67 4.273-28.823 4.273-7.13 0-19.944-2.999-31.173-9.593-12.768-7.493-25.593-11.789-35.197-11.789-10.295 0-15.285 5.657-17.657 10.405-7.572 15.185-10.726 158.32-11.913 212.205-.174 8.242-.318 14.394-.427 17.834z" style="fill:#fcd116;fill-opacity:1;fill-rule:nonzero;stroke:none;stroke-width:2.813" transform="translate(926.978 -204.517)"/><path d="M-461.71 737.034s1.8 5.13.9 5.989c-.9.844-7.176-.858-9.868-2.571-2.68-1.716-7.165-5.134-7.165-5.134l-7.173 8.549-8.076-8.55-15.24 10.266 2.691-11.12s-8.968 5.13-12.56 5.989l-6.11 1.46c-.34.075-.593-.285-.374-.538 2.33-2.725 10.034-12.087 14.56-21.438 5.384-11.122 9.868-27.373 9.868-35.922s-6.275-17.097-13.451-17.097c-2.24 0-3.581 2.56-6.273 2.56-1.35 0-1.804-3.418-1.804-5.131 0-1.716-.888-11.12 12.56-11.12 7.627 0 12.56 1.713 12.56 1.713s.89-3.418 5.373-3.418 19.736 2.56 25.11 8.55c5.383 5.988 6.284 23.085 6.284 31.645 0 8.55 0 25.647 5.375 35.911 4.307 8.22 6.318 11.505 6.954 12.481.087.144-.034.321-.197.31-1.966-.208-10.011-1.142-13.944-3.384" style="fill:#1d582f;fill-opacity:1;fill-rule:nonzero;stroke:none;stroke-width:2.813" transform="translate(926.978 -204.517)"/><path d="m-521.18 659.004 3.837-4.118 11.317-1.606 9.35 1.648 3.517-3.24 11.449.998 15.516 6.518 1.803 5.989s-2.692-1.705-8.076-1.705c-5.376 0-8.068.847-9.868 1.705-1.792.855-1.792 3.415-4.484 3.415-1.792 0-1.792-.844-1.792-1.702s-2.692-.858-6.273-1.713c-4.68-1.123-8.968-7.694-16.14-7.694-9.869 0-9.869 8.549-9.869 8.549zm33.472 1.485q-2.243.001-2.242 2.14c0 1.419.746 2.133 2.242 2.133 1.483 0 2.692-.714 2.692-2.132 0-1.426-1.21-2.14-2.692-2.14" style="fill:#fcd116;fill-opacity:1;fill-rule:nonzero;stroke:none;stroke-width:2.813" transform="translate(926.978 -204.517)"/><path d="M-500.74 677.992s2.264-1.68 4.956-1.68 4.481.856 4.481.856-5.373-9.404-9.857-11.975c-4.48-2.563-7.173-4.276-10.768-4.276-4.48 0-7.361 6.934-8.965 7.69-1.792.859.9.859.9.859l7.199-2.681 7.547 4.396z" style="fill:#fcd116;fill-opacity:1;fill-rule:nonzero;stroke:none;stroke-width:2.813" transform="translate(926.978 -204.517)"/><path d="m-404.516 952.535-39.658-133.572-34.777 43.775 23.317 104.346z" style="fill:#1d582f;fill-opacity:1;fill-rule:nonzero;stroke:none;stroke-width:2.813" transform="translate(926.978 -204.517)"/><path d="m-480.225 863.003-.121-.56 36.712-46.218 40.71 137.146-53.7 15.274zm35.514-41.306-32.845 41.35 22.901 102.453 48.536-13.8z" style="fill:#fcd116;fill-opacity:1;fill-rule:nonzero;stroke:none;stroke-width:2.813" transform="translate(926.978 -204.517)"/><path d="m-451.502 890.32 5.241-53.107-2.594-.242-4.624 46.952-18.175-21.952-2.045 1.55z" style="fill:#fcd116;fill-opacity:1;fill-rule:nonzero;stroke:none;stroke-width:2.813" transform="translate(926.978 -204.517)"/><path d="m-433.591 880.255 4.987-11.902-2.416-.922-3.604 8.593-26.56-22.89-1.747 1.857zM-471.018 902.056l8.186-26.141 2.495.714-8.186 26.141z" style="fill:#fcd116;fill-opacity:1;fill-rule:nonzero;stroke:none;stroke-width:2.813" transform="translate(926.978 -204.517)"/><path d="m-462.49 941.207 4.977-22.043-13.88-19.834 2.167-1.373 12.461 17.823 5.35-23.758 11.407 13.471 5.275-15.952 18.326 16.897-9.164 32.944-11.79-18.153-6.242 17.857-11.921-17.055-4.44 19.702zm35.965-8.011 7.218-25.976-14.208-13.108-5.472 16.535-11.02-13.03-4.746 21.052 10.371 14.833 6.318-18.062z" style="fill:#fcd116;fill-opacity:1;fill-rule:nonzero;stroke:none;stroke-width:2.813" transform="translate(926.978 -204.517)"/><path d="m-446.348 957.25 4.472-11.373 7.053 10.473h4.396l4.988-17.43 11.857 13.562 2-1.595-15.064-17.219-5.77 20.198h-.99l-9.086-13.483-6.295 15.997zM-510.367 748.472l2.78-11.494c-2.988 1.614-7.8 4.076-10.296 4.68l-6.121 1.463c-.692.163-1.418-.11-1.8-.68a1.51 1.51 0 0 1 .12-1.849c2.243-2.624 9.91-11.932 14.384-21.184 5.274-10.912 9.747-27.12 9.747-35.394 0-8.152-5.902-15.868-12.155-15.868-.659 0-1.317.453-2.088.968-1.054.714-2.371 1.603-4.185 1.603-2.946 0-3.1-5.305-3.1-6.371v-.287c-.031-1.516-.11-5.547 3.012-8.602 2.372-2.298 6.02-3.463 10.856-3.463 5.67 0 9.88.911 11.812 1.429.88-1.463 2.782-3.142 6.12-3.142 4.957 0 20.505 2.757 26.097 8.987 5.947 6.617 6.594 24.89 6.594 32.448 0 8.231 0 25.362 5.243 35.363 4.262 8.107 6.24 11.361 6.9 12.394a1.39 1.39 0 0 1-.011 1.516 1.55 1.55 0 0 1-1.44.658c-1.913-.197-7.505-.866-11.736-2.351.88 3.55.076 4.32-.22 4.604-1.845 1.747-9.406-1.077-11.505-2.416-1.955-1.243-4.756-3.308-6.242-4.42l-7.328 8.727-8.329-8.813zm6.681-16.572-2.616 10.79 13.407-9.02 7.823 8.287 7.033-8.386 1.012.782c.042.03 4.47 3.404 7.075 5.075 2.143 1.353 6.56 2.582 8.099 2.593-.012-.858-.462-2.813-1.078-4.593l-1.12-3.176 3.022 1.727c2.824 1.615 8.12 2.526 11.218 2.954-1.108-1.888-2.965-5.207-5.88-10.746-5.513-10.526-5.513-28.051-5.513-36.47 0-11.703-1.572-25.953-5.969-30.845-5.097-5.68-20.062-8.107-24.119-8.107-3.308 0-4.053 2.23-4.12 2.492l-.372 1.286-1.33-.44c-.045-.022-4.847-1.636-12.122-1.636-4.11 0-7.13.911-8.987 2.725-2.363 2.307-2.287 5.472-2.265 6.825l.012.329c0 1.66.374 3.361.714 3.879.892-.079 1.626-.56 2.461-1.134.98-.67 2.099-1.415 3.593-1.415 7.727 0 14.748 8.735 14.748 18.338 0 8.715-4.472 25.064-9.977 36.437-3.77 7.792-9.714 15.581-12.988 19.627l3.426-.825c2.793-.672 9.758-4.45 12.209-5.845z" style="fill:#fcd116;fill-opacity:1;fill-rule:nonzero;stroke:none;stroke-width:2.813" transform="translate(926.978 -204.517)"/><path d="m-492.037 736.032-2.11-1.437c3.505-4.684 6.197-31.385 6.931-41.272l2.594.174c-.273 3.713-2.844 36.448-7.415 42.535M-504.51 735.065l-2.276-1.207c.045-.079 4.462-7.694 7.1-14.374 2.605-6.636 5.275-24.372 5.309-24.547l2.57.352c-.109.737-2.748 18.175-5.45 25.052-2.693 6.867-7.067 14.406-7.253 14.724M-478.566 736.308c-1.825-3.494-2.672-34.535-2.824-40.724l2.605-.053c.34 14.107 1.339 37.348 2.549 39.666zM-462.787 737.715c-9.067-12.977-10.043-38.887-10.088-39.987l2.605-.076c.011.261.987 26.304 9.649 38.69z" style="fill:#fcd116;fill-opacity:1;fill-rule:nonzero;stroke:none;stroke-width:2.813" transform="translate(926.978 -204.517)"/><path d="m-565.726 952.535 39.657-133.572 34.766 43.775-23.306 104.346z" style="fill:#1d582f;fill-opacity:1;fill-rule:nonzero;stroke:none;stroke-width:2.813" transform="translate(926.978 -204.517)"/><path d="m-513.64 968.656-53.69-15.274 40.713-137.157 36.71 46.23-.13.56zm-50.491-16.956 48.535 13.8 22.887-102.452-32.822-41.351z" style="fill:#fcd116;fill-opacity:1;fill-rule:nonzero;stroke:none;stroke-width:2.813" transform="translate(926.978 -204.517)"/><path d="m-518.74 890.32-5.23-53.107 2.582-.242 4.628 46.952 18.163-21.952 2.042 1.55z" style="fill:#fcd116;fill-opacity:1;fill-rule:nonzero;stroke:none;stroke-width:2.813" transform="translate(926.978 -204.517)"/><path d="m-536.651 880.255-4.988-11.902 2.417-.922 3.595 8.593 26.569-22.89 1.746 1.857zM-509.928 876.63l2.495-.715 8.175 26.14-2.484.715z" style="fill:#fcd116;fill-opacity:1;fill-rule:nonzero;stroke:none;stroke-width:2.813" transform="translate(926.978 -204.517)"/><path d="m-510.302 941.733-4.439-19.702-11.921 17.055-6.242-17.857-11.79 18.153-9.153-32.944 18.318-16.897 5.286 15.952 11.392-13.471 5.365 23.758 12.459-17.823 2.166 1.373-13.88 19.834 4.968 22.043zm-21.888-26.304 6.318 18.054 10.375-14.836-4.749-21.041-11.021 13.032-5.483-16.537-14.197 13.12 7.221 25.963z" style="fill:#fcd116;fill-opacity:1;fill-rule:nonzero;stroke:none;stroke-width:2.813" transform="translate(926.978 -204.517)"/><path d="m-523.905 957.25-4.46-11.373-7.065 10.473h-4.397l-4.976-17.43-11.857 13.562-1.989-1.595 15.044-17.219 5.778 20.198h.979l9.086-13.483 6.298 15.997z" style="fill:#fcd116;fill-opacity:1;fill-rule:nonzero;stroke:none;stroke-width:2.813" transform="translate(926.978 -204.517)"/><path d="M-377.804 999.147c2.692-1.714 1.154-8.802 1.792-9.404.9-.858 5.725-2.484 6.273-5.134.9-4.273 4.484-9.404 5.384-9.404.903 0 0 0 0 0-2.692 0-7.626-5.561-10.307-7.274-2.692-1.705-5.12-.605-6.284-1.705-1.308-1.252 0-5.13-1.792-6.844-1.792-1.716-11.657-5.134-11.657-5.134l-79.81 10.265h-21.579l-79.81-10.265s-9.866 3.418-11.657 5.134c-1.792 1.713-.484 5.592-1.792 6.844-1.154 1.1-3.581 0-6.273 1.705-2.692 1.713-7.626 7.274-10.318 7.274 0 0-.892 0 0 0 .9 0 4.483 5.131 5.384 9.404.548 2.65 5.372 4.276 6.273 5.134.638.602-.9 7.69 1.792 9.404 2.692 1.715 41.25 11.122 107.17 11.122 73.973 0 104.52-9.407 107.211-11.122" style="fill:#1d582f;fill-opacity:1;fill-rule:nonzero;stroke:none;stroke-width:2.813" transform="translate(926.978 -204.517)"/><path d="m-575.826 952.27-.472.167c-2.405.835-10.436 3.712-12.383 5.58-1.539 1.451-1.613 3.516-1.69 5.187-.01.518-.057 1.252-.144 1.604-.22.045-.604.067-.91.09-1.232.087-3.101.21-5.026 1.427-1.054.684-2.306 1.77-3.636 2.934-1.46 1.285-5.955 4.012-5.955 4.012v.011a2.5 2.5 0 0 0-.485-.047c-1.24 0-2.238.88-2.238 1.97 0 1.085.998 1.966 2.238 1.966q.263 0 .51-.05c-.163.08 3.064 4.437 3.777 7.85.594 2.771 3.68 4.42 5.737 5.516.22.121.46.243.68.364 0 .329-.01.76-.022 1.11-.076 2.966-.198 7.056 2.539 8.792 3.173 2.011 41.524 11.437 108.291 11.437 74.632 0 105.367-9.558 108.3-11.449 2.735-1.735 2.625-5.815 2.538-8.79 0-.341-.012-.771-.012-1.1a13 13 0 0 1 .68-.364c2.056-1.097 5.142-2.745 5.724-5.515.725-3.412 3.941-7.765 3.78-7.85q.24.049.498.049c1.23 0 2.24-.881 2.24-1.967 0-1.089-1.01-1.969-2.24-1.969q-.243.002-.473.045v-.01s-4.484-2.726-5.955-4.011c-1.32-1.165-2.572-2.25-3.627-2.934-1.935-1.23-3.792-1.352-5.021-1.428-.31-.022-.692-.045-.914-.09-.099-.351-.13-1.086-.141-1.603-.079-1.671-.166-3.736-1.693-5.188-1.955-1.867-9.979-4.744-12.395-5.58l-.46-.166-80.17 10.307h-21.298zm.454 3.948 79.3 10.209 21.977.008 79.459-10.217c4.439 1.57 9.581 3.69 10.459 4.525.408.397.46 1.682.494 2.627.068 1.528.144 3.11 1.297 4.21 1.055.998 2.427 1.096 3.527 1.163 1.044.076 2.034.133 3.067.791.779.507 1.92 1.506 3.13 2.561 1.846 1.615 3.395 2.934 4.801 3.814-1.868 2.56-3.448 6.348-3.867 8.329-.208 1.02-2.594 2.284-3.736 2.9-.89.461-1.527.813-1.977 1.24-.835.782-.801 1.814-.748 3.682.034 1.218.132 4.923-.746 5.494-2.714 1.67-33.812 10.791-106.092 10.791-67.689 0-104.081-9.714-106.039-10.791-.877-.571-.78-4.285-.746-5.494.042-1.868.076-2.889-.748-3.682-.45-.427-1.096-.779-1.977-1.24-1.142-.616-3.528-1.88-3.748-2.9-.405-1.98-1.987-5.757-3.855-8.329 1.406-.88 2.955-2.2 4.789-3.814 1.21-1.055 2.34-2.054 3.143-2.56 1.043-.659 2.01-.716 3.054-.792 1.111-.067 2.473-.154 3.54-1.164 1.153-1.11 1.231-2.68 1.285-4.207.033-.945.088-2.232.507-2.629.878-.846 6.02-2.955 10.45-4.525zm6.054 9.152c-.889 0-2.681 1.713-4.484 1.713-1.792 0-1.793-.857-2.693-.857-.89 0-1.153 1.1-1.792 1.705-.45.427.454 2.14 1.354 2.14.889 0 1.791-1.713 3.58-1.713 1.792 0 .904 1.713.904 2.57 0 .859-.903 5.133-4.484 5.991-3.592.847-5.385 3.418-5.385 5.13 0 1.706 21.527 6.835 24.207 6.835 2.692 0 4.494-10.261 3.594-11.12-.903-.846-4.484 1.713-4.484 2.571s.89 1.714.89 2.56c0 .859-.889 2.573-1.789 2.573-.892 0-4.485-.86-5.377-1.715-.9-.858 3.585-5.989 1.793-8.549-.495-.714-4.648 1.33-4.935 2.131-.45 1.288.904 2.574.904 4.287 0 1.702-5.385 2.56-5.385 0 0-2.57 4.48-12.836 4.48-13.691 0-.847.003-2.56-.898-2.56m164.998 1.713c-4.03 0-5.822 1.275-5.822 2.133 0 .855.9 2.572 2.691 2.572 1.792 0 .89-1.717 3.582-1.717 3.595 0 3.594 8.551 4.483 10.264.9 1.713 1.803 4.274-.889 4.274s-1.79-2.56-5.383-2.56c-2.692 0-3.584 5.122-5.384 5.122-.892 0-1.792-2.562-3.584-4.275-1.792-1.702-3.582-1.702-4.485-1.702-.9 0-.9-5.99-2.691-5.99s-2.692 2.56-2.692 3.418c0 1.713 1.791 1.714 1.791 2.572 0 .856-1.79 1.701-3.58 3.415-1.791 1.715.9 5.134-1.793 5.134s-2.691-5.135-3.591-5.135c-.892 0-7.164 2.564-7.164 6.848 0 4.276 6.273 1.702 6.273 3.418 0 1.713-4.936 1.712-4.936 2.986 0 .858.452 1.717 1.793 1.717 4.034 0 5.385-4.277 6.274-5.135.903-.855 1.803-2.558 6.287-2.558s1.789 4.275 7.176 4.275c5.373 0 3.58-5.988 6.271-5.988 2.692 0 1.793 1.713 4.485 1.713s4.934-3 6.273-4.285c2.242-2.133 13.448-1.705 12.998-3.846-.174-.835-1.339-2.99-3.13-2.99-1.793 0-.9 1.705-4.483 1.705-3.592 0-3.594-8.549-3.594-11.111 0-2.572-5.373-4.274-7.176-4.274m-173.064 3.418c-1.123 0-2.022.856-2.022 1.922s.9 1.924 2.022 1.924c1.108 0 2.012-.858 2.012-1.924s-.904-1.922-2.012-1.922m54.7 3.418c-.901 0-3.581 1.714-3.581 2.572 0 .844.889 1.273.889 2.559 0 1.24-.549 5.13-.889 8.549-.374 3.67.437 7.274-2.693 6.843-1.781-.239-.903-2.558-.903-3.414 0-.858-3.58-1.284-3.58-2.57 0-.858 4.933-.432 4.483-2.564-.189-.844-.903-2.571-2.692-3.426-1.792-.847-1.792-5.133-3.584-5.133-1.8 0-3.591 2.573-4.494 3.428-.889.858-4.482 1.705-4.482 3.418s3.593 1.714 3.593 2.572c0 .847 2.242 2.13-3.142 2.13-5.373 0-3.585-8.12-5.824-8.12-.903 0-2.24 2.56-2.24 3.845 0 2.563 1.337.858 1.337 2.99 0 5.132-6.602 4.365-7.176 5.991-.45 1.286-.45 1.285 3.145 1.285 3.581 0 6.273-3.418 8.064-3.418 1.8 0 3.593.846 5.385.846s1.791-2.559 2.692-2.559c.889 0 1.793 1.712 1.793 2.559 0 .855 3.591.855 3.591.855s-1.35 5.563 4.034 5.563c7.614 0 7.615-20.954 7.615-21.801 0-.858-.442-3-1.342-3m4.483.856c-.922 0-1.112 5.615-1.793 10.265-.635 4.352-1.79 7.725-1.79 8.549 0 1.713.89 1.713 1.79 1.713 4.484 0 2.693-14.538 4.485-15.393 1.792-.858.9-.859.9-1.717 0-.857-1.8-3.417-3.592-3.417m57.391.857c-.9 0-3.58 2.56-3.58 3.418s.889.858 1.789 1.713c.892.858 0 2.561 0 4.277 0 1.713 0 2.56-1.789 3.418-1.803.855-3.596 5.13-3.596 6.844 0 1.716.902 1.715 1.791 1.715.9 0 3.593-.858 8.076-.858s8.97.001 8.97-2.57c0-.858-1.792-9.408-2.692-9.408-.892 0-3.584 1.714-3.584 2.572 0 .847.89 1.703 1.79 2.559.9.858.902 3.418-2.69 3.418-3.584 0-3.585-17.098-4.485-17.098m-6.723 2.133c-1.11 0-2.023.867-2.023 1.922 0 1.066.912 1.935 2.023 1.935 1.109 0 2.02-.87 2.02-1.935 0-1.055-.911-1.922-2.02-1.922m-109.4 1.285c.737 0 1.338.57 1.338 1.285 0 .703-.601 1.287-1.338 1.287-.748 0-1.354-.584-1.354-1.287 0-.714.606-1.285 1.354-1.285m40.799 3.418c.9 0 0 0 .9.855.892.858.893 0 .893.858s-.893 1.713-1.793 1.713-2.692-.855-2.692-1.713 1.792-1.713 2.692-1.713m69.05.428c-1.122 0-2.02.869-2.02 1.923 0 1.067.898 1.934 2.02 1.934 1.109 0 2.012-.867 2.012-1.934 0-1.054-.903-1.923-2.011-1.923m-35.876 1.285c-1.792 0-2.68.427-2.68 1.713 0 1.704.889 3.42.889 4.277s-.001 2.559-1.793 2.559c-1.79 0-1.789-5.977-3.58-5.977-1.804 0-3.592 1.705-3.592 3.418s2.691-.001 2.691 4.271c0 4.276-8.078 5.135-8.078 5.135-.439.428-1.34 2.14 4.045 2.14 5.373 0 7.176-5.13 7.176-5.13l15.24.846s1.788 5.13 4.48 5.13c2.695 0 5.39-5.13 5.39-5.13h6.27c2.693 0 4.936-.415 4.936-2.131 0-1.713.45-8.549-1.793-8.549-2.692 0-2.241 1.273-4.933 2.13-2.692.859-1.351 4.706-4.043 4.706-2.681 0-.438-3.845-1.791-5.13-1.34-1.286-11.658 0-14.35 0-2.684 0-1.342-4.278-4.484-4.278m58.29.86c-1.788 0-3.58 3.415-3.58 4.27 0 .859 3.58.003 3.58 4.278 0 4.273-5.382 6.844-5.382 6.844 8.076 0 9.867-4.275 9.867-5.99s-2.692-9.403-4.484-9.403m26.012 0c2.692 0 2.694.854 3.582 1.712.9.847 0 1.705-1.793 1.705-1.789 0-1.789-3.418-1.789-3.418m13.9.427c.98 0 1.792.77 1.792 1.703 0 .942-.812 1.713-1.791 1.713-.99 0-1.805-.77-1.805-1.713 0-.934.815-1.703 1.805-1.703m-172.626.426c-1.123 0-2.022.86-2.022 1.925 0 1.067.9 1.924 2.022 1.924 1.108 0 2.012-.857 2.012-1.924s-.904-1.925-2.012-1.925m154.244 0c1.789 0 1.789.858 1.789 1.705 0 .858.903 1.713-.9 1.713-1.792 0-1.793-.855-1.793-1.713 0-.847 0-1.705.904-1.705M-572 987.17c-1.122 0-2.023.867-2.023 1.934 0 1.054.901 1.923 2.024 1.923 1.108 0 2.011-.869 2.011-1.923 0-1.067-.903-1.934-2.011-1.934m178.899.516c-1.12 0-2.02.869-2.02 1.923 0 1.067.9 1.922 2.02 1.922 1.111 0 2.012-.855 2.012-1.922 0-1.054-.9-1.923-2.012-1.923m-41.25.34c.979 0 1.793.771 1.793 1.716s-.814 1.713-1.793 1.713c-.987 0-1.8-.768-1.8-1.713s.813-1.717 1.8-1.717m-129.133 1.285c-1.12 0-2.023.857-2.023 1.923s.904 1.922 2.023 1.922c1.111 0 2.01-.855 2.01-1.922s-.899-1.923-2.01-1.923m147.957 1.287c.9 0 1.8 2.558 0 2.558-1.792 0-2.68-2.558 0-2.558m-80.258.43c5.384 0 7.174 0 8.077.855.889.847 1.789 5.976 0 5.976-1.792 0-.452-2.13-1.791-3.418-1.353-1.285-10.769.859-11.66-1.712-.285-.813-.001-1.702 5.374-1.702m18.834 0c.988 0 1.791.767 1.791 1.7 0 .946-.803 1.713-1.79 1.713-.99 0-1.794-.767-1.794-1.712 0-.934.803-1.702 1.793-1.702m13.899.427c.99 0 1.793.767 1.793 1.701 0 .946-.803 1.717-1.793 1.717-.988 0-1.79-.771-1.79-1.717 0-.934.802-1.7 1.79-1.7m1.793 6.404c-1.111 0-2.012.87-2.012 1.924 0 1.067.9 1.934 2.012 1.934.88 0 1.626-.537 1.904-1.285h.5c.28.748 1.03 1.285 1.902 1.285 1.112 0 2.022-.867 2.022-1.934 0-1.055-.91-1.924-2.022-1.924-.696 0-1.316.343-1.68.86h-.943a2.05 2.05 0 0 0-1.683-.86" style="fill:#fcd116;fill-opacity:1;fill-rule:nonzero;stroke:none;stroke-width:2.813" transform="translate(926.978 -204.517)"/><path d="M-581.867 949.117s3.58-4.273 6.273-4.273c2.694 0 18.835 5.99 26.9 6.844 8.076.847 21.525 3.418 31.393 3.418 9.857 0 17.033-.858 18.825 0 1.8.858 6.284 4.276 6.284 5.99 0 1.701-1.066 5.735-1.066 5.735s-14.186.253-21.35.253c-7.176 0-26.91-1.713-26.91-1.713s-17.483-3.848-25.559-5.561c-8.065-1.714-14.855-3.297-16.394-4.636-1.55-1.342 1.604-6.057 1.604-6.057" style="fill:#1d582f;fill-opacity:1;fill-rule:nonzero;stroke:none;stroke-width:2.813" transform="translate(926.978 -204.517)"/><path d="M-575.594 943.601c-2.065 0-3.702 1.32-5.022 2.461-1.316 1.145-2.273 2.287-2.273 2.287l-.045.043-.033.056s-.836 1.24-1.483 2.714c-.318.737-.616 1.528-.714 2.352-.099.824-.012 1.857.813 2.571.638.56 1.44.9 2.484 1.297 1.043.383 2.317.768 3.791 1.165 2.946.79 6.681 1.614 10.724 2.472 8.053 1.702 25.547 5.559 25.547 5.559l.08.022h.098s19.623 1.713 27.019 1.713c7.198 0 21.384-.239 21.384-.239l.987-.022.242-.923s.276-1.024.552-2.276c.261-1.251.548-2.658.548-3.758 0-.945-.461-1.603-.99-2.284-.515-.672-1.187-1.32-1.902-1.947-1.426-1.251-2.976-2.329-4.107-2.866-.835-.397-1.693-.453-2.835-.495-1.142-.045-2.54-.011-4.177.042-3.275.11-7.506.32-12.395.32-9.626 0-23.052-2.55-31.25-3.417-3.791-.397-9.856-2.087-15.218-3.694-2.683-.79-5.21-1.57-7.254-2.151-2.031-.583-3.396-1.002-4.571-1.002m0 2.484c.166 0 1.836.329 3.837.892 1.988.57 4.514 1.35 7.206 2.152 5.396 1.603 11.452 3.341 15.714 3.792 7.944.835 21.427 3.429 31.536 3.429 4.968 0 9.252-.223 12.485-.332 1.614-.043 2.964-.076 3.977-.031 1.021.03 1.724.197 1.79.23.66.318 2.241 1.373 3.507 2.473.636.548 1.196 1.13 1.57 1.603.374.484.472.89.472.802 0 .605-.242 2.065-.495 3.252-.152.692-.197.858-.295 1.254-1.244.02-13.517.242-20.33.242-6.923 0-26.546-1.693-26.7-1.704-.122-.023-17.416-3.834-25.473-5.54-4.03-.854-7.724-1.678-10.58-2.438-1.417-.385-2.638-.757-3.55-1.089-.91-.34-1.55-.703-1.67-.813.056.045-.042-.02.011-.45.056-.438.265-1.077.529-1.679a15.7 15.7 0 0 1 1.252-2.287c.034-.045.813-.979 1.932-1.944 1.145-.99 2.65-1.814 3.275-1.814" style="fill:#fcd116;fill-opacity:1;fill-rule:nonzero;stroke:none;stroke-width:2.813" transform="translate(926.978 -204.517)"/><path d="M-579.175 948.262s-.9-.858-3.593-.858-8.067 4.284-8.067 9.418c0 5.131 1.792 6.833 1.792 6.833s2.692-4.273 5.384-5.131c2.68-.858 4.087-1.24 4.087-1.24z" style="fill:#1d582f;fill-opacity:1;fill-rule:nonzero;stroke:none;stroke-width:2.813" transform="translate(926.978 -204.517)"/><path d="m-588.779 965.655-1.176-1.12c-.23-.21-2.174-2.23-2.174-7.713 0-5.67 5.834-10.65 9.373-10.65 3.074 0 4.295 1.013 4.515 1.21l.396.385-.45 10.44-.903.252c-.022 0-1.418.405-4.042 1.24-1.826.583-4.045 3.582-4.681 4.594zm6.011-17.01c-1.912 0-6.77 3.626-6.77 8.177 0 2.054.309 3.494.638 4.44 1.142-1.43 2.912-3.298 4.824-3.903 1.472-.472 2.56-.801 3.241-1.001l.318-7.384c-.405-.152-1.131-.33-2.25-.33" style="fill:#fcd116;fill-opacity:1;fill-rule:nonzero;stroke:none;stroke-width:2.813" transform="translate(926.978 -204.517)"/><path d="M-539.729 955.964c1.804 0 5.396 1.921 5.396 6.945 0 5.033-4.943 8.878-4.943 8.878l-1.164 1.702-.628-1.702s-4.484-3.856-4.484-8.132c0-2.56 2.242-7.69 5.823-7.69" style="fill:#1d582f;fill-opacity:1;fill-rule:nonzero;stroke:none;stroke-width:2.813" transform="translate(926.978 -204.517)"/><path d="m-540.792 976.29-1.398-3.81c-1.01-.935-4.658-4.617-4.658-8.814 0-3.032 2.517-8.934 7.12-8.934 2.703 0 6.691 2.594 6.691 8.186 0 5.066-4.329 8.945-5.251 9.705zm1.063-19.085c-2.57 0-4.526 4.298-4.526 6.45 0 3.66 4.023 7.165 4.054 7.21l.034.01.078-.055c.043-.034 4.462-3.55 4.462-7.91 0-4.352-3.002-5.705-4.102-5.705" style="fill:#fcd116;fill-opacity:1;fill-rule:nonzero;stroke:none;stroke-width:2.813" transform="translate(926.978 -204.517)"/><path d="M-490.853 974.347s3.145-3.845 3.145-8.976c0-5.134-5.384-7.705-5.384-7.705s-1.792 3.43-2.692 4.287c-.892.844-3.572 3.142-3.716 4.13-.318 2.275 8.647 7.406 8.647 8.264" style="fill:#1d582f;fill-opacity:1;fill-rule:nonzero;stroke:none;stroke-width:2.813" transform="translate(926.978 -204.517)"/><path d="m-494.237 956.513-.492 1.1s-.332.714-.76 1.527c-.427.824-1.066 1.79-1.21 1.921-.404.386-1.327 1.199-2.162 2.045-.43.428-.825.858-1.165 1.297s-.661.813-.748 1.516c-.197 1.384.67 2.242 1.55 3.143.877.9 2 1.803 3.12 2.647 1.122.858 2.241 1.66 3.043 2.275.408.298.726.56.914.737v3.24l2.33-2.854s3.406-4.133 3.406-9.747c0-6.023-6.661-8.42-6.661-8.42zm1.266 3.353c1.305.624 3.966 2.14 3.966 5.505 0 3.395-1.274 5.668-2.098 6.942-.121-.098-.2-.174-.332-.273-.855-.66-1.966-1.44-3.044-2.264-1.074-.824-2.14-1.682-2.844-2.405-.714-.726-.846-1.376-.88-1.122v-.012c-.023.22.034-.064.264-.363.231-.295.583-.68.968-1.066.757-.756 1.615-1.516 2.11-1.989.756-.725 1.229-1.668 1.702-2.57.11-.209.098-.198.188-.383M-576.495 950.833c0-.858.9-1.716 2.692-1.716 1.804 0 9.868 2.571 8.077 4.276-.9.855-10.769-1.705-10.769-2.56M-560.354 954.248c.574-1.626 12.56.858 12.56 3.418 0 1.716-13.448-.844-12.56-3.418M-531.65 961.953c0-2.571 1.154-3.21 6.406-3.21s6.14 1.494 6.14 2.352-12.546 1.702-12.546.858M-514.631 962.04c.011-.945 5.395-2.658 8.99-2.658 3.581 0 6.273 1.713 1.79 2.571-4.482.844-10.791 1.902-10.78.087" style="fill:#fcd116;fill-opacity:1;fill-rule:nonzero;stroke:none;stroke-width:2.813" transform="translate(926.978 -204.517)"/><path d="M-388.156 949.117s-3.58-4.273-6.273-4.273-18.833 5.99-26.9 6.844c-8.077.847-21.525 3.418-31.393 3.418-9.857 0-17.033-.858-18.834 0-1.791.858-6.275 4.276-6.275 5.99 0 1.701 1.055 5.735 1.055 5.735s14.197.253 21.361.253c7.176 0 26.912-1.713 26.912-1.713s17.48-3.848 25.557-5.561c8.067-1.714 14.858-3.297 16.397-4.636 1.535-1.353-1.607-6.057-1.607-6.057" style="fill:#1d582f;fill-opacity:1;fill-rule:nonzero;stroke:none;stroke-width:2.813" transform="translate(926.978 -204.517)"/><path d="M-394.429 943.601c-1.175 0-2.54.42-4.582 1.001-2.034.583-4.56 1.35-7.24 2.152-5.365 1.607-11.43 3.297-15.23 3.694-8.197.866-21.615 3.418-31.241 3.418-4.89 0-9.12-.211-12.395-.321-1.637-.053-3.032-.087-4.174-.042-1.145.042-2 .098-2.847.495-1.122.537-2.67 1.615-4.098 2.866-.715.628-1.384 1.275-1.902 1.947-.526.68-.99 1.339-.99 2.284 0 1.1.287 2.506.551 3.758a54 54 0 0 0 .549 2.276l.242.923.99.022s14.186.24 21.381.24c7.396 0 27.022-1.714 27.022-1.714h.087l.088-.022s17.494-3.857 25.547-5.559c4.045-.858 7.77-1.682 10.726-2.472 1.471-.397 2.746-.782 3.79-1.165 1.043-.397 1.836-.737 2.483-1.297h.012c.813-.726.9-1.747.801-2.57-.11-.825-.394-1.627-.714-2.353-.647-1.474-1.483-2.714-1.483-2.714l-.045-.056-.03-.043s-.957-1.142-2.276-2.287c-1.32-1.142-2.957-2.461-5.022-2.461m0 2.484c.625 0 2.121.824 3.275 1.814a19 19 0 0 1 1.932 1.944c.034.056.715 1.089 1.244 2.276.272.613.483 1.252.537 1.68.056.44-.042.506.011.46-.132.11-.757.473-1.67.813-.912.332-2.13.704-3.548 1.09-2.858.759-6.56 1.583-10.582 2.438-8.054 1.705-25.351 5.516-25.472 5.539-.152.011-19.778 1.704-26.712 1.704-6.802 0-19.075-.222-20.319-.241-.098-.397-.14-.563-.295-1.255-.253-1.187-.495-2.647-.495-3.252 0 .087.098-.318.472-.802.363-.472.934-1.054 1.573-1.603 1.263-1.1 2.847-2.155 3.505-2.473.065-.033.768-.2 1.78-.23 1.022-.045 2.372-.012 3.99.03 3.229.11 7.516.333 12.48.333 10.11 0 23.593-2.594 31.537-3.43 4.265-.45 10.318-2.188 15.714-3.791 2.692-.802 5.218-1.581 7.21-2.152 1.997-.563 3.667-.892 3.833-.892" style="fill:#fcd116;fill-opacity:1;fill-rule:nonzero;stroke:none;stroke-width:2.813" transform="translate(926.978 -204.517)"/><path d="M-390.848 948.262s.903-.858 3.595-.858 8.065 4.284 8.065 9.418c0 5.131-1.792 6.833-1.792 6.833s-2.692-4.273-5.384-5.131-4.087-1.24-4.087-1.24z" style="fill:#1d582f;fill-opacity:1;fill-rule:nonzero;stroke:none;stroke-width:2.813" transform="translate(926.978 -204.517)"/><path d="M-382.088 964.305c-.639-1.013-2.858-4.012-4.684-4.594-2.624-.847-4.03-1.232-4.042-1.243l-.9-.25-.461-10.44.405-.385c.22-.208 1.44-1.22 4.517-1.22 3.528 0 9.373 4.978 9.373 10.65 0 5.493-1.958 7.513-2.177 7.724l-1.176 1.12zm-7.418-15.34.318 7.385c.692.196 1.78.526 3.24.998 1.913.605 3.683 2.473 4.825 3.913.329-.956.638-2.397.638-4.45 0-4.552-4.858-8.166-6.768-8.166-1.122 0-1.848.177-2.253.32" style="fill:#fcd116;fill-opacity:1;fill-rule:nonzero;stroke:none;stroke-width:2.813" transform="translate(926.978 -204.517)"/><path d="M-430.306 955.964c-1.792 0-5.384 1.921-5.384 6.945 0 5.033 4.946 8.878 4.946 8.878l1.164 1.702.625-1.702s4.483-3.856 4.483-8.132c0-2.56-2.241-7.69-5.834-7.69" style="fill:#1d582f;fill-opacity:1;fill-rule:nonzero;stroke:none;stroke-width:2.813" transform="translate(926.978 -204.517)"/><path d="M-431.735 972.612c-.922-.771-5.252-4.64-5.252-9.703 0-5.583 3.99-8.188 6.681-8.188 4.616 0 7.131 5.902 7.131 8.934 0 4.197-3.648 7.88-4.658 8.824l-1.395 3.8zm-2.647-9.703c0 4.36 4.417 7.877 4.473 7.91l.076.057.022-.011c.043-.045 4.054-3.55 4.054-7.21 0-2.152-1.955-6.45-4.526-6.45-1.1 0-4.099 1.353-4.099 5.704" style="fill:#fcd116;fill-opacity:1;fill-rule:nonzero;stroke:none;stroke-width:2.813" transform="translate(926.978 -204.517)"/><path d="M-479.17 974.347s-3.142-3.845-3.142-8.976c0-5.134 5.384-7.705 5.384-7.705s1.789 3.43 2.692 4.287c.889.844 3.57 3.142 3.702 4.13.329 2.275-8.636 7.406-8.636 8.264" style="fill:#1d582f;fill-opacity:1;fill-rule:nonzero;stroke:none;stroke-width:2.813" transform="translate(926.978 -204.517)"/><path d="m-475.786 956.513-1.165.427s-6.658 2.397-6.658 8.43c0 5.604 3.406 9.737 3.406 9.737l2.33 2.855v-3.24a11 11 0 0 1 .9-.738c.813-.616 1.935-1.417 3.055-2.275 1.12-.844 2.242-1.747 3.12-2.647.88-.9 1.746-1.759 1.55-3.143-.088-.703-.406-1.077-.746-1.516a16 16 0 0 0-1.168-1.297c-.832-.846-1.766-1.66-2.163-2.045-.143-.132-.78-1.097-1.21-1.92-.427-.814-.756-1.528-.756-1.528zm-1.275 3.353c.099.185.088.174.197.382.462.903.945 1.846 1.705 2.571.492.473 1.362 1.233 2.121 2 .371.375.723.76.954 1.055.23.299.298.583.264.363v.012c-.034-.254-.166.396-.878 1.122-.714.723-1.769 1.58-2.846 2.405s-2.186 1.603-3.044 2.265c-.132.098-.208.185-.33.272-.823-1.274-2.098-3.547-2.098-6.942 0-3.364 2.659-4.88 3.967-5.505zM-393.54 950.833c0-.858-.889-1.716-2.68-1.716-1.804 0-9.869 2.571-8.077 4.276.9.855 10.757-1.705 10.757-2.56M-409.68 954.248c-.56-1.626-12.55.858-12.55 3.418 0 1.716 13.45-.844 12.55-3.418M-438.37 961.953c0-2.571-1.154-3.21-6.409-3.21-5.251 0-6.152 1.494-6.152 2.352s12.56 1.702 12.56.858M-455.392 962.04c-.011-.945-5.395-2.658-8.988-2.658-3.583 0-6.275 1.713-1.791 2.571 4.483.844 10.801 1.902 10.779.087" style="fill:#fcd116;fill-opacity:1;fill-rule:nonzero;stroke:none;stroke-width:2.813" transform="translate(926.978 -204.517)"/><path d="M-485.004 750.713c29.283 19.241 61.444 14.966 61.444 15.869 0 75.214-61.456 117.11-61.456 117.11s-61.436-41.896-61.436-117.11c0-.903 32.13 3.372 61.414-15.869z" style="fill:#1d582f;fill-opacity:1;fill-rule:nonzero;stroke:none;stroke-width:2.813" transform="translate(926.978 -204.517)"/><path d="m-485.016 885.22-.76-.515c-.154-.098-15.701-10.813-30.996-30.625-14.121-18.284-30.965-48.305-30.965-87.498v-.507l.394-.396c.517-.484 1.001-.495 3.758-.484 8.427.034 34.088.11 57.821-15.491l.33-.223h.812l.363.223c23.736 15.6 49.427 15.513 57.855 15.49 2.745 0 3.24 0 3.758.485l.383.363.01.54c0 39.193-16.843 69.214-30.976 87.498-15.305 19.812-30.864 30.527-31.019 30.625zm-60.116-117.553c.295 37.987 16.678 67.119 30.448 84.942 13.142 17.019 26.405 27.173 29.668 29.536 3.263-2.374 16.58-12.57 29.745-29.615 13.747-17.8 30.107-46.907 30.414-84.863h-1.547c-8.54.034-34.417.11-58.612-15.471-24.208 15.581-50.04 15.505-58.589 15.471z" style="fill:#fcd116;fill-opacity:1;fill-rule:nonzero;stroke:none;stroke-width:2.813" transform="translate(926.978 -204.517)"/><path d="M-506.434 766.34v90.125s-16.296-16.956-23.9-36.428c-7.603-19.469-9.403-34.018-9.845-38.293-.439-4.262-.439-11.109-.439-11.109s28.91-1.758 34.184-4.295M-464.447 766.34v90.125s16.296-16.956 23.9-36.428c7.603-19.469 9.406-34.018 9.845-38.293.441-4.262.441-11.109.441-11.109s-28.912-1.758-34.186-4.295" style="fill:#fcd116;fill-opacity:1;fill-rule:nonzero;stroke:none;stroke-width:2.813" transform="translate(926.978 -204.517)"/><path d="m-485.016 878.64-.77-.517c-.144-.099-14.217-9.868-28.063-27.9-12.79-16.647-28.032-43.986-28.032-79.675v-.518l.394-.393c.495-.473.957-.473 3.486-.465 7.626.012 30.788.09 52.226-14.084l.329-.231h.824l.363.23c21.438 14.164 44.634 14.097 52.249 14.085 2.54-.008 2.99-.008 3.496.465l.383.37.022.552c0 35.678-15.263 63.028-28.051 79.676-13.868 18.031-27.956 27.79-28.088 27.899zm-54.26-107.006c.307 34.482 15.109 60.943 27.525 77.118 11.779 15.34 23.67 24.546 26.735 26.8 3.075-2.265 15.01-11.494 26.8-26.867 12.405-16.175 27.185-42.6 27.483-77.051h-1.277c-7.745.045-31.107.101-53.006-14.043-21.899 14.144-45.261 14.077-52.997 14.043z" style="fill:#fcd116;fill-opacity:1;fill-rule:nonzero;stroke:none;stroke-width:2.813" transform="translate(926.978 -204.517)"/><g aria-label="ARAB REPUBLIC OF EGYPT" style="font-size:42.5494px;font-family:&quot;Nimbus Sans&quot;;-inkscape-font-specification:NimbusSans-Regular;fill:#fcd116;stroke-width:2.95233"><path d="m-748.793 569.241 11.318 29.444h-4.595l-2.34-6.34h-13.318l-2.298 6.34h-4.595l11.19-29.444zm-7.53 19.232h10.466l-5.276-14.254zM-721.39 569.241q2.212 0 4.041.596 1.83.553 3.149 1.702 1.319 1.106 2 2.808.723 1.702.723 3.957 0 3.532-1.66 5.66-1.659 2.127-4.51 2.935l7.574 11.786h-4.935l-7.064-11.318h-7.02v11.318h-4.34v-29.444zm-7.702 14.382h7.786q2.553 0 4.128-1.277 1.574-1.276 1.574-3.957t-1.574-3.914q-1.575-1.277-4.128-1.277h-7.786zM-689.394 569.241l11.318 29.444h-4.595l-2.34-6.34h-13.318l-2.298 6.34h-4.595l11.19-29.444zm-7.531 19.232h10.467l-5.276-14.254zM-661.609 569.241q1.915 0 3.49.51 1.616.469 2.765 1.49 1.149.979 1.787 2.468.638 1.446.638 3.361 0 4.596-3.66 6.298 2.128.85 3.362 2.552 1.277 1.702 1.277 4.51 0 3.958-2.51 6.128-2.469 2.127-7.149 2.127h-12.765v-29.444zm-8.51 25.53h8.467q2.809 0 4.213-1.15 1.404-1.19 1.404-3.446 0-2.425-1.574-3.574t-4.51-1.149h-8zm0-12.893h8.638q1.872 0 3.148-1.106 1.32-1.106 1.32-3.319 0-2.17-1.277-3.191-1.234-1.064-3.191-1.064h-8.638zM-622.123 569.241q2.212 0 4.042.596 1.83.553 3.149 1.702 1.319 1.106 2 2.808.723 1.702.723 3.957 0 3.532-1.66 5.66-1.66 2.127-4.51 2.935l7.574 11.786h-4.936l-7.063-11.318h-7.02v11.318h-4.34v-29.444zm-7.702 14.382h7.787q2.553 0 4.127-1.277t1.574-3.957-1.574-3.914q-1.574-1.277-4.127-1.277h-7.787zM-585.318 569.241v4.042h-14.254v8.383h10.595v3.914h-10.595v9.063h14.552v4.042h-18.892v-29.444zM-563.277 569.241q2.255 0 4.084.596 1.83.596 3.149 1.744 1.319 1.15 2 2.894.723 1.702.723 4t-.723 4.042q-.681 1.702-2 2.893-1.32 1.149-3.149 1.744-1.83.554-4.084.554h-7.915v10.977h-4.34v-29.444zm-7.915 14.637h7.957q2.638 0 4.212-1.319 1.617-1.319 1.617-4.042 0-2.68-1.617-4-1.574-1.319-4.212-1.319h-7.957zM-544.386 569.241v18.424q0 1.787.511 3.149.51 1.361 1.404 2.297.936.894 2.17 1.362t2.638.468 2.638-.468 2.17-1.362q.936-.936 1.447-2.297.553-1.362.553-3.149v-18.424h4.34v18.424q0 2.808-.893 4.936-.851 2.127-2.383 3.531t-3.574 2.128q-2 .68-4.298.68t-4.34-.68q-2-.724-3.531-2.128-1.49-1.404-2.383-3.531-.851-2.128-.851-4.936v-18.424zM-504.9 569.241q1.915 0 3.49.51 1.616.469 2.765 1.49 1.149.979 1.787 2.468.638 1.446.638 3.361 0 4.596-3.659 6.298 2.127.85 3.361 2.552 1.277 1.702 1.277 4.51 0 3.958-2.51 6.128-2.468 2.127-7.149 2.127h-12.765v-29.444zm-8.51 25.53h8.468q2.808 0 4.212-1.15 1.404-1.19 1.404-3.446 0-2.425-1.574-3.574t-4.51-1.149h-8zm0-12.893h8.638q1.872 0 3.148-1.106 1.32-1.106 1.32-3.319 0-2.17-1.277-3.191-1.234-1.064-3.191-1.064h-8.638zM-484.944 569.241v25.402h15.062v4.042h-19.402v-29.444zM-461.244 569.241v29.444h-4.383v-29.444zM-433.8 577.58q-1.276-2.297-3.063-3.573-1.787-1.277-4.51-1.277-4 0-6.426 2.851-2.425 2.808-2.425 8.425 0 5.574 2.425 8.425 2.426 2.808 6.425 2.808 2.426 0 4.17-1.064 1.745-1.064 3.234-3.446l3.234 2.34q-3.702 6.17-10.723 6.17-2.808 0-5.233-.98-2.383-.978-4.128-2.893-1.744-1.914-2.765-4.765-.979-2.85-.979-6.638 0-3.744.979-6.595 1.02-2.85 2.765-4.765 1.745-1.958 4.17-2.936 2.426-.979 5.276-.979 4.043 0 6.68 1.83 2.639 1.83 4.043 4.68zM-399.25 568.688q2.809 0 5.149.979 2.382.978 4.084 2.936 1.702 1.914 2.639 4.808.978 2.85.978 6.595t-.978 6.595q-.937 2.85-2.639 4.765t-4.084 2.894q-2.34.978-5.149.978-2.808 0-5.148-.978-2.34-.979-4.042-2.894-1.66-1.914-2.638-4.765-.937-2.85-.937-6.595t.937-6.595q.978-2.894 2.638-4.808 1.702-1.958 4.042-2.936 2.34-.979 5.148-.979m0 4.042q-1.872 0-3.446.724-1.532.723-2.638 2.127-1.107 1.404-1.745 3.532-.596 2.085-.596 4.893 0 2.765.596 4.893.638 2.085 1.745 3.489 1.106 1.404 2.638 2.127 1.574.724 3.446.724 1.915 0 3.49-.724 1.574-.723 2.68-2.127 1.149-1.404 1.744-3.49.639-2.127.639-4.892 0-2.808-.639-4.893-.595-2.128-1.744-3.532-1.106-1.404-2.68-2.127-1.575-.724-3.49-.724M-360.445 569.241v4.042h-13.36v8.85h9.956v3.958h-9.956v12.594h-4.34v-29.444zM-321.725 569.241v4.042h-14.254v8.383h10.595v3.914h-10.595v9.063h14.552v4.042h-18.892v-29.444zM-287.813 582.985v3.446q0 2.893-.808 5.234-.766 2.34-2.256 4.042t-3.701 2.638q-2.17.893-4.979.893-2.85 0-5.276-.978-2.383-.979-4.17-2.894-1.744-1.914-2.723-4.723-.978-2.85-.978-6.595t.978-6.595q1.021-2.893 2.766-4.808 1.744-1.957 4.17-2.936 2.425-1.021 5.276-1.021 4.042 0 6.68 1.83t4.042 4.68l-3.148 2.383q-1.234-2.298-3.064-3.574-1.787-1.277-4.553-1.277-3.957 0-6.382 2.851t-2.425 8.425 2.425 8.425q2.425 2.808 6.382 2.808 3.32 0 5.404-2.128 2.085-2.127 2.17-6.382h-6.68v-3.744zM-279.473 569.241l8.254 14.637 8.34-14.637h4.85l-11.062 18.594v10.85h-4.298v-10.85l-11.105-18.594zM-240.839 569.241q2.256 0 4.085.596t3.149 1.744q1.319 1.15 2 2.894.723 1.702.723 4t-.723 4.042q-.681 1.702-2 2.893-1.32 1.149-3.149 1.744-1.83.554-4.085.554h-7.914v10.977h-4.34v-29.444zm-7.914 14.637h7.957q2.638 0 4.212-1.319 1.617-1.319 1.617-4.042 0-2.68-1.617-4-1.574-1.319-4.212-1.319h-7.957zM-205.565 569.241v4.042h-8.85v25.402h-4.34v-25.402h-8.936v-4.042z" style="font-family:Expressway;-inkscape-font-specification:Expressway" transform="translate(927.081 -293.712)"/></g><g aria-label="ﺟﻤﻬﻮرﻳﺔ" style="font-size:86.3704px;font-family:&quot;DejaVu Sans&quot;;-inkscape-font-specification:DejaVuSans;fill:#fcd116;stroke-width:2.813"><path d="M780.849 193.37q-3.266-.904-7.32-1.81-3.344-.747-10.427-1.377-3.227-.275-9.563-.04v-7.24q2.833-.275 5.785-.315 6.375 0 13.143 1.378 10.153 2.046 18.81 5.902v6.06q-2.99.945-6.454 2.991-6.532 3.857-9.444 6.454-5.706 5.076-8.657 6.139-8.697 3.148-15.111 3.148h-5.037v-7.241h3.935q8.933 0 14.01-2.833 4.092-2.283 8.656-6.454 3.7-3.384 7.674-4.761m-12.829 27.192h5.903v5.903h-5.903z"/><path d="M734.936 212.613q-3.817 4.014-9.287 4.014-8.421 0-12.75-3.856-2.518 1.889-6.61 1.889h-6.297v-7.241h4.565q2.046 0 3.778-1.417 1.692-1.377 1.888-3.305.787-7.123 6.1-10.27 3.699-2.205 7.359-2.205 2.833 0 5.43 1.142 7.595 3.266 8.264 9.838.197 1.928 2.203 4.368 1.417 1.731 5.628 1.731h2.951v7.24h-5.116q-6.925 0-8.106-1.928m-18.18-5.784q2.44 2.715 8.696 2.715 1.85 0 2.598-.708 2.046-2.086 2.046-4.801 0-.748-.197-1.456-.866-3.463-3.148-4.132-1.535-.472-3.07-.472-2.085 0-3.698 1.062-1.968 1.299-2.558 5.116-.276 1.456-.67 2.676"/><path d="M676.966 207.419h.748q1.653 0 5.43-2.99 4.487-3.542 4.487-5.589 0-4.407-3.306-4.407-2.951 0-5.863 5.549-1.496 2.833-1.496 7.437m-7.24 0q.354-10.467 5.43-15.426 4.25-4.21 9.327-4.21 5.43 0 8.145 3.895 1.81 2.637 1.81 7.123 0 4.368-6.414 8.618h13.537v7.24h-13.537q6.414 4.25 6.414 8.619 0 4.486-1.81 7.122-2.715 3.896-8.145 3.896-5.077 0-9.327-4.21-5.076-5.038-5.43-15.426h-6.887v-7.241zm7.24 7.24q0 4.605 1.496 7.438 2.912 5.549 5.863 5.549 3.306 0 3.306-4.408 0-2.046-4.486-5.588-3.778-2.99-5.43-2.99z"/><path d="M647.496 207.419q0-2.99-.63-5.234-.944-3.148-2.754-4.328-2.362-1.614-4.723-.59-2.636 1.14-3.148 3.344-.669 2.952 1.85 5.077 1.85 1.574 9.405 1.731m7.044 0h9.68v7.24h-7.634l-2.755-.039q-.983 6.14-6.06 11.215-3.266 3.267-7.398 5.116-7.555 3.384-21.919 3.384v-7.24q14.206 0 19.4-2.991 6.612-3.738 9.051-9.562-4.643-.118-6.414-.394-5.47-.944-7.477-2.636-4.17-3.503-4.564-8.815-.08-1.22.315-3.463 1.062-6.1 7.988-9.05 2.322-.985 4.88-.945 3.423.078 6.138 2.007 5.234 3.62 6.1 9.168.511 3.267.669 7.005M609.436 208.442q.393-2.282.393-5.116 0-4.958-2.085-10.31h7.24q1.968 4.644 1.968 9.838 0 3.227-.315 5.667-1.81 13.773-13.261 19.872-11.176 5.942-23.847 5.942v-7.24q11.963 0 19.95-5.037 8.58-5.43 9.957-13.616M572.074 211.275q-2.833 3.385-9.011 3.385h-3.542v-7.241h1.377q3.896 0 5.627-1.731 1.929-1.929 1.929-6.1v-8.54h7.24v8.54q0 7.359-3.62 11.687m1.968 9.287h5.902v5.903h-5.902zm-9.838 0h5.902v5.903h-5.902z"/><path d="M543.551 203.563q-.59-1.653-1.102-3.581-.511-1.968-.983-5.942-4.723.472-7.95 3.108-4.367 3.503-4.289 5.942.04 1.614 3.581 2.598t10.743-2.125m-2.636-15.19q-.158-1.535-.276-3.227h7.24q.04 6.611 1.457 13.458.826 3.975 3.03 7.084 1.22 1.731 5.627 1.731h2.951v7.24h-5.115q-3.542 0-6.414-2.006-1.771-1.22-3.267-3.542-5.43 2.873-11.569 2.873-2.204 0-4.486-.59-7.437-1.89-7.437-7.95 0-6.807 8.027-11.805 4.29-2.676 10.232-3.266m-.355-15.032h5.903v5.902h-5.903zm-9.837 0h5.902v5.902h-5.902z"/></g><g aria-label="ﻣﺼﺮ" style="font-size:86.3704px;font-family:&quot;DejaVu Sans&quot;;-inkscape-font-specification:DejaVuSans;fill:#fcd116;stroke-width:2.813"><path d="M482.281 212.613q-3.817 4.014-9.601 4.014-8.107 0-12.435-3.856-2.519 1.889-6.611 1.889h-6.297v-7.241h4.565q2.047 0 3.739-1.377 1.731-1.417 1.928-3.345.787-7.123 6.1-10.27 3.698-2.205 6.886-2.205 6.926 0 10.507 3.306 3.817 3.502 3.817 10.743 0 5.627-2.598 8.342m-18.18-5.784q2.44 2.715 8.697 2.715 1.85 0 2.597-.708 2.046-2.086 2.046-4.801 0-2.952-1.574-4.447-1.653-1.613-5.115-1.613-1.81 0-3.62 1.18-1.772 1.18-2.362 4.998-.275 1.456-.669 2.676"/><path d="M414.374 214.66h-11.018q-2.912 0-5.982-1.653-2.557-1.377-4.092-3.778-4.014 5.43-10.782 5.43h-5.116v-7.24h2.951q3.896 0 5.628-1.731 3.148-3.149 3.148-7.084v-4.486h7.24v3.07q0 .944.354 2.518.355 1.574 2.125 3.542 3.975-5.273 7.713-8.579 6.021-5.39 11.688-7.87 2.951-1.299 6.296-1.299 4.447 0 8.736 1.535 7.477 2.676 7.477 11.963 0 2.951-1.653 5.784.55.473 1.18.906 2.4 1.731 5.628 1.731h2.951v7.24h-5.116q-5.155 0-9.208-3.62l-1.102-1.023q-8.027 4.644-19.046 4.644m2.204-19.125q-6.611 4.25-12.317 11.884h7.359q9.326 0 14.402-2.48 7.32-3.58 7.32-6.335 0-5.312-5.47-6.06-1.456-.197-3.345-.197-2.99 0-7.95 3.188"/><path d="M358.474 193.016h7.24q1.181 4.408 1.3 5.588.393 4.054 3.265 7.084 1.653 1.731 5.628 1.731h2.95v7.24h-5.115q-5.115 0-7.083-2.44-2.676 10.94-12.553 16.174-11.176 5.942-23.847 5.942v-7.24q11.963 0 19.951-5.037 8.579-5.43 9.956-13.616.394-2.282.394-5.116 0-4.958-2.086-10.31"/></g><g aria-label="اﻟﻌﺮﺑﻴﺔ" style="font-size:86.3704px;font-family:&quot;DejaVu Sans&quot;;-inkscape-font-specification:DejaVuSans;fill:#fcd116;stroke-width:2.813"><path d="M293.085 153.429h7.241v61.23h-7.24zM277.79 200.06q0 7.005-3.423 10.98-3.149 3.62-9.209 3.62h-5.115v-7.241h2.951q3.896 0 5.627-1.731 1.928-1.929 1.928-6.1V153.43h7.241z"/><path d="M241.343 207.38q-7.634 7.28-15.583 7.28h-4.643v-7.241h3.778q4.21 0 6.807-1.574 2.322-1.417 3.896-2.951-3.817-3.345-6.493-6.887-1.18-1.535-1.18-3.305 0-1.22.511-2.834.63-2.164 4.722-4.21 3.503-1.771 8.185-1.771t8.186 1.77q4.092 2.047 4.722 4.211.511 1.614.511 2.834 0 1.77-1.18 3.305-3.03 3.857-6.493 6.887 1.22 1.22 3.896 2.951 2.4 1.574 6.807 1.574h3.778v7.24h-4.643q-7.95 0-15.584-7.28m2.204-15.938q-1.18-.275-2.204-.275-1.023 0-2.203.275-1.85.473-1.85 1.732 0 1.141 4.053 4.88 4.054-3.739 4.054-4.88 0-1.26-1.85-1.732"/><path d="M202.207 193.016h7.24q1.181 4.408 1.3 5.588.393 4.054 3.265 7.084 1.653 1.731 5.628 1.731h2.95v7.24h-5.115q-5.115 0-7.083-2.44-2.676 10.94-12.553 16.174-11.176 5.942-23.847 5.942v-7.24q11.963 0 19.951-5.037 8.579-5.43 9.956-13.616.394-2.282.394-5.116 0-4.958-2.086-10.31M166.537 211.275q-2.833 3.385-9.011 3.385h-3.542v-7.241h1.377q3.896 0 5.628-1.731 1.928-1.929 1.928-6.1v-8.54h7.24v8.54q0 7.359-3.62 11.687m-2.951 9.287h5.903v5.903h-5.903z"/><path d="M142.118 211.275q-3.03 3.385-9.011 3.385h-3.542v-7.241h1.377q3.896 0 5.627-1.731 1.929-1.929 1.929-6.1v-8.54h7.24v8.54q0 4.171 1.929 6.1 1.731 1.731 5.627 1.731h2.164v7.24h-4.329q-5.902 0-9.011-3.384m1.968 9.287h5.902v5.903h-5.902zm-9.838 0h5.902v5.903h-5.902z"/><path d="M113.595 203.563q-.59-1.653-1.102-3.581-.511-1.968-.983-5.942-4.723.472-7.95 3.108-4.367 3.503-4.289 5.942.04 1.614 3.581 2.598t10.743-2.125m-2.636-15.19q-.158-1.535-.276-3.227h7.24q.04 6.611 1.457 13.458.826 3.975 3.03 7.084 1.22 1.731 5.627 1.731h2.951v7.24h-5.115q-3.542 0-6.415-2.006-1.77-1.22-3.266-3.542-5.43 2.873-11.569 2.873-2.204 0-4.486-.59-7.437-1.89-7.437-7.95 0-6.807 8.027-11.805 4.29-2.676 10.232-3.266m-.355-15.032h5.903v5.902h-5.903zm-9.837 0h5.902v5.902h-5.902z"/></g><g aria-label="PASSPORT" style="font-size:48.397px;font-family:&quot;Nimbus Sans&quot;;-inkscape-font-specification:NimbusSans-Regular;fill:#fcd116;stroke-width:3.86176"><path d="M-599.858 1253.785q2.565 0 4.646.678 2.081.677 3.582 1.984t2.274 3.29q.823 1.937.823 4.55 0 2.614-.823 4.598-.774 1.936-2.274 3.29-1.5 1.308-3.582 1.985-2.08.63-4.646.63h-9.002v12.486h-4.936v-33.491zm-9.002 16.649h9.05q3.001 0 4.792-1.5 1.839-1.501 1.839-4.598 0-3.05-1.84-4.55-1.79-1.5-4.79-1.5h-9.05zM-570.336 1253.785l12.873 33.49h-5.227l-2.661-7.21H-580.5l-2.613 7.21h-5.227l12.728-33.49zm-8.567 21.876h11.906l-6.001-16.213zM-552.72 1278.613q1.743 2.08 4.356 3.387 2.662 1.307 6.292 1.307 3.775 0 6.05-1.5t2.274-4.307q0-1.888-1.016-2.856t-2.614-1.549q-1.161-.435-2.565-.725-1.355-.34-2.807-.63-1.403-.338-2.855-.677-1.452-.387-2.807-.92-2.662-1.064-4.21-2.758-1.501-1.743-1.501-4.646 0-2.033.774-3.727.823-1.694 2.323-2.904 1.549-1.258 3.775-1.936 2.275-.726 5.13-.726 2.42 0 4.356.484 1.936.436 3.436 1.21 1.549.775 2.662 1.742 1.162.92 1.888 1.888l-3.437 3.049q-1.452-1.646-3.678-2.759-2.226-1.161-5.42-1.161-3.291 0-5.179 1.258-1.887 1.258-1.887 3.388 0 1.597.968 2.468.968.823 2.226 1.355 1.162.436 2.517.775 1.403.29 2.855.58t2.904.678q1.5.339 2.904.871 1.21.484 2.274 1.162 1.113.629 1.936 1.645.823.968 1.307 2.275.532 1.307.532 3.097 0 2.565-1.016 4.501-1.016 1.888-2.855 3.146-1.791 1.258-4.26 1.936-2.42.629-5.275.629-5.033 0-8.566-1.742-3.484-1.743-5.469-4.308zM-520.923 1278.613q1.742 2.08 4.356 3.387 2.662 1.307 6.291 1.307 3.775 0 6.05-1.5t2.275-4.307q0-1.888-1.017-2.856t-2.613-1.549q-1.162-.435-2.565-.725-1.355-.34-2.807-.63-1.404-.338-2.856-.677-1.451-.387-2.807-.92-2.661-1.064-4.21-2.758-1.5-1.743-1.5-4.646 0-2.033.774-3.727.823-1.694 2.323-2.904 1.549-1.258 3.775-1.936 2.275-.726 5.13-.726 2.42 0 4.356.484 1.936.436 3.436 1.21 1.549.775 2.662 1.742 1.161.92 1.887 1.888l-3.436 3.049q-1.452-1.646-3.678-2.759-2.226-1.161-5.42-1.161-3.292 0-5.179 1.258t-1.888 3.388q0 1.597.968 2.468.968.823 2.227 1.355 1.161.436 2.516.775 1.404.29 2.856.58t2.904.678q1.5.339 2.903.871 1.21.484 2.275 1.162 1.113.629 1.936 1.645.823.968 1.307 2.275.532 1.307.532 3.097 0 2.565-1.016 4.501-1.017 1.888-2.856 3.146-1.79 1.258-4.259 1.936-2.42.629-5.275.629-5.033 0-8.566-1.742-3.485-1.743-5.47-4.308zM-475.962 1253.785q2.565 0 4.646.678 2.08.677 3.581 1.984t2.275 3.29q.823 1.937.823 4.55 0 2.614-.823 4.598-.775 1.936-2.275 3.29-1.5 1.308-3.581 1.985-2.081.63-4.646.63h-9.002v12.486h-4.937v-33.491zm-9.002 16.649h9.05q3 0 4.791-1.5 1.84-1.501 1.84-4.598 0-3.05-1.84-4.55-1.79-1.5-4.79-1.5h-9.051zM-444.552 1253.156q3.194 0 5.856 1.113 2.71 1.113 4.646 3.34 1.936 2.177 3 5.468 1.113 3.243 1.113 7.502t-1.113 7.501q-1.064 3.243-3 5.42-1.936 2.179-4.646 3.292-2.662 1.113-5.856 1.113t-5.856-1.113-4.598-3.291q-1.888-2.178-3-5.42-1.066-3.243-1.066-7.502t1.065-7.502q1.113-3.29 3-5.469 1.937-2.226 4.599-3.339t5.856-1.113m0 4.598q-2.13 0-3.92.822-1.743.823-3.001 2.42-1.259 1.597-1.985 4.017-.677 2.372-.677 5.566 0 3.146.677 5.565.726 2.372 1.985 3.969 1.258 1.597 3 2.42 1.791.823 3.92.823 2.178 0 3.97-.823 1.79-.823 3.048-2.42 1.307-1.597 1.984-3.969.726-2.42.726-5.565 0-3.194-.726-5.566-.677-2.42-1.984-4.017-1.258-1.597-3.049-2.42-1.79-.822-3.968-.822M-406.852 1253.785q2.517 0 4.598.678 2.081.629 3.582 1.936 1.5 1.258 2.274 3.194.823 1.936.823 4.5 0 4.017-1.888 6.437t-5.13 3.34l8.615 13.406h-5.614l-8.034-12.874h-7.985v12.874h-4.937v-33.491zm-8.76 16.358h8.857q2.904 0 4.695-1.452 1.79-1.452 1.79-4.5 0-3.05-1.79-4.453-1.791-1.452-4.695-1.452h-8.856zM-364.31 1253.785v4.598h-10.067v28.893h-4.937v-28.893h-10.163v-4.598z" style="font-family:Expressway;-inkscape-font-specification:Expressway" transform="translate(927.081 -293.712)"/></g><g aria-label="ﺟﻮاز" style="font-size:67.5354px;font-family:&quot;DejaVu Sans&quot;;-inkscape-font-specification:DejaVuSans;fill:#fcd116;stroke-width:3.07935"><path d="M571.137 898.094q-2.737-.759-6.134-1.517-2.803-.627-8.739-1.154-2.704-.231-8.013-.033v-6.068q2.374-.23 4.848-.264 5.342 0 11.014 1.155 8.507 1.714 15.762 4.946v5.078q-2.506.792-5.408 2.507-5.474 3.231-7.914 5.408-4.782 4.254-7.255 5.144-7.288 2.638-12.663 2.638h-4.22v-6.068h3.297q7.485 0 11.74-2.374 3.429-1.912 7.254-5.408 3.1-2.836 6.43-3.99m-10.75 22.787h4.946v4.946h-4.947z"/><path d="M529.624 909.866q0-2.506-.528-4.385-.79-2.639-2.308-3.628-1.978-1.352-3.957-.494-2.21.956-2.638 2.803-.56 2.473 1.55 4.253 1.55 1.32 7.881 1.451m5.903 0h8.112v6.068h-6.397l-2.309-.033q-.824 5.144-5.078 9.398-2.737 2.737-6.2 4.287-6.331 2.836-18.367 2.836v-6.067q11.904 0 16.257-2.507 5.54-3.132 7.584-8.013-3.89-.099-5.375-.33-4.583-.791-6.265-2.209-3.496-2.935-3.825-7.387-.066-1.022.263-2.902.89-5.11 6.695-7.584 1.945-.825 4.089-.792 2.869.066 5.144 1.682 4.386 3.034 5.111 7.684.429 2.737.56 5.87M495.68 864.623h6.068v51.311h-6.068zM478.955 910.724q.33-1.913.33-4.287 0-4.155-1.748-8.64h6.068q1.649 3.891 1.649 8.244 0 2.704-.264 4.749-1.517 11.541-11.113 16.653-9.365 4.98-19.984 4.98v-6.068q10.025 0 16.72-4.221 7.188-4.551 8.342-11.41m-1.648-26.117h4.946v4.946h-4.946z"/></g><g aria-label="ﺳﻔﺮ" style="font-size:67.5354px;font-family:&quot;DejaVu Sans&quot;;-inkscape-font-specification:DejaVuSans;fill:#fcd116;stroke-width:3.07935"><path d="M391.154 911.383q-1.418 1.946-3.264 3.034-2.506 1.517-5.771 1.517h-4.287v-6.068h2.473q3.265 0 4.716-1.45 2.638-2.639 2.638-5.936v-6.332h6.068v5.145q0 2.11 1.45 5.408 1.418 3.264 4.848 3.264 3.594 0 5.045-4.023 1.22-3.396 1.22-9.794h6.068q0 6.76.627 8.41 2.11 5.605 5.738 5.572 4.682-.066 4.682-9.233v-9.695h6.068v11.278q0 6.562-3.034 10.288-2.473 3.034-5.837 3.826-1.22.296-2.374.296-2.078 0-3.891-.824-4.518-2.012-5.112-6.364-1.582 5.144-4.748 6.232-2.243.791-4.386.791-3.232 0-5.606-1.615-1.979-1.32-3.33-3.727"/><path d="M364.498 890.806q6.035 2.638 6.827 7.585.263 1.649.263 3.034 0 2.407-.692 4.023-.956 2.21-2.144 3.858 1.287.56 6.134.56h4.188v6.068h-7.156q-4.485 0-10.585-1.88-6.1 1.88-10.586 1.88h-7.155v-6.068h4.188q4.847 0 6.133-.56-.956-1.32-2.143-3.858-.693-1.517-.693-4.023 0-1.451.264-3.034.758-4.716 6.859-7.585.99-.462 3.133-.462 2.077 0 3.165.462m-3.165 5.606q-.495 0-1.088.33-1.847 1.055-2.639 2.803-.33.692-.33 1.649 0 1.418.792 3.165 1.022 2.243 3.265 2.968 2.077-.692 3.264-2.968.825-1.648.825-3.165 0-.792-.363-1.65-.758-1.714-2.638-2.802-.627-.33-1.088-.33m-2.473-18.4h4.946v4.946h-4.946z"/><path d="M327.745 897.797h6.068q.99 3.693 1.088 4.683.33 3.396 2.737 5.935 1.385 1.451 4.716 1.451h2.473v6.068h-4.287q-4.287 0-5.936-2.044-2.242 9.167-10.519 13.553-9.365 4.98-19.984 4.98v-6.068q10.025 0 16.72-4.221 7.188-4.551 8.342-11.41.33-1.913.33-4.287 0-4.155-1.748-8.64"/></g></svg>