<svg xmlns="http://www.w3.org/2000/svg" width="600" height="856"><path fill="#571927" d="M0 0v856h573.36c14.708 0 26.639-12.215 26.639-27.683V27.927c0-15.468-11.931-27.928-26.639-27.928z"/><g fill="#ffd283"><path d="M254.81 782.74v17.549s67.691-.179 67.512 0c-.18.18 0-17.549 0-17.549h-19.781a14.14 14.14 0 0 1-13.922 11.77 14.14 14.14 0 0 1-13.936-11.77zm0-21.938v17.549l19.84-.039a14.14 14.14 0 0 1 13.969-12.076 14.14 14.14 0 0 1 13.969 12.045c10.741 0 19.797.01 19.734.07-.18.18 0-17.549 0-17.549zm43.022 19.569a9.213 9.213 0 0 1-9.213 9.213 9.213 9.213 0 0 1-9.212-9.213 9.213 9.213 0 0 1 9.212-9.213 9.213 9.213 0 0 1 9.213 9.213M185.96 745.24v4.566h204.23v-4.566h-13.999c-2.066 1.295-3.762 1.02-4.49 0z"/><path d="M296.83 711.64v26.726h6.715v-9.445c2.452-.021 4.524-.342 6.256-.987 3.244-1.071 5.8-4.107 6.285-7.386.422-2.853-.602-6.13-4.041-7.92-2.362-1.054-5.513-.965-8.12-.989zm8.803 5.889c.672.01 1.296.045 1.808.168 3.432 1.073 2.094 3.994-.04 5.109-.974.5-2.345.642-3.856.803v-6.078c.698.01 1.416-.01 2.088 0zm44.758-4.768v26.726h6.715v-9.446q.982-.014 1.884-.086l-.059.02 11.932 13.411c1.81 2.2 1.975 2.874 4.477 1.819 1.81-.92 3.38-1.062 4.898-2.201.07-.383.173-.641-.834-1.534L366 727.65l-.053.018c1.948-1.466 3.354-3.664 3.7-6 .422-2.852-.603-6.13-4.041-7.92-2.362-1.054-5.514-.964-8.12-.988zm8.802 5.888c.672.01 1.297.045 1.81.168 3.43 1.074 2.093 3.995-.042 5.11-.974.5-2.344.642-3.855.802v-6.078c.698.01 1.416-.01 2.088 0zm-27.819-7.17a13.61 13.61 0 0 0-13.612 13.611 13.61 13.61 0 0 0 13.612 13.61 13.61 13.61 0 0 0 13.61-13.61 13.61 13.61 0 0 0-13.61-13.612m0 6.296a7.315 7.315 0 0 1 7.314 7.315 7.315 7.315 0 0 1-7.314 7.316 7.315 7.315 0 0 1-7.315-7.316 7.315 7.315 0 0 1 7.315-7.315m40.03.623h7.85v20.766h6.902v-20.766h7.85v-6.205h-22.602zm-95.364-5.951v26.055h15.221l1.88-2.507s.02-3.54 0-3.574-10.571 0-10.571 0v-4.939h7.13l1.366-2.366s.353-2.54 0-2.54h-8.497v-4.274h9.633v-5.855zm-14.036 6.514c-2.021.29-2.265 1.603-.793 2.442 3.75 2.238 9.618 4.735 10.078 9.205.409 1.998-.229 4.067-2.523 6.048-3.624 3.204-9.47 2.322-13.404 1.69-1.522-.291-2.148-.736-2.343-2.99-.419-5.24.285-4.108 7.085-2.615 4.203.822 4.425-1.684 1.501-3.459-1.372-.872-3.01-1.816-4.452-2.805-3.788-2.515-3.984-4.535-3.69-7.81.053-3.442 3.69-6.28 6.787-6.319 7.846.19 9.453-.67 9.402 4.64.234 4.404-5.444 1.816-7.647 1.973zm-21.31 0c-2.021.29-2.265 1.603-.793 2.442 3.75 2.238 9.618 4.735 10.078 9.205.409 1.998-.229 4.067-2.523 6.048-3.624 3.204-9.47 2.322-13.404 1.69-1.522-.291-2.148-.736-2.343-2.99-.419-5.24.285-4.108 7.085-2.615 4.203.822 4.425-1.684 1.501-3.459-1.372-.872-3.01-1.816-4.452-2.805-3.788-2.515-3.984-4.535-3.69-7.81.053-3.442 3.69-6.28 6.787-6.319 7.846.19 9.453-.67 9.402 4.64.234 4.404-5.444 1.816-7.647 1.973zm-22.639-6.974c-.545.036-1.096.255-1.55.47-.748.35-1.477.721-2.13 1.134-.68.62-.955 1.512-1.448 2.611l-9.34 20.812c-.543 1.214-.89 1.326.498 1.326h4.605c1.275.021 1.292-.315 1.785-1.238l2.141-4.555h8.23l2.08 4.533c.438 1.262.607 1.26 1.854 1.26h5.104c1.682.024 1.845.257 1.125-1.289l-9.998-21.463c-.458-.993-.936-2.073-1.44-2.98-.433-.511-.97-.657-1.516-.621zm-1.52 10.812c.181-.015.362.406.763 1.305l1.066 2.176c.876 1.789.99 1.763-1.096 1.675h-1.771c-2 0-1.45-.18-.65-1.898l.921-1.945c.402-.848.584-1.3.766-1.315zm-31.374-11.16v26.726h6.715v-9.445c2.452-.021 4.525-.342 6.256-.986 3.244-1.072 5.8-4.108 6.285-7.387.422-2.853-.602-6.13-4.041-7.92-2.362-1.054-5.513-.964-8.12-.988zm8.803 5.889c.672.01 1.296.045 1.808.168 3.432 1.073 2.094 3.994-.04 5.11-.974.5-2.345.641-3.856.802v-6.078c.698.01 1.416-.01 2.088 0z"/></g><g fill="#571927" stroke="#ffd283"><path stroke-linejoin="bevel" stroke-width=".715" d="M377.72 288.05s-.265.929-2.437 2.88c-3.445 3.095-5.903 4.27-8.008 9.731-1.79 4.645-2.414 3.449-4.35 6.804s-2.785 10.828-5.15 12.168c-2.367 1.34-8.979 6.726-10.35 10.178s-1.692 7.292-5.982 9.659-4.693 6.957-8.391 10.396-10.114 9.129-10.114 9.129l-4.711-3.93s9.262-8.693 11.349-10.663 7.865-6.216 8.983-9.324 4.699-8.12 7.89-10.871c3.192-2.75 14.752-15.976 14.893-24.09.08-4.658 11.281-11.78 13.238-12.996s3.14.93 3.14.93z"/><path stroke-width=".477" d="M334.29 340.58c.868-3.665.737-3.916-2.536-10.856l2.75-.886c2.703 6.371 4.21 10.62 3.523 11.475"/><path stroke-width=".715" d="M328.19 327.94c3.465-.191 6.701-.932 9.803-2.041-1.902-3.843-3.306-11.406-8.226-10.443-5.048 2.016-1.807 8.825-1.577 12.484z"/><path stroke-width=".477" d="M327.77 328.04c-.39 3.55 2.2 7.043 7.43 6.273 3.82-1.198 6.47-4.12 3.116-8.585-3.464 1.288-6.964 2.009-10.546 2.312z"/></g><g fill="none" stroke="#ffd283" stroke-width=".238"><path d="m328.6 331.83.867-4.014 5.888 6.36"/><path d="M330.51 333.58c-.16-2.247.331-4.019.659-5.898 1.839 1.733 3.642 3.786 5.425 6.017"/><path d="M332.07 334.15c-.016-2.283.493-4.567.99-6.847 1.746 1.663 3.317 3.586 4.81 5.652"/><path d="M333.63 334.38c.251-2.513.817-5.018 1.322-7.533 1.508 1.21 2.813 3.032 4.05 5.03"/><path d="M334.94 334.34c.768-2.742 1.247-5.402 1.813-8.06l3.07 3.613M327.84 328.02c2.086 2.3 4.203 4.343 6.335 6.345M327.77 329.55c1.497 1.81 3.34 3.265 5.128 4.777"/><path d="M336.19 333.87c.689-2.639 1.552-5.154 1.902-8.035M339.1 327.03c-.306 2.188-.848 4.195-1.53 6.118"/></g><path fill="#571927" stroke="#ffd283" stroke-width=".619" d="M376.16 283.87c-.359-1.16 2.186-4.672 2.186-4.672-.249-3.47-.795-7.766 2.61-10.024 1.44-.694 4.145-.505 3.89-2.5.144-2.033 1.116-4.786 4.177-4.495 2.544-.22 2.093-2.838 2.73-4.331.405-1.734 2.938-2.584 4.901-1.513 1.372.802 2.994.804 4.193.046 1.6-.857 4.414-1.155 5.7.65.376.523.582 1.1.593 1.673.231 2.808-3.453 4.103-3.475 6.852-.446 2.014-1.807 4.652-4.785 4.429-1.086-.52-2.104.186-1.864 1.112-.2 2.397-2.409 4.528-5.558 4.357-.845-.037-2.62.038-1.74 1.118.921 1.893-.495 3.908-2.887 3.944-2.35.246-5.548-.833-6.966 1.04l-1.554 3.61"/><path fill="#ffd283" d="M400.11 265.37c-1.4-.6-2.663-1.347-4.753-1.217l.693-.552c1.694.214 2.86 1.017 4.06 1.769m4.915-7.4c-6.004 3.128-11.66 7.11-16.357 11.508 1.479-.135 2.644.235 3.845.573-1.41-.162-2.744-.467-4.589.154-3.078 2.99-5.695 6.158-7.66 9.376-.774 1.218-1.597 2.185-.662-.328 2.031-3.345 4.48-6.298 7.097-8.873.906-1.724 1.1-3.213 1.409-4.738-.12 1.299-.203 2.585-.642 3.991a58.5 58.5 0 0 1 6.011-4.968c1.032-1.848 1.226-3.414 1.56-5.023-.131 1.454-.23 2.882-.809 4.481 4.08-2.854 7.974-4.891 10.797-6.154z"/><path fill="#571927" stroke="#ffd283" stroke-width=".619" d="M357.33 379.02c1.081-.553 4.978 1.351 4.978 1.351 3.375-.84 7.515-2.116 10.323.851.93 1.3 1.21 3.996 3.132 3.403 2.026-.207 4.905.277 5.144 3.342.654 2.47 3.156 1.575 4.736 1.946 1.777.101 3.05 2.451 2.331 4.569-.554 1.488-.277 3.087.675 4.138 1.12 1.429 1.896 4.15.34 5.727-.452.46-.986.763-1.548.872-2.726.71-4.634-2.697-7.347-2.248-2.06-.093-4.893-.98-5.184-3.953.326-1.16-.545-2.04-1.416-1.645-2.396.215-4.875-1.595-5.246-4.727-.11-.84-.488-2.575-1.4-1.523-1.708 1.233-3.935.184-4.382-2.166-.645-2.272-.132-5.609-2.22-6.684l-3.823-.911"/><path fill="#ffd283" d="M379.67 399.44c.351-1.481.87-2.855.383-4.892l.663.588c.08 1.706-.511 2.994-1.046 4.304m8.135 3.571c-4.114-5.378-9.007-10.266-14.147-14.138.387 1.434.222 2.645.096 3.886-.083-1.417-.012-2.782-.94-4.494-3.474-2.518-7.044-4.553-10.552-5.936-1.333-.553-2.427-1.199.21-.709 3.643 1.427 6.973 3.332 9.96 5.468 1.853.597 3.354.532 4.909.575-1.3.105-2.581.244-4.043.053a58.5 58.5 0 0 1 5.927 5.069c1.998.699 3.574.62 5.217.674-1.456.12-2.879.268-4.554-.028 3.512 3.53 6.188 7.016 7.917 9.58z"/><path fill="#571927" stroke="#ffd283" stroke-width=".715" d="M367.73 384.52c.72-1.203 5.7-1.725 5.7-1.725 2.789-2.89 6.06-6.672 10.624-5.487 1.707.701 3.63 3.17 5.149 1.413 1.857-1.443 4.972-2.732 7.082.122 2.151 2.017 4.052-.39 5.826-.994 1.802-.99 4.486.532 5.08 3.044.368 1.796 1.618 3.192 3.194 3.637 1.97.714 4.396 2.902 3.838 5.398-.16.727-.498 1.35-.981 1.8-2.234 2.364-6.188.198-8.567 2.299-2.074 1.17-5.39 2.035-7.495-.696-.39-1.334-1.783-1.663-2.393-.743-2.213 1.677-5.748 1.423-8.03-1.415-.62-.755-2.053-2.222-2.302-.633-.916 2.252-3.739 2.589-5.615.561-2.023-1.828-3.562-5.408-6.266-5.182l-4.299 1.449"/><path fill="#ffd283" d="M402.1 390.83c-.563-1.665-.897-3.327-2.62-5.022l1.009.17c1.122 1.62 1.332 3.242 1.611 4.852m10.149-1.485c-7.318-2.745-15.101-4.535-22.503-5.177 1.257 1.166 1.837 2.453 2.473 3.745-.948-1.337-1.714-2.717-3.671-3.823-4.942-.339-9.683-.145-13.963.649-1.643.274-3.109.312-.229-.822 4.44-.834 8.866-1.008 13.096-.746 2.18-.55 3.61-1.533 5.157-2.443-1.207.9-2.377 1.82-3.924 2.527 3.115.254 6.104.722 8.905 1.333 2.383-.54 3.878-1.58 5.518-2.534-1.35 1.008-2.653 2.025-4.474 2.761 5.598 1.304 10.352 3.079 13.614 4.53z"/><path fill="#571927" stroke="#ffd283" stroke-width=".778" d="M378.75 359.91c.783-1.309 6.202-1.877 6.202-1.877 3.036-3.144 6.594-7.26 11.562-5.971 1.857.763 3.95 3.45 5.602 1.537 2.021-1.57 5.41-2.972 7.707.134 2.341 2.194 4.41-.426 6.34-1.083 1.96-1.076 4.881.579 5.527 3.313.402 1.955 1.762 3.474 3.476 3.958 2.144.777 4.784 3.157 4.177 5.874-.174.791-.541 1.469-1.068 1.96-2.43 2.572-6.733.214-9.322 2.5-2.257 1.274-5.865 2.215-8.156-.757-.425-1.451-1.94-1.81-2.603-.809-2.41 1.825-6.256 1.549-8.738-1.539-.676-.821-2.234-2.418-2.506-.69-.997 2.451-4.068 2.818-6.11.612-2.2-1.99-3.876-5.886-6.818-5.64l-4.678 1.577"/><path fill="#ffd283" d="M416.15 366.77c-.613-1.812-.976-3.62-2.851-5.465l1.098.184c1.221 1.764 1.45 3.53 1.753 5.281m11.043-1.616c-7.964-2.987-16.432-4.934-24.487-5.634 1.368 1.27 2 2.67 2.691 4.076-1.032-1.454-1.866-2.957-3.995-4.16-5.378-.369-10.536-.158-15.194.706-1.787.299-3.383.34-.248-.894 4.831-.908 9.647-1.097 14.25-.812 2.372-.6 3.928-1.668 5.612-2.659-1.314.979-2.586 1.98-4.27 2.75 3.389.276 6.642.785 9.69 1.45 2.593-.586 4.22-1.72 6.005-2.757-1.47 1.098-2.887 2.204-4.869 3.005 6.092 1.419 11.265 3.35 14.814 4.93z"/><path fill="#571927" stroke="#ffd283" stroke-width=".674" d="M377.3 358.63c.067-1.32 3.982-3.956 3.982-3.956 1.044-3.638 2.094-8.233 6.418-9.266 1.731-.17 4.425 1.035 4.91-1.1.908-2.022 2.932-4.472 5.95-3.029 2.683.727 3.2-2.117 4.41-3.404 1.063-1.62 3.97-1.54 5.575.289 1.101 1.332 2.758 1.941 4.267 1.615 1.955-.277 4.942.472 5.582 2.797.188.675.182 1.343-.02 1.932-.816 2.956-5.064 2.9-6.116 5.7-1.209 1.892-3.587 4.078-6.547 2.735-.915-.937-2.22-.596-2.32.44-1.101 2.374-4.156 3.726-7.31 2.372-.85-.354-2.691-.942-2.197.491.234 2.28-1.967 3.808-4.425 2.95-2.492-.628-5.357-2.927-7.507-1.544l-2.938 3.107"/><path fill="#ffd283" d="M408.69 348.68c-1.205-1.137-2.217-2.373-4.402-3.022l.915-.305c1.651.853 2.543 2.11 3.487 3.327m7.791-5.723c-7.305.95-14.575 2.902-21.02 5.64 1.561.414 2.613 1.23 3.714 2.024-1.38-.694-2.629-1.504-4.746-1.56-4.264 1.904-8.124 4.161-11.336 6.714-1.246.955-2.45 1.635-.554-.583 3.327-2.657 6.935-4.759 10.572-6.411 1.57-1.422 2.326-2.872 3.213-4.314-.608 1.282-1.175 2.565-2.15 3.838a64 64 0 0 1 8.002-2.827c1.746-1.503 2.53-3.03 3.474-4.55-.68 1.437-1.314 2.86-2.504 4.277 5.237-1.39 9.978-2.014 13.335-2.248z"/><path fill="#571927" stroke="#ffd283" stroke-width=".715" d="M325.66 353.35c.384-1.348 5.059-3.141 5.059-3.141 1.947-3.513 4.126-8.013 8.843-8.05 1.83.235 4.327 2.123 5.339.032 1.42-1.875 4.095-3.926 6.872-1.715 2.6 1.39 3.813-1.426 5.37-2.468 1.485-1.423 4.47-.648 5.695 1.625.82 1.64 2.39 2.665 4.026 2.687 2.088.18 4.998 1.665 5.105 4.22.034.744-.131 1.433-.482 1.994-1.546 2.861-5.925 1.792-7.68 4.437-1.7 1.667-4.68 3.36-7.42 1.268-.722-1.188-2.152-1.146-2.503-.1-1.704 2.193-5.184 2.863-8.122.713-.795-.569-2.559-1.615-2.389-.016-.301 2.412-2.94 3.468-5.277 1.996-2.427-1.243-4.841-4.303-7.394-3.385l-3.778 2.512"/><path fill="#ffd283" d="M360.48 350.55c-.975-1.462-1.727-2.981-3.83-4.173l1.018-.097c1.503 1.275 2.126 2.787 2.812 4.27m9.418-4.061c-7.78-.758-15.76-.472-23.076.823 1.516.801 2.41 1.894 3.359 2.978-1.262-1.046-2.36-2.18-4.536-2.743-4.861.952-9.39 2.367-13.319 4.24-1.516.691-2.922 1.107-.433-.734 4.073-1.955 8.302-3.268 12.457-4.11 1.962-1.096 3.089-2.414 4.349-3.694-.934 1.18-1.826 2.372-3.137 3.456a67.6 67.6 0 0 1 8.946-1.017c2.163-1.138 3.337-2.53 4.675-3.876-1.044 1.324-2.04 2.643-3.607 3.825 5.745-.19 10.796.294 14.322.852z"/><path fill="#571927" stroke="#ffd283" stroke-width=".619" d="M318.09 373.79c1.155-.373 2.565-4.475 2.565-4.475 2.98-1.793 6.81-3.818 6.697-7.902-.26-1.576-1.97-3.68-.191-4.62 1.58-1.286 3.272-3.665 1.274-6.001-1.284-2.208 1.118-3.345 1.972-4.725 1.186-1.328.424-3.89-1.581-4.879-1.445-.66-2.38-1.987-2.45-3.404-.218-1.801-1.593-4.275-3.81-4.29-.644-.005-1.235.158-1.71.479-2.43 1.426-1.37 5.184-3.605 6.784-1.392 1.523-2.767 4.154-.87 6.462 1.049.589 1.056 1.828.161 2.164-1.846 1.542-2.319 4.575-.367 7.052.516.67 1.476 2.165.086 2.067-2.078.335-2.912 2.652-1.566 4.63 1.15 2.063 3.873 4.059 3.156 6.297l-2.059 3.347"/><path fill="#ffd283" d="M319.46 343.55c1.296.8 2.634 1.404 3.73 3.188l.053-.884c-1.15-1.263-2.479-1.756-3.783-2.304m3.227-8.277c.894 6.71.89 13.628-.006 20-.74-1.288-1.713-2.028-2.68-2.816.943 1.06 1.96 1.976 2.513 3.842-.675 4.238-1.761 8.201-3.263 11.66-.551 1.332-.869 2.562.649.352 1.567-3.586 2.575-7.287 3.176-10.909.889-1.732 1.996-2.748 3.066-3.878-.994.845-1.998 1.653-2.897 2.82a58.5 58.5 0 0 0 .607-7.774c.919-1.907 2.088-2.966 3.212-4.166-1.114.945-2.225 1.846-3.2 3.24-.013-4.979-.586-9.336-1.176-12.372z"/><path fill="#571927" stroke="#ffd283" stroke-width=".715" d="M345.93 328.2c1.203-.72 1.725-5.7 1.725-5.7 2.89-2.789 6.672-6.06 5.487-10.624-.701-1.707-3.17-3.63-1.413-5.149 1.443-1.856 2.732-4.972-.122-7.081-2.016-2.152.39-4.053.994-5.827.99-1.802-.531-4.486-3.044-5.08-1.796-.368-3.192-1.618-3.637-3.194-.714-1.97-2.901-4.396-5.398-3.838-.727.16-1.35.498-1.8.981-2.364 2.234-.198 6.188-2.299 8.567-1.17 2.074-2.035 5.39.696 7.495 1.334.39 1.663 1.783.743 2.392-1.677 2.214-1.423 5.749 1.415 8.03.755.621 2.222 2.053.633 2.303-2.252.916-2.589 3.739-.561 5.615 1.829 2.022 5.409 3.562 5.182 6.266l-1.449 4.299"/><path fill="#ffd283" d="M339.63 293.83c1.665.563 3.327.897 5.022 2.62l-.17-1.009c-1.62-1.122-3.242-1.332-4.852-1.611m1.485-10.149c2.745 7.318 4.535 15.101 5.177 22.503-1.166-1.257-2.453-1.837-3.745-2.473 1.336.948 2.717 1.714 3.823 3.671.339 4.942.145 9.683-.649 13.963-.274 1.643-.312 3.109.822.229.834-4.44 1.008-8.866.746-13.096.55-2.18 1.533-3.61 2.443-5.158-.9 1.208-1.82 2.378-2.527 3.924a67.5 67.5 0 0 0-1.333-8.904c.54-2.383 1.58-3.878 2.534-5.519-1.008 1.351-2.025 2.654-2.761 4.475-1.304-5.598-3.078-10.352-4.53-13.614z"/><path fill="#571927" stroke="#ffd283" stroke-width=".715" d="M362.69 298.68c.384-1.348 5.059-3.141 5.059-3.141 1.946-3.513 4.126-8.013 8.843-8.05 1.83.235 4.327 2.123 5.339.032 1.42-1.875 4.095-3.926 6.872-1.715 2.6 1.39 3.813-1.426 5.37-2.468 1.485-1.423 4.471-.648 5.695 1.625.821 1.64 2.39 2.665 4.026 2.687 2.088.18 4.998 1.665 5.105 4.22.034.744-.131 1.433-.482 1.994-1.546 2.861-5.925 1.792-7.68 4.437-1.7 1.667-4.68 3.36-7.42 1.268-.722-1.188-2.152-1.146-2.503-.1-1.704 2.194-5.184 2.863-8.122.713-.795-.569-2.558-1.615-2.389-.016-.301 2.412-2.94 3.468-5.277 1.996-2.427-1.243-4.841-4.303-7.394-3.385l-3.778 2.512"/><path fill="#ffd283" d="M397.52 295.88c-.975-1.462-1.727-2.981-3.83-4.173l1.018-.097c1.503 1.274 2.126 2.787 2.812 4.27m9.418-4.061c-7.78-.758-15.76-.472-23.076.823 1.516.801 2.41 1.894 3.358 2.978-1.262-1.046-2.359-2.18-4.535-2.743-4.862.952-9.39 2.367-13.32 4.24-1.515.691-2.921 1.107-.433-.734 4.073-1.955 8.303-3.268 12.457-4.11 1.963-1.096 3.09-2.414 4.35-3.694-.935 1.18-1.826 2.372-3.137 3.456a67.6 67.6 0 0 1 8.946-1.017c2.162-1.138 3.337-2.53 4.675-3.876-1.044 1.324-2.04 2.643-3.607 3.825 5.745-.19 10.796.294 14.322.852z"/><path fill="#571927" stroke="#ffd283" stroke-width=".619" d="M363.05 300.19c.676-1.008 5.007-1.237 5.007-1.237 2.542-2.375 5.54-5.5 9.437-4.272 1.445.684 2.998 2.906 4.39 1.453 1.67-1.166 4.423-2.14 6.12.422 1.772 1.84 3.524-.156 5.085-.6 1.603-.775 3.857.661 4.258 2.861.239 1.57 1.257 2.834 2.6 3.29 1.672.705 3.674 2.706 3.08 4.84-.172.622-.492 1.146-.93 1.514-2.038 1.945-5.361-.106-7.513 1.605-1.847.92-4.754 1.52-6.453-.937-.278-1.171-1.467-1.518-2.036-.75-1.99 1.352-5.036.974-6.882-1.583-.504-.68-1.677-2.014-1.965-.65-.892 1.906-3.35 2.072-4.881.234-1.668-1.672-2.84-4.838-5.189-4.763l-3.783 1.06"/><path fill="#ffd283" d="M392.5 307.18c-.413-1.465-.627-2.918-2.042-4.461l.865.191c.899 1.452 1.008 2.865 1.177 4.27m8.845-.83c-6.208-2.703-12.86-4.599-19.234-5.485 1.035 1.065 1.48 2.204 1.972 3.35-.76-1.199-1.362-2.427-3.005-3.471-4.26-.514-8.369-.558-12.107-.063-1.433.164-2.703.131-.16-.721 3.877-.523 7.713-.476 11.361-.06 1.91-.379 3.19-1.164 4.57-1.883-1.085.724-2.137 1.468-3.507 2.01 2.683.36 5.248.898 7.643 1.552 2.086-.36 3.425-1.194 4.887-1.945-1.213.812-2.386 1.633-3.994 2.188 4.785 1.378 8.817 3.126 11.574 4.527z"/><path fill="#571927" stroke="#ffd283" stroke-width=".715" d="M364.42 299.53c1.203-.72 1.725-5.7 1.725-5.7 2.89-2.789 6.672-6.06 5.487-10.625-.701-1.706-3.17-3.63-1.413-5.148 1.443-1.857 2.732-4.972-.122-7.082-2.016-2.151.39-4.052.994-5.826.99-1.802-.531-4.486-3.044-5.08-1.796-.368-3.192-1.618-3.637-3.194-.714-1.97-2.901-4.396-5.398-3.838-.727.16-1.35.498-1.8.981-2.364 2.234-.198 6.187-2.299 8.567-1.17 2.074-2.035 5.39.696 7.495 1.334.39 1.663 1.783.743 2.392-1.677 2.214-1.423 5.749 1.415 8.03.755.62 2.222 2.053.633 2.303-2.252.916-2.589 3.739-.561 5.615 1.829 2.022 5.409 3.562 5.182 6.266l-1.449 4.298"/><path fill="#ffd283" d="M358.11 265.16c1.665.563 3.327.897 5.022 2.62l-.17-1.009c-1.62-1.122-3.242-1.332-4.852-1.611m1.485-10.148c2.745 7.318 4.535 15.101 5.177 22.503-1.166-1.257-2.453-1.837-3.745-2.473 1.336.948 2.717 1.715 3.823 3.671.339 4.942.145 9.683-.649 13.963-.274 1.643-.312 3.109.822.229.834-4.44 1.008-8.866.746-13.096.55-2.18 1.533-3.61 2.443-5.158-.9 1.208-1.82 2.378-2.527 3.924a67.5 67.5 0 0 0-1.333-8.904c.54-2.383 1.58-3.878 2.534-5.519-1.009 1.351-2.025 2.654-2.761 4.475-1.304-5.599-3.079-10.352-4.53-13.614z"/><path fill="#571927" stroke="#ffd283" stroke-width=".619" d="M377.32 287.8c1.149-.392 2.491-4.516 2.491-4.516 2.952-1.841 6.747-3.928 6.569-8.01-.287-1.572-2.03-3.648-.267-4.617 1.558-1.312 3.212-3.718 1.175-6.02-1.319-2.188 1.064-3.363 1.896-4.757 1.164-1.348.36-3.896-1.661-4.853-1.455-.637-2.412-1.948-2.505-3.363-.248-1.798-1.663-4.249-3.879-4.227-.644.004-1.233.178-1.702.506-2.406 1.465-1.285 5.206-3.495 6.842-1.366 1.545-2.698 4.198-.765 6.475 1.06.572 1.087 1.81.198 2.16-1.82 1.573-2.244 4.613-.253 7.058.527.663 1.512 2.141.12 2.066-2.072.369-2.868 2.699-1.49 4.655 1.184 2.043 3.939 3.995 3.258 6.244l-2.004 3.38"/><path fill="#ffd283" d="M378.19 257.54c1.309.778 2.656 1.36 3.78 3.127l.04-.885c-1.17-1.244-2.507-1.715-3.82-2.242zm3.092-8.329c1.003 6.696 1.113 13.612.32 19.998-.761-1.275-1.747-2-2.726-2.771.96 1.045 1.991 1.943 2.575 3.8-.606 4.248-1.627 8.229-3.073 11.711-.53 1.342-.826 2.577.655.342 1.509-3.61 2.456-7.328 2.998-10.959.86-1.746 1.95-2.78 3.002-3.927-.98.861-1.97 1.685-2.85 2.868.348-2.684.492-5.301.48-7.784.887-1.922 2.04-3 3.144-4.217-1.099.962-2.195 1.882-3.148 3.291-.093-4.978-.737-9.325-1.377-12.35z"/><g fill="#571927" stroke="#ffd283"><path stroke-width=".4" d="M359.83 315.27c1.682-2.673 1.909-2.742 7.982-4.863l-1.086-2.165c-5.399 2.127-8.825 3.723-8.933 4.636"/><path stroke-width=".599" d="M370.97 311.49c-1.922-2.184-3.38-4.555-4.54-7.061 3.416-1.121 8.763-4.726 11.078-1.218 1.76 4.203-4.215 6.266-6.538 8.279z"/><path stroke-width=".4" d="M371.16 311.8c-1.893 2.319-5.504 2.824-8.117-.756-1.528-2.989-1.338-6.291 3.302-6.909 1.266 2.829 2.891 5.345 4.815 7.665z"/></g><g fill="none" stroke="#ffd283" stroke-width=".2"><path d="m368.28 313.55 1.891-2.877-7.264.216"/><path d="M366.23 313.42c1.437-1.225 2.208-2.56 3.14-3.86-2.118-.081-4.405.047-6.786.292"/><path d="M364.97 312.82c1.375-1.332 2.441-2.979 3.513-4.616-2.021-.066-4.094.124-6.206.446"/><path d="M363.92 312.02c1.355-1.627 2.52-3.437 3.728-5.217-1.61-.191-3.466.1-5.389.533"/><path d="M363.18 311.21c1.188-2.07 2.498-3.92 3.755-5.821l-3.966.287M371.12 311.74c-2.6.104-5.066.039-7.517-.059M370.26 312.69c-1.962.169-3.915-.08-5.87-.259"/><path d="M362.72 310.19c1.173-1.963 2.17-3.957 3.687-5.86M365.1 304.43c-1.128 1.469-2.01 2.972-2.76 4.51"/></g><path fill="#571927" stroke="#ffd283" stroke-width=".715" d="M342.73 336.11c1.225.682 5.799-1.356 5.799-1.356 3.86 1.108 8.584 2.748 11.945-.56 1.126-1.461 1.558-4.562 3.752-3.798 2.33.321 5.671-.12 6.071-3.647.856-2.822 3.705-1.688 5.543-2.052 2.056-.044 3.62-2.704 2.877-5.176-.578-1.74-.194-3.574.948-4.748 1.349-1.602 2.356-4.71.625-6.593-.502-.55-1.106-.92-1.75-1.07-3.117-.93-5.457 2.924-8.568 2.294-2.382.024-5.686.932-6.143 4.35.328 1.35-.713 2.332-1.7 1.84-2.756-.345-5.69 1.642-6.247 5.24-.16.964-.667 2.951-1.678 1.7-1.919-1.492-4.532-.373-5.143 2.32-.837 2.596-.38 6.466-2.835 7.622l-4.447.895"/><path fill="#ffd283" d="M369.34 313.47c.345 1.724.887 3.33.242 5.66l.79-.652c.16-1.965-.469-3.474-1.032-5.008m9.531-3.788c-4.965 6.036-10.81 11.477-16.899 15.735.506-1.639.365-3.043.27-4.48-.154 1.631-.127 3.21-1.268 5.146-4.11 2.765-8.313 4.967-12.417 6.42-1.56.583-2.849 1.283.213.826 4.262-1.498 8.181-3.56 11.715-5.903 2.162-.612 3.892-.477 5.687-.462-1.495-.175-2.968-.387-4.661-.227a67.5 67.5 0 0 0 7.044-5.606c2.334-.725 4.15-.57 6.047-.565-1.674-.198-3.31-.427-5.256-.154 4.196-3.929 7.426-7.842 9.525-10.73"/><path fill="#571927" stroke="#ffd283" stroke-width=".619" d="M326.26 388.17c1.187.254 4.459-2.593 4.459-2.593 3.478-.062 7.806.099 9.75-3.494.564-1.496.135-4.173 2.145-4.097 2.011-.325 4.667-1.538 4.104-4.56-.007-2.555 2.64-2.338 4.07-3.106 1.692-.558 2.312-3.157 1.07-5.016-.92-1.295-1.067-2.911-.419-4.173.711-1.67.758-4.499-1.154-5.62-.555-.327-1.15-.48-1.72-.44-2.818.02-3.78 3.804-6.515 4.072-1.967.623-4.473 2.214-3.985 5.16.615 1.036 0 2.112-.941 1.956-2.37.412-4.297 2.802-3.845 5.923.112.84.196 2.614-.959 1.834-1.967-.75-3.848.84-3.67 3.227-.036 2.361 1.324 5.451-.416 7.03l-3.456 1.87"/><path fill="#ffd283" d="M342.56 362.66c.723 1.34 1.579 2.533 1.636 4.626l.488-.74c-.364-1.668-1.268-2.759-2.124-3.886m6.933-5.555c-2.581 6.26-6.042 12.247-10.006 17.318.005-1.485-.47-2.613-.913-3.778.287 1.39.71 2.69.256 4.584-2.704 3.331-5.626 6.221-8.656 8.465-1.144.879-2.034 1.786.386.63 3.15-2.321 5.873-5.023 8.205-7.86 1.636-1.055 3.102-1.381 4.593-1.825-1.283.235-2.556.432-3.918.995a58.5 58.5 0 0 0 4.413-6.43c1.749-1.192 3.291-1.525 4.864-2.001-1.437.26-2.85.486-4.392 1.205 2.48-4.318 4.162-8.378 5.168-11.302z"/><path fill="#571927" stroke="#ffd283" stroke-width=".399" d="M352.42 455.62c-1.313-2.719 2.082-5.46 2.43-7.099.772-3.631.896-6.38 2.583-9.506 1.494-2.774 4.237-6.285 6.495-8.452 1.737-1.663 4.87-3.952 7.004-5.15 1.126-.64 2.73-1.494 3.482-2.503.422-.53.784-1.494.784-1.494s.752 1.738.86 2.803c.26 2.408-.292 5.425-.886 7.532-.604 2.078-1.828 4.634-3.06 6.319-2.202 3.024-6.085 6.29-9.104 8.575-1.444 1.102-3.753 2.15-5.26 3.194-.943.659-1.412 1.494-2.086 2.416-.699.967-1.112 5.174-1.112 5.174"/><path fill="#ffd283" d="M355.08 450.19c2.234-2.482 2.526-4.764 4.757-7.008 1.96-2.012 6.501-5.073 8.273-7.24 1.718-2.61 2.603-4.603 3.747-7.438-1.048 7.02-4.363 9-9.169 13.213-3.308 2.217-4.26 6.383-7.244 9.207-1.125 2.08-1.63 1.475-.364-.734z"/><path fill="#571927" stroke="#ffd283" stroke-width=".376" d="M350.01 447.06c-2.77-.678-2.727-4.799-3.71-6.037-2.182-2.746-4.11-4.488-5.373-7.597-1.123-2.755-2.032-6.864-2.254-9.812-.167-2.265.049-5.923.458-8.198.212-1.205.553-2.886.271-4.041-.134-.627-.617-1.47-.617-1.47s1.717.498 2.557 1.06c1.911 1.258 3.778 3.473 4.955 5.172 1.151 1.69 2.278 4.117 2.765 6.027.879 3.423.924 8.215.774 11.787-.065 1.715-.689 4.027-.835 5.753-.087 1.082.24 1.926.506 2.97.284 1.091 3.1 3.922 3.1 3.922"/><path fill="#ffd283" d="M347.66 441.86c-.465-3.12-1.952-4.703-2.246-7.678-.288-2.637.212-7.786-.301-10.38-.869-2.82-1.789-4.663-3.167-7.2 4.485 4.983 3.935 8.59 4.115 14.622-.374 3.743 2.089 6.942 2.352 10.812.84 2.07.095 2.074-.753-.175z"/><path fill="#571927" stroke="#ffd283" stroke-linejoin="bevel" stroke-width=".715" d="M337.6 433.72s5.343 3.438 9.326 8.836 8.405 5.785 12.491 10.004.965 4.08 5.346 8.324c4.381 4.245 10.748 9.554 10.748 9.554s-.17 5.332-.66 10.932-5.003 9.662-5.003 9.662-2.918-7.385-4.146-13.73c-1.227-6.344-3.267-11.706-7.97-15.681-4.7-3.976-19.985-16.006-22.546-20.686s-10.594-11.323-10.594-11.323l10.14-3.866z"/><path fill="#571927" stroke="#ffd283" stroke-width=".477" d="M345.77 446.72c-1.53-3.27-6.636-2.193-8.418-3.107-3.95-2.027-6.594-3.987-10.767-4.784-3.7-.709-9.028-.817-12.743-.36-2.854.356-7.343 1.532-10.066 2.607-1.443.561-3.446 1.403-4.95 1.34-.811-.011-1.978-.402-1.978-.402s1.044 2.009 1.95 2.913c2.037 2.06 5.252 3.827 7.654 4.867 2.383 1.009 5.678 1.805 8.17 1.935 4.468.24 10.43-.894 14.828-1.968 2.113-.507 4.83-1.856 6.936-2.467 1.322-.376 2.45-.18 3.815-.109 1.424.082 5.638 2.876 5.638 2.876"/><path fill="#ffd283" d="M338.73 445.09c-3.989.197-6.325-1.255-10.091-.88-3.346.297-9.614 2.197-12.963 2.204-3.717-.378-6.234-1.062-9.727-2.142 7.302 4.33 11.642 2.75 19.177 1.475 4.555-1.394 9.138.87 14.01.235 2.779.528 2.598-.398-.406-.892z"/><path fill="#571927" stroke="#ffd283" stroke-width=".395" d="M352.8 453.43c-1.954-2.412-5.12.126-6.587-.128-3.25-.561-5.594-1.47-8.652-.877-2.712.524-6.36 2.084-8.757 3.64-1.839 1.201-4.559 3.634-6.11 5.429-.822.944-1.948 2.308-2.987 2.72-.554.243-1.456.26-1.456.26s1.271 1.449 2.14 1.965c1.96 1.185 4.637 1.747 6.56 1.918 1.9.15 4.36-.17 6.09-.83 3.103-1.175 6.835-4.029 9.523-6.343 1.293-1.104 2.762-3.138 4.022-4.332.793-.742 1.615-.92 2.56-1.28.991-.371 4.635.785 4.635.785"/><path fill="#ffd283" d="M347.56 454.18c-2.655 1.413-4.648.857-7.101 2.358-2.19 1.302-5.917 4.926-8.19 5.973-2.63.82-4.531.999-7.206 1.13 6.17 1.554 8.678-1.188 13.44-4.655 2.704-2.645 6.45-2.071 9.582-4.145 2.035-.397 1.654-1.158-.525-.661"/><path fill="#571927" stroke="#ffd283" stroke-width=".477" d="M349.66 447.43c-2.318-2.769.817-6.941.741-8.943-.167-4.437-.826-7.66.216-11.78.92-3.653 3.075-8.527 5.059-11.7 1.528-2.437 4.491-6.008 6.616-8.023 1.12-1.07 2.728-2.53 3.306-3.92.334-.739.472-1.961.472-1.961s1.38 1.795 1.816 2.998c1.006 2.717 1.25 6.377 1.176 8.994-.092 2.586-.763 5.908-1.699 8.222-1.67 4.151-5.218 9.075-8.05 12.607-1.352 1.7-3.723 3.593-5.166 5.244-.9 1.039-1.2 2.145-1.711 3.41-.528 1.326.223 6.326.223 6.326"/><path fill="#ffd283" d="M351.16 440.36c1.865-3.532 1.535-6.263 3.467-9.518 1.684-2.907 6.055-7.785 7.476-10.817 1.229-3.528 1.672-6.098 2.17-9.72.838 8.447-2.428 11.713-6.768 18.003-3.188 3.54-3.074 8.65-5.708 12.796-.696 2.742-1.459 2.187-.637-.744z"/><path fill="#571927" stroke="#ffd283" stroke-width=".477" d="M363.81 461.9c-2.139-7.473-.855-4.814-1.18-12.271l-1.868-.014c.54 6.721-1.479 2.504.226 8.543"/><path fill="#571927" stroke="#ffd283" stroke-width=".715" d="M366.23 447.49c-.16 2.394-2.08 4.238-4.32 4.105-2.216-.157-3.911-2.221-3.754-4.635.156-2.413 2.589-5.948 4.823-5.795 2.222.138 3.412 3.912 3.251 6.325z"/><path fill="#ffd283" d="M369.49 473.03c1.736-1.695 3.707-.845 3.535 1.518-.246 3.685-1.587 8.265-2.405 8.042-.818-.207-2.83-6.422-2.498-7.775.11-.415.716-1.244 1.368-1.785M368.96 468.59s-5.714 3.142-3.279 9.653c2.436 6.51-1.27-7.07 3.279-9.653"/><path fill="#571927" stroke="#ffd283" stroke-linejoin="bevel" stroke-width=".715" d="M244.24 428.37s-7.101 10.396-12.828 12.02c-6.454 1.83-5.782 7.344-10.587 10.722s-2.965.927-8.064 4.275-12.349 7.37-12.349 7.37-.833 5.27-1.401 10.862c-.569 5.594 3.104 10.428 3.104 10.428s4.25-6.706 6.645-12.709 6.657-7.987 12.02-11.01 17.861-13.47 21.254-17.587 13.514-16.592 13.514-16.592l-6.571-.199z"/><path fill="#ffd283" d="M205.98 465.88c-1.387-1.99-3.483-1.525-3.756.829-.45 3.666.009 8.416.854 8.35.842-.05 3.983-5.778 3.91-7.169-.03-.428-.47-1.357-1.008-2.01M207.33 461.61s5.024 4.157 1.411 10.096c-3.612 5.94 2.573-6.706-1.411-10.096"/><path fill="#571927" stroke="#ffd283" stroke-width=".619" d="M229.49 449.5c.878-.838 5.156-.126 5.156-.126 2.996-1.77 6.598-4.174 10.137-2.132 1.263.98 2.3 3.484 3.973 2.367 1.883-.777 4.781-1.135 5.885 1.734 1.332 2.18 3.474.608 5.094.513 1.733-.41 3.623 1.479 3.539 3.713-.106 1.585.616 3.038 1.828 3.774 1.48 1.05 3.002 3.436 1.96 5.391-.3.57-.726 1.013-1.234 1.278-2.41 1.458-5.211-1.262-7.682-.057-2.002.5-4.97.457-6.098-2.309-.018-1.203-1.105-1.8-1.826-1.172-2.235.89-5.128-.137-6.378-3.032-.344-.773-1.202-2.329-1.777-1.06-1.284 1.67-3.718 1.3-4.817-.825-1.267-1.994-1.727-5.338-4.037-5.772l-3.923.219"/><path fill="#ffd283" d="M256.73 462.69c-.087-1.52.019-2.984-1.03-4.797l.804.374c.563 1.612.364 3.015.226 4.423m8.816 1.1c-5.478-3.98-11.563-7.268-17.595-9.51.78 1.263.968 2.471 1.201 3.697-.484-1.335-.805-2.664-2.184-4.039-4.048-1.422-8.05-2.353-11.808-2.677-1.434-.15-2.667-.456 0-.739 3.899.327 7.634 1.203 11.106 2.397 1.947.042 3.367-.448 4.87-.851-1.216.472-2.405.97-3.86 1.205 2.542.93 4.93 2.01 7.128 3.166 2.114.099 3.602-.426 5.192-.844-1.36.53-2.683 1.08-4.373 1.274 4.374 2.38 7.934 4.957 10.322 6.92z"/><path fill="#571927" stroke="#ffd283" stroke-width=".619" d="M224.53 447.3c.078-1.212-3.218-4.031-3.218-4.031-.57-3.432-1.043-7.737-4.882-9.136-1.562-.338-4.148.478-4.367-1.521-.615-1.942-2.204-4.392-5.111-3.393-2.526.38-2.7-2.27-3.668-3.573-.799-1.591-3.46-1.825-5.119-.324-1.146 1.1-2.723 1.481-4.066 1.024-1.755-.459-4.561-.09-5.39 1.965-.243.596-.309 1.207-.185 1.766.432 2.784 4.316 3.181 4.981 5.849.904 1.854 2.845 4.1 5.688 3.187.934-.76 2.09-.31 2.072.645.755 2.284 3.401 3.84 6.422 2.937.814-.233 2.557-.576 1.955.68-.454 2.056 1.394 3.684 3.728 3.16 2.342-.31 5.2-2.108 7.017-.618l2.354 3.146"/><path fill="#ffd283" d="M196.92 434.91c1.22-.91 2.274-1.932 4.337-2.295l-.803-.375c-1.597.605-2.544 1.659-3.534 2.67m-6.51-6.046c6.57 1.638 13 4.186 18.596 7.365-1.47.214-2.516.847-3.605 1.456 1.334-.487 2.559-1.096 4.498-.923 3.691 2.187 6.977 4.655 9.64 7.324 1.037 1.003 2.064 1.75.567-.474-2.757-2.777-5.829-5.075-8.975-6.967-1.284-1.464-1.82-2.867-2.478-4.277.42 1.235.802 2.466 1.557 3.73a58.5 58.5 0 0 0-7.006-3.424c-1.435-1.556-1.99-3.033-2.691-4.52.468 1.384.897 2.749 1.835 4.169-4.635-1.821-8.897-2.891-11.937-3.46z"/><path fill="#571927" stroke="#ffd283" stroke-width=".715" d="M224.57 450.85c.915-1.062-.159-5.953-.159-5.953 1.863-3.557 4.423-7.853 1.86-11.813-1.204-1.398-4.154-2.446-2.964-4.44.785-2.217 1.026-5.58-2.348-6.683-2.591-1.407-.906-3.97-.892-5.843.371-2.022-1.918-4.09-4.49-3.861-1.82.215-3.539-.53-4.458-1.886-1.298-1.644-4.139-3.258-6.333-1.941-.639.38-1.124.897-1.4 1.498-1.538 2.865 1.763 5.934.52 8.855-.458 2.337-.234 5.756 3.021 6.894 1.39-.05 2.14 1.168 1.46 2.036-.894 2.63.46 5.904 3.872 7.175.912.351 2.757 1.248 1.327 1.986-1.848 1.579-1.279 4.364 1.237 5.505 2.373 1.344 6.255 1.677 6.893 4.314l-.02 4.536"/><path fill="#ffd283" d="M207.76 420.22c1.758.01 3.44-.197 5.592.904l-.479-.904c-1.891-.555-3.497-.243-5.113 0m-1.789-10.099c4.912 6.08 9.062 12.902 12.004 19.725-1.503-.826-2.907-.97-4.333-1.167 1.567.48 3.119.771 4.785 2.28 1.879 4.583 3.188 9.143 3.784 13.456.257 1.645.683 3.048.852-.042-.608-4.477-1.838-8.732-3.42-12.664-.163-2.242.318-3.908.694-5.665-.472 1.43-.977 2.83-1.162 4.52a67.5 67.5 0 0 0-4.07-8.03c-.24-2.432.278-4.178.666-6.036-.532 1.6-1.086 3.156-1.211 5.117-3.002-4.903-6.184-8.855-8.589-11.493z"/><path fill="#571927" stroke="#ffd283" stroke-width=".715" d="M225.83 451.2c.346-1.358 4.97-3.28 4.97-3.28 1.848-3.566 3.902-8.125 8.616-8.293 1.836.185 4.385 2.003 5.338-.116 1.367-1.913 3.985-4.037 6.822-1.904 2.637 1.318 3.772-1.532 5.3-2.617 1.444-1.463 4.45-.77 5.737 1.468.866 1.616 2.462 2.597 4.1 2.574 2.091.12 5.041 1.525 5.22 4.077.054.742-.092 1.435-.427 2.006-1.466 2.903-5.873 1.955-7.554 4.648-1.654 1.714-4.585 3.49-7.382 1.473-.755-1.167-2.183-1.085-2.505-.03-1.643 2.24-5.103 3.006-8.1.938-.81-.546-2.602-1.544-2.387.05-.235 2.42-2.844 3.549-5.22 2.142-2.461-1.176-4.96-4.167-7.486-3.179l-3.706 2.616"/><path fill="#ffd283" d="M260.56 447.43c-1.015-1.435-1.81-2.932-3.945-4.065l1.015-.126c1.539 1.233 2.203 2.728 2.93 4.191m9.302-4.32c-7.798-.542-15.767-.035-23.044 1.462 1.538.759 2.461 1.827 3.44 2.883-1.291-1.01-2.42-2.114-4.61-2.615-4.834 1.086-9.321 2.626-13.196 4.608-1.496.732-2.89 1.187-.454-.722 4.017-2.067 8.209-3.497 12.338-4.454 1.931-1.15 3.021-2.5 4.245-3.814-.901 1.207-1.759 2.422-3.04 3.542a68 68 0 0 1 8.915-1.265c2.13-1.197 3.265-2.622 4.565-4.004-1.006 1.352-1.964 2.698-3.5 3.924 5.738-.349 10.8-.005 14.342.454z"/><path fill="#571927" stroke="#ffd283" stroke-width=".619" d="M231.14 443.45c1.088-.538 1.882-4.802 1.882-4.802 2.687-2.21 6.179-4.773 5.47-8.796-.488-1.522-2.487-3.353-.865-4.543 1.374-1.504 2.702-4.105.383-6.123-1.593-1.997.617-3.472 1.26-4.962.979-1.488-.15-3.91-2.278-4.596-1.526-.442-2.645-1.617-2.92-3.009-.481-1.75-2.203-3.996-4.397-3.686-.639.088-1.2.337-1.622.723-2.195 1.766-.597 5.33-2.575 7.239-1.154 1.71-2.129 4.513.084 6.52 1.125.429 1.313 1.653.477 2.116-1.6 1.796-1.625 4.866.668 7.03.609.589 1.777 1.927.388 2.033-2.007.635-2.493 3.05-.872 4.81 1.44 1.872 4.425 3.448 4.043 5.766l-1.547 3.612"/><path fill="#ffd283" d="M228.07 413.34c1.399.601 2.81 1.003 4.156 2.609l-.077-.883c-1.322-1.081-2.708-1.374-4.079-1.726m1.982-8.66c1.866 6.508 2.874 13.35 2.919 19.786-.92-1.166-1.992-1.756-3.063-2.394 1.088.911 2.227 1.668 3.048 3.434-.049 4.29-.543 8.37-1.523 12.01-.35 1.4-.484 2.663.694.255 1.026-3.777 1.48-7.586 1.546-11.256.626-1.844 1.572-3.01 2.465-4.285-.86.981-1.735 1.927-2.452 3.214a58.5 58.5 0 0 0-.537-7.78c.63-2.02 1.632-3.24 2.568-4.59-.964 1.097-1.931 2.151-2.693 3.673-.74-4.924-1.944-9.15-2.972-12.067z"/><g fill="#571927" stroke="#ffd283"><path stroke-width=".477" d="M225.32 455.75c3.633.995 3.79 1.23 8.313 7.428l2.095-1.988c-4.296-5.427-7.303-8.785-8.382-8.592"/><path stroke-width=".715" d="M233.5 467.16c1.829-2.95 4.03-5.435 6.49-7.625 2.46 3.51 8.426 8.367 5.223 12.224-4.188 3.464-8.612-2.644-11.713-4.599z"/><path stroke-width=".477" d="M233.21 467.48c-3.302-1.359-5.128-5.306-1.945-9.527 2.882-2.779 6.717-3.704 9.028 1.379-2.79 2.423-5.1 5.15-7.083 8.148z"/></g><g fill="none" stroke="#ffd283" stroke-width=".238"><path d="m230.21 464.83 3.938 1.163-2.76-8.216"/><path d="M229.65 462.42c1.896 1.217 3.686 1.635 5.493 2.249-.64-2.446-1.578-5.012-2.682-7.646"/><path d="M229.9 460.77c1.996 1.109 4.245 1.756 6.484 2.413-.623-2.33-1.558-4.63-2.656-6.93"/><path d="M230.45 459.3c2.326.984 4.796 1.688 7.245 2.45-.339-1.903-1.313-3.922-2.474-5.966"/><path d="M231.11 458.17c2.775.64 5.339 1.495 7.944 2.272l-1.7-4.427M233.26 467.42c-1.019-2.933-1.797-5.77-2.534-8.6M231.88 466.76c-.871-2.181-1.264-4.497-1.736-6.79"/><path d="M232.13 457.3c2.646.66 5.267 1.108 7.964 2.181M239.53 458.02c-2.067-.78-4.088-1.266-6.103-1.59"/></g><g fill="#571927" stroke="#ffd283" stroke-width=".715"><path d="M282.83 290.8h12.587v27.16H282.83zM289.37 240.44l8.352 18.453-5.108 11.428h-6.264l-6.115-11.428zM284.96 270.66h8.33c1.498 0 2.71 1.316 2.71 2.965 0 1.625-1.208 2.945-2.71 2.945h-8.33c-1.499 0-2.71-1.32-2.71-2.945 0-1.649 1.207-2.965 2.71-2.965z"/><path d="M317.81 253.54s13.296 10.113 13.24 28.578c-.056 18.466-13.24 28.779-13.24 28.779s1.864-11.526-6.294-17.713c-8.158-6.182-21.632-7.006-21.632-7.006-8.49-.328-22.08 5.727-22.08 5.727l-16.809-9.605 16.808-9.587s13.08 6.477 22.081 6.636c0 0 13.605-2.028 21.632-8.49 8.028-6.426 6.294-17.32 6.294-17.32z"/><path d="M281.99 278.49v9.273c0 1.41-1.063 2.562-2.375 2.562-1.324 0-2.375-1.157-2.375-2.562v-9.273c0-1.41 1.048-2.543 2.375-2.543 1.312 0 2.375 1.133 2.375 2.543z"/></g><path fill="#ffd283" d="m275.57 282.92-7.084 4.543-6.6-4.543z"/><path fill="#571927" stroke="#ffd283" stroke-width=".715" d="M282.76 273.83h12.729c1.514 0 2.722 1.316 2.722 2.941v12.715c0 1.649-1.208 2.965-2.722 2.965H282.76c-1.514 0-2.722-1.316-2.722-2.965v-12.715c-.004-1.625 1.208-2.941 2.722-2.941z"/><g fill="#ffd283"><path d="M287.26 290.15h7.718v-9.217c-1.689 4.791-4.66 8.013-7.718 9.217M317.33 302.22s11.046-10.311 6.693-31.161c6.186 21.309-6.006 32.751-6.006 32.751zM287.67 250.43v17.852l-4.543-9.242z"/></g><g fill="#571927" stroke="#ffd283"><path stroke-width="1.43" d="M314.1 497.28V307.26c-6.828-5.489-14.191-6.902-24.939-7.147-10.748-.242-17.453 2.145-24.991 7.147v190.02"/><g stroke-width=".715"><path d="M269.15 304.45v187.27M275.24 301.81v188.15M281.47 300.54v188.15M290.41 300.21v188.15M303.94 302v188.15M309.17 304.1v188.15M296.87 300.68v188.15M313.75 476.53c-2.266-4.054-6.076-8.05-10.324-11.354-4.276-3.324-11.814-8.857-16.964-12.298-5.014-3.367-16.198-9.875-22.044-7.897v-10.976c8.111-1.206 25.442 11.463 27.984 12.837 8.971 6.325 14.286 11.385 21.373 19.63z"/><path d="M264.45 476.53c2.266-4.054 6.077-8.05 10.31-11.354 4.29-3.324 11.814-8.857 16.964-12.298 5.014-3.367 16.198-9.875 22.058-7.897v-10.976c-8.125-1.206-25.456 11.463-27.998 12.837-8.971 6.325-14.272 11.385-21.359 19.63z"/><path d="M264.45 476.53c3.374-2.837 8.111-4.573 12.387-5.443 4.276-.866 9.342-1.736 13.849-1.627 4.507.121 7.1.44 10.926 1.752 3.825 1.295 8.003 2.481 10.024 3.902 2.02 1.416 2.143 1.736 2.143 1.736v-10.976s-2.486-1.08-4.507-1.74c-2.034-.656-5.803-2.162-8.618-2.544-2.786-.382-6.475-1.143-12.552-.929-6.09.211-13.754 1.631-17.345 2.938-3.604 1.296-6.339 2.868-6.339 2.868z"/></g></g><g fill="#ffd283" stroke-width="3.693"><path d="m313.74 473.9.07-1.998s-3.416-2.684-8.36-4.221c-4.93-1.542-7.32-1.464-7.32-1.464s1.912.383 3.824 1.007c1.912.609 6.132 2.91 6.923 3.367.793.472 5.013 3.383 4.863 3.309M270.25 463.61c1.829-2.302 9-7.835 9-7.835s-3.032 2.989-3.99 4.222c-.954 1.237-1.979 2.837-1.979 2.837zM291.35 454.6c1.692.246 2.664.152 4.44 1.405 1.734 1.22 2.185 1.385 3.045 3.336-1.433-1.432-3.115-2.497-3.716-2.958-.573-.456-3.77-1.783-3.77-1.783M295.38 453.84c1.626.457 3.566.718 5.164 2.181 1.542 1.432 1.654 2.497 2.241 4.542-1.23-1.6-2.43-3.719-2.95-4.253-.522-.52-4.455-2.47-4.455-2.47"/></g><g fill="#571927" stroke="#ffd283" stroke-width=".715"><path d="M313.66 374.49c-2.266-3.997-6.076-7.936-10.31-11.179-4.29-3.293-11.828-8.732-16.964-12.144-5.014-3.32-16.212-9.736-22.058-7.782v-10.821c8.125-1.189 25.456 11.298 27.984 12.652 8.985 6.25 14.286 11.225 21.373 19.369z"/><path d="M264.35 374.75c2.266-3.997 6.077-7.936 10.324-11.183 4.276-3.274 11.814-8.728 16.95-12.14 5.028-3.32 16.212-9.736 22.058-7.786v-10.82c-8.111-1.19-25.442 11.301-27.984 12.667-8.971 6.24-14.286 11.213-21.373 19.357z"/><path d="M264.35 338.57c3.388-2.797 8.111-5.243 12.387-6.116 4.29-.854 9.356-1.712 13.863-1.593 4.493.108 7.087.423 10.926 1.716 3.825 1.277 7.989 2.466 10.01 3.847 2.035 1.396 2.143 1.711 2.143 1.711v-10.82s-2.472-1.066-4.506-1.713c-2.021-.63-5.79-2.135-8.619-2.508-2.786-.377-6.475-1.127-12.552-.915-6.076.227-13.74 1.608-17.345 2.896-3.604 1.281-6.338 2.843-6.338 2.843z"/></g><g fill="#ffd283" stroke-width="3.667"><path d="M267.29 336.69c2.416 0 7.989 1.985 7.989 1.985-.846-1.292-3.552-2.57-6.636-3.158zM264.41 340.49c2.43 0 8.003 1.985 8.003 1.985-.846-1.292-4.727-2.735-7.825-3.32zM270.05 331.96s4.643-1.881 10.038-3.008c5.395-1.143 11.541-1.547 11.541-1.547s-6.541-.9-11.936.227c-5.395 1.139-9.643 4.328-9.643 4.328z"/></g><g fill="#571927" stroke="#ffd283"><path stroke-width="1.43" d="M289.17 488.38c-13.779 0-24.991 3.824-24.991 8.537 0 4.694 11.212 8.518 24.991 8.518s24.939-3.824 24.939-8.518c-.005-4.713-11.16-8.537-24.939-8.537z"/><g stroke-width=".715"><path d="M305.56 497.15a15.66 3.687 0 0 1-15.66 3.687 15.66 3.687 0 0 1-15.66-3.687 15.66 3.687 0 0 1 15.66-3.687 15.66 3.687 0 0 1 15.66 3.687z"/><path d="M283.69 494.04s3.15-.474 6.298-.474c3.139 0 6.286.474 6.286.474v18.087h-12.588V494.04z"/><path d="M281.6 508.62c1.2-1.946 3.997-2.428 7.995-2.428s6.19.587 7.982 2.428v25.361c0 2.2-3.985 5.47-7.982 5.47s-7.995-3.274-7.995-5.47z"/><path d="M289.59 530.89c-3.306 0-6.602 2.262-7.644 4.28 1.042 2.024 4.335 4.286 7.644 4.286s6.59-2.247 7.632-4.285c-1.042-2.019-4.326-4.281-7.632-4.281z"/></g><path stroke-width=".469" d="M246.33 383.86c-3.534.37-5.217-4.482-6.892-5.521-3.714-2.303-6.708-3.537-9.498-6.652-2.476-2.76-5.27-7.198-6.77-10.562-1.149-2.587-2.434-6.969-2.911-9.81-.259-1.503-.566-3.618-1.382-4.855-.42-.678-1.343-1.463-1.343-1.463s2.224-.14 3.446.166c2.771.672 5.893 2.486 7.989 3.984 2.06 1.497 4.403 3.871 5.778 5.907 2.47 3.645 4.538 9.248 5.866 13.502.644 2.039.885 5.014 1.44 7.1.353 1.306 1.091 2.158 1.843 3.272.792 1.16 5.286 3.295 5.286 3.295"/></g><path fill="#ffd283" d="M241.38 378.76c-1.858-3.464-4.269-4.696-5.864-8.062-1.447-2.973-3.026-9.223-4.72-12.05-2.204-2.942-4.058-4.718-6.742-7.115 7.357 3.96 8.228 8.421 10.977 15.422 1.136 4.548 5.37 7.264 7.307 11.694 1.856 2.076.984 2.393-.958.111z"/><path fill="#571927" stroke="#ffd283" stroke-width=".469" d="M235.94 333.04c-.04-3.553-5.055-4.664-6.28-6.209-2.717-3.423-4.288-6.254-7.704-8.665-3.028-2.141-7.759-4.404-11.273-5.506-2.702-.842-7.204-1.613-10.081-1.758-1.522-.083-3.659-.144-4.981-.812-.723-.34-1.61-1.165-1.61-1.165s.12 2.225.564 3.404c.988 2.675 3.15 5.566 4.88 7.475 1.725 1.873 4.354 3.926 6.535 5.057 3.906 2.033 9.71 3.44 14.089 4.267 2.1.405 5.082.3 7.218.61 1.338.2 2.27.836 3.463 1.454 1.243.653 3.884 4.87 3.884 4.87"/><path fill="#ffd283" d="M230.3 328.72c-3.655-1.446-5.158-3.698-8.685-4.893-3.12-1.095-9.51-1.941-12.514-3.297-3.178-1.85-5.155-3.487-7.846-5.876 4.782 6.85 9.315 7.2 16.586 9.122 4.649.603 7.836 4.496 12.459 5.908 2.276 1.604 2.49.7 0-.964z"/><path fill="#571927" stroke="#ffd283" stroke-width=".469" d="M216.26 304.36c-.04-3.553-5.055-4.664-6.28-6.209-2.717-3.423-4.288-6.254-7.704-8.665-3.028-2.141-7.759-4.404-11.273-5.506-2.702-.842-7.204-1.613-10.081-1.758-1.522-.083-3.659-.144-4.981-.812-.723-.34-1.61-1.165-1.61-1.165s.12 2.225.564 3.404c.988 2.675 3.15 5.566 4.88 7.475 1.725 1.873 4.354 3.926 6.535 5.057 3.906 2.033 9.71 3.44 14.089 4.267 2.1.405 5.082.3 7.218.61 1.338.2 2.27.836 3.463 1.454 1.243.653 3.884 4.87 3.884 4.87"/><path fill="#ffd283" d="M210.61 300.03c-3.655-1.446-5.158-3.698-8.685-4.893-3.12-1.095-9.51-1.941-12.514-3.297-3.178-1.85-5.155-3.487-7.846-5.876 4.782 6.85 9.315 7.2 16.586 9.122 4.649.603 7.836 4.496 12.459 5.908 2.276 1.603 2.49.7 0-.964z"/><path fill="#571927" stroke="#ffd283" stroke-width=".393" d="M215.19 304.18c-1.744-2.417-5.72-.757-7.306-1.224-3.515-1.036-5.96-2.219-9.468-2.222-3.11-.006-7.447.727-10.39 1.67-2.26.727-5.718 2.372-7.762 3.663-1.084.678-2.579 1.668-3.808 1.848-.66.117-1.666-.02-1.666-.02s1.156 1.468 2.03 2.061c1.97 1.357 4.848 2.296 6.957 2.77 2.088.45 4.882.589 6.923.31 3.661-.492 8.32-2.33 11.722-3.878 1.636-.736 3.631-2.248 5.245-3.068 1.015-.508 1.96-.523 3.077-.675 1.168-.153 5.016 1.464 5.016 1.464"/><path fill="#ffd283" d="M209.23 303.94c-3.205.774-5.323-.044-8.32.84-2.668.756-7.458 3.262-10.174 3.783-3.072.265-5.219.098-8.218-.24 6.589 2.387 9.866.438 15.78-1.756 3.48-1.832 7.545-.702 11.397-1.966 2.336 0 2.047-.723-.465-.661z"/><path fill="#571927" stroke="#ffd283" stroke-width=".425" d="M256.06 358.64c-3.086-.926-2.798-5.573-3.836-7.028-2.302-3.224-4.375-5.302-5.62-8.883-1.107-3.174-1.894-7.863-1.973-11.202-.057-2.565.399-6.68.993-9.224.309-1.347.791-3.224.54-4.543-.114-.715-.611-1.694-.611-1.694s1.909.66 2.825 1.343c2.082 1.531 4.06 4.139 5.29 6.125 1.2 1.972 2.33 4.777 2.769 6.96.793 3.913.565 9.323.188 13.344-.173 1.931-1.01 4.504-1.276 6.443-.16 1.216.159 2.187.399 3.381.257 1.247 3.27 4.604 3.27 4.604"/><path fill="#ffd283" d="M253.71 352.64c-.344-3.547-1.93-5.42-2.088-8.793-.172-2.993.692-8.773.263-11.73-.816-3.231-1.747-5.364-3.154-8.307 4.77 5.883 3.94 9.92 3.792 16.737-.639 4.201 1.954 7.953 2.027 12.336.827 2.385-.014 2.345-.84-.242z"/><path fill="#571927" stroke="#ffd283" stroke-linejoin="bevel" stroke-width=".715" d="M257.23 355.63s-8.564-9.383-10.492-11.508-7.362-6.805-8.236-9.99c-.874-3.184-4.058-8.459-7.028-11.448-2.97-2.988-8.64-12.258-10.574-16.496s-12.752-21.288-14.609-22.652-3.202.684-3.202.684.192.947 2.208 3.06c3.195 3.352 4.153 5.376 5.83 10.983 1.427 4.77 2.214 5.173 3.886 8.668s5.111 7.4 7.367 8.918 6.588 8.799 7.688 12.347 2.148 6.524 6.242 9.215 4.142 7.299 7.564 11.013c3.421 3.715 9.576 11.068 9.576 11.068 3.825 5.693 4.501 4.508 5.957 10.038s5.53 7.568 6.695 4.366c1.164-3.202.582-6.986-1.456-8.441s-5.228-6.262-7.417-9.826z"/><path fill="#571927" stroke="#ffd283" stroke-width=".426" d="M196.91 370.83c1.594 2.807-1.832 5.974-2.087 7.747-.565 3.93-.502 6.87-2.08 10.326-1.396 3.066-4.072 7.007-6.326 9.48-1.735 1.898-4.915 4.563-7.107 5.994-1.156.762-2.805 1.788-3.537 2.918-.412.596-.73 1.65-.73 1.65s-.925-1.8-1.116-2.93c-.449-2.55-.076-5.809.409-8.099.496-2.26 1.62-5.074 2.813-6.96 2.135-3.382 6.046-7.143 9.103-9.796 1.463-1.279 3.851-2.563 5.386-3.783.958-.77 1.399-1.695 2.052-2.726.677-1.081.819-5.6.819-5.6"/><path fill="#ffd283" d="M194.46 376.81c-2.207 2.807-2.355 5.263-4.576 7.816-1.948 2.286-6.575 5.875-8.312 8.314-1.646 2.906-2.449 5.096-3.467 8.203.617-7.566 4.014-9.915 8.84-14.75 3.373-2.602 4.092-7.115 7.074-10.34 1.052-2.3 1.634-1.69.441.757z"/><path fill="#571927" stroke="#ffd283" stroke-width=".507" d="M202.25 371.61c-2.014 3.275-7.284 1.518-9.28 2.27-4.424 1.666-7.457 3.42-11.968 3.758-4 .303-9.648-.227-13.523-1.16-2.975-.72-7.581-2.507-10.333-3.973-1.458-.769-3.475-1.9-5.074-2.015-.859-.087-2.14.185-2.14.185s1.347-1.998 2.415-2.845c2.404-1.933 6.018-3.414 8.685-4.223 2.642-.78 6.223-1.223 8.876-1.06 4.755.285 10.924 2.206 15.447 3.874 2.173.792 4.884 2.547 7.038 3.447 1.353.558 2.57.487 4.022.577 1.517.085 6.312-2.36 6.312-2.36"/><path fill="#ffd283" d="M194.61 372.49c-4.196-.69-6.843.564-10.781-.288-3.504-.72-9.905-3.487-13.446-3.899-3.977-.05-6.722.37-10.548 1.091 8.247-3.699 12.648-1.503 20.464.757 4.65 2.025 9.771.185 14.847 1.445 3.004-.223 2.7.734-.536.894z"/><path fill="#571927" stroke="#ffd283" stroke-width=".393" d="M204.48 285.24c-2.769-1.103-2.127-5.363-2.966-6.787-1.86-3.158-3.604-5.242-4.461-8.643-.763-3.015-1.108-7.4-.91-10.483.154-2.369.908-6.124 1.662-8.42.393-1.217.99-2.908.865-4.144-.047-.668-.426-1.61-.426-1.61s1.706.763 2.495 1.466c1.795 1.58 3.407 4.143 4.38 6.073.946 1.915 1.76 4.592 1.988 6.64.413 3.67-.235 8.637-.907 12.314-.317 1.765-1.297 4.069-1.699 5.834-.246 1.107-.03 2.028.094 3.149.136 1.17 2.641 4.508 2.641 4.508"/><path fill="#ffd283" d="M202.8 279.52c-.03-3.297-1.34-5.152-1.212-8.273.084-2.772 1.348-8.03 1.192-10.79-.49-3.044-1.175-5.085-2.234-7.912 3.92 5.809 2.828 9.462 2.14 15.732-.93 3.821 1.157 7.489.868 11.533.57 2.265-.202 2.161-.754-.29z"/><path fill="#571927" stroke="#ffd283" stroke-width=".393" d="M235.2 331.76c-2.05-2.163.32-5.76.156-7.406-.364-3.647-1.071-6.269-.422-9.716.573-3.057 2.1-7.182 3.573-9.898 1.135-2.085 3.395-5.178 5.043-6.946.867-.938 2.118-2.223 2.524-3.397.237-.627.29-1.64.29-1.64s1.227 1.408 1.648 2.377c.967 2.187 1.354 5.19 1.427 7.35.055 2.136-.329 4.907-.982 6.861-1.164 3.505-3.837 7.742-5.99 10.796-1.029 1.47-2.885 3.15-3.99 4.583-.69.902-.88 1.828-1.237 2.898-.367 1.118.505 5.2.505 5.2"/><path fill="#ffd283" d="M236.07 325.86c1.357-3.005.946-5.238 2.372-8.018 1.24-2.481 4.593-6.722 5.61-9.293.832-2.969 1.067-5.11 1.292-8.12 1.121 6.918-1.403 9.776-4.66 15.179-2.446 3.078-2.092 7.282-4.051 10.833-.434 2.294-1.09 1.876-.563-.58z"/><path fill="#571927" stroke="#ffd283" stroke-width=".507" d="M201.87 372.01c-3.59 1.377-6.708-3.22-8.75-3.836-4.526-1.365-8-1.815-11.788-4.287-3.361-2.19-7.525-6.043-10.036-9.138-1.925-2.38-4.497-6.598-5.792-9.434-.691-1.497-1.606-3.621-2.805-4.684-.63-.591-1.813-1.153-1.813-1.153s2.284-.77 3.647-.793c3.083-.074 6.854.945 9.464 1.923 2.572.987 5.686 2.81 7.693 4.552 3.603 3.116 7.335 8.39 9.915 12.463 1.245 1.95 2.331 4.99 3.495 7.015.736 1.265 1.746 1.948 2.844 2.901 1.152.99 6.447 1.961 6.447 1.961"/><path fill="#ffd283" d="M195.27 368.06c-2.913-3.098-5.777-3.71-8.387-6.78-2.346-2.7-5.748-8.787-8.31-11.267-3.13-2.456-5.564-3.79-9.04-5.542 8.797 2.073 10.958 6.49 15.792 13.036 2.463 4.433 7.649 6.084 10.914 10.169 2.521 1.648 1.699 2.224-.97.384z"/><path fill="#571927" stroke="#ffd283" stroke-width=".393" d="M218.57 305.7c-2.279-1.921-.325-5.76-.672-7.377-.768-3.584-1.764-6.11-1.503-9.608.228-3.102 1.285-7.372 2.445-10.235.896-2.2 2.796-5.525 4.237-7.466.757-1.03 1.857-2.445 2.13-3.658.165-.648.104-1.662.104-1.662s1.377 1.263 1.903 2.179c1.205 2.065 1.925 5.007 2.238 7.145.294 2.116.222 4.913-.21 6.927-.765 3.614-2.949 8.122-4.748 11.398-.857 1.576-2.515 3.452-3.453 5-.584.973-.67 1.915-.905 3.017-.24 1.153 1.082 5.111 1.082 5.111"/><path fill="#ffd283" d="M218.78 299.74c1.013-3.137.356-5.311 1.462-8.233.955-2.604 3.814-7.192 4.538-9.86.496-3.044.49-5.197.378-8.213 1.886 6.749-.304 9.87-2.937 15.603-2.088 3.332-1.266 7.47-2.817 11.217-.175 2.328-.874 1.986-.624-.514z"/><path fill="#571927" stroke="#ffd283" stroke-width=".469" d="M234.14 332.72c-3.023-1.867-1.39-6.736-2.081-8.583-1.532-4.092-3.148-6.898-3.452-11.069-.273-3.698.227-8.918 1.096-12.498.672-2.75 2.332-7.003 3.692-9.544.713-1.347 1.763-3.209 1.872-4.687.082-.794-.168-1.978-.168-1.978s1.846 1.248 2.626 2.237c1.782 2.226 3.145 5.569 3.888 8.036.716 2.444 1.12 5.755.964 8.206-.273 4.395-2.06 10.094-3.61 14.272-.735 2.008-2.363 4.51-3.199 6.5-.518 1.25-.455 2.375-.54 3.717-.082 1.401 2.17 5.838 2.17 5.838"/><path fill="#ffd283" d="M233.34 325.65c.646-3.877-.508-6.326.286-9.965.671-3.237 3.241-9.15 3.628-12.422.053-3.676-.33-6.215-.989-9.752 3.404 7.63 1.367 11.694-.737 18.915-1.88 4.294-.188 9.032-1.362 13.722.2 2.777-.684 2.495-.826-.497z"/><path fill="#571927" stroke="#ffd283" stroke-width=".469" d="M217.24 307.19c-3.29-1.343-2.482-6.415-3.468-8.122-2.186-3.784-4.242-6.285-5.23-10.348-.879-3.603-1.246-8.834-.98-12.508.21-2.823 1.145-7.292 2.068-10.022.481-1.446 1.21-3.456 1.074-4.931-.05-.797-.492-1.924-.492-1.924s2.026.927 2.959 1.773c2.124 1.902 4.02 4.974 5.16 7.285 1.108 2.293 2.052 5.492 2.303 7.935.456 4.38-.367 10.295-1.206 14.671-.395 2.102-1.587 4.838-2.084 6.939-.305 1.318-.057 2.418.08 3.755.15 1.396 3.103 5.4 3.103 5.4"/><path fill="#ffd283" d="M215.29 300.35c-.002-3.93-1.545-6.156-1.361-9.876.128-3.304 1.688-9.558 1.53-12.85-.554-3.634-1.35-6.075-2.583-9.455 4.615 6.964 3.276 11.309 2.392 18.777-1.147 4.545 1.303 8.939.918 13.758.656 2.705-.263 2.573-.896-.355z"/><path fill="#571927" stroke="#ffd283" stroke-width=".393" d="M203.71 284.86c-2.98-.082-3.844-4.302-5.122-5.35-2.834-2.325-5.188-3.68-7.164-6.579-1.754-2.568-3.589-6.565-4.465-9.528-.67-2.278-1.256-6.063-1.339-8.479-.05-1.277-.071-3.07-.614-4.188-.275-.61-.955-1.365-.955-1.365s1.865.13 2.847.518c2.23.865 4.626 2.717 6.203 4.194 1.548 1.472 3.234 3.704 4.153 5.548 1.652 3.303 2.755 8.19 3.39 11.873.31 1.766.183 4.267.413 6.062.15 1.125.67 1.915 1.173 2.924.53 1.052 4.032 3.323 4.032 3.323"/><path fill="#ffd283" d="M200.16 280.07c-1.163-3.085-3.032-4.375-3.987-7.35-.876-2.631-1.5-8.002-2.596-10.539-1.509-2.69-2.855-4.37-4.822-6.659 5.68 4.103 5.913 7.909 7.426 14.033.444 3.907 3.665 6.632 4.787 10.53 1.314 1.93.554 2.097-.808-.014z"/><path fill="#571927" stroke="#ffd283" stroke-width=".507" d="M203.42 373.25c-2.42-2.987-7.42-.565-9.496-1.052-4.602-1.082-7.835-2.43-12.352-2.182-4.006.216-9.538 1.47-13.26 2.895-2.858 1.099-7.194 3.466-9.734 5.275-1.347.95-3.2 2.333-4.77 2.653-.842.197-2.147.093-2.147.093s1.593 1.808 2.762 2.51c2.633 1.606 6.408 2.608 9.157 3.066 2.721.432 6.33.41 8.939-.095 4.678-.897 10.548-3.598 14.818-5.836 2.053-1.066 4.514-3.156 6.534-4.327 1.27-.728 2.487-.815 3.914-1.09 1.493-.282 6.564 1.524 6.564 1.524"/><path fill="#ffd283" d="M195.73 373.37c-4.071 1.227-6.858.325-10.654 1.678-3.382 1.165-9.371 4.736-12.83 5.602-3.937.562-6.714.501-10.6.28 8.656 2.603 12.736-.142 20.195-3.393 4.35-2.608 9.666-1.445 14.536-3.35 3.007-.167 2.583-1.076-.647-.817z"/><path fill="#571927" stroke="#ffd283" stroke-width=".426" d="M212.89 373.79c1.594 2.807-1.832 5.974-2.087 7.747-.565 3.93-.502 6.87-2.08 10.326-1.396 3.066-4.072 7.007-6.326 9.48-1.735 1.898-4.915 4.563-7.107 5.994-1.156.762-2.805 1.788-3.537 2.918-.412.596-.73 1.65-.73 1.65s-.925-1.8-1.116-2.93c-.449-2.55-.076-5.809.409-8.099.496-2.26 1.62-5.074 2.813-6.96 2.135-3.382 6.046-7.143 9.103-9.796 1.463-1.279 3.851-2.563 5.386-3.783.958-.77 1.399-1.695 2.052-2.726.677-1.081.819-5.6.819-5.6"/><path fill="#ffd283" d="M210.44 379.77c-2.207 2.807-2.355 5.263-4.576 7.816-1.948 2.286-6.575 5.875-8.312 8.314-1.646 2.906-2.449 5.096-3.467 8.203.617-7.566 4.014-9.915 8.84-14.75 3.373-2.602 4.092-7.115 7.074-10.34 1.052-2.3 1.634-1.69.441.757z"/><g fill="#571927" stroke="#ffd283"><path stroke-width=".477" d="M227.19 318.02c-1.934-7.528-.723-4.835-.845-12.299l-1.867-.065c.357 6.734-1.547 2.463-.007 8.546"/><path stroke-width=".715" d="M230 303.68c-.226 2.389-2.194 4.18-4.43 3.985-2.211-.217-3.85-2.326-3.627-4.734s2.75-5.876 4.98-5.662c2.217.199 3.304 4.003 3.077 6.411z"/><path stroke-width=".477" d="M244.34 348.47c-4.635-6.24-3.304-3.604-9.029-8.394l1.124-1.491c5.01 4.513 2.888.346 6.648 5.37"/><path stroke-width=".715" d="M231.42 341.64c1.999 1.327 4.63.924 5.885-.937 1.222-1.855.613-4.456-1.4-5.798-2.011-1.341-6.296-1.558-7.533.31-1.24 1.848 1.034 5.087 3.048 6.425z"/><path stroke-width=".393" d="M264.53 376.55c-2.726-1.206-1.925-5.438-2.71-6.894-1.742-3.225-3.406-5.372-4.136-8.802-.65-3.042-.83-7.436-.518-10.51.243-2.362 1.137-6.086 1.976-8.353.438-1.2 1.098-2.868 1.02-4.109-.023-.669-.366-1.625-.366-1.625s1.676.827 2.438 1.559c1.735 1.646 3.25 4.268 4.15 6.232.874 1.95 1.587 4.655 1.738 6.71.277 3.682-.556 8.622-1.366 12.27-.382 1.752-1.448 4.018-1.915 5.767-.287 1.098-.106 2.026-.024 3.15.093 1.174 2.471 4.604 2.471 4.604"/></g><path fill="#ffd283" d="M263.06 370.77c.093-3.295-1.146-5.198-.902-8.313.187-2.767 1.647-7.973 1.594-10.737-.376-3.06-.985-5.126-1.937-7.99 3.7 5.95 2.473 9.56 1.55 15.801-1.07 3.783.877 7.526.438 11.557.484 2.284-.283 2.151-.743-.319z"/><path fill="#571927" stroke="#ffd283" stroke-width=".426" d="M247.05 405.82c2.784-1.634 1.4-6.09 2.066-7.752 1.476-3.686 3-6.201 3.363-9.983.323-3.353-.024-8.104-.74-11.374-.553-2.511-1.974-6.409-3.157-8.744-.62-1.238-1.536-2.951-1.605-4.295-.058-.723.193-1.794.193-1.794s-1.701 1.096-2.43 1.978c-1.665 1.985-2.971 4.993-3.696 7.219-.7 2.205-1.135 5.204-1.044 7.434.158 3.997 1.664 9.21 2.985 13.036.628 1.838 2.054 4.144 2.773 5.968.445 1.146.364 2.167.415 3.387.045 1.275-2.091 5.259-2.091 5.259"/><path fill="#ffd283" d="M247.92 399.41c-.507-3.534.592-5.735-.055-9.057-.544-2.954-2.757-8.376-3.041-11.357.027-3.34.427-5.637 1.098-8.837-3.248 6.86-1.48 10.593.282 17.194 1.62 3.94-.014 8.207.956 12.49-.239 2.518.57 2.28.76-.434z"/><path fill="#571927" stroke="#ffd283" stroke-width=".425" d="M253.13 354.92c-.666-3.152-5.32-3.252-6.684-4.408-3.021-2.562-4.92-4.801-8.384-6.34-3.071-1.367-7.678-2.542-10.998-2.899-2.552-.27-6.69-.158-9.275.222-1.368.196-3.278.52-4.573.16-.702-.173-1.636-.75-1.636-.75s.5 1.957 1.103 2.927c1.352 2.203 3.786 4.39 5.663 5.781 1.866 1.36 4.567 2.72 6.706 3.34 3.833 1.115 9.243 1.338 13.282 1.298 1.938-.012 4.572-.633 6.526-.736 1.225-.058 2.166.34 3.337.68 1.22.36 4.315 3.641 4.315 3.641"/><path fill="#ffd283" d="M247.34 352.07c-3.506-.638-5.24-2.374-8.59-2.813-2.967-.42-8.799-.04-11.71-.714-3.152-1.083-5.2-2.188-8.015-3.835 5.465 5.244 9.557 4.752 16.362 5.173 4.24-.287 7.764 2.609 12.124 3.046 2.308 1.022 2.339.182-.17-.857z"/><g fill="#571927" stroke="#ffd283"><path stroke-width="1.43" d="M272.34 343.73c-.547 21.052-13.118 28.16-31.154 28.16-11.926 0-22.657-7.291-29.665-15.63-3.591-4.273-20.3 1.145-20.346 6.881 0 42.377 47.122 80.927 98.226 80.927s98.226-38.55 98.226-80.927c-.046-5.736-16.754-11.154-20.346-6.881-7.008 8.339-17.739 15.63-29.665 15.63-18.037 0-30.608-7.108-31.154-28.16-.547-21.052-17.061-29.801-17.061-29.801s-16.514 8.749-17.061 29.801z"/><g stroke-width=".953"><path d="M351.23 411.68c16.344-13.435 26.257-31.047 26.277-48.46v-.053c-.01-1.08-.36-1.758-.739-2.586-2.475 3.219-5.34 6.336-8.653 9.185-7.905 6.796-18.36 12.247-30.5 12.247-10.348 0-20.502-1.874-28.493-8.394-5.959-4.861-10.382-15.632-11.955-23.54 0-9.295 1.92-14.934 7.306-14.934s4.9 3.624 3.678 5.263c-4.121-6.029-11.823 1.132-7.425 6.881 2.16 2.823 9.393 4.626 13.937-1.367 6.012-7.929 1.926-20.588-10.242-20.588s-15.018 15.127-15.018 15.127-2.85-15.127-15.018-15.127-16.254 12.66-10.242 20.588c4.545 5.993 12.051 4.379 13.937 1.367 4.11-6.562-2.824-12.318-7.425-6.881-1.221-1.64-1.54-5.263 3.678-5.263s7.307 5.542 7.307 14.838c-1.573 7.908-5.996 18.774-11.955 23.636-7.99 6.52-18.145 8.394-28.494 8.394-12.14 0-22.594-5.451-30.5-12.247-3.313-2.849-6.178-5.966-8.653-9.185-.38.828-.73 1.505-.739 2.586v.053c.02 17.413 9.934 35.025 26.277 48.46 16.361 13.449 38.818 22.277 61.824 22.277s45.464-8.828 61.824-22.277z"/><path stroke-linejoin="bevel" d="M308.87 397.25v9.372s-2.837-2.444-6.225-2.504h-17.162v14.755c-.1 1.45 5.18 6.092 8.411 6.092 0 0 1.027-3.541 3.67-1.781 1.72 1.144 2.538 4.515-2.676 4.515s-11.189-3.592-11.189-3.592l-8.464 2.275c2.47-1.976 4.69-4.017 4.69-10.347v-35.151c.638-4.624-3.3-6.48-6.806-7.758h32.008c5.05 6.657 10.084 10.044 17.884 15.466-8.345-1.64-16.767-10.133-23.736-10.133h-13.95v21.281h17.32c3.703 0 6.225-2.49 6.225-2.49z"/><path stroke-linejoin="bevel" d="M262.9 380.48c3.456 2.62 3.43 4.327 3.43 10.083v21.799c.188 2.72.446 7.241-2.274 7.241s-1.719-3.533-4.732-2.658c-2.256.655-2.406 3.968.199 5.977s7.104.155 11.151-2.074c2.881 1.714 5.138 1.278 5.138 1.278-1.966-2.375-4.57-2.76-4.57-12.013 0-4.814.127-7.568 4.671-7.568h9.416s12.808 18.345 28.717 22.42c4.027 1.03 10.937 1.215 9.259-3.566-1.43-4.073-6.387-1.837-6.982.926-7.33-1.572-16.983-9.775-22.653-19.78 8.931 0 11.865-4.179 11.865-11.033 0-6.934-6.243-11.033-9.867-11.033zm13.37 3.326h13.858c3.342-.234 6.807 3.812 6.807 7.601s-2.686 7.405-6.807 7.55h-17.779v-9.084c-.394-3.435.883-6.067 3.921-6.067z"/><path d="M270.52 350.99h37.773c2.834 0 5.115 1.643 5.115 3.684s-2.281 3.684-5.115 3.684H270.52c-2.834 0-5.115-1.643-5.115-3.684s2.281-3.684 5.115-3.684z"/></g><g stroke-linecap="round" stroke-linejoin="round"><path stroke-width=".477" d="M370.17 348.48c-.009-.879-.264-1.457-.017-2.648.754 1.056 1.887 1.394 2.862 2.03M367.17 342.4c.241 1.06.97 1.794 2.077 2.274-.665-1.295.33-2.202.885-3.212"/><path stroke-width=".715" d="m374.53 367.8-.425 3.186 2.392-1.846c-3.224 7.4 1.513 8.032 6.493 8.458-1.855-3.827 2.396-6.912 3.52-11.223-1.128 4.252-.065 6.64 6.526 4.327-6.797-1.488.22-5.329-2.557-10.05 1.439 2.646 3.65 1.165 5.615.989-6.283-1.825-2.993-5.996-2.79-9.41l-2.945-5.841c1.45 3.788 3.804 2.257 5.976 1.794-4.451-.897-1.481-6.797-6.885-9.403 1.966.78 3.96 1.874 5.762.81-4.276-.534-2.954-4.878-6.863-5.874 2.205.12 3.534-.65 5.157-1.12-1.867-.31-3.562.177-5.646-1.13l-3.253-2.976-8.028-.097c-1.992.578-3.888 1.346-5.442 2.803-1.447.8-3.302 1.4-3.171 2.972-3.087.629-8.918 4.066-4.413 3.684.209 3.22 1.205 4.73 2.74 4.682 3.447.568 4.172-1.937 6.698-2.632 5.682 1.493 3.44 5.198 1.793 6.733-1.79 1.668-5.088.91-5.088.91-1.035 1.575-.58 2.772.896 2.992 1.812 1.478 2.336.085 3.262-.414 6.356-.138 5.382-3.336 7.623-5.192-1.664 2.68.873 6.055-5.945 7.773-3.52.889-3.17-.452-6.496.528-3.324.98-4.16 3.192-6.803 3.393-2.363.18-5.629.45-3.443-4.702-4.694 4.905.397 8.996 6.69 6.795-5.655 2.04-9.163 4.67-14.143 1.748 6.966 8.259 10.14 2.363 17.652 1.54-7.444 1.283-6.378 7.344-14.481 7.05 2.336 2.955 4.833 2.331 8.11 1.332-1.202 1.21-2.153 3.91-4.754 3.831 1.502 2.161 5.46 1.076 8.874.134 3.884-1.072 5.763-3.948 7.792-6.554z"/><path stroke-width=".715" d="M379.85 331c-.749-2.968 2-3.618 3.99-4.77-.053 1.972.416 4.477-.812 5.258"/></g></g><g stroke="#ffd283"><path fill="none" stroke-linecap="round" stroke-linejoin="round" stroke-width=".477" d="M368.38 334.39c1.08 1.13 1.706.177 2.432-.32 1.726-2.413 3.243-.958 4.803-.315"/><path fill="#571927" stroke-linecap="round" stroke-linejoin="round" stroke-width=".477" d="M369.78 335.08c.952.442 1.51.584 2.289.232 1.272-.53 1.585-1.343 2.205-1.365-.114-.523-.28-1.017-1.161-1.101-1.96.655-1.793 1.33-3.333 2.234"/><path fill="none" stroke-width=".715" d="M382.45 332.89c1.4.148 2.138 3.539-.054 4 .601.437 1.555 1.032 2.476 0 .116 1.42-1.44 3.61-4.45 3.836.685.3 1.754.435 2.382.3-1.092.834.338 4.357.272 5.169-.09 1.108-.9 2.407-1.96 2.584 1.898.325 2.986-1.35 3.272-2.575.382-1.633-.816-3.536.402-4.77"/></g><g fill="#571927" stroke="#ffd283" stroke-linecap="round" stroke-linejoin="round"><path stroke-width=".477" d="M209 348.48c.009-.879.264-1.457.017-2.648-.754 1.056-1.887 1.394-2.862 2.03M212 342.4c-.241 1.06-.97 1.794-2.077 2.274.665-1.295-.33-2.202-.885-3.212"/><path stroke-width=".715" d="m204.64 367.8.425 3.186-2.392-1.846c3.224 7.4-1.513 8.032-6.493 8.458 1.855-3.827-2.396-6.912-3.52-11.223 1.128 4.252.065 6.64-6.526 4.327 6.797-1.488-.22-5.329 2.557-10.05-1.439 2.646-3.649 1.165-5.615.989 6.283-1.825 2.994-5.996 2.79-9.41l2.945-5.841c-1.45 3.788-3.804 2.257-5.976 1.794 4.451-.897 1.481-6.797 6.885-9.403-1.966.78-3.96 1.874-5.762.81 4.277-.534 2.954-4.878 6.863-5.874-2.205.12-3.534-.65-5.157-1.12 1.868-.31 3.562.177 5.646-1.13l3.253-2.976 8.028-.097c1.992.578 3.888 1.346 5.442 2.803 1.448.8 3.302 1.4 3.172 2.972 3.086.629 8.917 4.066 4.413 3.684-.21 3.22-1.206 4.73-2.741 4.682-3.447.568-4.172-1.937-6.697-2.632-5.683 1.493-3.441 5.198-1.794 6.733 1.79 1.668 5.089.91 5.089.91 1.034 1.575.578 2.772-.897 2.992-1.812 1.478-2.336.085-3.262-.414-6.356-.138-5.382-3.336-7.623-5.192 1.664 2.68-.872 6.055 5.945 7.773 3.52.889 3.17-.452 6.496.528 3.324.98 4.16 3.192 6.803 3.393 2.363.18 5.629.45 3.443-4.702 4.694 4.905-.397 8.996-6.69 6.795 5.655 2.04 9.163 4.67 14.143 1.748-6.966 8.259-10.14 2.363-17.652 1.54 7.444 1.283 6.378 7.344 14.481 7.05-2.336 2.955-4.833 2.331-8.11 1.331 1.202 1.21 2.153 3.911 4.754 3.832-1.502 2.161-5.46 1.076-8.874.134-3.884-1.072-5.763-3.949-7.792-6.554z"/><path stroke-width=".715" d="M199.32 331c.748-2.968-2-3.618-3.99-4.77.053 1.972-.416 4.477.812 5.258"/></g><g stroke="#ffd283"><path fill="none" stroke-linecap="round" stroke-linejoin="round" stroke-width=".477" d="M210.79 334.39c-1.08 1.13-1.706.177-2.432-.32-1.726-2.413-3.243-.958-4.803-.315"/><path fill="#571927" stroke-linecap="round" stroke-linejoin="round" stroke-width=".477" d="M209.39 335.08c-.952.442-1.51.584-2.289.232-1.273-.53-1.585-1.343-2.205-1.365.114-.523.28-1.017 1.161-1.101 1.96.655 1.793 1.33 3.333 2.234"/><path fill="none" stroke-width=".715" d="M196.72 332.89c-1.4.148-2.138 3.539.054 4-.601.437-1.555 1.032-2.476 0-.116 1.42 1.44 3.61 4.45 3.836-.685.3-1.754.435-2.382.3 1.092.834-.338 4.357-.272 5.169.09 1.108.9 2.407 1.96 2.585-1.898.324-2.986-1.352-3.272-2.576-.381-1.633.816-3.536-.402-4.77"/></g><g fill="#ffd283" font-family="Arial" font-size="39" font-weight="bold" text-anchor="middle"><text x="289" y="80">Union europenne</text><text x="289" y="135">Rpublique franaise</text></g></svg>