<svg xmlns="http://www.w3.org/2000/svg" id="svg2" width="821.75" height="1115.219" version="1.1"><defs id="defs4"><style id="style561" type="text/css">.str0{stroke:#000;stroke-width:.2646}.str1{stroke:#d4ae05;stroke-width:.3969}.fil4{fill:none}.fil1{fill:#00923f}.fil5{fill:#0a73b9}</style></defs><g id="layer1" transform="translate(945.625 22.438)"><g id="g13180" transform="matrix(1.04248 0 0 1.04294 18.764 -22.893)"><path id="rect3523" d="M-924.482.828v1068.688h752.607c19.306 0 34.857-15.551 34.857-34.857V35.685c0-19.306-15.551-34.857-34.857-34.857h-717.75Z" style="fill:#800020;fill-opacity:1;stroke:none"/><path id="path24065" d="M-617.441 599.492V434.64l2.528-1.242 173.326 166.094c0 14.904-83.519 4.307-84.258 16.894l-1.012 17.216-2.205.971c-5.044-7.91-16.81-12.266-23.595-13.124-6.003-.796-26.897-3.555-43.71-3.555-12.606 0-21.074-3.498-21.074-18.402z" class="fil4 str0" style="fill:#ffd283;stroke:#ffd283;stroke-width:2.26238251;stroke-linecap:round;stroke-linejoin:round;stroke-miterlimit:4;stroke-dasharray:none;stroke-opacity:1"/><path id="path5870" d="M-478.948 397.996c-11.923 5.364-35.529 2.267-35.529 2.267l-15.112.08s15.185-22.705 39.633-25.01z" style="fill:#800020;fill-opacity:1;stroke:#ffd283;stroke-width:1.76624393px;stroke-linecap:butt;stroke-linejoin:round;stroke-opacity:1"/><path id="path5872" d="M-524.11 398.122c4.733-5.854 18.914-7.407 22.684-8.357-.464-.999-1.73-1.256-4.35-2.4 2.41-.235 5.311 1.38 6.009 1.868 2.56-.662 5.204-1.435 7.826-2.09-1.037-1.819-2.856-2.464-4.417-3.183 1.599-.442 5.896 2.15 6.11 2.768 3.12-.77 6.444-1.424 9.587-2.144-1.29-1.911-5.454-4.436-9.02-5.568 5.047.684 8.85 3.67 10.85 5.13 2.826-.633 7.43-.624 10.219-1.18-1.032-1.804-5.095-2.16-7.164-3.38 1.722.291 7.56.604 8.934 2.763-6.534 3.27-12.19 2.34.332 1.162.395.702-6.113 7.665-10.236 9.2 3.12-2.71 9.274-6.557 8.48-8.673-3.543.715-8.755.823-12.321 1.647.143 1.824-3.676 9.174-8.47 10.835 3.691-2.813 6.822-8.466 6.519-10.303-3.65.862-7.383 1.727-11.019 2.676.035 2.535-2.731 5.596-6.116 7.485 3.011-2.482 5.533-4.154 3.886-6.881-1.964.522-4.56.99-6.51 1.531-.588 2.056-2.797 3.931-6.552 5.906 2.612-1.34 4.577-3.923 4.52-5.34-1.993.497-13.734.64-18.97 5.858z" class="fil1" style="fill:#ffd283;fill-rule:evenodd;stroke:#ffd283;stroke-width:.87633437;stroke-miterlimit:4;stroke-dasharray:none;stroke-opacity:1"/><path id="path5797" d="M-633.919 407.62s15.213-1.089 26.742-7.494c14.38-7.992 8.968-12.435 23.66-24.211 10.2-8.177 33.206-8.171 33.206-8.171l14.612-3.86s-9.019 25.782-32.112 34.133c-18.19 6.577-30.843.839-53.666 13.607 0 0-8.807 4.323-12.442-4.004z" style="fill:#800020;fill-opacity:1;stroke:#ffd283;stroke-width:1.76610601;stroke-linecap:butt;stroke-linejoin:round;stroke-miterlimit:4;stroke-dasharray:none;stroke-opacity:1"/><path id="path5799" d="M-540.449 367.406c-3.117 6.851-16.457 11.905-19.87 13.768.7.85 1.99.783 4.812 1.235-2.273.83-5.487-.008-6.284-.305-2.314 1.282-4.68 2.692-7.054 3.983 1.459 1.5 3.382 1.67 5.073 1.975-1.437.828-6.246-.604-6.608-1.15-2.829 1.527-5.883 2.991-8.746 4.475 1.728 1.527 6.391 2.93 10.128 3.133-5.06.602-9.487-1.338-11.79-2.25-2.577 1.32-7.036 2.463-9.598 3.699 1.45 1.489 5.473.816 7.782 1.479-1.74.15-7.471 1.308-9.341-.438-3.058 1.452-8.983 3.173-11.957 4.436-2.045-.073-3.311 1.29-1.335.604-5.233 2.174-19.991 4.973-24.145 10.214.063-.696-.9-1.439-.938-2.268 5.836-4.995 19.925-7.042 24.484-9.02 6.69-8.126-.548-5.29 1.408-.519 2.97-1.308 8.882-3.057 11.87-4.49-.558-.58 4-8.95 7.608-11.469-2.342 3.406-7.338 8.67-6.04 10.52 3.252-1.579 8.271-2.988 11.517-4.679-.595-1.73 1.263-9.801 5.488-12.609-2.87 3.647-4.485 9.904-3.732 11.606 3.318-1.748 6.716-3.52 9.998-5.348-.669-2.446 1.244-6.102 4.048-8.778-2.294 3.156-4.317 5.407-2.04 7.635 1.771-.997 4.167-2.1 5.92-3.112.054-2.138 1.724-4.506 4.865-7.358-2.194 1.952-3.45 4.944-3.04 6.301 1.805-.98 13.137-4.057 16.9-10.42z" class="fil1" style="fill:#ffd283;fill-rule:evenodd;stroke:#ffd283;stroke-width:.87633437;stroke-miterlimit:4;stroke-dasharray:none;stroke-opacity:1"/><path id="path5801" d="M-666.037 500.9s2.342-17.712 10.64-30.742c10.355-16.254 11.77-12.86 26.57-29.211 10.278-11.354 15.288-35.007 15.288-35.007l1.631-16.218s-26.872 8.139-38.258 34.555c-8.968 20.806-3.147 36.004-19.679 61.793 0 0-5.673 9.995 3.808 14.829z" style="fill:#800020;fill-opacity:1;stroke:#ffd283;stroke-width:2.06891847px;stroke-linecap:butt;stroke-linejoin:round;stroke-opacity:1"/><path id="path5803" d="M-616.339 395.455c-4.29 4.835-10 15.537-12.195 18.746-.777-.78-.58-2.057-.749-4.91-1.052 2.178-.54 5.46-.323 6.283-1.507 2.174-3.146 4.388-4.667 6.621-1.348-1.601-1.325-3.532-1.46-5.245-.967 1.348-.021 6.275.486 6.69-1.803 2.662-3.564 5.555-5.327 8.255-1.347-1.872-2.277-6.651-2.106-10.39-1.103 4.974.384 9.574 1.062 11.956-1.57 2.432-3.153 6.755-4.638 9.181-1.337-1.592-2.587-8.367-3.017-10.73-.323 1.717.274 10.142 1.825 12.177-1.75 2.897-4.054 8.622-5.607 11.454-.537-1.269.342-4.386-.084-6.516-.497 2.128-1.565 5.994-.65 7.785-2.686 4.989-6.945 19.394-12.575 23.004.699.007 1.342 1.039 2.163 1.16 5.553-5.309 8.996-19.123 11.42-23.461.499 1.348 4.552-.943 6.92-3.98-3.497 1.599-5.054 4.024-6.263 2.63 1.598-2.824 3.928-8.532 5.652-11.362.521.613 6.044-1.282 8.91-4.62-3.622 1.99-6.098 4.63-7.809 3.154 1.896-3.077 3.799-7.93 5.805-10.992 1.662.765 9.879-.278 13.094-4.202-3.915 2.491-10.302 3.474-11.92 2.555 2.07-3.127 4.172-6.33 6.32-9.414 2.367.91 6.195-.629 9.138-3.152-3.37 1.968-5.812 3.756-7.801 1.268 1.169-1.663 2.506-3.937 3.688-5.58 2.132.16 4.655-1.265 7.807-4.106-2.162 1.988-5.265 2.94-6.574 2.397 1.155-1.7 2.072-5.672 8.334-13.802z" class="fil1" style="fill:#ffd283;fill-rule:evenodd;stroke:#ffd283;stroke-width:.87633437;stroke-miterlimit:4;stroke-dasharray:none;stroke-opacity:1"/><path id="path5805" d="M-665.797 572.979s-7.661-16.71-7.571-32.605c.116-19.829 10.704-21.217 14.64-43.567 2.732-15.519-8.02-38.653-8.02-38.653l-3.555-15.185s-23.38 36.63-18.827 65.876c3.586 23.035 12.167 21.785 11.894 53.303 0 0 .534 11.813 11.44 10.83z" style="fill:#800020;fill-opacity:1;stroke:#ffd283;stroke-width:2.12879395px;stroke-linecap:butt;stroke-linejoin:round;stroke-opacity:1"/><path id="path5807" d="M-671.778 450.83c.818 6.412-.502 18.47-.499 22.358 1.081-.207 1.64-1.372 3.387-3.634-.359 2.393-2.632 4.814-3.276 5.372.019 2.645.124 5.397.12 8.1 2.017-.563 3.086-2.17 4.164-3.51.039 1.66-3.521 5.196-4.174 5.252-.012 3.215-.188 6.597-.256 9.821 2.168-.786 5.632-4.209 7.598-7.392-1.893 4.73-5.715 7.689-7.618 9.274-.075 2.894.423 7.898.282 10.739 2.002-.561 6.607-6.761 8.294-8.47-.701 1.599-5.698 9.531-8.126 10.337-.188 3.38-1.514 9.406-1.828 12.621 1.159-.745 6.734-6.707 8.287-8.226-.789 2.038-6.63 8.725-8.396 9.688-.595 5.635-4.802 19.349-2.189 25.504-.58-.388-1.694.101-2.44-.262-1.593-7.515 2.955-20.28 3.4-25.23-1.172.831-6.937-5.021-7.18-8.865 1.987 3.292 5.613 7.85 7.398 7.38.273-3.233 1.567-9.261 1.74-12.57-.777.211-8.766-5.825-9.25-10.198 1.869 3.686 6.92 8.62 9.167 8.365.17-3.61-.294-9.232-.225-12.892-1.804-.305-8.001-5.8-8.444-10.853 1.828 4.264 6.549 8.678 8.404 8.832.053-3.75.124-7.582.089-11.339-2.468-.583-4.762-4.013-5.77-7.756 1.674 3.526 2.682 6.38 5.728 5.446-.028-2.032.15-4.664.1-6.687-1.85-1.07-3.13-3.67-4.131-7.794.664 2.86 2.69 5.396 4.077 5.686.005-2.055 1.487-5.852.9-16.097z" class="fil1" style="fill:#ffd283;fill-rule:evenodd;stroke:#ffd283;stroke-width:.87633437;stroke-miterlimit:4;stroke-dasharray:none;stroke-opacity:1"/><path id="path5809" d="M-684.884 573.423c9.704-17.293-1.397-29.034 9.746-48.804 8.112-14.39 28.9-36.897 28.9-36.897l2.572 3.785 4.282-4.264s2.208 43.4-16.21 66.569c-14.506 18.249-12.013-3.75-27.36 23.78z" style="fill:#800020;fill-opacity:1;stroke:#ffd283;stroke-width:2.12879395px;stroke-linecap:butt;stroke-linejoin:round;stroke-opacity:1"/><path id="path5811" d="M-644.89 496.294c-1.78 6.214-3.415 11.742-4.947 15.315 1.075.236 2.048-.614 4.547-2.001-1.275 2.056-4.32 3.383-5.131 3.641-1.028 2.438-2.018 5.008-3.088 7.49 2.075.28 3.692-.775 5.21-1.58-.619 1.539-5.286 3.382-5.908 3.176-1.28 2.95-2.778 5.987-4.113 8.923 2.303.133 6.836-1.644 9.9-3.792-3.607 3.597-8.287 4.807-10.662 5.512-1.211 2.63-2.73 7.424-3.98 9.978 2.06.275 8.74-3.603 10.964-4.508-1.276 1.193-8.998 6.508-11.548 6.29-1.507 3.03-5.104 8.044-6.663 10.873 1.36-.227 8.836-3.503 10.863-4.285-1.53 1.56-9.538 5.398-11.54 5.585-2.772 4.942-12.052 15.88-12.081 22.568-.38-.586-1.596-.576-2.139-1.204 1.504-7.534 10.723-17.467 13.086-21.838-1.405.301-4.39-7.352-3.097-10.98.527 3.81 2.059 9.428 3.884 9.702 1.527-2.863 5.097-7.89 6.562-10.863-.797-.111-5.754-8.812-4.472-13.02.262 4.124 2.955 10.652 5.119 11.305 1.582-3.25 3.376-8.599 4.884-11.934-1.537-.993-5.061-8.487-3.473-13.305-.005 4.64 2.59 10.558 4.234 11.432 1.53-3.425 3.107-6.916 4.56-10.382-2.037-1.51-2.791-5.567-2.239-9.403.145 3.899-.055 6.919 3.112 7.264.777-1.878 1.98-4.226 2.733-6.104-1.278-1.714-1.428-4.608-.719-8.792-.52 2.89.341 6.02 1.5 6.834.816-1.886 1.136-2.253 4.642-11.897z" class="fil1" style="fill:#ffd283;fill-rule:evenodd;stroke:#ffd283;stroke-width:.87633437;stroke-miterlimit:4;stroke-dasharray:none;stroke-opacity:1"/><path id="path5813" d="M-626.3 640.358s-14.923-10.735-22.703-24.596c-4.225-7.529-4.506-14.006-4.396-20.55.094-5.648.48-11.345-1.125-17.814-.808-3.254-2.12-6.704-4.225-10.44-2.74-4.86-6.925-10.646-11.267-16.178-4.346-5.535-8.848-10.817-12.215-14.662-3.231-3.69-5.418-6.057-5.418-6.057l-2.571 3.785q-2.142-2.13-4.283-4.264s-.257 5.05.136 12.626c.303 5.844.992 13.192 2.485 20.882 1.203 6.201 2.929 12.624 5.395 18.662 2.131 5.219 4.815 10.15 8.194 14.4 4.047 5.09 7.498 8.347 10.704 10.993 8.282 6.839 14.926 9.607 25.991 29.456 0 0 6.305 10.003 15.298 3.757z" style="fill:#800020;fill-opacity:1;stroke:#ffd283;stroke-width:2.12879395px;stroke-linecap:butt;stroke-linejoin:round;stroke-opacity:1"/><path id="path5815" d="M-689.54 536.3c1.78 6.213 3.416 11.741 4.948 15.314-1.075.237-2.048-.613-4.547-2 1.275 2.056 4.32 3.383 5.131 3.64 1.027 2.438 2.018 5.009 3.088 7.49-2.075.28-3.692-.775-5.21-1.58.618 1.54 5.285 3.383 5.907 3.177 1.28 2.949 2.779 5.987 4.113 8.922-2.302.133-6.835-1.644-9.9-3.792 3.608 3.598 8.288 4.808 10.662 5.513 1.212 2.63 2.73 7.423 3.981 9.977-2.06.275-8.74-3.602-10.965-4.507 1.276 1.193 8.999 6.507 11.548 6.29 1.508 3.03 5.105 8.043 6.663 10.873-1.359-.227-8.835-3.503-10.862-4.286 1.53 1.56 9.538 5.398 11.54 5.586 2.771 4.941 12.052 15.88 12.08 22.568.381-.587 1.597-.577 2.14-1.205-1.505-7.533-10.723-17.466-13.086-21.838 1.405.302 4.39-7.351 3.096-10.979-.526 3.81-2.058 9.428-3.883 9.702-1.527-2.864-5.097-7.89-6.562-10.863.797-.112 5.753-8.813 4.472-13.021-.262 4.124-2.955 10.653-5.12 11.305-1.58-3.25-3.375-8.598-4.883-11.933 1.536-.993 5.061-8.488 3.472-13.306.005 4.64-2.59 10.559-4.234 11.433-1.53-3.425-3.107-6.917-4.558-10.382 2.036-1.51 2.79-5.567 2.238-9.404-.146 3.9.055 6.92-3.112 7.265-.777-1.878-1.98-4.226-2.733-6.105 1.278-1.714 1.428-4.608.719-8.791.519 2.89-.341 6.02-1.501 6.833-.815-1.886-1.136-2.252-4.642-11.897z" class="fil1" style="fill:#ffd283;fill-rule:evenodd;stroke:#ffd283;stroke-width:.87633437;stroke-miterlimit:4;stroke-dasharray:none;stroke-opacity:1"/><path id="path5817" d="M-622.565 647.91c-6.231-18.825 4.787-14.487-2.385-36.017-5.22-15.673-15.369-40.67-15.369-40.67l-4.28 1.3-1.918-5.428s-16.493 31.213-.636 68.867c6.201 14.725 9.047-17.609 18.868 12.342 31.344 25.59 8.98 7.218 5.72-.394z" style="fill:#800020;fill-opacity:1;stroke:#ffd283;stroke-width:2.12879395px;stroke-linecap:butt;stroke-linejoin:round;stroke-opacity:1"/><path id="path5819" d="M-645.302 574.565c.457 6.448.914 12.195 1.675 16.007-1.102.01-1.877-1.023-4.035-2.897.822 2.275 3.526 4.203 4.267 4.623.5 2.598.938 5.317 1.472 7.966-2.088-.155-3.452-1.521-4.77-2.623.286 1.634 4.471 4.402 5.122 4.33.643 3.15 1.48 6.432 2.18 9.58-2.28-.346-4.438-2.19-6.992-4.926 2.785 4.265 5.204 5.586 7.381 6.766.642 2.824 2.525 6.907 3.221 9.665-2.073-.157-5.742-1.652-7.732-2.997 1.002 1.43 5.395 4.547 7.934 4.86 9.56 32.227 16.925 38.85 1.192-.198.804.056 6.64-2.475 6.256-6.858-1.11 3.981-4.282 4.855-6.534 5.046-.875-3.507-2.914-8.19-3.7-11.765 1.709-.654 5.5-2.342 4.942-7.384-.955 4.54-3.51 4.879-5.3 5.394-.788-3.667-1.61-7.41-2.313-11.1 2.305-1.057 4.542-1.075 3.872-5.138-.948 3.785-1.115 3.18-4.284 2.864-.372-1.998-1.063-4.544-1.412-6.537 1.604-1.413 2.62-1.008 2.791-5.248-.09 2.935-1.848 2.613-3.151 3.17-.408-2.014-.646-2.438-2.082-12.6z" class="fil1" style="fill:#ffd283;fill-rule:evenodd;stroke:#ffd283;stroke-width:.87633437;stroke-miterlimit:4;stroke-dasharray:none;stroke-opacity:1"/><path id="path5821" d="M-540.21 670.615s-18.383.016-32.8-6.68c-17.982-8.357-16.954-21.926-37.553-31.45-14.994-6.933-35.038-8.313-35.038-8.313l-14.707-3.553s23.583 36.501 52.07 44.53c22.439 6.324 24.873-2 53.42 11.362 0 0 10.963 4.43 14.607-5.896z" style="fill:#800020;fill-opacity:1;stroke:#ffd283;stroke-width:2.12879395px;stroke-linecap:butt;stroke-linejoin:round;stroke-opacity:1"/><path id="path5823" d="M-475.489 683.5s-21.259 4.252-32.799-6.681-13.97-20.651-35.835-26.725-41.91-15.185-41.91-15.185l.607 3.037-2.43 2.43s17.278 25.672 44.34 37.658c14.278 6.323 21.866-2.43 50.413 10.932 0 0 13.97 4.86 17.614-5.466z" style="fill:#800020;fill-opacity:1;stroke:#ffd283;stroke-width:2.12890816;stroke-linecap:butt;stroke-linejoin:round;stroke-miterlimit:4;stroke-dasharray:none;stroke-opacity:1"/><ellipse id="path5825" cx="1104.384" cy="74.244" rx="6.86" ry="6.456" style="fill:#ffd283;fill-opacity:1;stroke:#ffd283;stroke-width:4;stroke-linecap:round;stroke-linejoin:round;stroke-miterlimit:4;stroke-dasharray:none;stroke-dashoffset:0;stroke-opacity:1" transform="matrix(-.531 0 0 .531 -19.707 368.814)"/><ellipse id="path5827" cx="1104.384" cy="74.244" rx="6.86" ry="6.456" style="fill:#ffd283;fill-opacity:1;stroke:#ffd283;stroke-width:4;stroke-linecap:round;stroke-linejoin:round;stroke-miterlimit:4;stroke-dasharray:none;stroke-dashoffset:0;stroke-opacity:1" transform="matrix(-.531 0 0 .531 -20.874 359.632)"/><ellipse id="path5831" cx="1104.384" cy="74.244" rx="6.86" ry="6.456" style="fill:#ffd283;fill-opacity:1;stroke:#ffd283;stroke-width:4;stroke-linecap:round;stroke-linejoin:round;stroke-miterlimit:4;stroke-dasharray:none;stroke-dashoffset:0;stroke-opacity:1" transform="matrix(-.531 0 0 .531 -68.268 433.774)"/><ellipse id="path5833" cx="1104.384" cy="74.244" rx="6.86" ry="6.456" style="fill:#ffd283;fill-opacity:1;stroke:#ffd283;stroke-width:4;stroke-linecap:round;stroke-linejoin:round;stroke-miterlimit:4;stroke-dasharray:none;stroke-dashoffset:0;stroke-opacity:1" transform="matrix(-.531 0 0 .531 -72.964 422.688)"/><ellipse id="path5835" cx="1104.384" cy="74.244" rx="6.86" ry="6.456" style="fill:#ffd283;fill-opacity:1;stroke:#ffd283;stroke-width:4;stroke-linecap:round;stroke-linejoin:round;stroke-miterlimit:4;stroke-dasharray:none;stroke-dashoffset:0;stroke-opacity:1" transform="matrix(-.531 0 0 .531 -73.015 576.792)"/><ellipse id="path5837" cx="1104.384" cy="74.244" rx="6.86" ry="6.456" style="fill:#ffd283;fill-opacity:1;stroke:#ffd283;stroke-width:4;stroke-linecap:round;stroke-linejoin:round;stroke-miterlimit:4;stroke-dasharray:none;stroke-dashoffset:0;stroke-opacity:1" transform="matrix(-.531 0 0 .531 4.946 631.894)"/><path id="path5839" d="M-580.474 641.368c5.012 4.083 9.511 7.686 12.81 9.743-.747.809-2.031.666-4.875.955 2.222.96 5.478.31 6.292.058 2.235 1.414 4.516 2.958 6.812 4.383-1.543 1.415-3.472 1.473-5.179 1.68 1.388.91 6.271-.244 6.664-.768 2.735 1.69 5.7 3.327 8.473 4.973-1.814 1.425-4.636 1.734-8.378 1.721 5.016.892 7.635.034 9.986-.744 2.497 1.466 6.762 2.891 9.248 4.273-1.534 1.403-5.136 3.052-7.48 3.581 1.73.25 7.009-.816 8.977-2.452 2.968 1.626 8.773 3.67 11.67 5.102-1.246.59-6.958 1.387-9.068 1.902 2.147.407 8.615-.232 10.365-1.222 5.099 2.473 14.378 7.3 18.994 8.846-.023-.698.981-1.385 1.067-2.21-4.35-1.863-14.964-5.435-19.4-7.673 1.325-.555.712-6.754-2.422-8.993 1.744 3.428 2.387 7.127 1.046 8.394-2.89-1.478-8.68-3.549-11.58-5.15.59-.548 2.743-6.533-.714-9.256 2.142 3.535.606 6.445-.798 8.216-3.155-1.763-7.963-3.486-11.106-5.361.694-1.693 2.06-5.611-1.996-8.658 2.655 3.805 1.15 5.9.3 7.555-3.211-1.937-6.5-3.901-9.672-5.917.809-2.403 2.328-4.045-1.091-6.34 2.108 3.284 1.553 2.992-.848 5.084-1.71-1.098-4.039-2.338-5.73-3.449.07-2.137 1.06-2.6-1.912-5.628 2.077 2.076.638 3.137.151 4.468-1.746-1.083-2.218-1.2-10.606-7.113z" class="fil1" style="fill:#ffd283;fill-rule:evenodd;stroke:#ffd283;stroke-width:.87633437;stroke-miterlimit:4;stroke-dasharray:none;stroke-opacity:1"/><path id="path5841" d="M-652.449 627.072c6.184 1.884 11.683 3.61 15.23 5.203.255-1.071-.579-2.058-1.924-4.58 2.035 1.31 3.31 4.375 3.555 5.191 2.42 1.068 4.973 2.101 7.437 3.212.314-2.07-.713-3.703-1.493-5.235 1.529.644 3.294 5.341 3.078 5.96 2.927 1.329 5.939 2.878 8.852 4.261.171-2.3-1.145-5.05-3.242-8.15 3.537 3.667 4.284 6.555 4.95 8.941 2.608 1.256 6.169 5.17 8.702 6.465.31-2.056-.8-8.088-1.668-10.328 1.171 1.296 3.7 8.395 3.44 10.94 3.004 1.558 7.937 6.407 10.74 8.012-.204-1.362-2.727-6.548-3.475-8.587 1.535 1.555 4.61 7.282 4.764 9.286 4.895 2.854 16.904 8.831 23.59 8.972-.593.37-.603 1.586-1.24 2.118-7.508-1.63-18.512-7.528-22.843-9.963.278 1.41-9.69 4.356-13.295 3.002 3.818-.462 11.726-1.99 12.03-3.81-2.837-1.576-7.784-6.397-10.732-7.912-.124.795-7.665 5.683-11.852 4.332 4.128-.193 9.46-2.855 10.148-5.007-3.223-1.636-7.333-5.837-10.643-7.4-1.018 1.52-7.517 5.545-12.308 3.876 4.64.083 9.547-3.04 10.448-4.669-3.399-1.587-6.864-3.222-10.304-4.732-1.545 2.011-2.061 4.188-5.872 2.629 3.901-.08 3.35-.378 3.748-3.538-1.865-.808-4.193-2.05-6.058-2.835-1.736 1.249-2.51 1.386-6.681.607 2.881.568 3.903-.276 4.736-1.422-1.872-.846-2.233-1.173-11.818-4.84z" class="fil1" style="fill:#ffd283;fill-rule:evenodd;stroke:#ffd283;stroke-width:.87633437;stroke-miterlimit:4;stroke-dasharray:none;stroke-opacity:1"/><path id="path4677" d="M-614.954 598.249V433.397H-439.1v164.852c0 14.903-8.404 18.401-21.013 18.401-16.81 0-37.763 2.758-43.766 3.556-6.724.857-17.654 5.213-22.696 13.124-5.044-7.911-16.81-12.267-23.595-13.124-6.003-.796-26.897-3.556-43.71-3.556-12.606 0-21.074-3.498-21.074-18.401z" class="fil4 str0" style="fill:#800020;stroke:#ffd283;stroke-width:2.26238251;stroke-linecap:round;stroke-linejoin:round;stroke-miterlimit:4;stroke-dasharray:none;stroke-opacity:1"/><g id="g4679" style="fill:#ffd283" transform="matrix(1.60326 0 0 1.60326 -698.925 364.075)"><path id="path4681" d="M54.51 144.379v-26.216h34.895v38.864c-5.512-.663-14.61-1.594-22.276-1.594-7.565 0-12.619-2.104-12.619-11.054" class="fil5 str1" style="fill:#ffd283;fill-opacity:1;stroke:#1b1083;stroke-width:0;stroke-linecap:round;stroke-linejoin:round;stroke-miterlimit:4;stroke-dasharray:none;stroke-opacity:1"/><path id="polygon4683" d="M89.405 45.494v36.66l-34.895.002V45.494z" class="fil5 str1" style="fill:#ffd283;fill-opacity:1;stroke:#1b1083;stroke-width:0;stroke-linecap:round;stroke-linejoin:round;stroke-miterlimit:4;stroke-dasharray:none;stroke-opacity:1" transform="matrix(1 0 0 .97208 0 1.27)"/><path id="polygon4685" d="M159.963 82.154h-35.005v-36.66h35.005z" class="fil5 str1" style="fill:#ffd283;fill-opacity:1;stroke:#1b1083;stroke-width:0;stroke-linecap:round;stroke-linejoin:round;stroke-miterlimit:4;stroke-dasharray:none;stroke-opacity:1" transform="matrix(1 0 0 .97208 0 1.27)"/><path id="path4687" d="M159.963 118.162v26.216c0 8.95-5.056 11.055-12.62 11.055-7.726 0-16.906.947-22.386 1.612v-38.882Z" class="fil5 str1" style="fill:#ffd283;fill-opacity:1;stroke:#1b1083;stroke-width:0;stroke-linecap:round;stroke-linejoin:round;stroke-miterlimit:4;stroke-dasharray:none;stroke-opacity:1"/></g><path id="path4627" d="M-422.817 407.62s-15.213-1.089-26.742-7.494c-14.38-7.992-8.968-12.435-23.66-24.211-10.2-8.177-33.207-8.171-33.207-8.171l-14.61-3.86s9.018 25.782 32.111 34.133c18.19 6.577 30.843.839 53.666 13.607 0 0 8.807 4.323 12.442-4.004z" style="fill:#800020;fill-opacity:1;stroke:#ffd283;stroke-width:1.76624393px;stroke-linecap:butt;stroke-linejoin:round;stroke-opacity:1"/><path id="path5768" d="M-516.287 367.406c3.117 6.851 16.457 11.905 19.87 13.768-.7.85-1.99.783-4.812 1.235 2.273.83 5.486-.008 6.284-.305 2.314 1.282 4.68 2.692 7.054 3.983-1.459 1.5-3.382 1.67-5.073 1.975 1.437.828 6.246-.604 6.608-1.15 2.829 1.527 5.883 2.991 8.746 4.475-1.729 1.527-6.391 2.93-10.128 3.133 5.059.602 9.487-1.338 11.79-2.25 2.577 1.32 7.036 2.463 9.598 3.699-1.45 1.489-5.473.816-7.782 1.479 1.74.15 7.471 1.308 9.341-.438 3.057 1.452 8.983 3.173 11.957 4.436 2.045-.073 3.311 1.29 1.335.604 5.232 2.174 19.991 4.973 24.145 10.214-.063-.696.9-1.439.938-2.268-5.836-4.995-19.925-7.042-24.484-9.02-6.69-8.126.547-5.29-1.408-.519-2.97-1.308-8.882-3.057-11.87-4.49.558-.58-4-8.95-7.608-11.469 2.342 3.406 7.338 8.67 6.04 10.52-3.252-1.579-8.271-2.988-11.517-4.679.595-1.73-1.263-9.801-5.488-12.609 2.87 3.647 4.485 9.904 3.732 11.606-3.318-1.748-6.716-3.52-9.998-5.348.669-2.446-1.244-6.102-4.048-8.778 2.294 3.156 4.317 5.407 2.04 7.635-1.771-.997-4.167-2.1-5.92-3.112-.054-2.138-1.724-4.506-4.865-7.358 2.193 1.952 3.45 4.944 3.04 6.301-1.806-.98-13.137-4.057-16.9-10.42z" class="fil1" style="fill:#ffd283;fill-rule:evenodd;stroke:#ffd283;stroke-width:.87633437;stroke-miterlimit:4;stroke-dasharray:none;stroke-opacity:1"/><path id="path4625" d="M-390.699 500.9s-2.342-17.712-10.64-30.742c-10.355-16.254-11.77-12.86-26.57-29.211-10.278-11.354-15.288-35.007-15.288-35.007l-1.631-16.218s26.872 8.139 38.258 34.555c8.968 20.806 3.147 36.004 19.679 61.793 0 0 5.672 9.995-3.808 14.829z" style="fill:#800020;fill-opacity:1;stroke:#ffd283;stroke-width:2.06891847px;stroke-linecap:butt;stroke-linejoin:round;stroke-opacity:1"/><path id="path5766" d="M-440.397 395.455c4.29 4.835 10 15.537 12.195 18.746.776-.78.58-2.057.749-4.91 1.052 2.178.54 5.46.323 6.283 1.507 2.174 3.146 4.388 4.667 6.621 1.348-1.601 1.325-3.532 1.46-5.245.967 1.348.021 6.275-.486 6.69 1.802 2.662 3.564 5.555 5.327 8.255 1.346-1.872 2.277-6.651 2.106-10.39 1.103 4.974-.385 9.574-1.062 11.956 1.57 2.432 3.153 6.755 4.638 9.181 1.337-1.592 2.587-8.367 3.016-10.73.323 1.717-.273 10.142-1.824 12.177 1.75 2.897 4.054 8.622 5.607 11.454.537-1.269-.342-4.386.084-6.516.497 2.128 1.565 5.994.65 7.785 2.686 4.989 6.945 19.394 12.575 23.004-.7.007-1.342 1.039-2.163 1.16-5.553-5.309-8.996-19.123-11.42-23.461-.499 1.348-4.552-.943-6.92-3.98 3.497 1.599 5.054 4.024 6.263 2.63-1.598-2.824-3.928-8.532-5.652-11.362-.521.613-6.044-1.282-8.91-4.62 3.622 1.99 6.098 4.63 7.809 3.154-1.896-3.077-3.799-7.93-5.805-10.992-1.662.765-9.879-.278-13.094-4.202 3.915 2.491 10.302 3.474 11.92 2.555-2.07-3.127-4.172-6.33-6.32-9.414-2.367.91-6.195-.629-9.138-3.152 3.37 1.968 5.812 3.756 7.801 1.268-1.169-1.663-2.506-3.937-3.688-5.58-2.132.16-4.655-1.265-7.807-4.106 2.162 1.988 5.264 2.94 6.574 2.397-1.155-1.7-2.072-5.672-8.334-13.802z" class="fil1" style="fill:#ffd283;fill-rule:evenodd;stroke:#ffd283;stroke-width:.87633437;stroke-miterlimit:4;stroke-dasharray:none;stroke-opacity:1"/><path id="path4623" d="M-390.94 572.979s7.662-16.71 7.572-32.605c-.116-19.829-10.705-21.217-14.64-43.567-2.733-15.519 8.02-38.653 8.02-38.653l3.554-15.185s23.38 36.63 18.828 65.876c-3.586 23.035-12.167 21.785-11.894 53.303 0 0-.534 11.813-11.44 10.83z" style="fill:#800020;fill-opacity:1;stroke:#ffd283;stroke-width:2.12879395px;stroke-linecap:butt;stroke-linejoin:round;stroke-opacity:1"/><path id="path5764" d="M-384.958 450.83c-.818 6.412.502 18.47.499 22.358-1.082-.207-1.64-1.372-3.388-3.634.36 2.393 2.633 4.814 3.277 5.372-.018 2.645-.124 5.397-.121 8.1-2.016-.563-3.086-2.17-4.163-3.51-.04 1.66 3.52 5.196 4.173 5.252.014 3.215.19 6.597.256 9.821-2.167-.786-5.63-4.209-7.598-7.392 1.894 4.73 5.716 7.689 7.62 9.274.074 2.894-.425 7.898-.283 10.739-2.002-.561-6.607-6.761-8.295-8.47.702 1.599 5.698 9.531 8.127 10.337.188 3.38 1.513 9.406 1.828 12.621-1.159-.745-6.735-6.707-8.287-8.226.789 2.038 6.63 8.725 8.396 9.688.595 5.635 4.802 19.349 2.189 25.504.58-.388 1.694.101 2.44-.262 1.593-7.515-2.955-20.28-3.4-25.23 1.172.831 6.936-5.021 7.18-8.865-1.987 3.292-5.613 7.85-7.398 7.38-.273-3.233-1.567-9.261-1.74-12.57.777.211 8.766-5.825 9.25-10.198-1.869 3.686-6.921 8.62-9.167 8.365-.17-3.61.294-9.232.225-12.892 1.804-.305 8.001-5.8 8.444-10.853-1.828 4.264-6.549 8.678-8.404 8.832-.053-3.75-.124-7.582-.09-11.339 2.468-.583 4.763-4.013 5.77-7.756-1.673 3.526-2.681 6.38-5.727 5.446.028-2.032-.15-4.664-.1-6.687 1.85-1.07 3.13-3.67 4.13-7.794-.663 2.86-2.69 5.396-4.076 5.686-.005-2.055-1.488-5.852-.9-16.097z" class="fil1" style="fill:#ffd283;fill-rule:evenodd;stroke:#ffd283;stroke-width:.87633437;stroke-miterlimit:4;stroke-dasharray:none;stroke-opacity:1"/><path id="path4619" d="M-371.852 573.423c-9.704-17.293 1.397-29.034-9.746-48.804-8.112-14.39-28.9-36.897-28.9-36.897l-2.572 3.785-4.282-4.264s-2.209 43.4 16.21 66.569c14.506 18.249 12.013-3.75 27.36 23.78z" style="fill:#800020;fill-opacity:1;stroke:#ffd283;stroke-width:2.12879395px;stroke-linecap:butt;stroke-linejoin:round;stroke-opacity:1"/><path id="path5762" d="M-411.847 496.294c1.78 6.214 3.416 11.742 4.948 15.315-1.075.236-2.048-.614-4.547-2.001 1.275 2.056 4.32 3.383 5.131 3.641 1.028 2.438 2.018 5.008 3.088 7.49-2.075.28-3.692-.775-5.21-1.58.619 1.539 5.285 3.382 5.907 3.176 1.28 2.95 2.779 5.987 4.113 8.923-2.302.133-6.835-1.644-9.9-3.792 3.608 3.597 8.288 4.807 10.662 5.512 1.212 2.63 2.73 7.424 3.982 9.978-2.061.275-8.74-3.603-10.966-4.508 1.277 1.193 8.999 6.508 11.548 6.29 1.508 3.03 5.105 8.044 6.663 10.873-1.359-.227-8.835-3.503-10.862-4.285 1.53 1.56 9.538 5.398 11.54 5.585 2.772 4.942 12.052 15.88 12.081 22.568.38-.586 1.596-.576 2.139-1.204-1.505-7.534-10.723-17.467-13.086-21.838 1.405.301 4.39-7.352 3.096-10.98-.526 3.81-2.058 9.428-3.883 9.702-1.527-2.863-5.097-7.89-6.562-10.863.797-.111 5.753-8.812 4.472-13.02-.262 4.124-2.955 10.652-5.119 11.305-1.582-3.25-3.376-8.599-4.884-11.934 1.536-.993 5.061-8.487 3.472-13.305.005 4.64-2.59 10.558-4.233 11.432-1.53-3.425-3.108-6.916-4.56-10.382 2.037-1.51 2.791-5.567 2.239-9.403-.146 3.899.055 6.919-3.112 7.264-.777-1.878-1.98-4.226-2.733-6.104 1.278-1.714 1.428-4.608.719-8.792.52 2.89-.341 6.02-1.501 6.834-.815-1.886-1.136-2.253-4.642-11.897z" class="fil1" style="fill:#ffd283;fill-rule:evenodd;stroke:#ffd283;stroke-width:.87633437;stroke-miterlimit:4;stroke-dasharray:none;stroke-opacity:1"/><path id="path4607" d="M-430.437 640.358s14.924-10.735 22.703-24.596c4.226-7.529 4.507-14.006 4.397-20.55-.094-5.648-.48-11.345 1.125-17.814.808-3.254 2.119-6.704 4.225-10.44 2.74-4.86 6.925-10.646 11.267-16.178 4.345-5.535 8.848-10.817 12.215-14.662 3.231-3.69 5.418-6.057 5.418-6.057l2.571 3.785q2.142-2.13 4.283-4.264s.257 5.05-.136 12.626c-.303 5.844-.992 13.192-2.485 20.882-1.203 6.201-2.929 12.624-5.395 18.662-2.131 5.219-4.815 10.15-8.194 14.4-4.048 5.09-7.498 8.347-10.704 10.993-8.282 6.839-14.926 9.607-25.991 29.456 0 0-6.305 10.003-15.299 3.757z" style="fill:#800020;fill-opacity:1;stroke:#ffd283;stroke-width:2.12879395px;stroke-linecap:butt;stroke-linejoin:round;stroke-opacity:1"/><path id="path5760" d="M-367.196 536.3c-1.78 6.213-3.416 11.741-4.948 15.314 1.075.237 2.048-.613 4.547-2-1.275 2.056-4.32 3.383-5.131 3.64-1.028 2.438-2.018 5.009-3.088 7.49 2.075.28 3.692-.775 5.21-1.58-.619 1.54-5.285 3.383-5.907 3.177-1.28 2.949-2.779 5.987-4.113 8.922 2.302.133 6.835-1.644 9.9-3.792-3.608 3.598-8.288 4.808-10.662 5.513-1.212 2.63-2.73 7.423-3.982 9.977 2.061.275 8.74-3.602 10.966-4.507-1.277 1.193-8.999 6.507-11.548 6.29-1.508 3.03-5.105 8.043-6.663 10.873 1.359-.227 8.835-3.503 10.862-4.286-1.53 1.56-9.538 5.398-11.54 5.586-2.772 4.941-12.052 15.88-12.081 22.568-.38-.587-1.596-.577-2.139-1.205 1.505-7.533 10.723-17.466 13.086-21.838-1.405.302-4.39-7.351-3.096-10.979.526 3.81 2.058 9.428 3.883 9.702 1.527-2.864 5.097-7.89 6.562-10.863-.797-.112-5.753-8.813-4.472-13.021.262 4.124 2.955 10.653 5.119 11.305 1.582-3.25 3.376-8.598 4.884-11.933-1.536-.993-5.061-8.488-3.472-13.306-.005 4.64 2.59 10.559 4.233 11.433 1.53-3.425 3.108-6.917 4.56-10.382-2.037-1.51-2.791-5.567-2.239-9.404.146 3.9-.055 6.92 3.112 7.265.777-1.878 1.98-4.226 2.733-6.105-1.278-1.714-1.428-4.608-.719-8.791-.52 2.89.341 6.02 1.501 6.833.815-1.886 1.136-2.252 4.642-11.897z" class="fil1" style="fill:#ffd283;fill-rule:evenodd;stroke:#ffd283;stroke-width:.87633437;stroke-miterlimit:4;stroke-dasharray:none;stroke-opacity:1"/><path id="path4605" d="M-434.171 647.91c6.231-18.825-4.788-14.487 2.385-36.017 5.22-15.673 15.369-40.67 15.369-40.67l4.28 1.3 1.918-5.428s16.493 31.213.636 68.867c-6.201 14.725-9.047-17.609-18.868 12.342-31.344 25.59-8.98 7.218-5.72-.394z" style="fill:#800020;fill-opacity:1;stroke:#ffd283;stroke-width:2.12879395px;stroke-linecap:butt;stroke-linejoin:round;stroke-opacity:1"/><path id="path5724" d="M-411.434 574.565c-.458 6.448-.914 12.195-1.675 16.007 1.101.01 1.877-1.023 4.035-2.897-.822 2.275-3.526 4.203-4.267 4.623-.5 2.598-.938 5.317-1.472 7.966 2.088-.155 3.452-1.521 4.77-2.623-.286 1.634-4.471 4.402-5.122 4.33-.643 3.15-1.48 6.432-2.18 9.58 2.28-.346 4.438-2.19 6.992-4.926-2.785 4.265-5.204 5.586-7.381 6.766-.642 2.824-2.525 6.907-3.221 9.665 2.073-.157 5.742-1.652 7.732-2.997-1.002 1.43-5.395 4.547-7.934 4.86-9.56 32.227-16.925 38.85-1.192-.198-.804.056-6.64-2.475-6.256-6.858 1.11 3.981 4.281 4.855 6.534 5.046.875-3.507 2.914-8.19 3.7-11.765-1.709-.654-5.5-2.342-4.942-7.384.955 4.54 3.51 4.879 5.3 5.394.788-3.667 1.609-7.41 2.313-11.1-2.305-1.057-4.542-1.075-3.872-5.138.948 3.785 1.115 3.18 4.284 2.864.372-1.998 1.063-4.544 1.412-6.537-1.604-1.413-2.62-1.008-2.791-5.248.09 2.935 1.848 2.613 3.151 3.17.407-2.014.646-2.438 2.082-12.6z" class="fil1" style="fill:#ffd283;fill-rule:evenodd;stroke:#ffd283;stroke-width:.87633437;stroke-miterlimit:4;stroke-dasharray:none;stroke-opacity:1"/><path id="path4603" d="M-516.526 670.615s18.383.016 32.799-6.68c17.983-8.357 16.955-21.926 37.554-31.45 14.994-6.933 35.037-8.313 35.037-8.313l14.707-3.553s-23.582 36.501-52.07 44.53c-22.438 6.324-24.872-2-53.419 11.362 0 0-10.963 4.43-14.608-5.896z" style="fill:#800020;fill-opacity:1;stroke:#ffd283;stroke-width:2.12879395px;stroke-linecap:butt;stroke-linejoin:round;stroke-opacity:1"/><path id="path4495" d="M-581.247 683.5s21.258 4.252 32.799-6.681c11.54-10.933 13.97-20.651 35.835-26.725s41.91-15.185 41.91-15.185l-.607 3.037 2.43 2.43s-17.278 25.672-44.34 37.658c-14.278 6.323-21.866-2.43-50.413 10.932 0 0-13.97 4.86-17.614-5.466z" style="fill:#800020;fill-opacity:1;stroke:#ffd283;stroke-width:2.12890816;stroke-linecap:butt;stroke-linejoin:round;stroke-miterlimit:4;stroke-dasharray:none;stroke-opacity:1"/><ellipse id="path4697" cx="1104.384" cy="74.244" rx="6.86" ry="6.456" style="fill:#ffd283;fill-opacity:1;stroke:#ffd283;stroke-width:4;stroke-linecap:round;stroke-linejoin:round;stroke-miterlimit:4;stroke-dasharray:none;stroke-dashoffset:0;stroke-opacity:1" transform="matrix(.531 0 0 .531 -1036.32 369.523)"/><ellipse id="path4701" cx="1104.384" cy="74.244" rx="6.86" ry="6.456" style="fill:#ffd283;fill-opacity:1;stroke:#ffd283;stroke-width:4;stroke-linecap:round;stroke-linejoin:round;stroke-miterlimit:4;stroke-dasharray:none;stroke-dashoffset:0;stroke-opacity:1" transform="matrix(.531 0 0 .531 -1037.282 359.277)"/><ellipse id="path4703" cx="1104.384" cy="74.244" rx="6.86" ry="6.456" style="fill:#ffd283;fill-opacity:1;stroke:#ffd283;stroke-width:4;stroke-linecap:round;stroke-linejoin:round;stroke-miterlimit:4;stroke-dasharray:none;stroke-dashoffset:0;stroke-opacity:1" transform="matrix(.531 0 0 .531 -988.823 430.936)"/><ellipse id="path4705" cx="1104.384" cy="74.244" rx="6.86" ry="6.456" style="fill:#ffd283;fill-opacity:1;stroke:#ffd283;stroke-width:4;stroke-linecap:round;stroke-linejoin:round;stroke-miterlimit:4;stroke-dasharray:none;stroke-dashoffset:0;stroke-opacity:1" transform="matrix(.531 0 0 .531 -983.418 421.623)"/><ellipse id="path4707" cx="1104.384" cy="74.244" rx="6.86" ry="6.456" style="fill:#ffd283;fill-opacity:1;stroke:#ffd283;stroke-width:4;stroke-linecap:round;stroke-linejoin:round;stroke-miterlimit:4;stroke-dasharray:none;stroke-dashoffset:0;stroke-opacity:1" transform="matrix(.531 0 0 .531 -982.717 574.785)"/><ellipse id="path4709" cx="1104.384" cy="74.244" rx="6.86" ry="6.456" style="fill:#ffd283;fill-opacity:1;stroke:#ffd283;stroke-width:4;stroke-linecap:round;stroke-linejoin:round;stroke-miterlimit:4;stroke-dasharray:none;stroke-dashoffset:0;stroke-opacity:1" transform="matrix(.531 0 0 .531 -1061.682 631.894)"/><path id="_140468096" d="M-476.262 641.368c-5.012 4.083-9.511 7.686-12.81 9.743.747.809 2.031.666 4.875.955-2.222.96-5.478.31-6.292.058-2.236 1.414-4.517 2.958-6.812 4.383 1.543 1.415 3.472 1.473 5.179 1.68-1.388.91-6.271-.244-6.664-.768-2.735 1.69-5.7 3.327-8.473 4.973 1.813 1.425 4.635 1.734 8.378 1.721-5.016.892-7.635.034-9.986-.744-2.497 1.466-6.762 2.891-9.248 4.273 1.534 1.403 5.136 3.052 7.48 3.581-1.73.25-7.009-.816-8.977-2.452-2.968 1.626-8.774 3.67-11.67 5.102 1.246.59 6.958 1.387 9.068 1.902-2.147.407-8.616-.232-10.366-1.222-5.098 2.473-14.378 7.3-18.993 8.846.023-.698-.981-1.385-1.068-2.21 4.35-1.863 14.965-5.435 19.401-7.673-1.325-.555-.712-6.754 2.422-8.993-1.744 3.428-2.387 7.127-1.046 8.394 2.89-1.478 8.68-3.549 11.58-5.15-.59-.548-2.743-6.533.713-9.256-2.14 3.535-.605 6.445.799 8.216 3.154-1.763 7.963-3.486 11.106-5.361-.694-1.693-2.06-5.611 1.996-8.658-2.655 3.805-1.15 5.9-.301 7.555 3.212-1.937 6.501-3.901 9.673-5.917-.809-2.403-2.328-4.045 1.09-6.34-2.107 3.284-1.553 2.992.849 5.084 1.71-1.098 4.038-2.338 5.73-3.449-.07-2.137-1.06-2.6 1.912-5.628-2.078 2.076-.638 3.137-.152 4.468 1.747-1.083 2.22-1.2 10.607-7.113z" class="fil1" style="fill:#ffd283;fill-rule:evenodd;stroke:#ffd283;stroke-width:.87633437;stroke-miterlimit:4;stroke-dasharray:none;stroke-opacity:1"/><path id="path5722" d="M-404.288 627.072c-6.183 1.884-11.683 3.61-15.23 5.203-.254-1.071.58-2.058 1.925-4.58-2.035 1.31-3.31 4.375-3.555 5.191-2.42 1.068-4.974 2.101-7.437 3.212-.314-2.07.713-3.703 1.493-5.235-1.529.644-3.294 5.341-3.078 5.96-2.927 1.329-5.94 2.878-8.852 4.261-.171-2.3 1.145-5.05 3.242-8.15-3.537 3.667-4.284 6.555-4.95 8.941-2.608 1.256-6.169 5.17-8.702 6.465-.31-2.056.8-8.088 1.668-10.328-1.171 1.296-3.7 8.395-3.44 10.94-3.004 1.558-7.938 6.407-10.74 8.012.204-1.362 2.726-6.548 3.475-8.587-1.535 1.555-4.61 7.282-4.764 9.286-4.895 2.854-16.904 8.831-23.59 8.972.593.37.603 1.586 1.24 2.118 7.507-1.63 18.512-7.528 22.843-9.963-.278 1.41 9.69 4.356 13.294 3.002-3.817-.462-11.725-1.99-12.03-3.81 2.838-1.576 7.785-6.397 10.732-7.912.125.795 7.666 5.683 11.853 4.332-4.128-.193-9.46-2.855-10.148-5.007 3.223-1.636 7.333-5.837 10.643-7.4 1.018 1.52 7.517 5.545 12.308 3.876-4.64.083-9.547-3.04-10.448-4.669 3.399-1.587 6.863-3.222 10.304-4.732 1.545 2.011 2.061 4.188 5.872 2.629-3.901-.08-3.35-.378-3.748-3.538 1.865-.808 4.193-2.05 6.058-2.835 1.735 1.249 2.51 1.386 6.681.607-2.881.568-3.903-.276-4.736-1.422 1.872-.846 2.233-1.173 11.817-4.84z" class="fil1" style="fill:#ffd283;fill-rule:evenodd;stroke:#ffd283;stroke-width:.87633437;stroke-miterlimit:4;stroke-dasharray:none;stroke-opacity:1"/><ellipse id="path24179" cx="1104.384" cy="74.244" rx="6.86" ry="6.456" style="fill:#ffd283;fill-opacity:1;stroke:#ffd283;stroke-width:4;stroke-linecap:round;stroke-linejoin:round;stroke-miterlimit:4;stroke-dasharray:none;stroke-dashoffset:0;stroke-opacity:1" transform="matrix(.531 0 0 .531 -1071.617 626.572)"/><ellipse id="path24185" cx="1104.384" cy="74.244" rx="6.86" ry="6.456" style="fill:#ffd283;fill-opacity:1;stroke:#ffd283;stroke-width:4;stroke-linecap:round;stroke-linejoin:round;stroke-miterlimit:4;stroke-dasharray:none;stroke-dashoffset:0;stroke-opacity:1" transform="matrix(.531 0 0 .531 -1157.836 625.862)"/><g id="flowRoot3499" style="font-style:normal;font-weight:400;font-size:40px;font-family:&quot;Bitstream Vera Sans&quot;;fill:#ffd283;fill-opacity:1;stroke:none" transform="matrix(1.01732 0 0 1.01732 270.495 -15.77)"><path id="path13071" d="M-894.16 865.117h-31.192l10.762-28.633h9.668zm-11.035-6.152-4.59-15.04-4.727 15.04z" style="font-variant:normal;font-weight:900;font-stretch:normal;font-family:&quot;Arial Black&quot;;-inkscape-font-specification:&quot;Arial Black, Heavy&quot;;fill:#ffd283"/><path id="path13073" d="M-890.937 836.484h8.867v28.633h-8.867z" style="font-variant:normal;font-weight:900;font-stretch:normal;font-family:&quot;Arial Black&quot;;-inkscape-font-specification:&quot;Arial Black, Heavy&quot;;fill:#ffd283"/><path id="path13075" d="M-858.047 860.39h-10.078l-1.387 4.727h-9.043l10.762-28.633h9.648l10.762 28.633h-9.258zm-1.855-6.192-3.164-10.293-3.145 10.293z" style="font-variant:normal;font-weight:900;font-stretch:normal;font-family:&quot;Arial Black&quot;;-inkscape-font-specification:&quot;Arial Black, Heavy&quot;;fill:#ffd283"/><path id="path13077" d="M-844.55 836.484h16.562q4.14 0 6.347 2.051 2.227 2.05 2.227 5.078 0 2.54-1.582 4.356-1.055 1.21-3.086 1.914 3.086.742 4.531 2.559 1.465 1.796 1.465 4.53 0 2.228-1.035 4.005a7.6 7.6 0 0 1-2.832 2.812q-1.113.644-3.36.938-2.988.39-3.964.39h-15.274zm8.926 11.23h3.848q2.07.002 2.87-.702.822-.723.821-2.07 0-1.25-.82-1.954-.801-.702-2.813-.703h-3.906zm0 11.25h4.512q2.284 0 3.222-.8.938-.822.938-2.188 0-1.27-.938-2.032-.918-.78-3.242-.78h-4.492z" style="font-variant:normal;font-weight:900;font-stretch:normal;font-family:&quot;Arial Black&quot;;-inkscape-font-specification:&quot;Arial Black, Heavy&quot;;fill:#ffd283"/><path id="path13079" d="M-795.781 860.39h-10.078l-1.387 4.727h-9.043l10.762-28.633h9.648l10.762 28.633h-9.258zm-1.856-6.192-3.164-10.293-3.144 10.293z" style="font-variant:normal;font-weight:900;font-stretch:normal;font-family:&quot;Arial Black&quot;;-inkscape-font-specification:&quot;Arial Black, Heavy&quot;;fill:#ffd283"/><path id="path13081" d="M-784.316 836.484h26.894v7.07h-9.023v21.563h-8.848v-21.562h-9.023z" style="font-variant:normal;font-weight:900;font-stretch:normal;font-family:&quot;Arial Black&quot;;-inkscape-font-specification:&quot;Arial Black, Heavy&quot;;fill:#ffd283"/><path id="path13083" d="M-753.36 836.484h8.848v10.02h9.668v-10.02h8.887v28.633h-8.887v-11.582h-9.668v11.582h-8.847z" style="font-variant:normal;font-weight:900;font-stretch:normal;font-family:&quot;Arial Black&quot;;-inkscape-font-specification:&quot;Arial Black, Heavy&quot;;fill:#ffd283"/><path id="path13085" d="M-720.078 836.484h14.707q4.805 0 7.187 2.286 2.403 2.284 2.403 6.504 0 4.336-2.617 6.777-2.598 2.441-7.95 2.441h-4.843v10.625h-8.887zm8.887 12.208h2.168q2.558 0 3.593-.88 1.035-.897 1.035-2.285 0-1.347-.898-2.285-.898-.937-3.379-.937h-2.52z" style="font-variant:normal;font-weight:900;font-stretch:normal;font-family:&quot;Arial Black&quot;;-inkscape-font-specification:&quot;Arial Black, Heavy&quot;;fill:#ffd283"/><path id="path13087" d="M-690.781 836.484h8.867v28.633h-8.867z" style="font-variant:normal;font-weight:900;font-stretch:normal;font-family:&quot;Arial Black&quot;;-inkscape-font-specification:&quot;Arial Black, Heavy&quot;;fill:#ffd283"/><path id="path13089" d="M-676.621 850.82q0-7.01 3.906-10.918 3.906-3.906 10.88-3.906 7.148 0 11.015 3.848 3.867 3.828 3.867 10.742 0 5.02-1.7 8.242-1.68 3.203-4.882 5-3.184 1.778-7.95 1.778-4.843 0-8.027-1.543-3.164-1.544-5.136-4.883-1.973-3.34-1.973-8.36m8.848.04q0 4.335 1.601 6.23 1.62 1.895 4.395 1.895 2.85 0 4.414-1.856 1.562-1.856 1.562-6.66 0-4.043-1.64-5.899-1.622-1.875-4.414-1.875-2.677 0-4.297 1.895-1.621 1.894-1.621 6.27" style="font-variant:normal;font-weight:900;font-stretch:normal;font-family:&quot;Arial Black&quot;;-inkscape-font-specification:&quot;Arial Black, Heavy&quot;;fill:#ffd283"/></g><g id="flowRoot3507" style="font-style:normal;font-weight:400;font-size:40px;font-family:&quot;Bitstream Vera Sans&quot;;fill:#ffd283;fill-opacity:1;stroke:none" transform="matrix(.98898 0 0 .98898 157.839 -716.951)"><path id="path13129" d="M-922.402 836.484h23.71v6.114h-14.843v4.55h13.77v5.84h-13.77v5.645h15.273v6.484h-24.14z" style="font-variant:normal;font-weight:900;font-stretch:normal;font-family:&quot;Arial Black&quot;;-inkscape-font-specification:&quot;Arial Black, Heavy&quot;;fill:#ffd283"/><path id="path13131" d="M-896.367 836.484h9.824l5.781 9.668 5.782-9.668h9.765l-11.133 16.641v11.992h-8.867v-11.992z" style="font-variant:normal;font-weight:900;font-stretch:normal;font-family:&quot;Arial Black&quot;;-inkscape-font-specification:&quot;Arial Black, Heavy&quot;;fill:#ffd283"/><path id="path13133" d="M-862.344 836.484h14.707q4.805 0 7.188 2.286 2.402 2.284 2.402 6.504 0 4.336-2.617 6.777-2.598 2.441-7.95 2.441h-4.843v10.625h-8.887zm8.887 12.208h2.168q2.559 0 3.594-.88 1.035-.897 1.035-2.285 0-1.347-.899-2.285-.898-.937-3.379-.937h-2.519z" style="font-variant:normal;font-weight:900;font-stretch:normal;font-family:&quot;Arial Black&quot;;-inkscape-font-specification:&quot;Arial Black, Heavy&quot;;fill:#ffd283"/><path id="path13135" d="M-830 858.887q-1.66-1.23-3.086-4.082-1.406-2.871-1.406-5.723 0-6.035 3.828-9.55 3.847-3.536 10.937-3.536 7.325 0 11.094 3.38 3.79 3.378 3.79 9.706 0 2.852-1.427 5.723-1.406 2.851-3.066 4.082h4.238v6.23h-12.91v-6.23q4.317-3.027 4.317-9.219 0-7.03-6.036-7.031-2.91 0-4.414 1.875t-1.504 5.156q0 5.8 4.317 9.219v6.23h-12.93v-6.23z" style="font-variant:normal;font-weight:900;font-stretch:normal;font-family:&quot;Arial Black&quot;;-inkscape-font-specification:&quot;Arial Black, Heavy&quot;;fill:#ffd283"/><path id="path13137" d="M-772.695 865.117h-8.828v-21.601h-9.727v21.601h-8.828v-28.633h27.383z" style="font-variant:normal;font-weight:900;font-stretch:normal;font-family:&quot;Arial Black&quot;;-inkscape-font-specification:&quot;Arial Black, Heavy&quot;;fill:#ffd283"/><path id="path13139" d="M-749.14 860.39h-10.079l-1.386 4.727h-9.043l10.761-28.633h9.649l10.761 28.633h-9.257zm-1.855-6.192-3.164-10.293-3.145 10.293z" style="font-variant:normal;font-weight:900;font-stretch:normal;font-family:&quot;Arial Black&quot;;-inkscape-font-specification:&quot;Arial Black, Heavy&quot;;fill:#ffd283"/><path id="path13141" d="M-735.312 836.484h8.867v28.633h-8.867zm-2.188-6.699h5.078v4.883h-5.078zm8.281 0h5.137v4.883h-5.137z" style="font-variant:normal;font-weight:900;font-stretch:normal;font-family:&quot;Arial Black&quot;;-inkscape-font-specification:&quot;Arial Black, Heavy&quot;;fill:#ffd283"/><path id="path13143" d="M-720 836.484h8.848v10.82l9.277-10.82h11.758l-10.43 10.801 10.899 17.832h-10.899l-6.035-11.777-4.57 4.785v6.992H-720z" style="font-variant:normal;font-weight:900;font-stretch:normal;font-family:&quot;Arial Black&quot;;-inkscape-font-specification:&quot;Arial Black, Heavy&quot;;fill:#ffd283"/><path id="path13145" d="M-686.719 836.484h8.848v10.02h9.668v-10.02h8.887v28.633h-8.887v-11.582h-9.668v11.582h-8.848z" style="font-variant:normal;font-weight:900;font-stretch:normal;font-family:&quot;Arial Black&quot;;-inkscape-font-specification:&quot;Arial Black, Heavy&quot;;fill:#ffd283"/><path id="path13147" d="M-640.059 836.484h23.711v6.114h-14.843v4.55h13.77v5.84h-13.77v5.645h15.273v6.484h-24.14z" style="font-variant:normal;font-weight:900;font-stretch:normal;font-family:&quot;Arial Black&quot;;-inkscape-font-specification:&quot;Arial Black, Heavy&quot;;fill:#ffd283"/><path id="path13149" d="M-611.074 836.484h8.261l10.782 15.84v-15.84h8.34v28.633h-8.34l-10.723-15.722v15.722h-8.32z" style="font-variant:normal;font-weight:900;font-stretch:normal;font-family:&quot;Arial Black&quot;;-inkscape-font-specification:&quot;Arial Black, Heavy&quot;;fill:#ffd283"/><path id="path13151" d="M-574.375 858.887q-1.66-1.23-3.086-4.082-1.406-2.871-1.406-5.723 0-6.035 3.828-9.55 3.847-3.536 10.937-3.536 7.324 0 11.094 3.38 3.79 3.378 3.79 9.706 0 2.852-1.427 5.723-1.406 2.851-3.066 4.082h4.238v6.23h-12.91v-6.23q4.317-3.027 4.317-9.219 0-7.03-6.036-7.031-2.91 0-4.414 1.875t-1.504 5.156q0 5.8 4.317 9.219v6.23h-12.93v-6.23z" style="font-variant:normal;font-weight:900;font-stretch:normal;font-family:&quot;Arial Black&quot;;-inkscape-font-specification:&quot;Arial Black, Heavy&quot;;fill:#ffd283"/><path id="path13153" d="M-520.293 865.117h-24.16v-6.191l8.476-8.613-8.476-7.91v-5.919h23.71v6.153h-14.16l8.4 7.676-8.4 8.32h14.61z" style="font-variant:normal;font-weight:900;font-stretch:normal;font-family:&quot;Arial Black&quot;;-inkscape-font-specification:&quot;Arial Black, Heavy&quot;;fill:#ffd283"/><path id="path13155" d="M-515.547 836.484h8.848v10.02h9.668v-10.02h8.886v28.633h-8.886v-11.582h-9.668v11.582h-8.848z" style="font-variant:normal;font-weight:900;font-stretch:normal;font-family:&quot;Arial Black&quot;;-inkscape-font-specification:&quot;Arial Black, Heavy&quot;;fill:#ffd283"/></g><g id="flowRoot3515" style="font-style:normal;font-weight:400;font-size:40px;font-family:&quot;Bitstream Vera Sans&quot;;fill:#ffd283;fill-opacity:1;stroke:none" transform="matrix(.98898 0 0 .98898 96.356 -665.716)"><path id="path13092" d="M-922.402 836.484h23.71v6.114h-14.843v4.55h13.77v5.84h-13.77v5.645h15.273v6.484h-24.14z" style="font-variant:normal;font-weight:900;font-stretch:normal;font-family:&quot;Arial Black&quot;;-inkscape-font-specification:&quot;Arial Black, Heavy&quot;;fill:#ffd283"/><path id="path13094" d="M-865.332 865.117h-9.238l-6.485-20.644-6.308 20.644h-9.004l10.644-28.633h9.59z" style="font-variant:normal;font-weight:900;font-stretch:normal;font-family:&quot;Arial Black&quot;;-inkscape-font-specification:&quot;Arial Black, Heavy&quot;;fill:#ffd283"/><path id="path13096" d="M-834.238 865.117h-9.239l-6.484-20.644-6.309 20.644h-9.003l10.644-28.633h9.59z" style="font-variant:normal;font-weight:900;font-stretch:normal;font-family:&quot;Arial Black&quot;;-inkscape-font-specification:&quot;Arial Black, Heavy&quot;;fill:#ffd283"/><path id="path13098" d="M-831.25 836.484h8.848v10.02h9.668v-10.02h8.886v28.633h-8.886v-11.582h-9.668v11.582h-8.848z" style="font-variant:normal;font-weight:900;font-stretch:normal;font-family:&quot;Arial Black&quot;;-inkscape-font-specification:&quot;Arial Black, Heavy&quot;;fill:#ffd283"/><path id="path13100" d="M-797.871 836.484h8.262l10.78 15.84v-15.84h8.34v28.633h-8.34l-10.722-15.722v15.722h-8.32z" style="font-variant:normal;font-weight:900;font-stretch:normal;font-family:&quot;Arial Black&quot;;-inkscape-font-specification:&quot;Arial Black, Heavy&quot;;fill:#ffd283"/><path id="path13102" d="M-764.219 836.484h8.867v28.633h-8.867z" style="font-variant:normal;font-weight:900;font-stretch:normal;font-family:&quot;Arial Black&quot;;-inkscape-font-specification:&quot;Arial Black, Heavy&quot;;fill:#ffd283"/><path id="path13104" d="M-748.906 836.484h8.847v10.82l9.278-10.82h11.758l-10.43 10.801 10.898 17.832h-10.898l-6.035-11.777-4.57 4.785v6.992h-8.848z" style="font-variant:normal;font-weight:900;font-stretch:normal;font-family:&quot;Arial Black&quot;;-inkscape-font-specification:&quot;Arial Black, Heavy&quot;;fill:#ffd283"/><path id="path13106" d="M-715.625 836.484h8.848v10.02h9.668v-10.02h8.886v28.633h-8.886v-11.582h-9.668v11.582h-8.848z" style="font-variant:normal;font-weight:900;font-stretch:normal;font-family:&quot;Arial Black&quot;;-inkscape-font-specification:&quot;Arial Black, Heavy&quot;;fill:#ffd283"/><path id="path13108" d="M-640.723 865.117h-31.191l10.762-28.633h9.668zm-11.035-6.152-4.59-15.04-4.726 15.04z" style="font-variant:normal;font-weight:900;font-stretch:normal;font-family:&quot;Arial Black&quot;;-inkscape-font-specification:&quot;Arial Black, Heavy&quot;;fill:#ffd283"/><path id="path13110" d="M-637.812 836.484h8.847v10.02h9.668v-10.02h8.887v28.633h-8.887v-11.582h-9.668v11.582h-8.847z" style="font-variant:normal;font-weight:900;font-stretch:normal;font-family:&quot;Arial Black&quot;;-inkscape-font-specification:&quot;Arial Black, Heavy&quot;;fill:#ffd283"/><path id="path13112" d="M-604.59 836.484h11.64l4.493 17.422 4.473-17.422h11.601v28.633h-7.226v-21.836l-5.606 21.836h-6.543l-5.586-21.836v21.836h-7.246z" style="font-variant:normal;font-weight:900;font-stretch:normal;font-family:&quot;Arial Black&quot;;-inkscape-font-specification:&quot;Arial Black, Heavy&quot;;fill:#ffd283"/><path id="path13114" d="M-567.871 850.82q0-7.01 3.906-10.918 3.906-3.906 10.88-3.906 7.148 0 11.015 3.848 3.867 3.828 3.867 10.742 0 5.02-1.7 8.242-1.68 3.203-4.882 5-3.184 1.778-7.95 1.778-4.843 0-8.027-1.543-3.164-1.544-5.136-4.883-1.973-3.34-1.973-8.36m8.848.04q0 4.335 1.601 6.23 1.62 1.895 4.395 1.895 2.85 0 4.414-1.856 1.562-1.856 1.562-6.66 0-4.043-1.64-5.899-1.622-1.875-4.414-1.875-2.677 0-4.297 1.895-1.621 1.894-1.621 6.27" style="font-variant:normal;font-weight:900;font-stretch:normal;font-family:&quot;Arial Black&quot;;-inkscape-font-specification:&quot;Arial Black, Heavy&quot;;fill:#ffd283"/><path id="path13116" d="M-533.36 836.484h8.848v10.82l9.278-10.82h11.757l-10.43 10.801 10.9 17.832h-10.9l-6.034-11.777-4.57 4.785v6.992h-8.848z" style="font-variant:normal;font-weight:900;font-stretch:normal;font-family:&quot;Arial Black&quot;;-inkscape-font-specification:&quot;Arial Black, Heavy&quot;;fill:#ffd283"/><path id="path13118" d="M-500.156 836.484h14.707q4.805 0 7.187 2.286 2.403 2.284 2.403 6.504 0 4.336-2.618 6.777-2.597 2.441-7.949 2.441h-4.844v10.625h-8.886zm8.886 12.208h2.168q2.559 0 3.594-.88 1.035-.897 1.035-2.285 0-1.347-.898-2.285-.899-.937-3.379-.937h-2.52z" style="font-variant:normal;font-weight:900;font-stretch:normal;font-family:&quot;Arial Black&quot;;-inkscape-font-specification:&quot;Arial Black, Heavy&quot;;fill:#ffd283"/><path id="path13120" d="M-453.594 860.39h-10.078l-1.387 4.727h-9.043l10.762-28.633h9.649l10.761 28.633h-9.257zm-1.855-6.192-3.164-10.293-3.145 10.293z" style="font-variant:normal;font-weight:900;font-stretch:normal;font-family:&quot;Arial Black&quot;;-inkscape-font-specification:&quot;Arial Black, Heavy&quot;;fill:#ffd283"/><path id="path13122" d="M-442.129 836.484h26.895v7.07h-9.024v21.563h-8.847v-21.562h-9.024z" style="font-variant:normal;font-weight:900;font-stretch:normal;font-family:&quot;Arial Black&quot;;-inkscape-font-specification:&quot;Arial Black, Heavy&quot;;fill:#ffd283"/><path id="path13124" d="M-410.86 836.484h8.868v28.633h-8.867z" style="font-variant:normal;font-weight:900;font-stretch:normal;font-family:&quot;Arial Black&quot;;-inkscape-font-specification:&quot;Arial Black, Heavy&quot;;fill:#ffd283"/><path id="path13126" d="M-377.969 860.39h-10.078l-1.387 4.727h-9.043l10.762-28.633h9.649l10.761 28.633h-9.257zm-1.855-6.192-3.164-10.293-3.145 10.293z" style="font-variant:normal;font-weight:900;font-stretch:normal;font-family:&quot;Arial Black&quot;;-inkscape-font-specification:&quot;Arial Black, Heavy&quot;;fill:#ffd283"/></g><g id="g3659" style="fill:#800020" transform="matrix(.95828 0 0 .95828 -4.795 51.077)"><path id="rect3544" d="M-634.768 402.362H-573v5h-61.768z" style="fill:#800020;fill-opacity:1;stroke:none"/><path id="rect3546" d="M-634.768 412.362H-573v5h-61.768z" style="fill:#800020;fill-opacity:1;stroke:none"/><path id="rect3548" d="M-634.768 422.362H-573v5h-61.768z" style="fill:#800020;fill-opacity:1;stroke:none"/><path id="rect3550" d="M-634.768 432.362H-573v5h-61.768z" style="fill:#800020;fill-opacity:1;stroke:none"/><path id="rect3552" d="M-634.768 442.362H-573v5h-61.768z" style="fill:#800020;fill-opacity:1;stroke:none"/><path id="rect3554" d="M-634.719 452.332H-575v5.031h-59.719z" style="fill:#800020;fill-opacity:1;stroke:none"/><path id="rect3556" d="M-516 402.362h60v5h-60z" style="fill:#800020;fill-opacity:1;stroke:none"/><path id="rect3558" d="M-516 412.362h60v5h-60z" style="fill:#800020;fill-opacity:1;stroke:none"/><path id="rect3560" d="M-516 422.362h60v5h-60z" style="fill:#800020;fill-opacity:1;stroke:none"/><path id="rect3562" d="M-516 432.362h60v5h-60z" style="fill:#800020;fill-opacity:1;stroke:none"/><path id="rect3564" d="M-516 442.362h60v5h-60z" style="fill:#800020;fill-opacity:1;stroke:none"/><path id="rect3566" d="M-516.982 452.332H-456v5.031h-60.982z" style="fill:#800020;fill-opacity:1;stroke:none"/></g><g id="g3673" style="fill:#800020" transform="matrix(.95828 0 0 .95828 -4.311 167.503)"><path id="rect3675" d="M-635 398.574h60v8.788h-60z" style="fill:#800020;fill-opacity:1;stroke:none"/><path id="rect3677" d="M-635 412.362h60v5h-60z" style="fill:#800020;fill-opacity:1;stroke:none"/><path id="rect3679" d="M-635 422.362h60v5h-60z" style="fill:#800020;fill-opacity:1;stroke:none"/><path id="rect3681" d="M-635 432.362h60v5h-60z" style="fill:#800020;fill-opacity:1;stroke:none"/><path id="rect3683" d="M-635 442.362h60v5h-60z" style="fill:#800020;fill-opacity:1;stroke:none"/><path id="rect3685" d="M-634.214 452.332H-575v5.031h-59.214z" style="fill:#800020;fill-opacity:1;stroke:none"/><path id="rect3687" d="M-518.778 398.574H-456v8.788h-62.778z" style="fill:#800020;fill-opacity:1;stroke:none"/><path id="rect3689" d="M-518.778 412.362H-456v5h-62.778z" style="fill:#800020;fill-opacity:1;stroke:none"/><path id="rect3691" d="M-518.778 422.362H-456v5h-62.778z" style="fill:#800020;fill-opacity:1;stroke:none"/><path id="rect3693" d="M-518.778 432.362H-456v5h-62.778z" style="fill:#800020;fill-opacity:1;stroke:none"/><path id="rect3695" d="M-518.778 442.362H-456v5h-62.778z" style="fill:#800020;fill-opacity:1;stroke:none"/><path id="rect3697" d="M-516.982 452.332H-456v5.031h-60.982z" style="fill:#800020;fill-opacity:1;stroke:none"/><path id="rect3699" d="M-628.406 462.332H-575v6.515l-45.83-3.283z" style="fill:#800020;fill-opacity:1;stroke:none"/><path id="rect3701" d="M-516.982 462.332h56.224l-13.172 3.99-43.052 2.525z" style="fill:#800020;fill-opacity:1;stroke:none"/></g><path id="path3705" d="M-555.32 610.453V552.33h-56.539" style="fill:none;stroke:#ffd283;stroke-width:1.91655445;stroke-linecap:butt;stroke-linejoin:miter;stroke-opacity:1"/><path id="path3711" d="M-498.782 610.453V552.33h56.538" style="fill:none;stroke:#ffd283;stroke-width:1.91655445;stroke-linecap:butt;stroke-linejoin:miter;stroke-opacity:1"/><path id="path3713" d="M-555.32 441.426v58.124h-56.539" style="fill:none;stroke:#ffd283;stroke-width:1.91655445;stroke-linecap:butt;stroke-linejoin:miter;stroke-opacity:1"/><path id="path3715" d="M-498.782 441.426v58.124h56.538" style="fill:none;stroke:#ffd283;stroke-width:1.91655445;stroke-linecap:butt;stroke-linejoin:miter;stroke-opacity:1"/><path id="rect2220" d="M-573.763 928.659v20.603h30.395c1.157-7.32 7.479-12.937 15.123-12.937s13.966 5.616 15.123 12.937h30.395v-20.603zm45.518 12.457c-5.819 0-10.541 4.723-10.541 10.541s4.722 10.541 10.54 10.541c5.82 0 10.542-4.722 10.542-10.54 0-5.82-4.722-10.542-10.541-10.542m-45.518 12.937v20.603h91.036v-20.603h-30.395c-1.157 7.32-7.48 12.937-15.123 12.937-7.644 0-13.966-5.617-15.123-12.937z" style="fill:#ffd283;fill-opacity:1;fill-rule:nonzero;stroke:none"/></g></g></svg>