<?xml version="1.0" encoding="UTF-8" standalone="no"?>
<svg
   id="passport"
   data-name="Passport"
   width="332.68"
   height="472.15"
   viewBox="0 0 332.68 472.15"
   version="1.1"
   sodipodi:docname="United_States_Passport.svg"
   inkscape:version="1.2.2 (732a01da63, 2022-12-09)"
   xmlns:inkscape="http://www.inkscape.org/namespaces/inkscape"
   xmlns:sodipodi="http://sodipodi.sourceforge.net/DTD/sodipodi-0.dtd"
   xmlns="http://www.w3.org/2000/svg"
   xmlns:svg="http://www.w3.org/2000/svg">
  <defs
     id="defs43057" />
  <sodipodi:namedview
     id="namedview43055"
     pagecolor="#ffffff"
     bordercolor="#000000"
     borderopacity="0.25"
     inkscape:showpageshadow="2"
     inkscape:pageopacity="0.0"
     inkscape:pagecheckerboard="0"
     inkscape:deskcolor="#d1d1d1"
     showgrid="false"
     inkscape:zoom="0.85142435"
     inkscape:cx="351.76349"
     inkscape:cy="332.97145"
     inkscape:window-width="1920"
     inkscape:window-height="991"
     inkscape:window-x="-9"
     inkscape:window-y="-9"
     inkscape:window-maximized="1"
     inkscape:current-layer="passport" />
  <path
     id="booklet"
     d="m 332.68,450.95 c 0,5.45 -2.03,10.85 -6.06,14.98 -4.03,4.13 -9.33,6.22 -14.6,6.22 H 0 V 0 h 312.02 c 5.27,0 10.58,2.09 14.6,6.21 4.02,4.13 6.06,9.58 6.06,14.98 v 429.75 z"
     fill="#1f233f"
     style="fill:#2d2b2e;fill-opacity:1" />
  <g
     id="g47567"
     transform="translate(-4.3582537)">
    <path
       id="bist-0"
       style="fill:#f9e1cd;fill-opacity:1;stroke-width:0.0695032"
       d="m 199.13195,175.60831 c -0.0695,0 -0.0695,0 -0.0695,0.07 v 0.13909 c -0.27801,0.2085 -0.69503,0.27804 -1.04255,0.27804 -0.139,0 -0.139,0.13896 -0.0695,0.27791 0.2085,0.27804 0.48652,0.48654 0.90353,0.48654 0.13902,0 0.27802,0.07 0.41703,0.13909 0.13899,0.34746 0.55602,0.55596 0.55602,0.90354 -0.41703,0.07 -0.76454,0.13896 -1.18155,0.20837 l -0.34751,0.20863 c -0.20851,0 -0.34752,-0.13909 -0.62553,-0.0699 -0.13901,0.0699 -0.13901,0.13895 0,0.20849 0.13899,0.2085 0.41702,0.13896 0.55602,0.34746 0.13901,0.07 0.278,0.07 0.41702,-0.0699 h 1.25104 c 0.34752,0.13895 1.18157,0 1.32057,0.417 -0.27801,0 -0.62554,0.2085 -0.97305,0.13895 -0.2085,-0.13895 -0.34752,-0.2085 -0.62553,-0.13895 -0.0695,0.0699 -0.0695,0.13895 0,0.2085 0,0.2085 0.55604,0.27804 0.69503,0.417 0.0695,0.0699 0.27801,0.0699 0.48652,-0.07 0.48654,0.07 1.04256,-0.07 1.5986,0 0.0695,0.07 0.13899,0.07 0.20851,0 0.278,-0.27791 0.83402,0.13909 1.32054,0.41713 0.20851,0.13896 0.41701,0.2085 0.76452,0.2085 -0.20849,0.07 -0.34751,0.417 -0.69503,0.27791 -0.13899,-0.0699 -0.34749,-0.0699 -0.55601,-0.0699 -0.13899,0 -0.27801,0.2085 0,0.27791 0.13901,0.20864 0.48652,0.20864 0.62553,0.34759 0.0695,0 0.20851,0 0.278,-0.07 0.20852,-0.2085 0.83403,-0.13895 1.11207,-0.13895 0.139,0 0.278,0.07 0.34751,-0.07 0.13901,-0.13896 0.41702,-0.07 0.55603,-0.07 0.20852,0.13909 0.48652,0.27804 0.76454,0.27804 0.34752,0.2085 0.69502,0.417 0.97303,0.6255 0.20851,0.13909 0.41702,0.20864 0.62554,0.34759 -0.0695,0.13896 0,0.27804 0,0.417 0,0 -0.0695,0 -0.0695,0.07 -0.41702,-0.13909 -0.62552,0.13895 -0.41702,0.27804 0.0695,0.07 0.13902,0.13896 0.20851,0.13896 0.0695,0.0699 0.13902,0.13895 0.27802,0.0699 0.20851,-0.0699 0.34752,-0.20849 0.55603,-0.34758 0.278,0 0.417,-0.2085 0.139,-0.417 -0.27802,-0.13896 -0.27802,-0.48655 -0.34751,-0.834 0,-0.0699 -0.0696,-0.13909 -0.13901,-0.13909 -0.13902,0 -0.27802,-0.07 -0.41703,-0.13895 -0.41702,-0.27805 -0.13899,-0.834 -0.48651,-1.18159 0,0 -0.0696,-0.07 0,-0.07 0.0695,-0.07 0.2085,0 0.34752,0 0.90354,0.20864 2.15459,1.73768 3.19711,1.04263 0.20852,-0.0699 0.20852,-0.27804 0.0696,-0.48654 -0.48652,-0.6255 -2.78012,-0.97309 -3.75318,-1.251 -1.25105,-0.90354 -3.40564,-0.41713 -5.00421,-1.18158 -0.90354,-0.55609 -1.59857,-0.90354 -2.0156,-0.834 -0.20851,-0.2085 -0.55603,-0.27804 -0.62553,-0.55609 0.13902,-0.13895 0.20851,-0.2085 0.20851,-0.27804 0,-0.07 -0.20851,-0.2085 -0.48652,-0.2085 -0.0695,-0.2085 -0.278,-0.34745 -0.48651,-0.34745 -0.0695,-0.13909 -0.13901,-0.2085 -0.34752,-0.2085 z m 4.87391,3.70093 c 0.11299,0 0.23457,0.0175 0.33882,0.0525 0.3475,0.0699 0.62554,0.13896 0.83402,0.2085 0.27805,0.13895 0.48656,0.27804 0.69507,0.48654 l 0.139,0.13896 h -0.27802 c -0.2332,0 -0.49464,0 -0.69504,0 -0.34753,0 -0.69503,0 -0.97304,-0.13896 -0.278,-0.13909 -0.83403,-0.55608 -1.11204,-0.55608 0.0695,-0.07 0.62553,-0.07 0.76452,-0.13896 0.0695,-0.035 0.17377,-0.0525 0.28671,-0.0525 z" />
    <path
       id="path35221"
       d="m 161.11487,161.88771 h -0.001 c -6.42208,0.52165 -12.76073,1.56509 -18.95344,3.10462 l 1.34065,5.39556 c 5.90431,-1.46716 11.94766,-2.46096 18.06392,-2.95867 z m 0.91629,11.29488 c -5.80698,0.47188 -11.53749,1.4151 -17.13944,2.80788 l 1.34079,5.39569 c 5.31143,-1.31987 10.74511,-2.21453 16.24975,-2.66139 l -0.45015,-5.54218 z"
       style="fill:#f9e1cd;fill-opacity:1;stroke-width:0.0695032" />
    <g
       id="path35152"
       transform="matrix(0.06950308,0,0,0.06950308,122.53957,152.25531)">
      <path
         id="path39609"
         style="color:#000000;fill:#f9e1cd;fill-opacity:1;stroke-width:8;-inkscape-stroke:none"
         d="M 690.47461,2.4042969 553.20508,114.16992 399.18945,25.867188 a 4.0004,4.0004 0 0 0 -4.98242,0.816406 L 276.62891,159.32812 110.30273,97.070312 a 4.0004,4.0004 0 0 0 -4.78515,1.611329 L 0.31640625,265.38281 A 4.0004,4.0004 0 0 0 0.02539063,269.0957 L 132.42578,577.19531 a 4.0004,4.0004 0 0 0 5.31836,2.06836 C 299.02328,506.49865 490.48964,461.61866 692.89062,462.11719 a 4.0004,4.0004 0 0 0 0.0195,0 c 202.40093,-0.50052 393.86498,44.38145 555.14458,117.14648 a 4.0004,4.0004 0 0 0 5.3203,-2.06836 L 1385.7754,269.0957 a 4.0004,4.0004 0 0 0 -0.293,-3.71289 L 1280.2832,98.681641 a 4.0004,4.0004 0 0 0 -4.7852,-1.611329 L 1109.1699,159.32812 991.59375,26.683594 a 4.0004,4.0004 0 0 0 -4.98242,-0.816406 L 832.5957,114.16992 695.52734,2.40625 A 4.0004,4.0004 0 0 0 690.47461,2.4043 Z M 693,23 l 134.63281,109.55078 -0.47851,7.22852 -25.13086,308.5957 3.93359,0.32031 c -73.95388,-6.27288 -149.91238,-6.19691 -225.07617,-0.0488 l 3.32617,-0.26953 -25.65234,-315.91601 z m -293.09961,23.900391 150.69336,86.386719 25.63867,315.73633 3.93946,-0.32032 c -74.15873,5.7733 -149.35566,18.16373 -222.6875,36.44727 C 285.20552,502.84411 213.046,527.21377 143.60547,557.125 L 19.564453,268.52734 114.72656,117.69531 l 161.93946,60.66407 77.06836,307.72851 7.76171,-1.94531 -76.91406,-307.10742 z m 586.27734,0.01172 115.72657,130.457029 -1.5117,5.27344 -75.3516,301.6289 3.834,0.95704 c -72.18079,-18.19551 -147.45971,-30.44335 -222.84961,-36.5 l 0.002,-0.0274 3.96875,0.32422 25.13672,-308.65625 0.46485,-7.02734 z m 286.09567,70.910159 95.1621,150.83007 -124.041,288.59766 c -68.3825,-29.45554 -139.4046,-53.46744 -210.5781,-71.0918 l 75.3047,-301.44531 1.7324,-6.04883 z" />
    </g>
    <g
       id="use35154"
       transform="matrix(-0.06950308,0,0,0.06950308,218.94034,152.26392)"
       style="fill:#f9e1cd;fill-opacity:1">
      <path
         d="m 151.9,276.4 -29.71,10.14 5.982,-30.82 -23.63,-20.67 29.69,-10.21 6.066,-30.8 23.69,20.6 29.72,-10.15 -5.987,30.83 23.64,20.66 -29.69,10.21 -6.08,30.81 z"
         fill="#000000"
         id="path39533"
         style="fill:#f9e1cd;fill-opacity:1" />
      <g
         id="g39543"
         transform="rotate(41,177.7,248.5)"
         style="fill:#f9e1cd;fill-opacity:1">
        <g
           id="g39539"
           transform="rotate(60,160.9,259.2)"
           style="fill:#f9e1cd;fill-opacity:1" />
        <g
           id="use39541"
           transform="translate(-0.13660254,-0.03660254)"
           style="fill:#f9e1cd;fill-opacity:1" />
      </g>
      <g
         id="use39545"
         transform="rotate(161,160.5235,252.20348)"
         style="fill:#f9e1cd;fill-opacity:1">
        <g
           id="g39567"
           transform="rotate(60,160.9,259.2)"
           style="fill:#f9e1cd;fill-opacity:1" />
        <g
           id="use39569"
           transform="translate(-0.13660254,-0.03660254)"
           style="fill:#f9e1cd;fill-opacity:1" />
      </g>
      <g
         id="use39547"
         transform="rotate(-79,151.06658,254.24251)"
         style="fill:#f9e1cd;fill-opacity:1">
        <g
           id="g39587"
           transform="rotate(60,160.9,259.2)"
           style="fill:#f9e1cd;fill-opacity:1" />
        <g
           id="use39589"
           transform="translate(-0.13660254,-0.03660254)"
           style="fill:#f9e1cd;fill-opacity:1" />
      </g>
    </g>
    <g
       id="g-9"
       transform="matrix(0.06950308,0,0,0.06950308,122.53957,152.25531)">
      <path
         id="path35165"
         style="fill:#f9e1cd;fill-opacity:1;stroke:none"
         d="m 140.29883,194.03906 -6.06641,30.80078 -29.68945,10.21094 23.62891,20.66992 -5.98243,30.81836 29.71094,-10.13867 L 175.5918,297 l 6.08008,-30.81055 29.68945,-10.20898 -23.64063,-20.66016 5.98633,-30.83008 -29.71875,10.15039 z m 131.40039,137.66016 c 0.7,4.39999 1.10156,8.90039 1.10156,13.40039 0,45.49995 -37.10004,82.5 -82.5,82.5 -30.69997,0 -57.60079,-16.90003 -71.80078,-42 C 125.89999,423.39957 159.29965,452 199.09961,452 c 45.19995,0 82.09961,-36.89965 82.09961,-82.09961 0,-13.69999 -3.39844,-26.69962 -9.39844,-38.09961 z" />
    </g>
    <path
       id="path35181"
       style="fill:#f9e1cd;fill-opacity:1;stroke-width:0.0695032"
       d="m 197.32487,172.74487 h -0.003 c 0,1.4e-4 0,0 0.003,0 z m -0.003,0 -0.33368,1.34409 c 5.72999,1.42438 11.3322,3.30975 16.74565,5.63513 l -2.19562,5.10782 c -5.13919,-2.20646 -10.44985,-3.99565 -15.88956,-5.34645 l -0.33516,1.34999 c 5.37117,1.33305 10.62001,3.09978 15.68678,5.27813 l 3.29312,-7.65932 c -5.48552,-2.35672 -11.16145,-4.26724 -16.97153,-5.70939 z" />
    <g
       id="c-1"
       transform="matrix(0.06950308,0,0,0.06950308,130.38647,189.21)"
       style="fill:#f9e1cd;fill-opacity:1;stroke:none">
      <path
         d="m 580,-245 v 121"
         stroke="#f7db17"
         id="path35188"
         style="fill:#f9e1cd;fill-opacity:1;stroke:none" />
      <g
         id="k-5"
         stroke="#000"
         style="fill:#f9e1cd;fill-opacity:1;stroke:none">
        <path
           d="m 580,-245 -8,11 c -4,0 -3,3 -2,6 -5,-3 -5,2 -5,7 -4,-8 -8,-9 -13,-6 0,-5 -7,-5 -9,-6 l -8,-4 12,19 c 2,5 1,8 3,12 -10,-4 -16,-1 -16,-5 -1,9 3,17 11,24 -5,-2 -10,-1 -14,0 2,8 8,10 14,12 -10,2 -6,16 -11,15 5,4 12,2 17,0 -6,4 -7,9 -7,14 3,1 7,0 11,-2 -3,3 -2,10 -5,13 9,1 13,-1 16,-4 -4,6 -1,10 -1,14 3,-3 6,-8 10,-8 -2,7 4,6 5,10"
           fill="#f7db17"
           stroke-width="2"
           id="path35190"
           style="fill:#f9e1cd;fill-opacity:1;stroke:none" />
        <path
           id="ellipse35192"
           transform="rotate(-22)"
           d="m 593,-1 a 2,3 0 0 1 -2,3 2,3 0 0 1 -2,-3 2,3 0 0 1 2,-3 2,3 0 0 1 2,3 z" />
        <path
           id="circle35194"
           d="m 553.59998,-211.7 a 1.5,1.5 0 0 1 -1.5,1.5 1.5,1.5 0 0 1 -1.5,-1.5 1.5,1.5 0 0 1 1.5,-1.5 1.5,1.5 0 0 1 1.5,1.5 z" />
        <path
           id="circle35196"
           d="m 566.59998,-212.7 a 1.5,1.5 0 0 1 -1.5,1.5 1.5,1.5 0 0 1 -1.5,-1.5 1.5,1.5 0 0 1 1.5,-1.5 1.5,1.5 0 0 1 1.5,1.5 z" />
        <path
           id="circle35198"
           d="m 571.09998,-182.7 a 2.5,2.5 0 0 1 -2.5,2.5 2.5,2.5 0 0 1 -2.5,-2.5 2.5,2.5 0 0 1 2.5,-2.5 2.5,2.5 0 0 1 2.5,2.5 z" />
        <path
           d="m 580.1,-156.7 v 8 c 0,2 -5,3 -10,2 m 5,-3 -8,-4 m 8,1 -8,-5 m 8,25 c 1,-3 0,-5 0,-7 m -5,1 c 1,8 -3,10 -5,14 7,-7 7,-10 7,-14 m -6,0 c 1,-2 2,-4 4,-5 m -20,9 c 4,-2 8,1 12,-6 m -12,6 c 6,-1 7,-11 13,-13 m -10,1 c 3,-2 6,-4 7,-5 m -16,6 c 4,-4 8,-8 12,-8 m -12,8 c 3,-4 3,-11 10,-12 m -5,-1 c 3,-2 5,-2 6,-2 m -20,1 c 4,1 9,0 11,-1 m -8,-4 c 2,-4 6,-6 10,-4 m -3,-6 c 4,1 5,2 6,2 m -20,-13 c 4,4 9,2 15,8 m -7,-9 c 4,2 10,3 10,8 m 24,-4 c 0,2 1,4 0,5 -9,-4 -10,-4 -10,-10 m 14,-10 c 3,14 0,15 -4,15 -4,-4 -7,-4 -10,-5 -2,-1 -3,-2 -5,-4 m 6,-2 c 4,-1 9,3 12,6 m -42,-21 c 1,3 1,6 6,8 1,7 5,7 8,9 -3,-2 -5,-6 -6,-12 m 31,-4 c 1,1 3,4 3,4 m -8,-4 c 0,1 1,4 1,5 m -7,-5 c 1,1 3,4 3,5 m -10,-4 c 2,1 8,4 8,6 m -13,-5 c 1,1 1,4 3,6 m 27,-35 c 0,3 -3,4 -5,5 2,1 5,2 5,5"
           id="path35200"
           style="fill:#f9e1cd;fill-opacity:1;stroke:none" />
      </g>
      <path
         id="circle35203"
         d="m 601.59998,-213.2 a 1.5,1.5 0 0 1 -1.5,1.5 1.5,1.5 0 0 1 -1.5,-1.5 1.5,1.5 0 0 1 1.5,-1.5 1.5,1.5 0 0 1 1.5,1.5 z" />
      <g
         id="use35205"
         stroke="#000"
         style="fill:#f9e1cd;fill-opacity:1;stroke:none"
         transform="matrix(-1,0,0,1,1160,0)">
        <path
           d="m 580,-245 -8,11 c -4,0 -3,3 -2,6 -5,-3 -5,2 -5,7 -4,-8 -8,-9 -13,-6 0,-5 -7,-5 -9,-6 l -8,-4 12,19 c 2,5 1,8 3,12 -10,-4 -16,-1 -16,-5 -1,9 3,17 11,24 -5,-2 -10,-1 -14,0 2,8 8,10 14,12 -10,2 -6,16 -11,15 5,4 12,2 17,0 -6,4 -7,9 -7,14 3,1 7,0 11,-2 -3,3 -2,10 -5,13 9,1 13,-1 16,-4 -4,6 -1,10 -1,14 3,-3 6,-8 10,-8 -2,7 4,6 5,10"
           fill="#f7db17"
           stroke-width="2"
           id="path47569"
           style="fill:#f9e1cd;fill-opacity:1;stroke:none" />
        <path
           id="ellipse47571"
           transform="rotate(-22)"
           d="m 593,-1 a 2,3 0 0 1 -2,3 2,3 0 0 1 -2,-3 2,3 0 0 1 2,-3 2,3 0 0 1 2,3 z" />
        <path
           id="circle47573"
           d="m 553.59998,-211.7 a 1.5,1.5 0 0 1 -1.5,1.5 1.5,1.5 0 0 1 -1.5,-1.5 1.5,1.5 0 0 1 1.5,-1.5 1.5,1.5 0 0 1 1.5,1.5 z" />
        <path
           id="circle47575"
           d="m 566.59998,-212.7 a 1.5,1.5 0 0 1 -1.5,1.5 1.5,1.5 0 0 1 -1.5,-1.5 1.5,1.5 0 0 1 1.5,-1.5 1.5,1.5 0 0 1 1.5,1.5 z" />
        <path
           id="circle47577"
           d="m 571.09998,-182.7 a 2.5,2.5 0 0 1 -2.5,2.5 2.5,2.5 0 0 1 -2.5,-2.5 2.5,2.5 0 0 1 2.5,-2.5 2.5,2.5 0 0 1 2.5,2.5 z" />
        <path
           d="m 580.1,-156.7 v 8 c 0,2 -5,3 -10,2 m 5,-3 -8,-4 m 8,1 -8,-5 m 8,25 c 1,-3 0,-5 0,-7 m -5,1 c 1,8 -3,10 -5,14 7,-7 7,-10 7,-14 m -6,0 c 1,-2 2,-4 4,-5 m -20,9 c 4,-2 8,1 12,-6 m -12,6 c 6,-1 7,-11 13,-13 m -10,1 c 3,-2 6,-4 7,-5 m -16,6 c 4,-4 8,-8 12,-8 m -12,8 c 3,-4 3,-11 10,-12 m -5,-1 c 3,-2 5,-2 6,-2 m -20,1 c 4,1 9,0 11,-1 m -8,-4 c 2,-4 6,-6 10,-4 m -3,-6 c 4,1 5,2 6,2 m -20,-13 c 4,4 9,2 15,8 m -7,-9 c 4,2 10,3 10,8 m 24,-4 c 0,2 1,4 0,5 -9,-4 -10,-4 -10,-10 m 14,-10 c 3,14 0,15 -4,15 -4,-4 -7,-4 -10,-5 -2,-1 -3,-2 -5,-4 m 6,-2 c 4,-1 9,3 12,6 m -42,-21 c 1,3 1,6 6,8 1,7 5,7 8,9 -3,-2 -5,-6 -6,-12 m 31,-4 c 1,1 3,4 3,4 m -8,-4 c 0,1 1,4 1,5 m -7,-5 c 1,1 3,4 3,5 m -10,-4 c 2,1 8,4 8,6 m -13,-5 c 1,1 1,4 3,6 m 27,-35 c 0,3 -3,4 -5,5 2,1 5,2 5,5"
           id="path47579"
           style="fill:#f9e1cd;fill-opacity:1;stroke:none" />
      </g>
      <g
         transform="translate(-84.87,212.3)"
         id="g35211"
         style="fill:#f9e1cd;fill-opacity:1;stroke:none">
        <path
           d="m 635,-419 c 21,-2 41,-2 60,0 m -62,-9 c 23,-2 43,-3 64,0"
           stroke="#000"
           stroke-width="3"
           id="path35207"
           style="fill:#f9e1cd;fill-opacity:1;stroke:none" />
        <path
           d="m 635,-419 c 21,-2 41,-2 60,0 m -62,-9 c 23,-2 43,-3 64,0"
           stroke="#f7db17"
           id="path35209"
           style="fill:#f9e1cd;fill-opacity:1;stroke:none" />
      </g>
      <path
         d="m 579.1,-137.7 c 2,3 3,8 1,15 m -4,-21 h 6 m -10,-20 c 0,3 -2,7 8,7 8,0 14,-9 1,-7 m -3,-15 c -2,1 -4,3 -5,6"
         stroke="#000"
         id="path35213"
         style="fill:#f9e1cd;fill-opacity:1;stroke:none" />
    </g>
    <g
       id="use35216"
       transform="matrix(0.06940783,-0.00363751,0.00363751,0.06940783,126.75129,180.81704)"
       style="fill:#f9e1cd;fill-opacity:1;stroke:none">
      <path
         d="m 580,-245 v 121"
         stroke="#f7db17"
         id="path47583"
         style="fill:#f9e1cd;fill-opacity:1;stroke:none" />
      <g
         id="g47597"
         stroke="#000"
         style="fill:#f9e1cd;fill-opacity:1;stroke:none">
        <path
           d="m 580,-245 -8,11 c -4,0 -3,3 -2,6 -5,-3 -5,2 -5,7 -4,-8 -8,-9 -13,-6 0,-5 -7,-5 -9,-6 l -8,-4 12,19 c 2,5 1,8 3,12 -10,-4 -16,-1 -16,-5 -1,9 3,17 11,24 -5,-2 -10,-1 -14,0 2,8 8,10 14,12 -10,2 -6,16 -11,15 5,4 12,2 17,0 -6,4 -7,9 -7,14 3,1 7,0 11,-2 -3,3 -2,10 -5,13 9,1 13,-1 16,-4 -4,6 -1,10 -1,14 3,-3 6,-8 10,-8 -2,7 4,6 5,10"
           fill="#f7db17"
           stroke-width="2"
           id="path47585"
           style="fill:#f9e1cd;fill-opacity:1;stroke:none" />
        <path
           id="ellipse47587"
           transform="rotate(-22)"
           d="m 593,-1 a 2,3 0 0 1 -2,3 2,3 0 0 1 -2,-3 2,3 0 0 1 2,-3 2,3 0 0 1 2,3 z" />
        <path
           id="circle47589"
           d="m 553.59998,-211.7 a 1.5,1.5 0 0 1 -1.5,1.5 1.5,1.5 0 0 1 -1.5,-1.5 1.5,1.5 0 0 1 1.5,-1.5 1.5,1.5 0 0 1 1.5,1.5 z" />
        <path
           id="circle47591"
           d="m 566.59998,-212.7 a 1.5,1.5 0 0 1 -1.5,1.5 1.5,1.5 0 0 1 -1.5,-1.5 1.5,1.5 0 0 1 1.5,-1.5 1.5,1.5 0 0 1 1.5,1.5 z" />
        <path
           id="circle47593"
           d="m 571.09998,-182.7 a 2.5,2.5 0 0 1 -2.5,2.5 2.5,2.5 0 0 1 -2.5,-2.5 2.5,2.5 0 0 1 2.5,-2.5 2.5,2.5 0 0 1 2.5,2.5 z" />
        <path
           d="m 580.1,-156.7 v 8 c 0,2 -5,3 -10,2 m 5,-3 -8,-4 m 8,1 -8,-5 m 8,25 c 1,-3 0,-5 0,-7 m -5,1 c 1,8 -3,10 -5,14 7,-7 7,-10 7,-14 m -6,0 c 1,-2 2,-4 4,-5 m -20,9 c 4,-2 8,1 12,-6 m -12,6 c 6,-1 7,-11 13,-13 m -10,1 c 3,-2 6,-4 7,-5 m -16,6 c 4,-4 8,-8 12,-8 m -12,8 c 3,-4 3,-11 10,-12 m -5,-1 c 3,-2 5,-2 6,-2 m -20,1 c 4,1 9,0 11,-1 m -8,-4 c 2,-4 6,-6 10,-4 m -3,-6 c 4,1 5,2 6,2 m -20,-13 c 4,4 9,2 15,8 m -7,-9 c 4,2 10,3 10,8 m 24,-4 c 0,2 1,4 0,5 -9,-4 -10,-4 -10,-10 m 14,-10 c 3,14 0,15 -4,15 -4,-4 -7,-4 -10,-5 -2,-1 -3,-2 -5,-4 m 6,-2 c 4,-1 9,3 12,6 m -42,-21 c 1,3 1,6 6,8 1,7 5,7 8,9 -3,-2 -5,-6 -6,-12 m 31,-4 c 1,1 3,4 3,4 m -8,-4 c 0,1 1,4 1,5 m -7,-5 c 1,1 3,4 3,5 m -10,-4 c 2,1 8,4 8,6 m -13,-5 c 1,1 1,4 3,6 m 27,-35 c 0,3 -3,4 -5,5 2,1 5,2 5,5"
           id="path47595"
           style="fill:#f9e1cd;fill-opacity:1;stroke:none" />
      </g>
      <path
         id="circle47599"
         d="m 601.59998,-213.2 a 1.5,1.5 0 0 1 -1.5,1.5 1.5,1.5 0 0 1 -1.5,-1.5 1.5,1.5 0 0 1 1.5,-1.5 1.5,1.5 0 0 1 1.5,1.5 z" />
      <g
         id="g47613"
         stroke="#000"
         style="fill:#f9e1cd;fill-opacity:1;stroke:none"
         transform="matrix(-1,0,0,1,1160,0)">
        <path
           d="m 580,-245 -8,11 c -4,0 -3,3 -2,6 -5,-3 -5,2 -5,7 -4,-8 -8,-9 -13,-6 0,-5 -7,-5 -9,-6 l -8,-4 12,19 c 2,5 1,8 3,12 -10,-4 -16,-1 -16,-5 -1,9 3,17 11,24 -5,-2 -10,-1 -14,0 2,8 8,10 14,12 -10,2 -6,16 -11,15 5,4 12,2 17,0 -6,4 -7,9 -7,14 3,1 7,0 11,-2 -3,3 -2,10 -5,13 9,1 13,-1 16,-4 -4,6 -1,10 -1,14 3,-3 6,-8 10,-8 -2,7 4,6 5,10"
           fill="#f7db17"
           stroke-width="2"
           id="path47601"
           style="fill:#f9e1cd;fill-opacity:1;stroke:none" />
        <path
           id="ellipse47603"
           transform="rotate(-22)"
           d="m 593,-1 a 2,3 0 0 1 -2,3 2,3 0 0 1 -2,-3 2,3 0 0 1 2,-3 2,3 0 0 1 2,3 z" />
        <path
           id="circle47605"
           d="m 553.59998,-211.7 a 1.5,1.5 0 0 1 -1.5,1.5 1.5,1.5 0 0 1 -1.5,-1.5 1.5,1.5 0 0 1 1.5,-1.5 1.5,1.5 0 0 1 1.5,1.5 z" />
        <path
           id="circle47607"
           d="m 566.59998,-212.7 a 1.5,1.5 0 0 1 -1.5,1.5 1.5,1.5 0 0 1 -1.5,-1.5 1.5,1.5 0 0 1 1.5,-1.5 1.5,1.5 0 0 1 1.5,1.5 z" />
        <path
           id="circle47609"
           d="m 571.09998,-182.7 a 2.5,2.5 0 0 1 -2.5,2.5 2.5,2.5 0 0 1 -2.5,-2.5 2.5,2.5 0 0 1 2.5,-2.5 2.5,2.5 0 0 1 2.5,2.5 z" />
        <path
           d="m 580.1,-156.7 v 8 c 0,2 -5,3 -10,2 m 5,-3 -8,-4 m 8,1 -8,-5 m 8,25 c 1,-3 0,-5 0,-7 m -5,1 c 1,8 -3,10 -5,14 7,-7 7,-10 7,-14 m -6,0 c 1,-2 2,-4 4,-5 m -20,9 c 4,-2 8,1 12,-6 m -12,6 c 6,-1 7,-11 13,-13 m -10,1 c 3,-2 6,-4 7,-5 m -16,6 c 4,-4 8,-8 12,-8 m -12,8 c 3,-4 3,-11 10,-12 m -5,-1 c 3,-2 5,-2 6,-2 m -20,1 c 4,1 9,0 11,-1 m -8,-4 c 2,-4 6,-6 10,-4 m -3,-6 c 4,1 5,2 6,2 m -20,-13 c 4,4 9,2 15,8 m -7,-9 c 4,2 10,3 10,8 m 24,-4 c 0,2 1,4 0,5 -9,-4 -10,-4 -10,-10 m 14,-10 c 3,14 0,15 -4,15 -4,-4 -7,-4 -10,-5 -2,-1 -3,-2 -5,-4 m 6,-2 c 4,-1 9,3 12,6 m -42,-21 c 1,3 1,6 6,8 1,7 5,7 8,9 -3,-2 -5,-6 -6,-12 m 31,-4 c 1,1 3,4 3,4 m -8,-4 c 0,1 1,4 1,5 m -7,-5 c 1,1 3,4 3,5 m -10,-4 c 2,1 8,4 8,6 m -13,-5 c 1,1 1,4 3,6 m 27,-35 c 0,3 -3,4 -5,5 2,1 5,2 5,5"
           id="path47611"
           style="fill:#f9e1cd;fill-opacity:1;stroke:none" />
      </g>
      <g
         transform="translate(-84.87,212.3)"
         id="g47619"
         style="fill:#f9e1cd;fill-opacity:1;stroke:none">
        <path
           d="m 635,-419 c 21,-2 41,-2 60,0 m -62,-9 c 23,-2 43,-3 64,0"
           stroke="#000"
           stroke-width="3"
           id="path47615"
           style="fill:#f9e1cd;fill-opacity:1;stroke:none" />
        <path
           d="m 635,-419 c 21,-2 41,-2 60,0 m -62,-9 c 23,-2 43,-3 64,0"
           stroke="#f7db17"
           id="path47617"
           style="fill:#f9e1cd;fill-opacity:1;stroke:none" />
      </g>
      <path
         d="m 579.1,-137.7 c 2,3 3,8 1,15 m -4,-21 h 6 m -10,-20 c 0,3 -2,7 8,7 8,0 14,-9 1,-7 m -3,-15 c -2,1 -4,3 -5,6"
         stroke="#000"
         id="path47621"
         style="fill:#f9e1cd;fill-opacity:1;stroke:none" />
    </g>
    <g
       id="use35218"
       transform="matrix(0.06940783,0.00363751,-0.00363751,0.06940783,134.08125,176.59552)"
       style="fill:#f9e1cd;fill-opacity:1;stroke:none">
      <path
         d="m 580,-245 v 121"
         stroke="#f7db17"
         id="path47625"
         style="fill:#f9e1cd;fill-opacity:1;stroke:none" />
      <g
         id="g47639"
         stroke="#000"
         style="fill:#f9e1cd;fill-opacity:1;stroke:none">
        <path
           d="m 580,-245 -8,11 c -4,0 -3,3 -2,6 -5,-3 -5,2 -5,7 -4,-8 -8,-9 -13,-6 0,-5 -7,-5 -9,-6 l -8,-4 12,19 c 2,5 1,8 3,12 -10,-4 -16,-1 -16,-5 -1,9 3,17 11,24 -5,-2 -10,-1 -14,0 2,8 8,10 14,12 -10,2 -6,16 -11,15 5,4 12,2 17,0 -6,4 -7,9 -7,14 3,1 7,0 11,-2 -3,3 -2,10 -5,13 9,1 13,-1 16,-4 -4,6 -1,10 -1,14 3,-3 6,-8 10,-8 -2,7 4,6 5,10"
           fill="#f7db17"
           stroke-width="2"
           id="path47627"
           style="fill:#f9e1cd;fill-opacity:1;stroke:none" />
        <path
           id="ellipse47629"
           transform="rotate(-22)"
           d="m 593,-1 a 2,3 0 0 1 -2,3 2,3 0 0 1 -2,-3 2,3 0 0 1 2,-3 2,3 0 0 1 2,3 z" />
        <path
           id="circle47631"
           d="m 553.59998,-211.7 a 1.5,1.5 0 0 1 -1.5,1.5 1.5,1.5 0 0 1 -1.5,-1.5 1.5,1.5 0 0 1 1.5,-1.5 1.5,1.5 0 0 1 1.5,1.5 z" />
        <path
           id="circle47633"
           d="m 566.59998,-212.7 a 1.5,1.5 0 0 1 -1.5,1.5 1.5,1.5 0 0 1 -1.5,-1.5 1.5,1.5 0 0 1 1.5,-1.5 1.5,1.5 0 0 1 1.5,1.5 z" />
        <path
           id="circle47635"
           d="m 571.09998,-182.7 a 2.5,2.5 0 0 1 -2.5,2.5 2.5,2.5 0 0 1 -2.5,-2.5 2.5,2.5 0 0 1 2.5,-2.5 2.5,2.5 0 0 1 2.5,2.5 z" />
        <path
           d="m 580.1,-156.7 v 8 c 0,2 -5,3 -10,2 m 5,-3 -8,-4 m 8,1 -8,-5 m 8,25 c 1,-3 0,-5 0,-7 m -5,1 c 1,8 -3,10 -5,14 7,-7 7,-10 7,-14 m -6,0 c 1,-2 2,-4 4,-5 m -20,9 c 4,-2 8,1 12,-6 m -12,6 c 6,-1 7,-11 13,-13 m -10,1 c 3,-2 6,-4 7,-5 m -16,6 c 4,-4 8,-8 12,-8 m -12,8 c 3,-4 3,-11 10,-12 m -5,-1 c 3,-2 5,-2 6,-2 m -20,1 c 4,1 9,0 11,-1 m -8,-4 c 2,-4 6,-6 10,-4 m -3,-6 c 4,1 5,2 6,2 m -20,-13 c 4,4 9,2 15,8 m -7,-9 c 4,2 10,3 10,8 m 24,-4 c 0,2 1,4 0,5 -9,-4 -10,-4 -10,-10 m 14,-10 c 3,14 0,15 -4,15 -4,-4 -7,-4 -10,-5 -2,-1 -3,-2 -5,-4 m 6,-2 c 4,-1 9,3 12,6 m -42,-21 c 1,3 1,6 6,8 1,7 5,7 8,9 -3,-2 -5,-6 -6,-12 m 31,-4 c 1,1 3,4 3,4 m -8,-4 c 0,1 1,4 1,5 m -7,-5 c 1,1 3,4 3,5 m -10,-4 c 2,1 8,4 8,6 m -13,-5 c 1,1 1,4 3,6 m 27,-35 c 0,3 -3,4 -5,5 2,1 5,2 5,5"
           id="path47637"
           style="fill:#f9e1cd;fill-opacity:1;stroke:none" />
      </g>
      <path
         id="circle47641"
         d="m 601.59998,-213.2 a 1.5,1.5 0 0 1 -1.5,1.5 1.5,1.5 0 0 1 -1.5,-1.5 1.5,1.5 0 0 1 1.5,-1.5 1.5,1.5 0 0 1 1.5,1.5 z" />
      <g
         id="g47655"
         stroke="#000"
         style="fill:#f9e1cd;fill-opacity:1;stroke:none"
         transform="matrix(-1,0,0,1,1160,0)">
        <path
           d="m 580,-245 -8,11 c -4,0 -3,3 -2,6 -5,-3 -5,2 -5,7 -4,-8 -8,-9 -13,-6 0,-5 -7,-5 -9,-6 l -8,-4 12,19 c 2,5 1,8 3,12 -10,-4 -16,-1 -16,-5 -1,9 3,17 11,24 -5,-2 -10,-1 -14,0 2,8 8,10 14,12 -10,2 -6,16 -11,15 5,4 12,2 17,0 -6,4 -7,9 -7,14 3,1 7,0 11,-2 -3,3 -2,10 -5,13 9,1 13,-1 16,-4 -4,6 -1,10 -1,14 3,-3 6,-8 10,-8 -2,7 4,6 5,10"
           fill="#f7db17"
           stroke-width="2"
           id="path47643"
           style="fill:#f9e1cd;fill-opacity:1;stroke:none" />
        <path
           id="ellipse47645"
           transform="rotate(-22)"
           d="m 593,-1 a 2,3 0 0 1 -2,3 2,3 0 0 1 -2,-3 2,3 0 0 1 2,-3 2,3 0 0 1 2,3 z" />
        <path
           id="circle47647"
           d="m 553.59998,-211.7 a 1.5,1.5 0 0 1 -1.5,1.5 1.5,1.5 0 0 1 -1.5,-1.5 1.5,1.5 0 0 1 1.5,-1.5 1.5,1.5 0 0 1 1.5,1.5 z" />
        <path
           id="circle47649"
           d="m 566.59998,-212.7 a 1.5,1.5 0 0 1 -1.5,1.5 1.5,1.5 0 0 1 -1.5,-1.5 1.5,1.5 0 0 1 1.5,-1.5 1.5,1.5 0 0 1 1.5,1.5 z" />
        <path
           id="circle47651"
           d="m 571.09998,-182.7 a 2.5,2.5 0 0 1 -2.5,2.5 2.5,2.5 0 0 1 -2.5,-2.5 2.5,2.5 0 0 1 2.5,-2.5 2.5,2.5 0 0 1 2.5,2.5 z" />
        <path
           d="m 580.1,-156.7 v 8 c 0,2 -5,3 -10,2 m 5,-3 -8,-4 m 8,1 -8,-5 m 8,25 c 1,-3 0,-5 0,-7 m -5,1 c 1,8 -3,10 -5,14 7,-7 7,-10 7,-14 m -6,0 c 1,-2 2,-4 4,-5 m -20,9 c 4,-2 8,1 12,-6 m -12,6 c 6,-1 7,-11 13,-13 m -10,1 c 3,-2 6,-4 7,-5 m -16,6 c 4,-4 8,-8 12,-8 m -12,8 c 3,-4 3,-11 10,-12 m -5,-1 c 3,-2 5,-2 6,-2 m -20,1 c 4,1 9,0 11,-1 m -8,-4 c 2,-4 6,-6 10,-4 m -3,-6 c 4,1 5,2 6,2 m -20,-13 c 4,4 9,2 15,8 m -7,-9 c 4,2 10,3 10,8 m 24,-4 c 0,2 1,4 0,5 -9,-4 -10,-4 -10,-10 m 14,-10 c 3,14 0,15 -4,15 -4,-4 -7,-4 -10,-5 -2,-1 -3,-2 -5,-4 m 6,-2 c 4,-1 9,3 12,6 m -42,-21 c 1,3 1,6 6,8 1,7 5,7 8,9 -3,-2 -5,-6 -6,-12 m 31,-4 c 1,1 3,4 3,4 m -8,-4 c 0,1 1,4 1,5 m -7,-5 c 1,1 3,4 3,5 m -10,-4 c 2,1 8,4 8,6 m -13,-5 c 1,1 1,4 3,6 m 27,-35 c 0,3 -3,4 -5,5 2,1 5,2 5,5"
           id="path47653"
           style="fill:#f9e1cd;fill-opacity:1;stroke:none" />
      </g>
      <g
         transform="translate(-84.87,212.3)"
         id="g47661"
         style="fill:#f9e1cd;fill-opacity:1;stroke:none">
        <path
           d="m 635,-419 c 21,-2 41,-2 60,0 m -62,-9 c 23,-2 43,-3 64,0"
           stroke="#000"
           stroke-width="3"
           id="path47657"
           style="fill:#f9e1cd;fill-opacity:1;stroke:none" />
        <path
           d="m 635,-419 c 21,-2 41,-2 60,0 m -62,-9 c 23,-2 43,-3 64,0"
           stroke="#f7db17"
           id="path47659"
           style="fill:#f9e1cd;fill-opacity:1;stroke:none" />
      </g>
      <path
         d="m 579.1,-137.7 c 2,3 3,8 1,15 m -4,-21 h 6 m -10,-20 c 0,3 -2,7 8,7 8,0 14,-9 1,-7 m -3,-15 c -2,1 -4,3 -5,6"
         stroke="#000"
         id="path47663"
         style="fill:#f9e1cd;fill-opacity:1;stroke:none" />
    </g>
    <g
       stroke="#000"
       stroke-width="2"
       id="g35231"
       style="fill:#f9e1cd;fill-opacity:1;stroke:none"
       transform="matrix(0.06950308,0,0,0.06950308,122.53957,152.25531)">
      <path
         d="m 898,386 c 1,2 1,4 -1,6 -4,4 -15,5 -14,0 -3,2 -7,-4 -5,-5 2,-1 4,-1 6,-3 1,-1 1,-3 2,-3 m 49,5 c 2,2 1,4 0,6 -5,5 -19,1 -19,-3 -6,-4 2,-6 5,-6 m 54,13 c 9,13 -34,16 -19,6 -4,0 -5,-2 -5,-5 0,-1 1,-1 2,-1 2,0 4,-1 6,-2 l 3,-3 m -83,-23 c 2,2 2,4 0,6 -3,4 -19,4 -18,-2 -5,0 -1,-7 4,-8"
         fill="#f00"
         id="path35225"
         style="fill:#f9e1cd;fill-opacity:1;stroke:none" />
      <path
         d="m 919,218 c 2,0 3,1 4,2 3,2 7,2 12,3 3,0 3,3 -1,5 -2,3 -5,4 -9,4 -6,4 -9,2 -11,-1 0,2 0,3 -1,5 1,3 0,6 -1,9 0,2 3,3 3,5 0,1 1,2 2,3 1,1 3,2 4,3 4,1 5,3 6,7 3,1 4,3 4,5 2,1 3,3 4,4 10,0 21,0 28,7 2,0 6,3 8,2 6,-4 14,-4 21,-3 3,1 5,3 7,5 3,3 7,3 11,1 5,-2 10,-2 15,0 2,-1 4,-1 6,-1 5,-6 16,2 10,5 -2,3 -4,5 -8,5 0,2 -2,4 -3,5 2,6 0,8 -4,8 -1,2 -2,2 -4,2 -2,2 -3,3 -5,3 2,4 3,10 -3,10 1,3 0,5 0,8 4,2 4,4 0,6 2,4 2,9 -3,11 0,2 1,5 -1,6 -1,1 -4,4 -3,6 2,3 3,5 0,5 -2,0 -1,1 -3,2 -4,2 -7,6 -10,7 -2,5 -7,9 -11,14 -1,4 -3,6 -6,7 0,1 -1,3 -2,3 -5,0 -9,-2 -13,-5 1,-4 3,-7 7,-8 7,-4 11,-11 15,-18 -1,-2 -2,-3 -2,-5 -2,-1 -3,-2 -4,-3 -3,0 -4,0 -4,-2 -4,3 -5,1 -7,1 -2,2 -4,3 -6,5 -1,2 -3,2 -5,2 -5,0 -6,9 -9,12 -1,1 -4,3 -5,5 0,4 0,7 -2,7 -2,0 -4,-1 -5,-1 -6,1 -5,-1 -14,-3 4,-4 7,-7 11,-9 1,-1 2,-2 4,-3 0,-4 3,-7 6,-10 0,-1 0,-2 1,-3 v -2 c -1,-2 -2,-4 -1,-6 0,-1 1,-4 1,-5 -3,3 -4,4 -7,3 -2,2 -7,0 -9,-3 -2,1 -5,2 -7,1 -2,1 -3,1 -5,1 -1,1 -2,3 -3,4 -1,7 -5,13 -8,19 v 3 c 0,4 -1,6 -3,7 l -3,6 c -7,-1 -8,-3 -12,-5 1,-2 2,-5 4,-5 1,-3 2,-6 4,-9 0,-1 1,-1 1,-2 0,-2 2,-4 1,-4 -1,-3 0,-5 1,-7 2,-3 4,-9 2,-12 v -5 c -6,-3 -5,2 -8,4 -1,5 -3,10 -6,11 -1,2 -1,5 -1,7 0,3 0,4 -1,4 -3,1 -3,3 -4,5 -6,2 -8,-1 -14,-4 5,-1 5,-3 8,-7 0,-5 1,-8 4,-9 0,-6 5,-12 4,-17 -3,-2 -4,-3 -1,-5 1,0 1,-2 0,-2 -2,-1 -1,-4 -2,-5 -4,-1 -4,-2 -2,-4 1,-2 0,-3 0,-6 -2,-4 2,-8 -2,-10 -4,0 -6,-2 -4,-5 1,-1 2,-4 4,-5 1,-2 2,-2 1,-4 -1,-3 2,-5 6,-8 v -3 c -2,-2 -2,-3 0,-5 0,-1 -1,-2 -1,-3 -5,1 -4,-2 -2,-7 -3,-2 -2,-5 3,-9 v -2 c -2,0 -3,0 -5,1 -2,1 -4,2 -6,1 l -3,-3 c -1,-1 -1,-3 -1,-4 -6,0 -7,-4 -4,-6 2,-2 4,-3 4,-5 2,-4 5,-6 8,-9 0,-1 1,-3 1,-4 -1,-1 -3,-2 -5,-2 -1,-2 -1,-3 -3,-4 -1,-1 -2,-2 -1,-3 -3,-3 -2,-4 1,-6 3,-2 8,-1 13,2 2,1 4,2 5,4"
         fill="#f7db17"
         id="path35227"
         style="fill:#f9e1cd;fill-opacity:1;stroke:none" />
      <path
         d="m 891,213 c -1,-2 -3,-3 -6,-3 3,-3 4,-6 9,-6 4,-3 7,-5 11,-6 5,-3 14,-6 16,-6 9,-1 15,0 15,0 5,0 12,2 17,5 l 24,12 c 5,2 10,4 17,4 3,0 8,0 11,-1 3,-1 4,1 1,3 -20,13 -36,0 -49,-5 5,3 9,8 13,12 13,11 27,19 43,19 3,0 6,0 10,-1 3,-1 3,2 1,3 -5,4 -10,5 -16,5 -10,1 -22,-2 -33,-8 -8,-5 -13,-10 -20,-15 -11,-8 -24,-12 -36,-8 -3,-1 -5,-1 -8,-1 -6,-5 -13,-5 -20,-4 z"
         fill="#f00"
         id="path35229"
         style="fill:#f9e1cd;fill-opacity:1;stroke:none" />
    </g>
    <g
       stroke="#000"
       id="g35239"
       style="fill:#f9e1cd;fill-opacity:1;stroke:none"
       transform="matrix(0.06950308,0,0,0.06950308,122.53957,152.25531)">
      <path
         d="m 994,213 c 3,1 2,4 1,6 m -8,-7 c 2,4 -2,8 -3,8 m -7,-11 c 3,4 -5,7 -7,7 m -5,-13 c 2,3 -3,8 -8,7 -20,-15 -52,-10 -66,3 m 62,-16 c 1,3 0,6 -2,7 m -15,-12 c 3,1 4,5 3,8 m -18,-8 c 2,0 5,5 4,7 m -20,-1 c 4,0 8,3.359 7,4.359 6,-0.359 10,6.641 9,12.64 m -30,-10 c 2,-1 5,-0.6505 7,0 m 112,36 c 1,4 -1,5 -2,7 m -9,-9 c 0,4 -3,7 -5,8 m -9,-14 c 0,3 -3,9 -7,9 m -5,-17 c 0,5 -7,8 -9,8 m -2,-19 c 1,6 -3,10 -7,10 m -8,-19 c 2,4 0,11 -2,12 m -17,-16 c 6,2 6,10 3,12 m -40,0 c 7,-5 20,-7 19,3"
         stroke-width="1.5"
         id="path35233"
         style="fill:#f9e1cd;fill-opacity:1;stroke:none" />
      <path
         d="m 889,226 c 1,0 2,1 2,2 0,1 -1,2 -2,2 -1,0 -2,-1 -2,-2 0,-1 1,-2 2,-2 z"
         fill="#000"
         id="path35235"
         style="fill:#f9e1cd;fill-opacity:1;stroke:none" />
      <path
         d="m 953,313 c 0,2 -1,2 -2,3 m -66,-88 c 3,-5 7,-1 10,-1 2,0 5,0 6,-1 m -16,4 c 5,1 7,0 10,-3 m 102,67 c 0,2 -1,3 -1,3 m 29,-5 c 0,1 1,2 0,3 m -6,-2 c 1,1 2,2 2,4 m -14,-1 c 1,2 2,5 2,8 m -4,12 v 2 m 2,-14 c 0,4 -3,7 -2,10 m 2,18 -1,5 m -1,5 c 0,5 -2,12 2,16 m -9,-15 v 8 m -7,-11 c 1,5 1,15 4,8 m -4,-18 c 2,6 3,4 3,0 m -28,0 c 4,1 7,16 7,6 0,-3 -1,-6 -2,-10 m 19,26 v 2 m -4,-9 c -1,1 -1,3 -1,4 m -5,-6 c 0,1 -1,2 -1,3 m -8,-6 c 0,1 0,3 -1,4 m -7,-36 c 1,0 -3,4 -1,4 m 16,12 c 1,1 -2,5 -1,5 m 7,-3 c -2,3 -2,6 -3,9 m 17,-13 c 2,4 2,18 5,6 1,-2 1,-5 2,-7 m -12,-24 c 3,3 7,6 8,10 m -11,5 c 6,28 5,-7 9,-5 m -9,-4 c 0,1 -1,5 -1,6 m -14,-6 c -1,6 3,19 6,18 0,-6 4,-12 5,-18 m -11,-10 c 0,2 1,4 1,6 m -7,-3 v 5 m 0,10 c 1,3 -8,11 0,7 2,-1 4,-3 6,-5 m -16,-11 c 1,6 -6,16 -5,18 4,-4 11,-4 14,-10 m -7,-17 c -1,4 4,7 4,10 m -6,-18 c 0,2 -1,4 -2,6 m -4,-11 v 5 m -12,-1 c 0,2 0,5 3,5 m 11,10 c -2,-3 -2,-7 -4,-9 -3,4 -1,12 -5,16 0,-5 -2,-10 -4,-14 m -4,1 v 4 m 11,25 c -1,1 0,4 -1,4 m -1,-14 c -3,4 -8,9 -6,15 m 3,-19 c -1,5 -7,8 -8,14 m -1,6 v 3 m 4,-26 c 0,4 -3,7 -3,11 m -6,-1 c 0,4 -1,8 -4,11 m -4,-29 c -4,8 -1,18 -1,23 3,-5 4,-11 9,-14 m 2,-12 c 4,4 4,10 4,16 m -6,-34 c 4,5 -1,13 5,17 m -12,-27 c -1,4 1,7 2,10 m -6,-6 c 1,3 1,6 2,9 m -4,-5 c -2,1 -1,4 -2,6 m 7,5 c 0,2 2,7 4,8 1,-3 2,-7 0,-10 m -9,7 c 3,3 2,8 1,11 m -7,0 c 0,3 2,6 4,9 m -5,-1 c -3,4 2,15 4,14 0,-1 0,-3 1,-4 m -4,6 c 0,1 1,2 1,3 m -8,-2 c 6,8 4,23 8,7 m -4,-32 c 1,8 -6,15 -2,22 m -5,-16 v 2 m 4,-12 c -1,2 -2,4 -2,6 m -14,5 c 0,2 1,4 2,6 m 10,-24 c -1,9 -10,17 -6,26 m 11,-36 v 7 m 3,-14 c -4,7 6,15 0,21 m 7,-33 c -1,4 -5,7 -5,12 m -5,-10 c 0,2 0,3 1,5 m -5,5 c 1,2 1,5 2,7 m 3,-19 c -6,4 -8,20 -8,24 m 4,-28 c -3,2 -3,6 -3,9 m 7,-17 c 0,3 1,5 0,8 m -18,27 c -1,1 -1,3 -1,5 m 8,-17 c -7,4 -1,18 -1,19 l 2,-4 m -3,-21 c 2,7 -7,8 -6,16 m 15,-36 c 0,6 -4,12 -7,17 m -13,-8 c -2,0 -4,5 -6,6 m 8,-4 c -1,0 -2,2 -3,3 m 8,8 4,-10 c -2,5 -9,10 -13,11 m 7,2 c -2,2 -5,6 -7,6 m 9,-5 c -1,3 -5,6 -7,7 m 0,9 c 0,1 -1,2 -1,4 m 4,-9 c -3,2 -10,6 -13,8 m 7,2 -4,12 m 9,-9 c -3,3 -8,11 -9,15 m 14,-14 c -1,4 -2,10 -7,11 m 4,1 c -1,4 -7,6 -9,10 m 8,2 c 0,2 -1,3 -2,5 m 4,-2 c -1,2 -1,5 0,7 m 3,4 v 2 m 2,-12 c 0,2 0,5 1,7 m 9,-16 c -3,6 -3,14 -4,21 m -16,-1 c 1,3 1,5 1,8 m -11,21 6,3 m 2,-7 v 2 m 21,9 c 0,1 -1,2 -2,4 m 5,-15 v 4 m 2,-13 v 5 m 11,-20 c 0,4 -4,6 -3,10 m 11,-6 c -2,2 -5.51,1.759 -6.51,4.759 M 931,333.999 c 0,4 -3,7 -4,11 m 20,-10 c -4,2 -10,9 -11,13 m 13,-10 c -3,1 -5,4 -7,7 m 10,3 c 7,-1 8,-10 13,-11 0,6 -4,7 -5,12 12,-5 7,-6 7,7 1,-2 8,-7 11,-9 m -14,-26 c -10,11 -12,14 -14,26 m -7,28 c 1,0 1,0 2,-1 m -9,5 c 1,0 2,-1 3,-2 m -8,4 c 1,0 2,-2 3,-2 m 19,-29 c -1,1 -1,3 -1,4 m 10,-3 c -1,0 -1,2 -1,3 m 0,3 c 0,0 -1,3 0,4 m -4,-3 c 0,2 -1,4 -1,5 m 22,-6 c 1,-3 1,-5 1,-7 m 3,10 c 1,-2 3,-4 3,-6 m -1,11 c 2,-2 2,-5 3,-6 m -3,19 c -1,2 -3,3 -5,5 m 8,-15 c 0,2 -2,3 -4,4 m 8,-4 c -1,0 -1,1 -2,2 m 4,-7 c 0,2 -1,5 -1,7 m 1,-11 c -1,0 -1,2 -2,2 m 8,-2 c -1,2 -1,4 -2,6 m 12,-23 c 0,1 -1,3 2,4 m -2,-9 c 2,0 3,-2 5,-2 m -6,-10 c 1,2 2,5 6,4 m -6,-15 c 0,2 4,7 6,7 m -1,-13 c 1,0 2,2 4,3 m 0,-9 c 2,2 5,4 5,6 m 1,-8 c 1,1 2,5 3,6 m 1,-10 c 1,0 2,2 3,2 m 8,-12 c 0,1 3,2 3,2 m -10,-5 c 0,1 3,2 2,5 m -9,-4 c 2,2 3,4 2,6 m -10,-7 c 1,1 2,3 2,4 m -12,-2 c 2,2 3,5 3,8 m -6,-7 c 0,0 1,4 2,3 m -5,-5 c 1,3 1,7 1,10 m -6,-14 c 0,2 0,4 -1,5 m -7,-7 c 3,3 5,8 6,12 m -9,-12 c 0,1 1,2 2,4 m -6,-4 c 3,4 4,10 5,15 m -10,-14 c 1,1 2,3 3,4 m -7,-2 c 0,3 4,4 6,6 m -11,-7 c 2,3 2,8 3,11 m -6,-12 c -2,3 1,8 1,12 m -11,-18 c 3,1 4,6 4,9 m -12,-9 c 1,2 3,4 3,6 m -8,-7 c 1,4 2,11 7,12 m -12,-12 c 2,5 1,8 1,12 m -5,-16 c 0,1 0,4 -1,5 m -3,-10 c -2,2 -2,5 -2,7 m -4,-14 c -1,1 -1,4 -1,5 m -3,-8 c 0,3 -3,7 -4,10 m 2,-13 c 0,1 -1,3 -1,4 m -1,-7 c 0,1 -1,2 -2,3 m 1,-5 c -1,0 -2,2 -2,3 m 14,-23 c 1,0 2,1 4,1 m -12,-1 c -2,0 -2,2 -2,2 m 4,-5 c -2,-1 -5,1 -6,3 m 11,2 c 3,2 8,0 11,1 m -12,3 c 0,0 3,-1 3,1 m -17,15 c 2,-1 3,-3 5,-7 m -13,6 c 4,0 9,-2 13,-7 m -4,-4 c 1,1 2,1 4,1 m -10,-1 c 2,-1 3,-3 5,-4 m -14,-1 c 0,0 2,-1 3,-2 m 14,-11 c -2,0 -7,1 -9,1 m -13,28 c 5,-2 7,-1 9,0 -3,3 -5,1 -8,4 m 0,-8 -3,2 m -18,5 c 5,-1 8,-6 9,-6 m -12,0 c 5,-3 3,-4 6,-5 m 7,-2 c 0,1 -1,2 -1,3 m 5,0 c 0,1 -1,2 -1,4 m 14,-6 c -1,0 -3,3 -3,3 m 3,-27 c -1,-1 -5,5 -5,6 m 0,15 c 0,1 -3,3 -3,4 m -12,-8 -1,2 m 6,-4 -2,2 m 2,-8 -3,3 m 12,-12 c -1,0 -3,2 -3,3 m -2,2 c 0,1 -2,1 -2,2 m -9,-12 c 1,1 2,2 2,3 m -12,-4 c 1,0 2,1 3,1"
         stroke-width="0.7"
         id="path35237"
         style="fill:#f9e1cd;fill-opacity:1;stroke:none" />
    </g>
    <g
       id="path22212-8"
       transform="matrix(0.06950318,0,0,0.06679339,122.5395,155.62843)">
      <path
         id="path23005-4"
         style="color:#000000;fill:#f9e1cd;fill-opacity:1;stroke-width:8;-inkscape-stroke:none"
         d="m 115.00079,578.00125 v 684.90045 c 0,317.3844 260.12317,577.0992 578.00065,577.0992 317.87746,0 577.99746,-259.7148 577.99746,-577.0992 V 578.00125 Z M 358.36308,597.9979 H 581.26843 V 837.13764 H 806.17622 V 597.9979 h 221.82238 v 239.13974 h 222.0019 v 250.26156 h -221.3739 v 241.6435 h 217.6798 c -10.5509,92.0464 -44.0523,177.2907 -94.6178,250.0549 H 1028.6234 V 1329.0427 H 806.17622 V 1087.3992 H 581.26843 V 837.13764 h -222.4504 v 250.26156 h 222.44719 v 241.6435 h 224.90779 v 250.0549 h 221.82559 v 128.4613 c -64.66576,48.6902 -140.11653,83.7451 -221.82559,100.7668 V 1579.0976 H 581.26522 v -250.0549 h -222.4536 l 0.003,250.0549 h 221.82243 v 229.4048 C 498.91459,1791.5918 423.48154,1756.6153 358.81162,1707.9857 V 1579.0976 H 234.69872 C 184.1587,1506.3334 150.60745,1421.0891 139.85349,1329.0427 H 358.81162 V 1087.3992 H 135.99919 V 837.13764 h 222.36389 z m 447.81314,489.4013 H 1027.9986 V 837.13764 H 806.17622 Z" />
    </g>
  </g>
  <g
     aria-label="EUROPSKA UNIJA"
     id="text471"
     style="font-weight:bold;font-size:16.6834px;font-family:'Road UA';-inkscape-font-specification:'Road UA Bold';letter-spacing:1.61615px;fill:#f9e1cd;stroke-width:1.24452;stroke-linecap:square;paint-order:stroke fill markers">
    <path
       d="M 81.427716,61.112835 V 48.983157 h 8.203214 v 2.313518 h -5.172831 v 2.126156 h 4.765522 v 2.313518 h -4.765522 v 3.062968 h 5.172831 v 2.313518 z"
       style="font-family:Tahoma;-inkscape-font-specification:'Tahoma Bold'"
       id="path47694" />
    <path
       d="m 98.212073,61.365367 q -2.443857,0 -3.76354,-1.181198 -1.311537,-1.181198 -1.311537,-3.453985 v -7.747027 h 3.046675 v 7.567811 q 0,1.26266 0.47248,1.88177 0.480625,0.619111 1.555922,0.619111 1.050859,0 1.53963,-0.594672 0.496917,-0.594672 0.496917,-1.906209 v -7.567811 h 3.04668 v 7.738881 q 0,2.240203 -1.2871,3.445839 -1.27895,1.19749 -3.796127,1.19749 z"
       style="font-family:Tahoma;-inkscape-font-specification:'Tahoma Bold'"
       id="path47696" />
    <path
       d="m 118.46671,61.112835 h -3.71466 l -3.38067,-4.44782 h -1.09159 v 4.44782 H 107.2494 V 48.983157 h 4.87957 q 1.01013,0 1.75958,0.130339 0.74945,0.122192 1.38485,0.521356 0.6517,0.415456 1.03457,1.059005 0.38287,0.635403 0.38287,1.621092 0,1.392998 -0.62726,2.264641 -0.62725,0.863496 -1.67811,1.376706 z M 113.5627,52.69782 q 0,-0.456187 -0.17921,-0.782035 -0.17107,-0.333994 -0.57838,-0.51321 -0.28512,-0.122193 -0.63541,-0.154777 -0.35028,-0.03259 -0.87164,-0.03259 h -1.01827 v 3.266622 h 0.87164 q 0.6354,0 1.0753,-0.07331 0.44804,-0.08146 0.75759,-0.333994 0.29326,-0.228093 0.43175,-0.545795 0.14663,-0.317701 0.14663,-0.830911 z"
       style="font-family:Tahoma;-inkscape-font-specification:'Tahoma Bold'"
       id="path47698" />
    <path
       d="m 132.02517,55.052069 q 0,2.940775 -1.57221,4.627036 -1.57222,1.686262 -4.30934,1.686262 -2.74526,0 -4.30933,-1.702554 -1.56407,-1.7107 -1.56407,-4.610744 0,-2.924483 1.56407,-4.61889 1.56407,-1.702554 4.30933,-1.702554 2.73712,0 4.30934,1.694407 1.57221,1.686262 1.57221,4.627037 z m -3.14443,-0.0081 q 0,-1.083444 -0.22809,-1.84104 -0.21995,-0.765742 -0.59467,-1.254513 -0.39102,-0.496918 -0.88794,-0.708719 -0.48877,-0.219947 -1.01827,-0.219947 -0.56209,0 -1.01827,0.203655 -0.45619,0.195509 -0.87979,0.708719 -0.37473,0.472479 -0.61097,1.254513 -0.22809,0.782034 -0.22809,1.865478 0,1.116028 0.21995,1.857331 0.21995,0.733158 0.60282,1.230075 0.39101,0.505064 0.88793,0.725011 0.49692,0.211801 1.02642,0.211801 0.53765,0 1.04271,-0.228093 0.50507,-0.23624 0.87165,-0.725011 0.39101,-0.529503 0.60281,-1.230075 0.2118,-0.708719 0.2118,-1.849185 z"
       style="font-family:Tahoma;-inkscape-font-specification:'Tahoma Bold'"
       id="path47700" />
    <path
       d="m 144.77717,52.811866 q 0,0.847204 -0.26883,1.612946 -0.26882,0.765742 -0.77389,1.278952 -0.30955,0.317702 -0.68428,0.586526 -0.36657,0.268824 -0.81461,0.456187 -0.44805,0.187362 -0.97755,0.293262 -0.52135,0.105901 -1.17305,0.105901 h -1.59665 v 3.967195 h -3.04668 V 48.983157 h 4.7085 q 1.05086,0 1.80845,0.195508 0.76575,0.187362 1.38486,0.602818 0.68428,0.456187 1.059,1.221929 0.37473,0.757596 0.37473,1.808454 z m -3.12814,0.07332 q 0,-0.51321 -0.24439,-0.879789 -0.24438,-0.374724 -0.58652,-0.51321 -0.43175,-0.187362 -0.83091,-0.211801 -0.39102,-0.03258 -1.06715,-0.03258 h -0.43175 v 3.633201 h 0.2118 q 0.43175,0 0.81462,-0.0081 0.38287,-0.0081 0.66799,-0.05702 0.24438,-0.04073 0.51321,-0.154777 0.27697,-0.122193 0.4236,-0.268825 0.30955,-0.301409 0.41545,-0.627256 0.11405,-0.325848 0.11405,-0.879789 z"
       style="font-family:Tahoma;-inkscape-font-specification:'Tahoma Bold'"
       id="path47702" />
    <path
       d="m 151.7698,61.332782 q -1.39299,0 -2.452,-0.268824 -1.05086,-0.268825 -1.95508,-0.667988 v -2.883751 h 0.27697 q 0.91237,0.773888 2.01211,1.189343 1.09973,0.415456 2.1343,0.415456 0.26068,0 0.68428,-0.05702 0.43175,-0.05702 0.69242,-0.179216 0.3177,-0.138486 0.53765,-0.382871 0.21995,-0.252532 0.21995,-0.659842 0,-0.456187 -0.35843,-0.741303 -0.35844,-0.285117 -0.85535,-0.415456 -0.61911,-0.162924 -1.32783,-0.309555 -0.70057,-0.146632 -1.31154,-0.358433 -1.40929,-0.496917 -2.02025,-1.335975 -0.61097,-0.839058 -0.61097,-2.101717 0,-1.702554 1.44188,-2.753413 1.44187,-1.059005 3.60061,-1.059005 1.08345,0 2.1506,0.219948 1.0753,0.219947 1.9225,0.594671 v 2.769705 h -0.26883 q -0.67613,-0.578379 -1.65367,-0.977543 -0.9694,-0.399163 -1.99582,-0.399163 -0.39916,0 -0.71686,0.05702 -0.31771,0.05702 -0.66799,0.219948 -0.28512,0.130339 -0.49692,0.391017 -0.20365,0.252532 -0.20365,0.570233 0,0.464333 0.32584,0.741304 0.334,0.268824 1.27896,0.488771 0.61096,0.138485 1.17305,0.268824 0.57023,0.130339 1.21378,0.358433 1.26266,0.456186 1.87362,1.230075 0.61911,0.765742 0.61911,2.028401 0,1.808455 -1.42558,2.90819 -1.41744,1.099736 -3.83686,1.099736 z"
       style="font-family:Tahoma;-inkscape-font-specification:'Tahoma Bold'"
       id="path47704" />
    <path
       d="m 170.83509,61.112835 h -3.68208 l -3.30735,-4.928446 -0.59467,0.830912 v 4.097534 h -3.04668 V 48.983157 h 3.04668 v 5.384632 l 3.87758,-5.384632 h 3.52731 l -4.32563,5.629017 z"
       style="font-family:Tahoma;-inkscape-font-specification:'Tahoma Bold'"
       id="path47706" />
    <path
       d="m 172.13354,61.112835 4.09754,-12.129678 h 3.32364 l 4.09754,12.129678 h -3.13629 l -0.75759,-2.476442 h -3.81242 l -0.7576,2.476442 z m 6.95685,-4.675914 -1.23822,-3.99978 -1.23822,3.99978 z"
       style="font-family:Tahoma;-inkscape-font-specification:'Tahoma Bold'"
       id="path47708" />
    <path
       d="m 197.88192,61.365367 q -2.44386,0 -3.76354,-1.181198 -1.31154,-1.181198 -1.31154,-3.453985 v -7.747027 h 3.04668 v 7.567811 q 0,1.26266 0.47247,1.88177 0.48063,0.619111 1.55593,0.619111 1.05086,0 1.53963,-0.594672 0.49691,-0.594672 0.49691,-1.906209 v -7.567811 h 3.04668 v 7.738881 q 0,2.240203 -1.2871,3.445839 -1.27895,1.19749 -3.79612,1.19749 z"
       style="font-family:Tahoma;-inkscape-font-specification:'Tahoma Bold'"
       id="path47710" />
    <path
       d="m 217.31379,61.112835 h -2.93263 l -4.67592,-8.455746 v 8.455746 h -2.78599 V 48.983157 h 3.7391 l 3.86944,6.9487 v -6.9487 h 2.786 z"
       style="font-family:Tahoma;-inkscape-font-specification:'Tahoma Bold'"
       id="path47712" />
    <path
       d="m 227.43456,61.112835 h -6.53324 v -2.11801 h 1.74328 v -7.893659 h -1.74328 v -2.118009 h 6.53324 v 2.118009 h -1.74328 v 7.893659 h 1.74328 z"
       style="font-family:Tahoma;-inkscape-font-specification:'Tahoma Bold'"
       id="path47714" />
    <path
       d="m 237.06656,57.552949 q 0,0.790181 -0.26882,1.490753 -0.26883,0.692427 -0.81462,1.181198 -0.61097,0.553941 -1.44188,0.814619 -0.83091,0.260678 -1.91435,0.260678 -0.80647,0 -1.51519,-0.06517 -0.70872,-0.05702 -1.24637,-0.17107 v -2.46015 h 0.27697 q 0.36658,0.146632 0.76574,0.276971 0.39916,0.122192 1.02642,0.122192 0.80647,0 1.23822,-0.228093 0.4399,-0.228093 0.61911,-0.635403 0.18737,-0.399163 0.20366,-0.920519 0.0244,-0.529503 0.0244,-1.173052 v -4.863276 h -2.77785 v -2.199471 h 5.82452 z"
       style="font-family:Tahoma;-inkscape-font-specification:'Tahoma Bold'"
       id="path47716" />
    <path
       d="m 239.73356,61.112835 4.09754,-12.129678 h 3.32364 l 4.09754,12.129678 h -3.13629 l -0.75759,-2.476442 h -3.81242 l -0.7576,2.476442 z m 6.95685,-4.675914 -1.23822,-3.99978 -1.23822,3.99978 z"
       style="font-family:Tahoma;-inkscape-font-specification:'Tahoma Bold'"
       id="path47718" />
  </g>
  <g
     aria-label="REPUBLIKA HRVATSKA"
     id="text495"
     style="font-weight:bold;font-size:18.9282px;font-family:'Road UA';-inkscape-font-specification:'Road UA Bold';letter-spacing:2.1388px;fill:#f9e1cd;stroke-width:1.41197;stroke-linecap:square;paint-order:stroke fill markers">
    <path
       d="m 51.513628,81.611038 h -4.214482 l -3.835548,-5.046287 h -1.238467 v 5.046287 h -3.43813 V 67.849276 h 5.536129 q 1.146043,0 1.996334,0.147876 0.85029,0.138635 1.571188,0.591507 0.739383,0.471356 1.17377,1.201497 0.434388,0.720898 0.434388,1.839214 0,1.580431 -0.711656,2.569356 -0.711656,0.979682 -1.903911,1.561946 z m -5.563856,-9.54728 q 0,-0.517568 -0.20333,-0.88726 -0.194088,-0.378933 -0.656202,-0.582264 -0.32348,-0.138634 -0.720899,-0.175603 -0.397418,-0.03697 -0.988924,-0.03697 h -1.155286 v 3.706156 h 0.988925 q 0.720898,0 1.219981,-0.08318 0.508326,-0.09242 0.859533,-0.378934 0.332722,-0.258784 0.489841,-0.619233 0.166361,-0.360449 0.166361,-0.942713 z"
       style="font-family:Tahoma;-inkscape-font-specification:'Tahoma Bold'"
       id="path47721" />
    <path
       d="M 54.669079,81.611038 V 67.849276 h 9.306981 v 2.624809 h -5.868851 v 2.412236 h 5.406736 v 2.624809 h -5.406736 v 3.475099 h 5.868851 v 2.624809 z"
       style="font-family:Tahoma;-inkscape-font-specification:'Tahoma Bold'"
       id="path47723" />
    <path
       d="m 79.044817,72.19315 q 0,0.961197 -0.304996,1.829972 -0.304995,0.868775 -0.878017,1.451039 -0.351207,0.360449 -0.776352,0.665444 -0.415903,0.304996 -0.924228,0.517568 -0.508326,0.212573 -1.109074,0.332723 -0.591507,0.120149 -1.330889,0.120149 h -1.811488 v 4.500993 H 68.453158 V 67.849276 h 5.342041 q 1.192255,0 2.051787,0.221815 0.868775,0.212572 1.571189,0.683929 0.776352,0.517568 1.201497,1.386342 0.425145,0.859533 0.425145,2.051788 z m -3.549038,0.08318 q 0,-0.582264 -0.277268,-0.998166 -0.277269,-0.425146 -0.665445,-0.582264 -0.489841,-0.212573 -0.942713,-0.2403 -0.44363,-0.03697 -1.210739,-0.03697 h -0.489841 v 4.122059 h 0.240299 q 0.489841,0 0.924229,-0.0092 0.434387,-0.0092 0.757867,-0.0647 0.277269,-0.04621 0.582264,-0.175604 0.314238,-0.138634 0.480599,-0.304995 0.351207,-0.341964 0.471356,-0.711656 0.129392,-0.369691 0.129392,-0.998167 z"
       style="font-family:Tahoma;-inkscape-font-specification:'Tahoma Bold'"
       id="path47725" />
    <path
       d="m 88.595928,81.897549 q -2.772685,0 -4.269935,-1.340131 -1.488008,-1.340132 -1.488008,-3.918729 v -8.789413 h 3.456614 v 8.586083 q 0,1.432554 0.536053,2.134967 0.545295,0.702414 1.765276,0.702414 1.192255,0 1.746792,-0.674687 0.56378,-0.674687 0.56378,-2.162694 v -8.586083 h 3.456614 v 8.780171 q 0,2.541628 -1.460281,3.909486 -1.451039,1.358616 -4.306905,1.358616 z"
       style="font-family:Tahoma;-inkscape-font-specification:'Tahoma Bold'"
       id="path47727" />
    <path
       d="m 110.16201,77.396556 q 0,1.025894 -0.38817,1.802246 -0.38818,0.776352 -1.04438,1.284677 -0.77635,0.609991 -1.70982,0.868775 -0.92423,0.258784 -2.35679,0.258784 H 99.154452 V 67.849276 h 4.861438 q 1.51574,0 2.29209,0.120149 0.78559,0.110908 1.46952,0.480599 0.73939,0.397419 1.09984,1.062863 0.36969,0.665445 0.36969,1.534219 0,1.007409 -0.50833,1.793004 -0.49908,0.785594 -1.38634,1.155285 v 0.07394 q 1.27543,0.268026 2.04254,1.099832 0.76711,0.822563 0.76711,2.22739 z m -4.42705,-5.656278 q 0,-0.332722 -0.1756,-0.683929 -0.16637,-0.351207 -0.52681,-0.508326 -0.34197,-0.147877 -0.81333,-0.157119 -0.46211,-0.01848 -1.38634,-0.01848 h -0.2403 v 2.911319 h 0.43439 q 0.88726,0 1.23847,-0.01848 0.36044,-0.01848 0.73938,-0.194088 0.4159,-0.194088 0.57302,-0.536053 0.15712,-0.341964 0.15712,-0.794836 z m 0.86877,5.591582 q 0,-0.637717 -0.25878,-0.998167 -0.25878,-0.360449 -0.77635,-0.545294 -0.31424,-0.12015 -0.86878,-0.129392 -0.54529,-0.01848 -1.46952,-0.01848 h -0.63772 v 3.447372 h 0.18485 q 1.34937,0 1.86694,-0.01848 0.51757,-0.01848 1.05362,-0.249542 0.47136,-0.20333 0.68393,-0.591506 0.22181,-0.397418 0.22181,-0.896502 z"
       style="font-family:Tahoma;-inkscape-font-specification:'Tahoma Bold'"
       id="path47729" />
    <path
       d="m 123.46549,81.611038 h -9.18683 V 67.849276 h 3.45662 v 11.136953 h 5.73021 z"
       style="font-family:Tahoma;-inkscape-font-specification:'Tahoma Bold'"
       id="path47731" />
    <path
       d="m 134.10719,81.611038 h -7.41231 v -2.402994 h 1.97785 V 70.25227 h -1.97785 v -2.402994 h 7.41231 v 2.402994 h -1.97784 v 8.955774 h 1.97784 z"
       style="font-family:Tahoma;-inkscape-font-specification:'Tahoma Bold'"
       id="path47733" />
    <path
       d="m 150.59927,81.611038 h -4.17752 l -3.75236,-5.591582 -0.67469,0.942713 v 4.648869 h -3.45662 V 67.849276 h 3.45662 v 6.10915 l 4.39933,-6.10915 h 4.00191 l -4.90766,6.386419 z"
       style="font-family:Tahoma;-inkscape-font-specification:'Tahoma Bold'"
       id="path47735" />
    <path
       d="m 152.37762,81.611038 4.64887,-13.761762 h 3.77085 l 4.64887,13.761762 h -3.55828 l -0.85953,-2.809654 h -4.32539 l -0.85954,2.809654 z m 7.89291,-5.305071 -1.40483,-4.537962 -1.40483,4.537962 z"
       style="font-family:Tahoma;-inkscape-font-specification:'Tahoma Bold'"
       id="path47737" />
    <path
       d="m 188.25459,81.611038 h -3.45661 V 75.51113 h -4.70433 v 6.099908 h -3.45661 V 67.849276 h 3.45661 v 5.037045 h 4.70433 v -5.037045 h 3.45661 z"
       style="font-family:Tahoma;-inkscape-font-specification:'Tahoma Bold'"
       id="path47739" />
    <path
       d="m 205.96663,81.611038 h -4.21448 l -3.83555,-5.046287 h -1.23847 v 5.046287 H 193.24 V 67.849276 h 5.53613 q 1.14605,0 1.99634,0.147876 0.85029,0.138635 1.57119,0.591507 0.73938,0.471356 1.17377,1.201497 0.43438,0.720898 0.43438,1.839214 0,1.580431 -0.71165,2.569356 -0.71166,0.979682 -1.90391,1.561946 z m -5.56385,-9.54728 q 0,-0.517568 -0.20334,-0.88726 -0.19408,-0.378933 -0.6562,-0.582264 -0.32348,-0.138634 -0.7209,-0.175603 -0.39741,-0.03697 -0.98892,-0.03697 h -1.15529 v 3.706156 h 0.98893 q 0.7209,0 1.21998,-0.08318 0.50833,-0.09242 0.85953,-0.378934 0.33273,-0.258784 0.48984,-0.619233 0.16637,-0.360449 0.16637,-0.942713 z"
       style="font-family:Tahoma;-inkscape-font-specification:'Tahoma Bold'"
       id="path47741" />
    <path
       d="m 220.61949,67.849276 -4.73205,13.761762 h -3.60449 L 207.5509,67.849276 h 3.586 l 2.9945,9.325465 2.9945,-9.325465 z"
       style="font-family:Tahoma;-inkscape-font-specification:'Tahoma Bold'"
       id="path47743" />
    <path
       d="m 222.55496,81.611038 4.64886,-13.761762 h 3.77086 l 4.64887,13.761762 h -3.55828 l -0.85954,-2.809654 h -4.32539 l -0.85953,2.809654 z m 7.89291,-5.305071 -1.40483,-4.537962 -1.40483,4.537962 z"
       style="font-family:Tahoma;-inkscape-font-specification:'Tahoma Bold'"
       id="path47745" />
    <path
       d="M 241.7735,81.611038 V 70.474085 h -4.06661 v -2.624809 h 11.58983 v 2.624809 h -4.06661 v 11.136953 z"
       style="font-family:Tahoma;-inkscape-font-specification:'Tahoma Bold'"
       id="path47747" />
    <path
       d="m 257.11029,81.86058 q -1.58043,0 -2.78193,-0.304996 -1.19225,-0.304995 -2.21815,-0.757867 v -3.271769 h 0.31424 q 1.03514,0.878017 2.28285,1.349374 1.24771,0.471356 2.42148,0.471356 0.29575,0 0.77635,-0.0647 0.48984,-0.0647 0.78559,-0.20333 0.36045,-0.157119 0.60999,-0.434387 0.24954,-0.286511 0.24954,-0.748625 0,-0.517568 -0.40666,-0.841048 -0.40666,-0.32348 -0.97044,-0.471357 -0.70241,-0.184846 -1.50649,-0.351207 -0.79484,-0.166361 -1.48801,-0.40666 -1.59891,-0.56378 -2.29208,-1.515735 -0.69317,-0.951955 -0.69317,-2.38451 0,-1.931637 1.63588,-3.123892 1.63588,-1.201497 4.08509,-1.201497 1.22922,0 2.43996,0.249542 1.21998,0.249541 2.18118,0.674687 v 3.142377 h -0.30499 q -0.76711,-0.656203 -1.87619,-1.109075 -1.09983,-0.452872 -2.26436,-0.452872 -0.45287,0 -0.81332,0.0647 -0.36045,0.0647 -0.75787,0.249542 -0.32348,0.147877 -0.56377,0.44363 -0.23106,0.286511 -0.23106,0.64696 0,0.52681 0.36969,0.841048 0.37893,0.304995 1.45104,0.554537 0.69317,0.157119 1.33089,0.304995 0.64696,0.147877 1.3771,0.406661 1.43255,0.517568 2.12572,1.395585 0.70242,0.868774 0.70242,2.301329 0,2.051787 -1.6174,3.299495 -1.60816,1.247709 -4.35312,1.247709 z"
       style="font-family:Tahoma;-inkscape-font-specification:'Tahoma Bold'"
       id="path47749" />
    <path
       d="m 279.04606,81.611038 h -4.17751 l -3.75237,-5.591582 -0.67469,0.942713 v 4.648869 h -3.45661 V 67.849276 h 3.45661 v 6.10915 l 4.39933,-6.10915 h 4.00191 l -4.90765,6.386419 z"
       style="font-family:Tahoma;-inkscape-font-specification:'Tahoma Bold'"
       id="path47751" />
    <path
       d="m 280.82441,81.611038 4.64887,-13.761762 h 3.77085 l 4.64887,13.761762 h -3.55828 l -0.85953,-2.809654 h -4.32539 l -0.85953,2.809654 z m 7.89291,-5.305071 -1.40483,-4.537962 -1.40482,4.537962 z"
       style="font-family:Tahoma;-inkscape-font-specification:'Tahoma Bold'"
       id="path47753" />
  </g>
  <g
     aria-label="PUTOVNICA "
     id="text499"
     style="font-weight:bold;font-size:23.9531px;font-family:'Road UA';-inkscape-font-specification:'Road UA Bold';letter-spacing:0px;fill:#f9e1cd;stroke-width:1.7868;stroke-linecap:square;paint-order:stroke fill markers">
    <path
       d="m 108.04204,350.88442 q 0,1.21637 -0.38597,2.31578 -0.38596,1.09941 -1.1111,1.83625 -0.44444,0.45613 -0.98245,0.8421 -0.52632,0.38596 -1.16959,0.65496 -0.64327,0.26901 -1.4035,0.42106 -0.74853,0.15204 -1.6842,0.15204 h -2.292388 v 5.69588 h -4.374248 v -17.41512 h 6.760196 q 1.50877,0 2.59648,0.2807 1.09941,0.269 1.9883,0.86549 0.98245,0.65497 1.52046,1.75438 0.53801,1.08771 0.53801,2.59648 z m -4.49121,0.10526 q 0,-0.73684 -0.35087,-1.26315 -0.35088,-0.53801 -0.84211,-0.73684 -0.61988,-0.269 -1.19297,-0.30409 -0.5614,-0.0468 -1.532158,-0.0468 h -0.61988 v 5.21635 h 0.304092 q 0.61988,0 1.169586,-0.0117 0.5497,-0.0117 0.95906,-0.0819 0.35087,-0.0585 0.73684,-0.22222 0.39766,-0.17544 0.60818,-0.38597 0.44444,-0.43274 0.59649,-0.90058 0.16374,-0.46783 0.16374,-1.26315 z"
       style="font-family:Tahoma;-inkscape-font-specification:'Tahoma Bold'"
       id="path47756" />
    <path
       d="m 117.42211,363.16506 q -3.50876,0 -5.40348,-1.6959 -1.88304,-1.69589 -1.88304,-4.95904 v -11.12275 h 4.37425 v 10.86544 q 0,1.81286 0.67836,2.70175 0.69006,0.88888 2.23391,0.88888 1.50876,0 2.21051,-0.8538 0.71345,-0.85379 0.71345,-2.73683 v -10.86544 h 4.37425 v 11.11106 q 0,3.21636 -1.84795,4.94734 -1.83624,1.71929 -5.45026,1.71929 z"
       style="font-family:Tahoma;-inkscape-font-specification:'Tahoma Bold'"
       id="path47758" />
    <path
       d="m 131.42204,362.80249 v -14.0935 h -5.14617 v -3.32162 h 14.66659 v 3.32162 h -5.14617 v 14.0935 z"
       style="font-family:Tahoma;-inkscape-font-specification:'Tahoma Bold'"
       id="path47760" />
    <path
       d="m 158.6032,354.10078 q 0,4.2222 -2.2573,6.64324 -2.2573,2.42104 -6.18711,2.42104 -3.9415,0 -6.1871,-2.44443 -2.24561,-2.45613 -2.24561,-6.61985 0,-4.19881 2.24561,-6.63155 2.2456,-2.44443 6.1871,-2.44443 3.92981,0 6.18711,2.43274 2.2573,2.42104 2.2573,6.64324 z m -4.5146,-0.0117 q 0,-1.55555 -0.32749,-2.64326 -0.31578,-1.09941 -0.85379,-1.80116 -0.5614,-0.71345 -1.27485,-1.01754 -0.70175,-0.31579 -1.46198,-0.31579 -0.80702,0 -1.46198,0.2924 -0.65497,0.2807 -1.26315,1.01754 -0.53801,0.67836 -0.87719,1.80116 -0.32749,1.1228 -0.32749,2.67835 0,1.60233 0.31579,2.66665 0.31579,1.05263 0.86549,1.76608 0.5614,0.72514 1.27485,1.04093 0.71345,0.30409 1.47368,0.30409 0.77192,0 1.49707,-0.32749 0.72514,-0.33918 1.25145,-1.04093 0.5614,-0.76023 0.8655,-1.76607 0.30409,-1.01754 0.30409,-2.65496 z"
       style="font-family:Tahoma;-inkscape-font-specification:'Tahoma Bold'"
       id="path47762" />
    <path
       d="m 175.73762,345.38737 -5.98828,17.41512 h -4.56138 l -5.98828,-17.41512 h 4.53799 l 3.78946,11.80111 3.78945,-11.80111 z"
       style="font-family:Tahoma;-inkscape-font-specification:'Tahoma Bold'"
       id="path47764" />
    <path
       d="m 192.27555,362.80249 h -4.21051 l -6.71341,-12.14029 v 12.14029 h -3.99999 v -17.41512 h 5.3684 l 5.55553,9.97656 v -9.97656 h 3.99998 z"
       style="font-family:Tahoma;-inkscape-font-specification:'Tahoma Bold'"
       id="path47766" />
    <path
       d="m 204.48601,362.80249 h -9.38007 v -3.04092 h 2.50291 v -11.33328 h -2.50291 v -3.04092 h 9.38007 v 3.04092 h -2.50291 v 11.33328 h 2.50291 z"
       style="font-family:Tahoma;-inkscape-font-specification:'Tahoma Bold'"
       id="path47768" />
    <path
       d="m 214.89532,363.14167 q -3.91811,0 -6.2222,-2.36256 -2.30408,-2.37426 -2.30408,-6.66664 0,-4.14033 2.30408,-6.59646 2.31578,-2.46782 6.23389,-2.46782 1.04093,0 1.87134,0.11696 0.8304,0.11696 1.59063,0.32748 0.59649,0.17544 1.29824,0.47953 0.70175,0.30409 1.1345,0.52632 v 4.15202 h -0.44444 q -0.31579,-0.2807 -0.79532,-0.66666 -0.47953,-0.39766 -1.08771,-0.77193 -0.60819,-0.37426 -1.34503,-0.63157 -0.72514,-0.26901 -1.52046,-0.26901 -0.94736,0 -1.74268,0.30409 -0.78362,0.2924 -1.49707,1.02924 -0.65497,0.66666 -1.07602,1.80116 -0.40935,1.1345 -0.40935,2.67835 0,1.62572 0.43275,2.73683 0.43274,1.09941 1.13449,1.77777 0.67836,0.65497 1.50877,0.94736 0.8421,0.2924 1.6725,0.2924 0.8655,0 1.64912,-0.2807 0.78362,-0.2924 1.32163,-0.64327 0.58479,-0.36258 1.02923,-0.73684 0.44445,-0.37427 0.77193,-0.66667 h 0.39766 v 4.09355 q -0.47953,0.22222 -1.11111,0.51462 -0.63157,0.2807 -1.29824,0.47953 -0.81871,0.24561 -1.53215,0.37427 -0.71345,0.12865 -1.9649,0.12865 z"
       style="font-family:Tahoma;-inkscape-font-specification:'Tahoma Bold'"
       id="path47770" />
    <path
       d="m 221.50348,362.80249 5.88301,-17.41512 h 4.77191 l 5.88301,17.41512 h -4.5029 l -1.08772,-3.55554 h -5.47365 l -1.08772,3.55554 z m 9.98825,-6.71342 -1.77776,-5.74266 -1.77777,5.74266 z"
       style="font-family:Tahoma;-inkscape-font-specification:'Tahoma Bold'"
       id="path47772" />
  </g>
  <path
     id="biometric-logo"
     d="m 171.28,438.70865 c 0,-2.85 -2.21,-5.15 -4.94,-5.15 -2.73,0 -4.94,2.31 -4.94,5.15 0,2.84 2.21,5.15 4.94,5.15 2.73,0 4.94,-2.31 4.94,-5.15 z m -4.94,7.8 c -3.68,0 -6.78,-2.8 -7.36,-6.46 h -10.42 v 10.53 h 35.58 v -10.53 h -10.42 c -0.62,3.69 -3.68,6.46 -7.37,6.46 v 0 z m -17.79,-19.72 v 10.53 h 10.42 c 0.63,-3.65 3.68,-6.46 7.36,-6.46 3.68,0 6.78,2.8 7.37,6.46 h 10.42 v -10.53 h -35.58 z"
     style="fill:#f9e1cd;fill-opacity:1" />
</svg>
