<svg xmlns="http://www.w3.org/2000/svg" width="332.68" height="472.15" data-name="Passport"><path fill="#1f233f" d="M332.68 450.95c0 5.45-2.03 10.85-6.06 14.98s-9.33 6.22-14.6 6.22H0V0h312.02c5.27 0 10.58 2.09 14.6 6.21 4.02 4.13 6.06 9.58 6.06 14.98v429.75z" style="fill:#2d2b2e;fill-opacity:1"/><path d="M199.132 175.608c-.07 0-.07 0-.07.07v.14c-.278.208-.695.277-1.042.277-.14 0-.14.14-.07.278.209.278.487.487.904.487.139 0 .278.07.417.139.139.347.556.556.556.904-.417.07-.765.138-1.182.208l-.347.209c-.209 0-.348-.14-.626-.07q-.208.105 0 .208c.14.209.417.14.556.348.14.07.278.07.417-.07h1.251c.348.139 1.182 0 1.321.417-.278 0-.626.208-.973.139-.209-.14-.348-.209-.626-.14q-.103.105 0 .21c0 .208.556.277.695.416.07.07.278.07.487-.07.487.07 1.043-.07 1.599 0q.105.105.208 0c.278-.278.834.14 1.32.417.21.14.418.209.765.209-.208.07-.347.417-.695.278-.139-.07-.347-.07-.556-.07-.139 0-.278.208 0 .278.14.208.487.208.626.347.07 0 .208 0 .278-.07.208-.208.834-.139 1.112-.139.139 0 .278.07.347-.07.14-.139.417-.07.556-.07.209.14.487.278.765.278.347.209.695.417.973.626.208.139.417.209.625.347-.07.14 0 .279 0 .417 0 0-.07 0-.07.07-.416-.139-.625.14-.416.279.07.07.139.138.208.138.07.07.14.14.278.07.209-.07.348-.208.556-.347.278 0 .417-.209.14-.417-.279-.14-.279-.487-.348-.834a.15.15 0 0 0-.14-.14c-.138 0-.277-.07-.416-.138-.417-.278-.14-.834-.487-1.182 0 0-.07-.07 0-.07.07-.07.209 0 .348 0 .903.209 2.154 1.738 3.197 1.043.209-.07.209-.278.07-.487-.487-.625-2.78-.973-3.754-1.25-1.25-.904-3.405-.418-5.004-1.182-.903-.556-1.598-.904-2.015-.834-.209-.209-.556-.278-.626-.556.14-.14.209-.209.209-.278s-.209-.209-.487-.209a.52.52 0 0 0-.486-.347c-.07-.14-.14-.209-.348-.209zm4.874 3.701c.113 0 .234.018.339.053q.52.105.834.208c.278.14.486.278.695.487l.139.139h-.973c-.348 0-.695 0-.973-.14-.278-.138-.834-.555-1.112-.555.07-.07.625-.07.764-.14a.7.7 0 0 1 .287-.052M161.115 161.888h-.001a118 118 0 0 0-18.954 3.104l1.341 5.396a113 113 0 0 1 18.064-2.959zm.916 11.295a107 107 0 0 0-17.14 2.807l1.342 5.396a101.4 101.4 0 0 1 16.25-2.661l-.45-5.542z" style="fill:#f9e1cd;fill-opacity:1;stroke-width:.0695032" transform="translate(-4.358)"/><path d="M690.475 2.404 553.205 114.17 399.19 25.867a4 4 0 0 0-4.982.817L276.629 159.328 110.303 97.07a4 4 0 0 0-4.785 1.612L.316 265.382a4 4 0 0 0-.29 3.714l132.4 308.1a4 4 0 0 0 5.318 2.068c161.28-72.765 352.746-117.645 555.147-117.147h.02c202.4-.5 393.864 44.382 555.144 117.147a4 4 0 0 0 5.32-2.069l132.4-308.1a4 4 0 0 0-.293-3.712L1280.283 98.682a4 4 0 0 0-4.785-1.612l-166.328 62.258L991.594 26.684a4 4 0 0 0-4.983-.817L832.596 114.17 695.527 2.406a4 4 0 0 0-5.052-.002M693 23l134.633 109.55-.479 7.23-25.13 308.595 3.933.32c-73.954-6.273-149.912-6.197-225.076-.048l3.326-.27-25.652-315.916zM399.9 46.9l150.694 86.387 25.638 315.736 3.94-.32c-74.159 5.773-149.356 18.164-222.688 36.447-72.278 17.694-144.438 42.064-213.879 71.975L19.565 268.527l95.162-150.832 161.939 60.664 77.068 307.729 7.762-1.945-76.914-307.108zm586.278.012 115.726 130.457-1.511 5.274-75.352 301.628 3.834.958c-72.18-18.196-147.46-30.444-222.85-36.5l.002-.028 3.97.324 25.136-308.656.465-7.027zm286.095 70.91 95.163 150.83-124.041 288.598c-68.383-29.456-139.405-53.467-210.579-71.092l75.305-301.445 1.732-6.049z" style="color:#000;fill:#f9e1cd;fill-opacity:1;stroke-width:8;-inkscape-stroke:none" transform="matrix(.0695 0 0 .0695 118.181 152.255)"/><g style="fill:#f9e1cd;fill-opacity:1"><path fill="#000" d="m151.9 276.4-29.71 10.14 5.982-30.82-23.63-20.67 29.69-10.21 6.066-30.8 23.69 20.6 29.72-10.15-5.987 30.83 23.64 20.66-29.69 10.21-6.08 30.81z" style="fill:#f9e1cd;fill-opacity:1" transform="matrix(-.0695 0 0 .0695 214.582 152.264)"/></g><path d="m140.299 194.04-6.067 30.8-29.689 10.21 23.629 20.67-5.983 30.82L151.9 276.4l23.692 20.6 6.08-30.81 29.69-10.21-23.641-20.66 5.986-30.83-29.719 10.15zm131.4 137.66c.7 4.4 1.102 8.9 1.102 13.4 0 45.5-37.1 82.5-82.5 82.5-30.7 0-57.601-16.9-71.801-42 7.4 37.8 40.8 66.4 80.6 66.4 45.2 0 82.1-36.9 82.1-82.1 0-13.7-3.4-26.7-9.4-38.1z" style="fill:#f9e1cd;fill-opacity:1;stroke:none" transform="matrix(.0695 0 0 .0695 118.181 152.255)"/><path d="M197.325 172.745h-.003zm-.003 0-.334 1.344a109 109 0 0 1 16.746 5.635l-2.196 5.108a103.5 103.5 0 0 0-15.89-5.347l-.334 1.35c5.37 1.333 10.62 3.1 15.686 5.279l3.293-7.66a110.3 110.3 0 0 0-16.971-5.71" style="fill:#f9e1cd;fill-opacity:1;stroke-width:.0695032" transform="translate(-4.358)"/><g style="fill:#f9e1cd;fill-opacity:1;stroke:none"><path d="M580-245v121" style="fill:#f9e1cd;fill-opacity:1;stroke:none" transform="matrix(.0695 0 0 .0695 126.028 189.21)"/><g stroke="#000" style="fill:#f9e1cd;fill-opacity:1;stroke:none"><path fill="#f7db17" d="m580-245-8 11c-4 0-3 3-2 6-5-3-5 2-5 7-4-8-8-9-13-6 0-5-7-5-9-6l-8-4 12 19c2 5 1 8 3 12-10-4-16-1-16-5-1 9 3 17 11 24-5-2-10-1-14 0 2 8 8 10 14 12-10 2-6 16-11 15 5 4 12 2 17 0-6 4-7 9-7 14 3 1 7 0 11-2-3 3-2 10-5 13 9 1 13-1 16-4-4 6-1 10-1 14 3-3 6-8 10-8-2 7 4 6 5 10" style="fill:#f9e1cd;fill-opacity:1;stroke:none" transform="matrix(.0695 0 0 .0695 126.028 189.21)"/><path d="M164.216 173.706a.209.139 68 0 1-.05.245.209.139 68 0 1-.207-.14.209.139 68 0 1 .05-.246.209.139 68 0 1 .207.141M164.505 174.496a.104.104 0 0 1-.104.104.104.104 0 0 1-.104-.104.104.104 0 0 1 .104-.104.104.104 0 0 1 .104.104M165.409 174.427a.104.104 0 0 1-.105.104.104.104 0 0 1-.104-.104.104.104 0 0 1 .104-.105.104.104 0 0 1 .105.105M165.721 176.512a.174.174 0 0 1-.173.174.174.174 0 0 1-.174-.174.174.174 0 0 1 .174-.174.174.174 0 0 1 .173.174"/><path d="M580.1-156.7v8c0 2-5 3-10 2m5-3-8-4m8 1-8-5m8 25c1-3 0-5 0-7m-5 1c1 8-3 10-5 14 7-7 7-10 7-14m-6 0c1-2 2-4 4-5m-20 9c4-2 8 1 12-6m-12 6c6-1 7-11 13-13m-10 1c3-2 6-4 7-5m-16 6c4-4 8-8 12-8m-12 8c3-4 3-11 10-12m-5-1c3-2 5-2 6-2m-20 1c4 1 9 0 11-1m-8-4c2-4 6-6 10-4m-3-6c4 1 5 2 6 2m-20-13c4 4 9 2 15 8m-7-9c4 2 10 3 10 8m24-4c0 2 1 4 0 5-9-4-10-4-10-10m14-10c3 14 0 15-4 15-4-4-7-4-10-5-2-1-3-2-5-4m6-2c4-1 9 3 12 6m-42-21c1 3 1 6 6 8 1 7 5 7 8 9q-4.5-3-6-12m31-4c1 1 3 4 3 4m-8-4c0 1 1 4 1 5m-7-5c1 1 3 4 3 5m-10-4c2 1 8 4 8 6m-13-5c1 1 1 4 3 6m27-35c0 3-3 4-5 5 2 1 5 2 5 5" style="fill:#f9e1cd;fill-opacity:1;stroke:none" transform="matrix(.0695 0 0 .0695 126.028 189.21)"/></g><path d="M167.841 174.392a.104.104 0 0 1-.104.104.104.104 0 0 1-.104-.104.104.104 0 0 1 .104-.104.104.104 0 0 1 .104.104"/><g stroke="#000" style="fill:#f9e1cd;fill-opacity:1;stroke:none"><path fill="#f7db17" d="m580-245-8 11c-4 0-3 3-2 6-5-3-5 2-5 7-4-8-8-9-13-6 0-5-7-5-9-6l-8-4 12 19c2 5 1 8 3 12-10-4-16-1-16-5-1 9 3 17 11 24-5-2-10-1-14 0 2 8 8 10 14 12-10 2-6 16-11 15 5 4 12 2 17 0-6 4-7 9-7 14 3 1 7 0 11-2-3 3-2 10-5 13 9 1 13-1 16-4-4 6-1 10-1 14 3-3 6-8 10-8-2 7 4 6 5 10" style="fill:#f9e1cd;fill-opacity:1;stroke:none" transform="matrix(-.0695 0 0 .0695 206.652 189.21)"/><path d="M168.464 173.706a.209.139-68 0 0 .05.245.209.139-68 0 0 .207-.14.209.139-68 0 0-.05-.246.209.139-68 0 0-.207.141M168.175 174.496a.104.104 0 0 0 .104.104.104.104 0 0 0 .104-.104.104.104 0 0 0-.104-.104.104.104 0 0 0-.104.104M167.271 174.427a.104.104 0 0 0 .105.104.104.104 0 0 0 .104-.104.104.104 0 0 0-.104-.105.104.104 0 0 0-.105.105M166.959 176.512a.174.174 0 0 0 .173.174.174.174 0 0 0 .174-.174.174.174 0 0 0-.174-.174.174.174 0 0 0-.173.174"/><path d="M580.1-156.7v8c0 2-5 3-10 2m5-3-8-4m8 1-8-5m8 25c1-3 0-5 0-7m-5 1c1 8-3 10-5 14 7-7 7-10 7-14m-6 0c1-2 2-4 4-5m-20 9c4-2 8 1 12-6m-12 6c6-1 7-11 13-13m-10 1c3-2 6-4 7-5m-16 6c4-4 8-8 12-8m-12 8c3-4 3-11 10-12m-5-1c3-2 5-2 6-2m-20 1c4 1 9 0 11-1m-8-4c2-4 6-6 10-4m-3-6c4 1 5 2 6 2m-20-13c4 4 9 2 15 8m-7-9c4 2 10 3 10 8m24-4c0 2 1 4 0 5-9-4-10-4-10-10m14-10c3 14 0 15-4 15-4-4-7-4-10-5-2-1-3-2-5-4m6-2c4-1 9 3 12 6m-42-21c1 3 1 6 6 8 1 7 5 7 8 9q-4.5-3-6-12m31-4c1 1 3 4 3 4m-8-4c0 1 1 4 1 5m-7-5c1 1 3 4 3 5m-10-4c2 1 8 4 8 6m-13-5c1 1 1 4 3 6m27-35c0 3-3 4-5 5 2 1 5 2 5 5" style="fill:#f9e1cd;fill-opacity:1;stroke:none" transform="matrix(-.0695 0 0 .0695 206.652 189.21)"/></g><g style="fill:#f9e1cd;fill-opacity:1;stroke:none"><path d="M635-419q31.5-3 60 0m-62-9c23-2 43-3 64 0" style="fill:#f9e1cd;fill-opacity:1;stroke:none" transform="matrix(.0695 0 0 .0695 120.13 203.966)"/><path d="M635-419q31.5-3 60 0m-62-9c23-2 43-3 64 0" style="fill:#f9e1cd;fill-opacity:1;stroke:none" transform="matrix(.0695 0 0 .0695 120.13 203.966)"/></g><path d="M579.1-137.7c2 3 3 8 1 15m-4-21h6m-10-20c0 3-2 7 8 7 8 0 14-9 1-7m-3-15c-2 1-4 3-5 6" style="fill:#f9e1cd;fill-opacity:1;stroke:none" transform="matrix(.0695 0 0 .0695 126.028 189.21)"/></g><g style="fill:#f9e1cd;fill-opacity:1;stroke:none"><path d="M580-245v121" style="fill:#f9e1cd;fill-opacity:1;stroke:none" transform="scale(.0695)rotate(-3 50555.44 -32323.637)"/><g stroke="#000" style="fill:#f9e1cd;fill-opacity:1;stroke:none"><path fill="#f7db17" d="m580-245-8 11c-4 0-3 3-2 6-5-3-5 2-5 7-4-8-8-9-13-6 0-5-7-5-9-6l-8-4 12 19c2 5 1 8 3 12-10-4-16-1-16-5-1 9 3 17 11 24-5-2-10-1-14 0 2 8 8 10 14 12-10 2-6 16-11 15 5 4 12 2 17 0-6 4-7 9-7 14 3 1 7 0 11-2-3 3-2 10-5 13 9 1 13-1 16-4-4 6-1 10-1 14 3-3 6-8 10-8-2 7 4 6 5 10" style="fill:#f9e1cd;fill-opacity:1;stroke:none" transform="scale(.0695)rotate(-3 50555.44 -32323.637)"/><path d="M159.717 163.336a.209.139 65 0 1-.037.247.209.139 65 0 1-.215-.13.209.139 65 0 1 .038-.248.209.139 65 0 1 .214.13M160.047 164.11a.104.104 0 0 1-.099.11.104.104 0 0 1-.11-.1.104.104 0 0 1 .1-.109.104.104 0 0 1 .11.099M160.946 163.993a.104.104 0 0 1-.099.11.104.104 0 0 1-.11-.1.104.104 0 0 1 .1-.109.104.104 0 0 1 .109.099M161.367 166.059a.174.174 0 0 1-.164.182.174.174 0 0 1-.183-.164.174.174 0 0 1 .165-.183.174.174 0 0 1 .182.165"/><path d="M580.1-156.7v8c0 2-5 3-10 2m5-3-8-4m8 1-8-5m8 25c1-3 0-5 0-7m-5 1c1 8-3 10-5 14 7-7 7-10 7-14m-6 0c1-2 2-4 4-5m-20 9c4-2 8 1 12-6m-12 6c6-1 7-11 13-13m-10 1c3-2 6-4 7-5m-16 6c4-4 8-8 12-8m-12 8c3-4 3-11 10-12m-5-1c3-2 5-2 6-2m-20 1c4 1 9 0 11-1m-8-4c2-4 6-6 10-4m-3-6c4 1 5 2 6 2m-20-13c4 4 9 2 15 8m-7-9c4 2 10 3 10 8m24-4c0 2 1 4 0 5-9-4-10-4-10-10m14-10c3 14 0 15-4 15-4-4-7-4-10-5-2-1-3-2-5-4m6-2c4-1 9 3 12 6m-42-21c1 3 1 6 6 8 1 7 5 7 8 9q-4.5-3-6-12m31-4c1 1 3 4 3 4m-8-4c0 1 1 4 1 5m-7-5c1 1 3 4 3 5m-10-4c2 1 8 4 8 6m-13-5c1 1 1 4 3 6m27-35c0 3-3 4-5 5 2 1 5 2 5 5" style="fill:#f9e1cd;fill-opacity:1;stroke:none" transform="scale(.0695)rotate(-3 50555.44 -32323.637)"/></g><path d="M163.373 163.831a.104.104 0 0 1-.098.11.104.104 0 0 1-.11-.1.104.104 0 0 1 .099-.109.104.104 0 0 1 .11.099"/><g stroke="#000" style="fill:#f9e1cd;fill-opacity:1;stroke:none"><path fill="#f7db17" d="m580-245-8 11c-4 0-3 3-2 6-5-3-5 2-5 7-4-8-8-9-13-6 0-5-7-5-9-6l-8-4 12 19c2 5 1 8 3 12-10-4-16-1-16-5-1 9 3 17 11 24-5-2-10-1-14 0 2 8 8 10 14 12-10 2-6 16-11 15 5 4 12 2 17 0-6 4-7 9-7 14 3 1 7 0 11-2-3 3-2 10-5 13 9 1 13-1 16-4-4 6-1 10-1 14 3-3 6-8 10-8-2 7 4 6 5 10" style="fill:#f9e1cd;fill-opacity:1;stroke:none" transform="scale(-.0695 .0695)rotate(3 -49975.44 -54472.945)"/><path d="M163.959 163.113a.209.139-71 0 0 .063.243.209.139-71 0 0 .2-.152.209.139-71 0 0-.064-.242.209.139-71 0 0-.2.151M163.712 163.918a.104.104 0 0 0 .11.098.104.104 0 0 0 .098-.11.104.104 0 0 0-.11-.098.104.104 0 0 0-.098.11M162.806 163.895a.104.104 0 0 0 .11.1.104.104 0 0 0 .098-.11.104.104 0 0 0-.11-.1.104.104 0 0 0-.098.11M162.603 165.994a.174.174 0 0 0 .182.165.174.174 0 0 0 .165-.183.174.174 0 0 0-.183-.165.174.174 0 0 0-.164.183"/><path d="M580.1-156.7v8c0 2-5 3-10 2m5-3-8-4m8 1-8-5m8 25c1-3 0-5 0-7m-5 1c1 8-3 10-5 14 7-7 7-10 7-14m-6 0c1-2 2-4 4-5m-20 9c4-2 8 1 12-6m-12 6c6-1 7-11 13-13m-10 1c3-2 6-4 7-5m-16 6c4-4 8-8 12-8m-12 8c3-4 3-11 10-12m-5-1c3-2 5-2 6-2m-20 1c4 1 9 0 11-1m-8-4c2-4 6-6 10-4m-3-6c4 1 5 2 6 2m-20-13c4 4 9 2 15 8m-7-9c4 2 10 3 10 8m24-4c0 2 1 4 0 5-9-4-10-4-10-10m14-10c3 14 0 15-4 15-4-4-7-4-10-5-2-1-3-2-5-4m6-2c4-1 9 3 12 6m-42-21c1 3 1 6 6 8 1 7 5 7 8 9q-4.5-3-6-12m31-4c1 1 3 4 3 4m-8-4c0 1 1 4 1 5m-7-5c1 1 3 4 3 5m-10-4c2 1 8 4 8 6m-13-5c1 1 1 4 3 6m27-35c0 3-3 4-5 5 2 1 5 2 5 5" style="fill:#f9e1cd;fill-opacity:1;stroke:none" transform="scale(-.0695 .0695)rotate(3 -49975.44 -54472.945)"/></g><g style="fill:#f9e1cd;fill-opacity:1;stroke:none"><path d="M635-419q31.5-3 60 0m-62-9c23-2 43-3 64 0" style="fill:#f9e1cd;fill-opacity:1;stroke:none" transform="scale(.0695)rotate(-3 54651.58 -30809.26)"/><path d="M635-419q31.5-3 60 0m-62-9c23-2 43-3 64 0" style="fill:#f9e1cd;fill-opacity:1;stroke:none" transform="scale(.0695)rotate(-3 54651.58 -30809.26)"/></g><path d="M579.1-137.7c2 3 3 8 1 15m-4-21h6m-10-20c0 3-2 7 8 7 8 0 14-9 1-7m-3-15c-2 1-4 3-5 6" style="fill:#f9e1cd;fill-opacity:1;stroke:none" transform="scale(.0695)rotate(-3 50555.44 -32323.637)"/></g><g style="fill:#f9e1cd;fill-opacity:1;stroke:none"><path d="M580-245v121" style="fill:#f9e1cd;fill-opacity:1;stroke:none" transform="scale(.0695)rotate(3 -47581.979 36908.56)"/><g stroke="#000" style="fill:#f9e1cd;fill-opacity:1;stroke:none"><path fill="#f7db17" d="m580-245-8 11c-4 0-3 3-2 6-5-3-5 2-5 7-4-8-8-9-13-6 0-5-7-5-9-6l-8-4 12 19c2 5 1 8 3 12-10-4-16-1-16-5-1 9 3 17 11 24-5-2-10-1-14 0 2 8 8 10 14 12-10 2-6 16-11 15 5 4 12 2 17 0-6 4-7 9-7 14 3 1 7 0 11-2-3 3-2 10-5 13 9 1 13-1 16-4-4 6-1 10-1 14 3-3 6-8 10-8-2 7 4 6 5 10" style="fill:#f9e1cd;fill-opacity:1;stroke:none" transform="scale(.0695)rotate(3 -47581.979 36908.56)"/><path d="M168.67 163.111a.209.139 71 0 1-.063.243.209.139 71 0 1-.2-.152.209.139 71 0 1 .064-.242.209.139 71 0 1 .2.151M168.917 163.916a.104.104 0 0 1-.11.098.104.104 0 0 1-.098-.11.104.104 0 0 1 .11-.098.104.104 0 0 1 .098.11M169.823 163.893a.104.104 0 0 1-.11.1.104.104 0 0 1-.098-.11.104.104 0 0 1 .11-.1.104.104 0 0 1 .098.11M170.026 165.992a.174.174 0 0 1-.182.165.174.174 0 0 1-.165-.183.174.174 0 0 1 .183-.165.174.174 0 0 1 .164.183"/><path d="M580.1-156.7v8c0 2-5 3-10 2m5-3-8-4m8 1-8-5m8 25c1-3 0-5 0-7m-5 1c1 8-3 10-5 14 7-7 7-10 7-14m-6 0c1-2 2-4 4-5m-20 9c4-2 8 1 12-6m-12 6c6-1 7-11 13-13m-10 1c3-2 6-4 7-5m-16 6c4-4 8-8 12-8m-12 8c3-4 3-11 10-12m-5-1c3-2 5-2 6-2m-20 1c4 1 9 0 11-1m-8-4c2-4 6-6 10-4m-3-6c4 1 5 2 6 2m-20-13c4 4 9 2 15 8m-7-9c4 2 10 3 10 8m24-4c0 2 1 4 0 5-9-4-10-4-10-10m14-10c3 14 0 15-4 15-4-4-7-4-10-5-2-1-3-2-5-4m6-2c4-1 9 3 12 6m-42-21c1 3 1 6 6 8 1 7 5 7 8 9q-4.5-3-6-12m31-4c1 1 3 4 3 4m-8-4c0 1 1 4 1 5m-7-5c1 1 3 4 3 5m-10-4c2 1 8 4 8 6m-13-5c1 1 1 4 3 6m27-35c0 3-3 4-5 5 2 1 5 2 5 5" style="fill:#f9e1cd;fill-opacity:1;stroke:none" transform="scale(.0695)rotate(3 -47581.979 36908.56)"/></g><path d="M172.254 163.986a.104.104 0 0 1-.11.099.104.104 0 0 1-.098-.11.104.104 0 0 1 .11-.098.104.104 0 0 1 .098.11"/><g stroke="#000" style="fill:#f9e1cd;fill-opacity:1;stroke:none"><path fill="#f7db17" d="m580-245-8 11c-4 0-3 3-2 6-5-3-5 2-5 7-4-8-8-9-13-6 0-5-7-5-9-6l-8-4 12 19c2 5 1 8 3 12-10-4-16-1-16-5-1 9 3 17 11 24-5-2-10-1-14 0 2 8 8 10 14 12-10 2-6 16-11 15 5 4 12 2 17 0-6 4-7 9-7 14 3 1 7 0 11-2-3 3-2 10-5 13 9 1 13-1 16-4-4 6-1 10-1 14 3-3 6-8 10-8-2 7 4 6 5 10" style="fill:#f9e1cd;fill-opacity:1;stroke:none" transform="scale(-.0695 .0695)rotate(-3 48161.979 59057.867)"/><path d="M172.912 163.334a.209.139-65 0 0 .038.247.209.139-65 0 0 .214-.13.209.139-65 0 0-.038-.248.209.139-65 0 0-.214.13M172.582 164.108a.104.104 0 0 0 .099.11.104.104 0 0 0 .11-.1.104.104 0 0 0-.1-.109.104.104 0 0 0-.109.099M171.683 163.991a.104.104 0 0 0 .099.11.104.104 0 0 0 .11-.1.104.104 0 0 0-.1-.109.104.104 0 0 0-.109.099M171.262 166.057a.174.174 0 0 0 .164.182.174.174 0 0 0 .183-.164.174.174 0 0 0-.165-.183.174.174 0 0 0-.182.165"/><path d="M580.1-156.7v8c0 2-5 3-10 2m5-3-8-4m8 1-8-5m8 25c1-3 0-5 0-7m-5 1c1 8-3 10-5 14 7-7 7-10 7-14m-6 0c1-2 2-4 4-5m-20 9c4-2 8 1 12-6m-12 6c6-1 7-11 13-13m-10 1c3-2 6-4 7-5m-16 6c4-4 8-8 12-8m-12 8c3-4 3-11 10-12m-5-1c3-2 5-2 6-2m-20 1c4 1 9 0 11-1m-8-4c2-4 6-6 10-4m-3-6c4 1 5 2 6 2m-20-13c4 4 9 2 15 8m-7-9c4 2 10 3 10 8m24-4c0 2 1 4 0 5-9-4-10-4-10-10m14-10c3 14 0 15-4 15-4-4-7-4-10-5-2-1-3-2-5-4m6-2c4-1 9 3 12 6m-42-21c1 3 1 6 6 8 1 7 5 7 8 9q-4.5-3-6-12m31-4c1 1 3 4 3 4m-8-4c0 1 1 4 1 5m-7-5c1 1 3 4 3 5m-10-4c2 1 8 4 8 6m-13-5c1 1 1 4 3 6m27-35c0 3-3 4-5 5 2 1 5 2 5 5" style="fill:#f9e1cd;fill-opacity:1;stroke:none" transform="scale(-.0695 .0695)rotate(-3 48161.979 59057.867)"/></g><g style="fill:#f9e1cd;fill-opacity:1;stroke:none"><path d="M635-419q31.5-3 60 0m-62-9c23-2 43-3 64 0" style="fill:#f9e1cd;fill-opacity:1;stroke:none" transform="scale(.0695)rotate(3 -51593.249 35181.882)"/><path d="M635-419q31.5-3 60 0m-62-9c23-2 43-3 64 0" style="fill:#f9e1cd;fill-opacity:1;stroke:none" transform="scale(.0695)rotate(3 -51593.249 35181.882)"/></g><path d="M579.1-137.7c2 3 3 8 1 15m-4-21h6m-10-20c0 3-2 7 8 7 8 0 14-9 1-7m-3-15c-2 1-4 3-5 6" style="fill:#f9e1cd;fill-opacity:1;stroke:none" transform="scale(.0695)rotate(3 -47581.979 36908.56)"/></g><g stroke="#000" stroke-width="2" style="fill:#f9e1cd;fill-opacity:1;stroke:none"><path fill="red" d="M898 386c1 2 1 4-1 6-4 4-15 5-14 0-3 2-7-4-5-5s4-1 6-3c1-1 1-3 2-3m49 5c2 2 1 4 0 6-5 5-19 1-19-3-6-4 2-6 5-6m54 13c9 13-34 16-19 6-4 0-5-2-5-5 0-1 1-1 2-1 2 0 4-1 6-2l3-3m-83-23q3 3 0 6c-3 4-19 4-18-2-5 0-1-7 4-8" style="fill:#f9e1cd;fill-opacity:1;stroke:none" transform="matrix(.0695 0 0 .0695 118.181 152.255)"/><path fill="#f7db17" d="M919 218c2 0 3 1 4 2 3 2 7 2 12 3 3 0 3 3-1 5-2 3-5 4-9 4-6 4-9 2-11-1 0 2 0 3-1 5 1 3 0 6-1 9 0 2 3 3 3 5 0 1 1 2 2 3s3 2 4 3c4 1 5 3 6 7 3 1 4 3 4 5 2 1 3 3 4 4 10 0 21 0 28 7 2 0 6 3 8 2 6-4 14-4 21-3 3 1 5 3 7 5 3 3 7 3 11 1q7.5-3 15 0c2-1 4-1 6-1 5-6 16 2 10 5-2 3-4 5-8 5 0 2-2 4-3 5 2 6 0 8-4 8-1 2-2 2-4 2-2 2-3 3-5 3 2 4 3 10-3 10 1 3 0 5 0 8q6 3 0 6c2 4 2 9-3 11 0 2 1 5-1 6-1 1-4 4-3 6 2 3 3 5 0 5-2 0-1 1-3 2-4 2-7 6-10 7-2 5-7 9-11 14-1 4-3 6-6 7 0 1-1 3-2 3-5 0-9-2-13-5 1-4 3-7 7-8 7-4 11-11 15-18-1-2-2-3-2-5-2-1-3-2-4-3-3 0-4 0-4-2-4 3-5 1-7 1-2 2-4 3-6 5-1 2-3 2-5 2-5 0-6 9-9 12-1 1-4 3-5 5 0 4 0 7-2 7s-4-1-5-1c-6 1-5-1-14-3 4-4 7-7 11-9 1-1 2-2 4-3 0-4 3-7 6-10 0-1 0-2 1-3v-2c-1-2-2-4-1-6 0-1 1-4 1-5-3 3-4 4-7 3-2 2-7 0-9-3-2 1-5 2-7 1-2 1-3 1-5 1-1 1-2 3-3 4-1 7-5 13-8 19v3c0 4-1 6-3 7l-3 6c-7-1-8-3-12-5 1-2 2-5 4-5 1-3 2-6 4-9 0-1 1-1 1-2 0-2 2-4 1-4-1-3 0-5 1-7 2-3 4-9 2-12v-5c-6-3-5 2-8 4-1 5-3 10-6 11-1 2-1 5-1 7 0 3 0 4-1 4-3 1-3 3-4 5-6 2-8-1-14-4 5-1 5-3 8-7 0-5 1-8 4-9 0-6 5-12 4-17-3-2-4-3-1-5 1 0 1-2 0-2-2-1-1-4-2-5-4-1-4-2-2-4 1-2 0-3 0-6-2-4 2-8-2-10-4 0-6-2-4-5 1-1 2-4 4-5 1-2 2-2 1-4-1-3 2-5 6-8v-3c-2-2-2-3 0-5 0-1-1-2-1-3-5 1-4-2-2-7q-4.5-3 3-9v-2c-2 0-3 0-5 1s-4 2-6 1l-3-3c-1-1-1-3-1-4-6 0-7-4-4-6 2-2 4-3 4-5 2-4 5-6 8-9 0-1 1-3 1-4-1-1-3-2-5-2-1-2-1-3-3-4-1-1-2-2-1-3-3-3-2-4 1-6s8-1 13 2c2 1 4 2 5 4" style="fill:#f9e1cd;fill-opacity:1;stroke:none" transform="matrix(.0695 0 0 .0695 118.181 152.255)"/><path fill="red" d="M891 213q-1.5-3-6-3c3-3 4-6 9-6 4-3 7-5 11-6 5-3 14-6 16-6 9-1 15 0 15 0 5 0 12 2 17 5l24 12c5 2 10 4 17 4 3 0 8 0 11-1s4 1 1 3c-20 13-36 0-49-5 5 3 9 8 13 12 13 11 27 19 43 19 3 0 6 0 10-1 3-1 3 2 1 3-5 4-10 5-16 5-10 1-22-2-33-8-8-5-13-10-20-15-11-8-24-12-36-8-3-1-5-1-8-1-6-5-13-5-20-4z" style="fill:#f9e1cd;fill-opacity:1;stroke:none" transform="matrix(.0695 0 0 .0695 118.181 152.255)"/></g><g stroke="#000" style="fill:#f9e1cd;fill-opacity:1;stroke:none"><path d="M994 213c3 1 2 4 1 6m-8-7c2 4-2 8-3 8m-7-11c3 4-5 7-7 7m-5-13c2 3-3 8-8 7-20-15-52-10-66 3m62-16c1 3 0 6-2 7m-15-12c3 1 4 5 3 8m-18-8c2 0 5 5 4 7m-20-1c4 0 8 3.359 7 4.359 6-.359 10 6.641 9 12.64m-30-10c2-1 5-.65 7 0m112 36c1 4-1 5-2 7m-9-9c0 4-3 7-5 8m-9-14c0 3-3 9-7 9m-5-17c0 5-7 8-9 8m-2-19c1 6-3 10-7 10m-8-19c2 4 0 11-2 12m-17-16c6 2 6 10 3 12m-40 0c7-5 20-7 19 3" style="fill:#f9e1cd;fill-opacity:1;stroke:none" transform="matrix(.0695 0 0 .0695 118.181 152.255)"/><path fill="#000" d="M889 226c1 0 2 1 2 2s-1 2-2 2-2-1-2-2 1-2 2-2" style="fill:#f9e1cd;fill-opacity:1;stroke:none" transform="matrix(.0695 0 0 .0695 118.181 152.255)"/><path d="M953 313c0 2-1 2-2 3m-66-88c3-5 7-1 10-1 2 0 5 0 6-1m-16 4c5 1 7 0 10-3m102 67c0 2-1 3-1 3m29-5c0 1 1 2 0 3m-6-2c1 1 2 2 2 4m-14-1c1 2 2 5 2 8m-4 12v2m2-14c0 4-3 7-2 10m2 18-1 5m-1 5c0 5-2 12 2 16m-9-15v8m-7-11c1 5 1 15 4 8m-4-18c2 6 3 4 3 0m-28 0c4 1 7 16 7 6 0-3-1-6-2-10m19 26v2m-4-9c-1 1-1 3-1 4m-5-6c0 1-1 2-1 3m-8-6c0 1 0 3-1 4m-7-36c1 0-3 4-1 4m16 12c1 1-2 5-1 5m7-3c-2 3-2 6-3 9m17-13c2 4 2 18 5 6 1-2 1-5 2-7m-12-24c3 3 7 6 8 10m-11 5c6 28 5-7 9-5m-9-4c0 1-1 5-1 6m-14-6c-1 6 3 19 6 18 0-6 4-12 5-18m-11-10c0 2 1 4 1 6m-7-3v5m0 10c1 3-8 11 0 7 2-1 4-3 6-5m-16-11c1 6-6 16-5 18 4-4 11-4 14-10m-7-17c-1 4 4 7 4 10m-6-18c0 2-1 4-2 6m-4-11v5m-12-1c0 2 0 5 3 5m11 10c-2-3-2-7-4-9-3 4-1 12-5 16 0-5-2-10-4-14m-4 1v4m11 25c-1 1 0 4-1 4m-1-14c-3 4-8 9-6 15m3-19c-1 5-7 8-8 14m-1 6v3m4-26c0 4-3 7-3 11m-6-1c0 4-1 8-4 11m-4-29c-4 8-1 18-1 23 3-5 4-11 9-14m2-12c4 4 4 10 4 16m-6-34c4 5-1 13 5 17m-12-27c-1 4 1 7 2 10m-6-6c1 3 1 6 2 9m-4-5c-2 1-1 4-2 6m7 5c0 2 2 7 4 8 1-3 2-7 0-10m-9 7c3 3 2 8 1 11m-7 0c0 3 2 6 4 9m-5-1c-3 4 2 15 4 14 0-1 0-3 1-4m-4 6c0 1 1 2 1 3m-8-2c6 8 4 23 8 7m-4-32c1 8-6 15-2 22m-5-16v2m4-12c-1 2-2 4-2 6m-14 5c0 2 1 4 2 6m10-24c-1 9-10 17-6 26m11-36v7m3-14c-4 7 6 15 0 21m7-33c-1 4-5 7-5 12m-5-10c0 2 0 3 1 5m-5 5c1 2 1 5 2 7m3-19c-6 4-8 20-8 24m4-28c-3 2-3 6-3 9m7-17c0 3 1 5 0 8m-18 27c-1 1-1 3-1 5m8-17c-7 4-1 18-1 19l2-4m-3-21c2 7-7 8-6 16m15-36c0 6-4 12-7 17m-13-8c-2 0-4 5-6 6m8-4c-1 0-2 2-3 3m8 8 4-10c-2 5-9 10-13 11m7 2c-2 2-5 6-7 6m9-5c-1 3-5 6-7 7m0 9c0 1-1 2-1 4m4-9c-3 2-10 6-13 8m7 2-4 12m9-9c-3 3-8 11-9 15m14-14c-1 4-2 10-7 11m4 1c-1 4-7 6-9 10m8 2c0 2-1 3-2 5m4-2c-1 2-1 5 0 7m3 4v2m2-12c0 2 0 5 1 7m9-16c-3 6-3 14-4 21m-16-1c1 3 1 5 1 8m-11 21 6 3m2-7v2m21 9c0 1-1 2-2 4m5-15v4m2-13v5m11-20c0 4-4 6-3 10m11-6c-2 2-5.51 1.759-6.51 4.759m11.51-11.76c0 4-3 7-4 11m20-10c-4 2-10 9-11 13m13-10c-3 1-5 4-7 7m10 3c7-1 8-10 13-11 0 6-4 7-5 12 12-5 7-6 7 7 1-2 8-7 11-9m-14-26c-10 11-12 14-14 26m-7 28c1 0 1 0 2-1m-9 5c1 0 2-1 3-2m-8 4c1 0 2-2 3-2m19-29c-1 1-1 3-1 4m10-3c-1 0-1 2-1 3m0 3s-1 3 0 4m-4-3c0 2-1 4-1 5m22-6c1-3 1-5 1-7m3 10c1-2 3-4 3-6m-1 11c2-2 2-5 3-6m-3 19c-1 2-3 3-5 5m8-15c0 2-2 3-4 4m8-4c-1 0-1 1-2 2m4-7c0 2-1 5-1 7m1-11c-1 0-1 2-2 2m8-2c-1 2-1 4-2 6m12-23c0 1-1 3 2 4m-2-9c2 0 3-2 5-2m-6-10c1 2 2 5 6 4m-6-15c0 2 4 7 6 7m-1-13c1 0 2 2 4 3m0-9c2 2 5 4 5 6m1-8c1 1 2 5 3 6m1-10c1 0 2 2 3 2m8-12c0 1 3 2 3 2m-10-5c0 1 3 2 2 5m-9-4c2 2 3 4 2 6m-10-7c1 1 2 3 2 4m-12-2c2 2 3 5 3 8m-6-7s1 4 2 3m-5-5c1 3 1 7 1 10m-6-14c0 2 0 4-1 5m-7-7c3 3 5 8 6 12m-9-12c0 1 1 2 2 4m-6-4c3 4 4 10 5 15m-10-14c1 1 2 3 3 4m-7-2c0 3 4 4 6 6m-11-7c2 3 2 8 3 11m-6-12c-2 3 1 8 1 12m-11-18c3 1 4 6 4 9m-12-9c1 2 3 4 3 6m-8-7c1 4 2 11 7 12m-12-12c2 5 1 8 1 12m-5-16c0 1 0 4-1 5m-3-10c-2 2-2 5-2 7m-4-14c-1 1-1 4-1 5m-3-8c0 3-3 7-4 10m2-13c0 1-1 3-1 4m-1-7c0 1-1 2-2 3m1-5c-1 0-2 2-2 3m14-23c1 0 2 1 4 1m-12-1c-2 0-2 2-2 2m4-5c-2-1-5 1-6 3m11 2c3 2 8 0 11 1m-12 3s3-1 3 1m-17 15c2-1 3-3 5-7m-13 6c4 0 9-2 13-7m-4-4c1 1 2 1 4 1m-10-1c2-1 3-3 5-4m-14-1s2-1 3-2m14-11c-2 0-7 1-9 1m-13 28c5-2 7-1 9 0-3 3-5 1-8 4m0-8-3 2m-18 5c5-1 8-6 9-6m-12 0c5-3 3-4 6-5m7-2c0 1-1 2-1 3m5 0c0 1-1 2-1 4m14-6c-1 0-3 3-3 3m3-27c-1-1-5 5-5 6m0 15c0 1-3 3-3 4m-12-8-1 2m6-4-2 2m2-8-3 3m12-12c-1 0-3 2-3 3m-2 2c0 1-2 1-2 2m-9-12c1 1 2 2 2 3m-12-4c1 0 2 1 3 1" style="fill:#f9e1cd;fill-opacity:1;stroke:none" transform="matrix(.0695 0 0 .0695 118.181 152.255)"/></g><path d="M115 578.001v684.9c0 317.385 260.124 577.1 578.001 577.1C1010.88 1840 1271 1580.286 1271 1262.9v-684.9Zm243.363 19.997h222.905v239.14h224.908v-239.14H1028v239.14H1250v250.261h-221.373v241.644h217.68c-10.552 92.046-44.053 177.29-94.618 250.055h-123.066v-250.055H806.176v-241.644H581.268V837.138h-222.45v250.261h222.447v241.644h224.908v250.055h221.826v128.46c-64.666 48.691-140.117 83.746-221.826 100.768v-229.228H581.265v-250.055H358.812l.003 250.055h221.822v229.404c-81.722-16.91-157.155-51.887-221.825-100.516v-128.888H234.699c-50.54-72.765-84.092-158.009-94.846-250.055h218.959v-241.644H135.999V837.138h222.364zm447.813 489.401H1028V837.138H806.176Z" style="color:#000;fill:#f9e1cd;fill-opacity:1;stroke-width:8;-inkscape-stroke:none" transform="matrix(.0695 0 0 .0668 118.181 155.628)"/><g aria-label="EUROPSKA UNIJA" style="font-weight:700;font-size:16.6834px;font-family:&quot;Road UA&quot;;-inkscape-font-specification:&quot;Road UA Bold&quot;;letter-spacing:1.61615px;fill:#f9e1cd;stroke-width:1.24452;stroke-linecap:square;paint-order:stroke fill markers"><path d="M81.428 61.113v-12.13h8.203v2.314h-5.173v2.126h4.766v2.313h-4.766V58.8h5.173v2.314zM98.212 61.365q-2.444 0-3.763-1.18-1.312-1.182-1.312-3.455v-7.747h3.047v7.568q0 1.263.472 1.882.48.619 1.556.619 1.05 0 1.54-.595.497-.594.497-1.906v-7.568h3.046v7.739q0 2.24-1.287 3.446-1.279 1.197-3.796 1.197M118.467 61.113h-3.715l-3.38-4.448h-1.092v4.448h-3.03v-12.13h4.879q1.01 0 1.76.13.749.123 1.384.522.652.415 1.035 1.059.383.635.383 1.62 0 1.394-.627 2.266-.628.863-1.679 1.376zm-4.904-8.415q0-.456-.18-.782-.17-.334-.578-.513-.285-.123-.635-.155-.35-.033-.872-.033h-1.018v3.267h.871q.636 0 1.076-.073.448-.082.757-.334.294-.229.432-.546.147-.318.147-.831M132.025 55.052q0 2.94-1.572 4.627t-4.31 1.686q-2.745 0-4.309-1.702-1.564-1.71-1.564-4.61 0-2.925 1.564-4.62 1.564-1.702 4.31-1.702 2.737 0 4.309 1.694 1.572 1.686 1.572 4.627m-3.144-.008q0-1.083-.228-1.841-.22-.766-.595-1.255-.391-.497-.888-.708-.489-.22-1.018-.22-.562 0-1.019.203-.456.196-.88.71-.374.472-.61 1.254-.228.782-.228 1.865 0 1.116.22 1.857.22.734.602 1.23.391.506.888.726.497.211 1.027.211.537 0 1.042-.228.506-.236.872-.725.391-.53.603-1.23.212-.709.212-1.849M144.777 52.812q0 .847-.269 1.613-.268.766-.774 1.279-.31.317-.684.586-.366.27-.814.456-.448.188-.978.294-.521.106-1.173.106h-1.597v3.967h-3.046v-12.13h4.708q1.051 0 1.809.196.765.187 1.384.602.685.457 1.06 1.222.374.758.374 1.809m-3.128.073q0-.513-.244-.88-.245-.374-.587-.513-.432-.187-.83-.212-.392-.032-1.068-.032h-.432v3.633h.212q.432 0 .815-.008t.668-.057q.244-.04.513-.155.277-.122.424-.269.31-.301.415-.627.114-.326.114-.88M151.77 61.333q-1.393 0-2.452-.269-1.051-.269-1.955-.668v-2.884h.277q.912.774 2.012 1.19t2.134.415q.26 0 .684-.057.432-.057.693-.18.317-.138.537-.382.22-.253.22-.66 0-.456-.358-.741t-.855-.416q-.62-.163-1.328-.31-.7-.146-1.312-.358-1.409-.497-2.02-1.336t-.611-2.101q0-1.703 1.442-2.754 1.442-1.059 3.6-1.059 1.084 0 2.151.22 1.075.22 1.923.595v2.77h-.27q-.675-.579-1.653-.978-.97-.4-1.996-.4-.399 0-.717.058-.317.057-.668.22-.285.13-.496.39-.204.253-.204.571 0 .464.326.741.334.27 1.279.49.61.138 1.173.268.57.13 1.214.358 1.262.457 1.873 1.23.62.766.62 2.029 0 1.808-1.426 2.908-1.418 1.1-3.837 1.1M170.835 61.113h-3.682l-3.307-4.929-.595.831v4.098h-3.047v-12.13h3.047v5.385l3.878-5.385h3.527l-4.326 5.63zM172.134 61.113l4.097-12.13h3.324l4.097 12.13h-3.136l-.758-2.477h-3.812l-.758 2.477zm6.956-4.676-1.238-4-1.238 4zM197.882 61.365q-2.444 0-3.764-1.18-1.311-1.182-1.311-3.455v-7.747h3.047v7.568q0 1.263.472 1.882.48.619 1.556.619 1.05 0 1.54-.595.496-.594.496-1.906v-7.568h3.047v7.739q0 2.24-1.287 3.446-1.279 1.197-3.796 1.197M217.314 61.113h-2.933l-4.676-8.456v8.456h-2.786v-12.13h3.74l3.869 6.949v-6.949h2.786zM227.435 61.113H220.9v-2.118h1.744V51.1H220.9v-2.118h6.534v2.118h-1.744v7.894h1.744zM237.067 57.553q0 .79-.27 1.49-.268.693-.814 1.182-.61.554-1.442.815-.83.26-1.914.26-.807 0-1.515-.065-.709-.057-1.247-.171v-2.46h.277q.367.146.766.277.4.122 1.026.122.807 0 1.239-.228.44-.228.619-.636.187-.399.203-.92.025-.53.025-1.173v-4.863h-2.778v-2.2h5.825zM239.734 61.113l4.097-12.13h3.324l4.097 12.13h-3.136l-.758-2.477h-3.812l-.758 2.477zm6.956-4.676-1.238-4-1.238 4z" style="font-family:Tahoma;-inkscape-font-specification:&quot;Tahoma Bold&quot;"/></g><g aria-label="REPUBLIKA HRVATSKA" style="font-weight:700;font-size:18.9282px;font-family:&quot;Road UA&quot;;-inkscape-font-specification:&quot;Road UA Bold&quot;;letter-spacing:2.1388px;fill:#f9e1cd;stroke-width:1.41197;stroke-linecap:square;paint-order:stroke fill markers"><path d="M51.514 81.611h-4.215l-3.835-5.046h-1.239v5.046h-3.438V67.849h5.536q1.146 0 1.996.148.85.139 1.572.592.739.471 1.173 1.201.435.721.435 1.84 0 1.58-.712 2.569-.712.98-1.904 1.562zm-5.564-9.547q0-.518-.204-.888-.194-.378-.656-.582-.323-.138-.72-.175-.398-.037-.99-.037h-1.155v3.706h.99q.72 0 1.219-.083.508-.093.86-.38.332-.258.49-.619.166-.36.166-.942M54.67 81.611V67.849h9.306v2.625h-5.869v2.412h5.407v2.625h-5.407v3.475h5.87v2.625zM79.045 72.193q0 .961-.305 1.83t-.878 1.451q-.351.36-.777.666-.415.305-.924.517-.508.213-1.109.333-.591.12-1.33.12H71.91v4.501h-3.457V67.849h5.342q1.192 0 2.052.222.869.213 1.571.684.777.518 1.202 1.386.425.86.425 2.052m-3.55.083q0-.582-.276-.998-.278-.425-.666-.582-.49-.213-.943-.24-.443-.037-1.21-.037h-.49v4.122h.24q.49 0 .924-.01.435-.009.758-.064.277-.046.582-.176.315-.138.481-.305.351-.342.471-.711.13-.37.13-.999M88.596 81.898q-2.773 0-4.27-1.34-1.488-1.34-1.488-3.92V67.85h3.457v8.586q0 1.433.536 2.135.545.703 1.765.703 1.192 0 1.747-.675.563-.675.563-2.163V67.85h3.457v8.78q0 2.542-1.46 3.91-1.451 1.359-4.307 1.359M110.162 77.397q0 1.025-.388 1.802-.388.776-1.045 1.284-.776.61-1.71.87-.924.258-2.356.258h-5.509V67.849h4.862q1.516 0 2.292.12.786.111 1.47.481.739.397 1.1 1.063.369.665.369 1.534 0 1.008-.508 1.793-.5.786-1.387 1.155v.074q1.276.268 2.043 1.1.767.823.767 2.228m-4.427-5.657q0-.332-.176-.684-.166-.35-.526-.508-.342-.148-.814-.157-.462-.019-1.386-.019h-.24v2.912h.434q.887 0 1.238-.019.36-.018.74-.194.416-.194.573-.536t.157-.795m.869 5.592q0-.638-.26-.998-.258-.36-.775-.546-.315-.12-.87-.129-.544-.018-1.469-.018h-.637v3.447h.184q1.35 0 1.867-.019.518-.018 1.054-.25.471-.202.684-.59.222-.398.222-.897M123.465 81.611h-9.186V67.849h3.456v11.137h5.73zM134.107 81.611h-7.412v-2.403h1.978v-8.956h-1.978V67.85h7.412v2.403h-1.978v8.956h1.978zM150.6 81.611h-4.178l-3.753-5.592-.674.943v4.649h-3.457V67.849h3.457v6.11l4.399-6.11h4.002l-4.908 6.387zM152.378 81.611l4.648-13.762h3.771l4.65 13.762h-3.56l-.859-2.81h-4.325l-.86 2.81zm7.893-5.305-1.405-4.538-1.405 4.538zM188.255 81.611h-3.457v-6.1h-4.704v6.1h-3.457V67.849h3.457v5.037h4.704V67.85h3.457zM205.967 81.611h-4.215l-3.835-5.046h-1.239v5.046h-3.438V67.849h5.536q1.146 0 1.996.148.85.139 1.572.592.739.471 1.173 1.201.435.721.435 1.84 0 1.58-.712 2.569-.711.98-1.904 1.562zm-5.564-9.547q0-.518-.204-.888-.194-.378-.656-.582-.323-.138-.72-.175-.398-.037-.99-.037h-1.155v3.706h.99q.72 0 1.219-.083.508-.093.86-.38.332-.258.49-.619.166-.36.166-.942M220.62 67.85l-4.733 13.761h-3.604l-4.732-13.762h3.586l2.994 9.326 2.995-9.326zM222.555 81.611l4.649-13.762h3.77l4.65 13.762h-3.559l-.86-2.81h-4.325l-.86 2.81zm7.893-5.305-1.405-4.538-1.405 4.538zM241.774 81.611V70.474h-4.067V67.85h11.59v2.625h-4.067v11.137zM257.11 81.86q-1.58 0-2.782-.304-1.192-.305-2.218-.758v-3.272h.314q1.036.878 2.283 1.35 1.248.47 2.422.47.296 0 .776-.064.49-.065.786-.203.36-.157.61-.435.25-.286.25-.748 0-.518-.407-.841-.407-.324-.97-.472-.703-.185-1.507-.351-.795-.166-1.488-.407-1.6-.563-2.292-1.515-.694-.952-.694-2.385 0-1.932 1.636-3.124 1.636-1.201 4.085-1.201 1.23 0 2.44.25 1.22.249 2.182.674v3.142h-.305q-.768-.656-1.877-1.109-1.1-.453-2.264-.453-.453 0-.813.065t-.758.25q-.324.148-.564.443-.231.287-.231.647 0 .527.37.841.379.305 1.45.555.694.157 1.332.305.647.148 1.377.406 1.432.518 2.125 1.396.703.869.703 2.301 0 2.052-1.618 3.3-1.608 1.248-4.353 1.248M279.046 81.611h-4.177l-3.753-5.592-.675.943v4.649h-3.456V67.849h3.456v6.11l4.4-6.11h4.002l-4.908 6.387zM280.824 81.611l4.65-13.762h3.77l4.649 13.762h-3.558l-.86-2.81h-4.325l-.86 2.81zm7.893-5.305-1.405-4.538-1.404 4.538z" style="font-family:Tahoma;-inkscape-font-specification:&quot;Tahoma Bold&quot;"/></g><g aria-label="PUTOVNICA" style="font-weight:700;font-size:23.9531px;font-family:&quot;Road UA&quot;;-inkscape-font-specification:&quot;Road UA Bold&quot;;letter-spacing:0;fill:#f9e1cd;stroke-width:1.7868;stroke-linecap:square;paint-order:stroke fill markers"><path d="M108.042 350.884q0 1.217-.386 2.316-.386 1.1-1.111 1.836-.444.457-.982.843-.527.386-1.17.655t-1.404.42q-.748.153-1.684.153h-2.292v5.695h-4.374v-17.415h6.76q1.509 0 2.596.281 1.1.27 1.989.866.982.655 1.52 1.754.538 1.088.538 2.596m-4.491.106q0-.737-.351-1.263-.35-.538-.842-.737-.62-.27-1.193-.304-.562-.047-1.532-.047h-.62v5.216h.304q.62 0 1.17-.012.55-.011.959-.081.35-.059.736-.223.398-.175.609-.386.444-.432.596-.9.164-.468.164-1.263M117.422 363.165q-3.509 0-5.403-1.696-1.883-1.696-1.883-4.959v-11.123h4.374v10.866q0 1.813.678 2.702.69.888 2.234.888 1.509 0 2.21-.853.714-.854.714-2.737v-10.866h4.374v11.111q0 3.217-1.848 4.948-1.836 1.72-5.45 1.72M131.422 362.802V348.71h-5.146v-3.322h14.666v3.322h-5.146v14.093zM158.603 354.1q0 4.223-2.257 6.644t-6.187 2.421q-3.942 0-6.187-2.444-2.246-2.457-2.246-6.62 0-4.199 2.246-6.632 2.245-2.444 6.187-2.444 3.93 0 6.187 2.433 2.257 2.42 2.257 6.643m-4.514-.01q0-1.556-.328-2.644-.316-1.1-.854-1.801-.561-.714-1.275-1.018-.701-.316-1.462-.316-.807 0-1.461.293-.655.28-1.264 1.017-.538.679-.877 1.801-.327 1.123-.327 2.679 0 1.602.315 2.666.316 1.053.866 1.767.561.725 1.275 1.04.713.305 1.473.305.772 0 1.498-.328.725-.34 1.251-1.04.561-.761.866-1.767.304-1.018.304-2.655M175.738 345.387l-5.989 17.415h-4.561l-5.988-17.415h4.538l3.79 11.801 3.789-11.8zM192.276 362.802h-4.211l-6.713-12.14v12.14h-4v-17.415h5.368l5.556 9.977v-9.977h4zM204.486 362.802h-9.38v-3.04h2.503v-11.334h-2.503v-3.04h9.38v3.04h-2.503v11.334h2.503zM214.895 363.142q-3.918 0-6.222-2.363-2.304-2.374-2.304-6.667 0-4.14 2.304-6.596 2.316-2.468 6.234-2.468 1.04 0 1.871.117.83.117 1.591.328.596.175 1.298.48.702.303 1.135.525v4.153h-.445q-.316-.281-.795-.667-.48-.398-1.088-.772t-1.345-.632q-.725-.269-1.52-.269-.948 0-1.743.304-.784.293-1.497 1.03-.655.666-1.076 1.8-.41 1.135-.41 2.68 0 1.625.433 2.736.433 1.1 1.135 1.778.678.655 1.509.947.842.293 1.672.293.866 0 1.65-.281.783-.293 1.32-.643.586-.363 1.03-.737.445-.375.772-.667h.398v4.094l-1.111.514q-.632.28-1.299.48-.818.245-1.532.374-.713.129-1.965.129M221.503 362.802l5.883-17.415h4.772l5.883 17.415h-4.502l-1.088-3.555h-5.474l-1.088 3.555zm9.989-6.713-1.778-5.743-1.778 5.743z" style="font-family:Tahoma;-inkscape-font-specification:&quot;Tahoma Bold&quot;"/></g><path d="M171.28 438.709c0-2.85-2.21-5.15-4.94-5.15s-4.94 2.31-4.94 5.15 2.21 5.15 4.94 5.15 4.94-2.31 4.94-5.15m-4.94 7.8c-3.68 0-6.78-2.8-7.36-6.46h-10.42v10.53h35.58v-10.53h-10.42c-.62 3.69-3.68 6.46-7.37 6.46zm-17.79-19.72v10.53h10.42c.63-3.65 3.68-6.46 7.36-6.46s6.78 2.8 7.37 6.46h10.42v-10.53h-35.58z" style="fill:#f9e1cd;fill-opacity:1"/></svg>