<svg xmlns="http://www.w3.org/2000/svg" width="346" height="472" fill="none"><g clip-path="url(#a)"><path fill="#66152A" d="M0 0v472.001h316.927c8.352 0 15.074-6.733 15.074-15.094V15.092C332.001 6.73 325.279 0 316.927 0H0"/><path fill="#DDA46F" d="m165.84 471.76 165.84-.08.081-235.84.08-235.84.08 236L332 472l-166-.08-166-.079zm-19.721-26.367c-.087-.228-.119-2.565-.07-5.193l.088-4.778h11.782l.317 1.118c.179.635 1.028 1.834 1.964 2.774 2.861 2.876 6.462 3.359 9.993 1.34 1.649-.943 3.342-3.055 3.753-4.68.183-.726.185-.726 5.97-.639l5.787.087v10.222l-19.713.083c-15.95.066-19.742.003-19.871-.334m17.505-7.862c-3.825-2.406-2.542-8.105 1.926-8.558 1.68-.171 3.284.626 4.301 2.136.619.92.728 1.419.616 2.818-.115 1.433-.316 1.881-1.282 2.847-.97.972-1.404 1.166-2.843 1.273-1.304.097-1.935-.023-2.718-.516m-17.506-6.197c-.087-.227-.119-2.492-.07-5.031l.089-4.618 19.863-.082 19.863-.082v10.227h-11.757l-.391-1.186c-.539-1.635-3.313-4.327-4.96-4.815-4.402-1.302-8.59.568-10.398 4.643l-.603 1.358h-5.739c-4.405 0-5.775-.096-5.897-.414"/><path fill="#DDA46F" d="M204.068 180.791c-3.62-4.436-6.886-8.425-7.259-8.865l-.678-.798.086 7.698c.094 8.461.121 8.582 2.032 8.941 2.223.417.965.771-2.744.771-3.681 0-4.934-.338-2.823-.76 1.914-.384 1.866-.129 1.866-9.761v-8.846l-.908-.871c-.499-.478-1.432-.955-2.074-1.06-.682-.111-1.166-.371-1.166-.627 0-.338.668-.437 2.964-.437h2.965l6.5 8c3.575 4.4 6.628 8.079 6.784 8.175.165.102.244-2.883.188-7.067-.09-6.74-.141-7.275-.717-7.697-.34-.249-1.034-.453-1.542-.453-.596 0-.876-.141-.79-.399.166-.499 7.534-.576 7.658-.08.044.176-.351.368-.877.426-2.115.236-2.074.011-2.074 11.444 0 8.134-.087 10.332-.405 10.332-.223 0-3.367-3.629-6.986-8.066m-109.53 7.463c-.096-.157.321-.378.928-.492 2.122-.398 2.082-.201 2.082-10.389 0-10.079.054-9.793-1.932-10.199-.534-.11-1-.343-1.035-.519-.04-.198 1.72-.353 4.642-.408 4.046-.075 4.706-.018 4.706.4q.002.488-.934.487c-2.15 0-2.337.981-2.199 11.532.112 8.615.131 8.698 2.028 9.055.608.114 1.105.344 1.105.512 0 .39-9.15.411-9.39.021m10.668 0c0-.156.488-.375 1.084-.487 1.956-.368 1.947-.321 1.947-10.485 0-8.779-.03-9.263-.619-9.694-.341-.25-1.023-.454-1.516-.454-.584 0-.896-.167-.896-.479 0-.4.644-.478 3.908-.473 5.598.007 9.283.451 10.616 1.276 3.997 2.473 3.436 8.074-.978 9.762-.782.299-1.421.615-1.421.702 0 .258 4.452 6.425 5.506 7.626 1.153 1.315 2.175 1.881 3.921 2.171 1.334.222 2.974-.201 3.404-.878.133-.209.243-4.502.246-9.541.004-10.202.011-10.166-2.119-10.166-.754 0-1.077-.13-.987-.399.195-.586 16.79-.747 16.978-.165.072.223.183 1.375.246 2.561.133 2.473-.379 2.933-.99.89-.606-2.025-1.185-2.247-5.855-2.247h-4.077v8.305h3.46c3.842 0 4.248-.187 4.666-2.156.461-2.171.808-.901.808 2.955 0 4.108-.33 5.047-.956 2.721-.188-.7-.615-1.419-.949-1.597-.333-.179-2.051-.325-3.818-.325h-3.211v4.29c0 5.578-.146 5.416 4.691 5.231 4.139-.159 4.72-.427 6.317-2.91 1.538-2.393 1.829-1.857.746 1.375l-.963 2.875h-23.198999999999998l-3.706-5.111c-3.548-4.894-3.753-5.111-4.804-5.111h-1.099v4.13c0 4.603.137 4.951 2.085 5.317 2.407.452.873.775-3.68.775-2.633 0-4.786-.128-4.786-.284m11.285-12.149c2.841-1.758 2.772-6.356-.118-7.852-.653-.339-1.599-.479-2.806-.415l-1.82.095-.089 4.598-.089 4.597 1.915-.174c1.129-.102 2.364-.451 3.007-.849m31.017 12.154c-.098-.159.318-.383.925-.497 2.121-.398 2.082-.202 2.082-10.378 0-10.121.011-10.061-2.004-10.303-.488-.058-.919-.25-.958-.426-.043-.199 1.817-.352 4.956-.407 4.33-.076 5.025-.019 5.025.399 0 .338-.321.487-1.045.487-.575 0-1.365.224-1.755.498-.705.494-.709.557-.709 9.544 0 7.535.077 9.112.465 9.434.322.268 1.589.353 4.125.279 4.262-.125 4.833-.4 6.468-3.106.555-.917 1.084-1.544 1.178-1.393s-.231 1.56-.72 3.132l-.89 2.856-8.482.085c-4.83.049-8.559-.039-8.661-.204m19.757-.042c-.109-.177.026-.393.3-.48l.959-.3c.801-.248 1.493-1.639 5.79-11.647 2.396-5.582 4.372-9.773 4.607-9.773.237 0 2.125 4.106 4.465 9.709 4.073 9.752 5.135 11.721 6.426 11.911.383.057.758.286.831.511.106.321-.793.39-4.203.32-2.567-.053-4.363-.22-4.399-.409-.034-.176.362-.395.878-.487.862-.155.937-.274.906-1.438-.019-.698-.406-2.096-.86-3.106l-.826-1.837h-8.358l-.944 2.106c-.519 1.159-.944 2.52-.944 3.026 0 .765.17.964 1.015 1.183.559.145 1.073.436 1.144.648.162.489-6.486.55-6.787.063m14.2-8.599c0-.163-.778-2.14-1.729-4.393-1.354-3.209-1.781-3.959-1.972-3.458-.133.351-.935 2.213-1.781 4.138s-1.537 3.614-1.537 3.754 1.579.254 3.509.254c1.936 0 3.51-.132 3.51-.295m33.822 8.657c0-.145.535-.396 1.189-.559 1.966-.489 2.019-.781 1.925-10.784-.078-8.381-.118-8.917-.702-9.344-.34-.249-1.022-.453-1.515-.453-.621 0-.897-.163-.897-.529 0-.48.596-.51 6.621-.33 4.251.127 7.233.367 8.33.668 3.102.853 5.019 2.566 6.488 5.799 1 2.198.999 6.552 0 9.1-1.247 3.178-4.217 5.538-7.973 6.336-1.937.411-13.466.494-13.466.096m13.628-1.932c3.564-1.839 5.454-6.366 4.597-11.01-.618-3.345-2.136-5.531-4.695-6.761-1.386-.666-4.295-.986-6.02-.662l-1.128.212V186.9l1.037.148c1.93.276 4.98-.07 6.209-.705m-98.821-26.236c0-.176.431-.32.957-.32.532 0 1.241-.284 1.595-.639.608-.608.639-1.065.639-9.605 0-5.549-.126-9.2-.329-9.581-.202-.377-.82-.694-1.596-.819-3.125-.5-.614-.76 7.349-.76h8.615v2.556c0 2.776-.327 3.258-.904 1.33-.661-2.208-1.177-2.434-5.829-2.553l-4.116-.106v8.676h3.017c3.695 0 4.534-.332 4.974-1.968.608-2.259.944-1.322.944 2.634 0 2.945-.095 3.829-.399 3.729-.22-.072-.443-.5-.497-.952-.19-1.595-1.081-1.994-4.721-2.114l-3.318-.109v4.438c0 3.025.122 4.559.383 4.821.585.585 7.07.511 8.344-.096.553-.263 1.494-1.198 2.092-2.076.988-1.452 1.625-1.985 1.625-1.36 0 .132-.37 1.354-.823 2.716l-.824 2.477h-8.589c-5.513 0-8.589-.114-8.589-.319m20.421 0c0-.176.42-.32.934-.32 2.15 0 2.337-.98 2.199-11.532-.112-8.631-.137-8.741-2.049-9.1-2.386-.448-.835-.772 3.702-.772 4.608 0 6.166.337 3.52.76-.776.124-1.394.442-1.596.819-.203.382-.329 4.077-.329 9.723 0 9.049.004 9.111.71 9.605.39.273 1.108.497 1.595.497s.886.144.886.32c0 .198-1.808.319-4.786.319s-4.786-.121-4.786-.319m10.529 0c0-.176.431-.32.958-.32.531 0 1.24-.284 1.595-.639.608-.609.638-1.061.633-9.663-.003-4.964-.11-9.183-.239-9.377-.348-.521-1.537-1.086-2.288-1.086-.362 0-.659-.157-.659-.348 0-.243 1.899-.315 6.302-.24 5.971.103 6.386.151 7.897.908 2.168 1.086 3.031 2.45 3.031 4.792 0 2.334-.862 3.701-3.031 4.804-.877.446-1.628.949-1.668 1.118-.094.394 3.829 5.959 5.452 7.733 1.327 1.451 3.02 2.141 4.982 2.031 2.271-.128 2.242.003 2.242-10.426 0-10.166.055-9.866-1.865-10.25-2.614-.523-.305-.761 7.408-.761h8.413l.198 1.198c.323 1.955.245 3.98-.148 3.849-.194-.065-.543-.673-.776-1.351-.736-2.144-.975-2.245-5.583-2.37l-4.137-.112v8.69h3.206c2.977 0 3.261-.056 3.988-.785.431-.431.783-1.15.783-1.597 0-.51.179-.813.479-.813.399 0 .479.639.479 3.833 0 3.059-.09 3.834-.443 3.834-.254 0-.533-.478-.653-1.117-.303-1.62-1.395-2.078-4.96-2.078h-2.896l.089 4.712.088 4.712 3.829.084c4.471.098 5.345-.24 6.795-2.634.474-.783 1.042-1.427 1.261-1.433.52-.011.509.051-.498 2.865l-.858 2.396-11.701.084-11.701.084-3.637-5.036c-3.495-4.84-3.683-5.039-4.842-5.136l-1.207-.101.112 4.36c.123 4.799.322 5.266 2.246 5.266.493 0 .897.143.897.319 0 .199-1.809.32-4.787.32s-4.786-.121-4.786-.319m11.015-11.845c1.561-.73 2.493-2.209 2.491-3.948-.004-2.998-2.389-4.925-5.555-4.489l-1.569.216v4.389c0 2.414.1 4.49.223 4.612.35.351 2.997-.117 4.41-.78m-33.988-11.479c0-.572 1.326-4.912 1.591-5.206.128-.142.995-.214 1.927-.16l1.694.098-2.331 2.716c-2.379 2.771-2.881 3.216-2.881 2.552M144.364 318.181c-.351-.352-.639-.942-.639-1.313 0-.559-.135-.639-.8-.472-1.838.462-3.735-1.685-3.12-3.531.574-1.724 2.249-2.437 4.479-1.908l1.037.246v-1.643c0-.904-.163-1.958-.362-2.342-.803-1.549-9.053-14.174-9.785-14.975-.519-.568-.726-1.087-.611-1.53.101-.384-.35-2.067-1.055-3.939-1.651-4.388-2.741-8.234-3.588-12.668-.614-3.213-.704-4.747-.703-11.99.001-7.998.034-8.447.902-12.114 1.545-6.535 4.136-12.93 7.722-19.061.779-1.334 1.417-2.671 1.417-2.971 0-.971.949-2.418 1.71-2.609.407-.102 2.493-2.041 4.634-4.307 3.771-3.991 3.879-4.145 3.416-4.853-.67-1.023-.523-2.152.432-3.335a38 38 0 0 0 1.361-1.799c.3-.433.93-.884 1.4-1.002 1.369-.344 3.012-1.792 3.544-3.122.631-1.579 1.182-1.85 3.765-1.85 2.102 0 3.35.366 3.35.984 0 .798 3.414 5.262 6.121 8.003 3.176 3.217 5.932 5.059 8.85 5.916 2.318.68 4.989.384 9.235-1.023 5.418-1.796 8.952-1.382 11.936 1.398 2.012 1.874 2.769 3.488 2.779 5.919.003 1.029.236 2.754.516 3.834 1.087 4.192 1.638 2.515-13.87 42.198-7.755 19.846-14.153 36.135-14.217 36.199s-2.675-.485-5.802-1.219l-5.686-1.336-.489.745c-2.667 4.06-7.142 8.541-10.088 10.102-1.951 1.034-5.064 2.007-6.423 2.007-.401 0-1.017-.288-1.368-.639m5.898-9.494c2.405-4.606 4.315-8.548 4.244-8.759-.07-.211-2.25 3.515-4.845 8.279s-4.617 8.826-4.493 9.026c.124.201.337.244.473.097.137-.147 2.216-4.036 4.621-8.643m1.083 7.188c2.498-1.26 6.297-4.755 8.352-7.685l1.533-2.185-2.563-2.458c-1.409-1.351-2.66-2.495-2.78-2.541s-.752.907-1.404 2.117c-1.011 1.874-1.119 2.256-.728 2.581.252.21.553.81.668 1.333.158.722.306.87.613.615.223-.185 1.206-.612 2.186-.95 1.519-.523 1.835-.547 2.153-.164.505.61-.702 2.651-2.877 4.863-1.874 1.906-3.283 2.745-4.148 2.47-.421-.134-.658.004-.806.471-.273.862-1.523 1.665-2.954 1.898-.629.102-1.21.387-1.291.633-.227.679 1.622.223 4.046-.998m-7.644-.772c.757-.152 1.17-.512 1.637-1.428.504-.99.531-1.19.14-1.04-.266.103-.662.047-.879-.123-.662-.518-1.858-.694-2.654-.391-1.02.388-1.338 1.743-.601 2.558.618.684.849.726 2.357.424m8.156-4.116c.844-1.848 1.472-3.423 1.395-3.501s-.876 1.435-1.776 3.36c-.899 1.926-1.526 3.501-1.394 3.501s.931-1.512 1.775-3.36m-4.76-2.49c-.275-1.718-.915-2.878-5.203-9.422-2.064-3.15-3.906-5.989-4.095-6.31s-.422-.448-.52-.282 1.741 3.248 4.087 6.85c4.882 7.495 5.378 8.546 5.16 10.935l-.154 1.683.461-1.108a4.5 4.5 0 0 0 .264-2.346m10.59-.403c-.062-.063-.537-.003-1.055.135-.683.182-1.133.638-1.64 1.667-1.076 2.179-.865 2.216 1.048.184.969-1.03 1.71-1.924 1.647-1.986m15.713-1.403c0-.864-1.085-1.414-1.915-.969-.943.505-.782.856.559 1.213.658.175 1.232.333 1.276.351.044.019.08-.249.08-.595m-24.117-.216c.11-.289.135-.591.055-.671-.254-.254-.826.256-.826.735 0 .627.522.583.771-.064m20.288-.576c0-.253-.338-.854-.752-1.335-.702-.817-.816-.848-1.744-.463-1.944.806-1.869 1.206.325 1.726 1.106.263 2.047.49 2.091.506.044.015.08-.18.08-.434m-20.603-2.164c-.126-.397.131-.883.796-1.504.57-.534.981-1.241.981-1.688 0-1.039.618-1.814 1.673-2.096l.874-.234-1.26-1.437-1.26-1.436-.015 1.506c-.026 2.84-2.808 4.867-5.437 3.96l-1.198-.413 1.556 2.386c.856 1.312 1.556 2.516 1.556 2.674 0 .159.431-.03.959-.422.67-.496.905-.887.775-1.296m15.178.773c0-.446-.745-1.022-1.321-1.022-.646 0-1.037.498-.753.958.234.378 2.074.435 2.074.064m8.376-.142c.685.047.723-.735.106-2.201l-.452-1.075-.222.883c-.122.486-.564 1.154-.983 1.484-1.049.825-.991 1.377.115 1.094.483-.123 1.129-.206 1.436-.185m-21.644-.766c.111-.289.136-.591.055-.671-.253-.254-.826.256-.826.735 0 .627.523.583.771-.064m15.871-2.368c.133-1.918-.28-2.038-2.204-.643-1.691 1.227-1.833 1.51-.874 1.751.438.11.966.471 1.173.802.338.543.445.556 1.085.136.543-.356.737-.839.82-2.046m-5.92 1.071c.264-1.408-.433-3.717-1.165-3.856-.472-.091-1.58 1.704-1.58 2.558 0 .415 1.9 2.481 2.282 2.481.133 0 .341-.533.463-1.183m9.401.213c.429-.23.617-.67.617-1.444 0-.887-.167-1.191-.822-1.489-1.008-.46-1.76-.071-2.188 1.131-.232.652-.169.978.289 1.484.655.725 1.193.806 2.104.318m-17.628-2.065c.427-.939-.079-1.099-.569-.181-.401.749-.415.979-.063.979.147 0 .432-.359.632-.798m25.046-3.676c.784-2.02 1.734-4.446 2.111-5.393l.686-1.721-1.16.188c-.936.152-1.299.048-1.89-.543l-.73-.732-.19 2.744c-.465 6.714-.591 9.441-.428 9.29.096-.089.817-1.814 1.601-3.833m-20.027 2.208c.59-1.143.462-1.401-.559-1.129-1.48.394-1.727.731-1.07 1.459.797.881 1.027.834 1.629-.33m6.693-3.168c.996-2.194 2.442-5.41 3.214-7.145l1.404-3.156-2.935 2.703c-1.615 1.487-3.027 3.05-3.14 3.475-.245.927-.695 8.456-.493 8.254.077-.078.955-1.937 1.95-4.131m9.616 2.479c-.089-.219-.161-.04-.161.4 0 .439.072.619.161.399s.089-.579 0-.799m-26.002-.449c1.166-1.056.363-2.665-1.331-2.665-1.042 0-1.914.727-1.914 1.597 0 1.435 2.084 2.121 3.245 1.068m20.047.21.798-.256-.798-.026c-.438-.015-1.013.112-1.276.282-.425.276-.425.307 0 .283.263-.015.838-.142 1.276-.283m3.765-.064c.56-.561.469-1.357-.228-1.988-.806-.73-1.941-.187-1.941.929 0 1.158 1.392 1.837 2.169 1.059m-29.026-.495c-.19-2.267.896-3.981 2.901-4.583 1.031-.309 1.421-.266 2.693.298l1.488.659-.976-1.421c-.925-1.345-1.058-1.422-2.477-1.415-1.385.008-3.26.681-4.603 1.656-.394.286-.647.301-.894.054s-.114-.868.47-2.189c1.028-2.329 1.019-2.6-.105-3.182l-.919-.475-.731 1.984c-.403 1.092-.708 2.317-.679 2.723.042.582 3.497 6.442 3.802 6.449.042 0 .055-.251.03-.558m18.541-1.278-.019-1.837-.681 1.357c-.672 1.34-.673 1.362-.06 1.827.342.258.657.474.701.48.044.004.07-.817.059-1.827m-7.008-3.993-.008-5.191-1.746 2.715c-.96 1.494-1.747 2.873-1.747 3.065 0 .299 3.206 4.602 3.43 4.602.044 0 .076-2.336.071-5.191m5.227 3.075c.304-.637.51-1.2.458-1.251-.052-.052-.74.465-1.529 1.148l-1.436 1.242.978.011c.814.008 1.07-.186 1.529-1.15m14.819-5.076-.096-1.76-2.132 2.479c-2.089 2.431-2.114 2.482-1.276 2.573 1.384.15 2.607.744 3.022 1.468.341.595.398.458.482-1.162.053-1.01.053-2.629 0-3.598m-17.238-2.955-.088-4.708-.718 1.217c-.664 1.125-.717 1.589-.703 6.229l.015 5.013.792-1.522c.752-1.448.786-1.752.702-6.229m3.493 4.339c.915-.954 1.049-1.334 1.22-3.462l.193-2.39-.998 1.757c-.549.966-1.661 2.975-2.472 4.463l-1.474 2.706 1.251-1.001a28 28 0 0 0 2.28-2.073m8.871-.741c1.209-1.405 2.447-2.843 2.752-3.195.544-.629.526-.639-1.045-.617l-1.597.023-1.575 3.452c-.866 1.898-1.574 3.536-1.574 3.639 0 .221.139.07 3.039-3.302m-31.506-1.118.825-1.437-.777.678c-.427.374-1.1.846-1.495 1.05-.927.479-.962 1.388-.047 1.249.4-.061 1-.68 1.494-1.54m14.233-1.714 2.109-3.312v-56.368l-1.374 1.706c-1.774 2.203-4.05 5.417-4.05 5.72 0 .129-.503.983-1.117 1.896-.614.914-1.117 1.917-1.117 2.23s-.208.74-.462.951-.702 1.055-.996 1.876a62 62 0 0 1-.936 2.451c-.622 1.483-1.149 3.25-1.06 3.556.044.153-.103.607-.326 1.011s-.455 1.436-.514 2.294c-.06.858-.217 1.736-.349 1.951-.344.556-.605 4.64-.568 8.867.056 6.37.974 11.726 2.991 17.448 1.643 4.66 4.762 11.034 5.4 11.034.143 0 1.21-1.49 2.369-3.311m-7.019 1.789c.157-.093-.119-.381-.614-.64-.818-.43-.936-.42-1.322.108-.233.318-.423.707-.423.863 0 .271 1.762.023 2.359-.331m14.801-7.508-.089-4.227-.718 1.156c-.66 1.062-.717 1.526-.703 5.75l.015 4.594.792-1.523c.744-1.431.786-1.781.703-5.75m-22.289 4.809c.43-1.235.451-5.577.03-5.839-.195-.12-.24.176-.12.779.114.569.038 1.165-.185 1.432-.265.32-.291.78-.086 1.525.342 1.239.096 2.086-.852 2.94-.923.83-.855 1.28.098.655.425-.279.927-.951 1.115-1.492m8.274-.012-1.013-1.996-.436 1.056c-.239.58-.351 1.192-.247 1.36.149.242 2.267 1.503 2.624 1.563.046.007-.371-.884-.928-1.983m34.673.914c.516-.378.543-.522.181-.959-.538-.649-1.025-.668-.781-.03.102.266.008.697-.209.958-.496.6.005.619.809.031m-16.743-1.504c.693-1.36.611-2.026-.151-1.227-.45.471-1.015 2.536-.694 2.536.098 0 .478-.589.845-1.309m1.525.027c-.071-.213-.313.026-.538.527-.384.857-.375.882.128.388.297-.291.481-.702.41-.915m11.48-.164c-.099-.098-.277.079-.397.394-.173.456-.136.492.179.179.218-.216.316-.474.218-.573m-33.435-.651c.207-.627.326-1.173.265-1.214-.062-.04-.535-.256-1.052-.479-.854-.369-.991-.339-1.508.335-.313.407-.572.85-.576.984-.008.25 1.894 1.51 2.281 1.512.118.001.384-.512.59-1.138m31.063.022c.193-.881.172-.91-.252-.368-.254.324-.382.798-.284 1.052.221.577.277.506.536-.684m-39.12.22c.07-.208-.107-.469-.392-.578-.666-.256-.88-.034-.62.646.224.583.809.544 1.012-.068m47.398-2.296a265 265 0 0 1 1.454-3.754c.368-.922.615-1.677.55-1.677-.066 0-1.607 1.605-3.426 3.567-2.551 2.752-3.121 3.52-2.496 3.365.525-.131 1.141.004 1.755.387.52.324 1.042.499 1.161.389.119-.111.57-1.135 1.002-2.277m-14.712 1.053c.83-.812 1.21-1.463 1.21-2.076 0-1.077-.041-1.083-1.414-.181-.91.597-1.104.934-1.195 2.077-.059.75-.041 1.363.04 1.363.082 0 .693-.532 1.359-1.183m3.124 1.042c0-.077-.143-.23-.319-.338s-.319-.045-.319.141.143.338.319.338.319-.063.319-.141m-8.951-3.178c.592-1.226.665-1.866.586-5.189l-.09-3.791-.878 1.466c-.829 1.385-.877 1.679-.877 5.369 0 2.275.121 3.829.291 3.724.16-.099.596-.81.968-1.579m10.4 1.104c-.116-.187-.363-.341-.55-.341-.211 0-.187.184.065.487.437.528.828.41.485-.146m-7.751-.734c.835-.579 1.268-2.162.592-2.162-.448 0-2.267 2.203-2.267 2.745 0 .516.18.453 1.675-.583m-24.648.393a.32.32 0 0 0-.32-.319.32.32 0 0 0-.319.319c0 .176.144.32.319.32a.32.32 0 0 0 .32-.32m34.249-1.517c.444-4.277.602-6.618.437-6.467-.097.088-.824 1.591-1.616 3.339l-1.439 3.177.936.57c.515.313.936.715.936.894 0 .178.125.324.277.324s.364-.827.469-1.837m7.393-4.177c-.059-.059-.398.048-.752.238-1.054.565-2.171.397-3.215-.482l-.981-.827-.023 1.067c-.011.586-.126 2.203-.252 3.592l-.229 2.526 2.78-3.003c1.529-1.652 2.731-3.052 2.672-3.111m-37.992 4.614c-.244-.971-.617-1.069-1.06-.277-.244.436-.16.641.383.932.864.464.939.391.677-.655m-8.873.446c.199-.003.43-.266.514-.586.132-.506.003-.557-.997-.394-.779.127-1.185.379-1.263.786-.094.491.023.564.635.399.412-.11.912-.203 1.111-.205m21.464-1.46c.666-1.131.67-1.282.67-28.488v-27.351l-.798.75-.798.751v27.737c0 15.255.058 27.737.128 27.737s.43-.511.798-1.136m-14.498-.012c.628-.958.671-.882-.841-1.509-1.09-.452-1.209-.444-1.714.115-.652.722-.422 1.492.565 1.889 1.138.457 1.412.389 1.99-.495m29.933-2.208a606 606 0 0 1 2.128-4.775c1.131-2.498 1.119-2.496-1.976.439l-1.516 1.437v2.86c0 1.574.054 2.801.12 2.728.066-.074.626-1.283 1.244-2.689m-2.64.255c0-.973-.052-.94-.777.485-.531 1.046-.53 1.056.119.708.408-.219.658-.671.658-1.193m-32.19-.473c-.561-1.717-1.37-6.231-1.794-10.005-.217-1.932-.413-3.049-.436-2.482-.045 1.137-.349 1.288-2.888 1.44-.776.046-1.467.256-1.536.467-.093.283.439.335 2.059.199l2.184-.184.557 3.475c.59 3.684 1.792 8.558 2.047 8.302.084-.084-.003-.629-.193-1.212m28.336-5.692.004-3.674-.786 1.278c-.723 1.176-.785 1.584-.773 5.111l.011 3.834.769-1.438c.683-1.278.771-1.845.775-5.111m-31.883 5.929c0-.337-.612-.479-.794-.184-.111.179.022.325.296.325s.498-.064.498-.141m8.922-.861c-.158-.551-.36-1.075-.449-1.164-.202-.202-1.134.551-1.134.917 0 .202 1.372 1.138 1.812 1.236.03.008-.071-.438-.229-.989m27.073-4.726-.099-1.691-1.755 3.271c-.965 1.799-1.806 3.432-1.87 3.629-.063.198.771-.513 1.854-1.58l1.968-1.938zm-34.551 4.116c.114-.183.023-.555-.203-.827-.367-.443-.451-.437-.815.061-.223.305-.33.678-.237.828.233.378 1.007.341 1.255-.062m25.039-26.607V226.25l-.797-.523-.798-.523v52.873000000000005l.798-1.175.797-1.175zm-20.047 26.093c.811-.735.729-1.143-.352-1.759-.878-.5-.962-.497-1.462.057-.623.689-.392 1.8.418 2.013.299.079.604.16.678.181.074.018.397-.201.718-.492m-6.938-.963c.271-.708-.329-1.319-.817-.83-.39.391-.164 1.363.318 1.363.162 0 .386-.24.499-.533m45.459-.531c-.311-.681-.281-.973.167-1.657.515-.787.512-.879-.055-1.776l-.598-.946-.023 2.163c-.011 1.189.116 2.426.286 2.748.464.881.656.421.223-.532m2.745-.533c0-.586-.192-.826-.719-.901-.784-.112-1.23.574-.912 1.402.115.301.48.461.912.4.527-.075.719-.316.719-.901m-39.936-1.375c-.105-.649-.294-1.181-.42-1.181-.295 0-1.427 1.249-1.255 1.386.594.471 1.705 1.138 1.777 1.066.049-.049.003-.621-.102-1.271m-7.128.275c0-.508-.579-.983-.858-.703-.262.262.147 1.164.529 1.164.181 0 .329-.207.329-.461m34.449-6.248-.001-3.354-.951 1.516c-.904 1.441-.951 1.688-.946 4.952l.004 3.435.947-1.597c.887-1.499.947-1.805.947-4.952m-5.812-18.17-.08-21.525-.718-.477-.717-.477.011 23.28.011 23.279.788-1.278.787-1.278zm22.962 23.047c.769-.503.775-.533.159-.761-.352-.131-.735-.391-.851-.579-.429-.694-1.131-.351-1.131.552 0 .492-.179 1.086-.399 1.319-.328.35-.237.387.512.209a6.4 6.4 0 0 0 1.71-.74m-46.316-.424.936-.978-.796-.612c-1.018-.783-1.235-.776-2.132.068-.926.871-.931 1.329-.019 1.965.961.671.942.675 2.011-.443m34.217-.5c.051-.023-.127-.125-.397-.229-.332-.127-.657.143-1.011.839l-.522 1.028.918-.799c.505-.439.96-.817 1.012-.839m-41.277.875c.096-.156-.027-.45-.272-.654-.497-.413-1.006.061-.663.618.244.396.702.412.935.036m49.979-.047c.339-.182.617-.537.617-.788 0-.454-.931-1.118-1.568-1.118-.554 0-.813 1.627-.31 1.946.557.353.525.354 1.261-.04m-11.041-.925c.477-.923.347-3.23-.151-2.678-.256.285-.689 3.614-.469 3.614.075 0 .354-.421.62-.936m-38.469-1.32c-.618-.383-.769-.083-.265.526.308.371.471.409.563.131.072-.216-.062-.511-.298-.657m46.936.517c0-.254.273-.652.606-.886.549-.385.494-.424-.596-.424-1.175 0-1.195.018-.894.885.326.936.884 1.204.884.425m7.658-.827c0-.85-.875-1.167-1.498-.543-.626.627-.285 1.192.719 1.192.57 0 .779-.174.779-.649m-11.614-.756c.596-.598 1.085-1.222 1.085-1.387 0-.254-1.334-1.041-1.765-1.041-.149 0-1.745 3.058-1.745 3.343 0 .572 1.508.002 2.425-.915m-38.663-.228c-.322-.522-.775-.291-.775.394 0 .565.08.612.475.284.261-.217.396-.523.3-.678m3.247-.836c-.098-.098-.41.015-.693.25-.471.392-.465.465.072.862.519.382.599.353.693-.251.058-.375.026-.763-.072-.861m44.146 1.047c.507-.612.143-1.688-.658-1.942-.35-.112-.845-.03-1.1.182-.476.396-.63 1.631-.251 2.011.38.38 1.614.225 2.009-.251m-19.801-.924c.646-1.048.66-1.436.674-19.884.015-17.442-.027-18.844-.535-19.217-.302-.221-.666-.402-.808-.402s-.258 9.129-.258 20.286.06 20.285.134 20.285c.073 0 .43-.48.793-1.068m8.63-.818c.572-1.122.584-1.267.12-1.445-.683-.262-.766-.143-.971 1.388-.219 1.637.038 1.654.851.057m-1.913-4.657.015-2.869-.798 1.175c-.72 1.061-.796 1.48-.783 4.307l.015 3.132.769-1.438c.644-1.204.77-1.903.782-4.307m9.255 5.121c.501-.605.32-1.454-.406-1.898-.822-.502-1.963.85-1.48 1.753.386.722 1.346.796 1.886.145m-41.851-.239c.57-.57.455-.987-.456-1.652-.807-.589-.83-.588-1.506.094l-.686.692.798.618c.932.721 1.325.774 1.85.248m48.878-.335c-.011-1.403-.465-1.643-1.427-.751-.905.84-.863.922.634 1.254.351.078.674.158.718.179.044.018.078-.287.075-.682m-54.238-1.422c0-.422-.085-.458-.383-.159-.909.91-2.269.033-1.934-1.249.196-.75 1.256-1.088 1.854-.592.396.33.463.098.463-1.614v-1.999l-.658.838c-.362.461-1.116.956-1.675 1.101-.991.255-1.02.314-1.112 2.24l-.095 1.977h1.77c1.453 0 1.77-.097 1.77-.543m44.347-1.754c.003-.824-.134-1.584-.303-1.689s-.667.52-1.107 1.388c-.819 1.619-.754 1.956.457 2.348.687.222.947-.338.953-2.047m4.87.78c.18-1.441.15-1.488-.782-1.239-1.565.417-1.7.723-.705 1.599.511.45 1.021.822 1.134.828.112.003.271-.529.353-1.188m-42.516-.266c0-1.2-.462-1.354-1.087-.362-.259.41-.192.64.296 1.009.347.262.667.482.711.487.043.004.08-.505.08-1.134m45.583.719c.55-.663-.293-1.63-1.176-1.349-1.021.324-.968 1.774.065 1.774.417 0 .917-.191 1.111-.425m-49.349-1.236c-.297-.298-.382-.213-.382.384 0 .596.085.681.382.383.298-.298.298-.469 0-.767m31.335-.711.828-1.415v-15.506c0-15.002-.018-15.516-.617-15.836-.339-.182-.77-.33-.957-.33-.236 0-.34 5.254-.34 17.251 0 9.487.058 17.25.129 17.25s.502-.636.957-1.414m7.545.105c.367-.72.59-1.386.496-1.48-.284-.283-2.49 2.108-2.272 2.461.419.678 1.131.285 1.776-.981m-40.633-1.327c-.076-.395-.138-.071-.138.719 0 .791.062 1.114.138.719a4.5 4.5 0 0 0 0-1.438m4.25.551.758-.808-.849-.85c-.772-.772-.923-.811-1.643-.426-1.128.605-1.272 1.277-.461 2.142.893.951 1.258.941 2.195-.058m34.585-.99c.685-1.228.825-1.889.825-3.908v-2.43l-.875 1.272c-.743 1.082-.891 1.667-.989 3.908-.064 1.45-.042 2.636.049 2.636s.536-.665.99-1.478m13.109.019c0-1.123-.908-1.443-1.413-.499-.263.491-.223.754.175 1.152.717.719 1.238.444 1.238-.653m-2.155-1.495c.621-.695.31-.743-.375-.057-.276.276-.482.887-.458 1.357l.044.856.145-.799c.08-.439.37-1.05.644-1.357m9.47-6.03c-.095-.154-.363-.28-.594-.28s-.598-.214-.815-.475c-.217-.262-.501-.41-.631-.33-.13.081-.336 1.625-.457 3.431s-.29 3.859-.374 4.562c-.112.922.29.178 1.444-2.675.88-2.175 1.522-4.079 1.427-4.233m-14.865 5.151c.019-.699-.056-.647-.62.423-.539 1.022-.575 1.304-.225 1.727.368.445.442.395.62-.423.111-.51.212-1.288.225-1.727m-38.875.308c0-.883-.06-.938-.665-.613-.634.339-.639.384-.11.969.728.806.775.785.775-.356m36.7.483c.616-.744.177-.884-.483-.154-.319.352-.431.641-.25.641s.511-.219.733-.487m6.092-5.902c.229-.622-.023-.467-1.147.7-1.192 1.239-1.442 1.71-1.446 2.715-.003.669-.077 1.576-.165 2.016-.153.759 2.135-3.747 2.758-5.431m6.119 2.715.178-3.194-1.88 2.076c-1.033 1.142-1.884 2.173-1.89 2.291-.008.118.475.375 1.068.571s1.334.64 1.646.986c.313.346.598.592.634.547.034-.045.145-1.52.244-3.277m-57.901 1.816c.057-.403-.079-.955-.304-1.225-.364-.439-.434-.429-.64.097-.128.324-.242.924-.255 1.332-.03.997 1.055.813 1.199-.204m4.68-6.521c.274-1.357 1.004-3.925 1.623-5.706s1.049-3.314.956-3.407c-.202-.203-.307.059-1.465 3.669-.511 1.592-1.093 2.842-1.35 2.894-.248.051-1.27-.034-2.27-.192-1.099-.173-1.891-.169-2.001.007-.272.441-.115.506 2.086.861 1.116.18 2.072.37 2.124.423s-.109 1.459-.359 3.125c-.25 1.667-.436 3.677-.414 4.468.03 1.019.117.694.306-1.118.147-1.406.49-3.666.764-5.024m.937 7.137c.096-.156-.039-.461-.3-.678-.396-.328-.476-.281-.476.284 0 .685.454.916.776.394m33.978-.792c.644-1.044.664-1.464.664-14.057v-12.98h-1.5950000000000002v14.056c0 7.731.06 14.057.133 14.057s.433-.485.798-1.076m-31.563-.834.798-.618-.695-.701c-.626-.632-.792-.661-1.675-.295-1.111.461-1.21.824-.452 1.662.664.734 1.025.725 2.024-.048m37.424-1.867c.212-.507.337-1.748.276-2.759l-.111-1.838-.757 1.232c-.601.98-.758 1.687-.766 3.459-.007 2.093.019 2.185.48 1.527.27-.385.664-1.115.878-1.621m10.759-2.966.936-1.151-.868.011c-.477.008-1.095-.093-1.373-.22-.402-.184-.794.402-1.915 2.864-.775 1.702-1.453 3.254-1.506 3.448-.107.387 3.233-3.112 4.726-4.952m-7.784 1.397c.11-.59.14-1.134.065-1.209-.074-.075-.687.902-1.362 2.171l-1.226 2.307 1.161-1.098c.696-.658 1.241-1.527 1.362-2.171m-45.705 1.046c.162-1.24.123-1.5-.179-1.198-.583.584-1.47.464-1.853-.253-.673-1.259.828-2.557 1.814-1.569.25.25.411.244.575-.023.319-.516.199-.576-1.631-.819-1.519-.202-1.636-.168-1.824.538-.111.415-.204 1.207-.206 1.761-.004.828.162 1.065.929 1.333.514.179 1.179.701 1.479 1.159s.578.793.617.744.164-.802.279-1.673m6.583-.351c0-.274-.146-.408-.325-.298-.178.11-.241.334-.14.498.273.443.465.361.465-.2m33.673-2.218c.096-.527.132-5.415.081-10.861l-.092-9.904-.877-.101-.878-.101.012 11.921.011 11.921.785-.958c.431-.527.863-1.39.958-1.917m-36.545 1.922c0-.048-.216-.265-.479-.484-.399-.332-.478-.287-.478.27 0 .463.147.612.478.484.264-.101.479-.223.479-.27m2.342-1.27c.637-.483.519-1.435-.258-2.081-.339-.281-.673-.249-1.423.14-1.167.604-1.185.71-.286 1.668.795.848 1.146.897 1.967.273m40.032-5.546-.096-1.495-.878 1.466c-.701 1.171-.874 1.844-.862 3.354l.015 1.889.958-1.86c.745-1.444.938-2.193.863-3.354m4.093 2.588c.241-.565.43-1.428.421-1.916-.011-.728-.241-.454-1.26 1.507-.685 1.318-1.252 2.529-1.261 2.691-.03.577 1.67-1.271 2.1-2.282m-1.82-1.208c.002-.176-.28.019-.625.435-.345.415-.622 1.062-.614 1.437.011.555.128.474.625-.434.336-.615.612-1.262.614-1.438m-5.402-8.98.002-8.661-.798.153-.798.152.012 9.787.011 9.786.786-1.278c.785-1.276.783-1.295.785-9.939m-35.496 9.912c-.304-.305-.914.188-.687.556q.2.326.542-.015c.188-.189.253-.433.145-.541m55.058-1.731a296 296 0 0 1 1.49-3.833c.385-.966.602-1.659.483-1.54-.848.848-5.25 6.22-5.255 6.412-.003.131.254.239.572.239s.855.204 1.196.453.642.429.672.4c.03-.03.408-.988.842-2.131m-57.855 1.164c-.007-.461-.62-1.436-.632-1.004-.004.176-.097.645-.203 1.043-.154.576-.088.683.323.525.285-.109.515-.363.512-.564m2.867-1.295c-.004-.191-.209-.611-.453-.932-.359-.475-.567-.518-1.106-.228-.76.407-.819.733-.289 1.583.308.494.509.541 1.117.263.407-.186.736-.494.731-.686m48.616-3.862c.096-1.932.106-3.298.019-3.035-.085.264-.706 1.63-1.38 3.035-1.074 2.242-1.16 2.581-.693 2.76.293.112.729.441.97.732s.544.415.673.276c.129-.14.315-1.835.411-3.768m-57.221 3.195c-.219-.264-.523-.479-.677-.479s-.28.215-.28.479c0 .275.288.479.677.479.566 0 .612-.079.28-.479m54.219-2.556c.002-.176-.28.019-.625.435-.345.415-.621 1.062-.614 1.437.011.555.128.474.625-.434.336-.615.612-1.262.614-1.438m-52.344 1.788c.508-.322.211-.989-.439-.989-.548 0-.902.531-.638.958.24.389.501.397 1.077.031m7.783-.646c.113-.431.03-.564-.282-.445-.243.094-.442.37-.442.615 0 .664.54.538.724-.17m37.565-8.82c0-3.596-.062-6.538-.138-6.538s-.508.14-.958.312l-.818.312v15.474l.957-1.511.957-1.511zm2.811 5.68-.099-1.196-.718 1.155a4.9 4.9 0 0 0-.715 2.556l.003 1.4.814-1.36c.574-.958.785-1.712.715-2.555m11.861-.44c-.538-.111-1.259-.457-1.603-.768-.343-.312-.635-.437-.647-.278s-.126 1.427-.253 2.818l-.229 2.529 1.854-2.05 1.855-2.049zm-55.035 3.237c.108-.176.099-.479-.023-.673-.214-.348-.76.185-.771.753-.008.35.564.293.794-.08m45.058-1.552c.732-1.754.203-1.524-.728.318-.656 1.295-.726 1.59-.291 1.229.314-.261.773-.957 1.019-1.547m-51.313.621c.245-.156.357-.513.249-.794-.209-.545-.854-.71-.854-.218 0 .161-.087.521-.194.799-.214.558.115.646.799.213m8.819-.544c.829-.543.954-.96.502-1.675-.229-.362-.467-.365-1.431-.015-1.242.45-1.337.633-.826 1.589.402.753.734.771 1.755.101m-6.297-1.334c-.12-.619-.598-.781-1.192-.405-.372.235-.382.382-.057.775.485.585 1.382.319 1.249-.37m52.589-1.54a4.3 4.3 0 0 0 .069-1.401c-.081-.537-.353-.202-1.146 1.416l-1.04 2.121.971-.719c.534-.395 1.05-1.033 1.146-1.417m-48.842-.665c.809-1.831.832-2.657.076-2.648-.32.003-.316.064.015.275.338.214.222.674-.563 2.231-.544 1.079-.841 1.961-.661 1.961s.691-.819 1.133-1.819m-2.148.375c-.287-.288-.956.451-.734.811.183.296.321.259.548-.148.168-.3.251-.598.186-.663m6.563.629c.109-.285.056-.413-.125-.301-.174.108-.316.331-.316.496 0 .459.229.358.441-.195m40.893-1.448c.452-.893.776-1.935.72-2.316-.087-.582-.237-.464-.946.746-.698 1.188-1.143 3.194-.71 3.194.063 0 .484-.73.936-1.624m-50.171.137c-.179-.466-.243-.459-.627.066-.612.839-.527 1.178.199.789.399-.214.554-.524.428-.855m48.082-5.93.002-4.702-.718.266c-.704.26-.719.377-.792 5.98l-.074 5.714.791-1.278c.747-1.208.79-1.534.791-5.98m-41.159 6.318c0-.253-.144-.549-.319-.658s-.319-.128-.319-.045c0 .084-.088.38-.194.658-.127.332-.019.506.319.506.282 0 .513-.208.513-.461m-4.786-1.312c0-.6-.63-.92-1.028-.521-.476.477-.057 1.364.537 1.136.27-.104.491-.381.491-.615m7.778.176c.154-.151.19-.632.08-1.07-.198-.79-.209-.793-1.452-.304-1.167.459-1.228.545-.897 1.272.286.629.512.74 1.172.577.449-.111.943-.325 1.097-.475m50.932.159c.336-.405.268-.479-.44-.479-.808 0-1.064.304-.624.745.331.33.632.255 1.064-.266m-4.786-3.59c0-.089-.216.015-.479.235s-.473.776-.466 1.237c.011.804.034.794.479-.235.256-.591.466-1.148.466-1.237m8.631 1.665c1.126-.583 1.195-1.117.223-1.725-.976-.61-.953-.619-1.062.399-.052.497-.266 1.108-.473 1.358-.515.621.078.608 1.312-.032m-60.641-.152c-.263-.17-.622-.31-.797-.31s-.104.14.159.31.622.31.798.31c.175 0 .103-.139-.16-.31m58.661-1.11c.151-.766-.397-1.23-1.165-.986-.828.263-1.107 1.016-.675 1.823.308.577.409.594 1.036.178.382-.253.743-.71.804-1.015m-51.322.791c0-.176-.063-.32-.141-.32s-.229.144-.338.32c-.108.176-.045.319.141.319s.338-.143.338-.319m-8.934-.32c-.264-.17-.622-.31-.798-.31-.175 0-.103.14.16.31s.622.31.797.31.104-.139-.159-.31m47.688-1.066c.71-1.212.812-1.754.812-4.313 0-2.324-.094-2.927-.456-2.927-1.189 0-1.459.889-1.459 4.815 0 2.096.066 3.811.146 3.811.081 0 .511-.624.957-1.386m-41.492.872c.541-.208.68-.937.232-1.215-.15-.092-.434.187-.631.62-.388.852-.364.888.399.595m-3.803-1.004c0-.835-.075-.878-1.516-.878-1.836 0-1.805.373.095 1.144.782.317 1.421.585 1.421.595zm49.272-2.926c.894-1.654 1.576-3.055 1.517-3.115-.205-.205-3.725 5.638-3.725 6.182 0 .829.413.255 2.208-3.067m-45.935.195c.019-1.161-.713-2.551-1.784-3.395-1.097-.863-1.337-.618-.473.482.735.935.874 2.359.331 3.376-.267.498-.23.771.159 1.202.277.307.51.762.517 1.012.023.829 1.236-1.766 1.25-2.677m3.376 2.588c.713-.325.811-.527.65-1.335-.253-1.266-.326-1.308-1.45-.842-1.067.442-1.108.551-.656 1.74.359.946.347.943 1.456.437m47.915-.806c-.555-.556-.706-.244-.343.705.144.376.301.428.545.183.244-.244.187-.499-.202-.888m6.954-.111c0-.247-.251-.497-.559-.556-.55-.106-.777.572-.339 1.011.335.334.898.049.898-.455m-2.553-1.096c0-.702-.713-.955-1.415-.503-.385.248-.39.377-.03.812.563.679 1.445.49 1.445-.309m-5.573-1.783c.21-.507.288-1.165.174-1.462-.152-.397-.46-.008-1.153 1.46-.52 1.101-.946 2.086-.946 2.189 0 .443 1.579-1.35 1.925-2.187m-43.731.265c.011-.36-.442-.289-1.066.169-.369.269-.481.607-.331.997.21.548.267.536.808-.168.32-.417.585-.866.589-.998m46.386.235c-.246-.644-.979-.81-1.388-.316-.274.33-.273.611.002 1.126.345.645.401.654.958.15.325-.295.518-.727.428-.96m-7.259-2.037c.859-1.387 2.029-2.843 2.599-3.236 1.265-.872 1.298-1.147.163-1.364-.984-.188-1.627.089-3.354 1.444-1.191.934-1.196.95-1.196 3.308 0 1.303.051 2.369.113 2.369s.816-1.134 1.675-2.521m12.57 2.212c0-.17-.215-.227-.478-.126-.264.101-.479.24-.479.309s.216.126.479.126.478-.139.478-.309m-61.901-.471c0-.253-.143-.549-.319-.657-.175-.109-.319-.129-.319-.045 0 .083-.087.379-.194.657-.127.332-.019.506.319.506.282 0 .513-.207.513-.461m6.543.019c.575-.42.58-.526.097-2.26-.621-2.235-.22-2.581 1.483-1.281.668.51 1.691.929 2.488 1.017 1.131.126 1.473.023 2.072-.619l.718-.769-1.864.135c-1.721.125-1.949.059-2.991-.857-1.419-1.247-1.981-2.566-1.709-4.014.62-3.313 4.602-4.713 7.193-2.53l.967.815v-.725c0-.399-.597-1.643-1.327-2.764l-1.327-2.04-2.048 2.017a133 133 0 0 0-4.268 4.468l-2.22 2.45.788.788c.934.936 1.278 2.484 1.081 4.868-.154 1.863-.071 1.988.867 1.301m51.084-1.389c-.324-.325-.592.164-.326.595.201.326.276.326.384.001.074-.221.048-.49-.058-.596m3.137.586c.205-.332-.543-.672-1.48-.672-.543 0-.585.08-.254.479.437.528 1.457.642 1.734.193m-51.581-.302c.296-.188.186-.361-.399-.627-.64-.292-.807-.282-.807.051 0 .784.502 1.023 1.206.576m-4.716-1.907c0-1.118-.182-1.733-.667-2.255-.743-.798-1.805-.8-2.302-.004-.256.41 0 .844 1.243 2.106.862.875 1.603 1.613 1.647 1.641.043.026.079-.643.079-1.488m27.76.898c0-.176-.395-.305-.877-.288l-.878.031.798.255c.439.141.833.271.877.288.044.019.08-.111.08-.286m2.314.108a1.23 1.23 0 0 0-.798 0c-.22.088-.04.161.399.161.438 0 .618-.073.399-.161m3.111-.108c0-.176-.279-.32-.62-.32s-.708.144-.816.32c-.112.181.156.319.619.319.449 0 .817-.143.817-.319m3.19-.973c0-.15-.431-.121-.957.062-.526.184-.957.457-.957.606 0 .15.431.121.957-.062.526-.184.957-.457.957-.606m17.164.348c1.031-.129 2.117-.063 2.791.17 1.295.445 1.415.098.34-.979-1.027-1.028-4.053-1.889-5.708-1.624-2.629.421-4.255 2.123-1.946 2.036.797-.03 1.25.129 1.465.513.203.364.493.476.84.324.291-.126 1.289-.325 2.218-.44m-14.292-1.496c0-.333-.167-.345-.798-.057-.439.2-.797.553-.797.785 0 .333.166.345.797.057.439-.2.798-.553.798-.785m-9.38-.03c-.324-.325-.592.164-.326.595.201.326.277.326.385.001.074-.222.047-.49-.059-.596m-2.292-1.018c-.199-.198-.349.041-.586.931l-.213.799.466-.798c.256-.439.406-.859.333-.932m5.29 1.27c0-.166-.143-.39-.319-.498-.175-.109-.319.026-.319.3s.144.498.319.498.319-.135.319-.3m-7.307-2.974c.4-.763.003-.703-.888.135-.708.665-.976 1.837-.525 2.288.118.118.418-.253.667-.825s.585-1.291.746-1.598m10.179 2.327c0-.169-.323-.478-.718-.685-.714-.375-.715-.374-.11.308.675.761.828.831.828.377m5.764-.023c.598-.32.873-1.266.369-1.266-.414 0-1.666.974-1.666 1.296 0 .394.529.383 1.297-.03m15.478-1.955c-.285-2.157-.815-3.124-2.546-4.649-2.769-2.44-5.612-2.669-11.04-.89-6.252 2.051-9.654 1.718-14.441-1.411-2.675-1.748-7.299-6.574-9.531-9.946l-1.479-2.236-4.903 3.869c-2.696 2.128-4.868 3.996-4.826 4.15.164.602 2.081 3.519 2.22 3.379.082-.081-.011-.448-.208-.814-.528-.989.117-2.061 1.092-1.816.454.114.886.003 1.13-.291.217-.262.61-.476.873-.476.398 0 .409-.085.065-.499-.352-.425-.216-.696.92-1.833 1.18-1.182 1.405-1.289 1.969-.936.556.347.638.318.638-.232 0-.867 1.083-1.418 1.914-.972.89.476.841 1.848-.08 2.251-.555.243-.39.275.725.141 1.354-.163 1.517-.097 2.664 1.079.929.952 1.171 1.415 1.009 1.926-.185.585-.084.672.776.672 1.13 0 1.503.597.982 1.572-.285.533-.262.664.116.664.259 0 .56-.143.668-.319.364-.59 1.309-.327 2.209.613.49.513.809 1.067.707 1.231-.105.171.175.231.653.139.528-.101.968.015 1.187.316.192.261.906.659 1.586.883.701.231 1.302.661 1.389.994.138.528.224.54.854.127.613-.402.788-.398 1.402.034.894.627.892 1.245-.007 1.875-.39.274-.538.498-.329.498s.699-.432 1.088-.959c.737-.997 1.773-1.241 2.439-.575.297.298.383.23.383-.308 0-1.424 1.991-1.633 2.576-.27.238.556.276.483.212-.421-.068-.969.03-1.123.867-1.347.703-.189 1.103-.113 1.57.296.345.302.517.36.382.129-.311-.531.672-1.657 1.446-1.657.315 0 .719.252.898.559.31.533.326.533.335 0 .007-.448.294-.559 1.445-.559.79 0 1.436.14 1.436.31s.217.226.483.124c.611-.235 1.432.43 1.432 1.159 0 .405.196.518.727.416.852-.163 2.112.971 1.499 1.35-.241.15-.112.356.375.599.956.477 1.144 1.468.385 2.032-.543.404-.518.423.285.226.729-.179.877-.111.877.405 0 .589.251 1.046.573 1.046.081 0 .049-.742-.071-1.648m-47.087-1.145c0-.596-.148-1.36-.329-1.698-.347-.65-1.908-1.588-2.607-1.567-.228.008.034.208.582.447 2.012.877 2.599 2.863 1.337 4.529l-.699.921.858-.774c.61-.551.858-1.087.858-1.858m11.984.696c-.823-.611-1.03-.581-1.228.18-.23.882.722 1.41 1.369.76.425-.427.41-.531-.141-.94m9.189.683c.279-.426.798-.867 1.154-.98.514-.163.607-.383.449-1.063-.109-.471-.423-1.036-.699-1.255-.41-.328-.621-.285-1.178.239-.856.806-2.102.817-3.075.027-.603-.489-.748-.901-.723-2.061.03-1.494-.358-1.975-1.176-1.457-.821.521-2.688.328-3.417-.353-.907-.846-1.142-1.868-.698-3.036.32-.843.272-1.018-.446-1.636-.621-.535-1.08-.657-2.016-.533-.941.124-1.473-.019-2.383-.641-1.131-.772-1.19-.78-1.7-.215-.493.545-.492.642.019 1.42.425.65.501 1.219.344 2.561-.193 1.641-.157 1.758.722 2.385.717.511 1.237.622 2.313.492 1.964-.237 3.144.896 3.144 3.016 0 .757.212 1.081.958 1.468.899.465 1.016.453 1.888-.192.725-.537 1.179-.642 2.06-.476 1.21.227 2.433 1.467 2.433 2.467 0 .897 1.404.775 2.027-.177m7.544.305c0-.286-.187-.397-.479-.285-.263.101-.478.312-.478.469s.215.285.478.285a.475.475 0 0 0 .479-.469m6.281-1.015c-.274-.274-1.814.641-1.814 1.078 0 .333.253.269.975-.246.537-.382.915-.757.839-.832m-36.913.206c.351-.351.638-.789.638-.973 0-.479-1.487-1.902-1.988-1.902-.797 0-1.84.993-1.84 1.752 0 1.646 1.974 2.341 3.19 1.123m10.204.152c-.222-.268-.486-.403-.588-.302s.027.319.285.482c.676.428.764.376.303-.18m32.553.232c0-.453-.749-1.023-1.343-1.023-.497 0-.522.089-.179.639.385.618 1.522.904 1.522.384m1.467-1.182c0-1.181-.088-1.275-.783-.834-.356.226-.336.422.116 1.113.302.461.576.839.608.839.034 0 .059-.503.059-1.118m-39.649-.285c.462-.706.453-.805-.123-1.327-.608-.55-.623-.532-.623.764 0 .73.056 1.327.123 1.327.068 0 .348-.343.623-.764m25.598-.121c-.107-.108-.442.065-.745.382-.527.552-.518.561.194.195.41-.211.658-.47.551-.577m-21.877-.177c0-.233-.359-.761-.797-1.174-.718-.675-.798-.691-.798-.161 0 .617.861 1.758 1.326 1.758.148 0 .269-.19.269-.423m3.75-.211a.41.41 0 0 0 .398-.407c0-.241-.414-.401-1.037-.399-.895.003-1.05-.118-1.138-.876-.055-.483-.231-.878-.39-.878-.16 0-.21.467-.111 1.038.307 1.78.403 1.922 1.165 1.718.392-.106.893-.194 1.113-.196m24.568.113c.951-.255.906-.508-.205-1.165-.805-.476-.948-.485-1.107-.069-.197.515.054 1.439.389 1.432.113-.003.529-.092.923-.198m4.465-1.551c-.329-1.075-.354-1.089-.694-.406-.194.39-.709.889-1.144 1.109-.746.378-.707.402.694.406l1.486.004zm-44.548-.084c.397-.507.386-.518-.12-.121-.308.241-.559.493-.559.559 0 .263.262.094.679-.438m46.385.239a.74.74 0 0 0-.577-.314c-.228.003-.189.128.099.314.613.397.723.397.478 0m-38.258-2.509c-1.068-1.07-1.155-.229-.113 1.098.62.79.731.832.829.321.063-.326-.257-.96-.716-1.419m3.957 1.308c0-.354-1.174-1.031-1.398-.806-.273.273.436 1.049.959 1.049.241 0 .439-.109.439-.243m-2.584-3.6c.675-1.298.93-2.228.325-1.188-.193.332-.707.559-1.266.559-.518 0-.942.168-.942.374 0 .318.9 1.543 1.134 1.543.043 0 .38-.58.749-1.288m-6.907-2.394c.019-.172-.207-.358-.501-.415-.379-.073-.477.047-.337.413.206.539.781.54.838.002m6.46-6.967c.538-.517-.521.124-2.154 1.302-.833.602-1.515 1.24-1.515 1.417 0 .265 2.467-1.564 3.669-2.719m3.351-2.647c0-.392-1.031-.015-1.583.577-1.028 1.104-.759 1.333.466.398.614-.469 1.117-.908 1.117-.975M167.609 407.99c.103-.167.424-.304.715-.304 1.175 0 1.255-.493 1.255-7.761 0-5.854-.076-7.096-.451-7.407-.248-.206-.668-.292-.935-.189-.303.117-.438.048-.36-.183.154-.462 3.497-1.833 3.885-1.592.157.097.286.594.286 1.104v.928l1.213-1.098q2.214-2.004 4.55-.414c1.585 1.079 2.27 2.711 2.258 5.386-.011 2.654-.726 4.344-2.363 5.595-1.32 1.008-3.453 1.318-4.719.686l-.939-.47v2.344c0 2.419.27 3.072 1.273 3.072.3 0 .545.136.545.303 0 .183-1.269.304-3.2.304-2.056 0-3.134-.109-3.013-.304m8.118-6.095c1.3-.593 1.884-2.003 1.876-4.531-.008-1.826-.144-2.501-.688-3.384-1.021-1.653-2.655-1.985-4.113-.837-.778.613-.799.717-.799 4.039 0 3.518.148 4.026 1.364 4.692.779.426 1.459.431 2.36.021m-24.333.944c-.417-.13-1.064-.169-1.439-.089-.657.142-.682.068-.682-2.01 0-2.13.366-2.85.724-1.422.534 2.127 3.045 3.486 4.581 2.478 1.604-1.052.689-2.771-2.275-4.275-2.385-1.21-3.03-1.982-3.03-3.623 0-1.09.182-1.579.884-2.365.876-.981.912-.991 3.637-.991h2.752v1.879c0 2.172-.403 2.69-.906 1.163-.684-2.074-3.183-3.02-4.406-1.667-.991 1.096-.325 2.057 2.435 3.515 3.555 1.876 4.522 3.608 3.215 5.755-.983 1.614-3.334 2.322-5.49 1.652m9.753-.004c-.553-.131-1.269-.169-1.591-.085-.537.14-.585-.023-.585-2.006 0-1.188.124-2.16.276-2.16.151 0 .558.584.903 1.296 1.039 2.15 3.309 3.011 4.579 1.739 1.197-1.198.561-2.393-2.029-3.817-1.134-.624-2.367-1.408-2.739-1.742-.932-.835-1.163-2.329-.559-3.604.768-1.621 1.809-2.061 4.68-1.981l2.465.068.001 1.878c0 1.034-.129 1.959-.286 2.056s-.553-.429-.88-1.17c-.657-1.487-1.364-2.006-2.732-2.006-1.08 0-1.86.69-1.86 1.644 0 .858.6 1.397 2.727 2.45.917.454 2.11 1.247 2.652 1.763.834.794.985 1.153.985 2.339 0 1.133-.159 1.553-.833 2.197-1.426 1.362-2.885 1.684-5.174 1.141m23.702-.28c-3.035-1.379-4.288-5.358-2.733-8.674.82-1.748 1.438-2.371 2.997-3.023 5.072-2.122 9.58 3.47 7.085 8.788-.82 1.748-1.437 2.371-2.996 3.023-1.472.616-2.827.58-4.353-.114m4.577-1.416c1.31-1.415 1.305-5.498-.011-8.043-.632-1.224-2.205-1.964-3.355-1.58-1.387.462-2.074 1.976-2.036 4.483.055 3.566 1.482 5.923 3.587 5.923.781 0 1.295-.221 1.815-.783m-66.673 1.39c-.102-.167.079-.304.404-.304.324 0 .882-.239 1.238-.531.635-.52.646-.685.564-8.107l-.084-7.577-1.212-.354c-2.011-.588-.574-.817 4.181-.666 4.774.151 6.234.605 7.451 2.316 1.538 2.162.894 5.349-1.365 6.753-1.002.623-1.543.728-3.675.713l-2.501-.018v2.996c0 3.398.224 4.038 1.513 4.321.502.11.912.326.912.48 0 .384-7.188.36-7.426-.026zm9.1-9.487c1.348-1.162 1.501-3.735.327-5.528-.565-.864-2.516-1.536-3.641-1.253l-.785.197v7.271h1.65c1.278 0 1.83-.155 2.449-.687m6.384 8.857c-1.248-1.486-1.086-2.831.526-4.353.733-.692 2.169-1.584 3.258-2.024 1.915-.774 1.947-.806 1.913-1.904-.043-1.361-.841-2.316-1.935-2.316-1.052 0-1.746.788-1.871 2.124-.089.955-.19 1.062-1.008 1.062-.81 0-.92-.111-1.007-1.015-.063-.661.095-1.23.455-1.635 1.723-1.938 6.315-1.904 7.362.054.171.321.312 2.288.312 4.372 0 4.841.228 5.459 1.567 4.246.52-.472.554-.464.554.124 0 .345-.428.988-.951 1.429-1.426 1.201-2.764.937-3.483-.687-.023-.05-.553.258-1.179.683-1.678 1.14-3.474 1.075-4.513-.16m4.898-1.187c.961-.587.985-.654.985-2.73 0-1.263-.127-2.129-.313-2.129-.662 0-3.317 1.545-3.616 2.104-.77 1.441-.015 3.359 1.324 3.357.35 0 1.079-.272 1.62-.602m50.584 1.913c-.114-.114.208-.382.715-.596l.922-.388-.084-4.636-.083-4.636-.909-.181-.91-.181 1.468-.657c.807-.362 1.796-.74 2.197-.841.672-.169.73-.095.73.934v1.116l1.021-1.084c.74-.785 1.277-1.083 1.952-1.083.512 0 1.015.136 1.118.303.103.168.306.304.45.304.589 0 2.121-1.618 2.737-2.89.361-.748.781-1.283.933-1.189.151.094.275.982.275 1.973v1.803h1.386c1.156 0 1.369.088 1.285.531-.073.387-.448.556-1.386.624l-1.285.093v4.346c0 4.622.161 5.165 1.434 4.832.355-.093.719-.36.809-.594.089-.234.303-.426.475-.426.593 0 .31.671-.718 1.7-1.194 1.196-2.443 1.354-3.558.452-.69-.559-.719-.753-.812-5.462-.09-4.557-.135-4.883-.671-4.883-.316 0-.721.274-.899.607-.383.716-1.27.782-2.211.165-.75-.492-1.071-.363-1.822.737-.404.591-.513 1.448-.513 4.041 0 3.609.205 4.297 1.368 4.59.428.107.696.327.596.49-.204.33-5.688.409-6.01.086m-29.259-20.228c-.94-.541-1.525-1.621-1.538-2.843-.019-1.544 1.421-2.918 4.281-4.088l2.436-.997-.162-1.215c-.169-1.26-1.058-2.283-1.986-2.283-1.001 0-1.852.898-1.852 1.953 0 2.017-1.866 2.218-2.065.222-.254-2.557 4.907-4.107 7.28-2.186.655.53.704.827.847 5.117.083 2.506.249 4.653.369 4.773.12.119.563-.012.985-.286.628-.413.767-.426.767-.073 0 .586-2.01 2.314-2.691 2.314-.556 0-1.377-.745-1.589-1.443-.081-.264-.447-.145-1.198.39-1.325.944-2.909 1.207-3.884.645m4.239-1.933c.843-.498.88-.613.88-2.731 0-1.215-.052-2.21-.115-2.21-.46 0-2.405 1.03-3.183 1.685-.682.575-.945 1.057-.945 1.732 0 1.86 1.582 2.577 3.363 1.524m6.033-.011c0-1.265.128-2.2.302-2.2.167 0 .304.15.304.334 0 .808 1.064 2.462 1.844 2.866 1.775.919 3.611.245 3.611-1.327 0-.886-.771-1.602-3.012-2.798-2.363-1.261-3.05-2.111-3.05-3.778 0-2.473 2.088-3.876 4.764-3.201.971.245 1.484.254 1.707.034.64-.642.803-.276.803 1.805 0 2.275-.339 2.72-.883 1.157-.473-1.356-1.162-2.026-2.309-2.241-1.863-.35-3.069 1.028-2.141 2.446.261.4 1.35 1.144 2.419 1.655s2.382 1.428 2.917 2.039c.839.956.951 1.274.814 2.298-.321 2.396-1.889 3.306-5.506 3.194l-2.582-.08zm-26.672 1.745c0-.167.282-.304.626-.304s.89-.142 1.213-.314c.555-.298.586-.71.586-7.829 0-7.934-.053-8.242-1.407-8.242-.373 0-.763-.137-.866-.304-.252-.408 8.425-.401 9.896.007 1.393.388 3.188 2.336 3.452 3.748.226 1.207-.226 2.834-1.094 3.939-.935 1.191-2.975 1.822-5.284 1.637l-1.969-.158v3.083c0 3.43.381 4.433 1.684 4.433.407 0 .74.137.74.304 0 .186-1.465.303-3.788.303-2.324 0-3.789-.117-3.789-.303m9.471-9.696c1.012-1.134 1.189-2.822.486-4.627-.463-1.189-1.527-1.76-3.278-1.76h-1.526v3.62c0 4.054-.019 4.025 2.273 3.813.886-.082 1.436-.364 2.045-1.046M131.366 86.471c0-.162.311-.295.692-.295s.91-.243 1.179-.54c.426-.471.487-1.465.487-7.908 0-7.798-.048-8.078-1.385-8.078-.373 0-.677-.1-.677-.221.001-.21 3.733-1.852 4.199-1.847.122.001.221.584.221 1.296v1.293l1.126-1.127c.619-.62 1.482-1.216 1.918-1.325 3.256-.819 6.185 2.874 5.682 7.163-.2 1.702-1.229 4.035-2.146 4.864-1.475 1.335-4.128 1.782-5.71.963l-.87-.45v2.495c0 2.65.338 3.422 1.495 3.422.313 0 .569.133.569.295 0 .18-1.327.295-3.39.295s-3.39-.115-3.39-.295m9.64-7.23c.768-.874 1.263-2.492 1.263-4.131 0-4.252-2.93-6.702-5.298-4.43-.88.843-.889.88-.889 4.028 0 1.88.148 3.502.362 3.971.753 1.656 3.322 1.972 4.562.562m-39.124 1.107c-1.097-.986-1.45-2.913-1.459-7.96l-.007-3.311-.902-.234c-1.58-.41-.948-.816 1.271-.816h2.137l.164 5.312c.091 2.922.19 5.329.221 5.35.032.021.445.199.919.396 1.026.425 1.779.229 2.971-.776l.883-.743v-4.07c0-4.194-.092-4.54-1.268-4.773-.293-.058-.558-.239-.59-.4-.035-.17.857-.333 2.079-.383l2.137-.086.004 4.956c.003 5.951.069 6.284 1.209 6.284.863 0 1.154.418.482.69q-.368.148.088.172c1.016.051 1.164-.602 1.164-5.141 0-4.72-.119-5.165-1.385-5.165-.373 0-.678-.119-.678-.264 0-.255 3.543-1.801 4.13-1.801.16 0 .291.536.291 1.192v1.193l1.134-1.193c1.232-1.297 2.128-1.5 3.222-.733 1.11.778.702 2.492-.593 2.492-.298 0-.885-.226-1.305-.502-.75-.492-.78-.483-1.611.448-.836.936-.847.995-.847 4.608 0 2.013.078 3.864.174 4.113s.638.606 1.206.793c1.73.572.691.896-2.584.805-2.285-.063-3.05-.18-2.994-.458.055-.275-.216-.246-1.032.11-.609.267-1.405.55-1.77.63-.606.133-.663.038-.663-1.1v-1.246l-1.065.936c-1.968 1.73-3.705 1.959-5.133.675m21.823.341c-2.425-1.052-3.666-3.136-3.676-6.17-.007-1.74.13-2.312.861-3.637 2.403-4.353 8.246-4.32 10.554.06.891 1.69.898 4.868.015 6.529-1.664 3.124-4.889 4.462-7.754 3.218m4.141-1.014c1.072-.575 1.58-2.042 1.58-4.565 0-3.847-1.468-6.345-3.729-6.345-2.181 0-3.414 2.333-3.039 5.75.443 4.048 2.831 6.423 5.188 5.16m20.607.82c-3.707-1.875-4.396-8.133-1.236-11.223s7.988-1.704 8.769 2.518l.205 1.106h-4.454c-4.967 0-4.766-.103-4.146 2.13.566 2.04 2.552 3.774 4.32 3.771 1.128-.001 2.615-.965 3.181-2.06.594-1.15 1.083-.908.721.354-.369 1.288-1.733 2.93-2.95 3.551-1.368.699-2.835.65-4.41-.147m4.43-9.33c0-1.888-2.478-3.05-4.092-1.919-.569.4-1.508 2.023-1.508 2.608 0 .086 1.26.157 2.8.157h2.8zm5.159 9.589c-1.098-.484-1.756-1.667-1.756-3.159 0-.89.214-1.36.98-2.15.825-.853 3.455-2.282 5.418-2.946.595-.201.716-1.923.203-2.882-.465-.87-1.686-1.246-2.693-.828-.797.33-1.002.73-1.186 2.307-.188 1.613-2.047 1.536-2.241-.093-.288-2.423 3.872-4.25 6.846-3.007 1.711.716 1.944 1.355 1.948 5.335.004 5.324.37 6.647 1.47 5.32.453-.546.885-.573.885-.055s-1.439 1.867-2.358 2.212c-1.003.375-1.949-.035-2.177-.945l-.188-.752-1.25.855c-1.538 1.054-2.745 1.297-3.901.788m4.012-2.01 1.146-.644v-2.307c0-1.39-.121-2.306-.305-2.306-.642 0-3.213 1.495-3.654 2.126-.732 1.046-.592 2.45.314 3.164.967.761 1.091.76 2.499-.033m29.295 1.989c-1.501-.553-3.249-2.412-3.659-3.89-.175-.632-.32-3.715-.323-6.898-.007-6.51-.161-7.173-1.699-7.322-.523-.051-.951-.217-.951-.37 0-.158 1.765-.276 4.144-.276 2.688 0 4.08.104 3.962.296-.1.162-.481.295-.846.295-.364 0-.92.188-1.235.419-.535.392-.572.824-.572 6.714 0 6.841.203 8.044 1.534 9.092 2.826 2.226 7.68.81 8.6-2.506.186-.67.327-3.597.328-6.792.002-6.28-.165-6.927-1.784-6.927-.477 0-.867-.133-.867-.295 0-.18 1.326-.296 3.39-.296s3.389.116 3.389.296c0 .162-.377.295-.838.295-1.64 0-1.745.419-1.861 7.39-.102 6.13-.132 6.409-.856 7.817-.529 1.028-1.168 1.72-2.16 2.333-1.226.76-1.739.884-3.963.966-1.729.063-2.935-.047-3.733-.341m35.644-.132c-4.439-2.019-4.88-9.074-.748-11.981 1.1-.774 1.516-.888 3.248-.888 1.66 0 2.181.13 3.18.792 2.42 1.603 3.491 4.735 2.63 7.691-1.151 3.953-4.905 5.934-8.31 4.386m4.311-.926c1.043-.559 1.517-1.979 1.517-4.547 0-2.673-.493-4.237-1.751-5.552-1.528-1.596-4.152-.78-4.781 1.49-1.357 4.892 1.809 10.327 5.015 8.61m-147.983.747c0-.294.293-.443.868-.443 1.681 0 1.786-.502 1.78-8.55-.003-8.105-.11-8.652-1.696-8.806-.523-.051-.951-.217-.951-.37 0-.163 2.929-.276 7.22-.276h7.222l.004.96c.001.527.085 1.457.186 2.065.143.87.087 1.107-.262 1.107-.256 0-.517-.37-.618-.876-.363-1.813-.982-2.075-4.91-2.075h-3.537v7.082h2.902c3.166 0 3.6-.2 3.99-1.844.107-.446.323-.811.482-.811.39 0 .382 6.4-.006 6.64-.305.189-.416-.025-.703-1.352-.234-1.08-1.304-1.452-4.172-1.452h-2.492v3.777c0 2.545.115 3.893.354 4.132.463.464 5.338.44 6.714-.032.71-.243 1.345-.826 2.063-1.89 1.677-2.487 1.897-2.09.705 1.27l-.775 2.186h-7.183c-6.189 0-7.184-.061-7.184-.442m83.416.153c0-.16.333-.373.739-.475.418-.105.808-.461.895-.818.086-.347.118-2.623.071-5.058l-.084-4.426-.958-.093c-.527-.05-.958-.196-.958-.322 0-.21 3.715-1.798 4.208-1.798.117 0 .213.53.213 1.18s.084 1.18.185 1.18c.102 0 .691-.457 1.309-1.016 1.985-1.795 3.965-1.713 5.404.226.551.741.635 1.355.766 5.604l.147 4.771.811.388c1.465.702.875.946-2.285.946-2.969 0-4.027-.345-2.35-.766.41-.103.874-.429 1.032-.724.381-.714.365-6.922-.022-8.319-.527-1.902-2.055-2.14-4.038-.63l-.958.73v3.655c0 4.055.238 5.077 1.214 5.22.361.053.711.263.777.465.092.28-.634.37-2.998.37-1.843 0-3.12-.12-3.12-.29m37.139.01c0-.153.365-.453.81-.667l.811-.389.085-4.275c.104-5.264.036-5.604-1.122-5.604-.483 0-.879-.109-.879-.242 0-.242 3.584-1.823 4.133-1.823.158 0 .289.554.289 1.231v1.232l.663-.61c2.155-1.985 4.082-2.347 5.537-1.042 1.182 1.06 1.447 2.32 1.456 6.91.004 2.057.088 3.95.186 4.206.216.564 2.178.645 2.71.113.372-.373.524-8.597.174-9.508-.106-.277-.526-.467-1.031-.467-.469 0-.853-.112-.853-.248 0-.224 3.69-1.817 4.208-1.817.117 0 .213 2.448.213 5.44s.126 5.77.279 6.174c.164.432.559.775.958.831.374.053.679.23.679.392 0 .184-2.239.325-5.968.375-5.824.078-7.008-.102-5.085-.774l.884-.308v-4.59c0-4.272-.042-4.632-.62-5.21-.771-.772-1.983-.597-3.408.49l-.983.75v3.913c0 4.078.181 4.764 1.302 4.96.311.054.621.265.688.468.093.28-.632.368-2.997.368-1.763 0-3.119-.121-3.119-.279m31.539-.01c0-.16.332-.373.739-.475.417-.105.807-.461.895-.818.086-.347.118-2.623.071-5.058l-.084-4.426-.958-.093c-.527-.05-.958-.196-.958-.322 0-.21 3.714-1.798 4.207-1.798.118 0 .214.53.214 1.18s.083 1.18.185 1.18.691-.457 1.309-1.016c1.985-1.795 3.964-1.713 5.404.225.55.741.634 1.355.765 5.604l.148 4.772.81.388c1.466.702.875.946-2.284.946-3.114 0-3.838-.273-2.221-.837 1.152-.402 1.271-.99 1.145-5.673-.098-3.698-.136-3.897-.829-4.46-.897-.726-2.053-.555-3.45.511l-.982.75.027 3.6c.035 4.273.193 4.998 1.139 5.221.387.092.758.33.824.528.09.269-.672.36-2.999.36-1.843 0-3.117-.118-3.117-.29m-16.212-17.122c-.669-.67-.718-.98-.284-1.79.345-.647 1.728-.778 2.288-.217.563.564.412 1.638-.301 2.138-.843.591-.993.58-1.703-.131m-1.474-3.974c0-.276.266-.453.678-.453 1.341 0 1.386-.268 1.386-8.27v-7.563l-.851.125c-.495.073-1.169-.084-1.611-.373-.737-.484-.781-.475-1.514.317-1.011 1.093-1.105 1.606-.988 5.384.083 2.679.197 3.345.662 3.858.308.341.806.62 1.105.62s.544.133.544.295c0 .18-1.327.296-3.39.296-3.425 0-4.184-.235-2.432-.75l.958-.283.082-4.683c.083-4.818-.075-5.612-1.085-5.44-.259.044-.516-.05-.572-.206-.078-.218 3.449-1.918 3.978-1.918.057 0 .103.628.103 1.395v1.395l.924-1.122c1.231-1.496 2.09-1.804 3.352-1.205.745.354 1.127.39 1.577.15 1.157-.62 1.516-.407 1.516.9v1.218l1.284-1.185c1.645-1.518 2.71-1.763 4.402-1.013 2.093.926 3.156 2.937 3.156 5.966 0 4.156-2.372 7.076-5.75 7.076-.744 0-1.762-.212-2.261-.47l-.908-.47.132 2.514c.136 2.59.447 3.34 1.452 3.499.319.05.607.224.642.386.037.18-1.242.328-3.254.379-2.819.07-3.317.015-3.317-.37m9.245-7.081c1.075-.998 1.366-1.918 1.366-4.32 0-3.345-1.188-5.283-3.24-5.283-.827 0-1.285.228-2.05 1.018l-.984 1.017.16 3.188c.185 3.675.304 4.087 1.36 4.66 1.2.654 2.497.546 3.388-.28m-121.534.783-.896-.897V41.91h-1.032c-1.113 0-1.388-.437-.46-.732.757-.24 2.347-2.078 2.859-3.304.645-1.546.991-1.167.991 1.085v2.066h1.474c1.113 0 1.473.108 1.473.443 0 .334-.36.442-1.473.442h-1.474v4.7c0 3.88.081 4.782.463 5.165.62.622.991.585 1.801-.177.801-.753 1.171-.566.683.346-.188.352-.28.703-.203.78.357.357 1.648-2.235 4.895-9.823 1.972-4.608 3.683-8.22 3.893-8.22.212 0 1.871 3.56 3.811 8.174 1.889 4.497 3.663 8.524 3.942 8.95s.895.91 1.37 1.076c1.671.583.824.834-2.822.834-2.027 0-3.685-.104-3.685-.23 0-.128.398-.382.884-.566 1.111-.42 1.126-.966.092-3.486l-.793-1.932-3.668.082-3.668.082-.822 2.054c-.929 2.323-.813 2.946.604 3.257 1.832.403.778.739-2.319.739-1.763 0-3.615.081-4.115.182-.752.15-1.064.026-1.805-.715m14.858-7.95c-.256-.61-.873-2.104-1.372-3.32-.499-1.218-1.003-2.322-1.12-2.454-.165-.186-2.061 3.723-3.158 6.51-.111.282.599.37 2.985.37h3.13zm10.637 8.123c-3.552-2.064-4.155-7.998-1.11-10.912 1.535-1.469 2.327-1.81 4.193-1.809 4.783.005 7.5 5.22 5.186 9.956-1.129 2.31-2.539 3.227-5.152 3.351-1.607.077-2.154-.026-3.117-.586m5.764-1.818c.425-.698.561-1.48.561-3.247.002-2.887-.436-4.405-1.64-5.683-1.118-1.187-2.558-1.335-3.762-.387-1.867 1.47-1.822 6.73.08 9.404 1.223 1.72 3.687 1.676 4.761-.087m18.013 1.741-.931-.784-.08-5.218-.081-5.217-.958-.093c-1.215-.117-1.201-.335.076-1.163.565-.366 1.438-1.395 1.941-2.287.502-.892 1.034-1.622 1.18-1.622.147 0 .267.93.267 2.066v2.066h1.474c1.113 0 1.473.108 1.473.443 0 .334-.361.442-1.481.442h-1.48l.08 4.912c.071 4.302.145 4.951.597 5.236.81.511 1.531-.128 1.642-1.456.147-1.746 1.009-2.668 3.685-3.936 1.326-.628 2.654-1.225 2.952-1.327.458-.156.51-.376.336-1.437-.273-1.67-.865-2.287-2.191-2.287-1.294 0-1.782.425-1.782 1.554 0 1.244-.502 1.987-1.343 1.987-1.03 0-1.514-1.116-.973-2.242 1.203-2.505 5.862-3.194 7.889-1.166.75.75.766.854.859 5.498.093 4.671.102 4.732.737 4.642.527-.075.658-.316.733-1.346.061-.854.226-1.254.516-1.254.234 0 .425.232.426.516.002.856 1.093 2.376 2.068 2.88 1.275.66 2.608.466 3.313-.485.515-.693.534-.869.175-1.618-.404-.844-.795-1.14-3.789-2.867-2.703-1.559-3.299-3.752-1.577-5.802.968-1.152 2.429-1.541 4.284-1.143 1.024.22 1.554.217 1.827-.01.211-.176.471-.232.578-.125.29.29.234 4.167-.063 4.351-.141.088-.484-.436-.761-1.163-.625-1.639-1.403-2.207-3.02-2.207-1.027 0-1.345.14-1.759.772-.778 1.189-.104 2.088 2.645 3.526 2.876 1.505 3.74 2.353 3.943 3.872.201 1.498-.435 2.776-1.801 3.621-.912.564-1.344.62-3.913.509-2.313-.1-2.906-.217-2.979-.585-.079-.397-.231-.378-1.109.14-1.272.752-2.399.54-2.659-.498-.229-.91-.355-.91-1.589 0-.547.405-1.437.818-1.978.92-1.11.208-2.619-.304-3.023-1.026-.236-.423-.343-.403-.965.181-1.137 1.07-2.319 1.15-3.411.23m9.697-1.713c.977-.658 1.004-.729 1.088-2.95.056-1.481-.025-2.277-.231-2.277-.68 0-3.219 1.497-3.806 2.243-.782.996-.784 1.892-.007 2.881.752.958 1.642.989 2.956.103m37.846 1.892c-1.216-.759-2.4-2.077-2.817-3.135l-.348-.886-.727 2.14-.726 2.14h-7.344c-4.7 0-7.345-.107-7.345-.296 0-.162.317-.295.705-.295s.987-.232 1.334-.516c.619-.508.628-.652.548-8.632l-.081-8.115-1.267-.306c-.696-.169-1.172-.401-1.056-.517s3.438-.21 7.383-.21h7.172v2.065c0 2.121-.392 2.752-.736 1.184-.372-1.692-1.29-2.069-5.051-2.069h-3.35v7.448l2.769-.121c3.016-.132 3.583-.387 3.942-1.775.461-1.782.805-.791.805 2.317 0 2.256-.105 3.183-.369 3.271-.225.075-.368-.147-.368-.574 0-.383-.206-.991-.459-1.352-.422-.603-.695-.656-3.39-.656h-2.93v3.63c0 2.43.117 3.747.353 3.984.53.53 5.937.47 6.995-.078.459-.237 1.293-1.072 1.854-1.854.808-1.125 1.054-1.794 1.182-3.209.244-2.689 1.569-4.867 3.616-5.94 1.071-.562 3.849-.612 4.865-.088 2.534 1.306 4.097 4.292 3.685 7.042-.23 1.537-1.278 3.784-2.118 4.544-1.582 1.43-5.091 1.879-6.726.859m5.134-1.34c1.295-1.38 1.405-6.047.198-8.384-1.077-2.085-3.379-2.771-4.736-1.413-1.551 1.553-1.693 5.47-.303 8.319 1.171 2.398 3.353 3.065 4.841 1.478m25.448 1.605c-1.093-.465-1.896-2.041-1.733-3.4.188-1.568 1.827-3.036 4.678-4.189 1.683-.68 2.159-1.008 2.236-1.54.25-1.72-.653-2.977-2.137-2.977-1.18 0-1.862.697-1.991 2.036-.179 1.855-2.039 2.022-2.255.202-.219-1.843 1.717-3.225 4.516-3.225 1.915 0 3.461.608 3.971 1.561.167.312.305 2.469.308 4.792s.126 4.417.274 4.651c.395.626 1.92-.09 1.656-.778-1.805-4.711.32-9.489 4.55-10.225 1.48-.258 3.174.22 4.17 1.176 1.541 1.477 1.378 3.056-.315 3.056-.969 0-1.497-.49-1.497-1.387 0-.925-1.004-1.859-1.998-1.859-1.891 0-3.121 1.835-3.1 4.626.024 3.281 1.616 5.488 3.96 5.488 1.367 0 2.464-.68 3.253-2.02.579-.982 1.127-1.326 1.127-.707 0 1.306-1.797 3.804-3.301 4.591-1.695.887-4.673.26-5.78-1.217l-.498-.663-1.246 1.148c-1.512 1.393-2.503 1.496-3.227.337a75 75 0 0 0-.577-.915c-.038-.057-.538.254-1.11.69-1.128.862-2.882 1.195-3.934.748m4.238-2.096.992-.615v-2.356c0-2.306-.014-2.353-.663-2.159-1.151.344-3.146 1.609-3.458 2.193-.487.91-.349 2.322.289 2.96.754.755 1.593.748 2.84-.023M66.521 53.412c0-.166.318-.423.707-.572s.912-.562 1.163-.921c.251-.36 2.07-4.418 4.043-9.02s3.737-8.366 3.921-8.365 1.907 3.776 3.828 8.388c1.922 4.613 3.693 8.671 3.936 9.018.647.926 1.849 1.317 2.388.777.541-.541.792-5.071.444-8.003-.237-2-.271-2.066-1.053-2.054-.444.006-.808-.138-.808-.32 0-.385 3.797-1.962 4.17-1.731.138.086.251.624.251 1.197v1.042l.958-.809c1.932-1.63 3.728-1.899 5.041-.754 1.177 1.026 1.37 1.915 1.37 6.3 0 4.515.276 5.54 1.49 5.54.316 0 .573.132.573.294 0 .18-1.277.296-3.242.296s-3.242-.117-3.242-.296c0-.162.256-.295.568-.295 1.292 0 1.495-.676 1.49-4.964-.003-4.813-.223-5.469-1.865-5.605-.849-.07-1.365.096-2.138.685l-1.018.778.081 4.332.082 4.332.958.282c.526.155.958.388.958.516 0 .13-2.852.235-6.338.235-3.485 0-6.337-.104-6.337-.23 0-.128.398-.382.884-.566 1.128-.426 1.151-1.206.11-3.612l-.776-1.79h-7.202999999999999l-.805 1.896c-1.008 2.375-.931 3.157.348 3.523 1.73.495 1.005.779-1.99.779-1.816 0-2.948-.117-2.948-.303m12.084-7.194c0-.259-2.728-6.537-2.938-6.762-.123-.132-.43.266-.68.886-.25.619-.927 2.221-1.502 3.56l-1.047 2.435h3.084c1.696 0 3.083-.054 3.083-.119m60.72 7.201c0-.162.256-.295.568-.295 1.318 0 1.495-.644 1.495-5.444 0-4.83-.178-5.444-1.46-5.036q-.602.19-.603-.199c0-.331.945-.787 3.905-1.883.446-.164.516 0 .516 1.203v1.394l1.141-1.031c1.594-1.443 2.932-1.847 4.267-1.288 1.753.733 2.069 1.733 2.201 6.972.063 2.516.25 4.74.416 4.943s.549.37.854.37.553.132.553.294c0 .178-1.228.296-3.095.296s-3.095-.118-3.095-.296c0-.162.239-.295.531-.295 1.104 0 1.238-.56 1.238-5.177 0-3.956-.062-4.526-.539-4.958-.777-.704-2.106-.602-3.372.26l-1.1.748v4.075c0 3.573.067 4.136.539 4.564.297.268.761.488 1.032.488s.492.133.492.295c0 .18-1.277.296-3.242.296s-3.242-.117-3.242-.296m112.596.032c0-.144.329-.346.732-.447.425-.106.8-.46.894-.843.088-.363.123-4.113.078-8.333l-.083-7.672-.958-.093c-.527-.05-.958-.202-.958-.337 0-.243 3.568-1.783 4.13-1.783.18 0 .291 1.765.291 4.608v4.608l1.141-1.031c.627-.568 1.623-1.191 2.212-1.386.916-.302 1.233-.275 2.176.186 1.696.83 1.952 1.666 2.128 6.97.157 4.752.28 5.208 1.407 5.222.203.002.369.137.369.3 0 .177-1.229.295-3.095.295s-3.095-.118-3.095-.296c0-.162.257-.295.573-.295 1.129 0 1.491-1.082 1.477-4.418-.014-3.533-.327-5.57-.912-5.942-.651-.413-2.131-.3-2.915.222-1.355.904-1.466 1.246-1.466 4.55 0 4.227.177 5.005 1.225 5.4 1.503.569.894.779-2.256.779-1.702 0-3.095-.119-3.095-.264"/><path fill="#66152A" d="M286 0h31c8.284 0 15 6.716 15 15v442c0 8.284-6.716 15-15 15h-31z"/><path fill="#66152A" d="M0 467h327v5H0z"/></g><path fill="#66152A" d="M315 0h16c8.284 0 15 6.716 15 15v442c0 8.284-6.716 15-15 15h-16z"/><defs><clipPath id="a"><path fill="#fff" d="M0 0h332v472H0z"/></clipPath></defs></svg>