<svg xmlns="http://www.w3.org/2000/svg" xml:space="preserve" width="400" height="568.077"><path d="M0 0h379.514A20.486 20.486 45 0 1 400 20.486V547.59a20.486 20.486 135 0 1-20.486 20.486H0Z" style="fill:#070930"/><path d="M150.404 484.315v5.246h-3.43v-15.228h5.373q5.755 0 5.755 4.853 0 2.294-1.656 3.717-1.646 1.412-4.407 1.412zm0-7.348v4.747h1.348q2.74 0 2.74-2.4 0-2.347-2.74-2.347zm22.034 12.594H168.7l-1.083-3.387h-5.416l-1.072 3.387h-3.717l5.543-15.228h4.067zm-5.607-6.02-1.635-5.12q-.18-.573-.255-1.369h-.085q-.053.669-.265 1.327l-1.657 5.161zm6.807 5.436v-3.398q.924.775 2.007 1.168 1.083.383 2.188.383.647 0 1.125-.117.489-.117.807-.319.33-.212.489-.488.16-.287.16-.616 0-.446-.256-.797-.255-.35-.7-.647-.436-.298-1.041-.574-.606-.276-1.306-.563-1.784-.743-2.666-1.816-.87-1.072-.87-2.59 0-1.19.477-2.04.478-.86 1.296-1.412.828-.552 1.911-.807 1.083-.265 2.294-.265 1.19 0 2.103.148.923.138 1.699.436v3.175q-.383-.266-.84-.467-.445-.202-.923-.33-.478-.138-.956-.201-.467-.064-.892-.064-.584 0-1.062.117-.478.106-.807.308-.33.201-.51.488-.18.276-.18.627 0 .382.202.69.201.297.573.573.372.266.903.531.53.255 1.2.531.913.383 1.635.818.733.425 1.253.966.52.542.796 1.243.277.69.277 1.614 0 1.274-.489 2.145-.478.86-1.306 1.402-.828.53-1.933.764-1.093.234-2.315.234-1.253 0-2.389-.213-1.126-.212-1.954-.637m12.19 0v-3.398q.925.775 2.008 1.168 1.083.383 2.187.383.648 0 1.126-.117.488-.117.807-.319.33-.212.489-.488.159-.287.159-.616 0-.446-.255-.797-.255-.35-.7-.647-.436-.298-1.042-.574-.605-.276-1.306-.563-1.784-.743-2.665-1.816-.87-1.072-.87-2.59 0-1.19.477-2.04.478-.86 1.296-1.412.828-.552 1.91-.807 1.084-.265 2.295-.265 1.189 0 2.102.148.924.138 1.7.436v3.175q-.383-.266-.84-.467-.446-.202-.923-.33-.478-.138-.956-.201-.467-.064-.892-.064-.584 0-1.062.117-.478.106-.807.308-.33.201-.51.488-.18.276-.18.627 0 .382.201.69.202.297.574.573.371.266.902.531.531.255 1.2.531.914.383 1.636.818.732.425 1.253.966.52.542.796 1.243.276.69.276 1.614 0 1.274-.488 2.145-.478.86-1.306 1.402-.829.53-1.933.764-1.094.234-2.315.234-1.253 0-2.39-.213-1.125-.212-1.953-.637m16.322-4.662v5.246h-3.43v-15.228h5.374q5.755 0 5.755 4.853 0 2.294-1.656 3.717-1.646 1.412-4.407 1.412zm0-7.348v4.747h1.349q2.74 0 2.74-2.4 0-2.347-2.74-2.347zm16.364 12.86q-3.27 0-5.33-2.124-2.06-2.135-2.06-5.554 0-3.61 2.091-5.84t5.544-2.23q3.26 0 5.267 2.134 2.017 2.135 2.017 5.628 0 3.59-2.092 5.788-2.081 2.198-5.437 2.198m.15-12.796q-1.806 0-2.868 1.359-1.062 1.349-1.062 3.579 0 2.261 1.062 3.578t2.782 1.317q1.774 0 2.814-1.274 1.04-1.285 1.04-3.558 0-2.368-1.008-3.684t-2.76-1.317m22.681 12.53h-3.94l-2.367-3.918q-.266-.446-.51-.797-.244-.35-.5-.594-.243-.255-.52-.383-.265-.138-.583-.138H232v5.83h-3.43v-15.228h5.437q5.543 0 5.543 4.142 0 .796-.244 1.476-.245.669-.69 1.21-.447.542-1.084.935-.626.393-1.402.616v.042q.34.107.659.35.318.235.616.553.297.319.563.69.276.361.499.712zm-9.344-12.658v4.237h1.486q1.105 0 1.774-.637.68-.648.68-1.603 0-1.997-2.39-1.997zm21.025.223h-4.343v12.435h-3.44v-12.435h-4.322v-2.793h12.105z" aria-label="PASSPORT" style="font-weight:700;font-size:21.7479px;line-height:.95;font-family:&quot;Segoe UI&quot;;-inkscape-font-specification:&quot;Segoe UI Bold&quot;;text-align:center;text-anchor:middle;fill:#f4ca81;stroke-width:.543697"/><path d="M168.193 455.548q-2.045 0-3.329-1.237-1.268-1.252-1.268-3.201v-4.977h-1.331v-2.314h15.025v2.314H173.9v13.536h-2.536v-5.484q-1.22 1.363-3.17 1.363m3.17-3.963v-5.452h-5.2v4.85q0 .967.619 1.632.618.65 1.633.65 1.743 0 2.948-1.68m12.933-5.452h-3.36v13.536H178.4v-13.536h-2.314v-2.314h8.21zm11.57 0h-4.343v4.216q0 1.141-.602 1.823-.586.681-1.553.681-.539 0-.951-.285l4.12 6.086-2.155 1.49-6.783-10.397 1.997-1.554 1.077 1.554q.793 1.14 1.363 1.14.46 0 .682-.269.238-.285.238-.84v-3.645h-5.865v-2.314h18.703v2.314h-3.392v13.536h-2.536v-6.91h-2.884l-1.015-2.315h3.9zm10.651 9.415q-2.044 0-3.328-1.237-1.268-1.252-1.268-3.201v-4.977h-1.332v-2.314h15.026v2.314h-3.392v13.536h-2.536v-5.484q-1.22 1.363-3.17 1.363m3.17-3.963v-5.452h-5.199v4.85q0 .967.619 1.632.618.65 1.632.65 1.744 0 2.948-1.68m12.934-5.452h-3.36v13.536h-2.537v-13.536h-2.314v-2.314h8.21zm-3.487-2.314h-2.314l-6.626-6.435 1.68-1.458zm13.82 2.314v4.596h-5.705q-.967 0-1.633.682-.65.666-.65 1.632 0 1.728 1.363 2.885 1.363 1.141 3.234 1.141 2.25 0 3.709-2.029l1.775 1.459q-2.029 2.853-5.484 2.853-2.853 0-4.961-1.807-2.108-1.823-2.108-4.502 0-1.933 1.41-3.28 1.427-1.348 3.408-1.348h3.107v-2.282h-9.003v-2.314h15.12v2.314zm1.586-8.083-.444 1.933q-.888-.507-1.68-.507-.777 0-1.268.507-.508.507-.508 1.268 0 1.538 1.585 2.885h-2.314q-1.426-1.22-1.426-3.012 0-1.553 1.125-2.599t2.774-1.046q1.331 0 2.156.57" aria-label="पासपोर्ट" style="font-weight:700;font-size:32.4602px;line-height:.95;font-family:Utsaah;-inkscape-font-specification:&quot;Utsaah Bold&quot;;text-align:center;text-anchor:middle;fill:#f4ca81;stroke-width:.811505"/><path d="M112.488 124.278h-3.94l-2.368-3.919q-.265-.446-.51-.796-.244-.35-.498-.595-.245-.255-.52-.382-.266-.138-.585-.138h-.924v5.83h-3.43V109.05h5.437q5.543 0 5.543 4.141 0 .797-.244 1.477-.244.669-.69 1.21-.446.542-1.083.935-.627.392-1.402.615v.043q.34.106.658.35.319.234.616.553.298.318.563.69.276.36.5.711zm-9.345-12.658v4.237h1.487q1.104 0 1.773-.637.68-.648.68-1.604 0-1.996-2.39-1.996zm19.9 12.658h-9.132V109.05h8.782v2.793h-5.352v3.387h4.98v2.783h-4.98v3.483h5.702zm5.873-5.246v5.246h-3.43V109.05h5.373q5.756 0 5.756 4.853 0 2.294-1.657 3.717-1.646 1.412-4.407 1.412zm0-7.348v4.746h1.348q2.74 0 2.74-2.4 0-2.346-2.74-2.346zm22.342 6q0 6.86-6.392 6.86-6.202 0-6.202-6.701v-8.793h3.44v8.835q0 3.696 2.89 3.696 2.834 0 2.834-3.568v-8.963h3.43zm3.314 6.594V109.05h5.543q2.548 0 3.918.935 1.37.934 1.37 2.633 0 1.232-.839 2.156-.828.924-2.124 1.285v.042q1.625.202 2.591 1.2.977.998.977 2.432 0 2.092-1.497 3.324-1.497 1.22-4.088 1.22zm3.43-12.7v3.61h1.507q1.062 0 1.668-.51.616-.52.616-1.423 0-1.678-2.507-1.678zm0 6.158v4.014h1.858q1.19 0 1.858-.552.68-.552.68-1.508 0-.913-.67-1.433-.658-.52-1.847-.52zm19.581 6.542h-9.069V109.05h3.43v12.446h5.64zm5.48 0h-3.43V109.05h3.43zm14.378-.542q-1.667.807-4.354.807-3.504 0-5.511-2.06t-2.007-5.49q0-3.653 2.25-5.925 2.263-2.273 5.863-2.273 2.23 0 3.759.563v3.303q-1.53-.914-3.483-.914-2.145 0-3.462 1.349t-1.317 3.653q0 2.209 1.243 3.525 1.242 1.307 3.345 1.307 2.007 0 3.674-.977zm15.09.807q-3.271 0-5.331-2.124-2.06-2.134-2.06-5.553 0-3.61 2.092-5.84t5.543-2.23q3.26 0 5.267 2.134 2.017 2.134 2.017 5.628 0 3.589-2.091 5.787-2.082 2.198-5.437 2.198m.148-12.796q-1.805 0-2.867 1.36-1.062 1.348-1.062 3.578 0 2.262 1.062 3.579t2.782 1.317q1.774 0 2.814-1.275 1.041-1.285 1.041-3.557 0-2.368-1.009-3.685t-2.76-1.317m18.711.096h-5.373v3.738h4.938v2.782h-4.938v5.915h-3.43V109.05h8.803zm11.936 12.435h-3.43V109.05h3.43zm17.16 0h-3.461l-6.276-9.568q-.553-.839-.765-1.264h-.042q.085.807.085 2.464v8.368h-3.24V109.05h3.696l6.042 9.27q.415.627.765 1.243h.043q-.085-.531-.085-2.092v-8.42h3.238zm3.483 0V109.05h5.395q8.113 0 8.113 7.423 0 3.557-2.22 5.681-2.208 2.124-5.893 2.124zm3.43-12.435v9.653h1.7q2.23 0 3.493-1.338 1.274-1.338 1.274-3.643 0-2.177-1.263-3.42-1.253-1.252-3.526-1.252zm16.035 12.435h-3.43V109.05h3.43zm16.853 0h-3.738l-1.083-3.388h-5.416l-1.073 3.388h-3.716l5.543-15.228h4.067zm-5.607-6.021-1.636-5.119q-.18-.573-.254-1.37h-.085q-.053.67-.266 1.328l-1.656 5.16z" aria-label="REPUBLIC OF INDIA" style="font-weight:700;font-size:21.7479px;line-height:.95;font-family:&quot;Segoe UI&quot;;-inkscape-font-specification:&quot;Segoe UI Bold&quot;;text-align:center;text-anchor:middle;fill:#f4ca81;stroke-width:.543697"/><path d="M142.878 88.52h-4.311V89.6q0 .507-.222.76-.222.254-.666.254-.713 0-2.235-1.442-1.506-1.443-1.506-2.14 0-.507.206-.76.222-.255.65-.255H136v-4.025q0-.634-.333-1.11-.333-.475-.872-.475t-.808.253-.27.761q0 .46.286.808.301.333.729.333v1.902q-1.284 0-2.203-.856-.904-.871-.904-2.155 0-1.427.936-2.314.95-.888 2.393-.888 1.664 0 2.63 1.03.984 1.03.984 2.71v4.026h4.31V80.85h-2.535v-2.314h8.463v2.314h-3.391v13.536h-2.536zm12.933-7.67h-3.36v13.535h-2.536V80.85H147.6v-2.314h8.21zm4.501 6.34 4.628 6.244-1.965 1.427-7.893-10.746 2.06-1.554 1.363 1.934q.714 1.014 1.649 1.014.634 0 1.014-.46.38-.475.38-1.125V80.85h-6.942v-2.314h12.363v2.314h-2.853v3.424q0 1.236-.776 2.187-.777.951-1.95.951-.586 0-1.078-.222m16.262-1.744h-5.864q-.713 0-1.078.364-.349.35-.349 1.062 0 1.459 1.157 3.139t2.9 2.916l-1.394 1.712q-2.41-1.775-3.772-3.852-1.363-2.092-1.363-4.041 0-1.57 1.077-2.584 1.094-1.03 2.917-1.03h5.77v-2.283h-10.81v-2.314h16.737v2.314h-3.392v13.536h-2.536zm20.177-4.597h-3.455v7.133q0 .491-.286.887-.285.38-.729.38-.681 0-2.361-1.568-1.665-1.57-1.665-2.235 0-.856.73-.856h1.077q.634 0 .634-.856V80.85h-2.948v-2.314h14.93v2.314h-3.391v13.536h-2.536zm17.72 13.536V80.85h-3.075v5.865q0 1.743-1.22 2.98t-2.996 1.236q-1.791 0-2.996-1.205-1.188-1.22-1.188-3.011v-5.865h-1.522v-2.314h18.925v2.314h-3.392v13.536zM208.86 80.85h-3.328v5.865q0 .76.443 1.331.46.57 1.173.57.761 0 1.236-.538.476-.555.476-1.363zm16.04 6.34 4.628 6.245-1.965 1.427-7.894-10.746 2.06-1.554 1.364 1.934q.713 1.014 1.648 1.014.634 0 1.015-.46.38-.475.38-1.125V80.85h-6.942v-2.314h12.363v2.314h-2.853v3.424q0 1.236-.777 2.187-.776.951-1.95.951-.586 0-1.077-.222m13.662-6.34h-3.36v13.536h-2.536V80.85h-2.314v-2.314h8.21zm12.934 5.167h-2.822q.793 1.253.793 2.917 0 1.727-1.236 2.884-1.22 1.142-3.107 1.142-2.44 0-4.327-2.378-1.87-2.393-2.71-6.562l2.187-.729q.555 3.123 1.934 5.215 1.379 2.076 2.916 2.076.793 0 1.284-.475.491-.492.491-1.205 0-1.189-.586-2.472-.57-1.3-1.728-2.695h6.91zm1.11-5.167h-15.248v-2.314h15.247zm5.42 10.937q-2.552 0-4.248-1.95-1.68-1.95-1.68-4.675.872.285 1.458.285 1.11 0 1.791-.602.682-.619.682-1.68 0-1.332-1.078-2.315h-3.55v-2.314h16.135v2.314h-3.392v13.536h-2.536v-3.994q-1.395 1.395-3.582 1.395m3.582-4.121v-6.816h-4.09q1.015.92 1.015 2.505 0 1.569-.999 2.615-.998 1.046-2.678 1.252.364.999 1.3 1.633.935.618 1.997.618 2.155 0 3.455-1.807" aria-label="भारत गणराज्य" style="font-weight:700;font-size:32.4602px;line-height:.95;font-family:Utsaah;-inkscape-font-specification:&quot;Utsaah Bold&quot;;text-align:center;text-anchor:middle;fill:#f4ca81;stroke-width:.811505"/><path d="M163.653 371.441h-2.987v2.9q0 .786-.415 1.254-.403.47-1.068.47-.37 0-.654-.197l2.834 4.187-1.482 1.024-4.667-7.152 1.374-1.068.741 1.068q.546.785.938.785.316 0 .469-.185.163-.196.163-.578v-2.508h-4.034v-1.591h12.866v1.591h-2.334v9.311h-1.744V376h-1.984l-.698-1.592h2.682zm10.685 3.162h-4.034q-.491 0-.742.251-.24.24-.24.73 0 1.004.796 2.16.796 1.155 1.995 2.005l-.959 1.178q-1.657-1.221-2.595-2.65-.937-1.439-.937-2.78 0-1.08.74-1.777.753-.709 2.007-.709h3.969zm.763-3.162h-8.2v-1.591h8.2zm3.728 7.523q-1.755 0-2.921-1.34-1.156-1.342-1.156-3.217.6.196 1.003.196.763 0 1.232-.414.469-.425.469-1.156 0-.916-.742-1.592h-2.442v-1.591h11.099v1.591h-2.333v9.311h-1.745v-2.747q-.959.96-2.464.96m2.464-2.834v-4.689h-2.812q.697.633.697 1.723 0 1.08-.687 1.799-.686.72-1.842.861.25.687.894 1.123.643.426 1.374.426 1.482 0 2.376-1.243m10.096-.131h-3.358v1.046q0 .218-.13.328-.12.109-.371.109-.393 0-1.483-1.047t-1.09-1.44q0-.294.12-.435.12-.153.36-.153h.806v-2.966h-1.7v-1.591h10.924v1.591h-2.333v9.311h-1.745zm0-1.592v-2.966h-3.358v2.966zm1.745-4.34h-1.592l-4.557-4.426 1.155-1.003zm5.43 8.68q-1.45 0-2.367-.906-.905-.905-.905-2.3 0-1.396.96-2.311.96-.916 2.486-.916.992 0 1.7.501l-.588 1.374q-.49-.414-1.134-.414-.763 0-1.243.48-.48.468-.48 1.264 0 .741.49 1.232.491.49 1.276.49.644 0 1.167-.294.534-.294.949-.883v-4.623h-6.237v-1.591h10.314v1.591h-2.333v9.311h-1.744v-3.009q-.48.502-1.058.752-.578.251-1.254.251m19.722-3.751h-1.94q.545.861.545 2.006 0 1.188-.85 1.984-.84.785-2.138.785-1.679 0-2.976-1.635-1.287-1.647-1.865-4.514l1.505-.502q.382 2.148 1.33 3.587.949 1.429 2.006 1.429.545 0 .883-.327.338-.338.338-.829 0-.818-.403-1.7-.393-.895-1.189-1.854h4.754v-1.985h-9.725v-1.591h13.803v1.591h-2.334v9.311h-1.744zm7.806 3.968q-1.755 0-2.922-1.34-1.155-1.342-1.155-3.217.6.196 1.003.196.763 0 1.232-.414.469-.425.469-1.156 0-.916-.742-1.592h-2.442v-1.591h11.099v1.591H230.3v9.311h-1.745v-2.747q-.96.96-2.464.96m2.464-2.834v-4.689h-2.813q.698.633.698 1.723 0 1.08-.687 1.799-.687.72-1.842.861.25.687.894 1.123.643.426 1.374.426 1.482 0 2.376-1.243m10.685-1.527h-4.034q-.49 0-.741.251-.24.24-.24.73 0 1.004.796 2.16.795 1.155 1.995 2.005l-.96 1.178q-1.657-1.221-2.594-2.65-.938-1.439-.938-2.78 0-1.08.741-1.777.753-.709 2.006-.709h3.969v-1.57h-7.436v-1.591h11.513v1.591h-2.333v9.311h-1.744zm1.7-4.535h-1.591l-4.557-4.427 1.155-1.003z" aria-label="सत्यमेव जयते" style="font-weight:700;font-size:21.6079px;line-height:.95;font-family:Utsaah;-inkscape-font-specification:&quot;Utsaah Bold&quot;;text-align:center;text-anchor:middle;fill:#f4ca81;stroke-width:.558215"/><path fill="#f4ca81" fill-rule="evenodd" d="M191.954 187.834c-.475.715-.648.75-1.596.318-.887-.404-1.275-.383-2.349.13-.822.391-1.83.54-2.792.41-3.83-.513-5.347 1.355-4.726 5.821l.396 2.844-1.745 2.722c-1.959 3.056-1.81 2.985-4.104 1.995-.926-.4-2.52-.845-3.54-.99-1.32-.187-2.266-.628-3.27-1.527-2.638-2.36-5.645-2.638-8.195-.756-.689.507-1.694.923-2.234.924-1.474.002-3.347 1.317-4.74 3.327-2.292 3.306-3.025 3.968-5.905 5.335-2.97 1.41-3.366 1.876-3.783 4.46-.147.91-.874 2.132-2.104 3.538-2.906 3.32-3.5 6.531-1.387 7.493.5.23 1.141.894 1.423 1.48.282.584 1.17 1.508 1.972 2.052s1.878 1.726 2.39 2.627c3.311 5.83 7.194 7.874 9.578 5.042.548-.65.996-1.354.996-1.562s.173-.27.384-.14c.64.395.434 2.402-.383 3.741-.422.693-.768 1.55-.769 1.903 0 .354-.468 1.198-1.038 1.876-1.872 2.224-2.808 12.984-1.306 15.016.445.601.804 1.672.804 2.395 0 1.411 1.031 3.172 3.01 5.141.676.673 1.337 1.758 1.467 2.41.15.744.792 1.625 1.726 2.365 1.14.902 1.49 1.452 1.49 2.34 0 .792.365 1.5 1.153 2.236 1.114 1.041 1.154 1.196 1.154 4.482 0 3.27.44 6.293 1.698 11.681.528 2.26.526 2.718-.016 4.616-.332 1.158-.73 3.937-.887 6.174-.385 5.524-1.137 7.121-3.295 7-3.189-.179-3.964.157-4.979 2.16-.514 1.014-1.372 2.131-1.907 2.481-1.556 1.02-1.904 1.998-1.409 3.965.358 1.421.332 1.806-.157 2.294-.322.323-.586.851-.586 1.173s-.339 1.062-.753 1.643c-.48.674-.842 2.018-.999 3.713-.39 4.2-.815 5.406-2.299 6.538-2.115 1.613-2.013 5.191.204 7.182 1.501 1.347 1.54 1.443 1.54 3.928 0 1.401.235 3.014.523 3.586.288.571.62 1.795.74 2.72.287 2.252.255 2.234 5.113 2.994l2.325.665-.16 1.945c-.186 2.271.591 3.916 2.763 4.946 3.045 1.446 70.704 1.59 73.791.192 2.505-1.135 3.365-2.399 3.365-4.946v-2.219l2.363-.706c3.174-.949 4.68-3.526 5.298-9.06.388-3.472.44-3.603 1.946-4.995 2.297-2.12 2.301-5.09.01-7.185-1.489-1.36-1.54-1.489-1.553-3.898-.008-1.43-.248-2.9-.564-3.453-.302-.529-.555-1.429-.563-2-.009-.73-.423-1.35-1.393-2.09-1.156-.882-1.346-1.227-1.167-2.12.155-.773-.035-1.366-.683-2.14-.493-.59-1.374-2.087-1.958-3.327-.948-2.01-1.282-2.35-3.098-3.154-2.08-.92-2.243-1.15-2.714-3.823-.149-.846-.763-2.75-1.365-4.23-1.254-3.085-1.344-4.256-.485-6.263 1.085-2.532 1.636-6.86 1.444-11.335-.165-3.856-.113-4.298.6-5.056.428-.456 1.051-1.599 1.382-2.539.332-.94.931-2.06 1.332-2.489s1.43-2.153 2.287-3.83c.856-1.678 2.102-3.613 2.77-4.3.94-.97 1.166-1.487 1.011-2.3-.147-.765.108-1.475.941-2.623.888-1.223 1.105-1.873.976-2.92-.115-.936.073-1.687.617-2.465.435-.62.756-1.648.722-2.307l-.185-3.689c-.069-1.375-.41-3.037-.759-3.693-.417-.785-.504-1.323-.254-1.572.408-.408-1.518-4.804-3.04-6.943-.967-1.357-1.069-2.023-.31-2.023.687 0 1.225.703 1.537 2.012.301 1.262 2.203 2.373 3.432 2.006 1.054-.314 5.136-4.23 5.88-5.64.303-.576 1.544-1.726 2.76-2.557 6.06-4.145 7.037-6.937 3.8-10.863-1.85-2.24-2.08-2.726-2.245-4.699-.294-3.545-1.622-4.503-8.066-5.818-.796-.162-1.182-.619-1.723-2.036-2.639-6.92-11.429-8.83-16.27-3.534-2.477 2.71-8.143 3.496-8.604 1.194-.127-.636-.756-1.754-1.398-2.485-1.03-1.174-1.156-1.573-1.073-3.413.068-1.517-.138-2.549-.756-3.798-.468-.943-.948-2.196-1.068-2.785-.325-1.588-2.217-2.58-4.923-2.582-1.435 0-2.576-.232-3.212-.648-.842-.552-1.233-.58-2.666-.197-1.027.274-2.022.32-2.558.118-.487-.183-1.27-.184-1.759-.002-.569.213-1.148.163-1.634-.14-.554-.347-.932-.36-1.427-.052-.384.24-1.003.291-1.442.12-1.782-.696-6.22-.403-6.785.448m12.956 1.945c.144.453.043 1.486-.224 2.295-.627 1.9-.206 2.43 2.437 3.06 4.752 1.131 6.896 2.816 7.762 6.1.29 1.1.8 2.415 1.133 2.923.9 1.374.772 1.775-1.138 3.572-1.962 1.846-2.03 1.837-3.647-.513l-1.169-1.7 1.906-.966c3.472-1.759 2.96-2.234-1.054-.975-5.35 1.677-7.753-.083-4.523-3.313 1.733-1.734 3.041-1.72 5.367.056 1.991 1.52 2.157 1.442.98-.462-2.136-3.457-6.36-3.175-8.975.598l-1.04 1.503.795 1.56c1.073 2.104 1.007 2.596-.415 3.092-2.028.707-4.316-.104-4.036-1.43.66-3.119.685-3.627.241-4.699-1.548-3.738-6.21-4.105-9.43-.743-1.495 1.56-1.059 1.718.991.358 3.575-2.372 8.056.116 5.381 2.988-1.22 1.31-6.797 1.19-6.208-.134.82-1.84 3.225-2.375 4.908-1.09l1.287.981v-.855c0-2.465-2.982-3.002-5.907-1.064-1.51 1.001-1.73 1.291-1.334 1.768.393.474.346.557-.277.49-.413-.046-.899-.063-1.079-.038-.526.071 3.998 2.352 4.665 2.352.531 0 .525.082-.05.673-2.372 2.435-3.264 4.735-2.494 6.426.59 1.295.233 1.574-.99.772-.867-.568-.996-.576-.996-.063 0 .324.212.66.471.746.265.09.56 1.135.673 2.4.2 2.201.23 2.251 1.7 2.758 1.981.683 2.502 1.16 2.264 2.071-.264 1.01-.804.952-1.692-.177-.403-.512-1.238-1.043-1.855-1.178-1.689-.37-2.059-1.049-1.76-3.222.166-1.21.111-1.985-.155-2.149-.66-.408-.483-1.569.354-2.326 1.307-1.183.99-2.7-.96-4.596-1.953-1.897-2.082-2.486-.908-4.136.46-.644.89-1.94.972-2.925.225-2.704 1.91-3.894 7.515-5.308 3.215-.81 3.347-.986 2.251-2.992-1.044-1.912-.863-2.928.522-2.928 1.395 0 1.748.943 1.17 3.133l-.492 1.867h1.311c1.434 0 1.524-.224.93-2.3-.479-1.668-.176-2.7.792-2.7.7 0 .85.552.833 3.077 0 .106-.119.582-.264 1.058-.233.77-.129.865.96.865 1.004 0 1.174-.119.96-.673-.92-2.376-.65-4.712.543-4.712.415 0 .851.36.998.825m4.182-.49c.333.538-1.838 4.473-2.469 4.473-.959 0-.953-2.547.01-3.77.796-1.013 2.047-1.37 2.46-.704m-14.014 2.714c-.01 1.666-.616 2.291-1.333 1.374-1.49-1.908-1.775-2.79-1.11-3.457.821-.82 2.452.57 2.443 2.083m20.09-1.239c.87.785.422 1.573-1.592 2.801-1.866 1.138-1.95 1.487-.435 1.79.624.125 1.43.553 1.79.952 1.491 1.647 2.122.786.746-1.018-.519-.68-.837-1.347-.705-1.479.433-.432 1.65-.25 1.65.247 0 .268.346 1.132.77 1.922.423.79.77 1.672.77 1.962s-.347.966-.77 1.504c-.89 1.131-1.004 1.884-.242 1.591.632-.242 3.318 2.762 3.318 3.711 0 .36-.27 1.3-.6 2.09-.575 1.377-.566 1.46.227 2.015.672.471.781.822.584 1.874-.134.713-.084 1.601.112 1.974.55 1.052.076 3.247-.749 3.462-.576.151-.633.328-.302.946.617 1.153.074 1.32-1.004.307-1.05-.987-1.177-.737-.545 1.078.618 1.771-.044 2.828-1.04 1.664-1.879-2.194-2.327-5.609-.682-5.196l.954.24-.658-1.38c-.653-1.369-.649-1.396.561-3.705 1.705-3.25 1.671-3.53-.857-7.094-.54-.762-.713-1.607-.663-3.262.077-2.577-.08-2.775-3.006-3.76-2.643-.89-3.27-1.796-1.98-2.855.511-.419 1.176-.667 1.477-.55.76.29 1.257-.092.998-.767-.368-.96-2.025-.648-3.16.596-1.204 1.318-1.758 1.167-1.09-.296.926-2.035 4.495-2.83 6.123-1.364m-25.122-.098c1.174.608 2.346 2.147 2.346 3.083 0 .89-.365.73-1.865-.815-1.429-1.47-2.24-1.176-.855.311 1.121 1.203.996 1.801-.15.723-.818-.767-1.2-.856-2.759-.642-2.132.292-2.5.546-1.558 1.074.522.292.587.511.266.898-.597.72.163 1.11 1.143.585.428-.229.778-.756.778-1.172 0-.906.592-1 .92-.147.39 1.015.296 1.218-1.497 3.237-1.503 1.692-1.73 2.176-1.73 3.67 0 .983-.33 2.331-.77 3.153-.967 1.804-.957 2.101.174 4.851.937 2.28.936 3.326-.003 3.326-.284 0-.983.433-1.554.962-1.665 1.543-4.13 1.053-2.694-.535.756-.835.763-1.545.026-2.519-.659-.872-.754-3.13-.147-3.505.635-.393 1.21.396 1.472 2.02.183 1.131.431 1.49 1.096 1.585 1.576.225 1.18-2.294-.678-4.309-1.637-1.776-1.84-2.68-1.1-4.89.721-2.162 2.254-2.365 2.254-.3 0 .88.598.953.92.114.41-1.068.253-2.373-.43-3.562-.627-1.094-.627-1.195 0-1.888.863-.953.837-1.249-.106-1.249-.589 0-.769-.257-.769-1.095 0-1.514 1.206-2.53 2.657-2.239.811.162 1.397.013 2.03-.514 1.082-.902 1.223-.914 2.583-.21m-22.887 11.922c1.465 2.966 1.541 5.38.2 6.392-.744.562-.833.798-.448 1.184.724.727.577 1.483-.289 1.483-.423 0-.769.102-.769.227 0 .126.346.668.77 1.206 1.675 2.131.766 4.1-1.364 2.953-1.897-1.02-2.075-.366-.375 1.376 1.743 1.784 1.966 3.412.65 4.73l-.835.832v-1.616c0-1.453-.107-1.64-1.057-1.843-1.834-.392-2.789-.906-2.789-1.5 0-.436.283-.52 1.154-.346 2.345.47 1.44-2.126-.962-2.754l-1.153-.3 1.255-.387c3.888-1.193 4.27-5.83.674-8.187-1.523-.997-1.533-.418-.019 1.096 2.11 2.11 1.086 5.666-1.632 5.666h-.999l1.033-1.078c1.911-1.995 1.087-3.48-2.359-4.25-2.947-.659-4.048-2.582-2.355-4.114.651-.589.922-.634 1.533-.252 1.537.96 2.081.193.85-1.197-.653-.735-.647-.745.166-.318 1.29.675 2.336.532 3.892-.534 2.44-1.67 3.851-1.257 5.228 1.531m39.69-1.296c-1.655 1.966-.826 2.798.927.932 1.095-1.166 1.496-1.188 3.214-.175 1.731 1.022 2.154.36.604-.944-1.684-1.417-3.455-1.347-4.745.187m33.57.137c1.767.913 2.176 1.62 1.581 2.73-.698 1.304-.316 1.506.956.506l1.067-.839-.277.871c-.24.757-.17.838.531.616.68-.216.807-.098.807.756 0 1.815-.672 2.562-2.24 2.491-2.216-.102-2.275-.07-2.548 1.384-.207 1.103-.36 1.29-.78.94-.403-.333-.613-.273-.91.261-.212.381-1.304 1.047-2.427 1.48-1.82.7-2.087.95-2.468 2.307-.486 1.733-1.44 2.158-2.095.933-.378-.706-.24-1.158.935-3.062 1.392-2.255 2.035-4.94.788-3.292-.74.98-1.47.31-1.502-1.385-.035-1.912-.984-1.868-.984.046 0 2.846-1.14 4.244-3.46 4.244-1.582 0-2.309.37-2.309 1.172 0 1.01-.518 1.192-1.476.521-.92-.645-1.119-1.693-.322-1.693.28 0 .901-.416 1.38-.925.477-.509 1.441-1.032 2.142-1.164 1.622-.304 3.276-1.594 3.276-2.554 0-.869-.592-.99-.9-.185-.118.306-.877.735-1.687.953-.809.218-2.063.833-2.786 1.367-2.397 1.768-2.904-.023-.584-2.06 2.626-2.306 4.961-2.862 7.544-1.798.485.2.681-.036.871-1.044.583-3.11 4.948-5.092 7.877-3.577m-67.683 2.32c.53.53.433.59-.954.59-1.477 0-2.467-.514-2.467-1.28 0-.54 2.745.014 3.421.69m4.417.841c.561.56.93 1.11.821 1.218-.317.317-2.145-.795-2.549-1.55-.577-1.078.53-.866 1.728.332m-2.26 1.628c1.988.917 3.652 2.495 3.652 3.464 0 1.497-.738 1.18-2.127-.913-.884-1.332-1.68-2.122-2.138-2.122-.627 0-.54.248.614 1.76 2.174 2.847 2.154 4.778-.05 4.778-1.168 0-1.156.572.048 2.15 1.145 1.501 1.2 2.131.257 2.984-.817.74-1.219.488-1.219-.76 0-.697-.308-.966-1.46-1.276-2.234-.6-3.63-2.284-3.686-4.443l-.046-1.776.844 1.06c1.015 1.274 5.886 1.942 5.886.807 0-.902-.796-1.314-3.02-1.564-2.567-.289-3.133-.748-3.133-2.537 0-2.445 2.314-3.114 5.577-1.612m20.961.804c0 2.556 1.994 3.408 7.97 3.407 4 0 5.492-.679 5.492-2.496 0-1.296.923-.97 1.083.382.294 2.485-2.949 4.01-5.903 2.774-1.623-.678-1.784-.079-.199.74 1.928.997 4.244.763 5.893-.595 1.31-1.08 1.433-1.115 1.433-.4 0 2.67-4.69 3.36-8.31 1.224-1.63-.962-2.13-.773-1.078.41 2.31 2.592 8.127 2.611 10.345.032.892-1.037 2.12-.989 2.12.084 0 .366-.22.492-.604.345-.385-.148-1.135.286-2.066 1.196-2.562 2.502-7.084 2.414-9.608-.187l-1.455-1.499-1.704 1.633c-1.897 1.818-6.139 3.46-6.92 2.678-.29-.29-.042-.49.855-.688 1.372-.302.708-1.338-.856-1.338-.37 0-.784-.18-.92-.399-.166-.269.575-.314 2.284-.139 2.672.273 5.413-.414 6.403-1.607.741-.893.165-1.049-1.238-.335l-1.286.654.918-.995.917-.994-1.014-.4c-.557-.22-1.437-.566-1.956-.768-.965-.377-2.043-3.078-1.548-3.879.405-.656.952.01.952 1.16m11.85.112c.14 1.176-1.079 2.59-2.235 2.59-1.025 0-.976-.496.097-.967.542-.238.881-.738.907-1.34.064-1.494.117-1.615.631-1.446.265.087.535.61.6 1.163m-51.622 1.82c.667 0 2.464 1.53 2.464 2.096 0 .611-3.415 2.135-4.782 2.135-.543 0-.987.173-.987.385 0 .211.79.384 1.756.384 2.937 0 5.205 2.301 4.387 4.452-.496 1.304-.475 3.99.043 5.476.335.96.297 1.368-.192 2.066-.335.478-.609 1.593-.609 2.477 0 1.432-.124 1.651-1.126 2-.619.216-1.416.837-1.772 1.381-.357.543-.783.904-.948.802-.166-.102-.583.246-.929.773-.839 1.281-2.533 1.336-2.533.082 0-1.318 1.06-2.586 2.163-2.586 3.26 0 4.641-4.969 1.957-7.036-.68-.523-1.524-1.45-1.878-2.06l-.642-1.11 1.513.144c1.776.17 3.426-.73 3.426-1.87 0-.898-.31-.938-1.324-.17-1.002.757-2.29.75-1.999-.013.45-1.173-3.742-.894-6.45.428l-1.958.957 1.25-1.168c.77-.718 1.25-1.54 1.25-2.135 0-1.31 1.284-2.505 2.692-2.505 1.688 0 1.457-.944-.514-2.099-2.566-1.504-4.486-.81-4.486 1.622 0 .645.302 1.25.77 1.542 1.234.771.928 1.854-.866 3.057-.956.641-1.686 1.453-1.759 1.958-.214 1.486-1.87 2.288-2.802 1.357-.975-.975-.548-2.257 1.258-3.777 1.667-1.402 2.63-3.017 2.63-4.409 0-1.704 1.634-3.352 4.093-4.127 1.407-.443 2.381-1.032 2.89-1.747l.767-1.077 1.405 1.157c.773.637 1.602 1.158 1.842 1.158m39.58 1.868c.751.407.75.417-.07.428-2.112.03-4.38-1.938-3.143-2.725.357-.227.823.017 1.482.775.53.608 1.308 1.293 1.731 1.522m55-.692c4.226 1.462 4.68 1.876 5.24 4.791.343 1.79.763 2.646 1.883 3.841 2.085 2.226 2.392 2.966 1.662 4.008l-.6.858-1.26-1.375c-.9-.983-1.584-1.376-2.396-1.376-.845 0-1.25-.25-1.583-.979-.602-1.32-.569-1.42.308-.952.664.355.756.276.767-.659.007-.585.114-1.933.238-2.995.46-3.93-1.452-4.216-4.214-.628-1.94 2.523-1.954 2.948-.122 4.108.925.587 1.234 1.064 1.244 1.923.012 1.037.156 1.164 1.54 1.357 1.774.25 2.784.745 3.801 1.87 1.197 1.322.358 1.385-1.124.083-2.313-2.03-3.258-1.593-1.322.612.648.738 1.063 1.453.924 1.59-.139.136-.777-.358-1.418-1.099-1.04-1.205-1.134-1.245-.883-.384 1.127 3.871.56 4.324-1.69 1.346-.878-1.164-1.462-2.115-1.296-2.113.165.001.713.607 1.216 1.346 1.27 1.866 2.191 1.85 1.408-.025-1.575-3.769-2.92-4.569-7.177-4.267l-3.415.243-.069-1.535c-.038-.844-.08-1.91-.096-2.372-.037-1.134 1.386-1.474 4.168-.994 2.654.457 3.091.157 1.618-1.11-.885-.763-1.458-.934-2.83-.85-2.387.147-4.154-2.647-2.09-3.302.386-.122 1.206-.749 1.823-1.393.648-.676 1.366-1.085 1.702-.968zm-56.316 2.446 1.7.533-1.412.038c-1.425.038-3.78-1.439-3.78-2.37 0-.23.403-.04.896.423s1.661 1.082 2.596 1.376m-16.142 1.3c-.269.502-.256 1.17.043 2.144.328 1.068.324 1.526-.018 1.867-.346.346-.452.302-.452-.189 0-.352-.519-1.23-1.154-1.954-1.357-1.546-1.41-1.79-.393-1.79.418 0 1.066-.467 1.441-1.038.776-1.186 1.237-.357.533.96m62.46-1.072c.384.622-.17 1.86-.945 2.106-1.147.364-2.71 2.154-2.71 3.103 0 1.298.866 1.356 1.628.11 1.057-1.73 1.983-1.455 1.72.51-.28 2.08-1.37 3.502-3.004 3.916-3.434.871-4.046 1.394-2.653 2.264 1.035.646.97 1.064-.165 1.064-1.505 0-2.258-1.048-2.02-2.814.295-2.206.86-2.623 2.834-2.09 1.22.33 1.854.324 2.618-.024 1.212-.553 1.007-1.044-.566-1.358-.756-.152-1.43-.673-1.93-1.492-1.143-1.876-.987-2.419.902-3.14.92-.352 2.075-1.068 2.567-1.59.973-1.037 1.355-1.162 1.724-.565m-10.269 1.631c-.653 1.948-1.412 2.596-3.04 2.596-1.057 0-1.617.228-2.039.831-.57.813-1.77.488-1.77-.48 0-.618 2.391-3.043 3.021-3.065.348-.012 1.24-.25 1.98-.53 2.172-.823 2.323-.77 1.848.648m-16.075.385c.002.264.111 1.126.241 1.915.233 1.406.202 1.45-1.498 2.18-.954.408-1.987 1.103-2.295 1.542s-.674.686-.814.546c-.56-.56-.195-1.645.85-2.525.607-.51 1.516-1.649 2.02-2.53.914-1.602 1.488-2.034 1.496-1.128m39.502.153c.195.585-1.809 2.443-2.636 2.443-1 0-.902-.349.518-1.814 1.201-1.239 1.85-1.432 2.118-.629m-68.954 1.872c.261 1.391.986 1.511.986.164 0-.41.184-.747.408-.747.551 0 .063 3.383-.65 4.52-.779 1.237-1.642 1.07-3.533-.686-2.1-1.95-2.185-3.567-.196-3.76.672-.065 1.427-.366 1.678-.669.631-.76 1.007-.42 1.307 1.178m38.052 1.244c-.125 1.005-.635 2.423-1.135 3.152-1.035 1.512-.922 2.02.221.985 1.194-1.082 1.047.93-.229 3.105-1.074 1.833-1.362 4.108-.615 4.855.36.358.461.175.461-.82 0-1.448 1.395-3.989 2.062-3.757.891.31.464 3.552-.64 4.865-1.042 1.237-1.298 2.473-.708 3.404.234.37.593.141 1.36-.865 1.888-2.475 2.397-1.5.792 1.516-1.565 2.945-.7 5.456.93 2.695 1.017-1.725 1.695-1.783 1.131-.097-1.07 3.207-2.98 4.426-2.998 1.915-.003-.48-.42-1.519-.928-2.307-.507-.789-1.043-2.295-1.19-3.346-.147-1.05-.669-2.703-1.16-3.672-.999-1.97-.959-2.377.804-8.263.507-1.692 1.03-3.553 1.16-4.134.398-1.772.924-1.179.682.77m-52.318-.595c4.174 2.918 5.16 4.265 3.89 5.32-.497.411-.688.36-1.156-.308-.309-.44-1.21-1.01-2.002-1.264-2.488-.799-3.294-2.059-2.554-3.988.3-.782.375-.772 1.822.24m32.271-.205c1.47.296 1.322 1.21-.304 1.888-.749.313-1.258.737-1.13.942.39.63 1.225.418 2.462-.623.822-.69 1.184-.827 1.184-.444 0 1.524-4.15 2.987-5.663 1.996-2.63-1.724-1.545-4.91 1.432-4.2.53.126 1.438.325 2.02.441m5.645 2.71c.02.606-.14.79-.55.632-.373-.144-.576.01-.576.433 0 .36-.35 1.146-.777 1.745s-.628 1.182-.447 1.294c.551.34 1.993-.913 1.993-1.733 0-.423.157-.673.348-.554.644.398-.063 1.825-1.269 2.56-1.297.79-2.54.96-2.54.347 0-.212.207-.385.461-.385.331 0 .344-.117.044-.417-.49-.492-2.094-.326-2.03.21.052.45-1.044.912-2.252.95-.72.021-.844-.12-.647-.743.28-.88.016-.936-1.673-.347-.666.232-1.114.578-.996.77.423.684-1.67.33-2.664-.45-1.069-.842-1.234-1.852-.766-4.685.307-1.858.46-1.828 2.752.55 1.841 1.91 2.02 2 4.312 2.165l2.392.173 2.164-2.354c2.247-2.445 2.648-2.468 2.721-.16m23.114-1.116.865.7-1.04.82c-.574.45-1.853.922-2.843 1.05-2.195.281-2.97.681-2.9 1.495.077.896-.449.761-1.138-.29-1.483-2.264 4.783-5.616 7.056-3.775m-32.804.491c.23.878 1.296 1.285 1.7.65.577-.91.333-1.328-.776-1.328-.863 0-1.063.147-.924.678m-21.005.435c.526.984 1.12 3.374.836 3.374-1.143 0-2.712-3.017-1.96-3.769.6-.6.59-.604 1.124.395m-27.584.01c-.75 1.312-2.958 3.75-3.398 3.75-.275 0-.956.357-1.513.796-1.096.862-1.247.743-.598-.47.575-1.075.133-1.364-.798-.522-.424.384-.77.514-.77.288 0-.566 2.24-2.4 2.931-2.4.31 0 1.377-.434 2.371-.963 2.082-1.108 2.143-1.125 1.775-.48m11.863 1.827c.381 0 .85.412 1.042.917s.86 1.413 1.485 2.02c1.73 1.677 1.88 3.005.496 4.388l-1.136 1.136 1.124 1.124c1.335 1.335 1.391 1.895.328 3.247-1.3 1.652-3.33 1.35-2.076-.31.94-1.242.655-2.11-1.358-4.134-1.839-1.849-2.452-3.4-1.562-3.95.488-.302 3.1 2.028 3.1 2.764 0 .476.108.495.577.105 1.051-.872.64-2.083-1.376-4.053-2.532-2.474-4.06-5.163-2.192-3.853.47.33 1.167.6 1.548.6m7.601.58c.654.788 2.487 1.788 4.227 2.307 1.141.34 1.365.594 1.47 1.666.221 2.302-1.474 3.244-2.182 1.213-.418-1.198-1.677-1.92-3.344-1.92-.67 0-.997-.269-1.17-.963-.348-1.383-.928-1.184-.928.318 0 1.571 1.102 2.696 3.454 3.526 2.933 1.034 4.12 3.075 2.341 4.027-1.154.618-1.623.476-1.492-.452.098-.694-.19-.965-1.584-1.483-2.39-.89-3.488-1.969-3.488-3.432 0-.664-.17-1.527-.379-1.916-.277-.517-.168-1.186.404-2.478.825-1.866 1.393-1.953 2.671-.413m47.952-.514c1.666 1.565 1.162 3.14-2.025 6.326-2.064 2.064-3.288 2.753-2.419 1.362.358-.574.244-1.04-.61-2.5-.847-1.445-.863-2.778-.017-1.409.42.68.896.41.687-.39-.156-.596-.059-.72.42-.536.463.177.631.005.651-.668.042-1.423.68.277.715 1.905.017.832.175 1.181.455 1.008.266-.164.363-1.05.256-2.336-.155-1.873-.104-2.05.534-1.848.842.268.962-.522.128-.842-.317-.122-.577-.376-.577-.565 0-.609.888-.366 1.802.493m28.376 1.567c-.517 1.111-.94 2.226-.943 2.48-.002.252-.48.686-1.062.964-2.437 1.165-.74 3.768 2.456 3.768 1.484 0 1.68.1 1.681.865.001.476.254 1.348.562 1.938.53 1.014.51 1.096-.362 1.493-1.264.576-2.01.2-2.772-1.396-.355-.745-.947-1.449-1.314-1.566-2.168-.688-2.655-1.608-2.655-5.016v-3.24h1.265c.845 0 1.706-.379 2.596-1.14.732-.626 1.367-1.145 1.41-1.153s-.345.893-.862 2.003m-51.332-.912c0 .741 1.016 1.851 1.37 1.498.272-.272-.647-2.22-1.047-2.22-.177 0-.323.325-.323.722m-41.175 1.84c1.86 2.597 1.92 3.067.428 3.394-.622.137-1.824.751-2.67 1.364-2.326 1.685-3.137 1.735-4.268.266-.533-.694-.656-1.004-.279-.705.921.731 1.264.26.705-.968-.254-.557-.373-1.102-.264-1.21.363-.364 1.37.766 1.37 1.54 0 .52.183.692.576.541.318-.122.577-.043.577.175 0 .671 4.022-1.72 4.166-2.477.084-.437-.395-1.195-1.246-1.975-.76-.696-1.38-1.458-1.38-1.694 0-.938.8-.325 2.285 1.75m33.311-.448c.263 1.757.68 2.2 1.08 1.154.335-.872 1.015-.69 1.015.27 0 .657.103.743.462.384.616-.617 1.076-.584 1.076.077 0 .296-.605.896-1.346 1.333-.74.437-1.346 1.04-1.346 1.337 0 1.948-2.062 1.478-2.512-.572-.14-.636-1.027-2.026-1.972-3.09-1.918-2.16-1.96-2.772-.099-1.447 1.22.87 2.275.467 2.275-.866 0-1.23 1.148-.037 1.367 1.42m60.357 1.474c-.736 1.34-1.339 2.551-1.339 2.693 0 .464 1.47.267 1.67-.225.146-.36.294-.337.594.096.22.318.623.585.895.595s.452.226.4.481c-.145.694.325.561 1.32-.372 1.248-1.174 1.54-.619.316.605-1.38 1.38-.869 2.01.797.98 1.656-1.023 1.707-.495.09.924l-1.228 1.077-1.297-1.376c-.85-.9-1.654-1.379-2.33-1.387-2.525-.03-2.66-.85-.634-3.818 2.288-3.348 2.474-3.416.746-.273m-16.556-1.053c.295 1.176-.155 1.821-1.719 2.47-1.088.45-1.302.775-1.176 1.792.087.71-.71 1.007-1.328.495-1.229-1.02-.229-4.13 1.656-5.153 1.56-.846 2.283-.734 2.567.396m9.832.681c0 1.771-1.228 3.194-3.702 4.288-2.124.94-2.598 1.79-1.586 2.84.39.403.335.472-.28.361-1.856-.334-1.65-2.113.492-4.283 1.1-1.113 2-2.22 2-2.46 0-.52 1.91-2.01 2.596-2.028.291-.008.48.496.48 1.282m-61.219 1.31c1.293-1.294.002 5.103-1.648 8.165l-.726 1.346-.54-1.923c-.903-3.218-.97-3.654-.57-3.654.211 0 .671.438 1.022.974s.804.871 1.006.746c.607-.374.401-1.848-.4-2.874-.415-.529-.76-1.48-.768-2.115s-.173-1.405-.368-1.712c-.807-1.277.206-1.206 1.328.091.927 1.073 1.321 1.3 1.664.956m-33.01-.874c-.273.328-.582.51-.688.404s.03-.46.302-.788.581-.509.687-.403c.105.105-.03.46-.302.787m3.45-.177c-.912.577-1.405.398-.594-.215.408-.309.836-.467.951-.352s-.046.37-.357.567m100.396.562c.267.322.31.577.094.577-.212 0-.6-.26-.863-.577-.267-.322-.309-.577-.095-.577.212 0 .601.26.864.577m-38.799 2.212c.345 3.543-.728 5.675-2.857 5.672-.755-.002-.844-.203-.847-1.907 0-1.212.132-1.77.366-1.537.69.69 1.305.403 1.073-.498-.2-.775-.156-.809.43-.329.793.65 1.115.39 1.115-.905 0-.974.631-1.41.72-.496m-20.68.474c.12.314.462.477.76.363.34-.13.627.121.771.673.183.698.33.782.704.406.654-.653 1.09-.593 1.09.15 0 .532.1.55.673.115.573-.434.601-.429.192.03-.264.296-.48 1.178-.48 1.96 0 2-1.007 2.314-2.404.751-.582-.65-1.058-1.435-1.058-1.742s-.346-.742-.769-.969c-.885-.473-1.07-2.308-.234-2.308.295 0 .635.257.755.571m41.178-.337c1.035.397.68 1.227-1.086 2.543-1.046.78-1.778 1.667-1.913 2.32-.275 1.326-.725 1.343-1.414.055-.499-.933-.463-1.066.511-1.905.577-.496 1.05-1.083 1.05-1.305 0-.497 1.407-1.942 1.891-1.942.194 0 .627.106.961.234m-77.468.92c0 .212-.312.385-.694.385-.38 0-1.463.554-2.404 1.232-1.345.968-1.546 1.04-.94.33 1.416-1.663 4.038-2.926 4.038-1.947m49.59 1.214c.805.75.923.768 1.246.192.57-1.017 1.032-.744 1.317.777.324 1.728-.739 2.817-2.75 2.817-1.549 0-2.002-.579-1.172-1.497.784-.865.778-1.53-.022-2.415-.95-1.05.234-.943 1.381.126m-6.513.132c.261-.16.61-.066.782.215.258.416.42.417.92.002.535-.445.576-.36.355.747-.194.967-.096 1.335.431 1.63.89.497.111 1.046-1.497 1.054-1.513.008-2.53-.992-2.53-2.489 0-1.358.38-1.982.796-1.307.15.241.484.308.743.148m-28.424 1.058c3.936 1.85 4.472 6.455.693 5.948-1.854-.249-1.892.105-.154 1.43 2.138 1.631 1.396 4.064-1.24 4.064-1.206 0-1.096.583.355 1.88 1.414 1.263.917 2.856-1.043 3.348-1.156.29-1.196.693-.196 1.964.933 1.186.555 2.122-1.229 3.044l-1.214.628 1.322 1.088c1.277 1.051 1.302 1.123.745 2.134-.85 1.54-1.475 1.571-1.405.072.053-1.144-.12-1.36-1.78-2.232-1.949-1.02-2.643-2.274-1.814-3.273.406-.49.575-.436 1.225.39.91 1.157 1.682 1.222 2.235.188.488-.91.125-1.736-1.31-2.978-.579-.5-.997-1.268-.997-1.827 0-1.136-.078-1.118 1.671-.387 2.846 1.19 3.321-.39.818-2.722-1.184-1.103-1.73-1.889-1.58-2.278.351-.917 1.354-1.12 2.116-.43 2.252 2.036 2.915.256.732-1.968-1.309-1.334-1.548-1.783-1.224-2.297.752-1.192 1.571-1.464 2.66-.882 2.463 1.318 1.788-1-.728-2.5-.653-.389-1.36-3.269-.802-3.269.166 0 1.131.39 2.144.865m15.113.128c.367.956.297 1.18-.763 2.44-1.69 2.008-2.389.517-.83-1.772.972-1.428 1.256-1.547 1.593-.668m55.234.532c0 .205-.29.98-.644 1.721-.517 1.085-.556 1.54-.2 2.321.546 1.2-.05 1.28-.865.116-1.09-1.555-.332-4.529 1.154-4.529.305 0 .555.167.555.371m-77.892 1.16c.628.693.633.782.06 1.002-.96.368-.772.857.91 2.366 2.361 2.12 2.067 4.014-.71 4.57-1.389.277-1.573.75-.435 1.111 1.463.464 2.108 1.95 1.35 3.107-.66 1.007-.938 1.032-3.38.307-1.095-.326-.77.57.691 1.91 1.568 1.436 1.495 2.252-.282 3.171-.96.497-1.097.75-.898 1.656.165.75.041 1.23-.414 1.608-.586.486-.622.451-.367-.352.234-.738.008-1.128-1.31-2.256-1.03-.88-1.554-1.626-1.479-2.102.16-1.009.796-.989 1.323.042.648 1.27 1.097 1.611 1.777 1.35 1.394-.535 1.033-2.225-.993-4.648-2.193-2.623-1.343-4.25 1.1-2.106 2.43 2.133 3.337.975 1.252-1.599-2.332-2.877-2.357-4.332-.046-2.765 2.815 1.911 3.53.13.896-2.235-1.6-1.438-1.937-2.665-1.14-4.155.51-.95 1.224-.945 2.095.017m57.193.202c.241.53.31 1.092.153 1.25-.332.331-1.377-.966-1.377-1.71 0-.846.76-.56 1.224.46m14.11-.063c.332.401.087.79-1.107 1.75-2.76 2.217-1.96 2.731 2.071 1.33 2.684-.934 3.056-.07.721 1.673-1.985 1.483-2.414 2.077-2.305 3.19.118 1.207 1.28 1.495 1.627.403.234-.737 2.721-2.323 3.643-2.323.853 0 .332 1.09-1.164 2.432-1.23 1.105-1.539 1.631-1.443 2.467.171 1.485 2.064 1.761 2.59.378.513-1.348 1.495-2.2 2.537-2.2 1.606 0 1.516.81-.273 2.454-.947.871-1.815 1.844-1.929 2.161-.166.464-.306.483-.716.096-.28-.264-.917-.48-1.416-.48-.7 0-1.075-.383-1.65-1.683-.41-.925-1.352-2.146-2.094-2.712-.907-.692-1.35-1.344-1.35-1.989 0-.528-.432-1.772-.96-2.766-1.198-2.249-1.196-2.435.051-3.683 1.1-1.099 2.486-1.318 3.166-.498m-56.772 3.086.792 1.112-.869 1.59c-.477.874-.817 1.847-.755 2.162.14.701-.375 2.305-.736 2.3-.525-.008-2.702-3.554-2.502-4.076.305-.793 1.158-.65 1.39.234.11.423.395.77.633.77.642 0 .961-1.14.46-1.642-.589-.589-.555-4.239.045-4.845.386-.39.507-.312.615.4.075.485.492 1.384.927 1.995m12.202-1.582c-.008 1.163-.346 1.604-1.802 2.35-2.884 1.477-3.314.138-.596-1.856 2.16-1.585 2.406-1.636 2.398-.494m26.467-.404c.61.608.583.901-.143 1.626-.938.938-1.318.724-1.318-.742 0-1.396.591-1.754 1.461-.884m-34.667 1.628c-.128.331-.41.603-.628.603-.443 0-.544-1.264-.134-1.673.422-.423 1.015.41.762 1.07m14.56-.155c.134.218-.72 1.362-1.9 2.542s-2.147 2.3-2.147 2.488c0 .454-1.047.442-1.33-.016-.389-.63.99-3.455 2.172-4.45 1.171-.986 2.77-1.267 3.204-.564m26.51 2.052c.357.558-.289 1.783-.942 1.783-.596 0-2.368-2.746-2.146-3.325.254-.66 2.344.385 3.087 1.542m-21.446-1.057c.465 1.211-.422 2.543-2.378 3.573-1.61.848-1.954 1.223-2.115 2.301l-.192 1.29-.91-.74-.91-.74.984-1.945c1.96-3.867 4.748-5.755 5.521-3.739m6.338 1.013c.704.9 1.67 1.95 2.147 2.335 1.39 1.123.993 3.722-.569 3.722-.4 0-.419-.175-.085-.799.617-1.153.271-1.685-1.723-2.65-1.744-.845-2.16-1.312-2.899-3.256-.692-1.82 1.561-1.354 3.13.648m5.063-.385a363 363 0 0 0 2.792 2.067c1.106.806 1.111.827.396 1.625-.812.907-1.39.766-1.39-.339 0-.517-.577-.983-1.939-1.569-1.802-.776-2.677-1.633-2.677-2.624 0-.758 1.135-.419 2.818.84m30.455.192a75 75 0 0 0 .366 2.116c.178.89-.28.853-1.133-.089-.58-.64-.609-.86-.18-1.376.42-.506.421-.668.004-.925-.278-.172-.387-.505-.24-.74.5-.812.953-.424 1.183 1.014m-24.128.311c1.346.942.937 3.247-.576 3.247q-.507 0-.283-.894c.143-.567.005-1.076-.377-1.393-1.444-1.199-.335-2.06 1.236-.96m-35.133.897c.19.306-2.106 2.35-2.64 2.35-.496 0-.163-.97.618-1.802.868-.924 1.657-1.138 2.022-.548m-3.628.686c0 .467-.839 1.664-1.167 1.664-.402 0-.517-1.649-.14-2.025.24-.24 1.307.054 1.307.361m50 .741c0 .628-1.523 2.846-1.954 2.846-.717 0-.583-1.203.274-2.464.927-1.364 1.68-1.536 1.68-.382m-41.373.69c.332.55.233.804-.515 1.322-.509.353-1.493 1.204-2.185 1.892-1.505 1.494-2.2.65-1.146-1.389 1.2-2.322 3.023-3.187 3.846-1.826m16.74.456c.838.757 1.631 1.715 1.763 2.13s.918 1.182 1.747 1.706c1.772 1.118 1.832 1.422.536 2.72q-1.8 1.8-2.03-.515c-.099-.997-.457-1.36-2.328-2.357-3.25-1.732-3.89-2.539-2.812-3.543.46-.428.834-.944.834-1.147 0-.704.774-.364 2.29 1.006m17.625-.392c1.072.751 1.12 2.31.085 2.862-.726.39-.94.247-.798-.529.033-.185-.227-.654-.578-1.043-1.215-1.342-.212-2.343 1.291-1.29m-7.51 2.826c2.077 1.977 2.106 2.064 1.057 3.113-1.12 1.12-2.07 1.021-1.768-.183.202-.803-.003-1.113-1.304-1.974-1.168-.774-1.544-1.274-1.544-2.06 0-2.02.406-1.895 3.558 1.104m-14.865-1.592c1.312.876.697 2.594-1.216 3.394-1.605.67-2.628 2.142-2.382 3.427.23 1.2-.546 1.28-1.657.168-1.089-1.089-.807-2.28.793-3.346.741-.492 1.52-1.295 1.731-1.784.813-1.878 1.75-2.515 2.731-1.859m19.697 1.95c.066.66-.059 1.507-.277 1.882-.308.528-.399.552-.405.104-.005-.317-.572-1.054-1.262-1.638-1.19-1.007-1.218-1.087-.543-1.608 1.087-.837 2.341-.202 2.487 1.26m-27.844-1.242c.845.324.763.817-.353 2.144-.529.63-.967 1.606-.974 2.171l-.012 1.028-.963-1.095c-1.12-1.275-.99-2.295.463-3.616 1.068-.97 1.008-.95 1.84-.632m39.07.563c0 .227-.452 1.181-1.002 2.12-.569.972-.897 1.98-.76 2.335.2.523.144.546-.346.14-.778-.646-.743-2.507.074-3.89.634-1.073 2.033-1.558 2.033-.705m-55.769 1.467c0 1.35-1.153 5.044-1.575 5.044-.608 0-.732-.735-.288-1.71.392-.86.334-1.164-.419-2.182-.939-1.27-.773-1.712.743-1.984l1.25-.225c.16-.029.29.447.29 1.057m6.537-.514c0 .88-1.107 2.866-1.596 2.866-.51 0-.146-2.176.492-2.944.574-.693 1.104-.655 1.104.078m45.242.654a8.3 8.3 0 0 0-.237 1.731c-.003.476-.175.865-.382.865-.606 0-.88-1.778-.41-2.656.58-1.084 1.325-1.04 1.03.06m17.065.62c0 .645-.479 1.704-1.154 2.553-1.974 2.484-1.364 3.621.806 1.503 1.371-1.339 2.271-1.479 2.271-.354 0 .29-.476.896-1.058 1.347s-1.252 1.273-1.489 1.826l-.43 1.005-.482-.933c-.265-.512-.922-1.405-1.46-1.983-1.132-1.213-.943-1.98 1.13-4.598 1.387-1.752 1.866-1.846 1.866-.366m-31.637 1.115c.447.795 1.344 1.838 1.994 2.32 1.235.912 1.502 1.913.72 2.695-.767.767-1.404.523-1.532-.587a1.95 1.95 0 0 0-1.039-1.504c-1.242-.615-1.57-1.226-1.577-2.928-.008-1.828.405-1.826 1.434.004m11.175-.6c.665.664.568 1.83-.175 2.115-.906.347-2.234-1.322-1.63-2.049.54-.65 1.197-.674 1.805-.066m9.923 1.586c-.138.735-.61 1.794-1.05 2.353-.538.683-.746 1.391-.634 2.155.091.625.058 1.137-.075 1.137-.63 0-1.164-1.057-1.164-2.308 0-.762-.207-1.592-.46-1.846-.36-.359-.277-.462.375-.462.595 0 1.074-.46 1.647-1.584.957-1.876 1.756-1.55 1.361.555m-55.23-.125c0 .635-.174 1.154-.385 1.154s-.385-.519-.385-1.154.173-1.153.385-1.153c.211 0 .385.52.385 1.153m25.938-.347c.752.444 1.95 1.352 2.66 2.02.711.666 1.707 1.498 2.212 1.846l.92.635-.932 1c-1.285 1.378-2.114 1.328-1.826-.11.244-1.22-.627-2.35-1.81-2.35-1.893 0-3.902-2.204-3.138-3.44.331-.535.33-.536 1.914.4m-16.808.623c.077.231-.388 1.022-1.034 1.757-.645.736-1.173 1.617-1.173 1.96 0 .772-.526.802-1.139.063-.64-.773-.158-2.047 1.273-3.354 1.196-1.092 1.81-1.218 2.073-.426m32.93 1.34c.84 1.332-.027 1.974-1.386 1.025-1.703-1.189-1.924-1.598-1.172-2.16.703-.525 1.824-.028 2.557 1.134m-18.97-.173c.016 1.404.613 2.118 2.63 3.147.921.47 1.765 1.196 1.874 1.612s.868 1.098 1.687 1.516c1.673.854 1.908 1.784.72 2.86-.75.678-.77.671-.77-.266 0-1.187-1.12-2.24-3.198-3.008-1.25-.462-1.825-1.008-2.733-2.598-1.14-1.999-1.76-2.515-1.76-1.466 0 .301-.507 1.053-1.125 1.671s-1.4 1.79-1.74 2.602c-.567 1.355-.67 1.426-1.234.862-.914-.914-.364-3.207 1.086-4.53.856-.783 1.101-1.277.918-1.853-.236-.743.721-1.19 3.344-1.566.16-.022.294.435.301 1.017m-8.346 1.058c.334 1.001.236 1.218-1.033 2.284-.988.83-1.403 1.49-1.403 2.235 0 1.325-.489 1.35-1.329.067-.836-1.275-.324-2.929 1.434-4.64 1.47-1.43 1.84-1.42 2.331.054m34.584-1.122c.123.123-.125.816-.55 1.538-.775 1.311-.454 1.831.453.737.792-.953 1.392-.66 1.863.91.692 2.313.55 3-.937 4.485-1.106 1.106-1.333 1.576-1.138 2.353.151.605.098.881-.142.733-1.036-.64-.889-2.882.344-5.25.857-1.648 1.106-2.48.824-2.763s-.455-.24-.572.141c-.525 1.703-.668 1.942-1.08 1.804-1.387-.462-2.02-4.444-.738-4.643.55-.085 1.1-.18 1.224-.212s.325.043.45.167m9.456.703c.227 1.173-.298 2.482-1.482 3.693-.632.646-1.156 1.472-1.164 1.835-.01.455-.194.33-.592-.404-.548-1.01-.507-1.19.827-3.575 1.362-2.435 2.142-2.936 2.411-1.549m-55.039.258c.121.72-2.06 3.32-2.454 2.926-.41-.41 1.406-3.789 1.941-3.61.232.076.463.384.513.684m-9.803 1.156c.891 1.565.85 2.537-.129 3.061-.987.528-1.352.268-.554-.395.773-.64.74-1.037-.183-2.21-.884-1.124-.975-1.645-.288-1.64.264 0 .784.533 1.154 1.184m39.594-.154c.593.568 1.08 1.258 1.08 1.533s.691.937 1.537 1.472c.847.534 1.54 1.064 1.54 1.177 0 .32-1.155 2.476-1.326 2.476-.083 0-.396.094-.695.21-.41.157-.505-.06-.382-.893.13-.89-.109-1.338-1.253-2.342-.893-.785-1.33-1.456-1.19-1.825.123-.32-.039-1.09-.36-1.712-.727-1.407-.354-1.44 1.05-.096m12.03.486c.678 1.311.76 3.413.165 4.25-.315.443-.356.33-.177-.492.166-.758-.048-1.549-.738-2.726-1.127-1.924-1.173-2.167-.404-2.167.312 0 .831.51 1.154 1.135m-49.029-.366c0 .212-.26.385-.577.385s-.577-.173-.577-.385.26-.385.577-.385.577.173.577.385m3.018.557c.084.438-.054.623-.385.513-.285-.095-.577-.48-.65-.858-.085-.438.053-.623.384-.513.285.095.577.481.651.858m40.444 1.53c0 .3.42 1.046.933 1.656.633.752.826 1.285.598 1.653-.185.3-.388.46-.453.358-.064-.102-.685-.804-1.38-1.559-.829-.9-1.178-1.594-1.016-2.015.3-.782 1.318-.855 1.318-.094m-60.226 2.224c1.493 1.871 1.515 2.308.152 3.037-.739.395-.78.35-.539-.613.198-.788.024-1.352-.717-2.323-.538-.706-.978-1.589-.978-1.962 0-.75-.009-.759 2.082 1.861m81.764-1.04c0 .503-.17 1.021-.378 1.15-.209.128-.62 1.047-.916 2.041l-.537 1.808-.509-1.095c-.462-.993-.408-1.29.575-3.169 1.104-2.109 1.765-2.385 1.765-.736m-69.61.126c-.256.086-.75-.136-1.1-.493-.596-.608-.566-.617.465-.155.606.271.892.563.635.648m16.733.08c.135.218-.114 1.006-.554 1.752-.992 1.681-.996 1.94-.03 2.192 1.076.282 1.061 2.582-.024 3.564-.66.598-.848.627-1.127.176-.343-.555.067-1.689.768-2.122.614-.379.443-.889-.387-1.152-.587-.187-.769-.582-.769-1.67 0-2.06 1.416-3.886 2.123-2.74m-4.046.342c0 .496-1.915 2.721-2.342 2.721-.639 0-.362-1.526.42-2.307.794-.795 1.922-1.038 1.922-.414m-7.886.795c.31.976-.068 1.592-.893 1.456-.412-.068-.687.196-.763.731-.175 1.225-1.227 2.027-1.227.935 0-.5-.45-1.096-1.153-1.523-1.37-.833-1.103-1.308.56-.996.907.17 1.367.032 1.914-.573.902-.996 1.254-1.002 1.562-.03m47.511.221c.501 1.318.472 1.802-.096 1.613-.553-.185-1.133-2.6-.625-2.6.19 0 .515.444.721.987m-44.63.071a2.8 2.8 0 0 1-.365 1.24c-.453.715-.998-.415-.645-1.336.305-.795 1.016-.727 1.01.096m33.967.962c.527.9 1.322 1.964 1.767 2.367.833.754 1.11 2.152.425 2.152-.212 0-.385-.315-.385-.699 0-.41-.615-1.044-1.495-1.538-1.44-.81-2.097-2.178-1.666-3.47.222-.668.313-.588 1.354 1.188m-49.464-.578c.134.371.92 1.417 1.744 2.326 1.737 1.915 1.743 2.75.027 3.505-.935.411-1.257.82-1.345 1.701-.064.637-.319 1.226-.567 1.307-.295.097-.373-.149-.226-.71.175-.67-.106-1.137-1.27-2.115-1.559-1.308-1.644-2.225-.108-1.149 2.452 1.718 4.761.045 2.532-1.835-.885-.747-1.519-1.676-1.673-2.453-.266-1.346.441-1.806.886-.577m30.744.348c.312 1.247-.142 2.03-1.714 2.951-2.298 1.346-2.344.098-.1-2.722 1.207-1.516 1.482-1.55 1.814-.229m13.22 2.408c0 1.813-3.145.501-4.062-1.694-.8-1.913-.778-1.916 1.754-.196 1.27.862 2.307 1.712 2.307 1.89m36.924-2.445c0 .304-.63 1.25-1.399 2.1-1.356 1.502-1.377 1.571-.709 2.31.61.674.617.76.065.76-1.775 0-1.639-2.408.263-4.674 1.176-1.4 1.78-1.568 1.78-.496m-42.694-.023c.497.598-3.837 5.457-4.38 4.913-.639-.637-.129-2.016 1.086-2.943.726-.554 1.43-1.353 1.564-1.777.29-.91 1.063-.997 1.73-.193m31.674.651c.29.46.086.963-.838 2.084-1.3 1.578-1.5 2.408-.758 3.151.301.3.317.461.047.461-1.646 0-2.05-3.229-.636-5.08 1.142-1.498 1.555-1.614 2.185-.616m-56.673 3.793c0 1.157-.668 1.21-.939.073-.138-.58-.339-1.4-.446-1.824-.174-.689-.112-.675.596.14.434.498.79 1.224.79 1.611m42.991-1.729c.77.54 1.198 1.71.625 1.71-.446 0-2.463-1.597-2.463-1.95 0-.545.882-.429 1.838.24m-35.182.308c.246.641-.519 2.244-1.175 2.46-.8.264-.966-.933-.274-1.989.727-1.109 1.152-1.247 1.45-.47m42.72 1.39c-.142.322-.535 1.394-.875 2.38-.713 2.071-2.578 3.864-2.967 2.852-.142-.37.244-1.147.998-2.005.905-1.03 1.18-1.659 1.041-2.382-.287-1.5.855-3.08 1.544-2.137.283.387.4.968.258 1.291m-4.21-.923c.645.646.828 2.088.264 2.088-.187 0-.427-.303-.534-.673-.106-.37-.318-.976-.47-1.346-.344-.836-.054-.862.74-.069m-51.15 1.787c.892 1.274.732 2.337-.535 3.551-.623.598-1.186 1.45-1.25 1.895-.063.445-.435.87-.826.944-.57.11-.658-.027-.449-.688.16-.502.024-1.186-.347-1.753-.909-1.387-.739-1.764.48-1.064 2.356 1.352 3.191-.589 1.22-2.835-.636-.723-1.155-1.486-1.155-1.695 0-.58 2.18.673 2.861 1.645m63.33.333c-.506.684-.806 1.67-.806 2.645 0 1.703-.228 1.903-1.004.881-.928-1.223-.625-2.687.907-4.384 1.647-1.824 2.375-1.133.903.858m-54.582-.607c.241.53.31 1.092.151 1.25-.366.364-1.829-1.407-1.543-1.869.381-.616.944-.366 1.392.62m13.955-.099c-.14.476-.543 1.085-.89 1.353-1.676 1.29-1.982 1.691-1.982 2.608 0 .561-.166.885-.384.75-.695-.429-.403-1.964.544-2.854.511-.48 1.033-1.289 1.161-1.798.151-.6.51-.925 1.02-.925.637 0 .74.166.531.866m10.512.276c1.792 1.298 2.473 2.326 2.023 3.053-.462.748-1.945-.169-1.945-1.203 0-.454-.36-1.21-.803-1.68l-.803-.856-1.656 1.118c-1.816 1.226-2.123 1.738-2.123 3.545v1.21l-1.033-1.033-1.033-1.034 1.033-.812c.568-.447 1.033-1.155 1.033-1.573 0-.489.445-.953 1.25-1.303 1.794-.78 2.293-.71 4.057.568m7.404-.349c2.393 4.98 2.563 7.246.366 4.888-.84-.902-.993-1.383-1.288-4.067-.18-1.633.32-2.077.922-.82m-2.71.136c0 .09.104.435.233.77.34.884-.517.747-1.003-.16-.329-.615-.293-.77.18-.77.323 0 .59.072.59.16m8.768 1.455c.508.507.603 1.8.21 2.828-.193.498-.413.247-.9-1.026-.808-2.115-.48-2.973.69-1.802m10.847-.058c0 .222-.275.935-.61 1.584-.336.648-.523 1.515-.415 1.926.121.464.024.69-.256.596-.74-.247-.759-1.434-.044-3.018.635-1.409 1.325-1.975 1.325-1.088m10 .352c0 .204-.538.984-1.196 1.733-.913 1.04-1.138 1.587-.954 2.321.263 1.046-.315 1.338-.694.351-.459-1.195-.213-1.879 1.191-3.317 1.537-1.574 1.653-1.65 1.653-1.088m-63.485.563c.802.966-1.295 4.03-2.164 3.161-.127-.126-.013-.492.252-.81.266-.32.38-.992.254-1.492-.354-1.41.733-1.974 1.658-.859m8.573 1.597c-.227 1.184-.788 1.56-1.103.738-.325-.846.574-2.828.983-2.166.165.267.22.91.12 1.428m3.594-.278c-.333.644-.606 1.535-.606 1.981s-.173.705-.384.574c-.673-.416-.414-2.227.45-3.147 1.076-1.145 1.307-.892.54.592m34.01-.305c0 .658-.763 1.898-1.168 1.898-.417 0-.51-1.655-.114-2.05.404-.405 1.282-.3 1.282.152m-26.539.627c0 .36-.452 1.124-1.005 1.701-.585.611-1.049 1.584-1.11 2.33-.06.703-.127 1.35-.15 1.434-.098.363-1.58-1.282-1.58-1.752 0-.285.621-1.383 1.381-2.44 1.388-1.933 2.464-2.488 2.464-1.273m-16.6 1.09c.07.608.46 1.527.864 2.041.592.753.736 1.567.736 4.156 0 3.265.81 9.603 1.54 12.061.657 2.215.08 6.465-1.13 8.326-.572.877-1.256 2.564-1.52 3.75-.504 2.247-1.197 2.901-1.197 1.13 0-.565-.122-.905-.27-.757-.492.492-1.642 4.647-1.648 5.953-.003.708-.326 1.747-.719 2.308-.392.562-.82 1.468-.952 2.015-.132.546-.958 1.808-1.835 2.805-1.694 1.925-1.743 2.572-.137 1.84 1.427-.65 1.65-.528.614.335-.499.416-1.24.757-1.645.757-.406 0-1.77.521-3.035 1.16l-2.296 1.158v-.944c0-1.25-.689-1.626-1.36-.74-.513.677-.54.67-.55-.166-.008-.482.203-.942.467-1.02 1.952-.582 1.896-.506 1.265-1.727-.763-1.475-.298-1.789 2.402-1.62 2.191.135 2.88-.206 3.717-1.843.65-1.27 1.152-4.258.715-4.258-.184 0-.588.735-.899 1.634-.475 1.375-1.584 2.232-1.21.935.068-.237.225-1.28.348-2.32.308-2.603-.725-2.283-1.163.358-.305 1.845-1.135 3.255-1.53 2.603-.11-.179.127-1.364.525-2.633.397-1.27.725-2.697.728-3.173.01-1.462-.697-.96-1.084.77-.589 2.628-.499.391.127-3.166.315-1.793 1.117-4.892 1.781-6.886 1.32-3.957 1.292-3.096.478-15.516-.244-3.713-.239-3.742.696-4.098 1.277-.485 5.235-4.398 5.708-5.643.482-1.268 1.298-1.037 1.468.415m2.755-.373c0 .558-.166.881-.384.747-.212-.13-.385-.574-.385-.985 0-.41.173-.746.385-.746.211 0 .384.443.384.984m28.013 1.1c.153.774-.592 1.762-1.329 1.762-.374 0-.53-.524-.53-1.778 0-1.839 1.494-1.827 1.86.015m-7.504-.64c-.129.37-.797 1.278-1.485 2.018-.687.741-1.366 1.736-1.509 2.212-.31 1.034-1.2 1.143-1.452.178-.308-1.176.41-2.4 1.726-2.952.696-.29 1.591-.888 1.99-1.329.883-.977 1.036-1.004.73-.128m2.99.507c1.117.796 1.507 1.897.671 1.897-.259 0-.169.304.218.731.5.553.546.802.19 1.023-.587.362-2.27-1.502-2.27-2.513 0-.394-.106-.99-.235-1.325-.314-.818.086-.766 1.425.187m21.257 1.141c-.512.512-1.485-.548-1.09-1.187.193-.31.45-.26.882.172.427.427.49.733.208 1.015m4.31.317c-.856.847-.982.888-.757.247.408-1.165 1.45-2.263 1.631-1.719.084.25-.31.913-.874 1.472m-64.234-.177c.402 1.598.052 2.721-.889 2.854-.986.14-1.135-.382-.305-1.07.37-.308.484-.846.336-1.586-.273-1.368.52-1.55.858-.198m5.553.243c0 .745-.963 1.462-1.39 1.035-.25-.25.696-1.816 1.098-1.816.16 0 .292.352.292.781m55.241 4.133c3.362 3.208 3.432 3.486 3.215 12.778-.42 17.991.555 23.462 4.184 23.462.9 0 1.247.447 1.794 2.308.26.886.883 1.663 1.827 2.276 1.566 1.017 1.8 1.73.753 2.29-1.164.623-3.115-.44-2.897-1.579.212-1.108-.809-3.757-1.448-3.757-.3 0-.367.43-.203 1.3.271 1.446-.28 3.316-.977 3.316-1.418 0-6.157-7.303-6.614-10.193-.566-3.574-.996-4.938-2.129-6.762-1.869-3.006-3.27-7.45-2.952-9.352.146-.868.323-2.53.393-3.693s.337-4.193.594-6.73c.511-5.058.523-5.717.152-8.27l-.25-1.73.908.86c.5.474 2.142 2.038 3.65 3.476m-9.934-3.432c2.22 1.41 1.54 11.282-1.236 17.923-1.093 2.614-1.113 4.425-.087 7.71 1.913 6.124 2.11 7.527 1.471 10.49-.348 1.61-.326 1.663 1.166 2.845 1.376 1.09 1.497 1.327 1.277 2.5-.298 1.588.03 2.268.79 1.637.737-.61 1.696.193 1.696 1.422 0 1.225-2.118 1.348-2.5.145-.134-.423-.405-.769-.602-.769-.198 0-.359-.342-.359-.759 0-1.533-1.682-4.29-2.936-4.815-1.125-.47-1.23-.679-1.49-2.947-.155-1.342-.598-3.066-.985-3.83-.496-.979-.785-2.719-.973-5.866-.147-2.462-.395-4.476-.55-4.476-.435 0-2.75 12.432-2.476 13.287.24.744.235.744-.366.005-.815-1-.81-1.069.764-9.138 1.336-6.849 1.37-7.243 1.25-14.65l-.123-7.614.962-.232c.53-.127 1.693-.899 2.587-1.714 1.721-1.568 1.928-1.656 2.72-1.154m11.225.345c-.017.875-.764 1.441-1.142.865-.567-.864-.472-1.153.38-1.153.422 0 .766.13.762.288m7.314.302c0 .113-.275.625-.61 1.138-.419.64-.529 1.312-.348 2.136.252 1.146.225 1.182-.579.752-.706-.378-.804-.667-.598-1.765l.247-1.313h-1.533c-.844 0-1.652-.192-1.797-.426-.17-.276-.01-.35.458-.209.397.12 1.327.07 2.068-.112 1.636-.399 2.692-.478 2.692-.2m-52.533 6.48c-.149 2.888-.33 5.194-.4 5.123-.973-.973-1.444-8.016-.648-9.685 1.062-2.226 1.338-1.023 1.048 4.561m5.35-5.558c3.545 1.348 4.703 3.997 3.85 8.802-.758 4.27-.475 8.371.834 12.08 1.495 4.234 1.541 4.421.936 3.856-.559-.523-1.286-.662-.994-.19.5.808 1.404 6.521 1.188 7.503-.297 1.354-.65 1.032-1.274-1.16-.623-2.192-1.37-2.165-1.04.037.185 1.232.104 1.794-.308 2.136-.62.515-.739.28-1.185-2.365-.368-2.179-.978-1.728-.978.722 0 1.7-.247 2.598-1.149 4.174-.632 1.105-1.46 3.376-1.842 5.047l-.693 3.038h-3.816l-.118-1.417c-.17-2.054 1.054-2.682 2.47-1.267.55.55 1.035.946 1.078.88.897-1.349.816-2.943-.159-3.138-1.596-.319-1.188-2.082.52-2.248 1.032-.1 1.283-.343 1.71-1.65.717-2.198 1.06-4.99.573-4.69-.216.132-.488.952-.605 1.82-.223 1.662-1.179 3.056-2.095 3.056-.316 0-.487-.283-.407-.673a.68.68 0 0 1 .81-.557c1.516.261.291-24.378-1.49-29.99-.88-2.774 1.413-4.859 4.184-3.806m14.491.585c0 .772-.827 2.518-1.193 2.518-.636 0-.785-.863-.336-1.946.484-1.168 1.53-1.559 1.53-.572m4.993-.27c-.01.526-.718 1.423-.944 1.197-.303-.303.18-1.486.606-1.486.19 0 .341.13.338.288m-10.637 2.331c.634.701.648.931.162 2.632-.38 1.334-.438 2.466-.204 3.98.426 2.751-.262 8.47-1.293 10.753-1.039 2.301-1.267 1.69-1.712-4.599-.91-12.84-.099-16.24 3.047-12.766m23.562-.067c.606 3.23-.543 14.082-1.824 17.228-1.444 3.546-1.808 3.145-1.273-1.404.256-2.174.47-4.213.473-4.53.005-.317.287-1.843.626-3.39.34-1.548.617-3.733.617-4.856 0-3.99.852-5.87 1.381-3.048m-52 .533c.914 2.283.713 13.298-.214 11.72-.61-1.04-1.557-9.088-1.305-11.099.32-2.567.682-2.715 1.52-.62m36.387.183c0 .318-.28.577-.624.577-.51 0-.537-.104-.145-.577.263-.317.544-.577.624-.577s.145.26.145.577m3.847 1.492c0 .926.267 2.323.593 3.105.327.782.506 1.711.397 2.066s-.39 2.275-.63 4.267c-.479 4.008-.913 5.6-1.267 4.647-1.559-4.19-2.599-13.889-1.607-14.985 1.33-1.469 2.514-1.046 2.514.9m24.462 1.62c.815 1.95.692 9.172-.232 13.62-1.092 5.255-.76 7.83 1.77 13.762.788 1.85.67 1.941-.578.453-1.428-1.703-1.739-1.393-.77.77l.76 1.696-.816-.737c-2.284-2.067-3.029-7.125-2.162-14.674.974-8.483 1.184-12.787.705-14.504-.704-2.529.305-2.823 1.323-.386m-28.694.794c.167.18.39 3.267.494 6.863.166 5.684.325 6.966 1.218 9.808 1.254 3.992 1.12 7.744-.395 11.104-1.14 2.53-1.152 3.065-.11 5.062 1.474 2.831.761 3.504-3.573 3.368-3.172-.1-3.538-.187-3.67-.88-1.46-7.657-1.666-16.01-.478-19.39.66-1.879.716-2.77.498-7.935-.136-3.199-.13-6.432.01-7.184l.256-1.368 2.723.113c1.498.063 2.86.26 3.027.44m-20.938 16.19c-.012 2.062.218 4.731.512 5.931.728 2.97-.642 5.703-2.859 5.703-1.5 0-1.547-.076-.777-1.264.772-1.188 2.224-7.984 2.421-11.332.24-4.076.73-3.406.703.961m37.34 3.12c.628 2.827.824 8.98.292 9.163-1.498.52-2.247-1.245-2.259-5.316-.017-6.147 1.01-8.157 1.967-3.847m-9.277 2.842c.728 5.63.458 13.42-.487 14.038-1.707 1.12-2.63-.453-1.598-2.72.315-.69.307-1.153-.03-1.783-.565-1.055-.127-1.607.545-.688.78 1.064 1.071.79.82-.77-.127-.793-.31-2.914-.406-4.712-.29-5.452.564-7.942 1.156-3.365m-32.66.385c-.378 1.79-.439 1.88-.545.787-.1-1.04.432-2.807.847-2.807.068 0-.068.91-.302 2.02m17.172 4.807c.096 1.111.05 2.02-.102 2.02-.38 0-.774-3.127-.72-5.727l.045-2.158.302 1.923c.166 1.058.38 2.832.475 3.942m28.346-1.654c.028 1.815-.636.623-.846-1.519-.182-1.858-.17-1.884.32-.769.28.635.517 1.664.526 2.288m-31.91 3.385c.002.793.19 1.442.413 1.442.225 0 .358.303.295.673-.129.766.176.947 1.04.615 1.093-.419 1.025.172-.08.7-.733.35-1.126.861-1.208 1.573-.067.58-.283 1.055-.48 1.055-.198 0-.32-.13-.274-.289.143-.474-.934-3.945-1.292-4.167-.294-.18-2.216 1.661-2.24 2.148-.006.106.508.487 1.141.847 1.797 1.023 1.195 2.385-1.249 2.825-1.79.322-2.196-.395-1.296-2.29.341-.719.62-1.748.62-2.287 0-1.92.785-2.999 1.991-2.734.953.21 1.085.127 1.085-.677 0-.503.207-1.12.46-1.374.645-.645 1.065.115 1.073 1.94m-14.225-.696c0 .305-.173.661-.385.792-.21.131-.384-.119-.384-.554s.173-.792.384-.792.385.25.385.554m30.013.19c-.219.41-.398 1.275-.398 1.923 0 .65-.173 1.18-.384 1.18s-.385-.356-.385-.789c0-.8 1.011-3.058 1.37-3.058.107 0 .016.335-.203.744m16.141-.359c-.758.49-1.649.49-1.346 0 .13-.212.617-.382 1.08-.379.685.005.735.076.266.38m-42.562 2.761c-.647 1.204-.693 1.225-.824.38-.076-.496.173-1.242.557-1.665.946-1.046 1.106-.277.267 1.285m-21.533-.359c-.126.688-.64 1.974-1.144 2.857-.538.945-.915 2.233-.915 3.126 0 1.716-.875 2.816-1.635 2.056-1.047-1.048-.58-4.445.641-4.664.917-.165 1.231-.518 1.73-1.94.987-2.815 1.723-3.612 1.323-1.435m18.953-.017c-.129.485-.928 1.455-1.777 2.155l-1.543 1.271v-1.56c0-1.686.07-1.756 1.157-1.174.595.318.84.185 1.397-.757.761-1.289 1.117-1.259.766.065m-14.858-.06c0 .176-.19.438-.42.581-.233.143-.344.666-.249 1.162.114.598-.12 1.176-.694 1.715l-.866.814-.447-1.357c-.49-1.488-.139-2.612 1.023-3.262.69-.385 1.653-.183 1.653.347m50.384.751c0 .398-.176.832-.39.965-.635.392-.087.861 1.004.861q1.675 0 1.688 1.876c.016 2.137-3.068 2.316-3.497.204-.143-.707-.43-1.455-.638-1.663-.246-.246-.122-.904.36-1.9.737-1.528 1.473-1.699 1.473-.343m7.693-.366c0 1.161 1.085 3.058 1.75 3.058.52 0 1.327 1.42 1.327 2.333 0 .197-.49.36-1.09.36-1.019 0-1.159-.2-2.116-3.028-1.2-3.543-1.196-3.51-.448-3.51.325 0 .577.343.577.787m17.166.541c.57.398.867 1.147 1.033 2.596.13 1.12.347 2.426.485 2.902.154.53.086.865-.178.865-.236 0-.429-.602-.429-1.337 0-1-.242-1.496-.955-1.963-.865-.567-2.507-2.78-2.507-3.38 0-.46 1.753-.242 2.551.317m-59.29 3.024c-.264 1.753-1.06 2.415-2.322 1.931-1.56-.599-.888-2.558 1.176-3.426 1.448-.609 1.458-.596 1.145 1.495m15.573-.532c.585 1.094.497 2.717-.148 2.717-.3 0-.798.097-1.108.216-.782.3-1.557-1.94-1.018-2.946.506-.946 1.764-.939 2.274.013m31.838 2.56c-.494.493-1.055-.324-1.03-1.5l.024-1.227.62 1.246c.341.685.515 1.351.386 1.481m-65.788-.363c.126.33-.144.947-.62 1.418-.979.964-1.955.207-1.955-1.516 0-1.444 2.013-1.367 2.575.098m80.86-.002c.624.793.701 1.134.352 1.554-.534.645-.85.348-1.407-1.32-.504-1.512-.032-1.617 1.055-.234m-63.05 1.59c0 .394-1.19 2.124-1.709 2.484-1.308.908-1.934-.632-.695-1.71 1.016-.887 2.403-1.332 2.403-.774m3.76.374c-.326.371-.71 1.063-.855 1.54-.182.595-.563.864-1.226.864-.819 0-.922-.128-.698-.865.41-1.345 1.354-2.212 2.408-2.212.884 0 .914.054.37.673m3.164-.335c0 .186-.259.553-.576.816-.318.264-.577.717-.577 1.01 0 .584-.987.726-1.319.19-.29-.47 1.25-2.354 1.923-2.354.302 0 .55.152.55.338m2.631.816c-1.287 1.741-2.11 1.461-.879-.299.33-.47.854-.855 1.165-.855.436 0 .37.268-.286 1.154m2.66-.116c-.57.57-1.157.917-1.303.771-.373-.373 1.004-1.809 1.735-1.809.443 0 .328.278-.432 1.038m-23.5.05c-.35.387-.638.993-.638 1.347 0 .386-.307.642-.769.642-1.079 0-.957-.95.244-1.895 1.253-.985 2.025-1.048 1.162-.094m3.594-.474c0 .57-1.647 2.463-2.14 2.463-.763 0-.69-.489.245-1.679.71-.9 1.895-1.392 1.895-.784m3.155.922c-.675 1.187-2 1.586-2 .602 0-.607 1.426-1.753 2.182-1.753.334 0 .281.338-.182 1.151m40.21.127q1.576 1.416.158 1.414c-.603 0-1.055-.577-1.926-2.457-.212-.457.698.08 1.768 1.043m3.558.047c0 .083.105.424.234.76.163.425.01.607-.516.607-.648 0-1.04-.487-1.96-2.435-.083-.177.387-.042 1.046.298.658.34 1.196.687 1.196.77m6.442-.047c.993.894 1.11 1.414.317 1.414-.567 0-2.143-1.752-2.143-2.382 0-.43.664-.079 1.826.968m-59.903-.483c0 .225-.18.744-.399 1.153-.508.951-1.596 1.012-1.26.071.49-1.373 1.66-2.236 1.66-1.224m56.416.426c1.074 1.01 1.131 1.471.183 1.471-.572 0-1.6-1.37-1.6-2.133 0-.395.58-.124 1.417.662m7.28.065c.766.66.971 1.097.764 1.634-.255.663-.39.604-1.4-.612-1.718-2.07-1.322-2.706.635-1.022m3.212.321c.774 1.273.726 1.956-.114 1.633-.645-.247-1.843-2.294-1.528-2.609.483-.483.91-.229 1.642.976m-69.498-.036c-.209.8-1.104 1.403-1.497 1.01-.343-.344.613-1.812 1.18-1.812.345 0 .454.277.317.802m45.095-.03c15.807 5.438 15.005 26.348-1.173 30.562-15.658 4.078-27.817-13.615-17.577-25.578 4.301-5.026 12.384-7.175 18.75-4.985m27.268.413c1.035 1.23 1.256 1.893.631 1.893-.374 0-2.327-2.37-2.327-2.825 0-.59.771-.168 1.696.932m-75.613.162c-.468 1.027-.885 1.21-1.286.56-.309-.499.5-1.52 1.203-1.52.417 0 .433.192.083.96m79.081-.357c.6.598.832 1.704.36 1.704-.268 0-2.063-1.858-2.063-2.136 0-.412 1.151-.12 1.703.432m-40.549.304c-13.927 3.791-16.096 21.56-3.413 27.963 11.453 5.781 24.818-2.593 23.675-14.834-.848-9.082-10.99-15.654-20.262-13.129m43.846.86c0 .725-.625.373-1.18-.665-.379-.706-.344-.738.382-.35.44.235.798.691.798 1.014m-58.63 1.12c.718.558.68.64-1.048 2.211-2.716 2.471-3.628 4.574-3.018 6.954.608 2.375.248 2.661-2.444 1.945-1.086-.29-2.863-.529-3.947-.53-2.277-.006-2.389-.109-3.783-3.467-1.738-4.186-2.309-6.129-1.916-6.52.935-.929 15.054-1.447 16.155-.593m17.293 3.975c.81 5.525.69 5.573-1.503.594-.992-2.25-1.754-4.122-1.693-4.156.237-.132 2.423-.856 2.488-.824.04.02.357 1.993.708 4.386m2.73-3.112c-.138.793-.359 2.784-.493 4.423-.312 3.814-.625 3.765-1.23-.192a433 433 0 0 0-.699-4.423c-.207-1.226-.183-1.25 1.23-1.25h1.44zm3.841-.907c.121.128-3.45 8.297-3.574 8.174-.08-.08.064-2.058.324-4.393l.472-4.244 1.37.21c.752.116 1.386.23 1.408.253m-43.762 1.123c.101.878.226.998.663.635.727-.604 1.872.52 1.598 1.566-.108.416-.022.756.193.756.23 0 .286.417.137 1.01-.208.827-.14.967.368.772.483-.186.567-.069.378.528-.18.57-.068.767.436.767.53 0 .578.102.22.461-.693.692-.56 1.077.366 1.077.78 0 .79.043.191.705-.718.793-.494 1.264.46.968.496-.154.473-.064-.106.407-1.138.93-.486 1.157 3.16 1.103 2.16-.032 3.98.165 5.121.555 3.39 1.157 5.112-.256 4.215-3.459-.549-1.96.307-4.087 2.55-6.336 1.543-1.548 2.592-1.675 1.118-.136-.937.978-1.01 1.223-.6 1.99.383.716.363.95-.112 1.297-.379.277-.54.917-.465 1.854.062.787-.045 1.53-.239 1.65s-.353.878-.353 1.686c0 1.854-.498 2.255-3.45 2.775-2.182.384-2.362.49-2.123 1.238.143.45.352 1.338.463 1.973.3 1.705 1.955 3.684 3.633 4.344.94.368 1.477.828 1.477 1.261 0 .375.52 1.201 1.154 1.835 1.217 1.217 1.46 2.292.692 3.06-.748.748-1.076.536-1.076-.692 0-2.37-4.408-5.8-8.165-6.356-1-.147-2.606-.767-3.568-1.378l-1.75-1.109-.364.96c-.2.527-.614.96-.917.96-.674 0-4.467-2.948-4.467-3.47 0-.208-.156-.377-.347-.377s-.329.628-.307 1.395c.05 1.731-1.29 3.021-3.79 3.65l-1.71.431v1.887c0 1.63.124 1.934.91 2.232 1.087.414 1.66 1.56.78 1.56-3.014 0-3.864-5.12-1.077-6.476 1.377-.669 1.708-1.004 1.5-1.519-1.055-2.598-1.056-2.734-.043-4.463l.991-1.69-.802-.533c-.772-.513-.78-.605-.223-2.482.597-2.01.334-5.237-.495-6.066-.625-.625-.799-.043-.363 1.21.555 1.591-.492 3.9-1.419 3.131-.32-.265-.495-.835-.393-1.277.102-.439.39-1.817.64-3.063.758-3.773 4.946-5.986 5.31-2.807m59.217 2.383c.176 4.921-.988 5.85-2.409 1.92-.383-1.058-1.175-2.645-1.76-3.527-1.302-1.959-1.356-1.904 1.624-1.667l2.435.194zm2.872-1.04c.781.943 2.772.404 2.91-.79.314-2.742 1.888.792 1.75 3.93-.102 2.274-.717 3.09-2.33 3.09-.926 0-1.189.538-.478.977.226.14.318.496.204.792-.38.993 1.225.081 3.918-2.226 2.225-1.906 4.892-.698 3.202 1.451-1.804 2.293-.639 4.017 2.22 3.285 2.302-.59 4.458.166 5.347 1.874.695 1.336.405 4.982-.434 5.451-.35.196-.637.533-.637.748s-.413.942-.918 1.615c-.504.674-1.285 1.957-1.735 2.853-.75 1.492-2.357 2.53-2.97 1.915-.33-.33.887-2.396 2.54-4.306.85-.98 1.547-2.077 1.55-2.434s.112-1.049.243-1.538l.238-.888-1.45.984c-2.852 1.935-5.62 1.222-4.418-1.137.782-1.534.95-2.724.533-3.808-.377-.982-.92-.699-.92.48 0 .598-.53 1.887-1.178 2.865-.95 1.433-1.1 1.924-.774 2.533.308.575.224 1.152-.352 2.423-.416.917-.76 2.368-.765 3.225-.01 1.703-.532 2.481-1.665 2.481-.555 0-.662-.164-.437-.673.163-.37.311-1.063.33-1.539.018-.476.25-.865.513-.865.722 0 .58-1.324-.327-3.064-.95-1.825-1.257-1.748-1.833.461-.6 2.301-1.994 4.592-3.208 5.273-1.35.758-1.809.253-.773-.85.881-.939 2.007-3.354 2.007-4.308 0-1.235-.746-.508-1.467 1.43-.54 1.456-.978 2.054-1.565 2.142-.572.087-.815.401-.815 1.058v.935h-8.737l3.53-3.558c3.767-3.797 4.721-5.748 5.45-11.145.32-2.383.911-1.967.911.643 0 2.061.257 2.88 1.847 5.891 1.284 2.431 3.548 1.13 5.09-2.924 1.052-2.774.325-2.782-.999-.012-.61 1.278-1.418 2.488-1.793 2.69-1.035.553-.844 0 1.048-3.04.952-1.53 1.73-2.867 1.73-2.97 0-.667-.786.116-2.117 2.106-1.45 2.168-2.047 2.642-2.613 2.075-.134-.134.79-1.37 2.051-2.748 2.84-3.098 3.03-4.054.263-1.322-1.117 1.103-2.19 2.006-2.386 2.006s.545-.833 1.647-1.85 2.002-2.09 2.002-2.383c0-.327-.484-.087-1.25.621-.844.778-1.545 1.105-2.156 1.005l-.905-.149.81-.567c1.044-.732 1.025-1.202-.057-1.387-.676-.116-.549-.215.577-.454.793-.169 1.442-.448 1.442-.622 0-.573-1.494-.803-2.326-.358-.449.24-.917.337-1.04.214s-.022-.224.225-.224.45-.346.45-.769-.196-.769-.433-.769c-.31 0-.305-.153.02-.543.307-.37.322-.622.046-.792-.627-.387-.475-2.179.253-2.983.533-.59.57-.863.195-1.462-.359-.575-.355-.97.017-1.797l.478-1.059.13 1.145c.071.63.316 1.37.544 1.645m-15.615-1.077c.838 0 .641.337-2.559 4.363-3.475 4.372-3.442 4.375-1.485-.154.863-1.998 1.724-4.034 1.912-4.525.312-.81.398-.837.947-.288.332.332.865.604 1.185.604m17.654-.736c.396.641-.495 1.377-1.026.846-.444-.444-.166-1.264.428-1.264.187 0 .456.188.598.418m-29.342 4.064c2.285 5.111 2.236 5.141-1.352.798-2.878-3.482-2.915-3.556-1.996-3.87.516-.176.938-.479.938-.673 0-1.107.787.116 2.41 3.745m38.912-2.366c3.756 1.855 3.694 1.752 3.415 5.695l-.236 3.343h-3.347v-1.679c0-2.14-.989-3.433-3.308-4.318-1.874-.716-2.46-1.597-2.46-3.694 0-1.576 1.835-1.374 5.936.653m-77.683-.553c-.256.413.41 1.11 1.073 1.123.474.01.327-.637-.254-1.119-.412-.342-.61-.343-.819-.004m53.596 2.435c-.066.04-1.807 1.322-3.869 2.851-2.063 1.53-3.75 2.684-3.75 2.566s1.305-1.837 2.9-3.82l2.9-3.606.97.97c.532.532.915 1 .85 1.04m33.508 7.732c.01 4.61-.693 11.04-1.269 11.615-.336.336-.309-18.709.03-20.317.475-2.268 1.227 3.011 1.24 8.702m-85.227-8.83c-.358.932.141 1.101.618.21.298-.558.304-.804.02-.804-.226 0-.513.268-.638.594m35.264 3.403c1.755 2.093 2.932 3.65 2.616 3.462-.316-.189-2.228-1.525-4.25-2.969l-3.676-2.625.822-.889c1.08-1.168.84-1.33 4.488 3.021m29.998-2.415c-1.848.738-2.042 1.967-.415 2.641 1.657.687 2.132.364 2.16-1.466.024-1.678-.165-1.805-1.745-1.175m-64.37.213c-.402.403-.299 2.052.13 2.052.21 0 .383.27.383.6 0 .745.623.391 1.197-.68.365-.682.335-.769-.19-.568-.469.18-.622.006-.622-.71 0-.924-.377-1.215-.898-.694m-8.569 20.513c-.25.924-.274.908-.599-.384-.984-3.916-.732-16.858.381-19.557.344-.834.557 18.69.218 19.941m44.655-14.296c-.124.13-8.685-2.99-9.03-3.29-.105-.09.111-.333.48-.539.368-.206.67-.705.67-1.108 0-.59.777-.195 4.001 2.038 2.2 1.525 3.946 2.83 3.88 2.9m16.25-4.672c.59 1.272.957.991-3.954 3.021-5.186 2.143-5.21 2.095-.67-1.286 4.266-3.176 4-3.077 4.623-1.735m-50.576 1.654c-.742 1.19-.573 1.75.292.967.758-.686 1.046-1.73.477-1.73-.16 0-.507.343-.769.763m51.83 1.137c0 .41.173.853.385.984.866.535.284.961-1.312.961-.934 0-3.054.26-4.712.577-4.904.94-4.845.808.69-1.524 4.6-1.938 4.95-2.009 4.95-.998m-51.447.402c-.645 1.033-.614 1.211.408 2.317.487.526 1.005 1.271 1.151 1.655.355.931 1.041.456 1.041-.72 0-.575-.222-.939-.572-.939-.37 0-.66-.543-.819-1.539-.276-1.728-.517-1.882-1.209-.774m29.675.966c4.484 1.646 4.44 2.085-.139 1.375-1.463-.227-3.363-.413-4.22-.413-1.48 0-2.02-.44-1.177-.962.211-.13.384-.586.384-1.012 0-.912-.192-.95 5.152 1.012m-35.536 1.381c0 1.811-.689 3.204-1.323 2.677-.435-.36-.574-.274-.71.44-.094.488-.194-.097-.223-1.299-.075-3.159.482-4.492 1.496-3.574.418.378.76 1.168.76 1.756m45.3-.205c1.64 1.15.542 3.632-1.606 3.632-1.89 0-2.737-2.11-1.387-3.46.924-.925 1.841-.978 2.992-.172m-2.59.342c-.253.305-.404.954-.335 1.442.17 1.2 2.378 1.492 2.966.392.83-1.549-1.513-3.18-2.63-1.834m15.238.814v1.37l-2.532-.26c-8.233-.848-8.332-.939-1.955-1.813 2.221-.304 4.14-.579 4.263-.61.123-.03.224.56.224 1.313m32.821.376c0 1.136-.373 2.1-.81 2.1-.19 0-.344-.886-.344-1.97 0-1.708.077-1.906.577-1.49.317.262.577.875.577 1.36m-55-.544c2.432.254 4.25.518 4.038.587-.21.07-2.568.435-5.236.813l-4.85.686v-1.446c0-1.27.098-1.425.812-1.273.447.095 2.803.38 5.236.633m-43.462 1.922c0 1.708-.077 1.906-.577 1.491-.69-.574-.76-2.355-.115-3 .676-.676.692-.64.692 1.51m47.116-.06c-3.816 1.583-8.767 3.485-8.839 3.394-.049-.062-.192-.652-.317-1.312l-.228-1.198 3.923-.572c4.697-.684 6.62-.794 5.461-.313m14.284.084c4.088.426 4.925.694 3.985 1.275-.212.131-.385.574-.385.984s-.043.744-.096.74c-.69-.054-9.125-3.423-8.6-3.436.4-.01 2.692.186 5.096.437m1.88 3.44c1.154.523 1.16.538.56 1.717l-.606 1.19-3.444-2.46c-1.894-1.355-3.69-2.706-3.992-3.003-.498-.49 4.634 1.262 7.482 2.555m-30.51-1.1c.402 1.955 1.537 4.128 4.008 7.674 1.138 1.632 2.068 3.071 2.068 3.197 0 .601-2.518-.082-2.88-.78-2.338-4.514-3.416-6.01-4.482-6.224-2-.4-3.948-4.285-2.592-5.17 1.43-.932 3.563-.215 3.877 1.303m14.347-1.027c-6.196 4.667-7.956 5.818-7.322 4.794.123-.199-.127-.688-.555-1.087-.77-.717-.734-.742 3.55-2.486 4.622-1.882 5.552-2.144 4.327-1.22m-39.73.616c-.255.254-.463.773-.463 1.154 0 .436-.285.692-.769.692-.423 0-.769-.203-.769-.45 0-.675 1.19-1.858 1.867-1.858.462 0 .492.103.133.462m38.18 3.482-2.947 3.64-.949-.95c-.902-.902-.915-.974-.25-1.45.382-.275 2.08-1.54 3.77-2.813 3.915-2.947 3.942-2.832.375 1.573m13.326-1.114 3.684 2.638-.963.964c-.963.963-.965.963-1.576.18-.336-.43-1.726-2.12-3.089-3.754-2.896-3.473-2.869-3.474 1.944-.028m-8.808 2.857c-.518 4.001-.704 4.685-1.212 4.467-.33-.142-1.008-.235-1.507-.207-.59.034-.833-.115-.697-.428 1.944-4.459 3.263-7.546 3.474-8.13.551-1.526.533-.267-.058 4.298m2.425.707c.314 1.93.57 3.6.57 3.708 0 .11-.606.27-1.346.356-1.549.181-1.574.084-.98-3.727.196-1.269.4-3 .451-3.846.118-1.964.498-2.657.632-1.154.057.635.36 2.733.673 4.663m2.437-1.053c1.09 2.408 1.98 4.398 1.98 4.423 0 .024-.39.06-.866.077-.476.02-1.145.158-1.486.31-.528.235-.685-.226-1.06-3.11-.242-1.863-.55-4.079-.684-4.925-.33-2.077-.173-1.837 2.116 3.225m3.254.405c1.203 1.38 1.674 2.177 1.346 2.277-.278.085-.809.42-1.18.743-.372.324-.729.518-.792.431-.206-.279-3.42-7.445-3.608-8.043-.1-.317.395.11 1.1.946.706.838 2.116 2.48 3.134 3.646m-10.588-.525c-1.917 4.538-1.744 4.261-2.308 3.696-.25-.25-.767-.455-1.148-.455-1.022 0-.937-.164 2.047-3.906 3.345-4.194 3.442-4.149 1.41.665m-40.688-1.416c0 .472-1.083.851-1.323.463-.107-.173-.084-.425.052-.56.366-.367 1.271-.297 1.271.097m9.343 1.638c1.007.514 2.637.898 4.311 1.016 1.811.127 2.993.423 3.61.903.504.394 1.216.715 1.582.715.977 0 2.693 1.48 2.693 2.322 0 1.38-1.24 1.574-9.287 1.451l-7.716-.119-1.3-1.538c-1.729-2.044-1.67-2.686.322-3.593.9-.409 1.981-1.017 2.404-1.352 1.023-.808 1.467-.783 3.381.195m70.197 1c-.543.581-1.329 1.836-1.747 2.788-1.565 3.573-3.202 3.912-3.139.651.07-3.62.255-3.889 2.862-4.144 1.26-.123 2.454-.253 2.652-.288.2-.036-.084.411-.628.993m-56.715 2.004c1.54 1.703 1.44 3.861-.179 3.861-.697 0-.704-.055-.123-.943.75-1.142.46-2.286-.893-3.54-.535-.496-.795-.902-.577-.902s1.016.686 1.772 1.524m61.791-.155c0 .517-.173.94-.385.94-.21 0-.385-.53-.385-1.177 0-.687.161-1.078.385-.939.212.131.385.66.385 1.176m-2.657 2.511-.37.928-.026-.993c-.013-.547.102-1.12.256-1.274.457-.457.54.338.14 1.34m2.51.565c-.118.305-.47.554-.785.554-.486 0-.474-.17.084-1.15.65-1.142 1.19-.68.7.596m-83.263 1.455c-.236.284-.315.63-.176.77.14.14.062.253-.173.253-.699 0-.995-.83-.424-1.19.805-.512 1.255-.413.773.167m2.641.638c0 .423-.162.77-.36.77-.518 0-.882-.7-.6-1.155.401-.65.96-.426.96.385m2.063-.192c-.234.61-.909.8-.909.256 0-.407.421-.833.822-.833.17 0 .208.26.087.577m2.301.016c-.252.656-.96.576-1.198-.137-.085-.253.198-.456.636-.456.554 0 .722.177.562.593m3.343-.033c-.256.308-.353.741-.217.961.315.51-.576.513-1.336.004-.499-.334-.476-.463.17-.956 1.017-.776 2.025-.783 1.383-.009m2.807-.08c-.166.265-.25.797-.186 1.183.101.617.01.646-.756.236l-.872-.466.885-.717c1.03-.832 1.355-.915.93-.236m5.14.866c.042 1.484-.15 1.608-1.249.804-.728-.532-.728-.557-.014-1.346 1.003-1.109 1.22-1.016 1.263.542m10.497-1.058c0 .16-.519.582-1.15.941q-1.147.653-.918 1.25c.303.788-.752.791-1.405.004-.61-.736-.119-1.32 1.665-1.973 1.514-.555 1.811-.59 1.808-.222m-13.075 1.058c0 1.026-.247 1.158-1.129.6-.457-.289-.466-.453-.049-.955.73-.88 1.178-.745 1.178.355m5.041-.434c-.24.291-.33.81-.198 1.154.31.806-.365.81-1.03.007-.437-.525-.404-.699.218-1.153.941-.688 1.58-.693 1.01-.008m3.29.033c-.48.364-.627.793-.455 1.334.286.901-.489 1.107-1.26.336-.745-.745-.536-1.37.596-1.784 1.51-.55 1.94-.507 1.12.114m8.591-.378c0 .1-.519.451-1.153.78-.69.356-1.154.9-1.154 1.355 0 .89-1.21 1.04-1.88.233-.523-.629-.072-1.09 1.906-1.948 1.336-.58 2.281-.754 2.281-.42m.873 1.644c-.133.871-.398 1.25-.875 1.25-1.153 0-1.196-1.057-.075-1.873 1.238-.902 1.187-.935.95.623m2.81 0c-.13 1.217-1.375 1.747-1.375.586 0-.72.676-1.643 1.205-1.643.154 0 .231.476.17 1.057m13.796-.312c.37.41.56.93.421 1.153-.287.465-1.358.56-1.366.121-.003-.159-.11-.678-.237-1.154-.285-1.063.277-1.12 1.182-.12m2.852.158c.728.775.77.97.293 1.365-.593.493-.694.407-1.656-1.403-.637-1.198.224-1.173 1.363.038m2.142-.299c.644.644.82 1.703.282 1.703-.28 0-1.216-1.643-1.216-2.133 0-.327.33-.175.934.43m3.08-.229c1.067.406 1.28 1.21.492 1.863-.313.26-.7.28-1.057.053-.31-.196-.439-.359-.286-.362s.115-.439-.086-.968c-.415-1.09-.406-1.097.936-.586m2.824.223c.987.691 1.113 1.528.278 1.848-.368.142-.577-.006-.577-.409 0-.347-.286-.947-.636-1.334-.778-.86-.23-.92.935-.105m5.638-.223c1.09.414 1.277 1.212.446 1.902-.435.361-.66.21-1.154-.78-.86-1.727-.865-1.72.708-1.122m3.08.48c.651.93.763 1.454.31 1.45-.158-.002-.583-.52-.943-1.154-.758-1.332-.257-1.567.633-.297m5.6.54c0 .29-.168.53-.372.53-.48 0-1.214-1.366-.9-1.678.335-.336 1.271.508 1.271 1.147m1.698-.76c.322.838-.105 1.228-.559.51-.455-.72-.465-1.143-.027-1.143.19 0 .453.284.586.632m2.015-.039c.358.932-.14 1.101-.619.21-.297-.558-.303-.803-.019-.803.226 0 .513.267.638.593m-14.867 1.403c0 .551-.679.331-.92-.297-.42-1.096-.22-1.523.355-.76.311.41.565.886.565 1.057m8.377-.428c.104.902.088.908-.48.185-.713-.904-.763-1.49-.109-1.275.265.087.53.578.59 1.09m-33.507-.196c.127.331.064.77-.14.974-.553.552-1.654-.013-1.654-.849 0-.902 1.457-1.003 1.794-.125m6.667.34c0 .588-.736.945-1.442.7-.714-.25-.582-1.179.192-1.355.861-.195 1.25.01 1.25.655m2.308-.782c0 .088.105.434.234.77.167.435.004.607-.577.607-.554 0-.81-.243-.81-.769 0-.427.256-.769.576-.769.317 0 .577.072.577.161m-5.556.642c.142.23.07.606-.159.835-.483.483-2.362-.202-2.362-.86 0-.527 2.193-.505 2.521.025m-17.329 2.274c-.13.211-.497.384-.814.384s-.47-.173-.339-.384.497-.385.814-.385c.318 0 .47.173.34.385m7.5-.18c0 .33-1.7.877-2.06.663-.182-.107-.096-.344.191-.525.577-.366 1.868-.46 1.868-.138m2.914.133c-.273.441-1.76.83-1.76.46 0-.488.483-.798 1.241-.798.4 0 .634.152.52.338m2.855.002c0 .354-1.585.896-1.849.632-.083-.083-.037-.336.102-.562.305-.493 1.747-.55 1.747-.07m8.731.198c-.173.52-4.137.658-4.755.165-.279-.222-.54-.204-.696.048-.294.476-2.126.548-2.126.082 0-.713.68-.842 4.121-.782 2.424.043 3.551.201 3.456.487m2.205-.194c.117.19-.04.442-.349.561-.6.23-1.115-.249-.705-.659.348-.348.805-.305 1.054.098m2.733.066c.353.571.021.808-.727.52-.347-.133-.534-.396-.417-.586.287-.465.835-.434 1.144.066m2.946.436c-.359.36-.564.36-.923 0-.359-.359-.256-.46.462-.46.717 0 .82.101.461.46m-37.704 3.09c-.572.571-1.203-.17-1.213-1.425-.006-.727.03-.723.844.092.682.681.755.946.37 1.332m3.627-1.032c.135.538.133 1.091-.004 1.228-.383.384-1.895-1.304-1.598-1.784.467-.755 1.35-.449 1.602.556m3.4-.125c.791 1.128.756 1.453-.157 1.453-.814 0-1.736-1.314-1.354-1.93.37-.6.867-.444 1.511.477m3.663-.11c.616 1.151.48 1.563-.523 1.563-.89 0-1.387-.632-1.387-1.762 0-.81 1.45-.66 1.91.198m3.115-.346c.821.44.997 1.708.297 2.141-.498.307-1.86-1.16-1.86-2.005 0-.635.543-.682 1.563-.136m25.731.346c.677 1.266.493 2.015-.464 1.88-.878-.126-1.296-1.072-.914-2.069.298-.775.907-.69 1.378.19m9.613-.186c.6.721.364 1.941-.374 1.941-.364 0-.616-.454-.692-1.25-.129-1.329.304-1.609 1.066-.69m8.875.77c-.768.926-1.198.697-.708-.379.291-.638.573-.842.822-.593.248.25.21.583-.114.972m-65.398-.176c0 .423-.173.77-.384.77s-.385-.347-.385-.77.173-.769.385-.769c.211 0 .384.346.384.77m3.846 0c0 .422-.173.768-.384.768s-.385-.072-.385-.16-.105-.435-.233-.77c-.154-.399-.02-.608.384-.608.362 0 .618.32.618.77m21.867-.429c.728.461-.106 1.966-1.088 1.966-.987 0-1.287-.588-.783-1.53.445-.83 1.032-.967 1.871-.436m2.69 0c.7.442.407 1.734-.428 1.894-.747.144-1.252-.773-.913-1.658.251-.653.59-.713 1.341-.237m3.52.352c0 1.03-.789 1.693-1.406 1.181-.362-.3-.393-.618-.11-1.144.494-.925 1.516-.95 1.516-.037m2.553-.115c.33.855-.134 1.75-.778 1.502-.656-.252-1.103-1.226-.792-1.729.341-.55 1.327-.409 1.57.227m2.993-.344c.774.297.793 1.643.026 1.937-.754.29-1.726-.525-1.726-1.448 0-.735.605-.909 1.7-.489m3.223.228c.737.737.561 1.846-.294 1.846-.814 0-1.736-1.314-1.354-1.93.317-.514 1.09-.474 1.648.084m3.824.308c.18 1.051-.565 1.782-1.332 1.307-1.227-.76-1.125-2.155.148-2.009.596.07 1.13.385 1.184.702m5.741-.162c.417 1.085-.955 2.052-1.627 1.146-.304-.41-.553-.973-.553-1.25 0-.718 1.9-.628 2.18.104m3.462 0c.278.726-.776 1.901-1.374 1.531-.232-.143-.422-.683-.422-1.199a.92.92 0 0 1 1.796-.332m7.777.79c-.61.736-1.11.655-1.11-.179 0-.98.41-1.29 1.026-.779.393.326.414.561.084.958" style="display:inline"/></svg>