<svg xmlns="http://www.w3.org/2000/svg" xml:space="preserve" id="svg5" x="0" y="0" version="1.1" viewBox="0 0 249.4 354.2"><style>.st1,.st2{fill:#fcb769}.st2{fill-rule:evenodd;clip-rule:evenodd}</style><path id="rect10908" d="M0-.1v354.2h238c6.3 0 11.3-5.1 11.3-11.3V11.3C249.3 5 244.2 0 238 0H0z" style="fill:#036c96"/><g id="layer1"><g id="g1106" transform="translate(-29.16 -45.506)"><path id="path1110" d="M141.3 370.8v-6.3h7.4l.4.8c.6 1.2 1.3 1.9 2.5 2.5 1.4.6 3.3.7 4.5.1 1-.5 2.4-1.8 2.7-2.7l.2-.6h7.4l-.1 3.1-.1 3.1h-24.9m12-4.6c-.9-.2-1.4-.6-1.9-1.3-1.5-2.5 1.4-5.1 4-3.7 1 .5 1.5 1.3 1.5 2.3 0 1.8-1.8 3.1-3.6 2.7m-12-10.3h25.2v6.6h-7.3l-.6-1.1c-1.6-2.8-4.9-3.6-7.6-1.8-.8.5-1.7 1.6-1.9 2.3-.1.3-.2.5-.4.6h-7.4" class="st1"/><path d="M117.3 322.9v-.3h.4c.6 0 .9-.1 1.1-.4s.2-.7.2-1.4v-9.1h-4.2v9.1c0 .8.1 1.2.3 1.4s.5.3 1.1.3h.4v.3h-6.2v-.3h.4c.5 0 .9-.1 1-.3s.3-.7.3-1.4V313c0-.7-.1-1.2-.2-1.4s-.5-.3-1.1-.3h-.4v-.3h13.3v.3h-.3c-.6 0-.9.1-1.1.3s-.3.7-.3 1.4v7.8c0 .8.1 1.2.3 1.4s.6.3 1.1.3h.3v.3h-6.4zM131.3 319.5h-4.2l-.5 1.1c-.2.4-.3.7-.3 1s.2.6.5.7c.2.1.5.2 1.2.2v.3h-4v-.3c.4-.1.8-.2 1.1-.5s.6-.9 1-1.8l4.3-9.2h.2l4.3 9.5c.4.9.7 1.5 1 1.7.2.2.5.3.8.3v.3h-5.8v-.3h.2c.5 0 .7-.1.9-.2.1-.1.2-.2.2-.4v-.3c0-.1-.1-.3-.3-.7zm-.3-.6-1.8-4.1-1.8 4.1zM148 310.6v4.1h-.3c-.3-1.1-.7-1.9-1.4-2.5s-1.5-.9-2.4-.9c-.7 0-1.4.2-2 .6s-1.1 1-1.4 1.7q-.6 1.35-.6 3c0 1.65.1 2 .4 2.9s.7 1.5 1.3 2c.6.4 1.3.7 2.2.7.8 0 1.4-.2 2.1-.5s1.3-.9 2-1.7v1q-1.05 1.05-2.1 1.5c-.7.3-1.6.5-2.5.5-1.3 0-2.4-.3-3.4-.8s-1.7-1.2-2.3-2.2-.8-2-.8-3c0-1.1.3-2.2.9-3.2s1.4-1.8 2.4-2.4 2.1-.8 3.2-.8c.8 0 1.7.2 2.7.5.5.2.9.3 1 .3.2 0 .4-.1.5-.2s.2-.4.3-.7h.2zM156.4 322.6l.4-.1c.6 0 .9-.1 1.1-.4s.2-.7.2-1.4v-9h-4.2v9.1c0 .8.1 1.2.3 1.4s.5.3 1.1.3h.4v.3h-6.2v-.3h.4c.5 0 .9-.1 1-.3s.3-.7.3-1.4V313c0-.7-.1-1.2-.2-1.4s-.5-.3-1.1-.3h-.4v-.3h13.3v.3h-.3c-.6 0-.9.1-1.1.3s-.3.7-.3 1.4v7.8c0 .8.1 1.2.3 1.4s.6.3 1.1.3h.3v.3h-6.4v-.2M169.9 310.9c1.9-.1 3.4.5 4.6 1.7s1.8 2.7 1.8 4.4c0 1.5-.4 2.8-1.3 4-1.2 1.5-2.8 2.3-5 2.3-2.1 0-3.8-.7-5-2.2-.9-1.1-1.4-2.5-1.4-4.1 0-1.8.6-3.2 1.8-4.4 1.3-1.3 2.7-1.8 4.5-1.7m.1.5c-1.1 0-1.9.6-2.5 1.7-.5.9-.7 2.2-.7 3.9 0 2 .4 3.5 1.1 4.5.5.7 1.2 1 2.1 1 .6 0 1.1-.1 1.5-.4q.75-.6 1.2-1.8c.45-1.2.4-1.9.4-3.2 0-1.6-.1-2.8-.4-3.5-.3-.8-.7-1.3-1.1-1.7s-1-.5-1.6-.5M181.8 317.5v3.3c0 .6 0 1.1.1 1.2.1.2.2.3.4.4s.6.1 1.1.1v.3h-6.1v-.3c.6 0 .9-.1 1.1-.2s.3-.2.4-.4.1-.6.1-1.2V313c0-.6 0-1.1-.1-1.2-.1-.2-.2-.3-.4-.4s-.6-.1-1.1-.1v-.3h5.2c1.7 0 2.9.3 3.7.9s1.1 1.4 1.1 2.3c0 .8-.2 1.4-.7 2s-1.1.9-2 1.1c-.5.2-1.4.2-2.8.2m0-5.8v5.2h.4c.7 0 1.3-.2 1.7-.6s.6-1.1.6-2-.2-1.5-.6-1.9-1-.6-1.7-.6h-.4zM199.5 311v3.2h-.3c-.2-.7-.4-1.3-.6-1.6s-.5-.6-.9-.8c-.2-.1-.6-.2-1.2-.2h-.9v9.2c0 .6 0 1 .1 1.1s.2.3.4.4.5.2.8.2h.4v.3H191v-.3h.4c.3 0 .6-.1.8-.2s.3-.2.4-.4c.1-.1.1-.5.1-1.1v-9.2h-.9c-.8 0-1.4.2-1.7.5-.5.5-.8 1.2-1 2h-.3V311zM114 336.1v3.3c0 .6 0 1.1.1 1.2.1.2.2.3.4.4s.6.1 1.1.1v.3h-6.1v-.3c.6 0 .9-.1 1.1-.2s.3-.2.4-.4.1-.6.1-1.2v-7.7c0-.6 0-1.1-.1-1.2-.1-.2-.2-.3-.4-.4s-.6-.1-1.1-.1v-.3h5.2c1.7 0 2.9.3 3.7.9s1.1 1.4 1.1 2.3c0 .8-.2 1.4-.7 2s-1.1.9-2 1.1c-.5.2-1.4.2-2.8.2m0-5.8v5.2h.4c.7 0 1.3-.2 1.7-.6s.6-1.1.6-2-.2-1.5-.6-1.9-1-.6-1.7-.6h-.4zM126.3 338.1h-4.2l-.5 1.2c-.2.4-.2.7-.2 1s.1.6.4.7c.2.1.5.2 1.2.2v.3h-4v-.3c.4-.1.8-.2 1.1-.5s.6-.9 1-1.8l4.3-9.3h.2l4.3 9.6c.4.9.7 1.5 1 1.7.2.2.5.3.8.3v.3h-5.8v-.3h.2c.5 0 .8-.1 1-.2.1-.1.2-.2.2-.4 0-.1 0-.2-.1-.3 0-.1-.1-.3-.3-.7zm-.3-.6-1.8-4.1-1.8 4.1zM140.3 329.4l.1 4h-.4c-.2-1-.6-1.8-1.3-2.4s-1.4-.9-2.2-.9c-.6 0-1.1.2-1.4.5s-.5.7-.5 1.1c0 .3.1.5.2.7.2.3.4.5.8.8.3.2.9.5 1.9 1 1.4.7 2.3 1.3 2.8 1.9s.7 1.3.7 2.1c0 1-.4 1.9-1.2 2.6s-1.8 1.1-3 1.1c-.4 0-.7 0-1.1-.1s-.8-.2-1.3-.4c-.3-.1-.5-.2-.7-.2s-.3.1-.5.2-.3.3-.4.5h-.3v-4.5h.3c.3 1.3.8 2.2 1.5 2.9s1.5 1 2.4 1c.7 0 1.2-.2 1.6-.5s.6-.8.6-1.2c0-.3-.1-.6-.2-.8s-.4-.5-.7-.8c-.3-.2-.8-.5-1.6-.9-1.1-.5-1.9-1-2.3-1.4s-.8-.8-1.1-1.3-.4-1-.4-1.5c0-.9.3-1.8 1-2.4s1.6-1 2.6-1c.4 0 .8 0 1.1.1s.6.2 1 .4.7.3.8.3c.2 0 .3 0 .4-.1s.2-.3.2-.7h.6zM150.3 329.4l.1 4h-.4c-.2-1-.6-1.8-1.3-2.4s-1.4-.9-2.2-.9c-.6 0-1.1.2-1.4.5s-.5.7-.5 1.1c0 .3.1.5.2.7.2.3.4.5.8.8.3.2.9.5 1.9 1 1.4.7 2.3 1.3 2.8 1.9s.7 1.3.7 2.1c0 1-.4 1.9-1.2 2.6s-1.8 1.1-3 1.1c-.4 0-.7 0-1.1-.1s-.8-.2-1.3-.4c-.3-.1-.5-.2-.7-.2s-.3.1-.5.2-.3.3-.4.5h-.3v-4.5h.3c.3 1.3.8 2.2 1.5 2.9s1.5 1 2.4 1c.7 0 1.2-.2 1.6-.5s.6-.8.6-1.2c0-.3-.1-.6-.2-.8s-.4-.5-.7-.8c-.3-.2-.8-.5-1.6-.9-1.1-.5-1.9-1-2.3-1.4s-.8-.8-1.1-1.3-.4-1-.4-1.5c0-.9.3-1.8 1-2.4s1.6-1 2.6-1c.4 0 .8 0 1.1.1s.6.2 1 .4.7.3.8.3c.2 0 .3 0 .4-.1s.2-.3.2-.7h.6zM156.7 336.1v3.3c0 .6 0 1.1.1 1.2.1.2.2.3.4.4s.6.1 1.1.1v.3h-6.1v-.3c.6 0 .9-.1 1.1-.2s.3-.2.4-.4.1-.6.1-1.2v-7.7c0-.6 0-1.1-.1-1.2-.1-.2-.2-.3-.4-.4s-.6-.1-1.1-.1v-.3h5.2c1.7 0 2.9.3 3.7.9s1.1 1.4 1.1 2.3c0 .8-.2 1.4-.7 2s-1.1.9-2 1.1c-.5.2-1.5.2-2.8.2m0-5.8v5.2h.4c.7 0 1.3-.2 1.7-.6s.6-1.1.6-2-.2-1.5-.6-1.9-1-.6-1.7-.6h-.4zM169.9 329.3c1.9 0 3.3.7 4.5 1.9s1.8 2.7 1.8 4.4c0 1.5-.4 2.8-1.3 4-1.2 1.5-2.8 2.3-5 2.3-2.1 0-3.8-.7-5-2.2-.9-1.1-1.4-2.5-1.4-4.1 0-1.8.6-3.2 1.8-4.4 1.2-1.3 2.7-1.9 4.6-1.9m0 .7c-1.1 0-1.9.6-2.5 1.7-.5.9-.7 2.2-.7 3.9 0 2 .4 3.5 1.1 4.5.5.7 1.2 1 2.1 1 .6 0 1.1-.1 1.5-.4q.75-.6 1.2-1.8c.45-1.2.4-1.9.4-3.2 0-1.6-.1-2.8-.4-3.5-.3-.8-.7-1.3-1.1-1.7s-1-.5-1.6-.5M181.6 336.1v3.3c0 .6 0 1.1.1 1.2.1.2.2.3.4.4s.6.1 1.1.1v.3h-6.1v-.3c.6 0 .9-.1 1.1-.2s.3-.2.4-.4.1-.6.1-1.2v-7.7c0-.6 0-1.1-.1-1.2-.1-.2-.2-.3-.4-.4s-.6-.1-1.1-.1v-.3h5.5c1.4 0 2.5.1 3.2.3s1.2.6 1.6 1.1.6 1.2.6 1.9c0 .9-.3 1.6-.9 2.2-.4.4-1 .6-1.7.8l2.9 3.9c.4.5.6.8.8 1s.5.3.8.3v.3h-3.8l-3.8-5.3zm0-5.8v5.2h.5c.8 0 1.4-.1 1.8-.2.4-.2.7-.4 1-.8s.3-.9.3-1.5c0-.9-.2-1.6-.6-2s-1.1-.7-2.1-.7zM200.5 329.6v3.2h-.3c-.2-.7-.4-1.3-.6-1.6s-.5-.6-.9-.8c-.2-.1-.6-.2-1.2-.2h-.9v9.2c0 .6 0 1 .1 1.1s.2.3.4.4.5.2.8.2h.4v.3h-6.2v-.3h.4c.3 0 .6-.1.8-.2s.3-.2.4-.4c.1-.1.1-.5.1-1.1v-9.2h-.9c-.8 0-1.4.2-1.7.5-.5.5-.8 1.2-1 2h-.3v-3.2h10.6zM117.1 89.6h-.3c-.4-1.9-1.4-2.9-3.1-2.9l-2-3.8c-.2-.4-.4-.6-.4-.7-.1-.1-.4-.2-.8-.2v3.4c0 .5.1.8.4.9.2.1.5.2 1 .2v.3h-5.2v-.3c.6 0 .9-.1 1.1-.2.2-.2.3-.5.3-1v-6.6c0-.6-.1-.9-.2-1.1-.2-.2-.5-.4-1-.4h-.2v-.6h5.2v.6h-.2c-.5 0-.8.1-1 .3s-.2.5-.2 1v2.8h1c.4 0 .7-.2.9-.5.2-.2.4-.9.6-1.6s.3-1.1.4-1.4c.2-.5.5-.9.9-1.1q.45-.3 1.2-.3c.4 0 .8.1 1.1.4s.5.6.5 1c0 .3-.1.5-.3.7s-.5.2-.7.2c-.6 0-.9-.3-.9-1 0-.3-.1-.5-.3-.5-.4 0-.8.6-1.1 1.7-.2.6-.3 1-.4 1.2-.2.5-.5 1.1-.7 1.3.5.1.9.4 1.2.8q0 .15.9 1.5l1 1.8q.15.45.6.6c.2.1.5.2.8.2zM123.5 83.8H120l-.4 1c-.1.3-.2.6-.2.8q0 .45.3.6c.1.1.5.1 1 .2v.3h-3.3v-.3c.4-.1.6-.2.9-.4.2-.2.5-.7.8-1.5l3.6-7.9h.1l3.5 8c.3.8.6 1.3.8 1.5s.4.2.7.3v.3H123v-.3h.2c.4 0 .7-.1.8-.2s.2-.2.2-.3v-.3s-.1-.2-.2-.5zm-.2-.5-1.5-3.4-1.5 3.4zM128.5 79.6v-3.1h.3c.1.4.2.5.4.5.1 0 .3 0 .5-.1.6-.3 1.3-.4 1.9-.4 1 0 1.8.3 2.4.8s.8 1.1.8 1.7c0 .3-.1.6-.2.9s-.4.6-.7.9-.9.5-1.6.7c1.1.2 1.8.5 2.2 1s.6 1 .6 1.6c0 .5-.1 1-.4 1.4s-.7.8-1.3 1-1.3.4-2.1.4-1.5-.1-2-.3-.9-.6-1.3-1.1l.3-.3c.7.7 1.4 1.1 2.1 1.1q.9 0 1.5-.6c.6-.6.5-.9.5-1.6 0-.5-.1-.9-.3-1.3s-.5-.6-.8-.7-.8-.2-1.4-.2v-.6h.4q1.05 0 1.5-.6c.45-.6.4-.9.4-1.7 0-.7-.1-1.2-.4-1.5s-.6-.5-1-.5c-.5 0-1 .2-1.3.6s-.5 1-.6 1.8h-.4zM141.9 83.8h-3.5l-.4 1c-.1.3-.2.6-.2.8q0 .45.3.6c.1.1.5.1 1 .2v.3h-3.3v-.3c.4-.1.6-.2.9-.4.2-.2.5-.7.8-1.5l3.6-7.9h.1l3.5 8c.3.8.6 1.3.8 1.5s.4.2.7.3v.3h-4.8v-.3h.2c.4 0 .7-.1.8-.2s.2-.2.2-.3.1-.1 0-.3c0 0-.1-.2-.2-.5zm-.2-.5-1.5-3.4-1.5 3.4zM157.2 89.6h-.3c-.4-1.9-1.4-2.9-3.1-2.9l-2-3.8c-.2-.4-.3-.6-.4-.7s-.4-.2-.8-.2v3.4c0 .5.1.8.4.9.2.1.5.2 1 .2v.3h-5.2v-.3c.6 0 .9-.1 1.1-.2.2-.2.3-.5.3-1v-6.6c0-.6-.1-1.1-.2-1.3-.2-.3-.5-.4-1-.4h-.2v-.4h5.2v.5h-.2c-.5 0-.8.1-1 .3s-.2.5-.2 1v2.9h1c.4 0 .7-.2.9-.5.2-.2.4-.9.6-1.6s.3-1.1.4-1.4c.2-.5.5-.9.9-1.1q.45-.3 1.2-.3c.4 0 .8.1 1.1.4s.5.6.5 1c0 .3-.1.5-.3.7s-.5.2-.8.2c-.6 0-.9-.3-.9-1 0-.3-.1-.5-.3-.5-.4 0-.8.6-1.1 1.7-.2.6-.3 1-.4 1.2-.2.5-.5 1.1-.7 1.3.5.1.9.4 1.2.8.1.1.3.6.9 1.5l1 1.8q.15.45.6.6c.2.1.5.2.8.2zM167.4 76.5v3.4h-.3q-.3-1.35-1.2-2.1c-.9-.75-1.2-.7-2-.7-.6 0-1.2.2-1.7.5s-.9.8-1.1 1.4c-.3.7-.5 1.6-.5 2.5s.1 1.7.3 2.4.6 1.3 1.1 1.7 1.1.6 1.9.6c.6 0 1.2-.1 1.7-.4s1.1-.7 1.6-1.4v.9c-.6.6-1.1 1-1.7 1.3s-1.3.4-2.1.4c-1.1 0-2-.2-2.8-.6s-1.5-1-1.9-1.8-.7-1.6-.7-2.5.2-1.8.7-2.7c.5-.8 1.2-1.5 2-2s1.7-.7 2.7-.7c.7 0 1.4.2 2.2.5q.6.3.9.3c.3 0 .3-.1.4-.2s.2-.3.2-.5h.3zM177.7 76.7v2.7h-.3c-.2-.6-.3-1.1-.5-1.3-.2-.3-.5-.5-.8-.6-.2-.1-.5-.1-1-.1h-.7V85c0 .5 0 .8.1 1l.3.3c.2.1.4.1.7.1h.3v.3h-5.2v-.3h.3c.3 0 .5-.1.7-.2.1-.1.2-.2.3-.4.1-.1.1-.4.1-.9v-7.7h-.7c-.7 0-1.2.1-1.5.4-.4.4-.7 1-.8 1.7h-.3v-2.7zM183.7 83.8h-3.5l-.4 1c-.1.3-.2.6-.2.8q0 .45.3.6c.1.1.5.1 1 .2v.3h-3.3v-.3c.4-.1.7-.2.9-.4s.5-.7.8-1.5l3.6-7.9h.1l3.6 8.1c.3.8.6 1.3.8 1.5s.4.1.7.2v.3h-4.8v-.3h.2c.4 0 .7 0 .8-.1s.2-.2.2-.3v-.3s-.1-.2-.2-.5zm-.2-.5-1.5-3.4-1.5 3.4zM192.4 81.9V85c0 .5 0 .8.1 1s.2.2.3.3c.2.1.4.1.7.1h.3v.3h-5.2v-.3h.3c.3 0 .5-.1.7-.2.1-.1.2-.2.3-.4.1-.1.1-.4.1-.9v-6.5c0-.5 0-.8-.1-1l-.3-.3c-.2-.1-.4-.1-.7-.1h-.3v-.4h5.2v.4h-.3c-.3 0-.5.1-.7.2-.1.1-.2.2-.3.4-.1.1-.1.4-.1.9v2.8h3.5v-2.8c0-.5 0-.8-.1-1s-.2-.2-.3-.3c-.2-.1-.4-.2-.7-.2h-.3v-.4h5.2v.4h-.3c-.3 0-.5.1-.7.2-.1.1-.2.2-.3.4-.1.1-.1.4-.1.9V85c0 .5 0 .8.1 1s.2.2.3.3c.2.1.4.1.7.1h.3v.3h-5.2v-.3h.3c.3 0 .5-.1.7-.2.1-.1.2-.2.3-.4.1-.1.1-.4.1-.9v-3.1zM91.5 100.2v2.8c0 .5 0 .9.1 1s.2.2.4.3.5.1.9.1v.3h-5v-.3c.5 0 .8 0 .9-.1q.3-.15.3-.3c.1-.1.1-.5.1-1v-6.4c0-.5 0-.9-.1-1s-.1-.3-.4-.5c-.2-.1-.5-.1-.9-.1v-.4h4.3c2 0 2.7.1 3.3.8.6.8.7 1.2.7 2 0 .6-.2 1.2-.6 1.7s-1 .8-1.7.9c-.4.1-1.2.2-2.3.2m0-4.9v4.3h.4c.6 0 1.1-.2 1.4-.5.3-.4.5-.9.5-1.6s-.2-1.3-.5-1.6-.8-.5-1.4-.5h-.4zM100.7 96.3v3h.2c.6 0 1.1-.2 1.4-.6s.5-1 .5-1.8h.3v5.2h-.3c-.1-.6-.2-1-.4-1.4s-.4-.6-.7-.7c-.2-.1-.6-.2-1.1-.2v2.8c0 .5 0 .9.1 1s.1.2.3.3.3.1.6.1h.6c.9 0 1.7-.2 2.2-.6.6-.4 1-1.1 1.2-2h.3l-.4 3.3h-8.6v-.4h.3c.3 0 .5-.1.7-.2.1-.1.2-.2.3-.4.1-.1.1-.4.1-.9v-7.3c0-.2-.1-.3-.3-.4s-.4-.1-.8-.1h-.3v-.4h8.3v2.9h-.3q-.15-1.05-.6-1.5c-.3-.3-.6-.5-1.1-.7-.3-.1-.8-.1-1.5-.1h-1zM116.6 94.5v3.4h-.3q-.3-1.35-1.2-2.1c-.9-.75-1.2-.7-2-.7-.6 0-1.2.2-1.7.5s-.9.8-1.1 1.4c-.3.7-.5 1.6-.5 2.5s.1 1.7.3 2.4.6 1.3 1.1 1.7 1.1.6 1.9.6c.6 0 1.2-.1 1.7-.4s1.1-.7 1.6-1.4v.9c-.6.6-1.1 1-1.7 1.3s-1.3.4-2.1.4c-1.1 0-2-.2-2.8-.6s-1.5-1-1.9-1.8-.7-1.6-.7-2.5.2-1.8.7-2.7c.5-.8 1.2-1.5 2-2s1.7-.7 2.7-.7c.7 0 1.4.2 2.2.5q.6.3.9.3c.2 0 .3-.1.4-.2s.2-.3.2-.5h.3zM123.6 104.7v-.3h.3q.75 0 .9-.3c.15-.3.2-.6.2-1.1v-7.7h-3.5v7.7c0 .6.1 1 .2 1.2s.4.2.9.2h.3v.3h-5.2v-.3h.3c.4 0 .7-.1.9-.2s.2-.6.2-1.2v-6.6c0-.6-.1-1-.2-1.2s-.4-.3-.9-.3h-.3v-.3h11.1v.3h-.3q-.75 0-.9.3c-.15.3-.2.6-.2 1.1v6.6c0 .6.1 1 .2 1.2s.5.2.9.2h.2v.3zM136.6 94.6h3.3v.3c-.3 0-.6.2-.8.4s-.5.7-.8 1.4l-3.1 6.2c-.5.9-.9 1.5-1.3 1.8s-.8.3-1.3.3-.9-.1-1.2-.4-.4-.6-.4-1c0-.3.1-.5.3-.7s.4-.3.7-.3.5.1.6.2.2.4.3.7c.1.4.2.6.5.6s.7-.3 1-1l.1-.3-3.7-6.5c-.3-.5-.6-.9-.8-1.1s-.5-.3-1-.3v-.3h5v.4h-.1c-.6 0-.9.1-.9.4 0 .1.1.3.2.5l2.6 4.5 1.9-3.8c.3-.5.4-.9.4-1.1s-.1-.3-.2-.4-.5-.2-1.2-.2zM140.3 94.6h8.6v2.7h-.3c-.1-.5-.2-.9-.5-1.2-.2-.3-.5-.5-.8-.7s-.8-.2-1.4-.2h-1.8v4h1.3c1.4 0 2.4.2 3.1.7s1 1.2 1 2c0 .6-.2 1.1-.5 1.5s-.7.7-1.2.9q-.75.3-2.1.3h-5.3v-.3c.6 0 1-.1 1.2-.2.2-.2.3-.5.3-1v-6.9c0-.6-.1-.9-.3-1.1s-.6-.2-1.2-.2v-.3zm3.9 5.3v3c0 .5.1.8.2 1s.4.3.7.3c.6 0 1-.2 1.3-.6s.4-.9.4-1.4c0-.6-.1-1-.4-1.4s-.6-.6-.9-.7-.7-.2-1.3-.2M160.4 95c-.5 0-.9.1-1 .3s-.2.5-.2 1v6.9c0 .5.1.9.2 1s.5.2 1.1.2v.3h-5v-.3c.4 0 .7 0 .8-.1.2-.1.3-.2.4-.3.1-.2.1-.4.1-.8v-7.8h-2.4v3c0 1.2 0 2.2-.1 2.8s-.2 1.3-.5 1.8c-.3.6-.6 1-1.1 1.3s-.9.4-1.4.4-.8-.1-1.1-.4-.4-.6-.4-.9.1-.6.2-.8c.2-.2.4-.3.7-.3.6 0 .9.3.9 1 0 .3.1.5.4.5s.6-.2 1-.6c.3-.4.6-1 .7-1.7s.2-1.8.2-3.1v-1.8c0-.5 0-.9-.1-1.1s-.2-.3-.4-.4-.5-.1-1-.1v-.4h8.1zM168.4 96.4c0-.5-.1-.9-.2-1.1q-.15-.3-.9-.3h-.3v-.4h5.3v.4h-.3q-.75 0-.9.3c-.1.2-.2.6-.2 1.2v6.5c0 .6.1 1 .2 1.2.2.2.5.2.9.2h.3v.3H167v-.3h.3c.5 0 .8 0 .9-.2s.2-.6.2-1.2v-5.4l-3.5 5.5c0 .5.1.8.2 1s.4.3 1 .3h.3v.3H161v-.3h.3q.75 0 .9-.3c.1-.2.2-.6.2-1.2v-6.4c0-.6-.1-1-.2-1.2s-.4-.3-1-.3h-.2v-.4h5.3v.4h-.3q-.6 0-.9.3c-.2.2-.2.6-.2 1.1v5.4zM172.8 94.6h5.2v.4h-.2c-.5 0-.8.1-1 .3s-.2.5-.2 1v3c.7 0 1.1 0 1.3-.1.2 0 .4-.2.6-.4s.4-.9.6-1.5c.2-.7.4-1.3.6-1.7s.4-.7.7-.9q.45-.3 1.2-.3c.75 0 .8.1 1.1.4s.4.6.4 1c0 .3-.1.5-.3.7s-.4.3-.7.3c-.6 0-.9-.3-.9-1 0-.3-.1-.5-.3-.5s-.4.1-.6.4-.3.7-.5 1.3-.3 1.2-.5 1.5q-.3.6-.6.9c.3.1.6.2.7.3l.5.5c.2.2.4.7.9 1.5l1 1.9c.2.3.3.5.6.6.2.1.5.2.8.2v.3h-3.3l-2-3.9c-.2-.4-.4-.7-.5-.8s-.3-.1-.7-.2v3.5q0 .75.3.9c.3.15.6.2 1.1.2v.3h-5.2v-.3c.6 0 .9-.1 1.1-.3s.3-.5.3-1v-6.7c0-.6-.1-.9-.2-1.1s-.5-.3-1-.3h-.2v-.4zM189.6 101.8h-3.5l-.4 1c-.1.3-.2.6-.2.8q0 .45.3.6c.1.1.5.1 1 .2v.3h-3.3v-.3c.4-.1.6-.2.9-.4.2-.2.5-.7.8-1.5l3.6-7.9h.1l3.6 8.1c.3.8.6 1.3.8 1.5s.4.2.7.3v.3h-4.8v-.3h.2c.4 0 .7-.1.8-.2s.2-.2.2-.3v-.3s-.1-.2-.2-.5zm-.3-.5-1.5-3.4-1.5 3.4zM203.4 94.5v3.4h-.3q-.3-1.35-1.2-2.1c-.6-.5-1.2-.7-2-.7-.6 0-1.2.2-1.7.5s-.9.8-1.1 1.4c-.3.7-.5 1.6-.5 2.5s.1 1.7.3 2.4.6 1.3 1.1 1.7 1.1.6 1.9.6c.6 0 1.2-.1 1.7-.4s1.1-.7 1.6-1.4v.9c-.6.6-1.1 1-1.7 1.3s-1.3.4-2.1.4c-1.1 0-2-.2-2.8-.6s-1.5-1-1.9-1.8-.7-1.6-.7-2.5.2-1.8.7-2.7 1.2-1.5 2-2 1.7-.7 2.7-.7c.7 0 1.4.2 2.2.5q.6.3.9.3c.3 0 .3-.1.4-.2s.2-.3.2-.5h.3zM208.4 99.2h1.3c1.4 0 2.4.2 3.1.7s1 1.2 1 2c0 .6-.2 1.1-.5 1.5s-.7.7-1.2.9q-.75.3-2.1.3h-5.3v-.3c.6 0 1-.1 1.2-.2.2-.2.3-.5.3-1v-6.6c0-.7-.1-1.1-.2-1.3s-.5-.2-1.1-.2v-.3h5.1v.3c-.5 0-.8 0-.9.1q-.3.15-.3.3c-.1.1-.1.4-.1.9v2.9zm.3.7v3c0 .5.1.8.2 1s.4.3.7.3c.6 0 1-.2 1.3-.6s.4-.9.4-1.4c0-.6-.1-1-.4-1.4s-.5-.6-.9-.8c-.4-.1-.7-.1-1.3-.1m10 4.4v.3h-5.2v-.3h.3c.3 0 .5 0 .7-.1s.3-.2.4-.4c0-.1.1-.4.1-.9v-6.4c0-.5 0-.8-.1-.9 0-.1-.1-.3-.3-.4s-.4-.2-.7-.2h-.3v-.3h5.2v.4h-.3c-.3 0-.5.1-.7.2s-.3.2-.3.4c0 .1-.1.4-.1.9v7.2c0 .1.2.3.4.4s.4.2.7.2zM106.4 118.1v2.8c0 .5 0 .9.1 1l.3.3c.1.1.5.1.9.1v.3h-5.1v-.3c.5 0 .8 0 .9-.1q.3-.15.3-.3c.1-.1.1-.5.1-1v-6.4c0-.5 0-.9-.1-1l-.3-.3c-.1-.1-.5-.1-.9-.1v-.3h4.6c1.2 0 2.1.1 2.6.2s1 .5 1.4.9.5 1 .5 1.6c0 .7-.3 1.3-.8 1.8-.3.3-.8.5-1.4.7l2.3 3.3c.3.4.5.7.7.8.2.2.4.2.7.2v.3h-3.1l-3.1-4.4zm0-4.8v4.4h.4c.7 0 1.2-.1 1.5-.2s.6-.3.8-.7c.2-.3.3-.7.3-1.3 0-.8-.2-1.3-.5-1.7-.4-.4-.9-.5-1.7-.5zM117.4 113.4v3.9h.2c.6 0 1.1-.2 1.4-.6s.5-1 .5-1.8h.3v5.2h-.3c-.1-.6-.2-1-.4-1.4s-.4-.6-.7-.7c-.2-.1-.6-.2-1.1-.2v2.8c0 .5 0 .9.1 1s.1.2.3.3.3.1.6.1h.6c.9 0 1.7-.2 2.2-.6.6-.4 1-1.1 1.2-2h.3l-.4 3.2h-8.6v-.3h.3c.3 0 .5-.1.7-.2.1-.1.2-.2.3-.4.1-.1.1-.4.1-.9v-7.1000000000000005c0-.2-.2-.5-.4-.6s-.3-.1-.7-.1h-.3v-.3h8.3v2.7h-.3c-.1-.7-.3-1-.6-1.3s-.6-.4-1.1-.6c-.3-.1-.8-.2-1.5-.2zM127.3 118v2.9c0 .5 0 .9.1 1s.2.2.4.3.5.1.9.1v.3h-5v-.3c.5 0 .8 0 .9-.1q.3-.15.3-.3c.1-.1.1-.5.1-1v-6.5c0-.5 0-.9-.1-1l-.3-.3c-.1-.1-.5-.1-.9-.1v-.3h4.3c1.4 0 2.4.3 3.1.8s.9 1.1.9 1.9c0 .6-.2 1.2-.6 1.7s-1 .8-1.7.9c-.5 0-1.2.1-2.4 0m0-4.9v4.3h.4c.6 0 1.1-.2 1.4-.5.3-.4.5-.9.5-1.6s-.2-1.3-.5-1.6-.8-.5-1.4-.5h-.4zM132.8 112.7h5.1v.3h-.3c-.4 0-.7 0-.8.1l-.3.3c-.1.1-.1.5-.1 1.1v4.9c0 .9.1 1.5.2 1.8s.4.5.7.7.7.3 1.2.3 1-.1 1.4-.4c.4-.2.7-.6.8-1 .2-.4.3-1.2.3-2.2v-4c0-.4 0-.8-.1-1s-.2-.3-.4-.4-.5-.2-.9-.2v-.3h3.4v.3h-.2c-.3 0-.5.1-.7.2s-.3.3-.4.5-.1.4-.1.8v3.7c0 1.2-.1 2-.2 2.5-.2.5-.5 1-1.1 1.4s-1.4.7-2.4.7c-.9 0-1.5-.1-2-.3-.6-.3-1.1-.7-1.4-1.2s-.4-1.1-.4-2v-4.9c0-.6 0-.9-.1-1.1q-.15-.3-.3-.3c-.1 0-.4-.1-.9-.1zM149.9 117.4c.9.2 1.6.5 2 .8.5.4.8 1 .8 1.7s-.3 1.4-.9 1.9c-.7.6-1.8.9-3.2.9h-5v-.3c.5 0 .8 0 .9-.1q.3-.15.3-.3c.1-.1.1-.5.1-1v-6.6c0-.5 0-.9-.1-1-.1-.2-.2-.2-.3-.3s-.5-.1-.9-.1v-.3h4.8q1.65 0 2.4.3c.5.2.8.5 1.1.9s.4.8.4 1.3-.2 1.1-.5 1.5c-.4.4-1 .6-1.9.7m-2.6.4v3.6c0 .3.1.5.2.6s.3.2.6.2c.4 0 .8-.1 1.1-.3s.6-.4.8-.8c.2-.3.3-.7.3-1.1q0-.75-.3-1.2c-.3-.45-.5-.6-.9-.8s-1.1-.2-1.8-.2m0-.6c.7 0 1.2-.1 1.5-.2.3-.2.6-.4.8-.7s.3-.8.3-1.3-.1-.8-.3-1.1-.4-.5-.7-.6-.8-.2-1.6-.2zM162.7 119.2l-.4 3.5h-8.8v-.3h.3c.3 0 .5-.1.7-.2.1-.1.2-.2.3-.4.1-.1.1-.4.1-.9v-6.5c0-.5 0-.8-.1-1s-.2-.2-.3-.3c-.2-.1-.4-.1-.7-.1h-.3v-.3h5.3v.3h-.4c-.3 0-.5.1-.7.2-.1.1-.2.2-.3.4-.1.1-.1.4-.1.9v6.3c0 .5 0 .8.1 1s.1.2.3.3c.1 0 .4.1.9.1h.8c.5 0 1-.1 1.3-.3s.7-.5.9-.9c.3-.4.5-1 .7-1.8zM168.8 122.4v.3h-5.2v-.3h.3c.3 0 .5-.1.7-.2.1-.1.2-.2.3-.4.1-.1.1-.4.1-.9v-6.5c0-.5 0-.8-.1-1s-.2-.2-.3-.3c-.2-.1-.4-.1-.7-.1h-.3v-.3h5.2v.3h-.3c-.3 0-.5.1-.7.2-.1.1-.2.2-.3.4-.1.1-.1.4-.1.9v6.5c0 .5 0 .8.1 1l.3.3c.2.1.4.1.7.1zM179.1 112.5v3.4h-.3q-.3-1.35-1.2-2.1c-.9-.75-1.2-.7-2-.7-.6 0-1.2.2-1.7.5s-.9.8-1.1 1.4c-.3.7-.5 1.6-.5 2.5s.1 1.7.3 2.4.6 1.3 1.1 1.7 1.1.6 1.9.6c.6 0 1.2-.1 1.7-.4s1.1-.7 1.6-1.4v.9c-.6.6-1.1 1-1.7 1.3s-1.3.4-2.1.4c-1.1 0-2-.2-2.8-.6s-1.5-1-1.9-1.8-.7-1.6-.7-2.5.2-1.8.7-2.7c.5-.8 1.2-1.5 2-2s1.7-.7 2.7-.7c.7 0 1.4.2 2.2.5q.6.3.9.3c.3 0 .3-.1.4-.2s.2-.3.2-.5h.3zM189.5 112.5q2.4 0 3.9 1.5c1.5 1.5 1.5 2.2 1.5 3.7 0 1.3-.4 2.4-1.1 3.3-1 1.3-2.4 1.9-4.1 1.9-1.8 0-3.2-.6-4.1-1.8-.8-1-1.2-2.1-1.2-3.4 0-1.5.5-2.7 1.5-3.7s2-1.4 3.6-1.5m.1.6c-.9 0-1.6.5-2.1 1.4q-.6 1.2-.6 3.3c0 1.7.3 2.9.9 3.8.4.6 1 .8 1.7.8.5 0 .9-.1 1.3-.4s.8-.8 1-1.5.4-1.6.4-2.7c0-1.3-.1-2.3-.4-2.9-.2-.7-.6-1.1-.9-1.4-.4-.3-.8-.4-1.3-.4M199.5 113.3v4.1h.3c.4 0 .8-.1 1.1-.2s.5-.4.7-.7.3-.7.4-1.3h.3v5h-.3c-.1-.9-.3-1.6-.8-1.9-.4-.3-.9-.5-1.4-.5h-.3v3c0 .5 0 .8.1 1l.3.3c.2.1.4.1.7.1h.3v.3h-5.2v-.3h.3c.3 0 .5-.1.7-.2.1-.1.2-.2.3-.4.1-.1.1-.4.1-.9v-6.5c0-.5 0-.8-.1-1s-.2-.2-.3-.3c-.2-.1-.4-.1-.7-.1h-.3v-.3h8.4v2.8h-.3c-.1-.7-.2-1.2-.5-1.5s-.7-.5-1.2-.7c-.3-.1-.8-.1-1.6-.1h-1zM106.7 134.5l3.5 4.4c.5.6.9 1.1 1.3 1.4.3.2.5.2.8.2v.3h-5.2v-.3c.3 0 .5-.1.6-.2s.1-.2.1-.3c0-.2-.1-.7-.6-1.3l-2.3-2.9-.4.3v3c0 .5 0 .8.1 1s.2.2.3.3.4.1.8.1v.3h-5v-.3h.3c.3 0 .5-.1.7-.2.1-.1.2-.2.3-.4.1-.1.1-.4.1-.9v-6.7c0-.5 0-.8-.1-1s-.2-.2-.3-.3c-.2-.1-.4-.1-.7-.1h-.3v-.3h4.9v.3c-.3 0-.6 0-.8.1s-.2.2-.3.3-.1.4-.1.9v3l3.5-2.8c.5-.4 1-.7 1-1 0-.2-.1-.3-.3-.4-.1-.1-.4-.1-.8-.1v-.3h3.9v.3c-.3 0-.6.1-.8.2s-.7.4-1.4 1zM118.6 137.8h-3.5l-.4 1c-.1.3-.2.7-.2.9q0 .45.3.6c.1.1.5.1 1 .2v.3h-3.3v-.3c.4-.1.6-.2.9-.4.2-.2.5-.8.8-1.6l3.6-7.9h.1l3.6 8.1c.3.8.6 1.3.8 1.5s.4.2.7.3v.3h-4.8v-.3h.2c.4 0 .7-.1.8-.2s.2-.2.2-.3v-.3s-.1-.2-.2-.5zm-.2-.5-1.5-3.4-1.5 3.4zM132.1 130.4l-5.8 9.9h1.9c.9 0 1.5-.1 1.9-.2.6-.2 1.1-.5 1.5-1s.7-1.1.9-1.9h.3l-.4 3.6h-9.1l5.8-9.9h-1.5c-.5 0-.7 0-1.1.1s-.7.2-1 .4-.4.4-.7.8c-.2.4-.4.7-.5 1.2h-.3l.3-2.9h7.8zM139.2 137.8h-3.5l-.4 1c-.1.3-.2.7-.2.9q0 .45.3.6c.1.1.5.1 1 .2v.3H133v-.3c.4-.1.6-.2.9-.4.2-.2.5-.8.8-1.6l3.6-7.9h.1l3.6 8.1c.3.8.6 1.3.8 1.5s.4.2.7.3v.3h-4.8v-.3h.2c.4 0 .7-.1.8-.2s.2-.2.2-.3v-.3s-.1-.2-.2-.5zm-.3-.5-1.5-3.4-1.5 3.4zM150 134.5l3.5 4.5c.5.6.9 1 1.3 1.3.3.2.5.2.8.2v.3h-5.2v-.3c.3 0 .5-.1.6-.2s.1-.2.1-.3c0-.2-.2-.6-.7-1.2l-2.3-3-.4.3v3c0 .5 0 .8.1 1s.2.2.3.3.4.1.8.1v.3h-5v-.3h.3c.3 0 .5-.1.7-.2.1-.1.2-.2.3-.4.1-.1.1-.4.1-.9v-6.6c0-.5 0-.8-.1-1s-.2-.3-.3-.3c-.2-.1-.4-.1-.7-.1h-.3v-.3h4.9v.3c-.3 0-.6 0-.8.1s-.2.2-.3.3-.1.4-.1.9v2.9l3.5-2.8c.5-.4.8-.6.9-.9.1-.2-.1-.5-.4-.5h-.7v-.3h3.9v.3c-.3 0-.6.1-.8.2s-.7.4-1.4 1zM159.5 135.9v3.2c0 .5 0 .8.1 1l.3.3c.2.1.4.1.7.1h.3v.3h-5.2v-.3h.3c.3 0 .5-.1.7-.2.1-.1.2-.2.3-.4.1-.1.1-.4.1-.9v-6.5c0-.5 0-.8-.1-1s-.2-.2-.3-.3c-.2-.1-.4-.1-.7-.1h-.3v-.4h5.2v.4h-.3c-.3 0-.5.1-.7.2-.1.1-.2.2-.3.4-.1.1-.1.4-.1.9v2.7h3.5v-2.8c0-.5 0-.8-.1-1l-.3-.3c-.2-.1-.4-.1-.7-.1h-.3v-.4h5.2v.4h-.3c-.3 0-.5.1-.7.2-.1.1-.2.2-.3.4-.1.1-.1.4-.1.9v6.5c0 .5 0 .8.1 1l.3.3c.2.1.4.1.7.1h.3v.3h-5.2v-.3h.3c.3 0 .5-.1.7-.2.1-.1.2-.2.3-.4.1-.1.1-.4.1-.9v-3.1zM174.3 130.3v3.5h-.4c-.1-.8-.5-1.5-1-2-.6-.5-1.2-.8-1.8-.8-.5 0-.9.1-1.2.4s-.4.6-.4.9c0 .2.1.4.2.6s.4.5.7.7c.2.2.8.4 1.6.9 1.2.6 1.9 1.1 2.4 1.6.4.5.6 1.1.6 1.7 0 .8-.3 1.5-1 2.1-.6.6-1.5.9-2.5.9-.3 0-.6 0-.9-.1s-.6-.2-1-.4c-.2-.1-.4-.1-.6-.1-.1 0-.3 0-.4.1s-.3.2-.3.4h-.3v-3.8h.3q.3 1.65 1.2 2.4c.6.6 1.3.8 2 .8.5 0 1-.1 1.3-.4s.5-.6.5-1c0-.2-.1-.5-.2-.7q-.15-.3-.6-.6c-.3-.2-.7-.5-1.3-.8-.9-.4-1.6-.8-1.9-1.1-.4-.3-.7-.7-.9-1-.2-.4-.3-.8-.3-1.3 0-.8.3-1.5.9-2s1.3-.8 2.2-.8c.3 0 .6 0 .9.1.2.1.4.2.7.3.4.2.6.2.7.2s.2 0 .3-.1.1-.3.1-.6h.4M184.9 130.7v2.7h-.3c-.2-.6-.3-1.1-.5-1.3-.2-.3-.5-.5-.8-.6-.2-.1-.5-.1-1-.1h-.7v7.7c0 .5 0 .8.1 1l.3.3c.2.1.4.1.7.1h.3v.3h-5.2v-.3h.3c.3 0 .5-.1.7-.2.1-.1.2-.2.3-.4.1-.1.1-.4.1-.9v-7.7h-.7c-.7 0-1.2.1-1.5.4-.4.4-.7 1-.8 1.7h-.2v-2.7zM190.6 137.8h-3.5l-.4 1c-.1.3-.2.6-.2.8q0 .45.3.6c.1.1.5.1 1 .2v.3h-3.3v-.3c.4-.1.6-.2.9-.4.2-.2.5-.7.8-1.5l3.6-7.9h.1l3.6 8.1c.3.8.6 1.3.8 1.5s.4.2.7.3v.3h-4.8v-.3h.2c.4 0 .7-.1.8-.2s.2-.2.2-.3v-.3s-.1-.2-.2-.5zm-.3-.5-1.5-3.4-1.5 3.4zM203.8 136.9v-4.3q0-.9-.3-1.2c-.2-.3-.6-.4-1.2-.4v-.3h3.3v.3c-.4.1-.7.1-.8.2s-.3.2-.3.4c-.1.2-.1.5-.1 1v8.2h-.2l-6.7-8.2v6.4c0 .6.1 1 .4 1.2s.6.3.9.3h.2v.3h-3.5v-.3c.5 0 .9-.1 1.1-.3s.3-.6.3-1.1V132l-.2-.3c-.2-.3-.4-.4-.6-.5s-.4-.1-.7-.1v-.3h3.5" class="st1"/></g></g><path d="M113 115.7h-.9c-.2 0-.4-.2-.4-.4s.2-.4.4-.4h.9c.2 0 .4.2.4.4 0 .3-.2.4-.4.4M137.2 115.7h-.7c-.2 0-.4-.2-.4-.4s.2-.4.4-.4h.7c.2 0 .4.2.4.4s-.2.4-.4.4" class="st1"/><path d="M142.1 184.5c0-9.6-7.8-17.5-17.5-17.5-9.6 0-17.5 7.8-17.5 17.5 0 9.6 7.8 17.5 17.5 17.5s17.5-7.9 17.5-17.5m-23.8-62.3-.6-6.1c0-.4.3-.9.8-1 .5.1 1 .4 1 .9l.5 6.2zm-6.5 77.6c-.4 0-.8.4-.8.8s.4.8.8.8.8-.4.8-.8-.4-.8-.8-.8m10.6 16.7-.1 1 .6-.5zm-1.3.9.1-1-.6.5zm-1.4-1.5-.1.8.8-.7c-.3 0-.5-.1-.7-.1M82.1 147q.75-1.95 1.8-3.6c.5-.8 1.1-1.4 1.7-2.1 2.7-3.3 6.1-5.6 10.4-6.3 2.2-.4 5-.2 7.1.6 1.6.6 2.9 1.5 4 2.8l1-.3v-1.7c-4.6-4.7-12-3.6-17.2-.5-5.7 3.4-9.8 9.5-10.1 16.2.5-1.8.7-3.4 1.3-5.1m-16.5 7.5.8-.3 4.8.6c.1.2.2.4.2.6v.2c-.1.3-.2.5-.5.7l-4.7-1.2zm2.3-5.7.3.5 4.1 1.7c.2-.1.4-.3.5-.5v-.4c0-.2 0-.3-.1-.4l-4.2-1zm-3.8 12.1.9-.6h5.6c.3.2.4.5.4.9v.1c0 .3-.2.7-.5.9l-5.6-.7zm6.6 5.6c.5.2.8.6.9 1.1v.2c0 .5-.2.9-.6 1.1l-6.6.1-1-.5 1-.8zm2.8-25.6 1.6 1.1c-.4.7-.7 1.4-1 2.1l-2.3-.9c.2-.9.8-1.8 1.7-2.3m-2.7 4.2 2.3 1.3-.9 2.4-3.1-.8c0-1.2.7-2.2 1.7-2.9m-2.5 4.9 3.1 1.3-.6 2.7-3.8-.5v-.5c0-1.2.5-2.2 1.3-3m-1.8 5.8 3.8.9-.3 2.9h-4.5c-.1-.4-.2-.7-.1-1.1 0-1 .4-2 1.1-2.7m-1.3 6.4 4.7.6.1 3.2-5.3 1c-.3-.6-.5-1.3-.5-2 .1-1.1.4-2 1-2.8m24.6 29.7c-.5 1.4-1.2 2.8-1.9 4.1l-1.2-1.9c.3-.7.7-1.3 1-2l-1.5-1.6zl-1.4-1.5.6-2.1-1.8-1.3 3.8.6-1.7-1.3c0-.7.1-1.4.1-2.2l-2.1-.9 4-.2c0 1.3 0 2.6-.1 3.7 0 .3-.1.5-.1.8-.3 1.5-.7 3-1.3 4.4m-4 4-1.2-1.9 3.4 2.1c-.7 1.3-1.4 2.5-2.2 3.7l-1.2-2c.4-.6.8-1.3 1.2-1.9m1.9 11.3-.5 1.8-5.1-4.1 4.8 5c-.2.9-.4 1.8-.7 2.6l-4.9-6.6-.1.1-.2.2-4.4-1.8h2.9c.4-.6.9-1.2 1.4-1.8l-1.1-2.1 3.5 2.7-1.2-2.1c.5-.6.9-1.2 1.4-1.8l-1.2-2 3.5 2.4c-.4.7-.9 1.4-1.3 2 1.5-.2 3-.6 4.3-1.4-.2 2.3-.4 3.9-.8 6.1l-4.9-2.8zm2.6-38.4v-.8c-.3-1.9-.7-3.9-1-5.8-.3-1.2-.7-3-.8-4.2-.1-.8-.1-1.6-.1-2.3 0-5.4 3.6-9.6 9.2-9.6 1.4 0 2.8.2 4 .9l1.3-.3v-1.2c-1.2-.7-2.5-1-3.9-1.1-.8-.1-1.6 0-2.5.1-5.2.9-9.1 4.7-9.1 10.1 0 2.6.6 4.9 1.2 7.3.4 1.3.9 2.6 1.2 4 .2 1 .4 2 .5 2.9m-.7 5.3-.1-1 .1-1.1c.1-2-.2-3.9-.7-5.8-.3-1.4-.9-2.6-1.2-3.9-.7-2.6-1.3-4.8-1.3-7.5 0-2.1.5-3.9 1.4-5.6 3.7-7 12.7-8.6 18.6-3.9.2-4.7-3.5-7.9-8.1-8.2-.9 0-1.9 0-2.8.1-4 .5-6.7 2.3-9.1 4.6-.6.7-1.2 1.3-1.7 2.1-.7 1-1.3 2.2-1.7 3.4-.8 2.1-1 4.2-1 6.4 0 2.8.4 5.1 1.3 7.4.7 2 1.7 3.9 2.9 5.7.5.9 1.1 1.7 1.7 2.6.7 1.1 1.3 2.4 1.8 3.6zm20.3 26.9v-.1c-4.5-.8-8.2-2.4-11.5-4.6 3.2 1.7 5.8 2.7 9.1 3.4h.1zm0-.8c0-.1.1-.3.1-.4l-.3.4zm6.4 1.1-4.9 10.4c-.4-.2-.9-.4-1.3-.7l5.6-10zm-2.1-1.2.6.4-5.8 9.9c-.4-.3-.8-.5-1.3-.8l5-7.3c.5-.3.9-.8 1-1.5zm-2.5-2c.2.2.5.4.7.6-.2-.1-.4-.1-.5-.1-.3 0-.6.1-.9.2zm-1.2-1.2.5.5-2.5 2.5c-.4-.1-.8-.2-1.1-.3zm-1-1.3c.1.2.3.4.4.6l-3.7 3.1c-.4-.1-.8-.3-1.2-.4zm-.9-1.3c.1.2.2.4.4.6l-5.1 3.5c-.4-.2-.9-.4-1.3-.6zm-.8-1.5.3.6-6.7 3.8c-.4-.2-.9-.5-1.3-.7zm23.1-70.6.6-6.1c0-.4-.3-.9-.8-1-.5.1-1 .4-1 .9l-.5 6.2zm6.5 77.6c.4 0 .8.4.8.8s-.4.8-.8.8-.8-.4-.8-.8.4-.8.8-.8m-10.6 16.7.1 1-.6-.5zm1.3.9-.1-1 .6.5zm1.5-1.5.1.8-.8-.7c.2 0 .4-.1.7-.1m37.5-68.9q-.75-1.95-1.8-3.6c-.5-.8-1.1-1.4-1.7-2.1-2.7-3.3-6.1-5.6-10.4-6.3-2.2-.4-5-.2-7.1.6-1.6.6-2.9 1.5-4 2.8l-1-.3v-1.7c4.6-4.7 12-3.6 17.2-.5 5.7 3.4 9.8 9.5 10.1 16.2-.5-1.8-.7-3.4-1.3-5.1m16.5 7.5-.8-.3-4.8.6c-.1.2-.2.4-.2.6v.2c.1.3.2.5.5.7l4.7-1.2zm-2.3-5.7-.3.5-4.1 1.7c-.2-.1-.4-.3-.5-.5v-.4c0-.2 0-.3.1-.4l4.2-1zm3.8 12.1-.9-.6h-5.6c-.3.2-.4.5-.4.9v.1c0 .3.2.7.5.9l5.6-.7zm-6.6 5.6c-.5.2-.8.6-.9 1.1v.2c0 .5.2.9.6 1.1l6.6.1 1-.5-1-.8zm-2.8-25.6-1.6 1.1c.4.7.7 1.4 1 2.1l2.3-.9c-.2-.9-.8-1.8-1.7-2.3m2.7 4.2-2.3 1.3.9 2.4 3.1-.8c0-1.2-.7-2.2-1.7-2.9m2.5 4.9-3.1 1.3.6 2.7 3.8-.5v-.5c0-1.2-.4-2.2-1.3-3m1.8 5.8-3.8.9.3 2.9h4.5c.1-.4.2-.7.1-1.1 0-1-.4-2-1.1-2.7m1.3 6.4-4.7.6-.1 3.2 5.3 1c.3-.6.5-1.3.5-2-.1-1.1-.4-2-1-2.8m-24.6 29.7c.5 1.4 1.2 2.8 1.9 4.1l1.2-1.9c-.3-.7-.7-1.3-1-2l1.5-1.6zl1.4-1.5-.6-2.1 1.8-1.3-3.8.6 1.7-1.3c0-.7-.1-1.4-.1-2.2l2.1-.9-4-.2c0 1.3 0 2.6.1 3.7 0 .3.1.5.1.8.3 1.5.7 3 1.3 4.4m4 4 1.2-1.9-3.4 2.1c.7 1.3 1.4 2.5 2.2 3.7l1.2-2c-.4-.6-.8-1.3-1.2-1.9m-1.8 11.3.5 1.8 5.1-4.1-4.8 5c.2.9.4 1.8.7 2.6l4.9-6.6.1.1.2.2 4.4-1.8h-2.9c-.4-.6-.9-1.2-1.4-1.8l1.1-2.1-3.5 2.7 1.2-2.1c-.5-.6-.9-1.2-1.4-1.8l1.2-2-3.5 2.4c.4.7.9 1.4 1.3 2-1.5-.2-3-.6-4.3-1.4.2 2.3.4 3.9.8 6.1l4.9-2.8zm-2.7-38.4v-.8c.3-1.9.7-3.9 1-5.8.3-1.2.7-3 .8-4.2.1-.8.1-1.6.1-2.3 0-5.4-3.6-9.6-9.2-9.6-1.4 0-2.8.2-4 .9l-1.3-.3v-1.2c1.2-.7 2.5-1 3.9-1.1.8-.1 1.6 0 2.5.1 5.2.9 9.1 4.7 9.1 10.1 0 2.6-.6 4.9-1.2 7.3-.4 1.3-.9 2.6-1.2 4-.2 1-.3 2-.5 2.9m.7 5.3.1-1-.1-1.1c-.1-2 .2-3.9.7-5.8.3-1.4.9-2.6 1.2-3.9.7-2.6 1.3-4.8 1.3-7.5 0-2.1-.5-3.9-1.4-5.6-3.7-7-12.7-8.6-18.6-3.9-.2-4.7 3.5-7.9 8.1-8.2.9 0 1.9 0 2.8.1 4 .5 6.7 2.3 9.1 4.6.6.7 1.2 1.3 1.7 2.1.7 1 1.3 2.2 1.7 3.4.8 2.1 1 4.2 1 6.4 0 2.8-.4 5.1-1.3 7.4-.7 2-1.7 3.9-2.9 5.7-.5.9-1.1 1.7-1.7 2.6-.7 1.1-1.3 2.4-1.8 3.6zM139.3 201v-.1c4.5-.8 8.2-2.4 11.5-4.6-3.2 1.7-5.8 2.7-9.1 3.4h-.1zm-.6-4.1 3.1 2.7c-.4.1-.7.2-1.1.3l-2.5-2.5c.2-.1.3-.3.5-.5m1-1.3 4.5 3.3c-.4.1-.8.3-1.2.4l-3.7-3.1c.1-.2.3-.4.4-.6m.9-1.3 6 3.6c-.4.2-.8.4-1.3.6l-5.1-3.5c.2-.3.3-.5.4-.7m.8-1.5 7.7 3.7c-.4.3-.9.5-1.3.7l-6.7-3.8c.1-.1.2-.4.3-.6m-23.7 9.2-4 10.7c-.5-.2-.9-.4-1.4-.6l4.8-10.4zm1.6.5-3.1 11.1c-.5-.1-1-.3-1.4-.4l3.8-10.8zm1.6.4-2.1 11.3-1.5-.3 2.9-11.1zm.9.2.7.1-1.1 11.4c-.5-.1-1-.1-1.5-.2zm1.6.1h.7L124 217l-1.5-1.8zm2.4 0 .9 12-1.5 1.8-.1-13.8zm1.6-.1 1.9 11.3c-.5.1-1 .1-1.5.2l-1.1-11.4c.2-.1.5-.1.7-.1m1.6-.4 2.9 11.1-1.5.3-2.1-11.3c.3 0 .5 0 .7-.1m1.6-.4 3.8 10.8c-.5.2-.9.3-1.4.4l-3.1-11.1c.2 0 .5 0 .7-.1m1.5-.6 4.8 10.4c-.5.2-.9.4-1.4.6l-4-10.7zm1.5-.7 5.6 10c-.4.2-.9.5-1.3.7l-4.9-10.4zm1.4-.9.5.7c.1.6.5 1.2 1 1.5l5 7.3c-.4.3-.8.5-1.3.8l-5.8-9.9c.2-.1.4-.2.6-.4m3.3-1.3c-.3-.1-.6-.2-.9-.2-.2 0-.4 0-.6.1.2-.2.5-.4.7-.7zm1 1.4c0-.1-.1-.3-.1-.4l.3.4zm45.1-30.5-5.6-.1-.6 2.7c.6.3 1.2.7 1.8 1.1 1.1.7 2 1.1 3.3 1.5.2 0 .5-.1.6-.1s.3-.1.4-.1c.5-.8.8-1.8.7-2.7 0-.8-.2-1.6-.6-2.3M141.8 221l5 9.2c-6.7 3.3-14.2 5.1-22.2 5.1s-15.5-1.8-22.2-5.1l5-9.2c5.2 2.5 11 3.8 17.2 3.8 6.2.1 12-1.3 17.2-3.8m-34.5-3.2-7.9 13.5.6.3c7.6 4 16 6 24.6 6s17.1-2.1 24.8-6.1c.1-.1.3-.1.4-.2l-7.9-13.5-.5.2c-5.2 2.6-11 4-16.8 4s-11.5-1.3-16.7-3.9c-.2-.1-.3-.2-.5-.2zm42.2 17.3 1.3-2-.6-1c-7.9 4.2-16.6 6.4-25.6 6.4-8.9 0-17.6-2.3-25.5-6.4 0 0-.1 0-.1-.1l-.6 1 1.3 2 .4.2c7.7 3.7 16 5.6 24.5 5.6s16.9-1.9 24.5-5.6zm-2.6 4.5 1.8-3.1c-7.6 3.5-15.8 5.3-24.1 5.3-8.2 0-16.3-2-23.8-5.2l-.3-.1 1.8 3.1.7.3c6.9 2.8 14.3 4.1 21.7 4.1 7.6 0 15.1-1.4 22.1-4.2zm-72.8-17.7-.5-.6c-9.7-11.8-14.9-26.5-14.9-41.8 0-36.4 29.5-66 66-66s66 29.5 66 66c0 15.2-5.2 29.7-14.7 41.5-.1.1-.6.8-.7.9l-.6-.5c9.5-11.3 15.3-26 15.3-41.9 0-36-29.2-65.2-65.2-65.2s-65.2 29.2-65.2 65.2c0 16 5.7 30.6 15.3 41.9zm52.9-2.5c-.6.1-1.2.1-1.8.1v-2.2l1.8 1.5zm3.1-.4c-.6.1-1.2.2-1.8.2l-.1-.6 1.5-1.8zm3-.6c-.6.1-1.2.3-1.8.4l-.6-3.1c.5-.1 1-.2 1.6-.3zm2.9-.8c-.6.2-1.2.4-1.7.5l-.8-3.1c.5-.1 1-.3 1.5-.5zm2.8-1.2c-.5.3-1.1.5-1.7.7l-1.1-3 1.5-.6zm2.6-1.6c-.8.7-1.1.8-1.3 1l-.2.1-1.3-2.8c.5-.2 1-.5 1.4-.7zm-3.6-12.3c.5.6.5.9 1.3.9.9-.1 3.2-.3 2.7.5-.4.6-1 1.3-1.4 1.7l-.1.1q-.15.15 0 .3l.2.3c.1.2.2.2.5.2.9-.2 2.3-.3 3-.2.1 0 .4.1.5.2.1.3-.3.7-.4.9l-1.2 1.2-.2.2c-.1.2-.1.3 0 .5.1.1.2.2.2.3.1.2.3.4.6.3.2 0 .4-.1.6-.1 1.6-.2 3.8 0 4.4 1.6.3 1.3-.5 2.4-1.6 3.1.3-1 .8-3-.5-3.3-.5-.1-1.3.1-1.9.7l-1.4-2-.2-.2c-.1-.1-.2-.2-.2-.3 0 0 0-.1-.1-.1l-2-2.7-.1-.1-.2-.3zm-30 12.4 1.4-2.5c.5.3.9.5 1.4.7l-1.4 2.8zm-3.1-3c-.6-.5-1.4-.7-1.9-.7-1.3.3-.8 2.3-.5 3.3-1.1-.7-1.9-1.7-1.6-3.1.6-1.7 2.8-1.8 4.4-1.6.2 0 .4.1.6.1.3.1.4-.1.6-.3.1-.1.2-.2.2-.3.1-.2.1-.3 0-.5l-.2-.2-1.2-1.2c-.1-.1-.5-.6-.4-.9.1-.1.4-.2.5-.2.8-.1 2.1.1 3 .2.3 0 .4 0 .5-.2l.2-.3v-.3l-.1-.1c-.4-.4-1-1.1-1.4-1.7-.5-.8 1.8-.5 2.7-.5.3 0 .6 0 .7-.2.2-.2.4-.5.6-.7l-2.5 3.5-.2.3c0 .1-.1.1-.1.1l-2 2.7s0 .1-.1.1c-.1.1-.2.2-.2.3-.1.1-.1.2-.2.2zm5.7-9.9-.1.6h-.3c-2.6 0-6.8-.1-3.7 2.8-4.3-.2-4.8 1.3-3.2 2.9-1.4-.1-2.5-.1-3.8 1.1l-1.5 1.4L86.6 222c2.7 1.7 5.1 3.7 7.1 6.1l9.4-12.1c.2-.3.3-.4.3-1v-.4c0-.8.1-1.1.5-1.1s1 .8 1.8 1.6l.4.6.5.4.5.6.4.3c.1 0 .1.1.2.1 5.1 2.6 10.8 4.1 16.9 4.1s11.8-1.5 16.9-4.1c.1 0 .1-.1.2-.1l.3-.3 10.6 17.6-1.7.1-3.4 5.6 1.8 3.7 4.2 1.1 1.8-1-2.6-3.4-.4.3.3 1-1.2-.3-.5-1.4 1-1.5 7.4 7.4c1.1-.3 2-.9 2.7-1.7l-3.6-9.8 1.8-.3 1.1 1.1-.3 1.2-.8-.7-.4.2 1.9 3.8 1.7-1.2.8-4.2-2.5-2.8-6.8.7-.6 1-11.3-17.4.4-.6c.8-.9 1.4-1.6 1.8-1.6s.5.3.5 1.1v.4c0 .6.1.7.3 1l9.4 12.1c2.1-2.3 4.4-4.4 7.1-6.1L151.3 211l-1.5-1.4c-1.3-1.2-2.4-1.2-3.8-1.1 1.6-1.7 1-3.2-3.2-2.9 3-2.9-1.1-2.9-3.7-2.8h-.3l-.1-.6c.2-.2.3-.4.4-.6l.5-.1-.3.6.1.2h1.2c2.3 0 4.9.6 3.2 2.8h.9c.2-1.5.5-3.2.5-4.7l.6-.5h.8l.9-.7 1 .1.8-.9 1-.2.8-.7.8-.3.1.1c.2.3.4.6.7.9 1.3 1.8 2.3 3.3 2.8 4.7.6 1.7.9 3.2 1.2 4.6.8 2.7 2.7 4.7 5.6 6.4l.1-.3-.1-.1c-1.9-1.4-3.4-3.6-3.8-6-.9-5.2-1.7-6.3-4.9-10.4-1.5-1.9-2.7-3.8-3.3-6.2-.5-2-.8-4.4-.5-6.4.1-.7.3-1.3.4-1.9.3-1.2.8-2.4 1.3-3.6.5-1 .9-2 1.4-3 1.5-3.3 2.4-5.6 3-9.2.1-.6.2-1.2.2-1.9-.1-1.8-.9-3.8-1.8-5.3-.6-1-1.7-2.2-1.2-3.4.1-.4.3-.6.6-.8.4-.2 1-.2 1.4-.1.1 0 .2.1.4.1.2.2.4.4.5.6 0 0-.1 0-.1-.1-.3-.1-.9-.4-1.5-.4-.5 0-.8.2-1 .8-.3 1.1.7 2.3 1.2 3 1.1 1.7 1.7 3.8 1.9 5.5 0 .7-.1 1.3-.2 1.9-.6 3.7-1.4 5.7-3 9.3-.4.8-1 2.1-1.4 3-.5 1.2-1 2.3-1.3 3.5-.1.5-.3 1.4-.4 1.9-.3 2.2.1 4.6.5 6.3.6 2.5 1.9 4.4 3.2 6.1 3.3 4.2 4 5.1 5 10.6.4 2.3 1.7 4.3 3.6 5.7h.1l.6-.3c-.1-.3-.3-.6-.4-.9-1.7-1.5-1.9-3.3-2.2-5.7-.2-3.2-.3-4.1-2.9-7.6-1-1.3-2.3-2.5-3.4-4.2-.8-1.2-1.5-2.5-1.9-3.9-.3-1.1-.5-2.1-.5-3.2-.1-2 .2-3.4 1-5.7.5-1.6 1-3 1.7-4.6.8-1.8 2.4-5.3 3-8.7.5-2.8.8-4.6.6-7.2 0 .1 0 .3.1.4.3 1.8.1 4.5.1 6.5.3-3.6.6-7.1 0-9.1-.3-1.5-1.1-3.6-2-4.9-1.3-1.7-3.3-2.8-5.4-2.8-1.6 0-2.9.6-4 1.7.9-2.5 2.8-4 5.2-4.1 4.1-.3 7.4 3.3 8 7.2.1.8.1 1.3 0 2.1 0 .6-.5 2.7-.8 4.1s-.9 4.5-1.1 5.8v2.1c.1 2.5.1 4.5.8 7-.1.5-.3 1-.4 1.4-.3 1.6-.5 3.1-.5 4.5l2-.9c.1-.7.1-1.4.3-2.2l2.4-.4-4.1-1 2.2-.5c.2-.7.5-1.3.8-2l2.6.1-4.1-1.9 2.4.1c.3-.6.7-1.2 1.2-1.9l2.5.7-3.9-2.9 2.5.7c.5-.6.9-1.1 1.4-1.7l2.6.7-4.1-3.1 2.7.8q.6-.75 1.2-1.8l2.7.4-4.6-2.6 2.8.4c.3-.7.6-1.3.9-1.9h2.9l-5.1-1.9h3c.3-.7.5-1.4.7-2.1l2.9-.4-5.5-1.2 3-.3c.1-.7.2-1.5.3-2.2l2.9-.8-5.7-.4 2.9-.8q0-1.5-.3-3l-2.8 1.6c0-.1 0-.3-.1-.4l2.8-1.6 2.9-2.8.1.2 3.2-1.8.3-.5-.5-.1-3.1 1.2h-.3l-2.9 1.8-2.4 2.8c-.7-3.6-2.2-7-4.3-9.9-3.4-4.6-9.4-8.8-15.2-9.2-3.6-.2-7.2.8-10.2 3.1 0-.3-.1-.6 0-1 .1-5 4.3-8.3 9.2-8.5 8.6-.5 16 5.2 21 12 .1.2.2.3.3.5l.4.5.2.4.3.4 1.7-1.5.1-.4h-.5l-.2-.7c-3.8-4.1-8.1-7.7-12.8-10.7l-.5.3c-.6-.4-1.3-.7-2-1-6.9-3.2-15.5-3-19.5 4.4-.9 1.7-1.4 3.5-1.3 5.5.1 2.1.7 4.2 1.8 6 .6-1.6 1.5-2.9 2.4-3.9v2.7l2.2.6c-1.2 1.7-1.7 4.3-1.3 6.4.2 1.1.7 2.2 1.3 3.2.8-1.7 1.9-2.9 3.3-3.8v2.3l2.2.6c-2.8 1.7-3.7 5.6-1.8 8.4.5-1.1 1.4-2 2.4-2.5 1.5-.7 3-.7 4.5-.1.3.1.6.3.9.4-1.9.2-4.1 1.7-3.7 3.9.1.4.6 1 .8 1.4-.3-.2-.7-.3-1.4-.5-2-.2-3.7 1.1-3.8 2.8-.2 3.2 3.8 5.3 5.3 2.1 1.1.8 1.6 2 2.1 3.1-.4-.7-1.2-1.2-2.1-1.2-1.4 0-2.5 1.1-2.5 2.5 0 .6.2 1.1.5 1.5.1.2.3.3.5.5.3.2.7.3 1.1.3.5 0 1-.2 1.3-.6.4.6.6 1.4.5 2.3-.3-.5-.9-.8-1.5-.8-1 0-1.8.8-1.8 1.8 0 .4.2.8.4 1.1l.3.3c.2.1.4.2.7.2h.2c.2.5-.1 2-.3 2.9 0 .2-.1.3-.2.5q-.9 1.95-1.5 3.6c-.6 1.65-.7 2.5-.8 3.7-.1.8 0 1.5 0 2.4.1 2.8 1.1 5.1 2.6 7.5-.2.2-.5.3-.7.5-.1-.2-.2-.3-.3-.5l-7.8-3.5c.1-.2.2-.5.3-.7l6.6 2.5c-.2-.4-.4-.9-.6-1.3l-5.7-2c.1-.2.2-.5.2-.7l5 1.4c-.1-.4-.2-.8-.3-1.1l-4.5-1.2c.1-.2.1-.5.2-.7l4.2.8c0-.3-.1-.7-.1-1l-3.9-.7c0-.3.1-.5.1-.8l3.8.4v-1l-3.7-.3v-.8h3.7c0-.3.1-.7.1-1h-3.9v-.8l4.1-.3c.1-.4.2-.7.3-1l-4.5.4c0-.2-.1-.5-.1-.7l4.9-.8.1-.2c0-.1.2-.5.4-1l-5.5 1c0-.2-.1-.5-.2-.7l6.2-1.6c.2-.5.4-1 .5-1.2v-.1l-6.9 1.9c-.1-.2-.1-.5-.2-.7l7.4-2.6v-.2l-.6-.3c-.3-.2-.2-.1-.4-.3l-6.8 2.6c-.1-.2-.2-.5-.3-.7l6.5-3c-.1-.3-.1-.5-.1-.8v-.3l-6.8 3.3c-.1-.2-.2-.4-.3-.7l8-4.5-.1-.1c-.3-.2-.5-.4-.7-.7v-.1l-7.6 4.5c-.1-.2-.3-.4-.4-.6l7.4-5.1c-.1-.3-.1-.5-.1-.8v-.5l-7.9 5.6c-.1-.2-.3-.4-.5-.6l8.2-6.7c-.4-.2-.7-.4-1-.6l-7.7 6.6c-.2-.2-.3-.4-.5-.5l7.3-7.1c-.2-.3-.4-.7-.5-1.1L138 170c-.2-.2-.4-.3-.5-.5l7.8-9.1c.3-1.5 1.3-2.7 2.7-3.2l2.2-2.6c.2-.4.6-.8.9-1.1l.2-.2c-.7 0-1.4.1-2 .4-.1 0-.1.1-.1.1l-2.1 2.5-.5 1-.2-.2-9.7 11.8c-.2-.2-.4-.3-.6-.4l9.2-12.9c-.2-.4-.4-.9-.6-1.3l-9.4 13.7c-.2-.1-.4-.3-.6-.4l9.7-16.5c.2-1.3.7-2.5 1.6-3.5l-1.1.1-11 19.5-.6-.3 8.6-18.1-.1-.2c-.3-.4-.5-.8-.7-1.2l-8.7 19c-.2-.1-.4-.2-.7-.3l8.4-22.4c-.1-1.6.3-3.3 1-4.7l-.7-.1-9.5 26.9c-.2-.1-.4-.1-.7-.2l7.1-25.7-.2-.3c-.3-.5-.6-1-.8-1.5l-7 27.3c-.2-.1-.5-.1-.7-.2l9.1-49.1c.1-.4-.3-.9-.7-1.1-.5 0-1 .4-1.1.8l-8.2 49.2c-.2 0-.5-.1-.7-.1l4.1-42.7-1.8 1.4-.4 4.7.5 1.8-.6-.5-2.8 35.3h-.7l.3-37.4-.8-.6-.8.6.3 37.4h-.7l-2.8-35.3-.6.5.5-1.8-.4-4.7-1.8-1.4 4.1 42.7c-.2 0-.5.1-.7.1l-8.2-49.2c-.1-.4-.4-.9-1.1-.8-.6.1-.8.7-.7 1.1l9.1 49.1c-.2 0-.5.1-.7.2l-7-27.3c-.2.5-.5 1-.8 1.5l-.2.3 7.1 25.7c-.2.1-.4.1-.7.2l-9.5-26.9-.7.1c.7 1.4 1 3.2 1 4.7l8.4 22.4-.6.3-8.7-19c-.2.4-.4.8-.7 1.2l-.1.2 8.6 18.1-.6.3-11-19.5-1.1-.1c.9 1 1.4 2.2 1.6 3.5l9.7 16.5c-.2.1-.4.2-.6.4l-9.4-13.7c-.1.5-.3.9-.6 1.3l9.2 12.9c-.2.1-.4.3-.6.4l-9.7-11.8-.2.2-.5-1-2.1-2.5-.1-.1c-.6-.3-1.3-.5-2-.4l.2.2c.4.3.7.7.9 1.1l2.2 2.6c1.4.5 2.4 1.6 2.7 3.2l7.8 9.1-.5.5-7.4-7.6c-.1.4-.3.8-.5 1.1l7.3 7.1-.5.5-7.7-6.6c-.3.3-.7.5-1 .6l8.1 6.7c-.1.2-.3.4-.4.6l-7.9-5.6v.5c0 .3 0 .5-.1.8l7.4 5.1c-.1.2-.3.4-.4.6l-7.6-4.5v.1c-.2.2-.4.5-.7.7l-.1.1 8 4.5-.3.6-6.8-3.2v.3c0 .3 0 .5-.1.8l6.5 3-.3.6-6.8-2.6c-.1.2 0 .1-.4.3l-.6.3v.2l7.4 2.6c-.1.2-.1.4-.2.7l-6.9-1.9v.1c.1.2.3.6.5 1.2l6.2 1.6c-.1.2-.1.5-.2.7l-5.5-1c.2.5.3.8.4 1l.1.2 4.9.8c0 .2-.1.5-.1.7l-4.5-.4c.1.3.2.7.3 1l4.1.3v.7H102c.1.3.1.7.1 1h3.7v.7l-3.7.3v1l3.8-.4c0 .2.1.5.1.7l-3.9.7c0 .4 0 .7-.1 1l4.2-.8c0 .2.1.5.2.7l-4.5 1.2c-.1.4-.2.8-.3 1.1l5-1.4c.1.2.1.4.2.7l-5.7 2c-.2.5-.4.9-.6 1.3l6.6-2.5.3.6-7.8 3.5c-.1.2-.2.3-.3.5-.2-.2-.5-.3-.7-.5 1.5-2.4 2.5-4.7 2.6-7.5q.15-1.2 0-2.4c-.1-1.2-.4-2.5-.8-3.7q-.45-1.65-1.5-3.6c-.1-.2-.1-.3-.2-.5-.2-.9-.6-2.5-.3-2.9h.2c.3 0 .5-.1.7-.2l.3-.3c.3-.3.4-.7.4-1.1 0-1-.8-1.8-1.8-1.8-.6 0-1.2.3-1.5.8 0-.9.2-1.7.5-2.3.3.4.8.6 1.3.6.4 0 .8-.1 1.1-.3.2-.1.3-.3.5-.5.3-.4.5-.9.5-1.5 0-1.4-1.1-2.5-2.5-2.5-.9 0-1.7.5-2.1 1.2.5-1.1.9-2.3 2.1-3.1 1.5 3.2 5.6 1.1 5.3-2.1-.1-1.8-1.8-3.1-3.8-2.8-.7.1-1.2.3-1.4.5.3-.3.8-.9.8-1.4.4-2.2-1.7-3.7-3.7-3.9.3-.2.6-.3.9-.4 1.5-.6 3-.6 4.5.1 1 .5 1.9 1.4 2.4 2.5 1.9-2.7 1.1-6.7-1.8-8.4l2.2-.6v-2.3c1.4.9 2.5 2.1 3.3 3.8.7-1 1.1-2.1 1.3-3.2.4-2.1-.2-4.7-1.3-6.4l2.2-.6v-2.7q1.5 1.65 2.4 3.9c1.1-1.8 1.8-3.9 1.8-6 .1-2-.4-3.9-1.3-5.5-4-7.5-12.7-7.6-19.5-4.4-.7.3-1.3.7-2 1l-.7.4c-4.8 3.1-8.1 5.9-12.1 10L77 136h-.5l.1.4 1.7 1.5.3-.4.2-.4.4-.5c.1-.2.2-.3.3-.5 4.9-6.7 12.3-12.4 21-12 5 .3 9.2 3.5 9.2 8.5v1c-2.9-2.3-6.6-3.3-10.2-3.1-5.8.3-11.8 4.6-15.2 9.2-2.1 2.9-3.6 6.3-4.3 9.9l-2.4-2.8-2.9-1.8h-.3l-3.1-1.2-.5.1.3.5 3.2 1.8.1-.2 2.9 2.8 2.8 1.6c0 .1 0 .3-.1.4l-2.8-1.6c-.2 1-.2 2-.3 3l2.9.8-5.7.4 2.9.8c.1.7.2 1.5.3 2.2l3 .3-5.5 1.2 2.9.4c.2.7.4 1.4.7 2.1h3l-5.1 1.9h2.9c.3.6.6 1.3.9 1.9l2.8-.4-4.6 2.6 2.7-.4q.6 1.05 1.2 1.8l2.7-.8-4.1 3.1 2.6-.7c.5.5.9 1.1 1.4 1.7l2.5-.7-3.9 2.9 2.5-.7c.4.6.8 1.3 1.2 1.9l2.4-.1-4.1 1.9 2.6-.1c.3.7.6 1.4.8 2l2.2.5-4.1 1 2.4.4c.1.7.2 1.5.3 2.2l2 .9c0-1.4-.2-2.9-.5-4.5-.1-.5-.2-1-.4-1.4.7-2.5.7-4.5.8-7v-2.1c-.2-1.4-.8-4.5-1.1-5.8-.3-1.4-.8-3.5-.8-4.1 0-.8-.1-1.3 0-2.1.6-3.9 3.9-7.5 8-7.2 2.5.1 4.4 1.6 5.2 4.1-1.1-1.1-2.4-1.7-4-1.7-2.1 0-4.1 1.2-5.4 2.8-1 1.3-1.7 3.3-2 4.9-.6 2-.2 5.6 0 9.1 0-2-.2-4.7.1-6.5 0-.1 0-.3.1-.4-.3 2.6 0 4.4.6 7.2.6 3.4 2.2 6.9 3 8.7.7 1.6 1.2 3 1.7 4.6.8 2.4 1 3.8 1 5.7 0 1.1-.2 2.2-.5 3.2-.4 1.4-1.1 2.7-1.9 3.9-1 1.6-2.3 2.9-3.4 4.2-2.6 3.5-2.8 4.4-2.9 7.6-.3 2.4-.5 4.2-2.2 5.7-.1.3-.3.6-.4.9l.6.3h.1c1.8-1.4 3.2-3.4 3.6-5.7.9-5.5 1.7-6.4 5-10.6 1.3-1.7 2.6-3.6 3.2-6.1.5-1.6.9-4.1.5-6.3-.1-.6-.3-1.4-.4-1.9-.3-1.2-.8-2.3-1.3-3.5-.4-.9-1-2.2-1.4-3-1.6-3.6-2.4-5.6-3-9.3-.1-.6-.2-1.2-.2-1.9.1-1.7.8-3.8 1.9-5.5.5-.7 1.5-1.9 1.2-3-.2-.5-.4-.7-1-.8-.6 0-1.2.2-1.5.4-.1 0-.1.1-.1.1.2-.2.3-.4.5-.6.1 0 .2-.1.4-.1.5-.1 1-.1 1.4.1.3.2.5.5.6.8.4 1.2-.6 2.4-1.2 3.4-1 1.5-1.7 3.5-1.8 5.3 0 .6.1 1.2.2 1.9.6 3.5 1.5 5.9 3 9.2.5 1 .9 2 1.4 3 .5 1.2 1 2.3 1.3 3.6.2.6.3 1.3.4 1.9.3 2 0 4.5-.5 6.4-.6 2.4-1.8 4.3-3.3 6.2-3.2 4.1-4 5.2-4.9 10.4-.4 2.4-1.8 4.6-3.8 6l-.1.1.1.3c2.9-1.7 4.9-3.7 5.6-6.4.3-1.4.7-2.9 1.2-4.6.5-1.4 1.5-2.9 2.8-4.7.2-.3.4-.6.7-.9l.1-.1.8.3.8.7 1 .2.8.9 1-.1.9.7h.8l.6.5c0 1.5.2 3.2.5 4.7h.9c-1.7-2.2.9-2.8 3.2-2.8h1.2l.1-.2-.3-.6.5.1c-.6-.2-.4 0-.3.2m1.7 15.2c-.6-.2-1.1-.5-1.7-.7l1.3-2.9 1.5.6zm2.9.9c-.6-.2-1.2-.3-1.7-.5l1.1-3c.5.2 1 .3 1.5.5zm2.9.7c-.6-.1-1.2-.2-1.8-.4l.8-3.1c.5.1 1 .2 1.6.3zm3 .5c-.6-.1-1.2-.2-1.8-.2l.4-2.1 1.5 1.8zm3.1.2c-.6 0-1.2-.1-1.8-.1v-.6l1.8-1.5zm-59.2-49.8 5.6-.1.6 2.7c-.6.3-1.2.7-1.8 1.1-1.1.7-2 1.1-3.3 1.5-.2 0-.5-.1-.6-.1s-.3-.1-.4-.1c-.5-.8-.8-1.8-.7-2.7 0-.8.2-1.6.6-2.3" class="st2"/><path d="M137.2 184.5c0-7-5.7-12.6-12.6-12.6-7 0-12.6 5.7-12.6 12.6 0 7 5.7 12.6 12.6 12.6 7 0 12.6-5.6 12.6-12.6m2.5 0c0-8.4-6.8-15.1-15.1-15.1-8.4 0-15.1 6.8-15.1 15.1 0 8.4 6.8 15.1 15.1 15.1s15.1-6.8 15.1-15.1" class="st2"/><path d="m123.441 184.462 1.202-1.202 1.202 1.202-1.202 1.202zM121.748 186.145l1.203-1.202 1.202 1.202-1.202 1.202zM125.046 182.844l1.202-1.203 1.202 1.203-1.202 1.202zM121.747 182.844l1.202-1.202 1.202 1.202-1.203 1.202zM120.142 184.472l1.202-1.202 1.202 1.202-1.202 1.202zM123.44 181.16l1.202-1.201 1.202 1.202-1.202 1.202zM125.05 186.145l1.201-1.202 1.202 1.202-1.202 1.202zM123.438 187.762l1.202-1.202 1.202 1.202-1.202 1.202zM126.74 184.461l1.201-1.202 1.202 1.202-1.202 1.202zM129.3 180.6v.4l-1.4 1.4-1.2-1.2 1.4-1.4h.4l3-3 .2-.6 1-1 1.2 1.2-1.1 1-.5.2zM127.6 179.3l-1.3 1.4-1.2-1.2 1.3-1.3.5-.1 2.8-2.8.2-.6.9-.9 1.4 1-1 1-.6.2-2.9 2.9zM130.9 182.6l-1.3 1.4-1.2-1.2 1.3-1.3.5-.1 2.9-2.9.2-.6 1-1 1 1.4-.9.9-.6.2-2.8 2.8zM128.5 189.2h-.4l-1.4-1.4 1.2-1.2 1.4 1.4v.4l3 2.9.5.2 1.1 1.1-1.2 1.2-1-1.1-.2-.5zM129.7 187.5l-1.3-1.4 1.2-1.1 1.3 1.3.1.4 2.8 2.9.5.1 1 .9-1 1.5-1-1.1-.2-.5-2.9-2.9zM126.4 190.8l-1.3-1.4 1.2-1.1 1.3 1.3.1.4 2.9 3 .5.2 1.1 1-1.4 1-.9-.9-.2-.6-2.8-2.8zM119.9 188.4v-.4l1.4-1.4 1.2 1.2-1.4 1.4h-.4l-3 3-.2.5-1 1.1-1.2-1.2 1.1-1.1.5-.2zM121.6 189.6l1.3-1.3 1.2 1.1-1.3 1.4-.5.1-2.8 2.8-.2.5-.9.9-1.4-.9 1-1 .6-.2 2.9-3zM118.3 186.3l1.3-1.3 1.2 1.1-1.3 1.4-.5.1-2.9 2.9-.2.5-1 1-1-1.4.9-.9.6-.1 2.8-2.9zM120.7 179.8h.4l1.4 1.4-1.2 1.2-1.4-1.4v-.4l-3-3-.5-.2-1.1-1 1.2-1.2 1 1 .2.6zM119.5 181.5l1.3 1.3-1.2 1.2-1.3-1.4-.1-.4-2.8-2.8-.5-.2-1-.9 1-1.4 1 1 .2.6 2.9 2.9zM122.8 178.2l1.3 1.3-1.2 1.2-1.3-1.4-.1-.4-2.9-2.9-.5-.2-1.1-1 1.4-1 .9.9.2.6 2.8 2.8zM105.4 215.6l-.1-.2c-.3-.3-.9-1-1.2-1.3v.6c0 .7 0 1-.4 1.6l-10 12.7-.5-.5c-2.1-2.3-4.4-4.3-7-5.9l-.6-.4 10.8-10.7-.5-.1-2.4 1.7-2.2-2.1c-1.1 1.4-2.7 2.5-4.2 3.5l-.7.4-1.2-1.6-10.3 8.7-5.3 4.4 1.9 2.3 4.9 1.4 4.9-4.8.4.4c1.8 1.8 3.5 3.3 5.5 5l7.3.7zM122.6 125.2l-2.9-2.2 3.7-.1 1.2-3.5 1.2 3.5 3.8.1-3 2.2 1.1 3.6-3.1-2.1-3.1 2.1z" class="st2"/><path d="m97.7 241.5.5-1.4-1-1.5-7.4 7.4c-1.1-.3-2-.9-2.7-1.7l3.6-9.8-1.8-.3-1.1 1.1.3 1.2.8-.7.4.2-1.9 3.8-1.7-1.2-.8-4.2 2.5-2.8 6.8.7.6 1 11.3-17.4.5.4.5.6-10.6 17.6 1.7.1 3.4 5.6-1.8 3.7-4.2 1.1-1.8-1 2.6-3.4.4.3-.3 1zM143.8 215.6l.1-.2c.3-.3.9-1 1.2-1.3v.6c0 .7 0 1 .4 1.6l9.8 12.7.5-.5c2.1-2.3 4.4-4.3 7-5.9l.6-.4-10.8-10.7.5-.1 2.4 1.7 2.2-2.1c1.1 1.4 2.7 2.5 4.2 3.5l.7.4 1.2-1.6 10.3 8.7 5.3 4.4-1.9 2.3-4.9 1.4-4.9-4.8-.4.4c-1.8 1.8-3.5 3.3-5.5 5l-7.3.7zM142.2 122.3l1.1-4c.1-.4-.2-.8-.7-1-.5 0-1 .1-1.1.5l-1.5 5.8c.7-.5 1.4-.9 2.2-1.3M148.7 121.1l.2-.6c.1-.4-.1-.9-.5-1.2-.5-.1-1 .2-1.2.6l-.4 1.3c.5-.1 1.2-.2 1.9-.1M125.5 119.4v-3.6c0-.4-.4-.8-.9-1-.5.1-.9.5-.9 1v3.6l.9-2.5zM176.6 173.7c.6.4 1.1.8 1.5 1.4 1.1 1.5 1.8 2.8 3.5 3.9.8.5 1.9 1 2.9 1.2 1.4.2 3-.2 3.2-2.4-.4.1-1.1.2-1.7.3-.6 0-1.8-.1-2.4-.2l-.9-.3c-3.7-1.1-4.5-3.8-6.1-3.9M173.1 185.9c.4.9 1.1 1.6 2.2 2.1.2.7.3 1.5.2 2.2-.6.4-.9 1.1-.9 1.9 0 .9.3 1.5.9 2 .5 1.8 1.1 3.5 1.5 5.3.6 2.6 1 5.3 1.1 8v.9c0 4.4-1.5 8.4-3.8 12.1l-.4.6-9.8-8.1 4.1-5.7v.1l5-2.1.1-.2c.9-2.1 1-4.1 1-6.4-.1-1.6-.4-3.2-.7-4.9-.5-1.8-.6-3.7-.6-5.5 0-.9 0-1.6.1-2.3" class="st2"/><path d="M172 173.9c.1 1.6.4 3.4.7 5l-1.1.6-1.3-.4c.2 1.4.5 2.8.9 4.1l-1.1.7-1.3-.3q.6 2.4 1.5 4.8l-1.1.7-1.4-.2c.6 1.6 1.3 3.2 2.3 4.8l-.9.8h-1.4l-.9.8h-1c1.6 2.3 3.5 4.9 5.3 7 .5.6 1.1 1.2 1.6 1.8.7-1.8.9-3.7.8-5.6-.1-1.6-.4-3.2-.7-4.8-.4-1.9-.6-3.8-.7-5.7-.1-4.1.6-7.5 3.5-10.5l.2-.2.1-.1h.1c1.3.3 2.2.7 3.4 1.5 1.3.9 2.7 1.8 4.2 2.5l.4-.8c-.9-.2-1.9-.7-2.7-1.2-1.8-1.2-2.7-2.8-4.1-4.3-.6-.6-1.2-.9-1.9-1.1-1-.3-2-.3-3-.1z" class="st2"/><path d="M176.6 173.7h.1c.7 0 2.3 1.2 2.6 1.4 1 1 2 1.7 3.4 2.1 1.2.4 2 .6 3.2 0 .4-.2.8-1.1.5-1.5-.2-.2-.6-.3-.9-.4s-.5-.1-.7 0c-.2 0-.5.1-.7.2-.3.1-.5.1-.7.1h-.1c-3.2-1.1-3.3-1.8-5.5-2.8l-.2-.1.1-.5c-.7-.6-2.9-1.2-4.5-1.2-2.7 0-5.7 1.3-7.1 2.4-2.4 2.9-3.9 6.6-4 10.8 0 .8 0 1.5.1 2.2.5-.5.8-1 1.1-1.5.6-.9.8-1.4 1.2-2.4 1.1-2.8 2.6-5.5 4.7-7.8 1.1-1.3 2.7-1.9 4.4-1.9.9 0 2 .3 3 .9" class="st2"/><path d="M172.6 164.7c.5-1 1-2.1 1.4-3.1l.3-.1 1.8 2.2zm-3.4 5.4c.1-.2.3-.4.4-.5.7-.9 1.3-1.9 1.9-2.8l1.8 2.2zm8.1-18.1-1.3.4v.2l1.5 1.8-.3.3v.1c-.1.2-.1.4-.1.7s.1.7.3.9c.3.4.5.5 1 .5l.1.9v.2l-1.3-1.5-1.7.5c-.2.9-.4 1.8-.7 2.7l.2.2 3.6-1 .1 1c-.2.1-.5.2-.7.4-.1.1-.2.3-.3.4l-1.7.5 1.8 2.2.8-.2-.1 3c-.1 0-.2 0-.4.1l-.8-1-4.1 1.2 1.8 2.2 1.9-.5c0 .5.2.9.5 1.2.1.1.2.1.3.2l-1.6.5 1.1 1.3h-.1c-1.1-.5-2.8-.8-4-.8-1 0-2.2.2-3.3.5-2 .7-2.6 1.5-3.8 2.7 1-1.4 2.3-2.7 3.3-4.1 4.9-6.7 7.1-13.8 6-23.1l.7 1.9v3c.1.2.2.3.4.4s.6 0 .8.1zM182.8 153.8c.3-.1.6-.4.7-.8-.1-.4-.4-.8-.7-.9.1.3.1.6.1.9s0 .6-.1.8M181.1 149.2c.2-.1.5 0 .8.1.3.3.4.8.3 1.1-.4-.4-.7-.8-1.1-1.2 0 .1-.1.1 0 0M184 156.4c.3-.1.7-.1 1.1.1.3.4.3 1 .1 1.3l-.6.7q-.15-1.2-.6-2.1M178.7 209.1h1.9c.4 0 .8.4 1 .9-.1.5-.5.9-1 .9h-1.7l.8 1.4c.2.4.1.9-.3 1.3-.5.1-1.1 0-1.3-.4.2-.7.3-1.4.4-2.2l.1-.8c.1-.3.1-.7.1-1.1M177.4 198.6c-.1-.5-.3-1.1-.4-1.6l4.5-1.2-1-1c.8.2 1.6.3 2.5.4 0-.1.1-.1.1-.2l.4.4 2.7-.7c.4-.1.9.2 1.2.7 0 .5-.3 1-.7 1.1l-1.7.4 1.1 1.1c.3.3.3.9 0 1.3-.5.3-1 .3-1.3-.1l-1.8-1.9-4.8 1.2 3 3.9 2.7-.4c.4-.1.9.3 1.1.8-.1.5-.4 1-.8 1l-1.7.2 1 1.2c.3.3.2.9-.2 1.3-.5.2-1.1.1-1.3-.2l-1.6-2.1-1.8.2c-.1-.6-.1-1.2-.2-1.7l.8-.1-1.1-1.5c-.1-.6-.3-1.3-.4-1.9-.2-.2-.2-.4-.3-.6M185 188l2.6-1c.4-.2.9.1 1.2.5.1.5-.2 1-.6 1.2l-1.6.6 1.2 1c.3.3.4.8.2 1.3-.4.3-1 .4-1.3.1l-2-1.7-1 .4h-.1c-.2-.6-.3-1.1-.4-1.7q-.15-1.05 0-2.1l.7.6zM185.6 180.6l2.4-1.3c.4-.2.9 0 1.3.4.1.5 0 1.1-.4 1.3l-1.5.8 1.3.8c.4.2.5.8.3 1.3-.4.4-.9.5-1.3.3l-2.2-1.4-1 .5.1-2.7h1M184.7 175.3h.6l.1-.1 2.4 1.1c.4.2.9 0 1.3-.4.1-.5-.1-1.1-.5-1.2l-1.4-.7 1.4-1c.4-.3.5-.8.3-1.3-.4-.3-1-.5-1.3-.2l-1.9 1.3c-.1.5-.2 1.1-.5 1.5-.1.1-.1.2-.2.3-.1.5-.2.6-.3.7M185.6 164.5l.5-.5c.3-.3.9-.3 1.3 0 .2.5.2 1-.1 1.3l-1.2 1.1 1.5.5c.4.1.7.6.6 1.2-.3.5-.8.7-1.2.6l-1.7-.6-.5-.4c0-.1.1-.1.1-.2.2-.4.4-.8.5-1.2s.2-.9.2-1.4zM184.5 159.1l1.1.2c.4.1.7.6.8 1.1-.2.5-.7.8-1.1.7l-.3-.1.2-.1-.9-.6c0-.3.2-.7.2-1.2M172.8 137.3l-.9.8c.3.5.8 1.3 1.1 1.9l1.4-.8c-.2-.8-.8-1.5-1.6-1.9M175.8 139.6l-.2.5-2.4 1.7-.2-.4-.3-.5 2.6-1.3zM153.6 182.6c-.7 1.3-.8 2.5-.1 4.1 1.2 2.5 3 4.3 5.4 5.6 0-.1-.1-.1-.1-.2-.4-1-.7-2.1-.9-3.2-2.4-1.6-3.8-3.7-4.3-6.3M157.5 187v-.2c-.1-1.3-.2-2.5-.1-3.8 0-1.6.2-3.1.6-4.6.1-.3.1-.5.2-.7-.5-1.1-.7-2.3-.8-3.5-.4.8-.9 1.6-1.2 2.1-.8 1.4-1.4 2.9-1.3 4.5-.2 2.7.8 4.6 2.6 6.2M153.2 188.8c-.1 2.3 1.4 4.3 3.2 5.8 1.6 1.2 2.9 2 4.7 2.5l-1.5-3c-2.7-1.2-4.9-2.9-6.4-5.3M163.4 200.8c-.5-.7-1-1.5-1.4-2.2-1.6-.3-2.9-.8-4.2-1.5 1.3 1.8 3.4 3.2 5.6 3.7M170 183.4l-.9-.2c-.5-2.1-.8-4.3-.8-6.5l.9-1.5.3-.2c.2 2.7.6 5.3 1.3 7.9zM170.7 178.7c-.2-1.4-.4-2.8-.4-4.2l.8-.7h.5c.1 1.6.4 3.2.6 4.8l-.6.4zM166.2 180l.9-2.1.3-.3c.2 3.6 1 7.2 2.2 10.5l-.7.4-1-.1c-.9-2.7-1.4-5.5-1.7-8.4M164.3 184l.9-2.4.3-.4c.5 4.5 1.6 8.4 3.9 12.4l-.6.5h-1c-1.7-3.1-2.9-6.7-3.5-10.1M163.6 184.9c.6 3.3 1.8 6.6 3.5 9.4l-.5.5h-.9c-.1-.2-.2-.4-.4-.5-1.6-2.3-2.6-5.1-2.9-7.8.3-.3.6-.7.8-1zM151.4 210.9l1.9-.3-1.7.4zM153.3 210.6l2.2 1.6v-.5zM155.5 212.2l2.3-2.2-2.3 1.7zM155.4 211.2l-1.7-.9c-.4-4.3-1.3-8.1-2.9-12l.5-.5.4-.1c.2.3.4.5.6.8 1 1.3 2.2 3 2.8 4.5.5 1.5.9 3.1 1.2 4.6.2.8.6 1.6 1 2.3zM149 199.4l.5-.6.5-.1c1.6 3.8 2.4 7.4 2.8 11.5l-1.3.2-1.3-1.3c-.1-.1-.2-.1-.2-.2 0-3-.2-6.7-1-9.5M149.1 208.3c-.4-.2-.8-.3-1.2-.4-.3 0-.6-.1-.9-.1.4-.7.5-1.4 0-2 .2-1.8.3-4 .1-5.8l.6-.5h.5c.7 2.7 1 6.1.9 8.8M146.2 200.3c.2 1.6.1 3.4-.1 5-.2-.1-.4-.1-.6-.2.2-1.6.5-3.3.5-4.9zM178.9 184.9c-.1.8-.6 1.6-1.2 2.2.5 1.2.8 2.5-.1 3.5l2.5.5v-2.4c0-1.5-.2-2.7-1.2-3.8" class="st2"/><path d="M183.4 190.5c-.8-2.5-.6-5.1.9-7.3l-.5-.7c-1.9 1.7-2.9 3.6-3.4 6.1v2.4z" class="st2"/><path d="m180.6 180.6 2.4 1.6-2.1 2.4-1.3-2zm3.5 10.8-.5-.8c-.3-.1-3 .4-3.4.5l-2.9-.6c.9-.9.9-2.1.2-3.6.9-.7 1.2-1.8 1.3-2.4-.8 1.2-1.3 1.7-2.5 1.8-1.3.1-2.3-1.3-2.3-2.7s1-2.8 2.4-2.7c.6 0 .9.2 1.6.6-.4-1.5-1.1-2.8-1.9-3.9l-.4 1.8c-2.1 2-3.9 6.5.1 8.1.4 1 .5 2.1.3 3.1-.6.3-.9.9-.9 1.5 0 .5.1 1.1.8 1.7.5.3 1.2.6 1.6.5-.4-.3-.6-.7-.7-1.2 0-.3-.1-.6-.1-.9 0-.5 0-.9.1-1.4h.1c1 .2 2 .4 2.9.6 1.5-.2 3-.6 4.2 0m-3.8-3.7c.6-2.1 1.6-3.8 3.3-5.4v-.6c-1.5-.7-3.1-1.6-4.4-2.6-1-.7-1.8-1.1-2.9-1.3.8 1.1 1.4 2.4 1.7 3.7l.1.3-.3-.2c-.5-.3-.9-.5-1.5-.5-1.3-.1-2.2 1.3-2.2 2.6 0 1.2.9 2.6 2.2 2.6 1.2-.1 1.7-.8 2.4-1.7l.1-.1.1.1c1 .9 1.3 1.9 1.4 3.1M183.8 182.4l.5.6.1-2.5h-.1l-.5 1.1z" class="st2"/><path d="M182.3 192c.5-.1 1-.2 1.4-.3.1.2.1.3.1.5 0 .5-.3.9-.6 1.2-.3-.4-.6-.9-.9-1.4m-5.1-1c-.1.4-.1.8-.1 1.2 0 .3 0 .6.1.9.1.4.3.8.6 1h.4l1.5-1.8h.4l-.2 2.1c1 .3 2 .4 3 .5.3-.4.9-.9 1-1.3.2-.5.3-1.7.1-2.2-1.2-.5-2.5-.3-3.7 0-1.1 0-2.1-.2-3.1-.4M181 181.4c.5 0 .9.4.9.9s-.4.9-.9.9-.9-.4-.9-.9.4-.9.9-.9M158.8 156.9q-.3-.3-.6-.3c-.1.2 0 .5.2.7s.4.3.6.3c0-.2-.1-.5-.2-.7m-8.5-6.6c.2-.1.4-.1.5-.1 0 .2-.1.4-.3.5s-.4.1-.5.1c0-.3.1-.4.3-.5m1.2-.1c.2-.2.4-.2.6-.2 0 .2-.1.4-.2.6-.2.2-.4.2-.6.2 0-.2.1-.4.2-.6m1.2.2c.2-.1.4-.2.6-.1q0 .3-.3.6c-.2.1-.4.2-.6.1q0-.3.3-.6m-2.5-.3c-.2 0-.4-.1-.5-.3.1-.2.3-.3.6-.2.2 0 .4.1.5.3-.1.1-.3.2-.6.2m1.2-.3c-.2-.2-.3-.4-.3-.7.2-.1.5-.1.7.1s.3.4.3.7c-.2.1-.5.1-.7-.1m1.4 0c-.1-.2-.2-.5-.1-.7.2 0 .5.1.6.3s.2.5.1.7c-.2 0-.5-.1-.6-.3m1.2 1c.3-.1.5 0 .7.2-.1.2-.3.4-.6.5s-.5 0-.7-.2c.1-.3.3-.5.6-.5m.1-.6c-.1-.3-.1-.6 0-.8.3.1.5.2.6.5s.1.6 0 .8c-.2-.1-.4-.3-.6-.5m1.1 1.2c.3 0 .5.1.7.3-.1.2-.4.4-.7.4s-.5-.1-.7-.3c.2-.2.4-.3.7-.4m.4-.5c-.1-.3 0-.6.2-.8.3.1.5.3.5.7.1.3 0 .6-.2.8-.3-.1-.5-.3-.5-.7m.7 1.5c.3 0 .5.1.7.3-.1.2-.4.4-.7.4s-.5-.1-.7-.3c.2-.2.4-.4.7-.4m.4-.6c-.1-.3.1-.6.3-.8.3.1.5.4.5.7.1.3-.1.6-.3.8-.3-.1-.5-.4-.5-.7m.5 1.6c.3.1.5.3.6.5-.2.2-.5.2-.8.2-.3-.1-.5-.3-.6-.5.3-.2.5-.2.8-.2m.4-.4c0-.3.1-.6.3-.8.2.1.4.4.4.7s-.1.6-.3.8c-.2-.1-.3-.4-.4-.7m.3 1.5c.2.1.4.3.5.6-.2.1-.5.2-.7.1s-.4-.3-.5-.6c.2-.1.4-.2.7-.1m.4 1.2c.2.1.4.4.4.6-.2.1-.5.1-.7 0s-.4-.4-.4-.6c.2-.1.5-.1.7 0m.6-.2c.1-.2.4-.4.6-.4.1.2.1.5 0 .7s-.4.4-.6.4c-.2-.2-.2-.4 0-.7m.2 1.4c.1-.2.3-.4.5-.5.1.2.2.4.1.7-.1.2-.3.4-.5.5-.2-.2-.2-.4-.1-.7m-.7-2.6c.1-.3.2-.5.5-.6.2.2.2.5.2.7-.1.3-.2.5-.5.6-.2-.2-.3-.4-.2-.7m.6 3.9q.15.3 0 .6c-.2 0-.4-.2-.5-.4s-.1-.4 0-.6c.2.1.4.2.5.4m.1 0c.1-.2.3-.4.5-.4.1.2.2.4.1.6s-.3.4-.5.4c-.2-.2-.2-.4-.1-.6m-.5 5.4c.1-1.8.1-3.6-.2-4.9-.3-1.6-1.1-3.7-2.1-5-1.3-1.7-3.4-2.9-5.6-2.9-1.3 0-2.3.4-3.3 1.1.9-1.7 2.5-2.8 4.6-2.9 4-.2 7.2 3.2 7.8 7 .1.7 0 1.4 0 2.1-.1.8-.3 1.8-.5 2.6l-.3 1.5c-.2.4-.3.9-.4 1.4" class="st2"/><path d="M158.7 141c0-.5.1-.9.5-1.2.4.2.7.6.7 1.1s-.1.9-.5 1.2c-.4-.2-.7-.6-.7-1.1m1.6 1.1c0-.5.3-.9.6-1.1q.6.45.6 1.2c0 .75-.3.9-.6 1.1-.4-.2-.6-.7-.6-1.2m1.4 1.4c.1-.5.4-.8.8-1 .3.3.5.8.4 1.2-.1.5-.4.8-.8 1-.3-.2-.4-.7-.4-1.2m1.2 1.7c.1-.4.5-.8.9-.9.3.4.4.8.2 1.3-.1.4-.5.8-.9.9-.2-.4-.3-.9-.2-1.3m1.1 1.7c.2-.4.6-.7 1-.8.2.4.2.9 0 1.3s-.6.7-1 .8c-.2-.4-.2-.9 0-1.3m.8 1.8c.3-.4.7-.6 1.1-.6.2.4.1.9-.1 1.3-.3.4-.7.6-1.1.6-.2-.4-.2-.9.1-1.3m.5 2c.3-.3.7-.5 1.1-.5q.15.6-.3 1.2c-.3.3-.7.5-1.1.5q-.15-.6.3-1.2m.3 2c.3-.3.7-.4 1.1-.3.1.4-.1.8-.4 1.1s-.7.4-1.1.3c-.1-.4.1-.8.4-1.1m.1 1.8c.3-.2.7-.2 1-.1 0 .4-.2.7-.5.9s-.7.2-1 .1c0-.4.2-.7.5-.9m-.1 1.6c.3-.2.7-.2 1 0q0 .6-.6.9c-.3.2-.7.2-1 0q.15-.6.6-.9m-.2 1.5c.3-.2.7-.1 1 0-.1.3-.3.7-.6.8-.3.2-.7.1-1 0 .1-.3.3-.7.6-.8m-.3 1.6c.3-.1.7-.1 1 .1-.1.3-.3.6-.6.8-.3.1-.7.1-1-.1 0-.4.3-.7.6-.8m-.4 1.4c.3-.1.7-.1 1 .1-.1.3-.3.6-.7.7-.3.1-.7.1-1-.1.1-.3.4-.6.7-.7m-.5 1.4c.3-.1.7-.1 1 .1-.1.3-.3.6-.6.7s-.7.1-1-.1c.1-.3.3-.6.6-.7m-.6 1.4c.3-.1.7-.1.9.1-.1.3-.3.6-.6.7s-.7.1-.9-.1c0-.3.2-.6.6-.7m-.7 1.5c.3-.1.6 0 .8.2q-.15.45-.6.6c-.45.15-.6 0-.8-.2q.15-.45.6-.6m-.6 1.3c.3-.1.6-.1.8 0 0 .3-.2.5-.5.7-.3.1-.6.1-.8 0 0-.4.2-.6.5-.7m-.8 1.2c.2-.1.5-.2.8 0 0 .3-.2.5-.4.6s-.5.2-.8 0c0-.2.2-.4.4-.6m-.6 1.4c.2-.1.4-.1.5 0 0 .2-.1.4-.3.5s-.4.1-.5 0c0-.2.1-.4.3-.5m-13.6-27.5c.1-.4.4-.6.7-.7.2.3.3.7.2 1-.1.4-.4.6-.7.7-.3-.3-.3-.7-.2-1m-.6-.9c-.4-.1-.7-.4-.9-.8.3-.2.7-.3 1.2-.2.4.1.7.4.9.8-.4.2-.8.3-1.2.2m1.9-.9c-.4-.3-.6-.7-.6-1.1.4-.2.9-.1 1.3.1.4.3.6.7.6 1.1-.4.2-.9.2-1.3-.1m1.8-1.6c.5-.1.9.1 1.3.5.3.4.4.9.4 1.3-.5.1-.9-.1-1.3-.5-.3-.3-.4-.8-.4-1.3m2.4.1c.4 0 .9.3 1.1.7s.2.9.1 1.3c-.4 0-.9-.3-1.1-.7-.3-.4-.3-.9-.1-1.3m2 1.5c-.2-.5-.1-.9.1-1.3.4.1.8.4 1 .9s.1.9-.1 1.3c-.4-.2-.8-.5-1-.9m2 .7c-.1-.5 0-.9.3-1.3.4.2.7.5.9 1 .1.5 0 .9-.3 1.3-.5-.2-.8-.6-.9-1m-11.3 1.8c.1-.3.3-.6.6-.7.2.2.3.6.2.9s-.3.6-.6.7c-.2-.2-.3-.6-.2-.9m-.3-.3c.4 0 .7-.2.9-.5-.2-.3-.6-.4-.9-.4-.4 0-.7.2-.9.5.1.2.5.4.9.4m14.1 1.8c.4-.1.9-.1 1.2.2q-.15.6-.9.9c-.4.1-.9.1-1.2-.2.2-.4.5-.8.9-.9m1.3 1.2c.4-.1.9.1 1.2.4-.2.4-.5.7-1 .7-.4.1-.9-.1-1.2-.4.2-.3.6-.6 1-.7m1.2 1.4c.4 0 .8.2 1.1.5-.2.3-.6.6-1.1.6-.4 0-.8-.2-1.1-.5.3-.4.7-.6 1.1-.6m.9 1.5c.4.1.8.3 1 .7-.3.3-.7.4-1.1.4-.4-.1-.8-.3-1-.7.3-.3.7-.4 1.1-.4m.8 1.8c.4.1.7.4.8.8-.3.2-.7.3-1.1.2s-.7-.4-.8-.8c.3-.3.7-.4 1.1-.2m.5 1.6c.4.2.6.5.7.9-.3.2-.8.2-1.1 0-.4-.2-.6-.5-.7-.9.3-.1.8-.1 1.1 0m.3 1.8c.3.2.5.6.5 1-.4.1-.8.1-1.1-.1s-.5-.6-.5-1c.3-.2.8-.1 1.1.1m0 1.7c.3.2.5.6.5.9-.3.1-.7.1-1-.1s-.5-.6-.5-.9c.4-.2.7-.2 1 .1m0 1.5c.3.2.4.6.4.9-.3.1-.7 0-1-.2s-.4-.6-.4-.9c.4-.1.7-.1 1 .2m-.2 1.4c.3.2.4.6.3.9-.3.1-.7 0-1-.3-.3-.2-.4-.6-.3-.9.4 0 .7.1 1 .3m-.2 1.5c.3.3.3.6.3 1-.3 0-.7-.1-.9-.3-.3-.3-.3-.6-.3-1q.45-.15.9.3m-1.3 1c.3 0 .7.1.9.4s.3.6.2 1c-.3 0-.7-.1-.9-.4s-.2-.7-.2-1m.6 1.8c.2.3.2.7.1 1-.3 0-.6-.2-.8-.5s-.2-.7-.1-1c.3 0 .6.2.8.5m-.4 1.4c.2.3.1.7 0 .9-.3 0-.6-.2-.8-.5s-.1-.7 0-.9c.3 0 .6.2.8.5m-.6 1.4c.1.3 0 .6-.2.9-.3-.1-.5-.3-.6-.7-.1-.3 0-.6.2-.9.3.1.5.4.6.7m-.5 1.4c.1.3 0 .6-.2.8-.3-.1-.5-.3-.5-.6-.1-.3 0-.6.2-.8.3 0 .5.3.5.6m-.5 1.4c0 .3-.1.5-.3.7-.2-.1-.4-.4-.4-.7s.1-.5.3-.7c.3.1.4.4.4.7m-.5 1.4c0 .2-.1.4-.2.5-.2-.1-.3-.3-.3-.5s.1-.4.2-.5c.1.1.3.3.3.5m-11.6-27.9c.2-.4.5-.6.9-.7.2.3.2.7 0 1.1s-.5.6-.9.7c-.2-.3-.2-.8 0-1.1m1.8-.2c.3-.4.7-.5 1.1-.5.1.4.1.8-.2 1.2s-.7.5-1.1.5c-.1-.4 0-.8.2-1.2m3-.2q.15.6-.3 1.2c-.3.3-.7.5-1.1.4q-.15-.6.3-1.2c.2-.3.7-.5 1.1-.4m.6.8c.3-.3.8-.4 1.2-.3 0 .4-.1.8-.5 1.1-.3.3-.8.4-1.2.3 0-.4.2-.9.5-1.1m1.7.5c.4-.2.8-.3 1.2-.1 0 .4-.2.8-.6 1.1-.4.2-.8.3-1.2.1.1-.4.3-.8.6-1.1m1.6.8c.4-.2.9-.2 1.3 0-.1.4-.3.8-.8 1-.4.2-.9.2-1.3 0 .2-.4.4-.8.8-1m2.1 29.5c-.1-2 .2-3.9.7-5.8.3-1.3.9-2.6 1.2-3.9.7-2.6 1.3-4.9 1.3-7.6 0-2-.5-3.9-1.4-5.7-3.6-6.8-12.4-8.8-18.6-4.3.1-4.4 3.7-7.1 7.9-7.4.9 0 1.9 0 2.8.1 3.6.5 6.3 2 8.9 4.5.6.7 1.2 1.3 1.7 2.1.7 1 1.3 2.2 1.7 3.4.8 2 1 4.1 1 6.3 0 2.6-.4 4.9-1.2 7.3-.7 2-1.7 3.9-2.8 5.7-.5.9-1.2 1.7-1.7 2.6q-.9 1.35-1.5 2.7" class="st2"/><path d="M142.3 129.8c-.4.1-.8-.1-1.1-.4.2-.4.6-.6 1-.7s.8.1 1.1.4c-.3.4-.6.7-1 .7m.5.4c.1-.4.3-.6.7-.8.2.3.3.6.2 1s-.3.6-.7.8c-.2-.3-.3-.7-.2-1m1.1-2c-.5-.2-.8-.5-1-1 .4-.3.9-.4 1.4-.2s.8.5 1 1c-.5.3-1 .4-1.4.2m.7 1.1c.1-.4.4-.7.7-.9.3.3.4.7.3 1.1s-.4.7-.7.9c-.2-.3-.4-.7-.3-1.1m2.1.8c-.3-.3-.4-.8-.2-1.2.1-.4.4-.7.8-.9.3.3.4.8.2 1.2-.1.4-.4.8-.8.9m-.9-2.8c-.4-.3-.7-.8-.7-1.3.5-.2 1-.1 1.4.2s.7.8.7 1.3c-.5.1-1 .1-1.4-.2m2.4 1.2c.2-.4.6-.7 1-.8.2.4.3.9.1 1.3s-.6.7-1 .8c-.2-.4-.3-.8-.1-1.3m-.5-1.8c-.4-.4-.5-.9-.4-1.4.5-.1 1 .1 1.4.5s.5.9.4 1.4c-.5.1-1-.1-1.4-.5m2.4 1.7c.3-.4.8-.6 1.2-.6.1.5.1 1-.2 1.4s-.8.6-1.2.6c-.2-.4-.1-.9.2-1.4m-.2-1.8c-.3-.5-.4-1-.2-1.5.5 0 1 .3 1.4.7.3.5.4 1 .2 1.5-.6 0-1.1-.3-1.4-.7m2.3 2c.3-.4.8-.6 1.3-.5.1.5 0 1-.4 1.4-.3.4-.8.5-1.3.5-.1-.5 0-1 .4-1.4m0-1.8c-.3-.5-.2-1.1 0-1.6.5.1 1 .4 1.3.9s.2 1.1 0 1.6c-.6-.1-1.1-.4-1.3-.9m2 2.3c.4-.3.9-.5 1.4-.4 0 .5-.1 1-.5 1.3s-.9.5-1.4.4c-.1-.5.1-1 .5-1.3m.2-1.9c-.2-.5-.1-1.1.2-1.5.5.1.9.5 1.1 1.1.2.5.1 1.1-.2 1.5-.4-.2-.9-.6-1.1-1.1m1.7 2.5c.4-.3 1-.4 1.4-.2 0 .5-.2 1-.7 1.3-.4.3-1 .4-1.4.2 0-.5.2-1 .7-1.3m.4-1.8c-.1-.6 0-1.1.4-1.5.5.2.9.6 1 1.2s0 1.1-.4 1.5c-.5-.2-.9-.6-1-1.2m1.4 2.8c.5-.3 1-.2 1.5 0-.1.5-.4.9-.8 1.2-.5.3-1 .2-1.5 0 0-.5.3-.9.8-1.2m.7-1.7c-.1-.6.2-1.1.6-1.5.5.3.8.7.9 1.3s-.2 1.1-.6 1.5c-.5-.2-.8-.7-.9-1.3m1 2.7c.5-.2 1-.2 1.4.1-.1.5-.4.9-.9 1.1s-1 .2-1.4-.1c.1-.5.5-.9.9-1.1m1-1.6c0-.5.3-1 .8-1.3.4.3.6.8.6 1.4 0 .5-.3 1-.8 1.3-.3-.4-.6-.9-.6-1.4m.6 2.7c.5-.2 1-.1 1.4.2-.1.4-.5.8-1 1s-1 .1-1.4-.2c.1-.5.5-.8 1-1m1.1-1.5c.1-.5.4-1 .9-1.2.4.4.6.9.5 1.4s-.4 1-.9 1.2c-.4-.4-.6-.9-.5-1.4m.4 2.8c.5-.1 1 0 1.3.3-.2.4-.5.8-1 .9s-1 0-1.3-.3c.2-.5.5-.8 1-.9m2-2.6c.3.4.5.9.4 1.4s-.5.9-.9 1.2c-.3-.4-.5-.9-.4-1.4.1-.6.5-1 .9-1.2m-.5 3.9c.5-.1.9.1 1.2.4-.2.4-.6.7-1.1.8s-.9-.1-1.2-.4c.3-.4.6-.7 1.1-.8m1.2-1.3c.1-.5.5-.9.9-1.1.3.4.5.9.3 1.4-.1.5-.5.9-.9 1.1-.3-.4-.4-.9-.3-1.4m.1 2.7c.5 0 .9.2 1.2.5-.2.4-.6.6-1.1.7-.5 0-.9-.2-1.2-.5.2-.4.6-.6 1.1-.7m1.3-1.2c.1-.5.5-.9 1-1 .3.4.4.9.3 1.4s-.5.9-1 1c-.3-.4-.4-.9-.3-1.4m-.2 2.7c.5 0 .9.2 1.1.6-.2.4-.7.6-1.1.6-.5 0-.9-.2-1.1-.6.2-.3.6-.5 1.1-.6m2.4-2c.3.4.4.8.2 1.3-.1.5-.5.8-.9.9-.3-.4-.4-.8-.2-1.3q.15-.6.9-.9m-1.3 3.7c.5 0 .9.3 1.1.6-.3.3-.7.6-1.2.5-.5 0-.9-.3-1.1-.6.3-.3.7-.6 1.2-.5m1.5-1c.2-.4.5-.8.9-.9.2.4.3.8.2 1.3-.2.4-.5.8-.9.9-.3-.4-.4-.8-.2-1.3m-.5 2.6c.5 0 .8.3 1.1.7-.3.3-.7.5-1.2.5s-.8-.3-1.1-.7c.3-.4.8-.5 1.2-.5m2.5-1.7c.2.4.3.9.1 1.3s-.6.7-1 .8c-.2-.4-.3-.9-.1-1.3s.6-.7 1-.8m-.2 2.4c.2-.5.6-.7 1.1-.8.2.4.2.9 0 1.4s-.6.7-1.1.8c-.2-.4-.2-.9 0-1.4m-.6 2.7c.5.1.8.4 1 .8-.3.3-.8.4-1.3.3s-.8-.4-1-.8c.4-.2.8-.4 1.3-.3m1.5-.7c.3-.5.7-.7 1.2-.8.2.4.2 1-.1 1.4-.3.5-.7.7-1.2.8-.2-.5-.1-1 .1-1.4m-2.3-1c.5.1.8.4 1 .8-.3.3-.8.5-1.2.4-.5-.1-.8-.4-1-.8.3-.3.7-.5 1.2-.4m-29.7-10.1v-.5c.1-5 4.3-8 9-8.3 8.6-.4 15.9 5.3 20.7 11.9 1.8 2.7 3.5 5.5 4.8 8.5l-2.8 1.7-2.1 2.5c-.7-3.4-2.2-6.7-4.2-9.5-3.4-4.6-9.5-8.9-15.4-9.3-3.6-.1-7.1.9-10 3M182.8 192.3l.5.5c.1-.2.2-.4.2-.6zM76.7 230.7c2.5 2.5 5.2 4.9 8 7l-.7-3.8 2.8-3c-1.8-1.5-3.7-3.2-5.3-4.8zM102.1 240.6l-1.6 3.4c7.4 3 15.6 4.7 24.1 4.7s16.7-1.7 24.1-4.7l-1.6-3.4c-7.1 2.9-14.7 4.3-22.4 4.3-7.8 0-15.4-1.5-22.6-4.3M172.5 230.7c-2.5 2.5-5.2 4.9-8 7l.7-3.8-2.8-3c1.8-1.5 3.7-3.2 5.3-4.8zM107 122.3l-1.1-4c-.1-.4.2-.8.7-1 .5 0 1 .1 1.1.5l1.5 5.8c-.7-.5-1.4-.9-2.2-1.3M100.5 121.1l-.2-.6c-.1-.4.1-.9.5-1.2.5-.1 1 .2 1.2.6l.4 1.3c-.5-.1-1.2-.2-1.9-.1M72.6 173.7c-.6.4-1.1.8-1.5 1.4-1.1 1.5-1.8 2.8-3.5 3.9-.8.5-1.9 1-2.9 1.2-1.4.2-3-.2-3.2-2.4.4.1 1.1.2 1.7.3.6 0 1.8-.1 2.4-.2l.9-.3c3.7-1.1 4.5-3.8 6.1-3.9M76.1 185.9c-.4.9-1.1 1.6-2.2 2.1-.2.7-.3 1.5-.2 2.2.6.4.9 1.1.9 1.9 0 .9-.3 1.5-.9 2-.5 1.8-1.1 3.5-1.5 5.3-.6 2.6-1 5.3-1.1 8v.9c0 4.4 1.5 8.4 3.8 12.1l.4.6 9.8-8.1-4.1-5.7v.1l-5-2.1-.1-.2c-.9-2.1-1-4.1-1-6.4.1-1.6.4-3.2.7-4.9.5-1.8.6-3.7.6-5.5 0-.9 0-1.6-.1-2.3" class="st2"/><path d="M77.2 173.9c-.1 1.6-.4 3.4-.7 5l1.1.6 1.3-.4c-.2 1.4-.5 2.8-.9 4.1l1.1.7 1.3-.3q-.6 2.4-1.5 4.8l1.1.7 1.4-.2c-.6 1.6-1.3 3.2-2.3 4.8l.9.8h1.4l.9.8h1c-1.6 2.3-3.5 4.9-5.3 7-.5.6-1.1 1.2-1.6 1.8-.7-1.8-.9-3.7-.8-5.6.1-1.6.4-3.2.7-4.8.4-1.9.6-3.8.7-5.7.1-4.1-.6-7.5-3.5-10.5l-.2-.2-.1-.1h-.1c-1.3.3-2.2.7-3.4 1.5-1.3.9-2.7 1.8-4.2 2.5l-.4-.8c.9-.2 1.9-.7 2.7-1.2 1.8-1.2 2.7-2.8 4.1-4.3.6-.6 1.2-.9 1.9-1.1 1-.3 2-.3 3-.1z" class="st2"/><path d="M72.6 173.7c-.8 0-2.4 1.2-2.7 1.4-1 1-2 1.7-3.4 2.1-1.2.4-2 .6-3.2 0-.4-.2-.8-1.1-.5-1.5.2-.2.6-.3.9-.4s.5-.1.7 0c.2 0 .5.1.7.2.3.1.5.1.7.1h.1c3.2-1.1 3.3-1.8 5.5-2.8l.2-.1-.1-.5c.7-.6 2.9-1.2 4.5-1.2 2.7 0 5.7 1.3 7.1 2.4 2.4 2.9 3.9 6.6 4 10.8 0 .8 0 1.5-.1 2.2-.5-.5-.8-1-1.1-1.5-.6-.9-.8-1.4-1.2-2.4-1.1-2.8-2.6-5.5-4.7-7.8-1.1-1.3-2.7-1.9-4.4-1.9-.9 0-2 .3-3 .9" class="st2"/><path d="M76.6 164.7c-.5-1-1-2.1-1.4-3.1l-.3-.1-1.8 2.2zm3.4 5.4c-.1-.2-.3-.4-.4-.5-.7-.9-1.3-1.9-1.9-2.8l-1.8 2.2zM72 152l1.3.4v.2l-1.5 1.8.3.3v.1c.1.2.1.4.1.7s-.1.7-.3.9c-.3.4-.5.5-1 .5l-.1.9v.2l1.3-1.5 1.7.5c.2.9.4 1.8.7 2.7l-.2.2-3.6-1-.1 1c.2.1.5.2.7.4.1.1.2.3.3.4l1.7.5-1.8 2.2-.8-.2.1 3c.1 0 .2 0 .4.1l.8-1 4.1 1.2-1.8 2.2-1.9-.5c0 .5-.2.9-.5 1.2-.1.1-.2.1-.3.2l1.6.5-1.1 1.3h.1c1.1-.5 2.8-.8 4-.8 1 0 2.2.2 3.3.5 2 .7 2.6 1.5 3.8 2.7-1-1.4-2.3-2.7-3.3-4.1-4.9-6.7-7.1-13.8-6-23.1l-.7 1.9v3c-.1.2-.2.3-.4.4s-.6 0-.9.1M66.4 153.8c-.3-.1-.6-.4-.7-.8.1-.4.4-.8.7-.9-.1.3-.1.6-.1.9s0 .6.1.8M68.1 149.2c-.2-.1-.5 0-.8.1-.3.3-.4.8-.3 1.1.4-.4.7-.8 1.1-1.2q.15.15 0 0M65.2 156.4c-.3-.1-.7-.1-1.1.1-.3.4-.3 1-.1 1.3l.6.7q.15-1.2.6-2.1M70.5 209.1h-1.9c-.4 0-.8.4-1 .9.1.5.5.9 1 .9h1.7l-.8 1.4c-.2.4-.1.9.3 1.3.5.1 1.1 0 1.3-.4-.2-.7-.3-1.4-.4-2.2l-.1-.8c-.1-.3-.1-.7-.1-1.1M71.8 198.6c.1-.5.3-1.1.4-1.6l-4.5-1.2 1-1c-.8.2-1.6.3-2.5.4 0-.1-.1-.1-.1-.2l-.4.4-2.7-.7c-.4-.1-.9.2-1.2.7 0 .5.3 1 .7 1.1l1.7.4-1.1 1.1c-.3.3-.3.9 0 1.3.5.3 1 .3 1.3-.1l1.8-1.9 4.8 1.2-3 3.9-2.7-.4c-.4-.1-.9.3-1.1.8.1.5.4 1 .8 1l1.7.2-1 1.2c-.3.3-.2.9.2 1.3.5.2 1.1.1 1.3-.2l1.6-2.1 1.8.2c.1-.6.1-1.2.2-1.7l-.8-.1 1.1-1.5c.1-.6.3-1.3.4-1.9.2-.2.2-.4.3-.6M64.2 188l-2.6-1c-.4-.2-.9.1-1.2.5-.1.5.2 1 .6 1.2l1.6.6-1.2 1c-.3.3-.4.8-.2 1.3.4.3 1 .4 1.3.1l2-1.7 1 .4h.1c.2-.6.3-1.1.4-1.7q.15-1.05 0-2.1l-.7.6zM63.6 180.6l-2.4-1.3c-.4-.2-.9 0-1.3.4-.1.5 0 1.1.4 1.3l1.5.8-1.3.8c-.4.2-.5.8-.3 1.3.4.4.9.5 1.3.3l2.2-1.4 1 .5-.1-2.7h-1M64.5 175.3h-.6l-.1-.1-2.4 1.1c-.4.2-.9 0-1.3-.4-.1-.5.1-1.1.5-1.2l1.4-.7-1.4-1c-.4-.3-.5-.8-.3-1.3.4-.3 1-.5 1.3-.2l1.9 1.3c.1.5.2 1.1.5 1.5.1.1.1.2.2.3.2.5.2.6.3.7M63.6 164.5l-.5-.5c-.3-.3-.9-.3-1.3 0-.2.5-.2 1 .1 1.3l1.2 1.1-1.5.5c-.4.1-.7.6-.6 1.2.3.5.8.7 1.2.6l1.7-.6.5-.4c0-.1-.1-.1-.1-.2-.2-.4-.4-.8-.5-1.2s-.2-.9-.2-1.4zM64.7 159.1l-1.1.2c-.4.1-.7.6-.8 1.1.2.5.7.8 1.1.7l.3-.1-.2-.1.9-.6c0-.3-.1-.7-.2-1.2M76.4 137.3l.9.8c-.3.5-.8 1.3-1.1 1.9l-1.4-.8c.2-.8.8-1.5 1.6-1.9M73.4 139.6l.2.5 2.4 1.7.2-.4.3-.5-2.5-1.3zM95.6 182.6c.7 1.3.8 2.5.1 4.1-1.2 2.5-3 4.3-5.4 5.6 0-.1.1-.1.1-.2.4-1 .7-2.1.9-3.2 2.4-1.6 3.9-3.7 4.3-6.3M91.7 187v-.2c.1-1.3.2-2.5.1-3.8 0-1.6-.2-3.1-.6-4.6-.1-.3-.1-.5-.2-.7.5-1.1.7-2.3.8-3.5.4.8.9 1.6 1.2 2.1.8 1.4 1.4 2.9 1.3 4.5.2 2.7-.8 4.6-2.6 6.2M96 188.8c.1 2.3-1.4 4.3-3.2 5.8-1.6 1.2-2.9 2-4.7 2.5l1.5-3c2.7-1.2 4.9-2.9 6.4-5.3M85.9 200.8c.5-.7 1-1.5 1.4-2.2 1.6-.3 2.9-.8 4.2-1.5-1.4 1.8-3.4 3.2-5.6 3.7M79.2 183.4l.9-.2c.5-2.1.8-4.3.8-6.5l-.9-1.5-.3-.2c-.2 2.7-.6 5.3-1.3 7.9zM78.5 178.7c.2-1.4.4-2.8.4-4.2l-.8-.7h-.5c-.1 1.6-.4 3.2-.6 4.8l.6.4zM83 180l-.9-2.1-.3-.3c-.2 3.6-1 7.2-2.2 10.5l.7.4 1-.1c.9-2.7 1.4-5.5 1.7-8.4M84.9 184l-.9-2.4-.3-.4c-.5 4.5-1.6 8.4-3.9 12.4l.6.5h1c1.7-3.1 3-6.7 3.5-10.1M85.6 184.9c-.6 3.3-1.8 6.6-3.5 9.4l.5.5h.9c.1-.2.2-.4.4-.5 1.6-2.3 2.6-5.1 2.9-7.8-.3-.3-.6-.7-.8-1zM97.8 210.9l-1.9-.3 1.7.4z" class="st2"/><path d="m95.9 210.6-2.2 1.6.1-.5z" class="st2"/><path d="m93.7 212.2-2.3-2.2 2.4 1.7zM93.8 211.2l1.7-.9c.4-4.3 1.3-8.1 2.9-12l-.5-.5-.4-.1c-.2.3-.4.5-.6.8-1 1.3-2.2 3-2.8 4.5-.5 1.5-.9 3.1-1.2 4.6-.2.8-.6 1.6-1 2.3zM100.3 199.4l-.5-.6-.5-.1c-1.6 3.8-2.4 7.4-2.8 11.5l1.3.2 1.3-1.3c.1-.1.2-.1.2-.2-.1-3 .1-6.7 1-9.5M100.1 208.3c.4-.2.8-.3 1.2-.4.3 0 .6-.1.9-.1-.4-.7-.5-1.4 0-2-.2-1.8-.3-4-.1-5.8l-.6-.5h-.5c-.7 2.7-.9 6.1-.9 8.8M103 200.3c-.2 1.6-.1 3.4.1 5 .2-.1.4-.1.6-.2-.2-1.6-.5-3.3-.5-4.9zM70.3 184.9c.1.8.6 1.6 1.2 2.2-.5 1.2-.8 2.5.1 3.5l-2.5.5v-2.4c0-1.5.2-2.7 1.2-3.8M65.8 190.5c.8-2.5.6-5.1-.9-7.3l.5-.7c1.9 1.7 2.9 3.6 3.4 6.1v2.4z" class="st2"/><path d="m68.6 180.6-2.4 1.6 2.1 2.4 1.3-2zm-3.5 10.8.5-.8c.3-.1 3 .4 3.4.5l2.9-.6c-.9-.9-.9-2.1-.2-3.6-.9-.7-1.2-1.8-1.3-2.4.8 1.2 1.3 1.7 2.5 1.8 1.3.1 2.3-1.3 2.3-2.7s-1-2.8-2.4-2.7c-.6 0-.9.2-1.6.6.4-1.5 1.1-2.8 1.9-3.9l.4 1.8c2.1 2 3.9 6.5-.1 8.1-.4 1-.5 2.1-.3 3.1.6.3.9.9.9 1.5 0 .5-.1 1.1-.8 1.7-.5.3-1.2.6-1.6.5.4-.3.6-.7.7-1.2 0-.3.1-.6.1-.9 0-.5 0-.9-.1-1.4h-.1c-1 .2-2 .4-2.9.6-1.5-.2-3-.6-4.2 0m3.8-3.7c-.6-2.1-1.6-3.8-3.3-5.4v-.6c1.5-.7 3.1-1.6 4.4-2.6 1-.7 1.8-1.1 2.9-1.3-.8 1.1-1.4 2.4-1.7 3.7l-.1.3.3-.2c.5-.3.9-.5 1.5-.5 1.3-.1 2.2 1.3 2.2 2.6 0 1.2-.9 2.6-2.2 2.6-1.2-.1-1.7-.8-2.4-1.7l-.1-.1-.1.1c-1 .9-1.3 1.9-1.4 3.1M65.4 182.4l-.5.6-.1-2.5h.1l.5 1.1z" class="st2"/><path d="M66.9 192c-.5-.1-1-.2-1.4-.3-.1.2-.1.3-.1.5 0 .5.3.9.6 1.2.3-.4.6-.9.9-1.4m5.1-1c.1.4.1.8.1 1.2 0 .3 0 .6-.1.9-.1.4-.3.8-.6 1H71l-1.5-1.8h-.4l.2 2.1c-1 .3-2 .4-3 .5-.3-.4-.9-.9-1-1.3-.2-.5-.3-1.7-.1-2.2 1.2-.5 2.5-.3 3.7 0 1.1 0 2.1-.2 3.1-.4M68.2 181.4c-.5 0-.9.4-.9.9s.4.9.9.9.9-.4.9-.9-.4-.9-.9-.9M90.5 156.9q.3-.3.6-.3c.1.2 0 .5-.2.7s-.4.3-.6.3c-.1-.2 0-.5.2-.7m8.5-6.6c-.2-.1-.4-.1-.5-.1 0 .2.1.4.3.5s.4.1.5.1c-.1-.3-.2-.4-.3-.5m-1.3-.1c-.2-.2-.4-.2-.6-.2 0 .2.1.4.2.6.2.2.4.2.6.2 0-.2 0-.4-.2-.6m-1.2.2c-.2-.1-.4-.2-.6-.1q0 .3.3.6c.2.1.4.2.6.1q0-.3-.3-.6m2.5-.3c.2 0 .4-.1.5-.3-.1-.2-.3-.3-.6-.2-.2 0-.4.1-.5.3.1.1.4.2.6.2m-1.2-.3c.2-.2.3-.4.3-.7-.2-.1-.5-.1-.7.1s-.3.4-.3.7c.2.1.5.1.7-.1m-1.4 0c.1-.2.2-.5.1-.7-.2 0-.5.1-.6.3s-.2.5-.1.7c.2 0 .5-.1.6-.3m-1.1 1c-.3-.1-.5 0-.7.2.1.2.3.4.6.5s.5 0 .7-.2c-.2-.3-.4-.5-.6-.5m-.2-.6c.1-.3.1-.6 0-.8-.3.1-.5.2-.6.5s-.1.6 0 .8c.2-.1.5-.3.6-.5m-1.1 1.2c-.3 0-.5.1-.7.3.1.2.4.4.7.4s.5-.1.7-.3c-.2-.2-.4-.3-.7-.4m-.3-.5c.1-.3 0-.6-.2-.8-.3.1-.5.3-.5.7-.1.3 0 .6.2.8.2-.1.4-.3.5-.7m-.8 1.5c-.3 0-.5.1-.7.3.1.2.4.4.7.4s.5-.1.7-.3c-.2-.2-.4-.4-.7-.4m-.4-.6c.1-.3-.1-.6-.3-.8-.3.1-.5.4-.5.7-.1.3.1.6.3.8.3-.1.5-.4.5-.7m-.5 1.6c-.3.1-.5.3-.6.5.2.2.5.2.8.2.3-.1.5-.3.6-.5-.3-.2-.5-.2-.8-.2m-.4-.4c0-.3-.1-.6-.3-.8-.2.1-.4.4-.4.7s.1.6.3.8c.2-.1.4-.4.4-.7m-.3 1.5c-.2.1-.4.3-.5.6.2.1.5.2.7.1s.4-.3.5-.6c-.1-.1-.4-.2-.7-.1m-.4 1.2c-.2.1-.4.4-.4.6.2.1.5.1.7 0s.4-.4.4-.6c-.2-.1-.5-.1-.7 0m-.5-.2c-.1-.2-.4-.4-.6-.4-.1.2-.1.5 0 .7s.4.4.6.4c.1-.2.1-.4 0-.7m-.2 1.4c-.1-.2-.3-.4-.5-.5-.1.2-.2.4-.1.7.1.2.3.4.5.5.1-.2.1-.4.1-.7m.6-2.6c-.1-.3-.2-.5-.5-.6-.2.2-.2.5-.2.7.1.3.2.5.5.6.2-.2.3-.4.2-.7m-.6 3.9q-.15.3 0 .6c.2 0 .4-.2.5-.4s.1-.4 0-.6c-.2.1-.4.2-.5.4m-.1 0c-.1-.2-.3-.4-.5-.4-.1.2-.2.4-.1.6s.3.4.5.4c.2-.2.2-.4.1-.6m.5 5.4c-.1-1.8-.1-3.6.2-4.9.3-1.6 1.1-3.7 2.1-5 1.3-1.7 3.4-2.9 5.6-2.9 1.3 0 2.3.4 3.3 1.1-.9-1.7-2.5-2.8-4.6-2.9-4-.2-7.2 3.2-7.8 7-.1.7 0 1.4 0 2.1.1.8.3 1.8.5 2.6l.3 1.5c.2.4.3.9.4 1.4" class="st2"/><path d="M90.6 141c0-.5-.1-.9-.5-1.2-.4.2-.7.6-.7 1.1s.1.9.5 1.2c.3-.2.6-.6.7-1.1m-1.7 1.1c0-.5-.3-.9-.6-1.1q-.6.45-.6 1.2c0 .75.3.9.6 1.1.4-.2.6-.7.6-1.2m-1.4 1.4c-.1-.5-.4-.8-.8-1-.3.3-.5.8-.4 1.2.1.5.4.8.8 1 .3-.2.5-.7.4-1.2m-1.2 1.7c-.1-.4-.5-.8-.9-.9-.3.4-.4.8-.2 1.3.1.4.5.8.9.9.2-.4.3-.9.2-1.3m-1 1.7c-.2-.4-.6-.7-1-.8-.2.4-.2.9 0 1.3s.6.7 1 .8c.1-.4.2-.9 0-1.3m-.9 1.8c-.3-.4-.7-.6-1.1-.6-.2.4-.1.9.1 1.3.3.4.7.6 1.1.6.2-.4.2-.9-.1-1.3m-.4 2c-.3-.3-.7-.5-1.1-.5q-.15.6.3 1.2c.3.3.7.5 1.1.5q0-.6-.3-1.2m-.3 2c-.3-.3-.7-.4-1.1-.3-.1.4.1.8.4 1.1s.7.4 1.1.3c0-.4-.1-.8-.4-1.1m-.2 1.8c-.3-.2-.7-.2-1-.1 0 .4.2.7.5.9s.7.2 1 .1c0-.4-.2-.7-.5-.9m.1 1.6c-.3-.2-.7-.2-1 0q0 .6.6.9c.3.2.7.2 1 0q-.15-.6-.6-.9m.2 1.5c-.3-.2-.7-.1-1 0 .1.3.3.7.6.8.3.2.7.1 1 0-.1-.3-.3-.7-.6-.8m.3 1.6c-.3-.1-.7-.1-1 .1.1.3.3.6.6.8.3.1.7.1 1-.1 0-.4-.2-.7-.6-.8m.4 1.4c-.3-.1-.7-.1-1 .1.1.3.3.6.7.7.3.1.7.1 1-.1-.1-.3-.4-.6-.7-.7m.5 1.4c-.3-.1-.7-.1-1 .1.1.3.3.6.6.7s.7.1 1-.1c0-.3-.3-.6-.6-.7m.7 1.4c-.3-.1-.7-.1-.9.1.1.3.3.6.6.7s.7.1.9-.1c-.1-.3-.3-.6-.6-.7m.6 1.5c-.3-.1-.6 0-.8.2q.15.45.6.6c.45.15.6 0 .8-.2q-.15-.45-.6-.6m.7 1.3c-.3-.1-.6-.1-.8 0 0 .3.2.5.5.7.3.1.6.1.8 0-.1-.4-.3-.6-.5-.7m.7 1.2c-.2-.1-.5-.2-.8 0 0 .3.2.5.4.6s.5.2.8 0c0-.2-.2-.4-.4-.6m.6 1.4c-.2-.1-.4-.1-.5 0 0 .2.1.4.3.5s.4.1.5 0c0-.2-.1-.4-.3-.5m13.6-27.5c-.1-.4-.4-.6-.7-.7-.2.3-.3.7-.2 1 .1.4.4.6.7.7.3-.3.3-.7.2-1m.6-.9c.4-.1.7-.4.9-.8-.3-.2-.7-.3-1.2-.2-.4.1-.7.4-.9.8.4.2.8.3 1.2.2m-1.9-.9c.4-.3.6-.7.6-1.1-.4-.2-.9-.1-1.3.1-.4.3-.6.7-.6 1.1.4.2.9.2 1.3-.1m-1.8-1.6c-.5-.1-.9.1-1.3.5-.3.4-.4.9-.4 1.3.5.1.9-.1 1.3-.5.3-.3.5-.8.4-1.3m-2.4.1c-.4 0-.9.3-1.1.7s-.2.9-.1 1.3c.4 0 .9-.3 1.1-.7.3-.4.3-.9.1-1.3m-2 1.5c.2-.5.1-.9-.1-1.3-.4.1-.8.4-1 .9s-.1.9.1 1.3c.4-.2.8-.5 1-.9m-1.9.7c.1-.5 0-.9-.3-1.3-.4.2-.7.5-.9 1-.1.5 0 .9.3 1.3.4-.2.7-.6.9-1m11.2 1.8c-.1-.3-.3-.6-.6-.7-.2.2-.3.6-.2.9s.3.6.6.7c.2-.2.3-.6.2-.9m.3-.3c-.4 0-.7-.2-.9-.5.2-.3.6-.4.9-.4.4 0 .7.2.9.5-.1.2-.5.4-.9.4m-14.1 1.8c-.4-.1-.9-.1-1.2.2q.15.6.9.9c.4.1.9.1 1.2-.2-.2-.4-.5-.8-.9-.9m-1.3 1.2c-.4-.1-.9.1-1.2.4.2.4.5.7 1 .7.4.1.9-.1 1.2-.4-.2-.3-.6-.6-1-.7m-1.2 1.4c-.4 0-.8.2-1.1.5.2.3.6.6 1.1.6.4 0 .8-.2 1.1-.5-.3-.4-.7-.6-1.1-.6m-.9 1.5c-.4.1-.8.3-1 .7.3.3.7.4 1.1.4.4-.1.8-.3 1-.7-.3-.3-.7-.4-1.1-.4m-.8 1.8c-.4.1-.7.4-.8.8.3.2.7.3 1.1.2s.7-.4.8-.8c-.3-.3-.7-.4-1.1-.2m-.5 1.6c-.4.2-.6.5-.7.9.3.2.8.2 1.1 0 .4-.2.6-.5.7-.9-.3-.1-.8-.1-1.1 0m-.3 1.8c-.3.2-.5.6-.5 1 .4.1.8.1 1.1-.1s.5-.6.5-1c-.3-.2-.7-.1-1.1.1m0 1.7c-.3.2-.5.6-.5.9.3.1.7.1 1-.1s.5-.6.5-.9c-.4-.2-.7-.2-1 .1m0 1.5c-.3.2-.4.6-.4.9.3.1.7 0 1-.2s.4-.6.4-.9c-.3-.1-.7-.1-1 .2m.2 1.4c-.3.2-.4.6-.3.9.3.1.7 0 1-.3.3-.2.4-.6.3-.9-.4 0-.7.1-1 .3m.2 1.5c-.3.3-.3.6-.3 1 .3 0 .7-.1.9-.3.3-.3.3-.6.3-1q-.45-.15-.9.3m1.3 1c-.3 0-.7.1-.9.4s-.3.6-.2 1c.3 0 .7-.1.9-.4s.3-.7.2-1m-.6 1.8c-.2.3-.2.7-.1 1 .3 0 .6-.2.8-.5s.2-.7.1-1c-.3 0-.6.2-.8.5m.4 1.4c-.2.3-.1.7 0 .9.3 0 .6-.2.8-.5s.1-.7 0-.9c-.3 0-.6.2-.8.5m.6 1.4c-.1.3 0 .6.2.9.3-.1.5-.3.6-.7.1-.3 0-.6-.2-.9-.3.1-.5.4-.6.7m.5 1.4c-.1.3 0 .6.2.8.3-.1.5-.3.5-.6.1-.3 0-.6-.2-.8-.2 0-.4.3-.5.6m.5 1.4c0 .3.1.5.3.7.2-.1.4-.4.4-.7s-.1-.5-.3-.7c-.2.1-.4.4-.4.7m.5 1.4c0 .2.1.4.2.5.2-.1.3-.3.3-.5s-.1-.4-.2-.5c-.1.1-.2.3-.3.5m11.6-27.9c-.2-.4-.5-.6-.9-.7-.2.3-.2.7 0 1.1s.5.6.9.7c.2-.3.2-.8 0-1.1m-1.8-.2c-.3-.4-.7-.5-1.1-.5-.1.4-.1.8.2 1.2s.7.5 1.1.5c.1-.4 0-.8-.2-1.2m-2.9-.2q-.15.6.3 1.2c.3.3.7.5 1.1.4q.15-.6-.3-1.2c-.3-.3-.7-.5-1.1-.4m-.7.8c-.3-.3-.8-.4-1.2-.3 0 .4.1.8.5 1.1.3.3.8.4 1.2.3 0-.4-.2-.9-.5-1.1m-1.7.5c-.4-.2-.8-.3-1.2-.1 0 .4.2.8.6 1.1.4.2.8.3 1.2.1 0-.4-.3-.8-.6-1.1m-1.6.8c-.4-.2-.9-.2-1.3 0 .1.4.3.8.8 1 .4.2.9.2 1.3 0-.1-.4-.4-.8-.8-1M89.3 172c.1-2-.2-3.9-.7-5.8-.3-1.3-.9-2.6-1.2-3.9-.7-2.6-1.3-4.9-1.3-7.6 0-2 .5-3.9 1.4-5.7 3.6-6.8 12.4-8.8 18.6-4.3-.1-4.4-3.7-7.1-7.9-7.4-.9 0-1.9 0-2.8.1-3.6.5-6.3 2-8.9 4.5-.6.7-1.2 1.3-1.7 2.1-.7 1-1.3 2.2-1.7 3.4-.8 2-1 4.1-1 6.3 0 2.6.4 4.9 1.2 7.3.7 2 1.7 3.9 2.8 5.7.5.9 1.2 1.7 1.7 2.6q.9 1.35 1.5 2.7" class="st2"/><path d="M107 129.8c.4.1.8-.1 1.1-.4-.2-.4-.6-.6-1-.7s-.8.1-1.1.4c.2.4.5.7 1 .7m-.6.4c-.1-.4-.3-.6-.7-.8-.2.3-.3.6-.2 1s.3.6.7.8c.2-.3.3-.7.2-1m-1-2c.5-.2.8-.5 1-1-.4-.3-.9-.4-1.4-.2s-.8.5-1 1c.4.3.9.4 1.4.2m-.8 1.1c-.1-.4-.4-.7-.7-.9-.3.3-.4.7-.3 1.1s.4.7.7.9c.3-.3.4-.7.3-1.1m-2.1.8c.3-.3.4-.8.2-1.2-.1-.4-.4-.7-.8-.9-.3.3-.4.8-.2 1.2.1.4.4.8.8.9m.9-2.8c.4-.3.7-.8.7-1.3-.5-.2-1-.1-1.4.2s-.7.8-.7 1.3c.5.1 1 .1 1.4-.2m-2.4 1.2c-.2-.4-.6-.7-1-.8-.2.4-.3.9-.1 1.3s.6.7 1 .8c.2-.4.3-.8.1-1.3m.5-1.8c.4-.4.5-.9.4-1.4-.5-.1-1 .1-1.4.5s-.5.9-.4 1.4c.5.1 1-.1 1.4-.5m-2.4 1.7c-.3-.4-.8-.6-1.2-.6-.1.5-.1 1 .2 1.4s.8.6 1.2.6c.2-.4.1-.9-.2-1.4m.2-1.8c.3-.5.4-1 .2-1.5-.5 0-1 .3-1.4.7-.3.5-.4 1-.2 1.5.6 0 1.1-.3 1.4-.7m-2.3 2c-.3-.4-.8-.6-1.3-.5-.1.5 0 1 .4 1.4.3.4.8.5 1.3.5.1-.5 0-1-.4-1.4m0-1.8c.3-.5.2-1.1 0-1.6-.5.1-1 .4-1.3.9s-.2 1.1 0 1.6c.6-.1 1.1-.4 1.3-.9m-2 2.3c-.4-.3-.9-.5-1.4-.4 0 .5.1 1 .5 1.3s.9.5 1.4.4c.1-.5-.1-1-.5-1.3m-.2-1.9c.2-.5.1-1.1-.2-1.5-.5.1-.9.5-1.1 1.1-.2.5-.1 1.1.2 1.5.4-.2.9-.6 1.1-1.1m-1.7 2.5c-.4-.3-1-.4-1.4-.2 0 .5.2 1 .7 1.3.4.3 1 .4 1.4.2 0-.5-.2-1-.7-1.3m-.4-1.8c.1-.6 0-1.1-.4-1.5-.5.2-.9.6-1 1.2s0 1.1.4 1.5c.5-.2.9-.6 1-1.2m-1.4 2.8c-.5-.3-1-.2-1.5 0 .1.5.4.9.8 1.2.5.3 1 .2 1.5 0 0-.5-.3-.9-.8-1.2m-.7-1.7c.1-.6-.2-1.1-.6-1.5-.5.3-.8.7-.9 1.3s.2 1.1.6 1.5c.5-.2.8-.7.9-1.3m-1 2.7c-.5-.2-1-.2-1.4.1.1.5.4.9.9 1.1s1 .2 1.4-.1c-.1-.5-.4-.9-.9-1.1m-1-1.6c0-.5-.3-1-.8-1.3-.4.3-.6.8-.6 1.4 0 .5.3 1 .8 1.3.4-.4.6-.9.6-1.4m-.5 2.7c-.5-.2-1-.1-1.4.2.1.4.5.8 1 1s1 .1 1.4-.2c-.2-.5-.6-.8-1-1m-1.1-1.5c-.1-.5-.4-1-.9-1.2-.4.4-.6.9-.5 1.4s.4 1 .9 1.2c.3-.4.5-.9.5-1.4m-.5 2.8c-.5-.1-1 0-1.3.3.2.4.5.8 1 .9s1 0 1.3-.3c-.1-.5-.5-.8-1-.9m-2-2.6c-.3.4-.5.9-.4 1.4s.5.9.9 1.2c.3-.4.5-.9.4-1.4-.1-.6-.5-1-.9-1.2m.5 3.9c-.5-.1-.9.1-1.2.4.2.4.6.7 1.1.8s.9-.1 1.2-.4c-.2-.4-.6-.7-1.1-.8m-1.2-1.3c-.1-.5-.5-.9-.9-1.1-.3.4-.5.9-.3 1.4.1.5.5.9.9 1.1.3-.4.4-.9.3-1.4m-.1 2.7c-.5 0-.9.2-1.2.5.2.4.6.6 1.1.7.5 0 .9-.2 1.2-.5-.2-.4-.6-.6-1.1-.7m-1.3-1.2c-.1-.5-.5-.9-1-1-.3.4-.4.9-.3 1.4s.5.9 1 1c.3-.4.4-.9.3-1.4m.2 2.7c-.5 0-.9.2-1.1.6.2.4.7.6 1.1.6.5 0 .9-.2 1.1-.6-.2-.3-.6-.5-1.1-.6m-2.3-2c-.3.4-.4.8-.2 1.3.1.5.5.8.9.9.3-.4.4-.8.2-1.3q-.3-.6-.9-.9m1.2 3.7c-.5 0-.9.3-1.1.6.3.3.7.6 1.2.5.5 0 .9-.3 1.1-.6-.3-.3-.7-.6-1.2-.5m-1.5-1c-.2-.4-.5-.8-.9-.9-.2.4-.3.8-.2 1.3.2.4.5.8.9.9.3-.4.4-.8.2-1.3m.5 2.6c-.5 0-.8.3-1.1.7.3.3.7.5 1.2.5s.8-.3 1.1-.7c-.3-.4-.7-.5-1.2-.5m-2.5-1.7c-.2.4-.3.9-.1 1.3s.6.7 1 .8c.2-.4.3-.9.1-1.3s-.6-.7-1-.8m.2 2.4c-.2-.5-.6-.7-1.1-.8-.2.4-.2.9 0 1.4s.6.7 1.1.8c.2-.4.2-.9 0-1.4m.6 2.7c-.5.1-.8.4-1 .8.3.3.8.4 1.3.3s.8-.4 1-.8c-.3-.2-.8-.4-1.3-.3m-1.5-.7c-.3-.5-.7-.7-1.2-.8-.2.4-.2 1 .1 1.4.3.5.7.7 1.2.8.2-.5.2-1-.1-1.4m2.3-1c-.5.1-.8.4-1 .8.3.3.8.5 1.2.4.5-.1.8-.4 1-.8-.3-.3-.7-.5-1.2-.4m29.7-10.1v-.5c-.1-5-4.3-8-9-8.3-8.6-.4-15.9 5.3-20.7 11.9-1.8 2.7-3.5 5.5-4.8 8.5l2.8 1.7 2.1 2.5c.7-3.4 2.2-6.7 4.2-9.5 3.4-4.6 9.5-8.9 15.4-9.3 3.6-.1 7.2.9 10 3M66.5 192.3l-.5.5c-.1-.2-.2-.4-.2-.6z" class="st2"/><path d="m117.1 232.2-3.7-.7.2-1.2 2.6-2.5-.5-.1-.8.7-.6-.1.4-2.1 3.4.6-.3 1.2-2.5 2.5.7.1.9-.8.5.1zm-3.3-1 3.1.6.3-1.6-.9.8-1.5-.3 2.9-2.9.2-.8-2.8-.5-.3 1.5h.1l.8-.7 1.2.2-3 2.9z" class="st1"/><path d="m118 226.9-3.1-.6-.2.9-.1.9.3.1.8-.7.9.2-2.8 2.7-.2.9 3.4.7.4-1.9h-.3l-.9.7-1.1-.2 2.7-2.7z" class="st2"/><path d="M128.8 232.7c-.4-.1-.6-.1-1-.5-.3-.3-.4-.4-.6-.7l-.1-.1 1.3-.7.1.2c.1.1.1.2.2.2s.2.1.3.1h.1c.1 0 .2 0 .3-.1s.1-.2.1-.2c0-.1 0-.2-.1-.3-.2-.1-.4-.1-.5-.1h-.4c-.3-.1-.6-.3-.9-.5s-.5-.6-.5-1c0-.5.1-.9.5-1.3.3-.4.8-.6 1.3-.6s.9.1 1.3.4c.3.2.5.5.6.8v.1l-1.3.7-.1-.3c0-.1-.1-.2-.1-.2-.1-.1-.2-.1-.3-.1s-.2 0-.3.1-.1.2-.1.3.1.2.3.3c.1.1.2.1.3.1l.3.1c.4.1.8.3 1 .5.3.3.5.6.5 1 0 .5-.2.9-.5 1.3-.3.3-.7.4-1.2.5zm-1.2-1.2c.1.2.3.3.4.4.3.2.7.3 1.1.3s.8-.2 1.1-.5.5-.6.4-1c0-.3-.1-.5-.4-.8-.2-.2-.5-.3-.9-.4l-.3-.1c-.2 0-.3-.1-.4-.1-.4-.2-.5-.4-.5-.6s.1-.4.2-.5.3-.2.5-.2.4 0 .5.2c.1.1.2.2.2.3l.7-.4c-.1-.2-.2-.4-.5-.5-.3-.2-.7-.3-1-.3-.4 0-.8.2-1.1.5s-.4.6-.4 1c0 .3.1.5.4.8.2.2.5.4.9.5h.4c.2 0 .3.1.4.1.4.1.5.4.5.6s-.1.4-.3.5l-.1.1.2.1h-.6c-.2 0-.4 0-.6-.2l-.2-.2z" class="st1"/><path d="M129 231.3c.2 0 .3-.1.4-.2s.2-.2.2-.4-.1-.3-.4-.4c-.1 0-.2-.1-.4-.1h-.4c-.4-.1-.7-.3-.9-.5-.3-.3-.4-.5-.4-.9s.1-.8.5-1.1c.3-.3.7-.5 1.2-.5.4 0 .8.1 1.1.3s.5.4.6.7l-1 .5-.1-.2c0-.1-.1-.2-.2-.3s-.3-.1-.4-.1c-.2 0-.3.1-.4.2s-.2.2-.2.4.1.4.4.5c.1 0 .2.1.3.1h.4c.4.1.7.2 1 .5s.4.5.4.9-.1.8-.5 1.1c-.3.3-.8.5-1.2.5s-.8-.1-1.2-.3c-.3-.2-.5-.3-.6-.6l1-.5q0 .15.3.3c.2.1.4.1.5.1M122.6 232.7l-1.6-.1-.1-.9-1.2-.1-.3.9-1.9-.2.5-1.7h.5l1.4-3.7 1.5.1zm-1.3-.4.9.1-1-5-1-.1-1.4 3.7h-.4l-.3 1.1 1.2.1.3-.9 1.7.1zm-.3-1.7-1.3-.1.9-2.6zm-.8-.4h.4l-.1-.9z" class="st1"/><path d="m122.4 232.6-1.2-.1-.1-.9-1.4-.1-.3.9-1.6-.1.4-1.4h.5l1.4-3.7 1.2.1zm-1.8-4-.6 1.7.8.1zM133 232.1l-.7-3.9-1.1.2-.3-1.5 3.7-.7.3 1.5-1.1.2.8 3.9zm-.5-4.3.7 3.9.9-.2-.8-3.9 1.1-.2-.2-.9-3 .6.2.9z" class="st1"/><path d="m134.3 231.6-1.2.3-.7-4-1.1.2-.2-1.2 3.3-.6.3 1.2-1.1.2z" class="st2"/><path d="m140.9 230-1.5-3.5-.6.3v-1.9l1.3-.6 1.6 1.4-.7-1.8 1.5-.6 2.1 5.1-1.4.6-1.7-1.6.8 1.9zm-1.4-4 1.5 3.5.8-.3-1-2.4.3-.1 2.1 2 .9-.4-1.9-4.5-.8.4.9 2.2-.3.1-2-1.7-.9.4v1.1z" class="st1"/><path d="m142.1 226.2-.9-2.2 1.2-.4 2 4.8-1.2.5-2.1-2 1 2.4-1.2.5-1.4-3.5-.6.2V225l1.2-.5zM113.1 231.4l-1.5-.4.1-.9-1.1-.3-.4.8-1.8-.5.8-1.6.4.1 2.1-3.3 1.4.4zm-1.1-.7.8.2v-5.1l-1-.3-2.1 3.3-.4-.1-.5 1 1.2.3.4-.8 1.6.5zm.1-1.7-1.2-.4 1.3-2.3zm-.8-.6.4.1v-.9z" class="st1"/><path d="m113 231.1-1.2-.3.1-.9-1.4-.4-.4 1-1.6-.5.7-1.5.4.1 2.2-3.3 1.2.3zm-1-4.3-.9 1.6.8.2zM135.4 231.6l-.1-1.8.4-.1v-3.9l1.4-.4 3.1 4.9-1.5.4-.4-.8-1.1.3v.9zm.2-1.6.1 1.1 1.2-.3v-.9l1.6-.5.4.8.8-.2-2.7-4.3-1 .3v3.9zm1.2-.9-.1-2.7 1.3 2.4zm.3-1.4v.9l.4-.1z" class="st1"/><path d="m140 230.1-1.2.3-.4-.8-1.4.4v.9l-1.5.4-.1-1.5.4-.1v-3.9l1.2-.3zm-3.1-3.1.1 1.8.8-.2zM124.6 232.8c-1.1 0-2-1.2-2-2.8s.9-2.8 2-2.8 2 1.2 2 2.8-.9 2.8-2 2.8m0-5.3c-.9 0-1.7 1.1-1.7 2.4s.8 2.4 1.7 2.4 1.7-1.1 1.7-2.4-.8-2.4-1.7-2.4m0 4.4c-.1 0-.2 0-.3-.1-.2-.2-.2-.6-.2-.9v-1.8c0-.4 0-.7.2-1q.3-.3.6 0c.3.3.2.6.2.9v1.8c0 .4 0 .7-.2 1-.1.1-.2.1-.3.1m0-3.5c-.2 0-.2.6-.2.7v1.8c0 .2 0 .6.1.7h.1c.1-.1.1-.5.1-.7l.1-1.7v-.1c0-.3 0-.7-.2-.7.1 0 0 0 0 0" class="st1"/><path d="M124.6 228.2c.4 0 .3.8.3 1v1.6c0 .2.1 1-.3 1s-.3-.7-.3-1v-1.6c0-.2-.1-1 .3-1m0-.8c1 0 1.9 1.2 1.9 2.6s-.8 2.6-1.9 2.6c-1 0-1.9-1.2-1.9-2.6s.9-2.6 1.9-2.6" class="st2"/><path d="m125.8 233.7-1.4-1.5c-.2-.2-.2-.4-.2-.6.1-.2.3-.4.5-.5.1 0 .4 0 .7.3.2.2.5.8.8 1.4.1.1.1.2.2.3v.1zm-.9-2.2q-.3 0-.3.3c0 .1 0 .2.1.3l1.2 1.2.1-.1c0-.1-.1-.1-.1-.2-.2-.4-.6-1.1-.7-1.3s-.2-.2-.3-.2" class="st1"/><path d="m126.2 233.2-.4.3-1.3-1.3c-.4-.4.2-1.2.8-.6.2.2.7 1.2.9 1.6" class="st2"/><path d="M107 229.3c-.2 0-.4 0-.6-.1-.5-.2-.9-.7-1-1.4-.1-.6 0-1.3.3-2s.8-1.2 1.3-1.5c.6-.3 1.2-.4 1.7-.2 1 .5 1.4 2 .7 3.4-.6 1.1-1.5 1.8-2.4 1.8m.9-5q-.45 0-.9.3c-.5.3-.9.8-1.2 1.4s-.4 1.2-.2 1.8c.1.5.4.9.8 1.1.9.4 2-.3 2.6-1.5.5-1.2.3-2.5-.6-2.9-.1-.1-.3-.2-.5-.2m-1 4.2h-.2c-.1 0-.2-.1-.2-.2-.1-.3 0-.6.2-.9v-.1l.7-1.5c.1-.3.3-.7.6-.8h.3c.1 0 .2.1.2.2.1.3 0 .6-.2.9v.1l-.7 1.5c-.1.3-.3.7-.6.8zm1.2-3.2c-.2 0-.4.4-.4.5v.1l-.7 1.5c-.1.2-.2.5-.2.7v.1h.1c.2-.1.3-.4.4-.6l.7-1.6c.1-.2.4-.7.1-.7" class="st1"/><path d="M108.2 225c.4.2 0 .8-.1 1l-.6 1.5c-.1.2-.3.9-.7.8-.4-.2 0-.8.1-1l.6-1.5c.1-.2.3-.9.7-.8m.3-.7c.9.4 1.2 1.8.7 3.2-.6 1.3-1.8 2-2.8 1.6-.9-.4-1.2-1.8-.7-3.2.6-1.3 1.9-2 2.8-1.6" class="st2"/><path d="m107.1 230.6-.7-1.9c-.1-.2 0-.4.1-.6.2-.2.5-.3.6-.3.1.1.4.2.5.6.1.3.1.9.1 1.6v.4zm-.1-2.5c-.1 0-.2.1-.3.1 0 0-.1.2-.1.3l.6 1.6.2-.1v-.2c0-.4 0-1.3-.1-1.5 0 0-.1-.1-.3-.2.1 0 0 0 0 0" class="st1"/><path d="m107.7 230.2-.5.1-.6-1.8c-.2-.5.7-1 1-.2 0 .4 0 1.5.1 1.9" class="st2"/><path d="M124.7 321c-1.6 0-3-1.3-3-3s1.3-3 3-3 3 1.3 3 3-1.3 3-3 3m-12.6-10.8v6.7h7.6c.5-2.4 2.6-4.1 5.1-4.1s4.6 1.8 5.1 4.1h7.4v-6.7zm12.6 13c-2.5 0-4.6-1.8-5.1-4.1H112v6.7h25.1V319h-7.4c-.4 2.4-2.5 4.2-5 4.2M48.5 327.8c-5.4 0-7.6-3.6-8.3-5q-1.05 2.1-3.9 2.1c-2.85 0-2.5-1-2.7-1.6-.4-1.2.2-2.7 1-3.3l1.4-1-1.1 1.3c-.2.2-.3.9-.1 1.3s.6.6 1.2.6c.5 0 1-.2 1.3-.5s.4-.7.4-1.1c0-.8-.5-1.7-1.7-1.7-2.1 0-4.6 1.9-4.9 3.7s2.4 3.5 2.4 3.6l.8.5h-.9c-2.8-.1-3.8-1.7-4.2-2.6-1.4 2.5-4.6 2.3-4.7 2.3h-.2v-.2s-.2-3.3 2.3-4.7c-1-.4-2.6-1.4-2.6-4.2v-.8l.5.7s1.8 2.7 3.6 2.4c1.8-.4 3.7-2.8 3.7-4.9v-.2l-1 1.7c-.5.9-2 1.4-3.1 1-.6-.2-1.7-.8-1.7-2.8q0-2.85 2.1-3.9c-1.4-.7-5-2.9-5-8.3 0-2.9 1.3-4 1.4-4.1l.4-.3v.5s.3 3.6 3.5 6.2c3.4 2.9 5.2 5.7 5.7 9.2.5-.6 1.2-1.8 0-3.7l-.2-.2.3-.1s.9-.5 1.9-.1c.5.2 1 .6 1.3 1.1.5-.7 1.8-1.9 3.7-1.3h.1v.1c.6 1.9-.3 3.6-1.3 3.9.6.3 1 .6 1.1 1.1.3.9-.1 1.8-.1 1.9l-.1.3-.2-.2c-1.7-1.1-3-.5-3.6 0 3.6.6 6.4 2.3 9.2 5.7 3.8 3.6 6.2 3.5 6.2 3.5h.4l-.3.4c-.2.2-1.1 1.7-4 1.7m-8.3-6.4.2.7c.1.2 1.8 5.2 8.1 5.2 1.8 0 2.8-.6 3.3-1-1.1-.2-3.9-1-6.1-3.6-2.8-3.5-5.6-5.1-9.3-5.6l-.4-.1.3-.3s1.8-2.1 4.4-.6c.1-.3.2-.8 0-1.2-.2-.5-.6-.9-1.3-1.2l-.5-.2.4-.2c.1 0 2-1.2 1.4-3.3-2.1-.6-3.2 1.3-3.3 1.4l-.2.4-.2-.5c-.3-.7-.7-1.1-1.2-1.3s-.9-.1-1.2 0c1.6 2.7-.6 4.4-.6 4.4l-.3.2-.1-.4c-.5-3.6-2.1-6.4-5.6-9.3-2.6-2.1-3.4-4.8-3.6-6-.4.5-.9 1.6-.9 3.3 0 6.2 5.2 8 5.2 8.1l.7.2-.7.2c-1.6.6-2.3 1.8-2.3 3.7 0 1.2.5 2 1.4 2.3.6.2 1.3.1 1.8-.2-.2 0-.4-.1-.6-.1-.4-.2-1-.6-1-1.7 0-1.5 1.1-2.2 2.1-2.2q.9 0 1.5.6c.6.6.7 1 .7 1.7 0 2.3-2 4.9-4.1 5.3-1.4.2-2.8-1.1-3.6-1.9.4 2.8 2.7 3 2.8 3.1l1.2.1-1.1.4c-2.5.8-2.6 3.4-2.6 4.2.8 0 3.3-.2 4.2-2.6l.4-1 .1 1.1c0 .1.3 2.3 3 2.8-.8-.7-2.1-2-1.9-3.5.3-2 3-4.1 5.3-4.1 1.5 0 2.2 1.1 2.2 2.2q0 .9-.6 1.5c-.4.4-1 .7-1.7.7-1 0-1.5-.5-1.7-.9-.1-.2-.1-.4-.2-.6-.3.6-.4 1.3-.2 1.9.3.8 1.1 1.2 2.3 1.2 1.9 0 3.1-.7 3.7-2.3zM30.1 313c-.8 0-1.6.5-1.6 1.7 0 .6.2 1 .7 1.2s1.1 0 1.2-.1l1.4-1.4c-.1-.4-.2-.8-.5-1-.4-.3-.8-.4-1.2-.4M225.7 302.5c0 5.4-3.6 7.6-5 8.3q2.1 1.05 2.1 3.9c0 2.85-1 2.5-1.6 2.7-1.2.4-2.7-.2-3.3-1l-1-1.4 1.3 1.1c.2.2.9.3 1.3.1q.6-.3.6-1.2c0-.5-.2-1-.5-1.3s-.7-.4-1.1-.4c-.8 0-1.7.5-1.7 1.7 0 2.1 1.9 4.6 3.7 4.9s3.5-2.4 3.6-2.4l.5-.8v.9c-.1 2.8-1.7 3.8-2.6 4.2 2.5 1.4 2.3 4.6 2.3 4.7v.2h-.2s-3.3.2-4.7-2.3c-.4 1-1.4 2.6-4.2 2.6h-.8l.7-.5s2.7-1.8 2.4-3.6c-.4-1.8-2.8-3.7-4.9-3.7h-.2l1.7 1c.9.5 1.4 2 1 3.1-.2.6-.8 1.7-2.8 1.7q-2.85 0-3.9-2.1c-.7 1.4-2.9 5-8.3 5-2.9 0-4-1.3-4.1-1.4l-.3-.4h.5s3.6-.3 6.2-3.5c2.9-3.4 5.7-5.2 9.2-5.7-.6-.5-1.8-1.2-3.7 0l-.2.2-.1-.3s-.5-.9-.1-1.9c.2-.5.6-1 1.1-1.3-.7-.5-1.9-1.8-1.3-3.7v-.1h.1c1.9-.6 3.6.3 3.9 1.3.3-.6.6-1 1.1-1.1.9-.3 1.8.1 1.9.1l.3.1-.2.2c-1.1 1.7-.5 3 0 3.6.6-3.6 2.3-6.4 5.7-9.2 3.6-3.8 3.5-6.2 3.5-6.2v-.4l.4.3c.2.1 1.7 1 1.7 4m-6.4 8.3.7-.2c.2-.1 5.2-1.8 5.2-8.1 0-1.8-.6-2.8-1-3.3-.2 1.1-1 3.9-3.6 6.1-3.5 2.8-5.1 5.6-5.6 9.3l-.1.4-.3-.3s-2.1-1.8-.6-4.4c-.3-.1-.8-.2-1.2 0-.5.2-.9.6-1.2 1.3l-.2.5-.2-.4c0-.1-1.2-2-3.3-1.4-.6 2.1 1.3 3.2 1.4 3.3l.4.2-.5.2c-.7.3-1.1.7-1.3 1.2s-.1.9 0 1.2c2.7-1.6 4.4.6 4.4.6l.2.3-.4.1c-3.6.5-6.4 2.1-9.3 5.6-2.1 2.6-4.8 3.4-6 3.6.5.4 1.6.9 3.3.9 6.2 0 8-5.2 8.1-5.2l.2-.7.2.7c.6 1.6 1.8 2.3 3.7 2.3 1.2 0 2-.5 2.3-1.4.2-.6.1-1.3-.2-1.8 0 .2-.1.4-.1.6-.2.4-.6 1-1.7 1-1.5 0-2.2-1.1-2.2-2.1q0-.9.6-1.5c.4-.4 1-.7 1.7-.7 2.3 0 4.9 2 5.3 4.1.2 1.4-1.1 2.8-1.9 3.6 2.8-.4 3-2.7 3.1-2.8l.1-1.2.4 1.1c.8 2.5 3.4 2.6 4.2 2.6 0-.8-.2-3.3-2.6-4.2l-1-.4 1.1-.1c.1 0 2.3-.3 2.8-3-.7.8-2 2.1-3.5 1.9-2-.3-4.1-3-4.1-5.3 0-1.5 1.1-2.2 2.2-2.2q.9 0 1.5.6c.6.6.7 1 .7 1.7 0 1-.5 1.5-.9 1.7-.2.1-.4.1-.6.2.6.3 1.3.4 1.9.2.8-.3 1.2-1.1 1.2-2.3 0-1.9-.7-3.1-2.3-3.7zm-8.4 10.1c0 .8.5 1.6 1.7 1.6.6 0 1-.2 1.2-.7s0-1.1-.1-1.2l-1.4-1.4c-.4.1-.8.2-1 .5-.3.3-.4.8-.4 1.2M199.5 29.9c5.4 0 7.6 3.6 8.3 5q1.05-2.1 3.9-2.1c2.85 0 2.5 1 2.7 1.6.4 1.2-.2 2.7-1 3.3l-1.4 1 1.1-1.3c.2-.2.3-.9.1-1.3q-.3-.6-1.2-.6c-.5 0-1 .2-1.3.5s-.4.7-.4 1.1c0 .8.5 1.7 1.7 1.7 2.1 0 4.6-1.9 4.9-3.7s-2.4-3.5-2.4-3.6l-.8-.5h.9c2.8.1 3.8 1.7 4.2 2.6 1.4-2.5 4.6-2.3 4.7-2.3h.2v.2s.2 3.3-2.3 4.7c1 .4 2.6 1.4 2.6 4.2v.8l-.5-.7s-1.8-2.7-3.6-2.4c-1.8.4-3.7 2.8-3.7 4.9v.2l1-1.7c.5-.9 2-1.4 3.1-1 .6.2 1.7.8 1.7 2.8q0 2.85-2.1 3.9c1.4.7 5 2.9 5 8.3 0 2.9-1.3 4-1.4 4.1l-.4.3v-.5s-.3-3.6-3.5-6.2c-3.4-2.9-5.2-5.7-5.7-9.2-.5.6-1.2 1.8 0 3.7l.2.2-.3.1s-.9.5-1.9.1c-.5-.2-1-.6-1.3-1.1-.5.7-1.8 1.9-3.7 1.3h-.1v-.1c-.6-1.9.3-3.6 1.3-3.9-.6-.3-1-.6-1.1-1.1-.3-.9.1-1.8.1-1.9l.1-.3.2.2c1.7 1.1 3 .5 3.6 0-3.6-.6-6.4-2.3-9.2-5.7-3.8-3.6-6.2-3.5-6.2-3.5h-.4l.3-.4c.2-.2 1.1-1.7 4-1.7m8.3 6.4-.2-.7c-.1-.2-1.8-5.2-8.1-5.2-1.8 0-2.8.6-3.3 1 1.1.2 3.9 1 6.1 3.6 2.8 3.5 5.6 5.1 9.3 5.6l.4.1-.3.3s-1.8 2.1-4.4.6c-.1.3-.2.8 0 1.2.2.5.6.9 1.3 1.2l.5.2-.4.2c-.1 0-2 1.2-1.4 3.3 2.1.6 3.2-1.3 3.3-1.4l.2-.4.2.5c.3.7.7 1.1 1.2 1.3s.9.1 1.2 0c-1.6-2.7.6-4.4.6-4.4l.3-.2.1.4c.5 3.6 2.1 6.4 5.6 9.3 2.6 2.1 3.4 4.8 3.6 6 .4-.5.9-1.6.9-3.3 0-6.2-5.2-8-5.2-8.1l-.7-.2.7-.2c1.6-.6 2.3-1.8 2.3-3.7 0-1.2-.5-2-1.4-2.3-.6-.2-1.3-.1-1.8.2.2 0 .4.1.6.1.4.2 1 .6 1 1.7 0 1.5-1.1 2.2-2.1 2.2q-.9 0-1.5-.6c-.4-.4-.7-1-.7-1.7 0-2.3 2-4.9 4.1-5.3 1.4-.2 2.8 1.1 3.6 1.9-.4-2.8-2.7-3-2.8-3.1l-1.2-.1 1.1-.4c2.5-.8 2.6-3.4 2.6-4.2-.8 0-3.3.2-4.2 2.6l-.4 1-.1-1.1c0-.1-.3-2.3-3-2.8.8.7 2.1 2 1.9 3.5-.3 2-3 4.1-5.3 4.1-1.5 0-2.2-1.1-2.2-2.2q0-.9.6-1.5c.4-.4 1-.7 1.7-.7 1 0 1.5.5 1.7.9.1.2.1.4.2.6.3-.6.4-1.3.2-1.9-.3-.8-1.1-1.2-2.3-1.2-1.9 0-3.1.7-3.7 2.3zm10.1 8.4c.8 0 1.6-.5 1.6-1.7 0-.6-.2-1-.7-1.2s-1.1 0-1.2.1l-1.4 1.4c.1.4.2.8.5 1 .4.3.8.4 1.2.4M22.7 55.2c0-5.4 3.6-7.6 5-8.3q-2.1-1.05-2.1-3.9c0-2.85 1-2.5 1.6-2.7 1.2-.4 2.7.2 3.3 1l1 1.4-1.3-1.1c-.2-.2-.9-.3-1.3-.1s-.6.6-.6 1.2c0 .5.2 1 .5 1.3s.7.4 1.1.4c.8 0 1.7-.5 1.7-1.7 0-2.1-1.9-4.6-3.7-4.9s-3.5 2.4-3.6 2.4l-.5.8v-.9c.1-2.8 1.7-3.8 2.6-4.2-2.5-1.4-2.3-4.6-2.3-4.7V31h.2s3.3-.2 4.7 2.3c.4-1 1.4-2.6 4.2-2.6h.8l-.7.5s-2.7 1.8-2.4 3.6c.4 1.8 2.8 3.7 4.9 3.7h.2l-1.7-1c-.9-.5-1.4-2-1-3.1.2-.6.8-1.7 2.8-1.7q2.85 0 3.9 2.1c.7-1.4 2.9-5 8.3-5 2.9 0 4 1.3 4.1 1.4l.3.4h-.5s-3.6.3-6.2 3.5c-2.9 3.4-5.7 5.2-9.2 5.7.6.5 1.8 1.2 3.7 0l.2-.2.1.3s.5.9.1 1.9c-.2.5-.6 1-1.1 1.3.7.5 1.9 1.8 1.3 3.7v.1H41c-1.9.6-3.6-.3-3.9-1.3-.3.6-.6 1-1.1 1.1-.9.3-1.8-.1-1.9-.1l-.3-.1.2-.2c1.1-1.7.5-3 0-3.6-.6 3.6-2.3 6.4-5.7 9.2-3.6 3.8-3.5 6.2-3.5 6.2v.4l-.4-.3c-.2-.2-1.7-1.1-1.7-4m6.4-8.3-.7.2c-.2.1-5.2 1.8-5.2 8.1 0 1.8.6 2.8 1 3.3.2-1.1 1-3.9 3.6-6.1 3.5-2.8 5.1-5.6 5.6-9.3l.1-.4.3.3s2.1 1.8.6 4.4c.3.1.8.2 1.2 0 .5-.2.9-.6 1.2-1.3l.2-.5.2.4c0 .1 1.2 2 3.3 1.4.6-2.1-1.3-3.2-1.4-3.3l-.4-.2.5-.2c.7-.3 1.1-.7 1.3-1.2s.1-.9 0-1.2c-2.7 1.6-4.4-.6-4.4-.6l-.2-.3.4-.1c3.6-.5 6.4-2.1 9.3-5.6 2.1-2.6 4.8-3.4 6-3.6-.5-.4-1.6-.9-3.3-.9-6.2 0-8 5.2-8.1 5.2l-.2.7-.2-.7c-.6-1.6-1.8-2.3-3.7-2.3-1.2 0-2 .5-2.3 1.4-.2.6-.1 1.3.2 1.8 0-.2.1-.4.1-.6.2-.4.6-1 1.7-1 1.5 0 2.2 1.1 2.2 2.1q0 .9-.6 1.5c-.4.4-1 .7-1.7.7-2.3 0-4.9-2-5.3-4.1-.2-1.4 1.1-2.8 1.9-3.6-2.8.4-3 2.7-3.1 2.8l-.1 1.2-.4-1.1c-.8-2.5-3.4-2.6-4.2-2.6 0 .8.2 3.3 2.6 4.2l1 .4-1.1.1c-.1 0-2.3.3-2.8 3 .7-.8 2-2.1 3.5-1.9 2.8.3 4.3 3.1 4.3 5.4 0 1.5-1.3 2.1-2.4 2.1q-.9 0-1.5-.6c-.4-.4-.5-.9-.5-1.6 0-1 .5-1.4.9-1.6.2-.1.4-.2.7-.2-.6-.3-1.1-.3-1.7-.1-.8.3-1.3 1.2-1.3 2.4 0 1.5.5 2.6 2 3.3zm8.4-10.1c0-.8-.5-1.6-1.7-1.6-.6 0-1 .2-1.2.7s0 1.1.1 1.2l1.4 1.4c.4-.1.8-.2 1-.5.3-.4.4-.8.4-1.2" class="st1"/></svg>