<svg xmlns="http://www.w3.org/2000/svg" xml:space="preserve" width="333.662" height="473.169" version="1.2"><path fill="#003875" d="M162.802 144.942c0 1.69-.658 3.366-1.961 4.647a6.75 6.75 0 0 1-4.728 1.929H55.095V5.073h101.018c1.706 0 3.424.647 4.728 1.928a6.51 6.51 0 0 1 1.96 4.646z" style="opacity:1;fill:#6e0118;fill-opacity:1;stroke:none;stroke-width:.316886;stroke-miterlimit:4;stroke-dasharray:none;stroke-opacity:1;paint-order:stroke fill markers" transform="matrix(3.0888 0 0 3.22406 -169.69 -15.845)"/><g aria-label="EUROPOS SĄJUNGA" style="font-style:normal;font-weight:400;font-size:5.21786px;line-height:1.25;font-family:sans-serif;fill:#cab741;fill-opacity:1;stroke:none;stroke-width:.130445"><path d="M185.12 27.09v-3.736h2.272v.632h-1.656v.828h1.539v.63h-1.54v1.016h1.713v.63zM188.513 23.354h.617v2.023q0 .471.023.614.04.247.193.382.156.135.408.135.214 0 .35-.094.134-.097.183-.265.05-.17.05-.729v-2.066h.62v1.962q0 .752-.082 1.088-.079.334-.362.543-.28.206-.741.206-.479 0-.749-.17-.268-.174-.39-.485-.12-.313-.12-1.151zM192.157 27.09v-3.736h1.302q.5 0 .713.102.214.1.352.35.138.246.138.593 0 .438-.212.705-.209.268-.596.337.199.142.329.313.13.168.354.607l.372.728h-.737l-.448-.813q-.242-.44-.329-.55-.086-.112-.183-.153-.097-.043-.31-.043h-.128v1.56zm.617-2.156h.458q.42 0 .535-.036.115-.038.186-.15.072-.112.072-.298 0-.179-.072-.286-.071-.11-.193-.15-.087-.028-.502-.028h-.484zM195.668 25.245q0-.668.197-1.098.198-.434.517-.645.318-.212.772-.212.657 0 1.07.502.415.502.415 1.43 0 .937-.438 1.465-.385.466-1.045.466-.665 0-1.05-.461-.438-.528-.438-1.447m.637-.026q0 .645.245.968.245.321.606.321.365 0 .604-.318.24-.321.24-.984 0-.65-.235-.96-.232-.311-.609-.311t-.614.313-.237.971M199.671 27.09v-3.736h.994q.555 0 .726.054.273.086.449.37.178.282.178.728 0 .405-.153.68-.153.273-.382.385-.23.11-.79.11h-.405v1.408zm.617-3.104v1.06h.341q.344 0 .467-.049.124-.048.203-.173.08-.127.08-.31 0-.187-.082-.314t-.201-.17-.507-.044zM202.95 25.245q0-.668.197-1.098.199-.434.517-.645.319-.212.772-.212.658 0 1.07.502.416.502.416 1.43 0 .937-.439 1.465-.384.466-1.044.466-.665 0-1.05-.461-.438-.528-.438-1.447m.638-.026q0 .645.244.968.245.321.607.321.364 0 .604-.318.24-.321.24-.984 0-.65-.235-.96-.232-.311-.61-.311-.376 0-.613.313-.237.314-.237.971M206.798 25.874l.604-.071q.102.715.668.715.28 0 .44-.145.161-.148.161-.364 0-.127-.056-.217-.056-.089-.17-.145-.115-.058-.556-.193-.395-.12-.578-.26-.184-.14-.293-.367-.107-.23-.107-.492 0-.306.137-.55.14-.245.385-.37t.604-.125q.54 0 .843.293t.321.839l-.619.033q-.04-.3-.176-.42t-.385-.12q-.25 0-.384.104-.135.105-.135.26 0 .153.122.257t.563.23q.466.135.673.285.209.148.318.385.11.234.11.57 0 .487-.3.818-.299.331-.936.331-1.126 0-1.253-1.281M211.94 25.874l.605-.071q.102.715.667.715.28 0 .44-.145.161-.148.161-.364 0-.127-.056-.217-.056-.089-.17-.145-.115-.058-.556-.193-.395-.12-.578-.26-.184-.14-.293-.367-.107-.23-.107-.492 0-.306.137-.55.14-.245.385-.37t.604-.125q.54 0 .843.293t.321.839l-.619.033q-.04-.3-.176-.42t-.384-.12q-.25 0-.385.104-.135.105-.135.26 0 .153.122.257.123.105.563.23.467.135.673.285.209.148.318.385.11.234.11.57 0 .487-.3.818-.299.331-.936.331-1.126 0-1.253-1.281M218.26 27.09h-.673l-.267-.85h-1.223l-.253.85h-.657l1.192-3.736h.655zm-1.14-1.479-.42-1.386-.415 1.386zm.48 1.412h.313q-.043.143-.043.367 0 .209.079.306.079.096.224.096.128 0 .28-.058v.344q-.209.11-.41.11-.232 0-.377-.156-.143-.156-.143-.438 0-.225.077-.571M220.24 23.354h.619v2.364q0 .574-.115.854-.114.28-.344.43-.226.15-.56.15-.441 0-.69-.302-.25-.303-.253-.915l.584-.081q.01.328.084.466.1.188.298.188.193 0 .285-.135.092-.137.092-.606zM222.062 23.354h.616v2.023q0 .471.023.614.041.247.194.382.155.135.408.135.214 0 .349-.094.135-.097.183-.265.051-.17.051-.729v-2.066h.62v1.962q0 .752-.082 1.088-.08.334-.362.543-.28.206-.741.206-.48 0-.75-.17-.267-.174-.39-.485-.12-.313-.12-1.151zM225.71 27.09v-3.736h.602l1.254 2.494v-2.494h.575v3.735h-.621l-1.233-2.435v2.435zM230.766 25.716v-.63h1.332v1.489q-.2.236-.57.407t-.742.17q-.453 0-.8-.22-.346-.225-.55-.668-.201-.446-.201-1.047 0-.617.204-1.055.206-.438.532-.655.329-.217.785-.217.548 0 .876.28.331.278.426.819l-.612.14q-.069-.288-.252-.441t-.438-.153q-.395 0-.64.308-.244.306-.244.935 0 .676.265 1.027.226.303.614.303.18 0 .374-.084.196-.086.35-.234v-.474ZM235.982 27.09h-.673l-.267-.85h-1.223l-.253.85h-.657l1.192-3.736h.655zm-1.14-1.479-.42-1.386-.415 1.386z" style="font-style:normal;font-variant:normal;font-weight:700;font-stretch:condensed;font-family:Arial;-inkscape-font-specification:&quot;Arial Bold Condensed&quot;;letter-spacing:.548213px;fill:#cab741;fill-opacity:1;stroke-width:.130445" transform="matrix(3.1557 0 0 3.1557 -497.604 -15.845)"/></g><g aria-label="LIETUVOS RESPUBLIKA" style="font-style:normal;font-weight:400;font-size:5.21786px;line-height:1.25;font-family:sans-serif;letter-spacing:.449979px;fill:#cab741;fill-opacity:1;stroke:none;stroke-width:.130445"><path d="M181.332 34.694V30.99h.617v3.075h1.538v.63zM184.365 34.694V30.96h.617v3.735zM186.028 34.694V30.96h2.273v.632h-1.656v.828h1.539v.63h-1.54v1.016h1.713v.63zM190.02 34.694v-3.103h-.91v-.632h2.433v.632h-.907v3.103zM192.393 30.96h.617v2.022q0 .472.023.614.04.248.193.383.156.135.408.135.214 0 .349-.095.135-.097.183-.265.051-.17.051-.728v-2.067h.62v1.962q0 .752-.082 1.088-.08.334-.362.543-.28.206-.741.206-.48 0-.75-.17-.267-.174-.39-.485-.119-.313-.119-1.151zM196.718 34.694l-1.093-3.735h.67l.775 2.765.749-2.765h.657l-1.095 3.735zM199.117 32.85q0-.668.196-1.098.2-.433.518-.645.318-.211.772-.211.657 0 1.07.502.415.502.415 1.429 0 .938-.438 1.465-.385.466-1.045.466-.665 0-1.05-.461-.438-.527-.438-1.447m.637-.026q0 .645.245.969.244.32.606.32.364 0 .604-.318.24-.32.24-.983 0-.65-.235-.96-.232-.312-.609-.312t-.614.314-.237.97M202.867 33.48l.603-.072q.102.716.668.716.28 0 .44-.145.161-.148.161-.365 0-.127-.056-.216-.056-.09-.17-.146-.115-.058-.556-.193-.395-.12-.578-.26-.184-.14-.293-.367-.107-.23-.107-.492 0-.305.137-.55.14-.245.385-.37.245-.124.604-.124.54 0 .843.293t.321.838l-.619.033q-.04-.3-.176-.42t-.384-.12q-.25 0-.385.104-.135.105-.135.26 0 .153.122.258.122.104.563.229.466.135.673.285.209.148.318.385.11.234.11.57 0 .487-.3.818-.299.332-.936.332-1.126 0-1.253-1.282M207.97 34.694V30.96h1.302q.5 0 .714.102.214.1.351.35.138.247.138.593 0 .438-.212.706-.209.267-.596.336.199.143.329.313.13.169.354.607l.372.728h-.736l-.449-.812q-.242-.441-.328-.55-.087-.113-.184-.153-.097-.044-.31-.044h-.128v1.56zm.617-2.155h.459q.42 0 .535-.036.114-.038.186-.15.07-.112.07-.298 0-.178-.07-.285-.072-.11-.194-.15-.087-.029-.502-.029h-.484zM211.508 34.694V30.96h2.273v.632h-1.656v.828h1.539v.63h-1.54v1.016h1.713v.63zM214.654 33.48l.604-.072q.102.716.667.716.28 0 .44-.145.161-.148.161-.365 0-.127-.056-.216-.056-.09-.17-.146-.115-.058-.556-.193-.395-.12-.578-.26t-.293-.367q-.107-.23-.107-.492 0-.305.138-.55.14-.245.384-.37.245-.124.604-.124.54 0 .843.293.304.293.321.838l-.619.033q-.04-.3-.175-.42-.136-.12-.385-.12-.25 0-.385.104-.135.105-.135.26 0 .153.122.258.123.104.563.229.467.135.673.285.209.148.318.385.11.234.11.57 0 .487-.3.818-.299.332-.936.332-1.126 0-1.253-1.282M218.113 34.694V30.96h.993q.556 0 .726.054.273.087.449.37.178.282.178.728 0 .405-.153.68-.152.273-.382.385-.23.11-.79.11h-.405v1.408zm.616-3.103v1.06h.342q.344 0 .466-.048.125-.049.204-.174.079-.127.079-.31 0-.186-.082-.314-.081-.127-.201-.17t-.507-.044zM221.411 30.96h.617v2.022q0 .472.023.614.04.248.193.383.156.135.408.135.214 0 .349-.095.135-.097.183-.265.051-.17.051-.728v-2.067h.62v1.962q0 .752-.082 1.088-.079.334-.362.543-.28.206-.741.206-.48 0-.75-.17-.267-.174-.39-.485-.119-.313-.119-1.151zM224.954 30.96h1.226q.502 0 .705.091.204.092.344.324t.14.525q0 .27-.12.489-.12.216-.31.32.272.098.425.332.156.234.156.57 0 .408-.196.691-.197.28-.464.347-.186.045-.864.045h-1.042zm.617.621v.864h.407q.367 0 .454-.013.158-.025.247-.132.09-.11.09-.296 0-.166-.075-.268-.071-.104-.176-.13-.101-.025-.59-.025zm0 1.485v1h.573q.377 0 .484-.04t.178-.154q.074-.118.074-.296 0-.183-.079-.3-.076-.12-.206-.164-.128-.046-.525-.046zM228.51 34.694V30.99h.616v3.075h1.54v.63zM231.543 34.694V30.96h.617v3.735zM233.211 34.694V30.96h.617v1.659l1.25-1.659h.834l-1.154 1.455 1.215 2.28h-.8l-.843-1.752-.502.624v1.128zM239.503 34.694h-.672l-.268-.848h-1.223l-.252.848h-.657l1.192-3.735h.655zm-1.139-1.477-.42-1.386-.415 1.386z" style="font-style:normal;font-variant:normal;font-weight:700;font-stretch:condensed;font-family:Arial;-inkscape-font-specification:&quot;Arial Bold Condensed&quot;;letter-spacing:.449979px;fill:#cab741;fill-opacity:1;stroke-width:.130445" transform="matrix(3.1557 0 0 3.1557 -497.185 -15.845)"/></g><g aria-label="PASAS" style="font-style:normal;font-weight:400;font-size:8.03958px;line-height:1.25;font-family:sans-serif;letter-spacing:1.33726px;fill:#cab741;fill-opacity:1;stroke:none;stroke-width:.200987"><path d="M92.105 124.326h1.166q.946 0 1.362.177.42.172.66.565.243.389.243.934 0 .605-.318 1.005-.314.4-.856.558-.318.09-1.158.09v2.446h-1.099zm1.1 2.257h.349q.412 0 .573-.059t.251-.192q.094-.137.094-.33 0-.333-.259-.487-.188-.113-.699-.113h-.31zM99.712 124.326h1.114l2.222 5.775h-1.142l-.452-1.19H99.1l-.471 1.19h-1.142zm.565 1.531-.77 1.982h1.535zM108.268 125.111l-.813.719q-.428-.597-.871-.597-.216 0-.353.118-.138.113-.138.259 0 .145.098.275.134.172.805.741.628.526.762.664.333.337.47.648.142.306.142.67 0 .711-.49 1.175-.491.463-1.28.463-.617 0-1.076-.302-.455-.303-.781-.95l.922-.558q.416.766.958.766.283 0 .475-.165t.192-.381q0-.196-.145-.393-.145-.196-.64-.6-.942-.77-1.217-1.186-.274-.42-.274-.836 0-.6.455-1.028.46-.432 1.13-.432.432 0 .82.2.393.2.849.73M112.514 124.326h1.115l2.222 5.775h-1.143l-.451-1.19h-2.355l-.471 1.19h-1.143zm.565 1.531-.77 1.982h1.536zM121.07 125.111l-.812.719q-.428-.597-.872-.597-.216 0-.353.118-.137.113-.137.259 0 .145.098.275.133.172.804.741.629.526.762.664.334.337.471.648.141.306.141.67 0 .711-.49 1.175-.491.463-1.28.463-.616 0-1.076-.302-.455-.303-.78-.95l.922-.558q.416.766.958.766.282 0 .475-.165.192-.165.192-.381 0-.196-.145-.393-.146-.196-.64-.6-.942-.77-1.217-1.186-.275-.42-.275-.836 0-.6.455-1.028.46-.432 1.131-.432.432 0 .82.2.393.2.848.73" style="font-style:normal;font-variant:normal;font-weight:700;font-stretch:normal;font-family:&quot;Century Gothic&quot;;-inkscape-font-specification:&quot;Century Gothic Bold&quot;;letter-spacing:1.33726px;fill:#cab741;fill-opacity:1;stroke-width:.200987" transform="matrix(3.1557 0 0 3.1557 -169.69 -15.845)"/></g><path fill="#f7f49a" d="M110.222 138.492a1.273 1.273 0 1 0-2.546 0 1.273 1.273 0 0 0 2.546 0m-1.273 1.929a1.93 1.93 0 0 1-1.9-1.597h-3.468v2.605h10.735v-2.605h-3.466a1.93 1.93 0 0 1-1.901 1.597m-5.368-4.875v2.604h3.467a1.94 1.94 0 0 1 1.9-1.596c.95 0 1.75.693 1.902 1.596h3.466v-2.604z" style="opacity:1;fill:#cab741;fill-opacity:1;stroke-width:.797087" transform="matrix(3.0888 0 0 3.22406 -169.69 -15.845)"/><path fill="#231f20" fill-rule="evenodd" d="M245.463 55.815h-38.247v24.308h.002l-.002.175v.077c0 4.758 2.148 9.078 5.612 12.208s8.245 5.071 13.512 5.071c5.266 0 10.047-1.94 13.51-5.07 3.465-3.131 5.614-7.45 5.614-12.209v-.002h-.001v-.075l-.003-.176h.003zm-18.617 7.904c-.41.294-.713.668-.878 1.148.433.665 1.081 1.284 1.746 1.8.233-.323.49-.661.771-.907-.2-.299.026-.509.28-.777-.646-.418-1.3-.834-1.92-1.264m-1.343-4.369.005.68c3.885-.035 7.751-.07 11.637-.103.688-.006 1.528-.107 2.063-.598-4.558-.005-9.148.026-13.705.021m0-.8v.65l13.687-.016c-.476-.447-1.212-.51-1.844-.516zm-3.642 3.474c1.241.074 2.54.15 2.912-.408-.373-.8-.516-1.75-.484-2.81.01-.297.1-.365-.172-.505a4 4 0 0 1-.453-.277c-.188-.144-.237.052-.15.25a.5.5 0 0 0 .305.287c-.026.193-.045.387.019.592.019.07.003.12-.107.112-.49-.06-.73.062-.808.31-.021.067-.013.17-.043.22-.024.039-.07.046-.17-.021l-.153-.01-.388-.027q-.22-.033-.077.157c.227.405.486.79 1.321.834l-.019.073c-.26.03-.545.028-.805-.018-.248.404-.48.836-.728 1.24m.154-3.25.438.016c.177.005.275.136.343.29.096.17.203.094.348.062.135-.03.277-.038.417-.04.196-.02.167-.49-.012-.57-.119-.053-.143-.148-.195-.226a.25.25 0 0 0-.148-.11c-.373-.106-.999.207-1.191.579m3.317-2.231.511.49c-.316.153-.528.375-.51.75l.019 2.907c.02.31.124.588.53.75l-.51.519c-1.126-.552-1.273-4.746-.04-5.416m.391 5.364.299.616c-.339.324-.775.534-1.384.537a2.9 2.9 0 0 1-.458-.82c.248-.098.494-.203.728-.351.116.122.248.236.415.333.148-.09.278-.199.4-.315m.579.625c.072.184.131.37.14.565l-1.534 1.13a7 7 0 0 0-.371-.982c.632.005 1.223-.211 1.765-.713m-1.326 1.843c.275.173.54.36.79.57A2.54 2.54 0 0 1 227 63.481a1.9 1.9 0 0 0-.501-.254q-.763.573-1.524 1.148m3.57 1.513c.086.113.182.237.308.324a10 10 0 0 0-.771 1.652c-.187-.299-.268-.631-.333-.969.226-.383.503-.728.797-1.007m1.068-2.136c.008.05.063.085.06.125q-.005.033-.057.063-.108.052-.08.103c.047.092.255.103.343.103.075 0 .33-.007.27-.13a.32.32 0 0 1-.102-.218c-.012-.091-.033-.143-.215-.164-.117-.014-.236.01-.219.118m.338-.215c.208.004.165.05.187.216.012.094.048.188.114.241.064.051.148.053.233.03a.66.66 0 0 0 .304-.2c.051-.066.06-.13-.023-.16-.085-.03-.146-.027-.177.029-.01.018-.023.132-.076.12-.064-.013-.016-.096-.01-.127.058-.236.04-.455-.297-.5-.15-.02-.346.003-.492.04a.27.27 0 0 0-.163.11c-.133.223.293.2.399.201m-.045-1.257a2.3 2.3 0 0 1-.297.585c-.055.072-.097.161-.029.225.057.039.094.05.173.033.03-.007.07-.023.11-.03.082-.017.143.047.227.004.061-.032.09-.108-.016-.22-.043-.036-.016-.09.07-.053.063.055.114.117.072.23.319.021.426.215.438.488.119-.02.22.034.313.123.245-.164.719-.723.605-1.05-.081-.237-.398-.234-.608-.26l-.034.058c.04.012.138.03.144.07.005.039-.083.058-.188.067-.134.01-.297.004-.328-.001-.13-.023-.213-.09-.092-.263-.173-.003-.387-.003-.56-.006m.769-1.426c-.339.447-.753.889-1.138 1.292 1.261-.018 2.288.17 3.04.575-.022.211.07.365.202.436.17.09.414.048.55-.196.146-.266.05-.499-.133-.587-.126-.061-.294-.054-.454.056-.805-.316-1.471-.883-2.067-1.576m.434.15c.38.524.852.995 1.65 1.275.24-.124.445-.097.582.012.258.204.222.559.045.802-.155.215-.42.344-.688.206-.146-.075-.25-.233-.252-.47a.36.36 0 0 0-.225-.108c-.674 1.174-.45 2.58 1.034 2.367.229-.032.598-.067.572-.332-.165.007-.339.009-.476-.032-.45-.135-.193-.621-.016-.865.152-.209.347-.4.506-.6.227-.288.378-.597.212-1.013-.308-.757-.836-1.232-1.355-1.717a4.7 4.7 0 0 0-1.59.475m3.745 7.288-.217-.93a.86.86 0 0 1 .03-.431c-.41.083-.874.174-1.285.258.114.108.195.234.247.363l.203.948c-.44.09-.88.183-1.322.267a.7.7 0 0 1-.369-.056c.09.37.178.8.267 1.17.072-.099.2-.19.331-.223.428-.108.862-.186 1.293-.279l.324 1.416c-.417.083-.833.171-1.251.248a.9.9 0 0 1-.45-.044c.091.374.166.799.257 1.173a.8.8 0 0 1 .401-.22c.416-.082.834-.152 1.252-.228.076.338.161.674.229 1.013a.7.7 0 0 1-.076.498c.441-.1.905-.194 1.346-.294a.83.83 0 0 1-.274-.452c-.079-.324-.144-.65-.217-.976l1.098-.22a1.1 1.1 0 0 1 .456.023c-.09-.392-.166-.79-.255-1.182-.105.098-.278.169-.447.216l-1.063.212-.302-1.355 1.191-.237a.8.8 0 0 1 .374.05c-.103-.392-.18-.81-.283-1.203a.83.83 0 0 1-.483.28zm-1.68-1.152 1.698-.354a.68.68 0 0 0-.097.548l.179.804c.298-.052.614-.115.91-.176a.77.77 0 0 0 .546-.415c.128.572.263 1.16.39 1.732-.178-.118-.386-.203-.592-.171l-.993.19.25 1.127c.308-.059.65-.108.955-.184.23-.057.388-.213.51-.361.116.548.248 1.104.365 1.652a1.03 1.03 0 0 0-.7-.107l-.876.167.198.878c.038.207.166.39.432.535l-1.854.399c.148-.205.208-.417.156-.666l-.19-.903-1.061.217c-.243.047-.417.235-.563.39-.113-.517-.258-1.143-.372-1.659.17.082.428.172.723.111l1.017-.206-.267-1.14c-.346.063-.719.157-1.067.205-.256.035-.424.217-.528.435-.12-.556-.274-1.166-.395-1.722.18.107.42.19.679.132l1.057-.202c-.039-.258-.091-.518-.14-.774-.038-.2-.196-.35-.37-.482m-2.305-.351c1.797-.34 3.949-.753 5.745-1.093 1.963 2.752 1.637 6.872-.836 9.31-3.773-1.456-5.313-5.044-4.909-8.217m-.037-.06c1.847-.356 3.957-.755 5.804-1.111 1.65 2.242 2.12 6.523-.826 9.477-4.662-1.737-5.38-6.366-4.978-8.365m-.165-.158 6.048-1.128c1.624 2.078 2.478 6.33-.844 9.848-4.272-1.536-5.685-5.53-5.204-8.72m1.091-4.017c.108.027.215.059.322.12-.63 1.546-.332 2.324.598 2.574-.332.233-.592.502-.696.852-2.267.549-2.927.202-3.282-.303-.212-.303-.094-.474.094-.662.226-.224.297-.085.553.026.422.183.949.077 1.458.018q.129-.05-.007-.076c-.566.077-1.142.132-1.584-.164-.3-.231-.287-.494-.046-.726 1.455.238 2.233-.422 2.59-1.66m.406 3.531 2.896-.562c-.54-.766-2.701-.318-2.896.562m-1.752.455a9.26 9.26 0 0 0 .328 3.93c-.317-.006-.597-.14-.91-.005a.56.56 0 0 0-.29.3c-.06.231-.448.231-.624.258-.118-.863-.41-1.633-.623-2.419-.226-.73.365-1.695.718-2.31.412.167.883.244 1.4.246m-.785 4.389c.123-.26.346-.379.638-.314l.564.07c.211.523.453 1.053.788 1.558-.314.128-.471.59-.91.375a7 7 0 0 0-.641-.348c-.237-.11-.574-.15-.726-.367-.04-.07-.056-.13.099-.11.162.031.38-.032.531-.147.435-.332.037-.695-.343-.717m1.03 1.854q-1.308.887-1.276 2.152c1.132-.395 2.409-.449 3.715-.236l-.033-.833a8.6 8.6 0 0 1-1.309-1.43c-.336.073-.64.647-1.096.347m.995 20.998q-.29.32-.537.682c-.448 0-.923-.01-1.372-.01.26-.452.575-.863.992-1.203.343.073.676.236.917.53m.423-.15c-.414.347-.708.782-.949 1.213l2.706.031c.139-.81-1.139-1.165-1.757-1.244m2.39-6.05c.629.376 1.198.81 1.22 1.44.008.266-.087.51-.192.75-.283.645-.68 1.258-1.06 1.865-.2.256-.348.392-.634.566-.712.435-1.508.778-2.059 1.399-.234-.179-.482-.368-.806-.519.46-.444 1.064-.837 1.766-1.194q.528-.289.786-.795l.901-1.532c.136-.231.254-.43.304-.696.083-.435-.029-.826-.226-1.284m.672-10.45c.311.935.405 1.86.379 2.795.09.091.167.243.2.335 1.077.512 1.942 1.115 2.818 1.767l.011-1.424c.278.234.39.369.555.686 1.231 2.162 3.677 2.792 4.874 1.642-.583.082-1.227.201-1.693-.303 1.473.002 2.212-1.018 2.298-2.95.01-.232-.017-.495.133-.694-.616-.05-.093 1.452-1.305 1.676 1.172-.593.832-1.896.325-2.794a8 8 0 0 0-.744-1.09c-.281-.35-.547-.621-.719-1.041-.418.535.555 1.44.894 1.819l.036.114c-.592-.6-1.168-1.249-1.64-1.941-.805-1.177-.954-2.291-.589-3.356-1.19.378-1.495 1.793-1.4 3.678-.49-.46-.66-1.147-.608-1.99-.51.921-.643 1.799-.219 2.563.537.968 1.837 1.954 2.538 2.806.322.344.183.592-.21.74-.708.266-1.386.093-2.05-.292-1.166-.684-2.137-1.573-3.104-2.302-.24-.182-.517-.31-.78-.443m-.286 2.668c.177-.046.393-.04.529.035.08-.936-.088-1.89-.44-2.772-.146-.085-.324-.153-.471-.21.333.968.46 1.983.382 2.947m.657 1.076c1.01.57 2.053 1.098 2.936 2.033.072-.22.11-.446.071-.68-.858-.713-1.803-1.212-2.789-1.756.002.181-.093.283-.218.403m-3.434-2.89c.07.27.118.534.108.804a.8.8 0 0 1 .514.061c.057-.39 0-.77-.15-1.146-.14.097-.318.199-.472.282m-1.044.502c.32-.118.584-.28.882-.414.101.245.117.472.109.744-.339-.126-.653-.204-.991-.33m1.057 1.46c-.148 1.162.11 2.06.707 2.74.167.014.311.03.478.044l.024-.363c-.53-.465-.701-1.202-.675-2.391-.179.044-.387.05-.534-.03m2.716 1.003c-.06 1.201.029 2.308.916 2.8l.288-.097c0-.123.02-.212.022-.334-.724-.448-.738-1.335-.738-2.33a1 1 0 0 1-.488-.04m-2.056-1.055c-.048 1.042.074 1.939.732 2.38l-.06.604c-.229.006-.467-.013-.695-.007-.815-.853-.911-1.909-.765-3.024a.8.8 0 0 1-.214-.305c-.7-.242-1.388-.426-2.088-.626l-.317.222.006.575-.512.627v3.235c.52.061 1.163.02 1.825-.035.048-.395-.13-.683-.325-.923-.061-.052-.022-.151.111-.044.473.417.593 1.508.742 2.129a3.4 3.4 0 0 0 .177.581c.132.295.355.51.636.675.27.16.572.285.852.431q.615.321 1.225.675c.299.175.58.36.853.568.172.132.354.291.571.547.181.215.325.406.385.682.05.23.028.457-.099.68-.298.68-.705 1.335-1.11 1.99-.188.306-.305.494-.61.705-.623.431-1.36.682-1.888 1.221.675.1 1.283.376 1.717.847.386-.625.926-.764 1.488-.137.497-.518.312-1.07.325-1.538.006-.21.056-.3.176-.467.075-.087.127-.068.061.018a.7.7 0 0 0-.087.512c.037.2.07.186.162.029l.408-.7c.74-1.152 1.47-2.307 2.248-3.436.102-.148.205-.339.138-.515l-.093-.238c-.108-.279-.086-.312-.4-.432-.657-.25-1.07-.411-1.397-.93-.276-.441-.225-.775.04-1.203.445-.715.997-1.472 1.414-2.205-.397-.451-1.296-1.202-2.932-2.046-.067.942.061 1.888.698 2.16.002.2.013.38.015.581-.153.066-.279.099-.431.165-.809-.456-1.217-1.34-1.038-3.029a1 1 0 0 1-.241-.323c-.572-.261-1.131-.464-1.703-.676m2.335.011c.279 0 .506.217.506.485a.496.496 0 0 1-.506.484.495.495 0 0 1-.506-.484c0-.268.227-.485.506-.485m-2.047-.592a.62.62 0 0 1-.138.464c.529.19 1.035.387 1.55.607-.016-.186.07-.305.19-.434-.518-.203-1.083-.434-1.602-.637m-.361-1.706c.143.428.192.855.127 1.326.052.053.14.12.162.188.604.219 1.156.42 1.742.69.062-.796.063-1.557-.2-2.353-.122-.372-.227-.734-.664-.864a7 7 0 0 1-1.167 1.013m-3.379 6.231c.068.063.11.16.147.253.057.145.103.278.215.25a7.5 7.5 0 0 1 1.024-.185c.11-.005.144-.047.142-.107l-.028-.199c-.009-.098-.072-.105-.138-.11zm3.093-4.908c.266 0 .482.207.482.463a.473.473 0 0 1-.482.462.473.473 0 0 1-.483-.462c0-.256.216-.463.483-.463m-2.385-.096c.263-.06.519-.136.76-.238.365.12.797.236 1.161.355a.72.72 0 0 0-.187.43c-.569-.188-1.165-.359-1.734-.547m-.692-1.951.009 1.888c1.035-.135 2.398-.68 3.452-1.471.492-.37 1.361-1.052 1.313-1.732-.025-.345-.333-.46-.775-.556a3.3 3.3 0 0 0-.625-.08c-.502.717-1.253.941-2.106.963zm-.04-1.68.025 1.44c.44-.29.854-.597 1.21-.937.634-.01 1.216-.134 1.69-.502.081-.062.282-.208.248-.321-.065-.216-1.31-.135-1.486-.12a5.1 5.1 0 0 0-1.688.44m.424-2.863a.9.9 0 0 1 .378.15c-.786.485-1.245 1.365-1.433 2.606l-.353-.004c.092-1.108.46-2.055 1.408-2.752m.47.193q-.94.658-1.262 1.884c-.16.612-.128 1.208-.128 1.835V80.1c.132-.122.308-.324.395-.488l-.024-3.438c-.003-.436-.021-.873.036-1.307.112-.857.468-1.555 1.29-2.178a.7.7 0 0 0-.307-.155m-3.142 4.78h1.585c.016 3.178.06 6.384.078 9.565.003.391.016.784-.022 1.175a4.6 4.6 0 0 1-.637 1.964c-.537-.495-.774-1.327-.844-2.238-.03-.388-.026-.78-.031-1.169zm1.572-1.436v.693c-.516-.015-.503-.666 0-.693m-1.56.067v.68c.568.022.63-.668 0-.68m-.004-.648 1.575-.023v.445c-.667.083-.762.92 0 1.043v.39l-1.588.012v-.36c.743-.06.876-.987.013-1.05zm-6.06 8.275a1 1 0 0 1-.234.196l.385.165.119-.201zm-2.604 1.272.011.2 2.141.194.081-.233c-.327-.35-.412-.745-.291-1.184-.149-.04-.288-.093-.375-.207-.402.53-.934.921-1.567 1.23m1.456-1.546c-.27.545-.753 1.01-1.55 1.357-.561.016-.92.303-1.25.628a.6.6 0 0 1-.296-.134c-.136-.108-.104-.148-.004-.272.775-.958 1.738-1.601 3.1-1.579m.608-.564c.268 0 .486.208.486.466a.476.476 0 0 1-.486.466.476.476 0 0 1-.487-.466c0-.258.218-.466.487-.466m.047 1.138c-.044.153-.052.29-.04.45l3.431 1.166-1.209.717 1.562-.161 1.047 1.483-.312-1.778 1.296-.694-1.51.072-.793-1.194.099 1.122zm3.085-5.315-1.938 2.5-.434-.028 2.996-4.864c.144.331.345.662.613.933q-.664.214-1.18.709a1.9 1.9 0 0 0-.057.75m-3.074 3.497.306.11.75-.965-.442-.037zm-11.61-4.152c.482.036.959.141 1.383.374.135-.154.262-.31.394-.464.035-.042.095-.1.133-.161.074-.12-.016-.187-.033-.304-.015-.105.023-.196.124-.271.131-.098.3-.123.44-.215q.184-.121.364-.33c.26-.304.54-.644.8-.949.257-.3.548-.373.952-.418a8 8 0 0 1 1.104-.04c.37.013.614.1.896.324l.617-.907c-.267-.325-.619-.62-1.344-.779-.468-.102-.925-.04-.855.548.018.057.012.099-.005.122-.07.102-.134-.124-.145-.16-.027-.09-.045-.179-.062-.268-1.256.686-2.521 1.337-3.734 2.169-.32.218-.77.68-.23.979.086.03.076.083-.028.065a.76.76 0 0 1-.367-.195q-.253.412-.405.88m-.07.221c-.29.469-.467.954-.606 1.446.861-.237 1.478-.343 1.947-1.073-.341-.327-.834-.362-1.34-.373m.186 4.19c.476-.248.96-.473 1.459-.658.174.096.362.193.504.348-.58.615-1.189 1.253-1.77 1.869a8.5 8.5 0 0 1-.193-1.558m8.466-4.792c.079-.397.218-.728.435-1.06 1.904-.424 3.939-.605 6.142-.347l-3.682 5.902c-.456-.142-.935-.298-1.39-.44.144-.297.342-.495.692-.575.448-.103.379-.238-.078-.143-.26.054-.582.24-.984.86-.094.146-.107.237-.306.266h-.563c-.227 0-.344-.02-.485-.198l-1.98-2.469c-.103-.564-.303-1.207-.71-1.555-.52-.447-1.081-.285-1.513.127-.547.521-1.008 1.136-1.442 1.78-.08-.115-.062-.228-.017-.347.016-.042.027-.083.008-.092-.046-.024-.125.12-.144.161-.137.302.103.6.136.947.03.32-.102.499-.29.627-.468-.768-1.09-.067-.965.556-.456.168-.913.359-1.37.592-.056-.314-.097-.63-.038-.944a.75.75 0 0 0 .335.175c.075.014.132.026.172.025.091-.003.099-.045.053-.08-.034-.025-.106-.035-.18-.065-.182-.071-.25-.242-.276-.414-.083-.54.416-1.14.798-1.645a51 51 0 0 1 2.606-3.175.62.62 0 0 0 .267.361c.204.134.21.036.084-.09-.096-.096-.176-.21-.175-.35a.6.6 0 0 1 .113-.307c.177-.228.576-.275.848-.281.499-.011 1.05-.061 1.47.11.237.098.476.315.717.562.493.506.97 1.19 1.288 1.6.793.319 1.37.983 1.234 1.938-.06.42.007.464.114.008.177-.751-.115-1.47-.924-2.02m-.75-.706c.172.224.27.487.562.593a4.2 4.2 0 0 1 .429-.883 8 8 0 0 0-.991.29m-.406-.476.243.322c2.356-.717 4.894-.944 7.59-.744l-.104-.454c-1.909-.248-6.055.118-7.729.876m-.479-1.074c-.061.106-.133.23-.215.336.206.233.371.386.566.593 2.444-.765 5.064-1.043 7.853-.908-.012-.325.01-.654.097-.98-2.838-.115-5.611.08-8.301.96m7.785 3.484c.03.145.076.28.127.406l-2.762 3.686a.8.8 0 0 0-.314-.243c.985-1.288 1.964-2.561 2.949-3.85m-2.23 5.239.504.176c.458-.764 1.5-1.207 2.309-1.948.667-.645 1.238-1.338 1.35-2.27-.121-.307-.318-.457-.567-.498-.398 1.383-1.474 2.334-2.555 3.242-.468.394-.898.8-1.04 1.298m2.388-6.01c-.037.333-.091.656.158 1.142.617-.092 1.253.048 1.937.904a.9.9 0 0 0 .1-.704 5.4 5.4 0 0 0-2.195-1.342m3.1 2.897.027 2.738c-1.286-.069-2.497-.233-3.553-.506.6-.463 1.211-.93 1.705-1.48.445.032.9.033 1.363.014.021-.436.19-.67.458-.766m-.026-1.85.02 1.588q-.462.16-.632.779a3.4 3.4 0 0 1-1.017.038c.194-.407.4-.813.485-1.238l.233.058c.153-.276.263-.556.22-.849.249-.09.477-.219.69-.376m-2.977-1.206c.242-.246.557-.47 1.137-.613.419.721.868 1.408 1.84 1.512-.152.292-.413.405-.69.492-.748-.593-1.504-1.105-2.287-1.391m2.04.3c.27.314.614.408.938.414-.007-.517-.007-1.059-.013-1.576-.358.298-.656.744-.924 1.162m-.729-1.01c.137.392.346.667.59.888.338-.467.676-.935 1.05-1.281l-.017-1.614 1.288-.01c.065-.602.267-1.185.51-1.718-1.493.716-2.749 2.33-3.421 3.736m2.374-3.268c-1.003.826-1.86 1.898-2.571 3.184-.385-.348-.646-.882-.727-1.483-.173-1.28.692-3.3 2.364-3 .559.101.983.538.934 1.299m.102-.631c.042.155.07.343.072.503.218-.147.48-.316.772-.438-.239-.184-.541-.153-.844-.065m1.279-1.251.212-.02c.097.133.245.24.407.338-.338.292-.612.61-.858.937-.276-.278-.64-.238-1.01-.187.51-.299.969-.629 1.249-1.068m-2.188.187 2.033-.222c-.281.385-.732.705-1.23 1.006-.241-.307-.518-.484-.846-.541.015-.072.029-.172.043-.243m-1.095.092c.3-.032.593-.056.9-.086-.009.081-.023.134-.032.215a2.6 2.6 0 0 0-.855.122zm-6.048-8.85c-.166.5.32.544.678.602 3.141.512 5.307 2.467 5.433 7.385.277-.021.585-.04.862-.06-.021-.787.01-1.53-.688-1.853.231-.07.547.202.635-.092-.25-.12-.306-.434-.361-.715-.099-.501-.54-.512-.561-.717a.41.41 0 0 0 .505-.003c-.367-.13-.424-.63-.566-.92-.084-.17-.227-.32-.576-.444.085-.029.162-.03.303-.017a6.8 6.8 0 0 0-1.993-1.933c-.203-.129-.424-.292-.663-.363-.227-.068-.423.015-.644-.02.144-.051.301-.084.356-.253-.421-.187-.816-.178-1.215-.203a.5.5 0 0 0 .066-.24 3.5 3.5 0 0 0-1.571-.153m-.89 8.543c-.148.39-.494.66-.594 1.048.411.034.993-.392 1.356-.135-.574.036-1.174.257-1.72.582.003-.35.328-.582.337-.854-.92.174-1.396 1.698-2.108 2.46 2.465-.808 5.27-1.033 8.196-.92.28-.704.686-1.297 1.35-1.582-.01-.093-.012-.176-.022-.269-2.476.118-4.704-.043-6.796-.33m-1.27-1.541c-.16.277-.332.587-.492.864 2.941 1.012 6.96 1.17 12.248.434.216-.033.597-.053.724-.224.074-.1.069-.18-.012-.267-.175-.186-.517-.094-.743-.062-3.65.635-8.373.678-11.724-.745m-.607 1.064c.27 0 .488.21.488.468a.48.48 0 0 1-.488.467.48.48 0 0 1-.488-.467c0-.258.219-.468.488-.468m.78-2.275c.34.316.421.786.426 1.254.3.122.658.22.971.317.392-.634.694-1.363.446-2.117-.483.207-.962.23-1.405.184-.128.109-.31.253-.439.362m-.817-.025a.9.9 0 0 0 .143-.257c.728.255 1.007.827.956 1.482-.122-.028-.273-.098-.376-.138-.047-.525-.333-.865-.723-1.087m-.454.195a1 1 0 0 0 .373-.129.9.9 0 0 1 .327.249c-.12.641-.437.957-.827 1.08-.171.053-.352.089-.526.135-.074.019-.138.036-.214.008-.096-.035-.145-.124-.122-.198.023-.077.112-.097.178-.13.414-.205.657-.574.811-1.015m3.703-10.444v.659h2.695c.016-.237-.084-.462-.237-.659zm-.134-.492v1.643a.814.814 0 0 1-.854-.9c.041-.446.361-.765.854-.743m-3.724 10.921c-.067.353-.325.606-.603.818-.103-.037-.168-.1-.186-.193.24-.187.489-.413.68-.67.03.02.074.032.11.045m-2.19-.872c-.075.065-.003.152.08.096.108-.102.22-.157.344-.063a.25.25 0 0 1 .107.219c-.007.087-.037.145-.12.18a.6.6 0 0 1-.231.042c-.075.005-.071.077.009.084a.6.6 0 0 0 .237-.035.33.33 0 0 0 .19-.193c.044-.117-.004-.239-.078-.333-.14-.177-.328-.125-.537.003m3.095-4.183c-.208.01-.342-.086-.48-.217-.05-.048-.059-.09-.01-.118a3.8 3.8 0 0 1 1.624-.494c.106-.005.196.028.246.09.091.114.077.222.009.293a.28.28 0 0 1-.197.08c-.246.01-.46.093-.674.182-.168.07-.335.142-.517.184m1.133-.959c-.262-.206-.876-.274-1.22-.495-.182-.06-.203.064-.113.174.125.154.38.3.638.446zm-1.812 2.576c.156-.057.304-.15.378-.31a.4.4 0 0 0 .343.25c-.331.37-.549.277-.72.06m5.455-7.192h-1.794v-.563c-.625-.013-.986.2-1.151.621a1.26 1.26 0 0 0 .027 1c.154.334.476.559 1.124.574v-.537h1.675c.147.268.305.532.585.75q.044.03.032.12c-.251.5-.51.997-.854 1.446q-.09.075.04.091c.735.051 1.49.078 2.291.053q.1-.015.158.083c.107.251.279.525.438.75-.04.042-.116.089-.145.109.218.366.362.852.434 1.269.366.168.702.402 1.028.658l.121-.063c.464.566.917 1.124 1.578 1.686.095.08.128.178.154.294q.071.322.165.64c.248.849.934 2.59.943 3.364-.65.096-1.283.197-1.92.239-.032-.564-.093-1.176-.362-1.587a1.5 1.5 0 0 0 .302-.345c-.492-.38-.227-.805-.602-1.177.073-.086.127-.18.174-.28-.531-.26-.39-1.024-.838-1.294-.545-1.165-1.828-2.007-2.947-2.597a.3.3 0 0 0 .015-.144c-.366-.15-.76-.205-1.153-.265.008-.07-.022-.146-.044-.217-.65-.216-1.187-.222-1.8-.19a1.7 1.7 0 0 0-.645-.508c-.484-.209-1.1-.134-1.454-.577-.158.077-.27.153-.326.223-.117.148.163.401.247.525a3 3 0 0 1-.615-.247c-.123.185-.113.325-.037.444.091.145.312.257.472.391-.335.16-.703.355-1.037.514.154.197.342.362.596.49-.753.833-1.518 1.65-2.272 2.483-.231.11-.401.369-.464.604-.303.254-.485.508-.681.82-.084.17-.085.363.051.589.102.169.098.2.064.4q-.073.418.19.816c.173.263.375.299.668.218.164-.045.286-.138.324-.333.053-.268.209-.517.625-.722.036.042.237.258.237.31 0 .073-.275.255-.334.304l.139.225c.035.057.048.09-.01.139-.169.145-.212.19-.122.365.097.185.242.264.478.188.282-.09.577-.09.86-.243.408-.222.542-.538.654-.968.233.249.24.497-.085.994-.119.21-.247.421-.358.632-.444.11-.694.564-.487.965a.63.63 0 0 0 .603.33.69.69 0 0 0 .497-.224c.145-.163.197-.397.145-.647l.91.227q-.105.194-.206.386c-.526.084-.963.471-1.214.904a9 9 0 0 1-.762 1.102c-.47-.498-.942-.622-1.413-.76-.31-.09-.503-.12-.804.024-1.484.712-2.968 1.593-4.452 2.606a1.6 1.6 0 0 0-.345.439c-.12.215-.217.451-.322.674-.347.735-.644 1.621-1.008 2.407.09.245.179.452.269.697l.797-.257c-.07.242-.193.51-.22.756-.072.636.157 1.997.283 3.31.165.152.317.317.483.468l2.212-2.37a5 5 0 0 0-.679-.596c-.137-.103-.27-.11-.397-.196-.128-.085-.094-.275-.057-.399.119-.391.568-.36.714.178.304-.216.52-.555.516-.958 0-.128-.047-.256-.036-.381a.28.28 0 0 1 .105-.199c.287-.461.82-1.339 1.383-1.774.196-.15.395-.249.589-.257.431-.022.736.275.937.615.18.305.274.672.331 1.068.636.86 1.265 1.722 2.036 2.539.205.217.29.31.623.304l.676-.011a.4.4 0 0 0 .118-.042c.12-.069.225-.23.316-.33.037-.053.107-.063.182-.067.627.23 1.132.349 1.346.46.171.087.094.184.003.307-.322.025-.504.19-.583.458-1.37.063-2.436.753-3.302 1.813-.126.149-.22.237-.042.373.194.148.392.27.634.32.212-.27.687-.756 1.112-.629.008.086.01.218.018.304l2.497.235.072-.31.774.221c.058-.11.133-.277.191-.388l1.654.542-1.204.844 1.903-.069 1.344 1.711-.248-2.151 1.52-.923-1.845-.012-1.063-1.365.016 1.238-1.717-.576c.179-.38.63-.689 1.069-.935 1.147.27 2.401.47 3.705.554.039 1.107.04 2.236.079 3.344.04 1.172.151 2.278 1.044 3.18.736-.792.861-2.142.861-3.154v-3.348c.25-.02.354.126.476.396.097.21.099.405.403.283.303-.121.627-.193.979-.196.176-.002.205.058.236.233.067.368.148.697.329.998.095.16.197.274.348.384.42.307.975.514 1.51.822.66.381 1.364.986 1.364 1.79a1.45 1.45 0 0 1-.162.664c-.175.375-.47.792-.663 1.107l-.223.32c-.12.173-.205.348-.311.526-.083.14-.18.246-.36.371-.431.303-.958.6-1.448.904-.51.33-.922.733-1.318 1.183a8 8 0 0 0-.63.859q.008.306.015.613h1.375l.01.424h3.27a4 4 0 0 1 .012-.683c.039-.35.15-.9.65-.835.261.035.513.265.626.534.294-.348.518-.74.602-1.16.067-.328.133-.522.345-.822.71-1.002 1.345-2.054 2.064-3.075.205-.276.397-.552.597-.828.079-.108.154-.188.17-.323.036-.284-.203-.738-.35-.975-.117-.183-.318-.162-.51-.208a2.1 2.1 0 0 1-.535-.203c-.386-.211-.82-.598-.782-1.06.016-.206.093-.378.19-.56.357-.678.916-1.28 1.323-1.952.247-.407.235-.673.255-1.122.016-.363.03-.725.005-1.09.001-.058.029-.082.09-.036.044.035.068.1.089.172.11.38.389.71.653 1.006.356.398.783.699 1.268.944 1.271.645 2.798.75 3.59-.685a3.55 3.55 0 0 1-1.562.21 2.36 2.36 0 0 0 1.557-1.23c.22-.431.27-.927.306-1.401.032-.429.041-.864.276-1.243a.62.62 0 0 0-.632-.083c-.339-1.504-1.77-2.363-2.007-3.46-.17.089-.3.236-.403.424-1.167-1.131-1.173-2.894-.537-3.83-1.518.446-2.016 1.453-2.058 3.536-.2-.363-.21-1.068-.183-1.915-.639.45-.856 1.392-.857 2.083 0 .502.15.916.386 1.289.363.572.855 1.04 1.338 1.516.13.129 1.105 1.026 1.105 1.261 0 .187-.162.244-.311.289-.6.178-1.178.023-1.74-.32-.32-.196-.626-.435-.934-.653-.452-.32-.88-.662-1.312-1.001-.307-.24-.582-.529-.902-.75-.523-.363-1.331-.633-1.983-.863.325-.57.384-.921.268-1.159-.132-.27-.487-.393-.933-.528-.01-.21-.031-.479-.042-.688.75.584 1.698 1.107 2.69 1.536 1.702-1.915 2.53-3.918 2.45-5.992q-.078-2.166-1.487-4.425a33 33 0 0 0-1.64.254c-.307-.38-.799-.432-1.265-.45a1 1 0 0 0-.023-.411c-.164.036-.582.079-.684-.109-.126-.23.41-.761.543-.934.169-.217.34-.398.403-.669a1.3 1.3 0 0 0-.038-.694c-.113-.355-.33-.637-.564-.926a12 12 0 0 0-.872-.959c-.608.123-1.171.335-1.74.578a1.8 1.8 0 0 1-.347-.313 24 24 0 0 1-1.532 1.787c.134.045.354.025.527.034-.042.184-.155.37-.274.533-.068.076-.075.172-.016.22.054.037.062.086.04.144-.022.04-.033.045-.054.085-.027.07-.016.146.06.195.047.077-.015.135-.026.228-.01.084.019.07-.038.134a.14.14 0 0 0-.04.101c0 .08-.037.077-.116.082a.45.45 0 0 0-.203.05c-.21.116-.177.503-.145.692-.623-.417-1.345-.749-1.825-1.166l.244-.174a3 3 0 0 0-.655-.401 4 4 0 0 0-.269-.818c-.079.043-.168.105-.247.148-.097-.202-.185-.423-.282-.625q.2-.217.403-.454c-.651-.068-.825-.466-.672-1.09 3.75 0 7.477-.114 11.228-.114a7 7 0 0 0 1.35-.125 3.84 3.84 0 0 0 1.622-.745 4.8 4.8 0 0 0-.867-.508 3.4 3.4 0 0 0-.753-.234c-.92-.134-1.881-.105-2.813-.115q-3.404-.038-6.812-.075c-.982-.015-1.98-.025-2.962-.04l.004-.435c.003-.256-.041-.378.192-.54.123-.085.276-.146.451-.18l-.822-.894c-.408.289-.932.833-1.047 1.886-.318-.029-.442-.226-.57-.353-.12-.118-.28-.193-.412-.037-.057.069-.101.161-.14.225-.58.11-1.207.28-1.347.75m1.986 20.603c.339-.082.663-.087.96.076-.12.7-.54 1.254-1.024 1.778-.39.422-.796.78-1.235 1.154-.472.404-.915.82-1.225 1.294-.093-.071-.177-.143-.27-.215a.85.85 0 0 0 .007-.39zm11.897 6.554c.251.508.392 1.003 1.189 1.568l-.122.242c1.056-.288 1.246.543.692 1.146.825-.471.493-1.391-.397-1.457-.683-.431-.998-.972-1.362-1.499m-16.523-20.393c.258 0 .467.2.467.447a.457.457 0 0 1-.467.447.457.457 0 0 1-.466-.447c0-.115.045-.22.12-.3a.6.6 0 0 1 .346-.147m-.577.188a.63.63 0 0 1 .383-.323c-.462-.453-.926-.838-1.452-1.067-.269.046-.452.15-.565.301a4.9 4.9 0 0 1 1.634 1.09m-.055.328a.6.6 0 0 1 .006-.186c-.507-.53-1.17-.936-1.723-1.109l-.444.423c-.143.136-.487.356-.356.58.074.126.28.194.44.034.173-.172.255-.417.419-.493.195-.09.422-.032.736.194.12.086.107.089-.013.128-.193.064-.313.207-.432.35-.478.579-.906.185-1.314-.216-.41.39-.814.801-1.187 1.308.533.255 1.061.566 1.571 1.106.74-.697 1.554-1.421 2.296-2.119m.735.533a.7.7 0 0 1-.246-.008c-.716.69-1.453 1.389-2.17 2.079a.28.28 0 0 1 .031.163c.173.092.364.191.537.306l.388-.335a.27.27 0 0 1-.14-.164c.903.15 1.657.06 2.14-.46.032-.644-.19-1.148-.54-1.581m.484-.363a.63.63 0 0 1-.335.321c.345.433.49.98.543 1.573q.207-.052.425-.099c.03-.614-.11-1.236-.633-1.795m.043-.336a.585.585 0 0 1-.003.21c.476.456.751 1.098.734 1.899.12.055.25.11.37.165-.683-.087-1.087.087-1.298.401.227.801-.006 1.579-.427 2.32 2.009.552 4.132.698 6.295.571-.064-3.545-1.321-6.385-4.815-7.09-.069.64-.418 1.108-.856 1.524m-.44-.487q.05.015.095.036a.56.56 0 0 1 .31.31c.443-.412.743-.871.763-1.437a.9.9 0 0 0-.558-.107c-.052.454-.175.792-.61 1.198m-.19-.028h.01c.42-.312.61-.726.673-1.196a.25.25 0 0 0-.127-.075c-.102-.03-.218-.023-.3-.116-.092-.103-.098-.267-.118-.448a.5.5 0 0 0-.105-.274c-.178-.22-.464-.355-.79-.428-.361-.076-.661-.186-.888-.338-.07-.047-.155-.133-.247-.072a.1.1 0 0 0-.045.094c.007.074.084.143.137.191.21.197.527.347.837.5.19.087.383.342.396.557.009.147-.066.277-.284.322-.282-.012-.457.07-.582.193.524.292.989.666 1.416 1.09zm-3.453 3.148a.62.62 0 0 1 .363-.278 4.6 4.6 0 0 0-1.522-1.044c-.178.069-.275.193-.356.328.427.13.957.494 1.515.994m-.072.387a.57.57 0 0 1 .014-.255c-.406-.341-.875-.7-1.303-.917-.108-.055-.202-.08-.291.015-.202.217-.409.405-.506.593-.134.26-.133.5.017.718.124.18.067.12.042.322-.03.26-.046.522.176.784a.33.33 0 0 0 .313.118.375.375 0 0 0 .3-.32c.05-.381.395-.56.727-.755q.256-.15.51-.303m.283.407a.6.6 0 0 1-.241-.27 2 2 0 0 0-.378.286q.138.144.248.304c.15-.077.261-.197.37-.32m.56-1.054c.098.038.185.1.25.178a.5.5 0 0 1 .07.092l2.08-2a.62.62 0 0 1-.308-.32l-.021-.044-2.132 2.064zm.102.217c.092.084.15.203.15.334a.47.47 0 0 1-.52.46h-.003a.467.467 0 0 1-.43-.457c0-.253.215-.458.479-.458.124 0 .237.045.322.12zm3.825 16.053c-.008.135.081.276.197.411l.822.284.127-.29c-.374-.133-.771-.271-1.146-.405m-13.527-29.136H246v25.275h-.003c-.069 4.8-2.262 9.151-5.766 12.318-3.562 3.217-8.476 5.212-13.891 5.212v.001c-5.415 0-10.33-1.996-13.892-5.214-3.504-3.166-5.697-7.517-5.766-12.317h-.003V55.331Z" style="fill:#cab741;fill-opacity:1;stroke-width:.269558" transform="matrix(3.0888 0 0 3.22406 -532.286 -15.845)"/><path fill="#fdb913" d="m208.133 79.773.118.357.828-.267c.18-.18.324-.359.45-.538zM209.156 84.146l.31.289 1.937-2.088-.302-.265s-1.945 2.072-1.945 2.064M231.002 94.614l-.103.297h-1.242v-.307zM231.008 95.026v.317h2.852v-.327z" style="fill:#6e0118;fill-opacity:1;stroke-width:.269558" transform="matrix(3.0888 0 0 3.22406 -532.286 -15.845)"/></svg>