<svg xmlns="http://www.w3.org/2000/svg" width="400" height="567"><path fill="#800020" fill-rule="evenodd" d="M0 567h381.353C391.65 567 400 558.651 400 548.353V18.647C400 8.35 391.651 0 381.353 0H0Z"/><path fill="#ffd283" fill-rule="evenodd" d="M60.154 94.25q-2.106 0-3.416-.836-1.308-.835-2.086-2.41-.779-1.576-.779-4.04 0-2.78.74-4.323.74-1.545 2.08-2.418 1.342-.875 3.18-.875 1.264 0 2.297.402 1.034.403 1.64 1.213.608.81.608 1.601v.102h-1.686v-.102q0-.484-.377-.906a2.56 2.56 0 0 0-.988-.664 3.8 3.8 0 0 0-1.392-.242q-2.055 0-3.133 1.607-1.08 1.608-1.08 4.428 0 2.807 1.111 4.434 1.111 1.626 3.115 1.627 1.188-.001 2.744-.563V88.28h-3.166v-1.404h4.852v6.316q-2.234 1.059-4.264 1.059m82.696 0q-1.507 0-2.758-.459-1.251-.46-1.863-1.436-.614-.975-.614-3.296v-9.29h1.824v9.045q.001 1.966.391 2.643.389.675 1.205 1.033t1.815.358q.969 0 1.722-.358a2.3 2.3 0 0 0 1.117-1.123q.364-.765.364-3.203V79.77h1.685v8.867q0 2.461-.568 3.457a4.1 4.1 0 0 1-1.635 1.576q-1.065.58-2.685.58m12.943 0q-2.68 0-4.385-1.863t-1.705-5.588q0-3.7 1.7-5.574 1.697-1.876 4.404-1.877 1.327 0 2.31.402a3.32 3.32 0 0 1 1.557 1.275q.574.874.574 1.678v.09h-1.685v-.09q0-.51-.325-.988a2 2 0 0 0-.925-.72q-.6-.243-1.444-.243-2.157 0-3.217 1.703-1.058 1.703-1.058 4.344 0 2.667 1.064 4.357 1.066 1.691 3.2 1.692 1.467-.001 2.085-.608.62-.606.62-1.345v-.09h1.685v.09q0 .83-.574 1.69a3.35 3.35 0 0 1-1.557 1.263q-.983.402-2.324.402m86.934 0q-1.507 0-2.758-.459-1.25-.46-1.864-1.436-.612-.975-.613-3.296v-9.29h1.826v9.045q0 1.966.389 2.643.39.675 1.207 1.033a4.5 4.5 0 0 0 1.813.358q.969 0 1.722-.358a2.3 2.3 0 0 0 1.117-1.123q.364-.765.364-3.203V79.77h1.685v8.867q0 2.461-.568 3.457a4.1 4.1 0 0 1-1.633 1.576q-1.066.58-2.687.58m61.273 0q-2.643 0-4.309-1.94-1.664-1.939-1.664-5.511t1.664-5.512q1.666-1.94 4.309-1.94t4.316 1.94q1.672 1.94 1.672 5.512t-1.672 5.512T304 94.25m13.188 0q-1.507 0-2.758-.459-1.25-.46-1.864-1.436-.613-.975-.613-3.296v-9.29h1.826v9.045q0 1.966.389 2.643.39.675 1.207 1.033a4.5 4.5 0 0 0 1.813.358q.969 0 1.722-.358a2.3 2.3 0 0 0 1.117-1.123q.365-.765.366-3.203V79.77h1.683v8.867q0 2.461-.568 3.457a4.1 4.1 0 0 1-1.633 1.576q-1.066.58-2.687.58m24.382 0q-2.106 0-3.416-.836-1.308-.835-2.086-2.41-.779-1.576-.779-4.04 0-2.78.74-4.323.74-1.545 2.08-2.418 1.342-.875 3.18-.875 1.264 0 2.297.402 1.034.403 1.64 1.213.608.81.608 1.601v.102h-1.686v-.102q0-.484-.377-.906a2.56 2.56 0 0 0-.988-.664 3.8 3.8 0 0 0-1.392-.242q-2.055 0-3.133 1.607-1.08 1.608-1.08 4.428 0 2.807 1.111 4.434 1.111 1.626 3.115 1.627 1.188-.001 2.744-.563V88.28h-3.166v-1.404h4.852v6.316q-2.234 1.059-4.264 1.059m-274.69-.42V79.77h4.354q1.609 0 2.412.459.805.458 1.278 1.34.472.88.472 1.9a4 4 0 0 1-.32 1.576q-.32.759-.892 1.371-.575.613-1.776 1.086.448.255.678.484.23.23.555.733.325.504.568.95l2.234 4.161H74.35l-1.942-3.701a8.5 8.5 0 0 0-1.838-2.348H68.72v6.05zm10.2 0 5.772-14.06h1.837l5.323 14.06h-1.979l-1.455-3.867h-6.203l-1.596 3.867zm14.541 0V79.77h1.813l6.433 9.99.588 1.123-.039-1.112V79.77h1.686v14.06h-1.788l-6.447-10.04-.588-1.124.028 1.123V93.83zm13.149 0V79.77h3.892q2.834 0 4.149.771 1.315.772 2.056 2.354.74 1.582.74 3.853 0 2.13-.67 3.693t-2.017 2.477q-1.347.912-4.002.912zm20.04 0V79.77h3.895q2.834 0 4.149.771 1.314.772 2.054 2.354t.74 3.853q0 2.13-.67 3.693t-2.017 2.477q-1.347.912-4.002.912zm37.467 0V79.77h1.838v6.263h6.461V79.77h1.824v14.06h-1.824v-6.392h-6.46v6.392zm12.805 0V79.77h7.953v1.543h-6.115v4.44h5.336v1.403h-5.336v5.13h6.6v1.544zm19.39 0V79.77h3.893q2.835 0 4.15.771 1.316.772 2.055 2.354t.74 3.853q0 2.13-.67 3.693t-2.017 2.477q-1.347.912-4.002.912zm13.008 0V79.77h7.954v1.543h-6.116v4.44h5.336v1.403h-5.336v5.13h6.6v1.544zm19.391 0V79.77h1.838v12.515h7.379v1.545zm22.149 0 4.505-7.133-4.148-6.927h2.004l3.18 5.306 3.382-5.306h1.813l-4.315 6.775 4.34 7.285h-1.967l-3.394-5.666-3.549 5.666zm12.369 0V79.77h7.953v1.543h-6.113v4.44h5.335v1.403h-5.335v5.13h6.6v1.544zm10.685 0V79.77h1.801l4.365 10.04 4.022-10.04h1.773v14.06h-1.62v-8.383l.038-2.5h-.039l-.906 2.512-2.488 6.266h-1.852l-2.707-6.291-.83-2.284h-.05l.05 2.284v8.396zm14.63 0V79.77h3.74q2.552 0 3.427.369.876.37 1.322 1.086.447.714.446 1.582 0 .969-.56 1.925-.563.957-2.044 1.71 1.673.409 2.42 1.372t.746 2.174a3.7 3.7 0 0 1-.517 1.895 3.8 3.8 0 0 1-1.467 1.416q-.951.53-3.287.531zm37.823 0V79.77h4.354q1.608 0 2.412.459.804.458 1.277 1.34.473.88.473 1.9a4 4 0 0 1-.32 1.576q-.319.759-.893 1.371-.575.613-1.775 1.086.447.255.677.484.23.23.555.733.326.504.568.95l2.235 4.161h-2.094l-1.941-3.701a8.5 8.5 0 0 0-1.838-2.348h-1.852v6.05zM304 92.848q1.915-.001 2.994-1.66t1.078-4.39q0-2.73-1.078-4.388-1.078-1.659-2.994-1.658-1.915 0-3 1.658-1.084 1.659-1.084 4.389-.001 2.73 1.084 4.388 1.085 1.66 3 1.66m-15.459-.422h2.58q1.838 0 2.508-.682a2.23 2.23 0 0 0 .67-1.615q0-.753-.434-1.39-.435-.638-1.289-1.04-.855-.402-2.681-.402h-1.354zm-181.934-.14h2.159q1.927 0 2.91-.57.982-.567 1.506-1.778.523-1.213.523-3.036 0-1.837-.478-3.152-.48-1.314-1.45-1.94-.97-.624-3.064-.624h-2.106zm20.041 0h2.159q1.927 0 2.91-.57.982-.567 1.506-1.778.523-1.213.523-3.036 0-1.837-.478-3.152-.478-1.314-1.448-1.94-.97-.624-3.064-.624h-2.108zm69.663 0h2.158q1.928 0 2.91-.57.982-.567 1.506-1.778.523-1.213.523-3.036 0-1.837-.478-3.152-.48-1.314-1.45-1.94-.968-.624-3.062-.624h-2.107zm-79.159-3.446v-1.403h5.63v1.403zm-36.228-.28h5.105l-2.463-6.533zM68.719 86.38h1.787q1.124 0 1.71-.346.588-.344.932-1.013.346-.67.346-1.422a2.5 2.5 0 0 0-.275-1.188 2.37 2.37 0 0 0-.797-.873q-.524-.351-1.787-.351h-1.916zm257.646 0h1.787q1.125 0 1.711-.346.588-.344.932-1.013.345-.67.346-1.422a2.5 2.5 0 0 0-.276-1.188 2.37 2.37 0 0 0-.797-.873q-.523-.351-1.787-.351h-1.916zm-37.824-.498h1.762q1.354 0 2.031-.358.676-.357 1.078-1.033t.402-1.39q0-.791-.632-1.352-.633-.561-2.266-.562h-2.375zM115.039 70.316q-1.507 0-2.758-.459t-1.863-1.435q-.613-.975-.613-3.299v-9.287h1.826v9.045q0 1.965.389 2.64.39.677 1.207 1.034a4.5 4.5 0 0 0 1.812.357q.97 0 1.723-.357t1.117-1.121q.364-.766.365-3.204v-8.394h1.684v8.867q0 2.463-.569 3.457a4.1 4.1 0 0 1-1.632 1.576q-1.066.58-2.688.58m30.47 0q-2.64 0-4.308-1.939-1.666-1.94-1.666-5.512t1.666-5.511q1.665-1.94 4.309-1.94 2.642 0 4.314 1.94t1.674 5.511q0 3.574-1.674 5.512-1.672 1.94-4.314 1.94m45.727 0q-1.506 0-2.757-.459t-1.864-1.435q-.613-.975-.613-3.299v-9.287h1.826v9.045q0 1.965.389 2.64.39.677 1.207 1.034a4.5 4.5 0 0 0 1.812.357q.97 0 1.723-.357t1.117-1.121q.365-.766.365-3.204v-8.394h1.684v8.867q0 2.463-.568 3.457a4.1 4.1 0 0 1-1.633 1.576q-1.066.58-2.688.58m24.077 0q-2.643 0-4.31-1.939-1.665-1.94-1.665-5.512t1.666-5.511q1.666-1.94 4.309-1.94 2.642 0 4.314 1.94t1.672 5.511q0 3.574-1.672 5.512-1.672 1.94-4.315 1.94m-92.934-.421v-14.06h1.812l6.434 9.991.588 1.121-.04-1.11V55.837h1.686v14.059h-1.787l-6.447-10.041-.586-1.122.025 1.122v10.04zm13.148 0v-14.06h1.838v14.06zm18.141 0v-14.06h1.812l6.434 9.991.588 1.121-.04-1.11V55.837h1.686v14.059h-1.787l-6.447-10.041-.588-1.122.028 1.122v10.04zm21.853 0v-14.06h7.954v1.544h-6.116v4.44h5.338v1.404h-5.338v5.129h6.602v1.543zm23.055 0v-14.06h4.354q1.608 0 2.412.46t1.277 1.34.473 1.9a4 4 0 0 1-.32 1.576q-.319.759-.893 1.371-.575.613-1.775 1.084.446.256.677.487.23.229.555.732.326.505.568.951l2.235 4.159h-2.094l-1.941-3.7a8.5 8.5 0 0 0-1.838-2.347h-1.852v6.047zm24.893 0v-14.06h3.92q2.234 0 3.16.46.925.46 1.39 1.34.467.88.467 2.054 0 1.978-1.347 3.317t-4.016 1.34h-1.734v5.549zm10.826 0v-14.06h7.953v1.544h-6.115v4.44h5.336v1.404h-5.336v5.129h6.6v1.543zm10.684 0v-14.06h7.953v1.544h-6.114v4.44h5.336v1.404h-5.336v5.129h6.6v1.543zm10.685 0v-14.06h1.813l6.433 9.991.588 1.121-.039-1.11V55.837h1.686v14.059h-1.788l-6.447-10.041-.586-1.122.026 1.122v10.04zm13.149 0v-14.06h1.812l6.434 9.991.587 1.121-.039-1.11V55.837h1.686v14.059h-1.787l-6.447-10.041-.586-1.122.025 1.122v10.04zm13.148 0v-14.06h7.953v1.544H283.8v4.44h5.336v1.404h-5.336v5.129h6.6v1.543zm-136.451-.983q1.915 0 2.994-1.658 1.078-1.659 1.078-4.389t-1.078-4.388q-1.08-1.659-2.994-1.659t-3 1.659-1.084 4.388q-.001 2.73 1.084 4.389t3 1.658m69.803 0q1.915 0 2.994-1.658 1.078-1.659 1.078-4.389t-1.078-4.388q-1.08-1.659-2.994-1.659t-3 1.659-1.086 4.388q0 2.73 1.085 4.389 1.086 1.659 3 1.658m9.996-5.97h1.224q2.439 0 3.203-.938.767-.937.768-2.238 0-1.135-.62-1.825-.62-.689-2.458-.689h-2.117zm-24.895-.499h1.787q1.125 0 1.711-.343.588-.345.932-1.014.345-.67.345-1.424 0-.663-.275-1.185a2.4 2.4 0 0 0-.797-.875q-.523-.35-1.787-.35h-1.916zM245.732 135.218v-12.644h-4.787v-1.416h11.323v1.416h-4.71v12.644Zm-13.148 0h-1.838v-14.06h4.353q1.608 0 2.412.46.805.459 1.277 1.339t.472 1.901q0 .816-.319 1.576-.319.759-.893 1.371t-1.775 1.085q.447.255.677.484.23.23.555.734t.568.95l2.234 4.16h-2.093l-1.94-3.7a8.5 8.5 0 0 0-1.839-2.348h-1.851Zm0-7.451h1.787q1.125 0 1.71-.345.588-.344.933-1.014.344-.669.344-1.422 0-.664-.274-1.187a2.4 2.4 0 0 0-.798-.874q-.524-.35-1.787-.35h-1.915Zm-9.995 7.872q-2.643 0-4.309-1.94t-1.666-5.511 1.666-5.512 4.309-1.939 4.314 1.94 1.673 5.51-1.673 5.512-4.314 1.94m0-1.404q1.914 0 2.993-1.658 1.08-1.659 1.079-4.39 0-2.73-1.079-4.388-1.079-1.659-2.993-1.659-1.915 0-3 1.659t-1.085 4.389 1.085 4.389 3 1.658m-14.477.983h-1.838v-14.06h3.92q2.233 0 3.159.46.925.459 1.391 1.339t.466 2.054q0 1.977-1.347 3.317t-4.014 1.34h-1.737Zm0-6.954h1.226q2.438 0 3.204-.937.765-.938.766-2.24 0-1.134-.62-1.824-.618-.69-2.456-.689h-2.12Zm-12.522 6.954v-14.06h7.952v1.544h-6.114v4.44h5.336v1.403h-5.336v5.129h6.6v1.544Zm-11.592-3.164h1.839v.089q0 1.174.823 1.633.824.46 2.19.46 1.2 0 2.01-.702.81-.701.81-1.838 0-.93-.702-1.518-.69-.575-2.119-1.16l-.727-.294q-1.494-.613-2.234-1.219-.74-.605-1.105-1.34a3.64 3.64 0 0 1-.363-1.639q0-1.594 1.13-2.692 1.13-1.097 3.53-1.097 2.207 0 3.101.817t.894 1.9v.103h-1.826v-.102q0-.344-.28-.677-.281-.33-.83-.484a4.5 4.5 0 0 0-1.213-.154q-1.353 0-1.998.677-.645.675-.645 1.543 0 .575.307 1.085.306.51.842.848.537.339 1.813.9l.868.37q2.069.893 2.757 1.888.69.983.69 2.13 0 1.06-.562 2.048a3.7 3.7 0 0 1-1.557 1.5q-.997.51-2.656.51-1.57 0-2.63-.377-1.059-.375-1.608-1.23a3.42 3.42 0 0 1-.549-1.889Zm-11.246 0h1.838v.089q0 1.174.824 1.633.823.46 2.189.46 1.2 0 2.01-.702.81-.701.811-1.838 0-.93-.702-1.518-.69-.575-2.12-1.16l-.727-.294q-1.493-.613-2.234-1.219-.74-.605-1.104-1.34a3.64 3.64 0 0 1-.364-1.639q0-1.594 1.13-2.692 1.13-1.097 3.53-1.097 2.208 0 3.102.817t.893 1.9v.103h-1.825v-.102q0-.344-.281-.677-.28-.33-.83-.484a4.5 4.5 0 0 0-1.213-.154q-1.353 0-1.997.677-.645.675-.645 1.543 0 .575.306 1.085.307.51.843.848.536.339 1.813.9l.868.37q2.067.893 2.757 1.888.69.983.69 2.13 0 1.06-.562 2.048a3.7 3.7 0 0 1-1.558 1.5q-.996.51-2.655.51-1.57 0-2.63-.377-1.059-.375-1.608-1.23a3.42 3.42 0 0 1-.549-1.889Zm-12.497 3.164h-1.698l5.77-14.06h1.838l5.323 14.06h-1.978l-1.456-3.866h-6.204Zm2.144-5.27h5.106l-2.463-6.532Zm-11.782 5.27h-1.839v-14.06h3.92q2.233 0 3.159.46.925.459 1.391 1.339t.466 2.054q0 1.977-1.347 3.317t-4.014 1.34h-1.736Zm0-6.954h1.225q2.439 0 3.204-.937t.766-2.24q0-1.134-.619-1.824-.62-.69-2.457-.689h-2.12ZM246.12 411.51c-.393.045-.484.03-.672-.119a1.5 1.5 0 0 1-.342-.41c-.1-.193-.114-.39-.072-1.002.029-.42.1-1.03.158-1.357s.13-.853.16-1.17c.032-.317.033-.7.005-.851-.03-.156-.129-.326-.23-.391-.097-.064-.55-.17-1.007-.237-.645-.093-1.089-.105-1.991-.054a25.089 25.089 0 0 1-3.845-.104 1.36 1.36 0 0 1-.597-.261 1.5 1.5 0 0 1-.357-.468 1.6 1.6 0 0 1-.108-.524c0-.163.09-.402.235-.616.129-.193 1.262-1.364 2.518-2.603s2.535-2.543 2.841-2.897a81.189 81.189 0 0 1 2.084-2.33c.276-.296.615-.718.754-.94.14-.223.454-.645.699-.94s.81-1.08 1.255-1.748.977-1.423 1.18-1.678c.205-.254.547-.777.76-1.16.214-.384.56-.965.769-1.291.208-.327.599-1.057.867-1.623.269-.566.685-1.474.925-2.019.24-.544.557-1.301.704-1.682l.46-1.188c.107-.271.267-.672.358-.89s.287-.858.438-1.424c.15-.566.332-1.368.403-1.781.072-.414.182-.984.246-1.267.063-.283.165-.835.226-1.226.061-.392.156-1.194.21-1.781.067-.722.083-1.724.049-3.087-.027-1.11-.088-2.41-.135-2.89a43 43 0 0 0-.207-1.701 42 42 0 0 1-.188-1.465 8 8 0 0 0-.229-1.187c-.09-.305-.258-.893-.373-1.306a13 13 0 0 0-.394-1.188 21 21 0 0 1-.337-.87c-.085-.24-.32-.764-.523-1.165-.202-.4-.55-.97-.772-1.266s-.695-.84-1.05-1.208c-.355-.37-.77-.77-.923-.892-.153-.12-.51-.374-.793-.563a19 19 0 0 0-1.349-.78 26 26 0 0 0-2.022-.916 71 71 0 0 0-2.221-.842c-.568-.2-1.406-.51-1.864-.688s-1.137-.446-1.508-.597c-.37-.15-1.066-.497-1.546-.771a87 87 0 0 0-1.626-.901 27 27 0 0 0-1.706-.813c-.523-.225-1.273-.543-1.666-.707a45 45 0 0 1-1.546-.692 33 33 0 0 1-3.394-1.899 12.5 12.5 0 0 1-1.387-1.085 21 21 0 0 1-1.309-1.342 15 15 0 0 1-.89-1.113 13 13 0 0 0-.564-.762c-.158-.193-.491-.708-.741-1.143a39 39 0 0 1-.776-1.425 14 14 0 0 1-.508-1.129 10 10 0 0 0-.418-.927 7.4 7.4 0 0 1-.408-.97 8 8 0 0 0-.365-.911 4.8 4.8 0 0 1-.304-.87 14 14 0 0 0-.32-1.09 13 13 0 0 1-.286-.95 6 6 0 0 0-.158-.554 2 2 0 0 0-.134-.292.44.44 0 0 0-.186-.144c-.09-.034-.142.01-.177.149-.027.108.005.457.072.776.068.319.188.865.269 1.213.08.348.19.954.244 1.346.053.391.202 1.3.331 2.018.13.718.357 1.783.506 2.365.214.837.373 1.252.758 1.979.291.55.504 1.057.528 1.26.022.188.003.422-.042.522-.048.105-.256.255-.501.36-.391.168-.458.174-.998.087a6 6 0 0 0-1.235-.042c-.36.029-.959.084-1.33.123-.37.039-.995.142-1.388.23s-.964.209-1.269.267a37.646 37.646 0 0 0-3.054.777c-.283.09-.872.317-1.309.505-.436.189-1.078.465-1.427.614-.35.149-1.243.57-1.987.936-.928.456-1.761.946-2.657 1.561-.718.494-1.627 1.125-2.02 1.403-.392.278-1.048.8-1.456 1.16-.41.36-1.127 1-1.595 1.422s-1.199 1.134-1.625 1.583a37 37 0 0 0-1.362 1.529c-.323.392-.81.977-1.082 1.3s-.673.842-.89 1.153c-.219.31-.57.777-.78 1.036s-.627.862-.928 1.34c-.3.479-.768 1.244-1.038 1.701s-.607 1.063-.747 1.346-.416.786-.612 1.117-.47.83-.61 1.108-.387.72-.548.98c-.24.388-.346.489-.578.546-.157.04-.38.047-.496.018-.15-.037-.445-.361-1.022-1.12a55 55 0 0 1-1.15-1.562c-.186-.272-.41-.526-.499-.566-.114-.052-.194-.04-.275.04-.064.064-.222.408-.353.767a15 15 0 0 1-.544 1.265c-.169.337-.457.987-.642 1.444a23 23 0 0 1-.904 1.883c-.312.579-.693 1.22-.848 1.423-.154.204-.4.45-.545.549a1.7 1.7 0 0 1-.537.229c-.211.04-.38-.003-.764-.193-.38-.187-.647-.413-1.167-.986-.442-.487-.88-1.09-1.27-1.748-.408-.691-.649-1.019-.768-1.049a.46.46 0 0 0-.328.063c-.084.059-.314.303-.511.542s-.603.653-.902.92c-.3.266-.776.71-1.06.985-.283.275-.694.638-.912.807s-.575.478-.793.686a13 13 0 0 1-.952.798c-.305.23-.779.518-1.053.64-.273.124-.951.336-1.507.473s-1.241.28-1.525.317c-.284.038-.855.12-1.27.182-.414.063-1.152.159-1.639.213-.8.09-.906.086-1.09-.034a.72.72 0 0 1-.263-.35c-.033-.118-.057-.591-.053-1.05s.066-1.214.138-1.678a12 12 0 0 0 .132-1.522c0-.562-.023-.69-.132-.731-.073-.028-.248.018-.39.101-.142.084-.481.309-.753.5-.272.19-.712.47-.978.619s-.662.39-.88.537c-.219.146-.825.481-1.349.745-.523.264-1.487.682-2.142.929s-1.44.536-1.745.643c-.477.167-.745.2-1.903.238-.815.026-1.584.009-1.944-.044a7.5 7.5 0 0 1-1.044-.238 3.3 3.3 0 0 1-.873-.497 14 14 0 0 1-.691-.61c-.259-.251-.267-.277-.222-.713.026-.25.213-.916.415-1.482s.47-1.385.596-1.82c.125-.436.317-1.023.426-1.306.11-.283.291-.832.403-1.22.179-.62.19-.721.089-.822-.092-.092-.442-.121-1.69-.142-.865-.014-1.823-.067-2.128-.117s-.841-.119-1.19-.152a17 17 0 0 1-1.467-.233 16 16 0 0 1-1.508-.4c-.37-.126-.96-.333-1.308-.462a25 25 0 0 1-1.666-.731c-.567-.273-1.281-.66-1.587-.858a20 20 0 0 1-1.348-1.007 18 18 0 0 1-1.311-1.19 17 17 0 0 1-1.137-1.394c-.34-.47-.78-1.146-.98-1.504-.198-.359-.468-.919-.6-1.246s-.257-.76-.277-.963c-.031-.314-.008-.4.155-.562.129-.129.32-.207.585-.24a48 48 0 0 1 1.86-.132 78 78 0 0 0 2.3-.162c.458-.044 1.45-.182 2.206-.307 1.132-.188 1.408-.26 1.567-.409.142-.133.193-.265.193-.496 0-.173-.126-.71-.28-1.193a17 17 0 0 0-.588-1.551c-.17-.37-.44-.976-.601-1.346s-.373-.904-.471-1.187c-.099-.283-.312-.83-.473-1.216-.162-.386-.364-.97-.448-1.3a5.6 5.6 0 0 1-.153-1.324c0-.627.025-.765.181-.997.1-.148.341-.358.536-.466.307-.172.443-.196 1.028-.186.57.01.833.067 1.705.364.567.193 1.549.581 2.182.863.632.282 2.97 1.415 5.195 2.518 2.225 1.104 4.412 2.24 4.86 2.528s1.216.788 1.706 1.113c.49.326 1.283.8 1.763 1.055s1.158.587 1.507.74c.349.152.897.384 1.218.514.32.131.945.306 1.388.39a21 21 0 0 1 1.253.273 9 9 0 0 0 1.15.19c.386.039.952.115 1.257.17.413.073 1.197.086 3.054.047 1.656-.034 2.686-.09 3.054-.164.305-.062.84-.152 1.19-.2.349-.047 1.08-.23 1.626-.407l1.467-.477c.262-.085.672-.274.912-.42.24-.144.746-.406 1.123-.582a14 14 0 0 0 1.468-.836c.43-.285 1.144-.85 1.587-1.255a30 30 0 0 0 1.627-1.642c.45-.498 1.001-1.17 1.224-1.492s.64-.93.924-1.35.877-1.462 1.317-2.313a75 75 0 0 0 1.426-2.93 43 43 0 0 0 .887-2.095c.144-.39.396-1.048.559-1.462a83 83 0 0 1 .665-1.622c.204-.48.452-1.12.552-1.425s.408-1.07.684-1.702c.275-.631.616-1.468.756-1.86s.367-.988.503-1.325c.136-.338.395-.996.577-1.465.18-.468.524-1.279.762-1.801.239-.522.566-1.27.727-1.662.16-.392.553-1.23.87-1.86.319-.632.813-1.54 1.1-2.019.286-.479.702-1.154.923-1.501s.634-.938.918-1.312c.283-.375.792-.979 1.13-1.342.435-.466.683-.671.842-.694.134-.02.363.036.561.137.184.094.398.16.476.146s.336-.203.575-.42a5.3 5.3 0 0 1 1.023-.687c.359-.178.851-.34 1.263-.416.37-.069.942-.125 1.269-.125s.931.056 1.342.122c.412.067 1.126.25 1.587.409s1.122.408 1.468.555.828.4 1.07.564c.244.164.612.419.82.567.27.192.4.244.462.183.062-.062.051-.15-.037-.313-.067-.124-.384-.493-.704-.82a42 42 0 0 0-1.6-1.504c-.56-.5-1.29-1.12-1.622-1.375a34 34 0 0 0-1.517-1.073 67 67 0 0 0-1.84-1.175c-.511-.312-1.421-.817-2.023-1.122s-1.63-.845-2.284-1.2c-.655-.356-1.44-.775-1.746-.933a38 38 0 0 1-1.19-.65 103.148 103.148 0 0 0-2.895-1.592 44 44 0 0 1-1.546-.87l-1.349-.8a25 25 0 0 0-1.03-.576c-.306-.159-.877-.493-1.27-.742a256.593 256.593 0 0 0-4.224-2.569c-.229-.134-.889-.54-1.467-.904s-1.203-.816-1.388-1.005c-.267-.272-.337-.402-.337-.62 0-.22.097-.399.464-.856.255-.318.775-1 1.156-1.515s.894-1.245 1.142-1.621.55-.856.673-1.067c.122-.21.376-.586.564-.833.189-.248.471-.706.628-1.017.157-.312.444-.829.638-1.148.194-.32.465-.862.602-1.206s.302-.857.367-1.139c.066-.282.109-.624.096-.76-.02-.2-.064-.251-.232-.27-.172-.02-.26.048-.51.395-.166.231-.52.687-.788 1.014-.267.326-.678.843-.913 1.148a20 20 0 0 1-.859 1.029c-.238.26-.59.688-.781.95-.192.26-.52.635-.73.83-.208.197-.643.66-.967 1.03s-.754.85-.959 1.068-.703.744-1.109 1.17c-.405.426-1.024.987-1.375 1.247-.35.26-.87.64-1.153.845s-.868.525-1.3.712c-.431.188-1.161.435-1.621.55-.781.195-.914.206-1.992.159-.635-.028-1.365-.107-1.622-.175a11 11 0 0 1-1.19-.444c-.397-.175-.824-.36-.947-.41-.194-.08-.24-.07-.337.062-.066.09-.113.34-.113.6 0 .247-.067.643-.149.88a7 7 0 0 1-.31.745c-.09.172-.407.55-.705.84-.297.29-.714.642-.925.782a4.8 4.8 0 0 1-.92.435c-.296.1-.824.207-1.174.237-.504.044-.723.027-1.05-.081a2.4 2.4 0 0 1-.678-.37c-.146-.127-.33-.4-.41-.604-.1-.26-.143-.586-.143-1.085 0-.67-.01-.714-.172-.737-.126-.018-.251.08-.476.368-.167.216-.733.754-1.256 1.196l-1.348 1.14c-.219.186-.729.563-1.134.839-.544.37-.99.593-1.706.852-.65.236-1.047.338-1.21.313a3 3 0 0 1-.606-.208 3.3 3.3 0 0 1-.714-.507 3 3 0 0 1-.528-.698 5 5 0 0 1-.296-.943c-.067-.32-.165-.61-.216-.643a.27.27 0 0 0-.212-.017c-.065.024-.297.177-.516.34s-.666.494-.993.734-.854.585-1.17.767l-1.048.603c-.26.15-.848.435-1.304.633s-1.056.414-1.331.478a6.3 6.3 0 0 1-1.17.12c-.377 0-.867-.055-1.124-.127-.25-.07-.563-.221-.696-.336s-.36-.458-.503-.763c-.212-.452-.298-.559-.463-.578-.131-.015-.308.06-.504.216-.167.132-.54.353-.83.49-.289.138-.778.367-1.087.508s-.926.372-1.371.512c-.698.22-.935.256-1.706.264-.726.008-.958-.019-1.232-.142a2.3 2.3 0 0 1-.633-.487 4.8 4.8 0 0 1-.559-.874c-.195-.4-.291-.747-.37-1.333-.059-.436-.106-1.47-.105-2.297 0-.827.038-1.877.084-2.335s.089-.955.096-1.106c.009-.206-.023-.282-.128-.303-.078-.015-.399.05-.714.143-.316.094-.905.274-1.309.399l-1.507.47c-.424.134-1.218.332-1.764.44-.545.11-1.33.251-1.745.316-.414.066-1.342.155-2.062.2-.72.044-1.666.06-2.102.033a26 26 0 0 1-1.387-.124 13 13 0 0 1-1.467-.32 12 12 0 0 1-1.588-.586c-.393-.186-.874-.46-1.07-.608l-.827-.62a6 6 0 0 1-.853-.811c-.318-.382-.383-.513-.383-.778 0-.243.052-.37.218-.534.12-.119.432-.337.694-.485s.678-.417.925-.598c.246-.18.746-.5 1.11-.71s.894-.547 1.178-.749a26 26 0 0 1 1.427-.905c.502-.296 1.002-.6 1.11-.676.11-.076.21-.193.223-.26.015-.075-.07-.154-.23-.209-.14-.048-.484-.088-.766-.088a4.6 4.6 0 0 1-.96-.116 11 11 0 0 0-1.28-.197 13 13 0 0 1-1.349-.202 15 15 0 0 0-1.03-.194 57 57 0 0 1-1.243-.2c-.399-.07-.952-.19-1.229-.269a64 64 0 0 1-1.773-.562c-.698-.23-1.636-.59-2.085-.8-.63-.294-.934-.495-1.335-.879-.286-.274-.641-.715-.79-.981-.231-.412-.271-.56-.271-.997 0-.283.05-.68.11-.881.061-.202.28-.604.487-.892s.504-.646.662-.793.645-.488 1.08-.757a32 32 0 0 1 1.35-.787c.307-.164.86-.429 1.23-.588s.958-.395 1.307-.525c.35-.13.96-.32 1.357-.422a35 35 0 0 0 1.467-.423c.41-.13 1.174-.327 1.698-.44.523-.111 1.594-.29 2.38-.395s1.784-.231 2.22-.28a23 23 0 0 1 1.99-.086c.657 0 1.585.04 2.062.086s1.09.135 1.361.196c.273.062.755.242 1.071.4.317.157.79.414 1.052.57s.716.476 1.01.711c.293.236.71.558.926.717.215.16.802.64 1.304 1.068l1.6 1.361c.377.32.96.75 1.294.955s.858.537 1.163.74.859.53 1.23.729c.37.198.98.49 1.354.648s1.088.41 1.586.56a60 60 0 0 0 1.66.47c.415.109 1.238.242 1.829.296.727.066 1.726.082 3.093.047 1.486-.037 2.27-.093 2.97-.214.524-.09 1.274-.25 1.666-.355.393-.106 1.036-.32 1.428-.476.393-.155.953-.387 1.245-.514.292-.128.993-.536 1.56-.908a14 14 0 0 0 1.841-1.447c.448-.424.967-.967 1.155-1.206.187-.24.527-.683.755-.986.345-.458.42-.617.447-.95.028-.344-.008-.476-.264-.953a13 13 0 0 1-.607-1.425 75 75 0 0 1-.592-1.742c-.155-.478-.387-1.209-.516-1.622a59 59 0 0 0-.466-1.425c-.128-.37-.324-1.154-.435-1.741a41 41 0 0 1-.323-2.019 61 61 0 0 1-.189-1.692c-.043-.473-.11-.786-.186-.86-.104-.104-.134-.092-.262.102-.117.18-.155.47-.206 1.573-.058 1.259-.048 1.428.14 2.447.135.737.33 1.444.597 2.157.218.584.559 1.409.757 1.833.199.425.38.881.402 1.014.035.206-.007.283-.294.542-.334.302-.334.302-1.376.246-.835-.044-1.135-.094-1.517-.25l-1.07-.433c-.328-.132-.74-.319-.916-.416-.175-.097-.657-.447-1.07-.778-.413-.33-.967-.812-1.23-1.07a16 16 0 0 1-.978-1.084 16 16 0 0 1-.806-1.087 5.6 5.6 0 0 1-.443-.83c-.133-.35-.133-.367.044-.767.1-.225.304-.73.455-1.122s.397-.932.547-1.2.271-.578.271-.689-.06-.234-.134-.276c-.078-.043-.651-.057-1.368-.033-.679.023-1.787.004-2.464-.043-.89-.062-1.426-.142-1.943-.292a10 10 0 0 1-1.29-.483 4.8 4.8 0 0 1-1.075-.741c-.313-.294-.584-.638-.727-.927-.127-.258-.24-.635-.257-.857-.023-.297.009-.458.128-.648.087-.138.402-.423.699-.633s.89-.648 1.317-.975c.428-.326.91-.67 1.071-.764a7 7 0 0 0 .476-.304c.136-.099.176-.196.158-.377-.02-.203-.092-.28-.42-.455a35.215 35.215 0 0 1-2.816-1.676 13 13 0 0 1-1.576-1.28c-.408-.398-.943-.99-1.19-1.313a13 13 0 0 1-.705-1.03 4.7 4.7 0 0 1-.376-.826 6 6 0 0 1-.17-1.015c-.041-.492-.025-.685.073-.89.092-.193.217-.295.468-.383.188-.066.574-.194.858-.283s.694-.2.912-.245c.218-.046.477-.118.575-.16.099-.043.179-.147.179-.233s-.116-.242-.258-.347a9 9 0 0 0-.774-.475c-.284-.156-.837-.542-1.23-.857a44 44 0 0 1-1.25-1.045c-.294-.26-.801-.818-1.126-1.24a16 16 0 0 1-.748-1.037c-.087-.148-.25-.62-.36-1.049-.112-.429-.203-.893-.203-1.031s.058-.334.129-.435.248-.234.394-.295c.179-.074.588-.11 1.256-.11.545 0 1.358-.038 1.807-.083s.932-.101 1.074-.123c.212-.032.258-.074.258-.238 0-.11-.084-.313-.187-.452-.102-.138-.281-.494-.398-.79a20 20 0 0 0-.618-1.346 14 14 0 0 1-.633-1.475c-.125-.368-.33-.938-.455-1.267a13 13 0 0 1-.43-1.508c-.112-.5-.25-1.16-.308-1.465-.068-.36-.105-1.205-.105-2.414 0-1.86 0-1.86.225-2.346.124-.267.345-.601.49-.742.243-.235.3-.254.649-.218.27.028.927.301 2.245.934 1.026.493 2.378 1.123 3.006 1.4.628.278 1.217.495 1.308.481.092-.013.215-.124.273-.247.06-.122.167-.509.24-.858.092-.449.131-1.036.131-1.995 0-1.104-.032-1.5-.17-2.11-.094-.414-.352-1.22-.573-1.792-.222-.572-.473-1.355-.56-1.74a30 30 0 0 1-.28-1.492c-.09-.574-.125-1.36-.124-2.85.001-1.132.038-2.44.083-2.909l.152-1.602c.052-.539.124-.847.256-1.086.102-.183.28-.386.395-.451.18-.101.301-.103.872-.015.365.056 1.033.207 1.485.334s1.166.378 1.586.555 1.104.545 1.518.815c.415.27 1.004.738 1.309 1.04s.634.56.73.573c.142.02.18-.022.212-.237.022-.144.078-.753.126-1.353s.14-1.395.205-1.767.194-.825.286-1.007.303-.493.469-.69c.165-.199.485-.461.71-.584.34-.184.481-.217.82-.188.268.023.693.168 1.24.423.459.213 1.03.504 1.27.645s.66.445.934.675.74.69 1.036 1.025c.37.416.657.85.916 1.382.208.427.465 1.097.57 1.49.175.65.192.87.193 2.372 0 .91-.038 1.89-.084 2.176a27 27 0 0 1-.19 1.036c-.06.283-.151.764-.204 1.068s-.18.768-.282 1.03c-.103.26-.24.724-.305 1.028s-.369 1.32-.675 2.256-.74 2.2-.964 2.81l-.685 1.86c-.152.414-.42 1.109-.593 1.544a20 20 0 0 0-.512 1.464c-.108.37-.229.905-.268 1.188s-.117.924-.173 1.424c-.056.501-.102 1.587-.102 2.415 0 .827.045 1.984.1 2.572.054.588.169 1.44.254 1.893s.302 1.227.482 1.718.495 1.178.698 1.527.535.84.736 1.093c.201.252 1.165 1.266 2.142 2.253s1.932 1.985 2.124 2.216.442.617.555.857c.172.362.205.541.199 1.068-.006.537-.053.746-.305 1.374-.217.542-.274.764-.21.829.064.063.148.064.305 0 .12-.047.392-.165.605-.262.308-.14.492-.17.892-.145.345.022.572.083.722.194.12.09.326.314.457.5.218.307.238.388.229.942a8.5 8.5 0 0 1-.173 1.357 14 14 0 0 0-.22 1.331c-.038.397-.027.608.035.67.068.067.12.061.205-.025.063-.064.295-.672.515-1.352.229-.705.626-1.691.924-2.295.287-.582.787-1.441 1.11-1.91.322-.47.858-1.2 1.19-1.624s.93-1.092 1.33-1.483c.399-.392.904-.854 1.122-1.027.218-.174.53-.432.694-.574.242-.211.364-.26.658-.26.275 0 .406.046.552.192.105.105.21.274.232.376s.05.6.063 1.108.046.948.075.977c.03.03.123.031.207.005.084-.027.21-.182.278-.344s.157-.402.198-.533a7 7 0 0 1 .334-.752c.143-.283.438-.799.657-1.147.218-.348.512-.812.652-1.03s.512-.698.826-1.068.876-.948 1.25-1.285a12.4 12.4 0 0 1 1.516-1.126c.542-.332 1.093-.595 1.558-.744a13 13 0 0 1 1.632-.364 33 33 0 0 0 1.27-.208c.196-.04 1.16-.11 2.141-.155s3.195-.115 4.918-.156c2.609-.062 3.265-.101 3.92-.233a6.2 6.2 0 0 0 1.53-.52c.548-.265.866-.483 1.197-.82.249-.251.552-.64.674-.864s.273-.648.336-.943c.062-.295.114-.804.114-1.13 0-.327-.053-.817-.117-1.09a5 5 0 0 0-.316-.888c-.11-.215-.28-.434-.378-.487s-.714-.141-1.368-.197a31 31 0 0 0-1.78-.105 5.2 5.2 0 0 1-1.19-.17 7 7 0 0 1-1.154-.455c-.306-.16-.665-.385-.798-.501-.133-.117-.342-.396-.464-.62-.202-.37-.22-.465-.193-1.054.022-.482.077-.741.217-1.016.103-.203.415-.595.694-.87.374-.371.698-.596 1.238-.86.43-.21.742-.411.757-.49.019-.097-.045-.144-.237-.173-.145-.022-1.03-.059-1.968-.08-.938-.023-2.152-.098-2.697-.167a43 43 0 0 1-1.626-.237 28 28 0 0 1-1.349-.281 96 96 0 0 1-1.427-.353 16 16 0 0 1-1.528-.501 18 18 0 0 1-1.785-.852c-.534-.295-1.15-.666-1.367-.826a14 14 0 0 1-.96-.813 5.5 5.5 0 0 1-.98-1.218 9 9 0 0 1-.736-1.645c-.319-.95-.319-.95-.274-2.138.024-.653.102-1.508.173-1.9a14 14 0 0 1 .27-1.187c.079-.262.26-.756.404-1.099s.398-.87.564-1.173a32 32 0 0 1 1.3-2.138c.184-.28.44-.552.606-.645.238-.135.339-.15.587-.087.165.042.365.165.445.274.119.161.154.407.193 1.345.03.727.105 1.38.204 1.781.086.348.319.987.516 1.419.202.44.577 1.067.85 1.425.27.351.705.84.965 1.084.26.246.855.696 1.321 1.002a21 21 0 0 0 1.825 1.034c.537.263 1.258.555 1.603.649a10 10 0 0 1 1.23.444c.33.15.856.357 1.166.458s.9.329 1.31.506c.409.177 1.1.463 1.537.637.436.173 1.096.446 1.467.606l1.507.65c.458.197 1.11.48 1.446.628.338.149 1.105.43 1.706.627.6.196 1.36.41 1.687.475.352.07.74.098.952.068.196-.028.53-.144.74-.257s.475-.316.588-.449c.112-.132.266-.383.343-.557s.185-.596.242-.937c.091-.55.087-.68-.034-1.143-.076-.287-.224-.635-.33-.772-.105-.14-.378-.331-.61-.431-.374-.16-.501-.175-1.175-.132a49 49 0 0 0-1.55.129c-.435.044-1.767.082-2.958.083-1.533 0-2.437-.035-3.094-.124-.51-.068-1.121-.179-1.358-.246a8 8 0 0 1-1.063-.438c-.348-.175-.817-.492-1.043-.705a3.5 3.5 0 0 1-.633-.84c-.208-.423-.225-.54-.286-1.907-.035-.801-.118-1.8-.184-2.221a96 96 0 0 1-.202-1.358c-.045-.327-.136-.966-.202-1.42s-.12-1.364-.12-2.022c0-1.13.011-1.22.205-1.608.119-.24.402-.59.676-.837.294-.266.822-.605 1.401-.902.512-.262 1.52-.727 2.241-1.033s1.622-.649 2.002-.762l1.602-.476c.5-.148 1.366-.33 1.924-.402s1.284-.116 1.615-.098c.456.025.725.092 1.119.275.285.133.675.398.866.588.192.19.429.444.526.563.098.12.25.218.34.218.088 0 .305-.092.483-.204s.614-.277.97-.366c.526-.133.79-.155 1.412-.117.42.025 1.062.122 1.425.214.363.093 1.112.376 1.665.629s1.183.58 1.403.726.732.508 1.138.804 1.24.785 1.851 1.087c.612.302 1.506.705 1.985.894s1.123.402 1.428.47c.306.07.93.199 1.388.289s1.208.234 1.666.319 1.404.198 2.102.251 2.62.117 4.27.142c3.002.047 3.002.047 3.154.234.102.125.151.31.151.565 0 .208.05.64.113.96.061.321.15.85.196 1.177.046.326.1.79.119 1.029.02.24.09.97.158 1.623.067.653.18 1.614.25 2.137.069.522.176 1.36.237 1.86.06.5.15 1.177.196 1.504s.104.914.127 1.306c.022.392.092.957.155 1.256s.115.727.115.95.051.69.114 1.04c.063.347.152.935.197 1.305s.102 1.061.127 1.535c.024.474.08 1.029.124 1.232s.073.546.065.761.025.978.075 1.696c.049.719.108 2.053.13 2.966.024.912.077 1.693.118 1.735.05.049.148.044.275-.014.116-.053.293-.277.43-.548.134-.263.537-.78.945-1.212a18 18 0 0 1 1.455-1.354c.41-.33 1.145-.858 1.634-1.172.49-.315 1.347-.77 1.904-1.01.557-.241 1.376-.557 1.818-.702a13 13 0 0 1 1.487-.382 26 26 0 0 1 1.838-.215c.907-.075 1.428-.075 2.4 0a35 35 0 0 1 2.235.252 30 30 0 0 1 3.966.944c.37.123.942.303 1.27.4.326.098.908.315 1.292.483.383.167.802.304.93.304.187 0 .29-.079.54-.415.17-.229.59-.736.932-1.128s.945-1.033 1.34-1.425.968-.933 1.273-1.203.785-.668 1.069-.885.73-.528.992-.69c.261-.16.583-.393.714-.516.132-.123.524-.378.873-.569.348-.19 1.026-.579 1.506-.863s1.39-.751 2.023-1.036c.632-.285 1.65-.703 2.26-.93a54 54 0 0 1 2.063-.714c.523-.165 1.451-.44 2.062-.61s1.628-.438 2.26-.595a72 72 0 0 1 2.103-.486c.523-.11 1.442-.272 2.042-.359l1.983-.283c.491-.07 1.218-.177 1.616-.24.398-.062.998-.113 1.334-.113.335 0 .86-.039 1.167-.086.423-.066.722-.062 1.244.015.552.08.728.141.893.304.113.112.282.41.377.661.148.395.17.621.17 1.663 0 1.155-.01 1.237-.258 1.956a8 8 0 0 1-.654 1.377c-.224.354-.757.993-1.229 1.473-.77.784-.946.915-2.34 1.746-1.018.608-1.738.98-2.22 1.146-.393.136-1.054.373-1.468.528-.415.154-1.03.342-1.37.416-.339.075-.694.2-.79.277-.15.121-.162.169-.084.34.058.127.228.25.473.345.31.12.602.147 1.533.147 1.112 0 1.182-.01 2.102-.3.523-.165 1.255-.41 1.626-.544.37-.134.978-.39 1.348-.57s.871-.405 1.11-.5c.24-.097.601-.177.802-.18.27-.002.402.039.512.16.101.112.158.32.18.67.018.28-.028.874-.101 1.322-.081.495-.226 1.014-.37 1.328-.13.283-.382.763-.56 1.068-.19.325-.638.876-1.087 1.334-.42.429-.942.898-1.16 1.043a12 12 0 0 1-1.045.587 9 9 0 0 1-1.15.476c-.276.084-.752.206-1.057.27s-.752.137-.991.16a63 63 0 0 0-1.071.117c-.375.044-1.041.048-1.626.009a80.084 80.084 0 0 1-4.442-.439 79 79 0 0 0-1.587-.195c-.37-.04-.87-.105-1.11-.144a132 132 0 0 0-2.103-.325c-.284-.042-1.185-.185-2.003-.319a79 79 0 0 1-2.24-.396c-.414-.084-1.021-.21-1.348-.28s-.75-.147-.939-.17c-.318-.04-.342-.03-.317.127.015.098.316.414.706.74.374.315 1.054.945 1.51 1.403a22 22 0 0 1 1.247 1.345c.228.283.658.821.956 1.196.297.374.872 1.23 1.278 1.9.405.67 1.024 1.735 1.375 2.366.35.631.924 1.735 1.273 2.454.35.718.748 1.573.887 1.9.138.326.394.914.567 1.305.174.392.487 1.14.696 1.663.21.522.551 1.448.76 2.058.21.61.451 1.304.537 1.543.086.24.27.827.407 1.306s.36 1.174.497 1.544c.136.37.311.975.389 1.345.077.37.217 1.012.31 1.425l.287 1.267c.064.283.168.829.232 1.213.063.385.17 1.115.237 1.623a38 38 0 0 1 .27 4.187c.001.49.04 1.13.088 1.425s.13 1.8.183 3.346c.063 1.834.074 3.552.032 4.947a181 181 0 0 1-.133 3.404c-.038.696-.112 1.73-.165 2.295a29 29 0 0 1-.321 2.216c-.124.653-.284 1.526-.355 1.94-.07.413-.237 1.25-.37 1.86-.132.61-.36 1.5-.507 1.979s-.413 1.316-.59 1.86a51 51 0 0 1-.592 1.705 29 29 0 0 1-.797 1.82 42 42 0 0 1-.971 1.897c-.243.435-.636 1.13-.873 1.543a15 15 0 0 1-.847 1.306c-.23.305-.645.875-.923 1.267a24 24 0 0 1-1.276 1.583 35 35 0 0 1-1.51 1.588 108 108 0 0 1-1.636 1.544c-.493.454-1.07.968-1.283 1.142-.212.175-.737.614-1.166.977s-1.172.93-1.652 1.26c-.48.331-1.285.915-1.79 1.298-.504.383-1.182.841-1.506 1.019s-.805.46-1.067.626c-.261.167-1.082.598-1.824.957-.742.36-1.83.866-2.42 1.125a33 33 0 0 1-1.824.74c-.414.146-1.011.322-1.327.39l-1.071.236c-.273.061-.925.152-1.449.201-.523.05-1.036.124-1.139.165-.15.06-.179.117-.147.29.022.118.167.696.322 1.284.155.587.424 1.531.596 2.097.173.566.463 1.474.646 2.019.182.544.47 1.292.638 1.662s.448 1.042.622 1.493.698 1.591 1.165 2.533 1.05 2.02 1.294 2.398c.245.376.552.866.683 1.087.131.222.48.75.775 1.175s.73 1.058.968 1.406.573.776.745.95c.171.174.472.53.667.792.196.26.64.78.988 1.156.348.374 1.177 1.176 1.842 1.78s1.393 1.243 1.618 1.417c.225.175.712.535 1.083.8.37.266 1.138.75 1.705 1.075s1.418.793 1.89 1.04c.472.248 1.204.597 1.626.777a31 31 0 0 0 3.94 1.295 55 55 0 0 0 1.825.385c.567.109 1.37.24 1.785.29s1.385.116 2.157.145c1.25.048 1.429.072 1.626.218a1 1 0 0 1 .295.369c.052.145.035.302-.06.55-.074.193-.44.7-.826 1.146-.382.44-.837 1.058-1.011 1.374-.175.316-.45.809-.614 1.096s-.456.897-.651 1.355a22 22 0 0 0-.627 1.702 18 18 0 0 0-.397 1.502c-.069.348-.18 1.078-.248 1.622s-.129 1.55-.135 2.234c-.006.685.028 1.486.076 1.781.049.295.13.84.182 1.21s.141.868.198 1.108.208.791.335 1.227c.126.435.416 1.272.644 1.86.227.587.813 1.85 1.301 2.806.488.957 1.04 1.97 1.225 2.253.25.382.337.593.337.822 0 .244-.055.364-.264.572-.264.264-.264.264-1.21.265-.65 0-1.118.045-1.5.144-.532.137-.559.155-.626.427-.058.233-.036.356.119.675.104.214.4.71.656 1.1.258.391.635.925.839 1.186s.489.67.633.908.397.595.561.792.506.714.76 1.15c.252.435.542.949.642 1.141.138.263.183.48.182.87 0 .287-.046.61-.101.72-.055.108-.256.282-.446.387-.325.179-.375.185-.847.098-.276-.05-.905-.23-1.397-.398a40 40 0 0 1-1.888-.713c-.545-.224-1.08-.397-1.19-.385-.183.02-.198.052-.195.424.002.343.105.61.69 1.8.378.769.98 1.834 1.339 2.368.358.533.788 1.23.955 1.548.246.467.305.662.305 1.013 0 .354-.036.47-.192.626-.105.105-.292.219-.416.253-.124.035-.618.055-1.097.045-.48-.01-1.123-.07-1.428-.13a84 84 0 0 0-1.426-.27c-.48-.086-.92-.138-.978-.116-.08.03-.098.16-.072.486.02.244.093 1.031.164 1.75.07.718.187 1.822.258 2.454.071.63.159 1.361.194 1.622l.182 1.346c.065.479.158 1.138.207 1.464s.14.87.204 1.207.223 1.118.354 1.735.239 1.308.239 1.537c0 .333-.042.466-.206.66-.169.2-.264.244-.536.244-.242 0-.459-.079-.815-.297a76 76 0 0 1-.832-.518 32 32 0 0 0-.983-.583l-1.23-.701a65 65 0 0 1-1.625-.975 358 358 0 0 1-1.48-.92c-.246-.154-.535-.28-.642-.28a.47.47 0 0 0-.313.138c-.065.076-.296.477-.513.89s-.913 1.536-1.547 2.494-1.452 2.097-1.818 2.533a41 41 0 0 1-1.58 1.73 24 24 0 0 1-1.652 1.544c-.408.332-.961.736-1.23.898-.269.161-1.47.705-2.67 1.21-1.2.503-2.485 1.057-2.856 1.23-.37.173-1.084.46-1.586.639-.502.178-1.226.406-1.61.507s-.902.206-1.152.235m1.038-1.955c.141-.019.935-.305 1.764-.636s1.882-.76 2.34-.955l1.69-.716c.47-.2 1.202-.543 1.625-.761a13 13 0 0 0 1.49-.932c.45-.334 1.102-.949 1.74-1.642.561-.61 1.228-1.394 1.483-1.742.254-.348.667-.895.917-1.215s.597-.819.772-1.108.482-.776.683-1.08c.2-.305.696-1.138 1.103-1.85.527-.924.808-1.338.983-1.444.135-.082.354-.15.487-.15.141 0 .44.122.714.29.26.16.775.455 1.146.657.37.203 1.049.613 1.507.913s1.1.693 1.428.874c.327.18.806.459 1.066.618.259.16.554.29.657.29s.206-.054.231-.12c.025-.065-.01-.341-.078-.613a7 7 0 0 1-.163-.962 11 11 0 0 0-.201-1.187 27 27 0 0 1-.323-1.947l-.236-1.82a26 26 0 0 1-.122-1.584 21 21 0 0 0-.125-1.543 19 19 0 0 0-.242-1.267c-.098-.429-.15-.875-.129-1.122.024-.289.098-.494.25-.693.12-.156.356-.355.526-.441a1.7 1.7 0 0 1 .77-.158c.252 0 .771.052 1.153.116s.917.157 1.19.207.632.11.8.13c.167.022.342.001.39-.046.062-.062.058-.148-.013-.306a2.3 2.3 0 0 0-.366-.497c-.148-.152-.468-.633-.711-1.068a30 30 0 0 1-.709-1.346 18 18 0 0 1-.592-1.49c-.289-.826-.327-1.017-.327-1.644 0-.432.044-.815.112-.977.071-.17.24-.342.463-.472.193-.113.51-.227.705-.254.22-.03.541 0 .848.078.271.07 1.121.361 1.889.648 1.028.385 1.42.5 1.485.434.065-.065.057-.137-.03-.272-.064-.101-.41-.625-.767-1.165a59 59 0 0 0-.908-1.337c-.141-.196-.457-.641-.701-.99a25 25 0 0 1-.739-1.118 7.4 7.4 0 0 1-.493-1.011c-.122-.325-.197-.684-.194-.94.002-.227.053-.552.113-.72.06-.17.241-.443.402-.607.16-.164.515-.411.787-.55.273-.137.652-.27.844-.293s.429-.093.527-.154.179-.188.179-.282-.109-.334-.241-.533c-.133-.199-.458-.807-.723-1.35a30 30 0 0 1-.827-1.875 28 28 0 0 1-.657-1.98 48 48 0 0 1-.48-1.805c-.091-.392-.201-.98-.244-1.306a46 46 0 0 1-.171-1.76 23 23 0 0 1-.042-2.453c.028-.709.123-1.698.212-2.199.09-.5.237-1.158.329-1.46.091-.302.245-.837.342-1.187s.294-.904.438-1.23c.143-.325.339-.807.435-1.07.096-.264.385-.852.644-1.307.258-.455.576-.949.707-1.097.13-.149.264-.337.296-.42q.057-.147-.093-.298c-.094-.094-.31-.166-.573-.193l-.844-.082a16 16 0 0 1-1.07-.16 73 73 0 0 0-1.087-.191c-.24-.04-.972-.2-1.626-.355a35 35 0 0 1-2.499-.723 32 32 0 0 1-2.126-.802 30 30 0 0 1-1.864-.933 71 71 0 0 1-1.935-1.105c-.488-.292-1.041-.66-1.229-.817s-.556-.429-.817-.605a17 17 0 0 1-1.23-.97 96 96 0 0 1-1.547-1.37 25 25 0 0 1-1.388-1.375 40 40 0 0 1-2.482-3.097c-.208-.3-.534-.728-.722-.95-.189-.224-.629-.869-.978-1.435a65 65 0 0 1-1.271-2.177 49.257 49.257 0 0 1-2.2-4.512c-.188-.457-.547-1.365-.797-2.018s-.539-1.49-.642-1.86a18 18 0 0 0-.393-1.227 9 9 0 0 1-.32-1.108 14 14 0 0 0-.305-1.148c-.104-.326-.268-.95-.364-1.385a15 15 0 0 1-.213-1.131c-.02-.187.007-.447.06-.577.055-.13.19-.309.303-.397.185-.145.274-.155 1.003-.106a8.3 8.3 0 0 0 1.498-.04 18 18 0 0 0 1.623-.325 70 70 0 0 0 1.917-.519c.692-.2 1.586-.563 2.96-1.203 1.083-.505 2.368-1.164 2.856-1.464.487-.301 1.053-.66 1.257-.796.204-.137.811-.548 1.349-.914a52 52 0 0 0 1.572-1.11c.327-.246.825-.624 1.107-.84.281-.216.835-.671 1.23-1.01l1.419-1.227a49 49 0 0 0 1.747-1.639c.575-.566 1.312-1.35 1.638-1.742s.865-1.051 1.196-1.465c.332-.413.767-1 .966-1.305.2-.305.617-1 .928-1.543.31-.545.855-1.56 1.209-2.256.354-.697.765-1.605.913-2.019.148-.413.409-1.133.58-1.598s.459-1.339.64-1.94c.18-.6.371-1.324.424-1.607.054-.283.19-.906.304-1.385s.263-1.245.333-1.702.179-1.152.244-1.543c.064-.392.17-1.336.233-2.098.064-.762.15-1.777.193-2.256.042-.479.099-1.672.125-2.652.027-.98.01-2.92-.035-4.313-.046-1.394-.118-2.872-.16-3.285a68 68 0 0 1-.161-2.692c-.047-1.066-.142-2.349-.21-2.85-.07-.5-.193-1.32-.274-1.82s-.255-1.427-.385-2.058a50 50 0 0 0-.63-2.572 97 97 0 0 0-.687-2.375 43 43 0 0 0-.555-1.662c-.143-.392-.385-1.069-.536-1.504a39 39 0 0 0-.549-1.465c-.15-.37-.474-1.159-.72-1.753a48 48 0 0 0-1.131-2.454c-.376-.755-.933-1.872-1.239-2.481a33 33 0 0 0-1.192-2.137 73 73 0 0 0-1.007-1.583c-.203-.305-.767-1.035-1.252-1.623a30 30 0 0 0-1.863-2.019 32 32 0 0 0-1.535-1.402 33 33 0 0 0-1.64-1.205 25 25 0 0 0-2.261-1.36 48 48 0 0 0-2.206-1.063c-.567-.25-1.53-.623-2.141-.828a44 44 0 0 0-2.096-.639 17 17 0 0 0-1.586-.352c-.33-.048-.976-.138-1.434-.201a26 26 0 0 0-1.904-.163 11 11 0 0 0-2.102.085c-.567.073-1.228.179-1.468.236s-.872.267-1.405.468c-.532.2-1.228.495-1.546.655s-.917.504-1.332.766c-.414.262-1.021.694-1.348.96-.327.264-.819.713-1.093.996s-.735.853-1.025 1.266-.606.948-.703 1.187-.272.864-.389 1.386c-.14.622-.214 1.19-.216 1.642-.001.381.022 1.094.053 1.583.03.49.106 1.147.17 1.46.062.313.252.936.422 1.385.17.45.522 1.267.783 1.818.346.728.644 1.214 1.095 1.78.341.43.795.95 1.008 1.16.213.208.569.47.79.582.261.132.534.204.77.204s.51-.072.77-.204c.223-.112.483-.303.579-.425a.56.56 0 0 0 .133-.497 14 14 0 0 0-.242-1.029c-.11-.414-.36-1.18-.555-1.702a69 69 0 0 0-.766-1.94 16 16 0 0 1-.6-1.74 6 6 0 0 1-.19-1.585c0-.598.045-1 .162-1.425.09-.326.277-.783.416-1.016.14-.234.405-.559.59-.722.186-.164.632-.446.992-.626s.851-.361 1.091-.401.686-.113.992-.161c.305-.049 1.643-.095 2.974-.104 1.65-.01 2.644.017 3.126.087.389.057.96.16 1.27.23.309.069 1.08.285 1.712.48.632.196 1.614.557 2.181.804s1.53.744 2.138 1.104c.609.36 1.445.929 1.859 1.263s.969.768 1.233.965c.265.198.64.5.834.673s1.13 1.09 2.08 2.037 1.904 1.937 2.12 2.2l.794.97c.22.27.673.936 1.007 1.48.335.544.85 1.464 1.148 2.044.296.58.669 1.39.826 1.799.158.41.451 1.163.651 1.676s.485 1.306.633 1.763c.147.457.372 1.24.5 1.741s.318 1.231.423 1.623.27 1.122.366 1.623c.097.5.245 1.23.328 1.622s.204 1.087.268 1.544c.063.457.155 1.116.202 1.464.048.349.118 1.025.156 1.504s.11 1.174.16 1.544c.055.403.097 2.086.106 4.195.008 1.937-.007 4.11-.035 4.828-.028.719-.11 1.698-.182 2.177-.073.479-.222 1.459-.333 2.177-.11.718-.273 1.59-.363 1.94-.09.347-.23.953-.31 1.345a17 17 0 0 1-.362 1.385c-.117.37-.271.887-.342 1.148s-.257.777-.414 1.148-.373.904-.481 1.187c-.109.283-.41 1.013-.67 1.623-.261.609-.768 1.678-1.127 2.374a37 37 0 0 1-.899 1.662 20 20 0 0 0-.481.832c-.13.239-.366.613-.526.83-.16.218-.43.628-.6.91-.17.284-.461.73-.647.99-.186.262-.473.651-.638.866s-.45.606-.632.87a12 12 0 0 1-.916 1.108c-.49.526-.632.633-.879.662a.75.75 0 0 1-.483-.09c-.105-.068-.252-.286-.328-.484-.099-.258-.126-.49-.096-.822a7 7 0 0 0-.027-1.088 46 46 0 0 0-.186-1.417c-.064-.436-.174-1.148-.243-1.584-.07-.435-.21-1.13-.314-1.543a51 51 0 0 0-.469-1.702 36 36 0 0 0-.553-1.702l-.556-1.534a26 26 0 0 0-.794-1.86c-.28-.593-.733-1.559-1.005-2.147a26 26 0 0 0-.913-1.78 77 77 0 0 1-.917-1.623 140 140 0 0 1-1.037-1.94 366 366 0 0 1-1.871-3.68c-.733-1.459-1.542-3.186-1.796-3.84a68 68 0 0 0-.739-1.82 17 17 0 0 1-.51-1.385c-.13-.414-.323-.983-.428-1.266a17 17 0 0 1-.428-1.507c-.13-.546-.341-1.49-.47-2.098a59 59 0 0 1-.378-1.97c-.113-.673-.146-1.3-.147-2.81 0-1.153.04-2.235.1-2.657l.177-1.241c.042-.29.291-1.135.554-1.877s.778-1.964 1.145-2.717.89-1.707 1.163-2.12a21 21 0 0 0 .83-1.386 19.213 19.213 0 0 0 1.383-3.532c.126-.477.286-1.266.357-1.754.07-.488.158-1.084.195-1.323.042-.271.037-.491-.012-.583-.062-.117-.14-.14-.368-.107-.16.022-.45.11-.647.197-.196.086-.642.326-.991.532-.35.207-.914.572-1.256.811s-1.096.904-1.677 1.475c-.802.79-1.16 1.21-1.491 1.751a35 35 0 0 0-1.033 1.883c-.418.82-.753 1.639-1.117 2.731-.286.858-.613 1.996-.725 2.53-.113.532-.273 1.28-.356 1.661-.083.382-.26 1.335-.395 2.119a46 46 0 0 0-.329 2.216 20 20 0 0 1-.231 1.513c-.081.397-.171 1.216-.2 1.82-.041.834-.021 1.358.082 2.168.075.588.202 1.39.282 1.781.08.392.251 1.087.38 1.544.13.457.38 1.258.557 1.78.176.523.54 1.485.807 2.138a46 46 0 0 0 1.085 2.4c.33.668 1.035 1.933 1.568 2.81.533.879 1.147 1.882 1.365 2.23s.803 1.246 1.301 1.995c.499.75 1.072 1.623 1.274 1.942s.572.953.823 1.409c.25.455.658 1.185.906 1.62s.689 1.272.979 1.86.666 1.407.837 1.82.475 1.251.676 1.86c.2.61.478 1.536.615 2.059.228.867.253 1.086.29 2.517.036 1.399.02 1.672-.14 2.533-.098.531-.266 1.162-.373 1.401s-.256.596-.332.792c-.076.195-.308.653-.515 1.016s-.692 1.057-1.077 1.543c-.386.486-.98 1.153-1.323 1.482s-1.042.909-1.555 1.29c-.513.38-1.394.938-1.958 1.241-.781.42-1.1.551-1.343.551-.254 0-.388-.06-.664-.298-.19-.165-.594-.485-.897-.712a63 63 0 0 1-2.09-1.641c-.32-.261-.783-.63-1.029-.818s-.745-.58-1.11-.87-.83-.649-1.032-.795a10 10 0 0 1-.764-.641 12 12 0 0 0-.912-.756c-.283-.21-.732-.581-.997-.824s-.729-.62-1.031-.84a45 45 0 0 1-1.562-1.226 89 89 0 0 0-1.634-1.307 65 65 0 0 1-1.367-1.092l-1.46-1.2c-.392-.323-1.077-.876-1.521-1.23a175 175 0 0 1-1.5-1.211 99 99 0 0 0-1.144-.924c-.248-.195-.787-.622-1.197-.948a27 27 0 0 1-1.142-.957c-.218-.2-.593-.514-.833-.696s-.615-.474-.833-.649a5.6 5.6 0 0 0-.88-.55 4.2 4.2 0 0 0-1.05-.314q-.564-.08-1.526-.001c-.529.043-1.181.134-1.45.202s-.737.21-1.043.315-.84.302-1.19.438c-.349.135-.706.264-.793.284-.089.021-.28-.044-.435-.148-.152-.102-.309-.278-.348-.39a1.1 1.1 0 0 1-.018-.488 1 1 0 0 1 .284-.491c.127-.114.616-.565 1.088-1.003a18 18 0 0 0 1.441-1.518c.322-.398.807-.956 1.079-1.238s.705-.77.962-1.08c.258-.31.65-.791.871-1.068s.611-.825.867-1.217c.255-.391.631-.926.837-1.187s.538-.748.741-1.081c.203-.334.529-.945.725-1.358.247-.521.38-.928.437-1.332.045-.32.102-.797.127-1.06.026-.262.006-1.117-.044-1.9a56 56 0 0 0-.172-2.134c-.045-.392-.134-1.14-.197-1.662-.063-.523-.158-1.36-.211-1.86-.053-.501-.097-1.516-.096-2.257 0-.74.042-1.701.094-2.137a25 25 0 0 1 .325-1.86c.127-.588.383-1.55.568-2.137.186-.588.49-1.46.676-1.94.186-.478.507-1.28.712-1.78s.516-1.231.69-1.623.47-1.09.657-1.55c.188-.462.598-1.334.91-1.94s.752-1.422.977-1.813c.224-.392.59-1.069.813-1.504l.69-1.346c.157-.305.467-.934.69-1.398a38 38 0 0 0 .84-1.936c.24-.601.561-1.512.713-2.023s.321-1.19.376-1.507c.069-.402.098-1.596.097-3.94-.002-2.602-.036-3.724-.147-4.948-.08-.87-.17-1.998-.204-2.505s-.1-1.13-.148-1.385c-.049-.255-.111-.748-.138-1.096s-.1-.943-.163-1.321a29 29 0 0 1-.19-1.425c-.041-.405-.132-1.236-.2-1.845-.069-.61-.155-1.5-.193-1.98a19 19 0 0 0-.233-1.743c-.092-.48-.201-1.264-.243-1.742a46 46 0 0 0-.202-1.778c-.069-.5-.143-1.178-.165-1.504a6 6 0 0 0-.115-.877q-.075-.285-.294-.39c-.164-.079-.86-.111-2.796-.13-1.97-.02-2.922-.066-4.032-.193-.8-.092-1.71-.212-2.023-.268s-.8-.145-1.084-.2c-.284-.054-.89-.206-1.349-.338s-1.158-.336-1.556-.454a16 16 0 0 1-1.692-.661c-.533-.245-1.27-.65-1.639-.901-.368-.251-.892-.593-1.163-.761a14 14 0 0 1-.9-.615c-.222-.17-.735-.452-1.139-.627a20 20 0 0 0-1.194-.472c-.253-.085-.793-.195-1.2-.245-.56-.068-.824-.067-1.08.003-.268.072-.369.15-.47.362-.108.225-.114.323-.037.578.05.17.172.394.27.5.1.106.35.31.559.453s.578.351.82.462c.3.136.522.188.692.16.138-.023.411-.133.607-.246.293-.167.46-.204.932-.205.414 0 .745.057 1.19.208.338.115.84.31 1.116.433s.624.346.773.495c.195.194.273.343.273.52 0 .137-.072.39-.16.561s-.256.376-.373.452c-.162.106-.377.14-.892.14-.372 0-.98-.03-1.352-.067-.674-.067-.674-.067-1.016.535-.189.33-.457.687-.595.792-.14.104-.441.251-.671.326a2.1 2.1 0 0 1-.807.098 2.8 2.8 0 0 1-.811-.25 2.3 2.3 0 0 1-.74-.612c-.174-.22-.466-.638-.647-.928-.182-.29-.459-.696-.615-.902-.18-.236-.385-.676-.554-1.187a90 90 0 0 1-.403-1.248c-.074-.24-.274-.738-.445-1.108-.195-.422-.418-.768-.597-.927a1.6 1.6 0 0 0-.71-.348c-.321-.072-.609-.073-1.2-.005-.428.049-1.1.18-1.492.29s-.963.275-1.269.366-.876.291-1.269.447a42 42 0 0 1-1.309.49c-.327.115-1.096.464-1.708.776-.613.312-1.248.684-1.411.827-.259.226-.308.327-.378.77-.044.28-.058.797-.03 1.148s.116 1.048.197 1.548c.08.5.199 1.32.264 1.82.066.501.158 1.32.205 1.821s.095 1.181.106 1.511c.017.494.057.657.227.912.162.245.357.383.923.651.456.216.943.379 1.34.447.342.058 1.148.15 1.791.205.755.064 1.726.081 2.737.049a45 45 0 0 0 2.824-.188c1.255-.138 1.259-.138 1.925.034.396.102.814.273 1.03.42.198.138.48.435.625.661s.363.642.485.922c.184.427.226.654.256 1.382.02.478-.002 1.054-.048 1.279a4.4 4.4 0 0 1-.287.83 5.4 5.4 0 0 1-.58.887l-.529.646c-.146.18-.146.19.032.618.166.4.176.507.124 1.323-.036.576-.112 1.038-.216 1.316a5.5 5.5 0 0 1-.491.92c-.257.383-.426.54-.761.71-.341.172-.54.217-.958.217-.29 0-.703-.06-.918-.132a5.5 5.5 0 0 1-.886-.435c-.272-.166-.79-.45-1.15-.63-.36-.181-.902-.413-1.204-.516a8 8 0 0 0-1.27-.275 7.6 7.6 0 0 0-1.249-.044 8 8 0 0 0-1.07.176 6.5 6.5 0 0 0-1.018.357c-.261.124-.65.379-.863.567-.27.24-.4.419-.425.593-.029.195.01.297.17.458.115.114.404.294.642.399.237.105.781.244 1.208.309s1.472.158 2.322.207c1.06.062 1.63.128 1.807.211.144.067.387.268.54.447.155.18.382.54.504.801.123.262.317.85.432 1.307.14.56.208 1.041.208 1.477 0 .355-.051.907-.113 1.227s-.189.758-.283.975-.258.57-.366.784-.416.637-.683.938c-.268.302-.698.691-.956.866a7.4 7.4 0 0 1-.88.506c-.228.103-.784.298-1.237.432-.453.135-1.058.278-1.346.32-.287.041-1.628.093-2.98.114s-3.325.078-4.383.126a229 229 0 0 0-2.816.144c-.49.03-1.074.117-1.297.192-.222.074-.73.184-1.129.243-.674.1-.78.143-1.5.602-.426.272-1.123.795-1.549 1.162s-.917.852-1.091 1.078c-.175.225-.476.641-.67.924-.193.283-.668 1.138-1.055 1.9-.387.763-.82 1.707-.961 2.098a26 26 0 0 0-.499 1.583l-.478 1.741c-.131.479-.267 1.138-.302 1.464-.036.327-.108.79-.16 1.03-.054.239-.121 1.272-.15 2.295-.048 1.652-.073 1.901-.221 2.23-.092.202-.258.428-.37.501a.55.55 0 0 1-.445.08c-.133-.03-.372-.176-.53-.325-.289-.271-.289-.271-.233-1.596.03-.73.086-1.543.123-1.81.04-.28.033-1.788-.015-3.562a483 483 0 0 1-.093-3.79c-.008-.708-.01-.712-.218-.736-.175-.02-.283.067-.673.548-.255.315-.644.771-.862 1.014-.22.242-.596.726-.839 1.074-.242.348-.602.918-.8 1.266-.197.349-.504.936-.683 1.306-.178.37-.437.994-.575 1.386s-.319.997-.4 1.345c-.082.349-.218.9-.302 1.227a13 13 0 0 0-.25 1.504c-.052.5-.097 1.546-.098 2.322s.042 1.827.096 2.335.17 1.262.258 1.676.251 1.054.364 1.424c.13.425.207.873.21 1.214.005.477-.017.56-.182.693a.84.84 0 0 1-.483.151c-.201 0-.399-.073-.611-.227-.222-.16-.398-.4-.603-.818a42 42 0 0 1-.614-1.337 20 20 0 0 1-.524-1.338c-.11-.326-.304-.879-.433-1.227-.128-.348-.369-1.203-.535-1.9-.302-1.266-.302-1.266-.25-3.087.03-1 .099-2.034.155-2.295s.128-.67.16-.91c.033-.24.137-.726.232-1.081.117-.44.164-.819.148-1.188-.021-.483-.042-.544-.192-.565-.1-.015-.373.119-.675.33a15 15 0 0 0-.95.737c-.245.21-.719.63-1.053.936-.334.304-.74.653-.903.774-.163.12-.34.282-.394.36-.082.116-.064.189.108.44.172.253.197.357.154.63-.029.181-.23.686-.448 1.124-.38.765-.4.839-.518 1.917a26 26 0 0 0-.136 1.935c-.008.448.032 1.224.089 1.724.056.501.137 1.089.179 1.306s.11.681.154 1.03c.043.348.167.918.276 1.266s.325 1.165.48 1.815.424 1.558.6 2.018c.177.46.395 1.015.484 1.233.09.218.213.556.274.752s.16.499.22.673.203.548.317.83c.115.284.301.688.414.9.164.306.199.46.17.762-.023.232-.149.581-.328.906-.16.29-.511.856-.78 1.256-.304.453-.825 1.057-1.378 1.599a37 37 0 0 1-1.305 1.227c-.23.196-.584.484-.788.64s-.62.431-.922.61c-.302.178-.917.507-1.367.73-.45.224-1.038.469-1.309.545s-.705.215-.967.309c-.262.093-.94.275-1.507.403-.567.129-1.36.279-1.76.333-.455.062-1.633.1-3.128.099-1.508-.001-2.665-.04-3.118-.103a25.104 25.104 0 0 1-3.354-.714 16 16 0 0 1-1.692-.641c-.5-.225-1.283-.607-1.741-.85-.458-.241-1.101-.61-1.428-.817a27 27 0 0 1-.906-.6l-.806-.577a24 24 0 0 1-1.315-1.07 55 55 0 0 0-1.693-1.401c-.48-.379-1.194-.94-1.586-1.247s-1-.7-1.349-.872a6.5 6.5 0 0 0-1.153-.432c-.286-.066-1.128-.154-1.871-.196-.842-.048-1.544-.05-1.86-.004-.28.04-.723.074-.984.075-.261 0-.868.058-1.349.126-.48.069-1.248.191-1.706.273-.458.08-1.226.24-1.706.352-.48.113-1.14.272-1.467.354a17 17 0 0 0-1.27.388c-.37.131-1.013.361-1.427.512-.415.15-1.2.495-1.745.767s-1.29.695-1.655.94c-.364.245-.803.611-.973.814-.17.204-.347.476-.393.605-.062.178-.054.301.032.502.062.146.254.415.426.599.21.223.544.44 1.02.66.391.18.94.413 1.22.52.28.105.762.26 1.07.342.31.082.812.222 1.117.311s.912.235 1.349.325 1.132.214 1.546.277c.415.062 1.29.202 1.944.31.654.109 1.868.275 2.697.37.828.096 1.957.198 2.508.227.746.04 1.054.087 1.21.19.183.119.208.188.208.57s-.031.467-.258.705c-.142.148-.954.699-1.804 1.224a147 147 0 0 0-2.369 1.49c-.452.295-1.041.667-1.309.828s-.643.41-.834.554-.601.406-.911.582c-.405.23-.587.383-.644.546-.071.2-.055.244.143.392.122.092.55.355.951.584.4.23 1.005.524 1.342.653.382.148.947.28 1.507.354.492.065 1.402.118 2.023.119.78 0 1.565-.06 2.538-.198.775-.109 1.713-.27 2.084-.357.37-.087.924-.227 1.23-.31.305-.084.983-.281 1.506-.44a39 39 0 0 0 1.825-.61c.48-.177 1.136-.442 1.459-.588.322-.147.697-.267.832-.267.136 0 .361.07.501.155s.311.265.381.4c.118.228.116.288-.035.868a12 12 0 0 0-.242 1.361c-.045.406-.12 1.433-.167 2.282s-.065 1.823-.041 2.165a7 7 0 0 0 .178 1.108c.073.268.201.623.284.79a.84.84 0 0 0 .438.422c.26.108.356.107.982-.015.382-.074.974-.249 1.314-.389s1.048-.467 1.572-.726c.523-.26 1.498-.809 2.166-1.22.667-.413 1.44-.892 1.717-1.067s.778-.49 1.113-.704.695-.405.8-.425a1.1 1.1 0 0 1 .391.014.9.9 0 0 1 .359.207c.108.108.156.264.156.501q0 .345-.178.597c-.098.139-.464.504-.812.81-.349.308-.825.77-1.058 1.027s-.465.574-.514.704c-.075.199-.067.26.05.376.112.111.276.138.83.137.687-.003.698-.006 1.841-.543.633-.297 1.507-.773 1.943-1.058s.9-.614 1.032-.731c.13-.118.38-.298.555-.4.174-.102.514-.347.753-.544.24-.197.636-.537.88-.756.244-.22.695-.62 1.002-.89.306-.27.718-.568.914-.663.271-.132.427-.16.653-.118.164.03.382.14.487.245a.62.62 0 0 1 .188.45c0 .143-.088.403-.194.577s-.262.441-.346.594a3 3 0 0 0-.242.696 5.6 5.6 0 0 0-.09.95c0 .293.036.653.078.802s.175.371.293.494c.138.144.296.224.443.224.126 0 .342-.084.48-.187.14-.103.503-.325.809-.493.305-.168.79-.484 1.079-.703a45 45 0 0 0 1.102-.873c.318-.261.798-.653 1.067-.87.269-.218.714-.61.989-.871l1.304-1.238c.442-.419 1.08-1.016 1.418-1.325.592-.544.628-.564 1.015-.564.32 0 .44.04.596.194.147.147.194.278.192.535-.001.248-.074.453-.27.761-.15.235-.41.865-.585 1.425a28 28 0 0 0-.44 1.537c-.07.294-.105.589-.079.655s.11.155.187.197q.14.075.586-.041c.245-.064.654-.221.909-.35.271-.136.626-.411.859-.666.301-.328.43-.55.533-.918.116-.41.123-.573.05-1.056a16 16 0 0 0-.19-1.018 3.4 3.4 0 0 0-.308-.793 7 7 0 0 0-.651-.847c-.33-.369-.597-.807-1.013-1.66-.468-.963-.57-1.244-.6-1.65-.031-.444-.015-.508.17-.693.163-.164.28-.203.599-.203.3 0 .44.043.585.178.105.098.332.374.505.614s.477.702.676 1.029.565.976.812 1.443c.328.617.553.937.824 1.168.205.175.587.478.85.673.261.195.671.457.911.582s.74.33 1.11.456c.622.211.763.23 1.832.23.994 0 1.24-.027 1.745-.187a8 8 0 0 0 1.157-.488c.313-.166.848-.488 1.19-.716s1.102-.88 1.69-1.451a57 57 0 0 0 1.864-1.903 23 23 0 0 0 1.123-1.306c.18-.242.53-.637.778-.876.247-.24.688-.738.98-1.108s.679-.833.859-1.03c.18-.195.483-.574.674-.841.19-.268.633-.838.983-1.267.35-.43.849-1.075 1.11-1.436.261-.36.626-.842.812-1.069.185-.227.567-.75.848-1.164s.65-.93.817-1.148c.285-.372.328-.397.7-.42.31-.018.457.018.67.161.151.102.306.275.345.385.056.159.013.323-.206.79-.152.323-.421.908-.598 1.3a10.6 10.6 0 0 0-.533 1.614 16 16 0 0 0-.29 1.662 35 35 0 0 1-.183 1.437 6.3 6.3 0 0 1-.426 1.424 30 30 0 0 1-.89 1.818c-.314.588-.722 1.3-.906 1.583s-.544.835-.797 1.227c-.254.392-.56.855-.682 1.03-.12.173-.424.619-.673.989s-.628.86-.842 1.089c-.296.316-.384.466-.365.623.02.165.178.304.779.684a41 41 0 0 0 1.308.792c.306.174.806.477 1.111.674a70 70 0 0 0 2.935 1.777c.523.304 1.273.752 1.666.995.392.244 1.04.611 1.438.816a32 32 0 0 1 1.507.84c.43.258 1.211.694 1.734.969.524.274 1.238.668 1.587.874s1.49.816 2.535 1.354 2.24 1.17 2.657 1.403 1.025.586 1.352.785c.327.198.809.475 1.07.615.262.14.816.47 1.23.733s.95.64 1.19.838.708.566 1.04.817a43 43 0 0 1 1.587 1.305 25 25 0 0 1 1.855 1.81c.48.53 1.077 1.235 1.327 1.568s.72.996 1.042 1.475c.324.479.757 1.173.964 1.543s.53.958.718 1.306c.189.349.51 1.008.713 1.465s.512 1.17.686 1.583.456 1.07.628 1.46.4.996.505 1.346c.106.35.388 1.199.627 1.885.238.687.595 1.738.792 2.336s.483 1.514.635 2.036.455 1.52.675 2.216c.219.697.513 1.552.654 1.9s.325.879.408 1.178c.083.3.248.781.367 1.069.12.288.573 1.254 1.01 2.146a23.5 23.5 0 0 0 1.673 2.937c.792 1.18.99 1.417 1.964 2.335.595.561 1.368 1.205 1.716 1.43l1.27.818c.35.226 1.034.597 1.522.825a46 46 0 0 0 1.952.842c.586.235 1.8.799 2.697 1.252l2.94 1.485c.719.363 1.504.733 1.744.822s.732.287 1.093.44a15 15 0 0 0 1.433.5c.426.123 1.237.41 1.802.637.564.227 1.348.558 1.74.735.393.177.964.465 1.27.64.305.175.912.584 1.348.908a16 16 0 0 1 1.547 1.354c.414.42.967 1.09 1.229 1.487.262.398.635 1 .83 1.34s.562 1.137.816 1.77c.291.724.565 1.59.739 2.337.152.653.364 1.659.471 2.235.108.576.255 1.59.327 2.256.073.664.154 1.992.18 2.95s.021 2.472-.012 3.364c-.032.892-.112 2.032-.177 2.533s-.204 1.391-.308 1.979-.3 1.425-.434 1.86a19 19 0 0 0-.362 1.347c-.064.305-.245.914-.4 1.353-.157.439-.423 1.15-.591 1.582-.169.431-.432 1.069-.585 1.417l-.69 1.572a17 17 0 0 1-.751 1.504c-.186.311-.503.878-.703 1.26-.201.382-.572 1.005-.824 1.385-.253.38-.567.889-.698 1.13-.131.242-.487.812-.79 1.267s-.736 1.022-.962 1.262-.53.631-.675.87c-.145.24-.364.575-.486.746-.123.17-.392.493-.599.716-.206.224-.697.792-1.09 1.262l-1.085 1.302c-.204.246-1.31 1.393-2.459 2.548-1.148 1.156-2.17 2.164-2.27 2.24-.117.087-.175.203-.16.313.026.174.028.174 1.612.149.872-.014 2.14.007 2.816.046.99.058 1.307.106 1.626.247.218.097.517.29.664.429.148.14.336.403.419.586.083.184.173.614.2.96.027.362.007.892-.049 1.25a24 24 0 0 0-.14 1.073c-.024.248-.021.51.007.583.037.097.119.123.308.098m-80.986-38.17c.228-.029.647-.086.93-.125s.802-.13 1.15-.2c.35-.071.917-.2 1.262-.285a5.7 5.7 0 0 0 1.031-.37c.223-.117.654-.378.96-.58s1.044-.807 1.64-1.345a51 51 0 0 0 2.13-2.06c.573-.596 1.334-1.384 1.69-1.753.468-.484.73-.693.945-.752a1.1 1.1 0 0 1 .576-.005c.153.042.327.155.387.251s.154.37.209.61c.055.239.224.684.375.989.152.305.417.795.59 1.09.171.296.528.768.792 1.05.264.281.542.512.617.512.076 0 .192-.063.258-.139s.318-.512.561-.97c.242-.457.644-1.312.892-1.9.249-.587.686-1.567.972-2.176s.606-1.34.71-1.623c.106-.283.246-.63.313-.77s.232-.364.367-.495c.188-.184.316-.239.557-.239.268 0 .356.048.613.337.165.185.594.746.954 1.246.36.501.783 1.096.939 1.322.156.227.334.432.394.457.061.025.17.027.242.004s.227-.228.344-.457c.118-.228.358-.647.536-.93.177-.283.515-.892.752-1.354s.586-1.05.777-1.306c.19-.257.483-.698.65-.98.168-.284.436-.676.595-.872.16-.195.528-.7.82-1.121s.82-1.134 1.173-1.583.95-1.174 1.327-1.608a49 49 0 0 1 1.796-1.91c.61-.615 1.46-1.434 1.888-1.821s.968-.846 1.2-1.02c.233-.174.794-.617 1.246-.984a21 21 0 0 1 1.456-1.076c.35-.225.974-.606 1.388-.846.415-.24 1.129-.65 1.587-.91s1.154-.637 1.547-.837c.392-.2.999-.49 1.348-.644s.992-.408 1.428-.565 1.06-.366 1.388-.464.907-.257 1.289-.351a182 182 0 0 0 1.432-.363 19 19 0 0 1 1.606-.317l1.463-.215a27 27 0 0 1 1.214-.145c.341-.031.659-.096.707-.144s.084-.186.08-.308-.098-.42-.21-.663c-.112-.242-.329-.99-.482-1.662a35 35 0 0 0-.4-1.614c-.066-.216-.157-.75-.201-1.187a13 13 0 0 0-.196-1.294 5 5 0 0 1-.115-.86c0-.2-.074-.687-.165-1.084-.09-.398-.23-.936-.31-1.197a5.6 5.6 0 0 1-.186-.871 7 7 0 0 0-.166-.87 48 48 0 0 1-.29-1.188c-.09-.392-.235-.962-.322-1.267s-.227-.75-.31-.99a10 10 0 0 1-.277-1.057 6 6 0 0 0-.317-1.053 10 10 0 0 1-.342-.921c-.084-.27-.339-.918-.567-1.44a49 49 0 0 1-.6-1.425 12 12 0 0 0-.565-1.16l-.7-1.255a20 20 0 0 0-.911-1.412 15 15 0 0 0-1.142-1.419c-.301-.316-.8-.73-1.11-.919-.31-.188-.868-.502-1.239-.697-.37-.195-1.163-.52-1.76-.724-.936-.318-1.173-.369-1.706-.366-.34.001-.898.052-1.24.113-.34.06-.787.193-.99.294-.306.15-.376.226-.395.423-.02.2.081.365.605.99.345.412.958 1.123 1.36 1.58s.926 1.063 1.161 1.346c.236.283.643.764.905 1.069.263.304.584.711.714.904.156.231.236.449.236.642a.87.87 0 0 1-.16.495c-.087.111-.34.313-.56.448-.284.175-.394.29-.376.394.014.08.519.6 1.122 1.155s1.263 1.224 1.467 1.488c.204.263.692.825 1.085 1.248a84 84 0 0 1 1.362 1.509c.357.407.848.972 1.09 1.255s.587.698.764.922c.178.226.341.533.367.689.025.154.022.372-.006.484a.9.9 0 0 1-.208.36c-.108.108-.264.157-.503.157-.294 0-.493-.092-1.33-.615a32 32 0 0 1-1.894-1.302 41 41 0 0 1-1.506-1.193c-.327-.279-.863-.77-1.19-1.093a42 42 0 0 1-1.414-1.498c-.703-.782-.984-1.188-1.983-2.867-.64-1.075-1.43-2.428-1.756-3.006-.325-.578-.94-1.71-1.364-2.516-.581-1.102-.82-1.482-.965-1.535a.55.55 0 0 0-.321-.023c-.07.027-.364.415-.654.863-.289.448-.65 1.01-.802 1.25-.152.239-.544.915-.872 1.5a49 49 0 0 0-1.058 2.02 65 65 0 0 0-.992 2.179c-.291.674-.655 1.53-.808 1.9s-.322.832-.375 1.028a7 7 0 0 1-.337.871c-.132.283-.386.87-.564 1.306-.178.435-.523 1.308-.766 1.94-.244.63-.551 1.414-.684 1.74a18 18 0 0 0-.401 1.106c-.089.28-.25.708-.358.95-.108.24-.303.723-.433 1.071-.13.349-.357.883-.507 1.188s-.453.981-.676 1.504a330 330 0 0 0-.8 1.9 25 25 0 0 1-.796 1.701c-.22.414-.534.966-.699 1.227s-.45.769-.635 1.128c-.184.36-.465.828-.624 1.041-.158.214-.67.846-1.136 1.405-.467.56-1.146 1.32-1.509 1.69s-.914.886-1.225 1.148c-.31.26-.773.639-1.03.84-.255.2-.714.517-1.02.704-.305.186-.84.51-1.19.72-.349.209-1.259.617-2.022.906-.764.288-1.781.626-2.261.75-.48.123-1.247.279-1.705.345-.458.067-1.137.162-1.507.212-.371.05-1.353.102-2.182.115a46 46 0 0 1-2.776-.047 31 31 0 0 1-1.824-.15l-1.19-.16a12 12 0 0 1-1.23-.237l-1.427-.366a13 13 0 0 1-1.706-.606c-.48-.217-1.23-.572-1.666-.79s-.989-.53-1.229-.692a9 9 0 0 0-.84-.5 6 6 0 0 1-.753-.469c-.193-.146-.743-.5-1.223-.786s-1.372-.77-1.983-1.074l-2.42-1.2a92 92 0 0 1-1.744-.881 32 32 0 0 0-1.152-.571c-.393-.186-1-.49-1.348-.677a31 31 0 0 0-1.625-.78c-.545-.242-1.26-.509-1.586-.592-.429-.109-.645-.13-.771-.073a.44.44 0 0 0-.222.258c-.024.1.007.34.07.537.062.196.21.588.33.87.118.284.3.712.401.953s.27.686.375.99.414 1.067.688 1.699c.274.63.58 1.397.68 1.702s.257.836.347 1.182.164.862.164 1.148c0 .366-.044.59-.148.76-.08.132-.258.334-.394.448a4 4 0 0 1-.705.422c-.252.117-.655.284-.895.37s-.864.208-1.388.27-1.255.131-1.626.153c-.37.022-1.156.08-1.745.129-.589.048-1.151.118-1.25.154-.137.05-.178.127-.178.338 0 .186.083.382.261.615.143.189.429.62.634.958.235.388.69.936 1.227 1.479.602.609 1.121 1.04 1.765 1.466.502.332 1.424.852 2.05 1.155s1.607.709 2.181.9c.574.193 1.454.424 1.956.516.502.091 1.144.221 1.428.289.394.094 1.16.132 3.252.161 1.538.021 2.827.073 2.944.118a.7.7 0 0 1 .31.27c.056.104.099.295.095.423-.004.129-.194.798-.423 1.487a68 68 0 0 0-.634 2.005 35.006 35.006 0 0 1-1.032 3.028c-.215.53-.236.643-.155.836.057.14.222.287.435.39.188.091.532.222.764.29.238.071.712.126 1.087.126.38 0 .978-.07 1.393-.162.401-.089 1.032-.263 1.403-.386a25 25 0 0 0 1.507-.575 29 29 0 0 0 1.745-.828 40 40 0 0 0 1.569-.865 29 29 0 0 0 1.697-1.142c.572-.414 1.24-.89 1.485-1.06.245-.169.601-.377.793-.463.234-.105.439-.142.624-.112a1 1 0 0 1 .426.18c.114.103.148.244.147.616 0 .266-.038.803-.082 1.195l-.201 1.82a72 72 0 0 0-.164 1.663c-.025.327-.006.647.046.782.086.221.1.226.503.174m39.15-52.05c.124 0 .29-.07.368-.155a.42.42 0 0 0 .103-.352c-.02-.109-.202-.35-.401-.538-.2-.187-.561-.607-.802-.933a69 69 0 0 0-.61-.816c-.11-.144-.23-.213-.34-.198-.092.014-.178.08-.19.146-.013.067.165.415.395.772s.544.868.697 1.136.34.588.415.712c.1.165.2.227.365.227M248.129 304c.087-.022.462-.218.832-.435.371-.217.999-.654 1.395-.971s.933-.773 1.193-1.013.779-.841 1.154-1.335c.374-.493.833-1.2 1.02-1.57.186-.37.441-.92.567-1.224s.281-.851.345-1.218c.064-.366.117-1.062.117-1.548 0-.485-.038-1.184-.084-1.553a15 15 0 0 0-.28-1.462 17 17 0 0 0-.44-1.464c-.135-.37-.373-.958-.529-1.306a29 29 0 0 1-.495-1.188c-.117-.304-.539-1.195-.937-1.979-.399-.783-.841-1.62-.983-1.858l-.514-.871c-.142-.24-.38-.67-.529-.955a7 7 0 0 0-.587-.916 11 11 0 0 1-.699-1.065 17 17 0 0 0-.95-1.419c-.312-.413-.666-.948-.785-1.187a5 5 0 0 0-.478-.754 6.4 6.4 0 0 1-.533-.832c-.15-.281-.419-.761-.595-1.066-.177-.305-.5-.91-.718-1.346-.218-.435-.596-1.2-.839-1.701s-.565-1.231-.715-1.623l-.547-1.425c-.15-.392-.4-1.086-.555-1.543a19 19 0 0 1-.487-1.82 94 94 0 0 0-.325-1.505c-.067-.294-.139-1.142-.167-1.979-.035-1.087-.014-1.8.084-2.77.072-.718.18-1.698.239-2.177a55.84 55.84 0 0 1 .479-3.206c.067-.37.175-.98.238-1.354.064-.375.224-1.105.356-1.623.133-.517.335-1.261.45-1.653s.212-.802.217-.91c.006-.146-.037-.205-.162-.223-.094-.013-.356.09-.583.23-.226.139-.632.3-.9.357a5.4 5.4 0 0 1-.908.108c-.23.001-.64-.072-.91-.163a6.5 6.5 0 0 1-1.008-.469c-.285-.167-.786-.574-1.113-.903s-.702-.754-.833-.944c-.13-.19-.403-.59-.604-.89-.202-.301-.582-1.012-.845-1.58a22 22 0 0 1-.727-1.773 9 9 0 0 1-.33-1.3c-.046-.31-.107-.685-.137-.833s-.116-.308-.193-.356c-.1-.062-.177-.062-.275 0-.075.047-.23.35-.343.672s-.609 1.423-1.1 2.447c-.493 1.023-.979 1.984-1.08 2.137-.101.152-.582 1.043-1.069 1.979a77 77 0 0 0-1.238 2.472c-.194.424-.491 1.083-.66 1.464-.17.382-.57 1.317-.887 2.08a55 55 0 0 0-.885 2.255 50 50 0 0 0-.57 1.742 68 68 0 0 0-.507 1.78c-.134.501-.28 1.196-.327 1.544-.045.348-.115.976-.154 1.394a12 12 0 0 0-.004 1.702c.037.518.107 1.315.154 1.772s.136 1.152.198 1.544.151 1.086.199 1.543c.047.457.12 1.597.164 2.533.065 1.415.058 1.84-.042 2.516a10 10 0 0 1-.282 1.306c-.089.27-.255.706-.369.967s-.374.742-.579 1.069-.523.854-.708 1.172a10 10 0 0 1-.697 1.02 22 22 0 0 0-.688.897c-.18.25-.54.736-.799 1.078-.26.342-.702.87-.984 1.176-.282.304-.73.817-.996 1.138s-.483.66-.483.752c0 .164.032.168 1.388.183.763.009 1.549.055 1.745.104s.75.28 1.23.513c.64.312 1.032.568 1.474.965.331.297.822.718 1.09.936l1.44 1.168c.523.425 1.3 1.047 1.726 1.383.425.335.988.789 1.25 1.007.262.219.547.473.634.565.088.093.385.315.66.494.276.179.772.549 1.104.822.33.273.888.746 1.237 1.051s.802.679 1.005.831l.843.635c.26.197.663.517.896.712.233.196.677.572.988.838s.818.675 1.126.91c.31.235 1.09.855 1.734 1.378.645.522 1.393 1.11 1.663 1.306s.777.605 1.129.91c.351.305.914.786 1.25 1.069.337.283.804.657 1.04.83.235.175.823.638 1.306 1.03.483.391.957.735 1.055.763a.8.8 0 0 0 .336.01m15-7.603c.063-.036.275-.294.47-.575.196-.28.57-.83.831-1.222.262-.392.704-1.104.983-1.583.279-.48.816-1.459 1.193-2.177s.88-1.698 1.118-2.177c.237-.479.554-1.191.705-1.583s.403-1.068.56-1.504.39-1.076.518-1.425c.128-.348.322-.98.431-1.405.11-.425.293-1.12.408-1.544.116-.424.257-1.02.315-1.325s.178-1.035.268-1.623c.09-.587.2-1.424.242-1.86.043-.435.113-1.38.157-2.097a101 101 0 0 0 .118-2.81 51 51 0 0 0-.04-3.127 89 89 0 0 0-.2-2.968 91 91 0 0 0-.193-1.94c-.039-.326-.127-1.003-.196-1.504a33 33 0 0 0-.324-1.86 41 41 0 0 1-.317-1.702 9 9 0 0 0-.279-1.226 10 10 0 0 1-.28-1.144c-.065-.368-.298-1.223-.519-1.9a72 72 0 0 0-.721-2.101 41 41 0 0 0-.755-1.86 30 30 0 0 0-.771-1.623c-.186-.349-.523-.972-.749-1.385a18 18 0 0 0-.982-1.55 26 26 0 0 0-1.416-1.741 33 33 0 0 0-1.587-1.646 172 172 0 0 0-1.575-1.466 38 38 0 0 0-1.593-1.372 31 31 0 0 0-1.784-1.295c-.564-.376-1.328-.835-1.7-1.018a39 39 0 0 0-1.625-.739 19 19 0 0 0-1.777-.642 20 20 0 0 0-1.983-.42c-1.022-.161-1.423-.182-3.401-.175-1.764.006-2.39.037-2.93.143-.377.074-.857.208-1.067.298s-.506.3-.657.468a3.6 3.6 0 0 0-.448.642c-.123.24-.184.535-.212 1.015-.03.515-.001.82.118 1.278.086.331.341 1.069.567 1.64.225.57.532 1.355.682 1.742.15.388.369 1.038.486 1.445s.244.919.283 1.137c.04.217.105.476.146.573.043.1.145.179.234.179.088 0 .212-.081.276-.18s.19-.41.278-.692c.089-.283.334-.799.547-1.147.212-.348.564-.89.782-1.203s.756-.956 1.195-1.428a11.3 11.3 0 0 1 1.619-1.444 62 62 0 0 1 1.415-.983c.327-.217.826-.531 1.11-.698a6.7 6.7 0 0 1 1.134-.499 4 4 0 0 1 1.134-.196c.36 0 .61.048.83.16.173.089.419.304.546.48.127.175.27.496.316.714.047.217.085.527.085.688s-.052.578-.115.926c-.064.349-.175.972-.248 1.386a23 23 0 0 1-.366 1.622c-.13.48-.326 1.174-.436 1.544s-.3.904-.42 1.187c-.122.283-.444.906-.716 1.385a37 37 0 0 1-.934 1.544c-.241.37-.514.85-.607 1.068s-.355.762-.583 1.208a18 18 0 0 0-.661 1.465 20 20 0 0 0-.397 1.166c-.083.283-.17.71-.195.95s-.095.667-.156.95a17 17 0 0 0-.205 1.44 13 13 0 0 0-.041 1.765c.028.462.122 1.275.21 1.806.087.53.23 1.232.317 1.559s.214.95.281 1.385.234 1.112.37 1.504.291.908.346 1.148.246.835.426 1.325l.556 1.504c.126.338.354.881.509 1.208.154.326.421.932.594 1.345.173.414.447 1.02.61 1.346s.501 1.003.753 1.504c.252.5.711 1.409 1.02 2.018.309.61.753 1.447.987 1.86.235.414.706 1.269 1.049 1.9s.823 1.54 1.067 2.019l.788 1.543c.189.37.537 1.118.774 1.662.237.545.587 1.4.778 1.9.19.5.453 1.231.584 1.623s.309.926.397 1.187c.087.261.237.76.333 1.108.095.349.22.839.278 1.09.058.25.214.98.346 1.622s.262 1.408.288 1.702c.027.313.096.584.166.653.073.074.162.094.234.055m-70.596-4.449c-.224 0-.434-.062-.61-.18-.148-.1-.303-.277-.344-.395-.056-.16-.043-.282.05-.473.07-.142.402-.525.737-.852s.812-.843 1.06-1.147.645-.822.882-1.148c.236-.327.536-.79.666-1.03.13-.239.331-.577.449-.751s.34-.566.493-.87c.153-.306.41-.875.57-1.267.162-.392.422-.962.579-1.267s.381-.821.5-1.147c.117-.327.361-.925.541-1.33.18-.404.422-1.028.537-1.385s.313-.881.442-1.164c.128-.283.336-.782.464-1.108.127-.327.385-.861.574-1.188s.547-.896.797-1.266.569-.819.71-.997c.14-.178.472-.594.737-.924s1.01-1.163 1.654-1.852 1.427-1.48 1.738-1.756a25 25 0 0 0 1.028-.97c.253-.257.601-.54.773-.627.192-.097.386-.141.502-.112.104.026.305.167.447.314.229.235.254.303.216.586-.034.254-.15.437-.57.895-.291.317-.64.806-.78 1.09-.138.282-.365.71-.504.95-.14.239-.45.898-.69 1.464s-.613 1.51-.83 2.097a93 93 0 0 0-.84 2.417 38 38 0 0 0-.642 2.137 18 18 0 0 1-.506 1.62c-.17.457-.478 1.223-.684 1.702-.206.48-.507 1.12-.668 1.425s-.488.857-.724 1.227c-.237.37-.697 1.029-1.022 1.464s-1.04 1.25-1.588 1.81-1.211 1.166-1.474 1.346-.745.528-1.071.774-.896.617-1.267.824-.97.53-1.332.72c-.48.251-.75.344-1 .344m10.105-1.537a.72.72 0 0 1-.518-.11c-.132-.082-.308-.3-.39-.482-.11-.241-.13-.381-.077-.508.04-.096.359-.46.708-.807s.833-.864 1.076-1.147.623-.782.844-1.108.596-.896.834-1.267c.239-.37.686-1.153.994-1.74.308-.589.738-1.515.956-2.059s.601-1.488.852-2.098c.25-.609.543-1.375.65-1.701s.427-1.146.71-1.82c.285-.676.8-1.727 1.146-2.336.393-.693.837-1.345 1.185-1.741.306-.349.666-.793.8-.988s.546-.676.916-1.068c.37-.393 1.222-1.267 1.895-1.942.672-.674 1.456-1.453 1.742-1.73.285-.277.618-.54.739-.586a.87.87 0 0 1 .438-.028c.12.03.305.141.41.246.146.145.192.277.192.544 0 .298-.056.425-.36.815-.199.254-.524.71-.724 1.013s-.64 1.093-.98 1.757c-.338.664-.705 1.45-.814 1.745-.11.296-.26.752-.334 1.013s-.272.778-.439 1.148a12 12 0 0 0-.502 1.385c-.109.392-.344 1.193-.523 1.781a80 80 0 0 1-.523 1.662c-.11.327-.266.82-.347 1.095s-.374.966-.652 1.535c-.277.569-.641 1.216-.809 1.438-.167.223-.44.672-.607.998a9.5 9.5 0 0 1-.728 1.156 21 21 0 0 1-1.206 1.385c-.43.453-1.11 1.126-1.511 1.496-.402.37-1.141.946-1.643 1.279s-1.41.86-2.017 1.17c-.608.31-1.23.583-1.383.605m-5.492-3.404c.076-.027.334-.271.574-.542.24-.27.652-.724.915-1.007.262-.283.756-.972 1.097-1.531s.781-1.36.979-1.781.486-1.014.64-1.32c.154-.304.4-.91.549-1.345.148-.435.322-1.04.386-1.345s.2-.768.303-1.03c.103-.26.301-.884.442-1.385.14-.5.344-1.106.453-1.345.11-.24.219-.555.243-.7.041-.242.03-.262-.142-.237-.116.016-.347.223-.607.541-.23.283-.54.693-.686.91s-.455.73-.686 1.14-.523 1.015-.648 1.346c-.125.33-.312.85-.415 1.155-.104.305-.32.893-.481 1.306a17 17 0 0 1-.537 1.227 5 5 0 0 0-.34.871 6 6 0 0 1-.34.91c-.131.283-.355.8-.496 1.148s-.362.847-.49 1.108a18 18 0 0 1-.825 1.474c-.074.117-.108.268-.079.345q.053.136.19.087m9.948-1.418c.093-.024.327-.197.519-.385.192-.187.486-.554.653-.815s.454-.618.637-.792c.182-.174.477-.566.654-.87s.477-.786.665-1.069.542-.97.786-1.528.639-1.531.876-2.163c.238-.632.501-1.458.585-1.836.085-.378.25-.954.367-1.28a17 17 0 0 0 .35-1.108c.076-.283.27-.755.433-1.047.162-.293.283-.596.268-.673s-.108-.152-.208-.166q-.18-.027-.375.197c-.106.124-.364.456-.574.739s-.601.888-.87 1.345c-.275.468-.733 1.447-1.046 2.237l-1.005 2.533c-.246.62-.58 1.484-.74 1.919a36 36 0 0 1-.914 2.119c-.341.73-.732 1.495-.867 1.701l-.359.543c-.061.093-.088.23-.059.306.037.094.107.124.224.093m-50.445-17.547c.075 0 .174-.068.22-.153.063-.12.036-.27-.118-.653-.11-.274-.348-.98-.529-1.567-.329-1.069-.329-1.069-.364-2.929-.029-1.514-.01-2 .099-2.612.074-.414.225-1.055.336-1.425s.33-.975.484-1.346c.155-.37.448-.943.652-1.274s.517-.799.695-1.04c.178-.24.53-.66.782-.931.252-.272.61-.567.794-.657.186-.09.355-.209.376-.265s-.008-.148-.067-.204a6 6 0 0 0-.274-.239c-.122-.1-.168-.228-.168-.465 0-.236.109-.54.39-1.089.215-.419.595-1.153.844-1.632.25-.48.63-1.334.846-1.9.314-.823.385-1.097.356-1.367a1.65 1.65 0 0 0-.245-.638c-.115-.165-.978-1.081-1.919-2.036-.94-.956-1.992-2.067-2.336-2.47a9.7 9.7 0 0 1-1.082-1.583c-.252-.468-.55-1.118-.664-1.444a32 32 0 0 1-.453-1.464c-.148-.524-.302-1.36-.387-2.098-.1-.877-.142-1.86-.145-3.443-.002-1.532.03-2.4.103-2.81.06-.327.138-.897.176-1.267.046-.454.195-1.045.458-1.82.213-.632.551-1.576.75-2.098s.506-1.342.683-1.82c.177-.48.462-1.28.634-1.782.172-.5.457-1.337.634-1.86a42 42 0 0 0 .534-1.701c.117-.414.263-.966.325-1.227l.301-1.267c.104-.435.248-1.11.32-1.5.071-.39.148-1.032.17-1.425.022-.394.004-1.11-.039-1.59-.065-.727-.134-1.018-.412-1.727-.252-.644-.448-.994-.798-1.428a8.6 8.6 0 0 0-.902-.949 6 6 0 0 0-.777-.562 8 8 0 0 0-.884-.391c-.3-.112-.642-.203-.761-.203a.54.54 0 0 0-.352.15c-.08.088-.219.563-.34 1.167-.199.993-.203 1.071-.157 3.274.026 1.24.09 2.596.142 3.011s.07.853.04.972c-.03.122-.166.284-.31.372-.14.086-.365.156-.499.156-.164 0-.307-.07-.44-.217-.11-.12-.517-.86-.906-1.643-.706-1.425-.706-1.425-1.631-2.335-.641-.631-1.125-1.029-1.58-1.298-.36-.213-.962-.51-1.338-.66s-.865-.34-1.086-.42-.48-.127-.572-.103c-.106.028-.214.165-.292.372-.088.236-.143.85-.194 2.188-.04 1.026-.042 2.375-.006 3.008.036.631.123 1.466.194 1.856.07.389.218 1.03.328 1.424.11.395.32.969.466 1.276s.367.966.491 1.464c.213.858.224 1 .223 2.648-.001 1.739-.002 1.742-.288 2.859-.157.614-.385 1.337-.506 1.606-.12.269-.328.58-.461.691-.194.164-.3.195-.54.163-.164-.022-1.04-.396-1.947-.832a789 789 0 0 0-3.018-1.44c-1.002-.476-1.42-.637-1.56-.602-.132.033-.223.14-.29.345a2.7 2.7 0 0 0-.087.742c.006.245.065.94.13 1.544.071.66.211 1.413.351 1.89.128.435.375 1.2.549 1.701.173.5.41 1.142.525 1.425s.345.817.51 1.187.655 1.368 1.086 2.217c.53 1.04.795 1.652.815 1.875.024.272-.007.369-.168.53a1 1 0 0 1-.463.237c-.147.022-1.16.08-2.25.128-1.09.049-2.067.123-2.17.165-.144.06-.179.122-.15.273.02.108.166.383.324.611.157.229.51.654.784.946s.801.765 1.172 1.05.866.67 1.1.854.734.502 1.11.707c.377.206 1.14.606 1.694.891.768.393 1.039.574 1.13.752.068.128.122.344.122.479 0 .161-.07.31-.203.433-.112.103-.46.28-.773.391-.314.112-.91.296-1.324.409s-1.11.313-1.547.446-.838.277-.892.32-.1.167-.1.275.116.413.257.677c.155.29.582.818 1.08 1.338.492.511 1.168 1.105 1.668 1.466.464.333 1.217.831 1.675 1.107s1.382.775 2.053 1.11c.925.46 1.257.665 1.371.849q.151.241.108.476a1.4 1.4 0 0 1-.162.413c-.065.1-.5.475-.965.836-.465.36-1.03.78-1.257.932s-.657.475-.958.718-.707.547-.903.676c-.248.162-.365.296-.382.439-.015.129.045.283.16.412.1.113.457.332.793.485.335.153.907.348 1.269.434.362.085 1.086.196 1.608.247.523.05 1.254.068 1.626.04s1.051-.086 1.51-.127c.457-.042 1.158-.1 1.556-.128.669-.047.736-.038.892.118.13.13.169.265.169.586 0 .318-.069.56-.287 1.01-.157.325-.371.815-.476 1.088s-.31.736-.455 1.029-.348.764-.45 1.049c-.115.327-.163.592-.13.723.028.113.185.405.35.648.163.242.69.839 1.17 1.325.506.513 1.137 1.058 1.506 1.3.35.23.94.582 1.31.781s.735.364.81.364m124.913-35.833c.327-.014.898-.065 1.27-.112.37-.047.87-.133 1.11-.19.24-.059.808-.27 1.263-.469s1.075-.53 1.378-.737.743-.605.978-.887.572-.79.75-1.13c.176-.34.31-.68.295-.755-.014-.075-.108-.148-.21-.162-.1-.014-.44.082-.752.215-.313.133-.89.347-1.283.475-.393.129-1.089.313-1.547.409s-1.225.193-1.705.215c-.48.023-1.097.004-1.37-.042-.274-.047-.783-.218-1.131-.381-.349-.163-.776-.418-.95-.567s-.446-.502-.605-.786c-.233-.415-.297-.625-.329-1.07-.035-.482-.019-.573.123-.715.09-.089.46-.243.824-.342a67 67 0 0 0 1.614-.471l1.586-.487c.349-.108 1.293-.516 2.098-.906.895-.434 1.68-.877 2.023-1.14.307-.236.743-.6.967-.809.225-.208.606-.646.847-.973s.51-.79.597-1.029c.087-.24.21-.694.274-1.01.095-.48.098-.656.014-1.057-.056-.264-.142-.522-.192-.572s-.278-.09-.504-.088c-.227.002-.949.044-1.604.094-.655.049-1.494.146-1.864.215-.37.07-1.226.219-1.903.331-.676.113-1.535.254-1.908.313s-1.177.217-1.785.352c-.608.136-1.587.364-2.176.509-.59.144-1.776.497-2.638.783s-1.826.605-2.142.707-1.056.408-1.645.68c-.59.273-1.464.689-1.944.925a22 22 0 0 0-1.485.806c-.336.207-1.015.633-1.507.947s-1.108.753-1.37.977-.726.594-1.031.822c-.306.23-.807.65-1.113.934a25 25 0 0 0-1.31 1.36 46 46 0 0 0-.897 1.028c-.118.149-.13.218-.058.351.054.1.25.214.504.289.228.067.79.21 1.248.317.458.106 1.172.264 1.586.35s1.093.212 1.507.282c.415.07 1.2.214 1.745.32s1.58.298 2.3.426c.72.127 1.72.291 2.221.365.502.073 1.34.198 1.864.277s1.291.185 1.706.236c.414.051 1.05.145 1.412.208s1.111.153 1.665.2c.554.046 1.365.109 1.801.14.436.03 1.061.044 1.388.03m-77.735-7.464c.153-.001.322-.03.375-.063s.186-.265.297-.515.202-.563.202-.695-.037-.31-.082-.393c-.046-.085-.222-.225-.393-.312s-.57-.195-.884-.24c-.329-.046-1.168-.06-1.967-.035-.767.025-1.51.063-1.652.085-.188.028-.258.08-.258.191 0 .088.093.199.218.26.12.06.433.154.695.21s.815.277 1.229.491 1.02.53 1.347.703c.37.196.698.313.873.313m-8.526-3.577c1.178.003 2.313-.022 2.522-.056.21-.035.423-.105.474-.156.065-.065.07-.132.014-.22-.044-.07-.347-.222-.673-.338a29 29 0 0 1-1.623-.673 61 61 0 0 0-1.705-.734c-.371-.15-.942-.394-1.27-.543-.327-.15-.844-.356-1.15-.458a44 44 0 0 1-1.428-.522 21 21 0 0 0-1.348-.471c-.262-.075-.85-.307-1.309-.517a22 22 0 0 1-1.586-.818 13 13 0 0 1-1.115-.724c-.2-.156-.64-.534-.982-.839-.34-.304-.825-.823-1.077-1.151s-.632-.9-.845-1.272c-.213-.37-.45-.868-.525-1.104a14 14 0 0 1-.217-.759c-.044-.18-.135-.35-.203-.375a.37.37 0 0 0-.266.028c-.078.042-.216.247-.306.457s-.254.648-.363.973c-.11.325-.288 1.074-.397 1.664-.191 1.037-.194 1.1-.084 1.932.09.69.17.977.405 1.45.16.325.514.866.786 1.201.397.491.653.711 1.314 1.13.452.285 1.231.715 1.733.955s1.359.58 1.904.757 1.204.38 1.464.453c.26.072.866.178 1.348.235s1.287.16 1.788.23c.502.068 1.287.154 1.746.191.458.037 1.796.07 2.974.074m13.166-14.945c.099 0 .223-.051.276-.114a.33.33 0 0 0 .044-.275c-.028-.088-.142-.233-.255-.32a.9.9 0 0 0-.471-.161c-.235 0-.267.025-.267.206 0 .128.093.292.246.435.136.126.328.23.427.23m17.627-1.91a12 12 0 0 1-.89-.068 13 13 0 0 1-1.189-.232 13 13 0 0 0-1.23-.234 15 15 0 0 1-1.407-.273l-2.062-.494a39 39 0 0 1-2.043-.55c-.48-.15-1.14-.408-1.468-.573a59 59 0 0 1-1.555-.834 22 22 0 0 0-1.924-.926c-.53-.216-1.365-.55-1.856-.743a20 20 0 0 0-1.345-.48c-.25-.072-.562-.22-.694-.331-.24-.202-.24-.202-.24-1.105 0-.789.02-.923.154-1.057.084-.085.308-.197.495-.249.188-.052.503-.152.7-.222.283-.101.703-.128 2.061-.132 1.524-.004 1.708-.018 1.73-.136.017-.086-.11-.215-.375-.378a3.5 3.5 0 0 1-.682-.573 4 4 0 0 1-.469-.726 7 7 0 0 1-.313-.834c-.068-.24-.18-.81-.247-1.267-.068-.457-.101-.97-.073-1.139q.05-.308.376-.66a3.1 3.1 0 0 1 .724-.555 6 6 0 0 1 .752-.31c.194-.06.435-.161.536-.227.1-.066.183-.173.183-.239 0-.065-.08-.15-.178-.19a3 3 0 0 0-.542-.12c-.224-.03-.606-.189-.992-.413-.345-.201-.78-.516-.966-.7-.21-.208-.453-.585-.642-.997a14 14 0 0 1-.488-1.217c-.114-.346-.276-.647-.43-.801-.2-.201-.355-.266-.824-.345-.498-.083-.655-.078-1.148.037-.315.074-.82.184-1.123.245-.304.06-.602.16-.662.22s-.099.169-.083.24c.015.072.197.263.405.425.207.163.601.527.875.81s.697.817.94 1.187.568.976.723 1.346c.154.37.339.94.41 1.266s.2.986.289 1.465.197 1.324.24 1.88c.045.554.1 1.243.125 1.53.04.458.025.544-.118.687-.114.113-.3.175-.606.2-.437.036-.445.033-.807-.33-.363-.361-.366-.369-.32-.78.026-.23.07-.604.1-.832.033-.267.004-.675-.084-1.147a69 69 0 0 0-.295-1.485 17 17 0 0 0-.354-1.358 6 6 0 0 0-.488-1.088 11 11 0 0 0-.834-1.116 9 9 0 0 0-1.19-1.126 18 18 0 0 1-.997-.812c-.192-.175-.402-.43-.467-.567a.85.85 0 0 1-.064-.539c.031-.168.178-.427.347-.615.17-.188.494-.416.77-.54.261-.12.725-.293 1.03-.387s.875-.24 1.266-.326a7.5 7.5 0 0 1 1.467-.154c.417 0 .987.038 1.268.084.28.045.684.157.895.247.214.092.517.315.68.5.194.22.356.527.47.89.095.305.318.87.495 1.257.18.39.437.81.58.944.154.143.643.394 1.21.621.522.21 1.128.43 1.347.49.218.06.543.145.722.19.18.044.464.173.631.287.245.165.368.198.626.165.176-.023.707-.169 1.18-.324a17 17 0 0 0 1.539-.602c.623-.291.77-.41 1.759-1.412.593-.602 1.47-1.51 1.95-2.018.619-.653.995-.984 1.293-1.132.284-.141.59-.22.951-.244.452-.03.583-.008.864.149.183.102.459.339.614.527s.337.527.404.752c.068.225.144.73.17 1.122.035.551-.002 1.033-.167 2.127-.116.778-.283 1.594-.37 1.813-.086.22-.138.447-.116.505.023.059.15.107.285.107a.94.94 0 0 0 .469-.167c.164-.121.288-.153.453-.115.125.028.361.148.526.266.164.117.489.426.722.687.423.473.423.473 1.372.515.95.041.95.041 1.856.49.499.247 1.325.578 1.836.735s1.332.34 1.824.407c.595.08 1.162.103 1.689.07a13 13 0 0 0 1.422-.17c.346-.067.751-.103.9-.078s.358.1.461.167c.104.068.261.264.349.436.1.197.16.466.159.73 0 .32-.057.518-.238.832-.13.227-.451.59-.713.808a9 9 0 0 1-1.011.71 46 46 0 0 1-1.33.74c-.435.233-1.15.67-1.586.97s-1.185.902-1.665 1.337a33 33 0 0 0-1.476 1.429c-.332.351-.78.87-.998 1.153s-.546.754-.731 1.046-.444.623-.575.733c-.2.168-.318.2-.75.2-.404 0-.622-.052-1.044-.246a52 52 0 0 0-.791-.357c-.237-.103-.268-.098-.397.054-.076.09-.275.296-.441.456s-.397.44-.513.622-.294.37-.396.416-.37.079-.597.073m3.87-2.874c.087-.02.293-.19.458-.376.165-.188.528-.661.808-1.053.28-.393.947-1.139 1.485-1.662a33 33 0 0 1 1.806-1.623c.455-.37 1.098-.845 1.427-1.055.33-.21.957-.56 1.393-.78s.857-.455.935-.524a.37.37 0 0 0 .12-.288c-.022-.147-.086-.165-.658-.183a45 45 0 0 1-1.587-.093c-.831-.063-1.12-.128-2.28-.51-.73-.24-1.634-.58-2.008-.756-.374-.175-.8-.34-.948-.368-.217-.04-.304-.014-.459.14-.183.184-.192.246-.236 1.611-.035 1.115-.08 1.532-.206 1.935a21 21 0 0 0-.251.865c-.051.2-.189.443-.318.564-.143.132-.554.32-1.096.5-.79.261-.946.287-1.728.284-.524-.002-.982-.046-1.17-.113-.17-.06-.463-.261-.652-.446s-.398-.451-.464-.592c-.083-.173-.122-.496-.122-1.006 0-.538.048-.906.167-1.294.091-.299.251-.714.355-.923.105-.21.342-.56.528-.781s.492-.507.68-.636c.246-.17.335-.281.317-.399q-.023-.164-.336-.27c-.172-.06-.38-.17-.464-.246a1.5 1.5 0 0 1-.263-.35c-.061-.119-.111-.376-.111-.572 0-.197.05-.51.11-.697s.166-.588.237-.893.18-.821.244-1.148c.063-.326.169-.825.236-1.108.068-.284.122-.868.122-1.306 0-.478-.04-.87-.1-.99-.07-.14-.176-.205-.365-.223-.242-.023-.328.038-.991.713-.4.405-1.08 1.124-1.511 1.596-.432.472-1.037 1.059-1.346 1.304-.308.246-.847.618-1.196.826-.35.209-.939.473-1.31.586-.37.114-.723.253-.783.308-.068.063-.094.198-.07.365.021.145.084.448.14.673.064.253.086.63.058.99a4.7 4.7 0 0 1-.25 1.123 6.2 6.2 0 0 1-.561 1.069 6.3 6.3 0 0 1-.853.969 6.7 6.7 0 0 1-.956.702 2.4 2.4 0 0 1-1.02.32c-.333.037-.612.112-.686.186-.114.114-.1.136.156.242.155.065.585.155.955.201.371.046.938.174 1.26.284.324.11.802.246 1.063.303.262.057.94.25 1.508.428.567.178 1.253.4 1.525.491.272.092.79.27 1.15.397.36.126 1.157.422 1.77.658.611.236 1.414.573 1.784.75.37.176 1.064.48 1.544.673s1.319.553 1.864.798c.557.25 1.061.43 1.15.41m-10.49-.131c.22.006.297-.024.297-.115 0-.07-.146-.186-.337-.267-.185-.08-.64-.253-1.011-.385s-1.008-.37-1.416-.529c-.442-.171-.843-.278-.992-.264-.188.018-.25.063-.25.183 0 .113.125.219.437.372.24.117.811.345 1.27.506.457.16 1.028.337 1.268.391.24.055.57.103.734.108m7.246-4.856c.178-.02.5-.096.714-.168s.482-.179.595-.237a.7.7 0 0 0 .293-.328c.048-.121.135-.488.195-.815s.097-.843.082-1.147c-.016-.305-.064-.638-.107-.741-.063-.148-.124-.18-.295-.15-.119.021-.42.152-.67.29-.248.14-.59.41-.76.602-.169.191-.46.694-.646 1.116-.315.714-.332.79-.248 1.071.057.188.173.349.306.424a.9.9 0 0 0 .54.083m-12.15-2.46a2.3 2.3 0 0 0 .56-.16c.135-.065.486-.36.78-.655.422-.423.586-.662.777-1.127.2-.486.236-.662.202-1.007a2.5 2.5 0 0 0-.186-.712q-.144-.295-.332-.321c-.104-.015-.443.051-.754.146l-1.2.373c-.349.11-.8.27-1.004.355-.244.102-.4.227-.458.366-.063.152-.063.343-.001.686.046.261.157.67.245.91s.25.555.362.701.314.315.45.377c.15.067.371.094.56.067"/><path fill="#fed286" fill-rule="evenodd" d="M70.27 501.45c-.09.234-.122 2.564-.072 5.178l.093 4.752 5.984.09 5.985.09.625-1.405c3.07-6.907 13.538-6.796 15.838.169l.403 1.22h12.12v-10.52H90.84c-16.407 0-20.438.083-20.57.426m18.35 7.682c-2.298 1.133-3.307 4.115-2.146 6.352 1.518 2.926 5.274 3.537 7.579 1.234 3.754-3.753-.671-9.93-5.433-7.586m-18.347 6.447c-.091.239-.124 2.646-.074 5.35l.092 4.918h40.791v-10.521l-5.966-.09c-5.964-.09-5.966-.088-6.155.658-1.88 7.433-14.13 7.873-16.196.583l-.327-1.151-6-.09c-4.72-.07-6.034.003-6.165.343"/></svg>