<svg xmlns="http://www.w3.org/2000/svg" xmlns:xlink="http://www.w3.org/1999/xlink" width="311.811" height="442.913"><defs><g id="b"><path id="a" d="M0 0v1h.5z" transform="rotate(18 3.157 -.5)"/><use xlink:href="#a" width="27" height="18" transform="scale(-1 1)"/></g></defs><g transform="translate(-216.142 -304.724)"><text xml:space="preserve" x="366.427" y="399.176" style="font-style:normal;font-weight:400;font-size:40.61803436px;line-height:125%;font-family:sans-serif;text-align:center;letter-spacing:0;word-spacing:0;text-anchor:middle;fill:#f5c042;fill-opacity:1;stroke:none;stroke-width:.2;stroke-linecap:butt;stroke-linejoin:miter;stroke-miterlimit:4;stroke-dasharray:none;stroke-opacity:1" transform="scale(1.01545 .98478)"><tspan x="365.663" y="399.176" style="font-style:normal;font-variant:normal;font-weight:700;font-stretch:normal;font-size:39.48199844px;font-family:TrajanW01-Bd;-inkscape-font-specification:&quot;TrajanW01-Bd Bold&quot;;letter-spacing:-1.52837944px;fill:#f5c042;fill-opacity:1;stroke:none;stroke-width:.2;stroke-miterlimit:4;stroke-dasharray:none;stroke-opacity:1">Pilipinas</tspan></text><text xml:space="preserve" x="366.252" y="651.266" style="font-style:normal;font-weight:400;font-size:40.75724792px;line-height:125%;font-family:sans-serif;text-align:center;letter-spacing:0;word-spacing:0;text-anchor:middle;fill:#f5c042;fill-opacity:1;stroke:none;stroke-width:.2;stroke-linecap:butt;stroke-linejoin:miter;stroke-miterlimit:4;stroke-dasharray:none;stroke-opacity:1" transform="scale(1.01545 .98478)"><tspan x="365.485" y="651.266" style="font-style:normal;font-variant:normal;font-weight:700;font-stretch:normal;font-size:39.48199844px;font-family:TrajanW01-Bd;-inkscape-font-specification:&quot;TrajanW01-Bd Bold&quot;;letter-spacing:-1.53361773px;fill:#f5c042;fill-opacity:1;stroke:none;stroke-width:.2;stroke-miterlimit:4;stroke-dasharray:none;stroke-opacity:1">Pasaporte</tspan></text><path d="M216.142 304.724h295.194a16.58 16.58 0 0 1 16.617 16.617v409.68a16.58 16.58 0 0 1-16.617 16.617H216.142z" style="opacity:1;fill:#750b0b;fill-opacity:1;stroke:none;stroke-width:5;stroke-linecap:butt;stroke-linejoin:miter;stroke-miterlimit:4;stroke-dasharray:none;stroke-dashoffset:0;stroke-opacity:1"/><g style="font-style:normal;font-weight:400;font-size:40.61803436px;line-height:125%;font-family:sans-serif;text-align:center;letter-spacing:0;word-spacing:0;text-anchor:middle;fill:#f5c042;fill-opacity:1;stroke:none;stroke-width:.2;stroke-linecap:butt;stroke-linejoin:miter;stroke-miterlimit:4;stroke-dasharray:none;stroke-opacity:1"><path d="M279.617 380.896v-5.922000000000001q0-.908-.04-1.421 0-.553-.04-1.027-.078-1.026-.394-1.54-.316-.513-1.303-.71-.237-.08-.671-.08-.435-.039-.869-.039-.671 0-.671-.355 0-.356.868-.356.79 0 1.62.04.828 0 1.578.04.79 0 1.422.039h1.066q1.224 0 2.764-.04 1.579-.079 2.96-.079 1.856 0 3.12.277 1.303.276 2.171.632.869.355 1.343.75.473.355.71.592.672.632 1.303 1.895.671 1.224.671 2.803 0 2.093-.75 3.87-.71 1.737-2.013 3-1.303 1.264-3.08 1.974t-3.87.71h-.433q-.237 0-.395-.039l-.316-.079q-.158-.079-.158-.276 0-.237.237-.316.237-.118.868-.118.83 0 1.738-.435.947-.473 1.737-1.302.79-.87 1.303-2.054.513-1.223.513-2.724 0-.474-.079-1.184-.04-.71-.276-1.5-.198-.83-.671-1.659t-1.303-1.58q-1.066-.986-2.172-1.263-1.105-.276-1.777-.276-.434 0-.868.04-.395.04-.671.118-.316.118-.316.75v20.768q.04 2.21.197 3.474.08.83.355 1.421.277.593 1.185.711.434.08.987.119.592.04 1.027.04.631 0 .631.315 0 .395-.75.395-1.974 0-3.672-.08-1.658-.039-2.448-.039h-.947q-.592.04-1.303.04-.671.04-1.421.04-.711.039-1.303.039-.79 0-.79-.395 0-.316.632-.316.434 0 .79-.04.355-.039.631-.118.592-.118.79-.71.237-.593.355-1.461.158-1.264.158-3.475.04-2.21.04-4.935zM303.131 383.62v-5.053q0-.75-.039-1.185v-.868q-.079-.869-.355-1.224-.277-.356-.83-.553-.513-.158-1.263-.158-.553 0-.553-.395 0-.276.83-.276.473 0 1.105.04h1.342q.672 0 1.264.039h1.8159999999999998q.553-.04 1.184-.04h1.264q.632-.04 1.145-.04.71 0 .71.277 0 .395-.552.395-.435 0-1.027.119-.71.118-.987.513-.237.395-.316 1.303-.04.395-.079.868v16.543q.04 1.895.158 2.961.08.672.316 1.066.276.395 1.066.514.355.079.869.118h.908q.316 0 .434.119.118.118.118.237 0 .355-.67.355-1.738 0-3.317-.08-1.58-.039-2.29-.039h-.869q-.513.04-1.184.04-.632.04-1.303.04-.671.039-1.185.039-.67 0-.67-.355 0-.119.118-.237.118-.119.434-.119.75 0 1.224-.118.553-.119.75-.474.197-.395.276-1.145.119-1.027.119-2.922.04-1.934.04-4.382zM322.302 389.543q0 3.237.079 4.935.118 1.658.67 2.132.435.395 1.501.553 1.106.158 3.12.158 1.381 0 2.368-.119 1.027-.158 1.698-.829.316-.316.552-.908.237-.632.316-1.105.08-.514.395-.514.198 0 .237.237.08.198.08.514 0 .157-.04.631t-.119 1.066-.158 1.224q-.079.592-.197.948-.08.276-.198.474-.079.157-.315.236-.237.119-.632.158t-1.066.04q-3.633 0-6.238-.119-1.303-.04-2.448-.079h-3.0010000000000003q-.513.04-1.145.04-.632.04-1.263.04-.593.039-1.145.039-.671 0-.671-.355 0-.119.118-.237.118-.119.434-.119.75 0 1.224-.118.553-.119.75-.553.198-.474.277-1.224.118-1.066.118-2.922.04-1.895.04-4.224v-10.975999999999999q0-.75-.04-1.185v-.868q-.079-.869-.395-1.224-.276-.355-1.105-.592-.434-.119-1.145-.119-.592 0-.592-.355 0-.316.75-.316.592 0 1.263.04h1.343q.67 0 1.224.039h1.895q.631-.04 1.342-.04h1.461q.75-.039 1.263-.039.75 0 .75.316 0 .355-.631.355-.316 0-.671.04-.356 0-.672.079-.71.118-.987.513-.236.395-.315 1.303-.04.395-.08.868v12.161M337.937 383.62v-5.053q0-.75-.04-1.185v-.868q-.078-.869-.355-1.224-.276-.356-.829-.553-.513-.158-1.263-.158-.553 0-.553-.395 0-.276.83-.276.473 0 1.105.04h1.342q.671 0 1.264.039h1.8159999999999998q.553-.04 1.184-.04h1.264q.631-.04 1.145-.04.71 0 .71.277 0 .395-.552.395-.435 0-1.027.119-.71.118-.987.513-.237.395-.316 1.303-.04.395-.079.868v16.543q.04 1.895.158 2.961.08.672.316 1.066.276.395 1.066.514.355.079.869.118h.908q.315 0 .434.119.118.118.118.237 0 .355-.67.355-1.738 0-3.317-.08-1.58-.039-2.29-.039h-.869q-.513.04-1.184.04-.632.04-1.303.04-.671.039-1.185.039-.67 0-.67-.355 0-.119.118-.237.118-.119.434-.119.75 0 1.224-.118.553-.119.75-.474.197-.395.276-1.145.119-1.027.119-2.922.04-1.934.04-4.382zM352.448 383.62v-5.053q0-.75-.039-1.185v-.868q-.079-.869-.395-1.224-.276-.356-1.105-.592-.198-.08-.593-.08-.394-.039-.79-.039-.591 0-.591-.355 0-.316.79-.316 1.381 0 2.802.04 1.461.039 2.211.039h1.264q.75-.04 1.54-.04h1.579q.79-.04 1.382-.04 1.619 0 2.764.238 1.145.237 1.895.553.75.276 1.184.631.434.316.632.474.553.553 1.145 1.619.592 1.026.592 2.408 0 1.777-.671 3.277t-1.856 2.567q-1.145 1.066-2.764 1.697-1.579.592-3.434.592h-.514q-.395 0-.513-.039-.158 0-.316-.079-.118-.079-.118-.276 0-.435 1.145-.435.71 0 1.54-.355.829-.395 1.5-1.066.71-.71 1.145-1.698.474-1.026.474-2.33 0-.394-.04-.986-.04-.632-.276-1.303-.198-.671-.632-1.343-.395-.71-1.106-1.342-.947-.83-1.934-1.026-.948-.237-1.54-.237-.395 0-.83.04-.433.039-.67.118-.277.118-.277.631v17.53q.04 1.856.158 2.961.08.711.316 1.185.237.434 1.027.553.395.079.868.118h.908q.316 0 .435.119.118.118.118.236 0 .356-.632.356-.868 0-1.737-.04-.868 0-1.658-.04-.75 0-1.342-.039h-1.778q-.512.04-1.144.04-.632.04-1.264.04-.631.039-1.144.039-.672 0-.672-.356 0-.118.119-.236.118-.119.434-.119.75 0 1.224-.118.553-.119.75-.553.198-.474.277-1.224.118-1.066.118-2.922.04-1.895.04-4.224zM374.44 383.62v-5.053q0-.75-.04-1.185v-.868q-.079-.869-.355-1.224-.277-.356-.83-.553-.513-.158-1.263-.158-.552 0-.552-.395 0-.276.829-.276.473 0 1.105.04h1.343q.67 0 1.263.039h1.8159999999999998q.553-.04 1.185-.04h1.263q.632-.04 1.145-.04.71 0 .71.277 0 .395-.552.395-.434 0-1.027.119-.71.118-.987.513-.237.395-.315 1.303-.04.395-.08.868v16.543q.04 1.895.158 2.961.08.672.316 1.066.277.395 1.066.514.356.079.869.118h.908q.316 0 .434.119.119.118.119.237 0 .355-.671.355-1.738 0-3.317-.08-1.58-.039-2.29-.039h-.868q-.514.04-1.185.04-.632.04-1.303.04-.671.039-1.184.039-.672 0-.672-.355 0-.119.119-.237.118-.119.434-.119.75 0 1.224-.118.553-.119.75-.474.198-.395.277-1.145.118-1.027.118-2.922.04-1.934.04-4.382zM391.122 394.715q.08 1.974.356 2.724.316.71.829.908.434.158.908.198t.908.04q.592 0 .592.355t-.79.355q-1.697 0-2.882-.08-1.145-.039-1.618-.039-.237 0-1.343.04-1.066.079-2.408.079-.355 0-.592-.08-.198-.039-.198-.275 0-.356.553-.356.355 0 .79-.04.434-.039.79-.118.355-.079.552-.316t.316-.71.158-1.185q.04-.75.04-1.855l.315-19.9q0-.513.158-.828.158-.316.434-.316.316 0 .672.355.394.316.829.75.158.158 1.145 1.185.987.987 2.448 2.487l3.355 3.356 3.751 3.672 2.093 2.092q1.224 1.224 2.33 2.37 1.144 1.144 2.013 2.052.868.869 1.066 1.027h.158l-.356-14.924q-.04-1.54-.315-2.132-.237-.593-.869-.83-.395-.157-.948-.157-.513-.04-.868-.04-.553 0-.553-.355 0-.316.869-.316 1.382 0 2.605.04 1.264.039 1.817.039.316 0 1.224-.04t2.171-.04q.79 0 .79.317 0 .355-.592.355-.277 0-.514.04-.237 0-.552.079-.711.197-.988.79-.236.552-.276 1.973l-.395 21.163q0 .552-.197.79-.158.276-.355.276-.435 0-.79-.237-.355-.198-.632-.474-.829-.75-2.013-1.856-1.145-1.105-2.527-2.408-1.343-1.303-2.803-2.685-1.461-1.421-2.804-2.724-1.421-1.342-2.803-2.724-1.342-1.422-2.448-2.567t-1.895-1.934q-.75-.83-.987-1.066h-.118zM422.159 390.806q-.237 0-.316.237l-1.856 4.54q-.276.632-.395 1.185-.118.553-.118.869 0 .434.276.71.316.237 1.106.237h.513q.316 0 .395.119.118.079.118.237 0 .355-.553.355-.868 0-1.974-.08-1.066-.039-1.895-.039-.276 0-1.46.04-1.185.079-2.567.079-.632 0-.632-.355 0-.356.395-.356h.513q.277-.04.514-.04 1.184-.197 1.737-.947.592-.75 1.145-2.013l9.08-20.965q.554-1.343 1.027-1.343.395 0 .553.277.197.236.474.79.197.473.79 1.815.592 1.343 1.381 3.198.79 1.856 1.738 4.028.947 2.171 1.855 4.303t1.698 4.027l1.382 3.159q.513 1.145.947 1.856.435.67.79 1.066.395.355.671.513.316.118.553.158.75.118 1.303.118.474 0 .474.356 0 .197-.277.276-.237.079-1.224.079h-2.684q-1.777 0-3.988-.08-.474-.039-.75-.039-.277-.04-.277-.237 0-.315.435-.355.197-.04.315-.237.119-.197 0-.513l-2.684-6.79q-.08-.238-.356-.238zm7.422-1.855q.237 0 .158-.198l-3.277-8.41q-.04-.078-.079-.197 0-.118-.079-.118t-.118.118-.08.198l-3.355 8.37q-.119.237.118.237z" style="font-style:normal;font-variant:normal;font-weight:700;font-stretch:normal;font-size:39.48199844px;font-family:TrajanW01-Bd;-inkscape-font-specification:&quot;TrajanW01-Bd Bold&quot;;letter-spacing:-1.52837944px;fill:#f5c042;fill-opacity:1;stroke:none;stroke-width:.2;stroke-miterlimit:4;stroke-dasharray:none;stroke-opacity:1" transform="scale(1.01545 .98478)"/><path d="M447.865 399.73q-1.5 0-3-.198-1.5-.158-2.646-.671-.434-.198-.552-.395-.119-.198-.119-.75 0-1.382.08-2.685.078-1.343.118-1.777 0-.868.434-.868.237 0 .276.197.08.158.08.355 0 .316.078.83.08.473.237.907.277.948.869 1.58.592.631 1.342 1.026.79.356 1.62.553.868.158 1.697.158 2.25 0 3.514-1.224 1.303-1.263 1.303-3.04 0-.553-.119-1.106-.079-.552-.434-1.105-.355-.592-1.066-1.224-.671-.632-1.816-1.303l-2.014-1.184q-1.54-.908-2.606-1.777-1.026-.908-1.658-1.816-.632-.948-.908-1.935t-.276-2.092q0-1.54.67-2.764.711-1.264 1.896-2.132 1.184-.908 2.764-1.382 1.618-.474 3.435-.474 1.697 0 2.96.198 1.304.157 1.975.355.474.118.474.434t-.08 1.185q-.039.868-.039 2.842 0 1.066-.434 1.066-.356 0-.356-.592 0-.237-.197-.868-.158-.672-.71-1.343-.395-.474-1.304-1.026-.868-.553-2.566-.553-.947 0-1.816.237-.83.237-1.5.71-.632.435-1.027 1.106t-.395 1.54q0 .552.119 1.066.158.513.552 1.066.395.513 1.106 1.105.71.553 1.895 1.185l1.421.79q1.698.947 2.843 1.934 1.185.948 1.856 1.974.71.987.987 2.053.316 1.027.316 2.172 0 1.895-.79 3.435-.79 1.5-2.685 2.842-1.263.908-2.842 1.145t-2.962.237" style="font-style:normal;font-variant:normal;font-weight:700;font-stretch:normal;font-size:39.48199844px;font-family:TrajanW01-Bd;-inkscape-font-specification:&quot;TrajanW01-Bd Bold&quot;;letter-spacing:-1.52837944px;fill:#f5c042;fill-opacity:1;stroke:none;stroke-width:.2;stroke-miterlimit:4;stroke-dasharray:none;stroke-opacity:1" transform="scale(1.01545 .98478)"/></g><g style="font-style:normal;font-weight:400;font-size:40.75724792px;line-height:125%;font-family:sans-serif;text-align:center;letter-spacing:0;word-spacing:0;text-anchor:middle;fill:#f5c042;fill-opacity:1;stroke:none;stroke-width:.2;stroke-linecap:butt;stroke-linejoin:miter;stroke-miterlimit:4;stroke-dasharray:none;stroke-opacity:1"><path d="M264.849 632.986v-5.923q0-.908-.04-1.42 0-.554-.039-1.027-.079-1.027-.395-1.54t-1.303-.71q-.237-.08-.67-.08-.435-.04-.87-.04-.67 0-.67-.355t.868-.355q.79 0 1.619.04.829 0 1.579.039.79 0 1.421.04h1.066q1.224 0 2.764-.04 1.58-.08 2.961-.08 1.856 0 3.12.277 1.302.277 2.17.632.87.355 1.343.75.474.356.71.592.672.632 1.304 1.896.671 1.223.671 2.803 0 2.092-.75 3.869-.71 1.737-2.014 3-1.303 1.264-3.08 1.975-1.776.71-3.869.71h-.434q-.237 0-.395-.04l-.316-.078q-.158-.08-.158-.276 0-.237.237-.316.237-.119.869-.119.83 0 1.737-.434.948-.474 1.737-1.303.79-.869 1.303-2.053.514-1.224.514-2.724 0-.474-.08-1.185-.039-.71-.276-1.5-.197-.83-.671-1.658-.474-.83-1.303-1.58-1.066-.987-2.171-1.263-1.106-.276-1.777-.276-.434 0-.869.04-.395.039-.67.118-.317.118-.317.75v20.767q.04 2.211.198 3.475.079.829.355 1.421t1.184.71q.435.08.988.12.592.039 1.026.039.632 0 .632.316 0 .394-.75.394-1.975 0-3.672-.079-1.658-.04-2.448-.04h-.948q-.592.04-1.303.04-.67.04-1.42.04-.712.04-1.304.04-.79 0-.79-.395 0-.316.632-.316.435 0 .79-.04t.632-.118q.592-.119.79-.711.236-.592.355-1.46.157-1.264.157-3.475.04-2.211.04-4.935zM289.859 642.896q-.237 0-.316.237l-1.855 4.54q-.277.632-.395 1.185-.119.552-.119.868 0 .434.277.71.315.238 1.105.238h.513q.316 0 .395.118.119.08.119.237 0 .355-.553.355-.869 0-1.974-.079-1.066-.04-1.895-.04-.277 0-1.461.04-1.185.08-2.566.08-.632 0-.632-.356 0-.355.395-.355h.513q.276-.04.513-.04 1.185-.197 1.737-.947.593-.75 1.145-2.014l9.081-20.965q.553-1.342 1.027-1.342.395 0 .552.276.198.237.474.79.198.474.79 1.816t1.382 3.198 1.737 4.027q.948 2.172 1.856 4.304t1.697 4.027l1.382 3.158q.513 1.145.948 1.856.434.671.79 1.066.394.355.67.513.316.119.553.158.75.119 1.303.119.474 0 .474.355 0 .197-.276.276-.237.08-1.224.08h-2.685q-1.777 0-3.988-.08-.473-.04-.75-.04-.276-.039-.276-.236 0-.316.434-.355.197-.04.316-.237.118-.198 0-.513l-2.685-6.791q-.079-.237-.355-.237zm7.423-1.856q.237 0 .158-.197l-3.277-8.41q-.04-.079-.08-.197 0-.119-.078-.119-.08 0-.119.119-.04.118-.079.197l-3.356 8.37q-.118.237.119.237z" style="font-style:normal;font-variant:normal;font-weight:700;font-stretch:normal;font-size:39.48199844px;font-family:TrajanW01-Bd;-inkscape-font-specification:&quot;TrajanW01-Bd Bold&quot;;letter-spacing:-1.53361773px;fill:#f5c042;fill-opacity:1;stroke:none;stroke-width:.2;stroke-miterlimit:4;stroke-dasharray:none;stroke-opacity:1" transform="scale(1.01545 .98478)"/><path d="M315.56 651.819q-1.5 0-3-.198-1.5-.158-2.645-.67-.435-.198-.553-.396-.119-.197-.119-.75 0-1.382.08-2.685.078-1.342.118-1.776 0-.869.434-.869.237 0 .277.197.079.158.079.356 0 .316.079.829.079.474.236.908.277.948.87 1.58.591.631 1.341 1.026.79.355 1.62.553.868.157 1.697.157 2.25 0 3.514-1.223 1.303-1.264 1.303-3.04 0-.553-.119-1.106-.079-.553-.434-1.106-.355-.592-1.066-1.224-.671-.631-1.816-1.302l-2.014-1.185q-1.54-.908-2.606-1.777-1.026-.908-1.658-1.816-.632-.947-.908-1.934t-.276-2.093q0-1.54.67-2.764.712-1.263 1.896-2.132 1.185-.908 2.764-1.382 1.619-.473 3.435-.473 1.697 0 2.96.197 1.304.158 1.975.355.474.119.474.435t-.08 1.184q-.039.869-.039 2.843 0 1.066-.434 1.066-.355 0-.355-.592 0-.237-.198-.869-.158-.671-.71-1.342-.395-.474-1.303-1.027-.869-.553-2.567-.553-.947 0-1.816.237-.829.237-1.5.711-.632.434-1.027 1.105-.395.672-.395 1.54 0 .553.119 1.066.158.514.553 1.066.394.514 1.105 1.106.71.553 1.895 1.184l1.422.79q1.697.947 2.842 1.934 1.185.948 1.856 1.975.71.987.987 2.053.316 1.026.316 2.171 0 1.895-.79 3.435-.79 1.5-2.684 2.843-1.264.908-2.843 1.145-1.58.237-2.961.237M333.06 642.896q-.237 0-.316.237l-1.856 4.54q-.276.632-.395 1.185-.118.552-.118.868 0 .434.276.71.316.238 1.106.238h.513q.316 0 .395.118.118.08.118.237 0 .355-.552.355-.869 0-1.974-.079-1.066-.04-1.896-.04-.276 0-1.46.04-1.185.08-2.567.08-.631 0-.631-.356 0-.355.394-.355h.514q.276-.04.513-.04 1.184-.197 1.737-.947.592-.75 1.145-2.014l9.08-20.965q.554-1.342 1.027-1.342.395 0 .553.276.198.237.474.79.197.474.79 1.816.592 1.342 1.382 3.198t1.737 4.027 1.855 4.304 1.698 4.027l1.382 3.158q.513 1.145.948 1.856.434.671.79 1.066.394.355.67.513.316.119.553.158.75.119 1.303.119.474 0 .474.355 0 .197-.277.276-.236.08-1.224.08h-2.684q-1.777 0-3.988-.08-.474-.04-.75-.04-.277-.039-.277-.236 0-.316.435-.355.197-.04.316-.237.118-.198 0-.513l-2.685-6.791q-.08-.237-.355-.237zm7.422-1.856q.237 0 .158-.197l-3.277-8.41q-.04-.079-.079-.197 0-.119-.079-.119t-.118.119-.08.197l-3.355 8.37q-.119.237.118.237z" style="font-style:normal;font-variant:normal;font-weight:700;font-stretch:normal;font-size:39.48199844px;font-family:TrajanW01-Bd;-inkscape-font-specification:&quot;TrajanW01-Bd Bold&quot;;letter-spacing:-1.53361773px;fill:#f5c042;fill-opacity:1;stroke:none;stroke-width:.2;stroke-miterlimit:4;stroke-dasharray:none;stroke-opacity:1" transform="scale(1.01545 .98478)"/><path d="M355.01 635.71v-5.054q0-.75-.039-1.184v-.869q-.079-.868-.395-1.224-.276-.355-1.105-.592-.198-.079-.593-.079-.394-.04-.79-.04-.591 0-.591-.355 0-.316.79-.316 1.381 0 2.802.04 1.461.04 2.211.04h1.264q.75-.04 1.54-.04h1.579q.79-.04 1.382-.04 1.619 0 2.764.237t1.895.553q.75.276 1.184.632.434.316.632.474.553.552 1.145 1.618.592 1.027.592 2.409 0 1.776-.671 3.277-.671 1.5-1.856 2.566-1.145 1.066-2.763 1.698-1.58.592-3.435.592h-.514q-.395 0-.513-.04-.158 0-.316-.079-.118-.079-.118-.276 0-.434 1.145-.434.71 0 1.54-.356.829-.394 1.5-1.066.71-.71 1.145-1.697.474-1.027.474-2.33 0-.395-.04-.987-.04-.631-.276-1.303-.198-.67-.632-1.342-.395-.71-1.105-1.342-.948-.83-1.935-1.027-.948-.237-1.54-.237-.395 0-.829.04t-.671.118q-.277.119-.277.632v17.53q.04 1.855.158 2.961.08.71.316 1.184.237.435 1.027.553.395.08.868.119h.908q.316 0 .435.118.118.118.118.237 0 .355-.632.355-.868 0-1.737-.04-.868 0-1.658-.039-.75 0-1.342-.04h-1.778q-.512.04-1.144.04-.632.04-1.263.04-.632.04-1.145.04-.672 0-.672-.356 0-.119.119-.237.118-.118.434-.118.75 0 1.224-.119.553-.118.75-.553.198-.473.277-1.224.118-1.066.118-2.921.04-1.895.04-4.225zM387.42 651.819q-3.79 0-6.515-1.224-2.685-1.224-4.422-3.12-1.698-1.894-2.487-4.224t-.79-4.58q0-2.132.79-4.461t2.527-4.264q1.776-1.935 4.54-3.159 2.764-1.263 6.712-1.263 3.277 0 5.922.908 2.646.868 4.462 2.487 1.855 1.619 2.843 3.948.987 2.33.987 5.212t-1.027 5.409q-.987 2.487-2.882 4.343t-4.62 2.922q-2.684 1.066-6.04 1.066m1.421-1.816q.908 0 2.25-.316 1.382-.356 2.646-1.461 1.263-1.106 2.171-3.198.908-2.132.908-5.725 0-2.764-.79-4.975-.789-2.25-2.17-3.79-1.343-1.58-3.199-2.409-1.816-.829-3.908-.829-1.461 0-2.962.474-1.5.434-2.724 1.619-1.184 1.145-1.974 3.158-.75 1.975-.75 5.094 0 2.605.71 4.856.711 2.25 2.054 3.909 1.381 1.658 3.316 2.645 1.974.948 4.422.948M408.082 635.71v-5.054q0-.75-.04-1.184v-.869q-.079-.868-.395-1.224-.276-.355-1.105-.592-.197-.079-.592-.079-.395-.04-.79-.04-.592 0-.592-.355 0-.316.79-.316 1.381 0 2.763.04 1.422.04 1.974.04h1.185q.75-.04 1.54-.04h1.54q.75-.04 1.144-.04 1.659 0 3.435.277 1.777.237 3.159 1.145.355.237.79.71.434.435.79 1.027.394.592.63 1.342.238.711.238 1.54 0 1.895-1.145 3.632-1.106 1.738-3.672 3.79 2.33 2.843 4.185 5.094 1.856 2.25 3.435 3.83.71.71 1.303 1.145.592.434 1.066.67.474.198.79.277.355.08.552.119.277.079.435.079h.394q.198 0 .316.118.119.119.119.237 0 .355-.671.355h-3.317q-1.46 0-2.29-.158-.829-.157-1.5-.513-1.145-.553-2.211-1.737-1.066-1.224-2.527-3.198-.513-.671-1.027-1.382-.513-.75-.987-1.382-.434-.671-.79-1.145-.315-.474-.473-.671-.237-.237-.632-.237l-3.119-.079q-.276 0-.276.276v.474q0 2.37.04 4.225.039 1.856.157 2.922.08.75.316 1.223.237.435 1.027.553.394.08.868.119h.83q.197 0 .315.118.119.119.119.237 0 .355-.711.355-.75 0-1.619-.04-.868 0-1.658-.039-.75 0-1.342-.04h-1.54q-.514.04-1.145.04-.592.04-1.224.04-.632.04-1.145.04-.671 0-.671-.356 0-.118.118-.237.119-.118.434-.118.75 0 1.224-.119.553-.118.75-.553.198-.473.277-1.223.118-1.067.118-2.922.04-1.895.04-4.225zm4.422 2.606q0 .434.316.592.552.197 1.263.276.71.04 1.382.04 1.026 0 1.5-.119.513-.118.948-.434.79-.553 1.5-1.698.75-1.184.75-3.277 0-1.776-.552-2.921-.514-1.145-1.343-1.816-.79-.711-1.737-.948-.908-.276-1.658-.276-.672 0-1.224.04-.553 0-.83.078-.315.119-.315.474zM438.234 628.05l-5.172.119q-1.5.04-2.25.276-.711.198-1.106.75-.276.356-.395.672-.118.276-.197.473-.118.435-.395.435-.316 0-.316-.553 0-.197.08-.83.118-.63.236-1.302.158-.671.277-1.224.118-.592.157-.71.119-.632.395-.632.198 0 .514.158.315.158.987.236.79.08 1.697.119.908.04 1.777.04h14.095q.83 0 1.382-.04.592-.04.987-.119.434-.079.632-.118.237-.04.316-.04.276 0 .276.711 0 .277-.04.83v1.144q0 .632-.039 1.224v.869q-.079.553-.316.553-.355 0-.395-.672l-.04-.355q-.039-.316-.236-.632-.197-.355-.671-.631-.474-.277-1.264-.474-.75-.198-1.934-.198l-4.383-.079v13.582q0 2.33.04 4.225.04 1.855.158 2.961.079.71.315 1.184.237.435 1.027.553.355.08.869.119h.908q.316 0 .434.118.118.119.118.237 0 .355-.67.355-1.738 0-3.317-.079-1.54-.04-2.29-.04h-.869q-.513.04-1.184.04-.632.04-1.303.04-.671.04-1.185.04-.67 0-.67-.356 0-.118.118-.237.118-.118.434-.118.79 0 1.224-.119.553-.118.75-.553.197-.473.276-1.223.119-1.067.119-2.922.04-1.895.04-4.225zM457.066 635.71v-5.054q0-.75-.04-1.184v-.869q-.079-.868-.394-1.224-.277-.355-1.106-.592-.197-.079-.592-.079-.395-.04-.79-.04-.592 0-.592-.355 0-.316.79-.316 1.382 0 2.803.04 1.46.04 2.21.04h9.477q.473-.04.868-.08l.592-.118q.158-.04.277-.079.158-.079.276-.079.237 0 .237.316 0 .197-.118.632-.08.394-.158 1.54 0 .118-.04.434 0 .315-.04.67l-.078.633q0 .315-.04.473l-.118.356q-.08.197-.277.197-.276 0-.276-.434 0-.198-.04-.553-.039-.355-.197-.671-.197-.434-.592-.75-.395-.356-1.698-.474-.237-.04-1.026-.04-.75-.04-1.659-.04-.908-.039-1.697-.039-.79-.04-1.066-.04-.237 0-.237.317v8.29q0 .356.237.356h4.895q.869-.04 1.185-.079.632-.079.987-.158.395-.118.671-.355l.316-.316q.118-.118.237-.118.276 0 .276.355 0 .158-.079.671-.04.514-.197 1.777-.08.513-.119 1.303-.04.75-.04.947 0 .198-.078.474-.04.277-.276.277-.316 0-.316-.277-.04-.276-.04-.592t-.079-.632q-.158-.513-.553-.868-.394-.356-1.381-.435-.237-.04-.988-.04-.75-.039-1.658-.039-.868-.04-1.697-.04-.79-.039-1.106-.039-.197 0-.197.356v7.659q.04.869.276 1.422.237.513.75.829.553.316 1.421.434.909.118 2.251.118.671 0 1.619-.04.987-.078 1.658-.394t.987-.869q.316-.592.513-1.618.119-.514.395-.514.198 0 .237.277.079.237.079.513t-.04.83q-.039.512-.118 1.065t-.158 1.066q-.079.514-.158.75-.079.316-.197.514-.119.158-.356.237-.197.079-.513.079-.316.04-.79.04-3.869 0-6.396-.12-1.263-.039-2.25-.078h-2.606q-.513.04-1.145.04-.632.039-1.263.039-.592.04-1.145.04-.671 0-.671-.356 0-.119.118-.237.118-.119.434-.119.75 0 1.224-.118.553-.118.75-.553.198-.474.277-1.224.118-1.066.118-2.921.04-1.896.04-4.225z" style="font-style:normal;font-variant:normal;font-weight:700;font-stretch:normal;font-size:39.48199844px;font-family:TrajanW01-Bd;-inkscape-font-specification:&quot;TrajanW01-Bd Bold&quot;;letter-spacing:-1.53361773px;fill:#f5c042;fill-opacity:1;stroke:none;stroke-width:.2;stroke-miterlimit:4;stroke-dasharray:none;stroke-opacity:1" transform="scale(1.01545 .98478)"/></g><ellipse cx="1143.842" cy="409.367" rx="1.458" ry="1.394" style="opacity:1;fill:#8e44ad;fill-opacity:1;stroke:none;stroke-width:1;stroke-linecap:butt;stroke-linejoin:miter;stroke-miterlimit:4;stroke-dasharray:none;stroke-dashoffset:0;stroke-opacity:1"/><ellipse cx="1146.757" cy="405.248" rx="1.077" ry=".951" style="opacity:1;fill:#8e44ad;fill-opacity:1;stroke:none;stroke-width:1;stroke-linecap:butt;stroke-linejoin:miter;stroke-miterlimit:4;stroke-dasharray:none;stroke-dashoffset:0;stroke-opacity:1"/><ellipse cx="1149.482" cy="401.192" rx=".887" ry=".824" style="opacity:1;fill:#8e44ad;fill-opacity:1;stroke:none;stroke-width:1;stroke-linecap:butt;stroke-linejoin:miter;stroke-miterlimit:4;stroke-dasharray:none;stroke-dashoffset:0;stroke-opacity:1"/><ellipse cx="1152.144" cy="398.53" rx=".887" ry=".824" style="opacity:1;fill:#8e44ad;fill-opacity:1;stroke:none;stroke-width:1;stroke-linecap:butt;stroke-linejoin:miter;stroke-miterlimit:4;stroke-dasharray:none;stroke-dashoffset:0;stroke-opacity:1"/><ellipse cx="1154.742" cy="395.552" rx=".951" ry=".887" style="opacity:1;fill:#8e44ad;fill-opacity:1;stroke:none;stroke-width:1;stroke-linecap:butt;stroke-linejoin:miter;stroke-miterlimit:4;stroke-dasharray:none;stroke-dashoffset:0;stroke-opacity:1"/><circle cx="1157.087" cy="393.017" r="1.014" style="opacity:1;fill:#8e44ad;fill-opacity:1;stroke:none;stroke-width:1;stroke-linecap:butt;stroke-linejoin:miter;stroke-miterlimit:4;stroke-dasharray:none;stroke-dashoffset:0;stroke-opacity:1"/><ellipse cx="1159.559" cy="392.89" rx="1.458" ry=".127" style="opacity:1;fill:#8e44ad;fill-opacity:1;stroke:none;stroke-width:1;stroke-linecap:butt;stroke-linejoin:miter;stroke-miterlimit:4;stroke-dasharray:none;stroke-dashoffset:0;stroke-opacity:1"/><ellipse cx="1162.601" cy="390.291" rx=".824" ry=".063" style="opacity:1;fill:#8e44ad;fill-opacity:1;stroke:none;stroke-width:1;stroke-linecap:butt;stroke-linejoin:miter;stroke-miterlimit:4;stroke-dasharray:none;stroke-dashoffset:0;stroke-opacity:1"/><ellipse cx="1164.565" cy="387.788" rx="1.141" ry="2.503" style="opacity:1;fill:#8e44ad;fill-opacity:1;stroke:none;stroke-width:1;stroke-linecap:butt;stroke-linejoin:miter;stroke-miterlimit:4;stroke-dasharray:none;stroke-dashoffset:0;stroke-opacity:1"/><circle cx="1167.67" cy="381.546" r=".697" style="opacity:1;fill:#8e44ad;fill-opacity:1;stroke:none;stroke-width:1;stroke-linecap:butt;stroke-linejoin:miter;stroke-miterlimit:4;stroke-dasharray:none;stroke-dashoffset:0;stroke-opacity:1"/><ellipse cx="1170.776" cy="387.947" rx=".76" ry="1.014" style="opacity:1;fill:#8e44ad;fill-opacity:1;stroke:none;stroke-width:1;stroke-linecap:butt;stroke-linejoin:miter;stroke-miterlimit:4;stroke-dasharray:none;stroke-dashoffset:0;stroke-opacity:1"/><ellipse cx="1173.754" cy="396.058" rx=".824" ry="1.521" style="opacity:1;fill:#8e44ad;fill-opacity:1;stroke:none;stroke-width:1;stroke-linecap:butt;stroke-linejoin:miter;stroke-miterlimit:4;stroke-dasharray:none;stroke-dashoffset:0;stroke-opacity:1"/><ellipse cx="1175.339" cy="389.024" rx=".887" ry="2.725" style="opacity:1;fill:#8e44ad;fill-opacity:1;stroke:none;stroke-width:1;stroke-linecap:butt;stroke-linejoin:miter;stroke-miterlimit:4;stroke-dasharray:none;stroke-dashoffset:0;stroke-opacity:1"/><ellipse cx="1178.02" cy="388.298" rx="2.135" ry="1.423" style="opacity:1;fill:#8e44ad;fill-opacity:1;stroke:none;stroke-width:1;stroke-linecap:butt;stroke-linejoin:miter;stroke-miterlimit:4;stroke-dasharray:none;stroke-dashoffset:0;stroke-opacity:1"/><ellipse cx="1181.136" cy="384.786" rx="1.554" ry="2.543" style="opacity:1;fill:#8e44ad;fill-opacity:1;stroke:none;stroke-width:1;stroke-linecap:butt;stroke-linejoin:miter;stroke-miterlimit:4;stroke-dasharray:none;stroke-dashoffset:0;stroke-opacity:1"/><ellipse cx="1183.641" cy="378.757" rx=".951" ry="1.331" style="opacity:1;fill:#8e44ad;fill-opacity:1;stroke:none;stroke-width:1;stroke-linecap:butt;stroke-linejoin:miter;stroke-miterlimit:4;stroke-dasharray:none;stroke-dashoffset:0;stroke-opacity:1"/><ellipse cx="1186.366" cy="379.993" rx="1.774" ry="1.236" style="opacity:1;fill:#8e44ad;fill-opacity:1;stroke:none;stroke-width:1;stroke-linecap:butt;stroke-linejoin:miter;stroke-miterlimit:4;stroke-dasharray:none;stroke-dashoffset:0;stroke-opacity:1"/><ellipse cx="1189.852" cy="381.118" rx="1.711" ry="1.125" style="opacity:1;fill:#8e44ad;fill-opacity:1;stroke:none;stroke-width:1;stroke-linecap:butt;stroke-linejoin:miter;stroke-miterlimit:4;stroke-dasharray:none;stroke-dashoffset:0;stroke-opacity:1"/><g style="stroke-width:1.5;stroke-miterlimit:4;stroke-dasharray:none"><g style="stroke-width:1.5;stroke-miterlimit:4;stroke-dasharray:none"><g style="stroke:#f5c042;stroke-width:1.51459873;stroke-miterlimit:4;stroke-dasharray:none;stroke-opacity:1"><path d="M300.16 566.298c1.534.497 2.397 2.07 3.123 3.861l6.86-5.945s.795-.858 1.653-.674c1.69.361 1.303 2.83 2.388 3.555.322.214 1.271.367 1.838-.49.566-.859.75-1.334.428-2.943-.697-3.488-4.785-8.377-8.206-8.703-.965-.092-3.001.735-3.001.735l-2.021 1.778-3.062 8.826zM301.997 553.794l4.9-2.696c1.018 0 .433-4.6-2.205-4.168-3.92.642-3.208 6.916-2.695 6.864z" style="fill:#750b0b;fill-opacity:1;stroke:#f5c042;stroke-width:1.51459873;stroke-miterlimit:4;stroke-dasharray:none;stroke-opacity:1" transform="matrix(1 0 0 .98082 0 -5.23)"/><path d="m302.977 557.717 2.266-2.023s-.567.828.061 1.349c.93.771 2.572.168 3.307.98s-.49 2.268-.49 2.268l-4.838-.674zM310.326 563.969c-.048 2.861-.1 5.731.49 7.477 2.644-1.198 5.18-3.087 5.757-5.884 0 0-1.262 2.211-2.29 1.609-1.03-.603-.845-3.407-2.67-3.754-.768-.146-1.287.552-1.287.552z" style="fill:#750b0b;fill-opacity:1;stroke:#f5c042;stroke-width:1.51459873;stroke-miterlimit:4;stroke-dasharray:none;stroke-opacity:1" transform="matrix(1 0 0 .98082 0 -5.23)"/><path d="M293.328 556.505s-2.951 3.697-2.477 6.555c.421 2.542 2.862 4.935 5.632 4.593 4.267-.527 11.697-7.432 11.697-7.432-4.047.047-6.463-2.739-6.068-11.58zM310.258 564.252l-11.973 10.008c-.187.107.397 22.524 25.982 25.378 20.055 2.225 19.613 1.2 29.68 3.82 9.893 2.576 17.839 4.45 18.099 4.698.26-.247 8.206-2.122 18.099-4.698 10.066-2.621 9.625-1.595 29.68-3.82 25.584-2.854 26.168-25.27 25.98-25.378l-11.972-10.008s1.908 13.25-9.719 18.8c-4.856 2.317-8.77 2.768-15.758 3.127-5.165.27-9.74.629-12.253 1.228-12.55 2.99-23.343 6.485-24.057 6.717-.715-.232-11.508-3.726-24.058-6.717-2.513-.6-7.087-.957-12.253-1.228-6.988-.36-10.902-.81-15.758-3.128-11.627-5.549-9.719-18.799-9.719-18.799z" style="fill:#750b0b;fill-opacity:1;stroke:#f5c042;stroke-width:1.51459873;stroke-miterlimit:4;stroke-dasharray:none;stroke-opacity:1" transform="matrix(1 0 0 .98082 0 -5.23)"/><path d="M443.935 566.298c-1.535.497-2.397 2.07-3.124 3.861l-6.859-5.945s-.795-.858-1.654-.674c-1.69.361-1.302 2.83-2.388 3.555-.321.214-1.27.367-1.837-.49-.567-.859-.75-1.334-.429-2.943.697-3.488 4.785-8.377 8.207-8.703.964-.092 3 .735 3 .735l2.022 1.778 3.062 8.826zM442.097 553.794l-4.899-2.696c-1.02 0-.433-4.6 2.205-4.168 3.92.642 3.207 6.916 2.694 6.864z" style="fill:#750b0b;fill-opacity:1;stroke:#f5c042;stroke-width:1.51459873;stroke-miterlimit:4;stroke-dasharray:none;stroke-opacity:1" transform="matrix(1 0 0 .98082 0 -5.23)"/><path d="m441.118 557.717-2.267-2.023s.567.828-.06 1.349c-.93.771-2.573.168-3.308.98s.49 2.268.49 2.268l4.838-.674.307-1.9zM433.768 563.969c.048 2.861.1 5.731-.49 7.477-2.644-1.198-5.18-3.087-5.756-5.884 0 0 1.261 2.211 2.29 1.609 1.028-.603.845-3.407 2.67-3.754.767-.146 1.286.552 1.286.552z" style="fill:#750b0b;fill-opacity:1;stroke:#f5c042;stroke-width:1.51459873;stroke-miterlimit:4;stroke-dasharray:none;stroke-opacity:1" transform="matrix(1 0 0 .98082 0 -5.23)"/><path d="M450.767 556.505s2.95 3.697 2.477 6.555c-.422 2.542-2.863 4.935-5.633 4.593-4.267-.527-11.696-7.432-11.696-7.432 4.046.047 6.462-2.739 6.067-11.58z" style="fill:#750b0b;fill-opacity:1;stroke:#f5c042;stroke-width:1.51459873;stroke-miterlimit:4;stroke-dasharray:none;stroke-opacity:1" transform="matrix(1 0 0 .98082 0 -5.23)"/></g><g style="fill:#f5c042;fill-opacity:1;stroke-width:7.52583408;stroke-miterlimit:4;stroke-dasharray:none"><path d="m61.056 770.069 31.171-19.003 8.075 13.247q3.047 4.996 3.587 7.771.54 2.778-.777 5.447t-4.082 4.354q-3.508 2.139-7.051 1.47t-6.64-4.409q.053 2.767-.562 4.964t-2.876 6.668l-3.761 7.515-4.589-7.527 4.009-8.687q2.158-4.64 2.56-6.109t.145-2.684-1.581-3.382l-.778-1.275-13.013 7.934zm21.825-4.673 2.839 4.657q2.76 4.528 3.831 5.422 1.07.894 2.394.962t2.729-.788q1.573-.962 2.028-2.391.455-1.428-.223-3.114-.36-.831-2.694-4.658l-2.993-4.911zM85.944 806.178l23.799-27.685 20.526 17.646-4.026 4.683-14.937-12.841-5.276 6.138 13.898 11.947-4.01 4.665-13.898-11.948-6.477 7.534 15.465 13.296-4.01 4.664zM117.924 830.902l15.068-33.251 10.774 4.882q6.124 2.778 7.758 4.117 2.519 2.044 3.312 5.424.79 3.38-1.006 7.351-1.389 3.062-3.445 4.646-2.058 1.583-4.31 1.997t-4.195-.001q-2.621-.613-7.18-2.68l-4.377-1.983-5.685 12.543zm19.234-24.584-4.275 9.436 3.674 1.666q3.969 1.798 5.544 1.884t2.838-.683 1.932-2.241q.823-1.814.291-3.478-.53-1.663-2.03-2.697-1.1-.771-4.729-2.417zM160.58 809.676l7.23 1.43-3.833 19.396q-.912 4.619-.914 6.039.03 2.29 1.513 3.968 1.483 1.676 4.514 2.274 3.078.608 4.891-.341 1.812-.95 2.492-2.719.68-1.772 1.52-6.021l3.916-19.813 7.231 1.43-3.717 18.811q-1.276 6.451-2.387 8.997-1.113 2.547-3.052 4.067-1.938 1.52-4.791 2.087-2.852.564-7.104-.274-5.131-1.015-7.547-2.723-2.418-1.709-3.581-3.906-1.165-2.198-1.243-4.37-.1-3.22 1.087-9.229zM196.304 815.544l14.517 1.49q4.31.442 6.393 1.021 2.08.577 3.636 1.888t2.475 3.32q.921 2.01.68 4.362a8.5 8.5 0 0 1-1.855 4.54q-1.594 1.991-4.056 2.813 3.219 1.308 4.765 3.817 1.545 2.514 1.223 5.658-.255 2.477-1.646 4.699t-3.53 3.418q-2.138 1.195-5.094 1.217-1.854.01-8.869-.66l-12.36-1.269zm5.229 21.24-.997 9.711 6.788.696q3.964.407 5.053.294 1.664-.13 2.812-1.176 1.146-1.046 1.345-2.979.168-1.636-.508-2.855t-2.121-1.896q-1.444-.674-6.448-1.188zm1.483-14.442-.862 8.397 4.807.493q4.285.44 5.339.423 1.906-.03 3.094-.997 1.188-.966 1.369-2.726.172-1.684-.648-2.833-.82-1.148-2.631-1.56-1.078-.236-6.255-.768zM230.533 855.667l3.14-36.07 7.343.639-2.606 29.944 18.26 1.589-.533 6.128zM261.919 858.345l3.142-36.371 7.344.635-3.142 36.371zM276.473 859.208l5.878-36.029 7.275 1.187-2.61 16 17.308-13.602 9.782 1.596-15.855 11.82 10.715 24.33-9.413-1.535-7.146-18.525-6.881 5.06-1.775 10.889zM346.07 874.716l-7.764-2.006-1.012-8.825-14.129-3.65-4.991 7.275-7.571-1.955 22.897-31.791 7.547 1.949zm-9.528-17.38-1.482-14.374-8.162 11.884zM372.155 882.809l4.934-36.172 7.105.969 11.511 26.175L399 849.626l6.784.927-4.933 36.172-7.328-1-11.366-25.576-3.217 23.588zM431.456 871.895l-.646-6.117 15.801-1.665 1.523 14.463q-2.069 2.472-6.26 4.629-4.194 2.156-8.675 2.63-5.697.6-10.184-1.344t-7.086-6.164q-2.597-4.22-3.148-9.445-.597-5.671 1.314-10.33t6.246-7.494q3.302-2.174 8.502-2.726 6.762-.712 10.861 1.724 4.099 2.434 5.718 7.323l-7.137 2.129q-1.051-2.593-3.331-3.919-2.281-1.325-5.45-.99-4.805.507-7.319 3.852-2.514 3.346-1.883 9.338.681 6.466 3.896 9.394 3.213 2.93 7.867 2.438 2.304-.242 4.524-1.39 2.22-1.149 3.743-2.611l-.485-4.605zM482.901 872.82l-9.15-35.341 11.45-2.965q6.51-1.687 8.623-1.667 3.243.009 5.981 2.142 2.74 2.134 3.832 6.354.844 3.255.235 5.776-.606 2.526-2.1 4.261-1.493 1.737-3.267 2.635-2.424 1.168-7.271 2.423l-4.651 1.205 3.452 13.331zm-.468-31.21 2.598 10.028 3.904-1.012q4.22-1.092 5.498-2.016t1.78-2.313q.501-1.39.096-2.957-.499-1.927-1.957-2.89-1.458-.96-3.273-.823-1.341.09-5.197 1.089zM518.288 863.926l-7.328-35.765 7.221-1.479 7.329 35.764zM535.417 860.637l-3.577-36.03 7.335-.729 2.97 29.91 18.238-1.811.607 6.12zM569.794 857.502l-3.087-36.376 7.345-.622 3.087 36.375zM589.174 855.852l-3.54-36.335 11.772-1.147q6.692-.652 8.776-.305 3.203.513 5.576 3.047 2.374 2.534 2.796 6.871.326 3.345-.666 5.745-.993 2.398-2.736 3.882-1.746 1.485-3.637 2.093-2.576.777-7.559 1.263l-4.783.467 1.335 13.706zm4.395-30.904 1.006 10.312 4.015-.393q4.338-.421 5.744-1.135 1.407-.715 2.119-2.008.712-1.295.555-2.906-.193-1.983-1.483-3.158t-3.105-1.323q-1.339-.12-5.303.267zM626.646 852.078l-3.948-36.293 7.327-.797 3.949 36.292zM648.251 849.899l-8.755-35.441 6.962-1.72 20.353 20.085-5.847-23.668 6.647-1.643 8.756 35.44-7.182 1.774-19.997-19.583 5.71 23.112zM718.309 822.117l-7.012 3.892-6.811-5.704-12.762 7.08 1.39 8.713-6.837 3.794-5.279-38.821 6.814-3.781zm-18.876-6.044-10.971-9.405 2.262 14.238zM716.664 808.047l4.414-5.694q3.072 2.007 5.661 1.729 2.59-.279 4.896-2.724 2.443-2.592 2.586-4.938t-1.324-3.729q-.942-.889-2.124-.96-1.183-.072-2.971.845-1.215.634-5.209 3.199-5.135 3.304-8.334 3.573-4.498.379-7.65-2.597c-1.353-1.274-2.256-2.853-2.71-4.729q-.682-2.816.438-5.854 1.119-3.036 4.006-6.098 4.717-5 9.292-5.46t8.354 2.865l-4.821 5.585q-2.372-1.587-4.337-1.302-1.966.286-4.102 2.552-2.204 2.338-2.491 4.564-.188 1.433.847 2.406.942.889 2.363.724 1.808-.212 6.424-3.253 4.613-3.04 7.369-3.984 2.757-.944 5.469-.39 2.712.556 5.229 2.931 2.282 2.154 3.079 5.301c.53 2.099.392 4.226-.422 6.381q-1.22 3.233-4.481 6.693-4.75 5.034-9.624 5.539t-9.827-3.175" style="fill:#f5c042;fill-opacity:1;stroke-width:7.52583408;stroke-miterlimit:4;stroke-dasharray:none" transform="matrix(.19923 0 0 .19557 290.2 413.479)"/></g></g><g style="stroke-width:1.5;stroke-miterlimit:4;stroke-dasharray:none"><path d="M317.83 500.29h54.139m-54.138 2.817h54.138m-54.138 2.816h54.138m-54.138 2.816h54.138m-54.138 2.816h54.138m-54.138 2.816h54.138m-54.138 2.816h54.138m-54.138 2.816h54.138m-54.138 2.817h54.138m-54.138 2.816h54.138m-54.123 2.816h54.123m-54.109 2.816h54.109m-54.095 2.816h54.095m-54.082 2.816h54.082m-54.069 2.816h54.069m-54.057 2.816h54.057m-54.046 2.816h54.046m-54.065 2.816h54.065m-53.829 2.816h53.829m-53.296 2.817h53.296m-52.5 2.816h52.5m-51.44 2.816h51.44m-50.09 2.816h50.09m-48.393 2.816h48.393m-46.247 2.816h46.247m-43.441 2.816h43.44m-39.445 2.816h39.446m-31.127 2.816h31.127m-15.034 2.816h15.034m-6.73 2.817h6.73" style="fill:none;stroke:#f5c042;stroke-width:.70681274;stroke-miterlimit:4;stroke-dasharray:none;stroke-opacity:1" transform="matrix(1 0 0 .98082 0 -5.23)"/><path d="M372.046 428.133c-7.825 10.588-19.296 17.42-36.217 9.608-6.068 8.995-8.979 18.979-29.101 23.578 11.108 9.873 11.123 19.117 10.908 36.632.143 15.93.238 34.377.293 48.77-.529 8.907 6.114 27.637 23.621 29.698 28.678 3.374 30.442 10.815 30.496 11.078.053-.262 1.818-7.704 30.495-11.078 17.508-2.06 24.15-20.791 23.622-29.698.055-14.393.15-32.84.293-48.77-.215-17.515-.2-26.76 10.908-36.632-20.122-4.6-23.033-14.583-29.101-23.578-16.922 7.813-28.392.98-36.217-9.608" style="fill:none;stroke-width:1.5;stroke-miterlimit:4;stroke-dasharray:none" transform="matrix(1 0 0 .98082 0 -5.23)"/><path d="M374.563 584.442v-86.967m2.594 85.318v-85.318m2.595 84.09v-84.09m2.594 83.1v-83.1m2.594 82.275v-82.275m2.595 81.57v-81.57m2.594 80.961v-80.961m2.594 80.43v-80.43m2.595 79.965v-79.965m2.594 79.556v-79.556m2.594 79.195v-79.195m2.595 78.872v-78.872m2.594 78.369v-78.37m2.595 77.563v-77.562m2.594 76.405v-76.405m2.594 74.837v-74.837m2.595 72.767v-72.767m2.594 70.051v-70.051m2.594 66.427v-66.427m2.595 61.245v-61.245" style="fill:none;fill-rule:evenodd;stroke:#f5c042;stroke-width:.70681274;stroke-linecap:butt;stroke-linejoin:miter;stroke-miterlimit:4;stroke-dasharray:none;stroke-opacity:1" transform="matrix(1 0 0 .98082 0 -5.23)"/><path d="M327.485 532.474q-.056 0-.107.003c-.344.03-.554.193-.09.815q.088.118.217.251c.255.265.609.565.93.82.428.342.8.605.8.605s-.808-.329-.94-.16a.1.1 0 0 0-.018.048q-.006.057.052.157c.08.136.254.316.471.513q.164.15.351.308l.377.317q.19.159.362.308c.114.099.22.193.309.28q.136.13.217.234.08.103.085.17a.2.2 0 0 1-.01.072.2.2 0 0 1-.037.056q-.016.013-.035.024a.3.3 0 0 1-.044.023.6.6 0 0 1-.136.035q-.008 0-.014.003c-.165.02-.377.006-.558.006q-.11-.001-.199.01a1 1 0 0 0-.079.015.2.2 0 0 0-.06.026.1.1 0 0 0-.05.091c.006.165.458.493.91.78.45.288.9.534.9.534s-.545.12-.768.334a.4.4 0 0 0-.045.051.3.3 0 0 0-.031.055.2.2 0 0 0-.015.058c-.034.317.18.408.18.408.024.567.127.973.3 1.242q.05.08.11.145a.9.9 0 0 0 .27.198s-.018.024-.042.064c-.036.06-.088.156-.122.26a1 1 0 0 0-.027.106.4.4 0 0 0 .01.204c.09.25.543.362.543.362s-.086.043-.173.117a1 1 0 0 0-.084.083.5.5 0 0 0-.067.1.28.28 0 0 0-.024.178.34.34 0 0 0 .06.133 1 1 0 0 0 .061.069q.074.07.187.142t.252.143q.138.07.289.137c.498.22 1.038.393 1.038.393s-.394.07-.784.172c-.168.044-.33.095-.464.15a1 1 0 0 0-.235.121q-.061.05-.056.1c.017.122.138.214.311.284q.132.052.29.088c.212.049.447.079.654.097a9 9 0 0 0 .554.03s-.181.073-.41.187c-.075.038-.157.08-.238.127a2.8 2.8 0 0 0-.45.307 1 1 0 0 0-.151.165.4.4 0 0 0-.045.083.3.3 0 0 0-.019.082c-.014.269.467.502.83.64.217.082.392.13.392.13s-.06.018-.139.049a1.4 1.4 0 0 0-.19.09 1 1 0 0 0-.105.072c-.063.053-.106.114-.104.18v.001q.002.052.04.106a.4.4 0 0 0 .051.056q.03.03.07.058c.103.077.248.157.403.23a8 8 0 0 0 .834.335s-.34.156-.657.347a2.5 2.5 0 0 0-.413.298 1 1 0 0 0-.066.072q-.057.072-.058.132a.1.1 0 0 0 .017.057.2.2 0 0 0 .05.05.9.9 0 0 0 .323.105c.373.07.928.078 1.256.076.164 0 .272-.004.272-.004s-.178.056-.394.157a2.4 2.4 0 0 0-.44.26 1 1 0 0 0-.095.083.8.8 0 0 0-.149.182.5.5 0 0 0-.044.1.4.4 0 0 0-.01.215.1.1 0 0 0 .013.031l.01.013.013.016c.281.267 2 .075 2 .075s-.948.718-1.164 1.084a.4.4 0 0 0-.036.078.1.1 0 0 0-.005.062.1.1 0 0 0 .01.025.1.1 0 0 0 .02.02q.024.017.067.024a.9.9 0 0 0 .234-.007q.072-.01.155-.026c.66-.128 1.761-.535 1.761-.535s-.852.949-1.062 1.433a.4.4 0 0 0-.045.185.1.1 0 0 0 .02.058.1.1 0 0 0 .056.03c.118.03.362-.043.636-.156a8 8 0 0 0 .336-.148c.45-.21.874-.451.874-.451s-.484.91-.573 1.39a.5.5 0 0 0-.008.197q.015.076.083.088.034.005.08-.007a1 1 0 0 0 .107-.038q.118-.055.27-.157.15-.102.317-.231.167-.13.335-.27c.44-.37.837-.746.837-.746s-.06.126-.143.316c-.146.332-.366.861-.47 1.254-.059.225-.08.405-.028.479q.019.027.053.035c.135.025.456-.223.803-.544q.176-.163.35-.337a20 20 0 0 0 .727-.759c-.253.585-.28 1.26-.478 1.867 0 0-.77.328-1.313.77-.543.441-.61.317-.86.996-.248.68-.135 1.721-.135 1.721.055.042.088.064.136.1a2 2 0 0 0-.227-.1c-.366.338-.838.637-2.127.634l-.028-.302.344-.147s.081-.326.093-.692a2 2 0 0 0-.007-.278 1.4 1.4 0 0 0-.047-.266.8.8 0 0 0-.102-.23.6.6 0 0 0-.17-.162.7.7 0 0 0-.246-.08 1.4 1.4 0 0 0-.301-.007c-.427.03-.93.204-1.217.316a5 5 0 0 0-.234.096s.107-.235.277-.516c.17-.28.402-.606.652-.786a.8.8 0 0 1 .644-.148c.089.014.17.035.24.043.071.008.133.003.185-.034.209-.151.186-.361-.232-.466a1 1 0 0 0-.183-.028 4 4 0 0 0-.457-.003 9 9 0 0 0-.635.056l-.166.022s.053-.065.13-.147c.026-.028.044-.05.078-.081.135-.127.332-.278.582-.377.5-.197 1.197-.035 1.208-.186q0-.014-.011-.03l-.017-.014a.6.6 0 0 0-.149-.085 3 3 0 0 0-.185-.07c-.341-.115-.8-.22-.8-.22v-.278h-.464s.418-1.186.418-1.582a.4.4 0 0 0-.018-.113c-.08-.19-.4.113-.4.113l-.604.884h-.79l.046-1.256s.062-.032.136-.079c.059-.037.123-.08.188-.144a.6.6 0 0 0 .187-.335 1 1 0 0 0 .005-.269 1.2 1.2 0 0 0-.104-.363.8.8 0 0 0-.18-.252.2.2 0 0 0-.033-.021c-.17-.078-.385.3-.385.3v.698l-.279.28h-.51l-.28-.512s-.031-.096-.036-.249a1.27 1.27 0 0 1 .221-.745q.05-.073.106-.135c.11-.126.232-.227.34-.332a1.2 1.2 0 0 0 .188-.223.7.7 0 0 0 .065-.13c.087-.233.124-.429.046-.51a.12.12 0 0 0-.061-.033q-.075-.02-.218.031a2 2 0 0 0-.312.141 2.6 2.6 0 0 0-.989.929 1.556 1.556 0 0 0-.115.231 1.7 1.7 0 0 0-.107.461 2.2 2.2 0 0 0 .013.53c.012.08.023.127.023.127s-.105-.027-.25-.042c-.194-.02-.46-.023-.648.082a.45.45 0 0 0-.208.242c-.065.163-.076.373-.067.56.011.25.058.46.058.46l1.208 1.72-1.487-1.162s-.139-.03-.317-.05a2.5 2.5 0 0 0-.378-.02.6.6 0 0 0-.305.072.2.2 0 0 0-.044.04.14.14 0 0 0-.025.051.2.2 0 0 0-.005.062.4.4 0 0 0 .014.073q.022.077.073.167c.066.119.161.25.26.37.195.241.401.445.401.445l.093 1.069s-.136.116-.228.232a1 1 0 0 0-.057.086c-.021.041-.03.078-.017.104.014.027.049.043.116.043.09 0 .237-.029.407-.073.338-.087.768-.232 1.016-.32.125-.043.204-.072.204-.072v.744s-.061.003-.158.012a4 4 0 0 0-.802.145 1 1 0 0 0-.34.169c-.123.104-.207.163-.245.225a.14.14 0 0 0-.022.066l.002.01a.36.36 0 0 0 .057.17c.044.078.112.18.208.32.072.105.177.224.291.345.037.038.07.076.11.115q.122.122.252.241c.43.396.88.74.88.74l.465.14-.046 1.163s-.064.044-.125.135a.675.675 0 0 0-.107.423 3 3 0 0 0 .036.33c.016.097.036.193.06.28q.021.071.045.133c.033.082.07.149.114.19q.033.032.07.043.036.01.077-.015a.3.3 0 0 0 .079-.076 1 1 0 0 0 .077-.118q.039-.068.073-.14c.091-.194.158-.395.158-.395l.697-.93.16-.068a1 1 0 0 0-.017.128.6.6 0 0 0 .019.198q.009.03.024.058a.3.3 0 0 0 .14.133q.032.015.07.028c.1.032.226.044.353.045.317.003.649-.064.649-.064s-.294.68 0 .906c.294.227.882.295 1.177 0a.4.4 0 0 0 .084-.135.7.7 0 0 0 .038-.16l.002-.013a1.6 1.6 0 0 0-.014-.39v-.001q-.01-.065-.023-.126.234.144.475.305l.065.04.002.003q.204.139.402.285.066.044.13.092l.005.004q.062.047.122.095l.13.102v.001q.118.096.225.19l.004.005.05.048q.081.074.154.147a3 3 0 0 1 .308.368q.111.163.15.286.021.061.027.115a.511.511 0 0 1-.054.276c-.04.08-.095.156-.141.239a.63.63 0 0 0-.087.29.9.9 0 0 0 .11.431q.085.178.205.362c.159.246.354.497.552.73a12 12 0 0 0 1.008 1.048l.325-.326s-.49-.44-.96-.995c-.281-.333-.556-.707-.713-1.051a1.4 1.4 0 0 1-.062-.159.6.6 0 0 1-.02-.34.4.4 0 0 1 .033-.082c.039-.076.094-.136.145-.198l.05-.064a.4.4 0 0 0 .069-.338 1 1 0 0 0-.108-.272 2 2 0 0 0-.107-.175 3 3 0 0 0-.249-.323 6 6 0 0 0-.228-.253l-.008-.009-.003-.003a12 12 0 0 0-.652-.614l-.06-.05a17 17 0 0 0-.649-.534 23 23 0 0 0-.47-.36q-.003 0-.004-.003l.057-.072s1.142-.057 1.99-.137c.21-.02.408-.03.585-.04l.175-.009.048-.002c.22-.01.405-.02.505-.043q0 .003.002.005s.678.238 1.538.136 1.901-.544 1.901-.544l.081.153c-.487.035-1.365.847-2.008 1.685-.737.961-1.357 1.783-1.029 2.128.55.578 1.46-.168 2.18-.982-.668.952-.849 2.23-.533 2.562.566.595 1.237-.586 1.869-1.557-.408 1.113-.388 2.407-.086 2.723.107.113.21.157.308.146a.3.3 0 0 0 .058-.013c.379-.128.685-1.063.928-1.97.176 1.173.511 2.326.97 2.387.514.069.84-1.15 1.029-2.54.037-.274.048-.557.043-.836l.04.15c.285 1.14.701 2.886 1.26 2.822a.3.3 0 0 0 .06-.014.5.5 0 0 0 .189-.131c.301-.317.322-1.612-.086-2.725.632.972 1.303 2.153 1.87 1.558.315-.332.134-1.61-.535-2.562.72.814 1.63 1.56 2.18.983.33-.346-.29-1.168-1.028-2.129-.505-.657-1.152-1.296-1.644-1.559.054-.06.084-.097.084-.097s1.482.442 2.535.181l.269-.067-.015.021a.05.05 0 0 0-.009.027q0 .011.007.021.015.02.061.033c.061.018.16.028.288.036.129.008.287.015.465.024.18.009.38.02.591.04.213.02.443.039.67.055.679.05 1.322.081 1.322.081l.287.37-3.138 3.374.549.618 2.22-2.549-2.426 4.06h.685l2.081-3.605-1.257 3.604h.685l1.432-4.122a1 1 0 0 0 .375-.165.3.3 0 0 0 .049-.047c.07-.087.088-.212.08-.339a1.5 1.5 0 0 0-.051-.292c-.037-.132-.078-.227-.078-.227s.053.01.137.023.2.027.323.035q.094.006.19.005l.01-.001a1.2 1.2 0 0 0 .342-.045 1 1 0 0 0 .07-.027.287.287 0 0 0 .105-.08l.001-.001a.312.312 0 0 0 .058-.11c.044-.143.01-.323-.03-.46a2 2 0 0 0-.075-.2l-.045-.499.679-.135s.192-.51 0-.77a.5.5 0 0 0-.202-.153l-.035-.013 3.526-4.048 1.303-.755.48-1.991-1.783 1.304-.137 1.03-3.31 3.558 2.966-5.137 1.098-1.03.412-2.334-1.852 1.99-.069 1.374-2.922 4.89 1.413-4.066.617-.961-.206-1.923-1.303 1.854.275.893-1.934 5.543a.84.84 0 0 0 .045-.389.4.4 0 0 0-.047-.127.3.3 0 0 0-.1-.099.4.4 0 0 0-.074-.035 1 1 0 0 0-.294-.055 3 3 0 0 0-.466.01c-.307.027-.57.08-.57.08l-.135 1.45a6 6 0 0 1-.825-.05 3 3 0 0 1-.318-.06 2.04 2.04 0 0 1-.984-.524l-.046.016c.006-.036.014-.066.019-.106.113-.884.012-1.697-1.041-2.356-.285-.178-.892-1.054-1.568-1.973q.084.083.167.161.175.162.332.29c.104.082.199.15.28.195q.06.034.108.05.048.015.083.008a.083.083 0 0 0 .053-.035c.025-.036.033-.1.027-.182a1 1 0 0 0-.02-.137 5 5 0 0 0-.219-.713c-.096-.256-.203-.51-.287-.7s-.143-.316-.143-.316.099.094.253.234.363.327.584.512.452.368.652.5q.15.103.269.157.118.055.187.046.066-.012.083-.088a.5.5 0 0 0-.007-.197 2 2 0 0 0-.074-.27c-.163-.488-.5-1.12-.5-1.12s.425.24.875.451c.225.106.456.204.643.26.141.043.258.063.329.045a.1.1 0 0 0 .054-.031.1.1 0 0 0 .022-.058.4.4 0 0 0-.046-.185 2.6 2.6 0 0 0-.23-.392c-.328-.48-.832-1.041-.832-1.041s.765.283 1.402.451c.191.05.37.09.515.11a1 1 0 0 0 .233.007.2.2 0 0 0 .068-.024c.13-.09-.164-.408-.49-.702a11 11 0 0 0-.466-.394c-.13-.104-.22-.172-.22-.172s1.291.143 1.819.008a.4.4 0 0 0 .18-.084.2.2 0 0 0 .024-.028.1.1 0 0 0 .012-.032.4.4 0 0 0 .01-.11.5.5 0 0 0-.064-.205 1 1 0 0 0-.065-.094 1.33 1.33 0 0 0-.179-.17 2.4 2.4 0 0 0-.439-.26c-.215-.102-.393-.158-.393-.158s.107.003.271.004c.41.002 1.174-.012 1.496-.14q.097-.038.133-.09a.1.1 0 0 0 .017-.057.2.2 0 0 0-.015-.063.4.4 0 0 0-.043-.07 1.2 1.2 0 0 0-.251-.221c-.142-.101-.312-.2-.464-.284-.23-.124-.42-.211-.42-.211s.071-.024.182-.065c.165-.061.419-.16.651-.27.155-.074.3-.154.404-.231a1 1 0 0 0 .07-.058.4.4 0 0 0 .05-.056.2.2 0 0 0 .04-.106v-.005a.17.17 0 0 0-.026-.09.4.4 0 0 0-.076-.085l-.043-.03a1 1 0 0 0-.139-.082l-.038-.02-.031-.012c-.1-.042-.183-.067-.183-.067s.953-.26 1.176-.614a.27.27 0 0 0 .045-.157.3.3 0 0 0-.018-.081l-.015-.03a.6.6 0 0 0-.096-.136 1 1 0 0 0-.085-.083 2.8 2.8 0 0 0-.45-.307 6.307 6.307 0 0 0-.648-.314s.245-.002.555-.03c.207-.018.442-.048.653-.097a3 3 0 0 0 .153-.04 1 1 0 0 0 .352-.17.3.3 0 0 0 .066-.075.2.2 0 0 0 .032-.086c.005-.034-.017-.067-.056-.1a1 1 0 0 0-.073-.05c-.256-.146-.834-.279-1.165-.347-.147-.03-.245-.047-.245-.047s1.38-.442 1.765-.815c.384-.374-.227-.68-.227-.68s.347-.086.494-.275a.3.3 0 0 0 .05-.086c.045-.125 0-.284-.057-.411a2 2 0 0 0-.084-.16l-.04-.064q.15-.068.268-.197c.16-.173.276-.43.345-.783q.051-.265.065-.605s.054-.023.103-.085a.4.4 0 0 0 .08-.214.6.6 0 0 0-.002-.109.2.2 0 0 0-.015-.058.3.3 0 0 0-.032-.054.5.5 0 0 0-.101-.1 1 1 0 0 0-.138-.085c-.25-.13-.573-.201-.573-.201s.45-.246.9-.534a7 7 0 0 0 .623-.436 2 2 0 0 0 .116-.1c.104-.098.169-.182.171-.244q.001-.06-.05-.091c-.066-.042-.192-.051-.337-.051-.182 0-.394.014-.558-.006a1 1 0 0 1-.093-.017c-.114-.029-.189-.086-.183-.197.017-.349 1.855-1.585 2.172-2.129q.058-.1.052-.157c-.022-.27-.957.112-.957.112s1.135-.806 1.729-1.425a3 3 0 0 0 .217-.25c.464-.623.254-.786-.09-.816a1 1 0 0 0-.185.002q-.014 0-.029.002-.042.005-.085.012a3 3 0 0 0-.184.03l-.101.023a5 5 0 0 0-.202.052l-.101.03a7 7 0 0 0-.579.2l-.11.043-.145.06q-.291.12-.586.254l-.059.028a18 18 0 0 0-.859.43q-.13.068-.253.135a14 14 0 0 0-.32.184c-.09.053-.186.107-.263.155l-.032.02a4 4 0 0 0-.327.224c-.818.427-2.868 1.548-4.397 2.828-1.934 1.619-2.172 1.992-2.942 3.442-.769 1.45-.135 2.356-.135 2.356 2.502 1.556.533 3.77-1.75 4.359l-.196-.42s.135-.735.045-1.086-.407-.317-.407-.317c-.048-1.54.033-3.08-.589-4.62h.589s-1.438-1.617-2.67-2.174c-.827-.374-2.263-.046-2.263-.046l-.036.08c-.09-.028-.633-.187-1.141-.125-.554.068-.874-.118-1.04.408-.184.58-.186 1.147.452 1.72l.226-.724q.058-.034.115-.061l-.115.333s.35.328.679.272q.011-.003.023-.007l-.023.052s.407.26.679.68c.271.419.136.622.407.996s.679.498.679.498v.86s-.747.533-1.041.952.068.283-.136.724c-.204.442-.51.6-.679 1.043-.17.441 0 .724 0 .724l-.004.01-.358.262-.022.111v.002h-.004c-2.282-.58-4.08-2.804-1.57-4.366 0 0 .634-.906-.135-2.356-.77-1.45-1.007-1.823-2.942-3.442-1.582-1.324-3.698-2.466-4.449-2.855l-.002-.002c-.013-.016-.035-.035-.057-.055a1 1 0 0 0-.136-.107l-.06-.043a7 7 0 0 0-.36-.23c-.102-.06-.22-.127-.34-.193-.08-.046-.152-.089-.24-.136-.148-.08-.308-.16-.47-.242-.078-.04-.15-.079-.229-.117l-.008-.004-.018-.01a17 17 0 0 0-.67-.306q-.015-.007-.029-.013-.055-.024-.111-.046l-.257-.106-.13-.049-.222-.083q-.074-.026-.147-.049l-.182-.058-.146-.041-.168-.043q-.063-.014-.124-.025a2.5 2.5 0 0 0-.33-.04zm19.806 14.453.551.42-.045.01-.517-.341zm1.136 1.854q-.002.001-.003.002zm7.48 8.779-.064.18-.02.011s.043-.082.083-.191" style="fill:#f5c042;fill-opacity:1;stroke:none;stroke-width:1.5;stroke-miterlimit:4;stroke-dasharray:none" transform="matrix(1 0 0 .98082 0 -5.23)"/><path d="M372.046 428.133c-7.825 10.588-19.296 17.42-36.217 9.608-6.068 8.995-8.979 18.979-29.101 23.578 11.108 9.873 11.123 19.117 10.908 36.632.143 15.93.238 34.377.293 48.77-.529 8.907 6.114 27.637 23.621 29.698 28.678 3.374 30.442 10.815 30.496 11.078.053-.262 1.818-7.704 30.495-11.078 17.508-2.06 24.15-20.791 23.622-29.698.055-14.393.15-32.84.293-48.77-.215-17.515-.2-26.76 10.908-36.632-20.122-4.6-23.033-14.583-29.101-23.578-16.922 7.813-28.392.98-36.217-9.608z" style="fill:none;stroke:#f5c042;stroke-width:1.51459873;stroke-miterlimit:4;stroke-dasharray:none;stroke-opacity:1" transform="matrix(1 0 0 .98082 0 -5.23)"/><path d="m331.307 467.59 3.022 6.158 6.787.974-4.919 4.78 1.172 6.76-6.062-3.204-6.062 3.204 1.172-6.76-4.919-4.78 6.787-.974zM412.784 467.59l-3.022 6.158-6.786.974 4.918 4.78-1.172 6.76 6.062-3.204 6.062 3.204-1.171-6.76 4.918-4.78-6.786-.974zM372.046 439.847l-3.023 6.159-6.786.974 4.918 4.78-1.171 6.76 6.062-3.204 6.062 3.204-1.172-6.76 4.919-4.78-6.787-.974z" style="fill:#f5c042;fill-opacity:1;stroke-width:1.5;stroke-miterlimit:4;stroke-dasharray:none" transform="matrix(1 0 0 .98082 0 -5.23)"/><path d="M371.969 587.59v-90.115M317.642 497.475H426.45" style="fill:none;fill-rule:evenodd;stroke:#f5c042;stroke-width:1.51459873;stroke-linecap:butt;stroke-linejoin:miter;stroke-miterlimit:4;stroke-dasharray:none;stroke-opacity:1" transform="matrix(1 0 0 .98082 0 -5.23)"/><path d="M401.98 532.886c-1.324.02-1.568.758-1.609 1.113-.41.011-3.426.097-4.673.212-.29.027-.22.57-.206.75.015.2.054.389.088.585.058.33.137.576.509.618.278.032.558-.052.835-.062.178-.007.294-.003.357.179.082.233.248 1.004-.003 1.168-.005.003-.048.032-.114.071l.004-.034c0-.212-.239-.285-.515-.258-.275.028-.588.156-.588.368 0 .076.042.162.105.24-.188-.037-.215-.124-.215-.124l-.34-.063-.028.683s.368.487.883.552c.514.064 1.176-.295 1.176-.295l.184 1.104.053-.213v.11l.396.472c-.484-.068-1.536-.193-2.485-.157a10 10 0 0 0-2.352.392l.013-.052-.772-.11-1.948-.037c-2.225-1.286-3.2-1.735-4.798-2.667-.211-.124-.615-.055-.827.386-.211.442-.092.92-.073 1.104.073.728.312.974 1.03 1.36.716.387 1.837.185 1.837.185 1.743 2.407 2.478 2.417 3.493 3.09l.158-.152a9.5 9.5 0 0 0-.489 1.194c-.02.06-.035.116-.053.174l-3.194-.084-.418.18s-.866-.568-1.493-.3c-.627.27-1.06.778-1.015 1.376s1.194 1.016 1.194 1.016h1.673l1.433-.658s.694.301 1.564.637c.053.373.153.67.23.97.5 1.945 1.697 2.736 3.35 4.023.388.302 1.035.37 1.501.464.534.107 1.415.045 1.86.41-.262-.075-.457-.09-.457-.09l.552.773s-1.057.175-1.985 1.104-1.085 1.416-1.507 2.391c-.423.975-.295 1.582-.295 1.582l2.537 1.435-2.83 1.656s-.561-.184-.92.073a1.17 1.17 0 0 0-.514.957c-.01.358.478.478.478.478l.845.11s.632.175 1.357-.182c.506-.25.826-.765 1.282-1.094.63-.455 3.84-1.053 2.985-2.292-.266-.387-.809-.552-.809-.552s-.24-.037.074-.589c.292-.514.898-.763 1.35-.884 1.248 1.516 3 1.269 3.006 1.268.157-.022.53.596.595.705.168.276.297.57.3.898.005.761-.532 1.25-1.095 1.676-.466.352-.962.829-1.51 1.038-.58.222-1.5-.323-1.858.393-.104.209-.335 1.568-.057 1.678.12.047 2.026.252 2.719.354.26.039.39-.525.383-.545-.11-.302 2.489-2.723 2.822-3.056 1.222-1.222 3.447-4.264.025-3.575l.08-3.115s1.037-1.232 1.257-2.536c.657.136 1.544.26 2.322.144a2.356 2.356 0 0 0 1.89-2.317c.055-1.698-1.324-2.999-1.67-4.476-.063-.27.06-.884.425-1.272.363-.389 1.067-.245 1.067-.245s.02.774.448 1.031c.427.258.825-.218 1.261 0 .437.219.485.874.485.874s.654.293.787-.11c.133-.404.158-.872-.255-1.503-.412-.632-.604-.717-1.21-.911-.607-.194-1.068.097-1.068.097s-1.067-.51-1.746 0c-.68.51-1.03 1.663-.97 2.04.244 1.543 1.646 2.618 1.649 4.174s-.36 1.575-1.305 1.939c-.652.25-1.571-.07-2.087-.296-.088-.889-.497-1.625-1.38-2.004-.852-.367-2.108-.412-3.018-.306-.81.094-1.359-.32-1.932-.84-.579-.523-.812-1.045-.782-1.842.02-.545.543-1.485 1.035-2.257q.014.006.029.01c.325.029 1.142-1.026 1.142-1.026s-.098.838.197.828.985-.868.985-.868.551.119.985 0c.433-.118.749-.473.749-.473-.306-.123-.623-.225-.828-.552l1.419-.118v-.355l-.71-.08s.64.01 1.222-.354c.58-.365 1.113-.581 1.103-1.104-.01-.522-1.26-.828-1.26-.828s1.112.03 1.26-.197-.67-.71-.67-.71v-.354s.276.128.433 0c.158-.128.198-.513.198-.513l-1.734-1.42s.727.44 1.103.237c.702-.38.731-.597.473-.907-.7-.243-.87-.839-.946-1.498 0 0-2.353-1.637-3.624-1.617z" style="fill:#f5c042;fill-opacity:1;stroke:none;stroke-width:1.5;stroke-miterlimit:4;stroke-dasharray:none" transform="matrix(1 0 0 .98082 0 -5.23)"/><path d="M399.114 497.951c.003 18.63-12.117 33.736-27.068 33.736s-27.07-15.105-27.068-33.736c-.003-18.63 12.117-33.735 27.068-33.735s27.07 15.104 27.068 33.735z" style="fill:#750b0b;fill-opacity:1;stroke:#f5c042;stroke-width:1.51459873;stroke-miterlimit:4;stroke-dasharray:none;stroke-opacity:1" transform="matrix(1 0 0 .98082 0 -5.23)"/><g style="fill:#f5c042;fill-opacity:1;stroke-width:1.5;stroke-miterlimit:4;stroke-dasharray:none"><g style="fill:#f5c042;fill-opacity:1;stroke:#f5c042;stroke-width:2.53302646;stroke-miterlimit:4;stroke-dasharray:none;stroke-opacity:1"><g style="fill:#f5c042;fill-opacity:1;stroke:#f5c042;stroke-width:2.53302646;stroke-miterlimit:4;stroke-dasharray:none;stroke-opacity:1"><path d="M497.502 269.645h-10.668l-76.036 86.703 86.704-76.036z" style="fill:#f5c042;fill-opacity:1;stroke:#f5c042;stroke-width:2.53302646;stroke-miterlimit:4;stroke-dasharray:none;stroke-opacity:1" transform="matrix(.19923 0 0 .19557 290.2 413.479)"/><path d="M478.163 268.558h-8.705l-58.66 87.79zM498.588 297.69v-8.705l-87.79 67.363z" style="fill:#f5c042;fill-opacity:1;stroke:#f5c042;stroke-width:2.53302646;stroke-miterlimit:4;stroke-dasharray:none;stroke-opacity:1" transform="matrix(.19923 0 0 .19557 290.2 413.479)"/></g><g style="fill:#f5c042;fill-opacity:1;stroke:#f5c042;stroke-width:2.53302646;stroke-miterlimit:4;stroke-dasharray:none;stroke-opacity:1"><path d="m533.415 356.348-7.542-7.542-115.075 7.542 115.075 7.543zM520.508 341.905l-6.155-6.156-103.555 20.599zM514.353 376.947l6.155-6.156-109.71-14.443z" style="fill:#f5c042;fill-opacity:1;stroke:#f5c042;stroke-width:2.53302646;stroke-miterlimit:4;stroke-dasharray:none;stroke-opacity:1" transform="matrix(.19923 0 0 .19557 290.2 413.479)"/></g><g style="fill:#f5c042;fill-opacity:1;stroke:#f5c042;stroke-width:2.53302646;stroke-miterlimit:4;stroke-dasharray:none;stroke-opacity:1"><path d="M497.502 443.051v-10.666l-86.704-76.037 76.036 86.703z" style="fill:#f5c042;fill-opacity:1;stroke:#f5c042;stroke-width:2.53302646;stroke-miterlimit:4;stroke-dasharray:none;stroke-opacity:1" transform="matrix(.19923 0 0 .19557 290.2 413.479)"/><path d="M498.588 423.711v-8.704l-87.79-58.659z" style="fill:#f5c042;fill-opacity:1;stroke:#f5c042;stroke-width:2.53302646;stroke-miterlimit:4;stroke-dasharray:none;stroke-opacity:1" transform="matrix(.19923 0 0 .19557 290.2 413.479)"/><path d="M469.458 444.138h8.705l-67.365-87.79z" style="fill:#f5c042;fill-opacity:1;stroke:#f5c042;stroke-width:2.53302646;stroke-miterlimit:4;stroke-dasharray:none;stroke-opacity:1" transform="matrix(.19923 0 0 .19557 290.2 413.479)"/></g><g style="fill:#f5c042;fill-opacity:1;stroke:#f5c042;stroke-width:2.53302646;stroke-miterlimit:4;stroke-dasharray:none;stroke-opacity:1"><path d="m410.798 503.115 7.543-7.542-7.543-139.225-7.543 139.225zM425.243 490.207l6.153-6.155-20.598-127.704zM390.2 484.052l6.155 6.155 14.443-133.859z" style="fill:#f5c042;fill-opacity:1;stroke:#f5c042;stroke-width:2.53302646;stroke-miterlimit:4;stroke-dasharray:none;stroke-opacity:1" transform="matrix(.19923 0 0 .19557 290.2 413.479)"/></g><g style="fill:#f5c042;fill-opacity:1;stroke:#f5c042;stroke-width:2.53302646;stroke-miterlimit:4;stroke-dasharray:none;stroke-opacity:1"><path d="M352.14 268.558h-8.705l67.363 87.789zM324.095 269.645v10.667l86.703 76.036-76.036-86.703zM410.798 356.348l-87.79-67.363v8.705z" style="fill:#f5c042;fill-opacity:1;stroke:#f5c042;stroke-width:2.53302646;stroke-miterlimit:4;stroke-dasharray:none;stroke-opacity:1" transform="matrix(.19923 0 0 .19557 290.2 413.479)"/></g><g style="fill:#f5c042;fill-opacity:1;stroke:#f5c042;stroke-width:2.53302646;stroke-miterlimit:4;stroke-dasharray:none;stroke-opacity:1"><path d="m307.244 376.947-6.156-6.156 109.71-14.443zM307.244 335.749l-6.156 6.156 109.71 14.443zM288.182 356.348l7.542 7.543 115.074-7.543-115.074-7.542z" style="fill:#f5c042;fill-opacity:1;stroke:#f5c042;stroke-width:2.53302646;stroke-miterlimit:4;stroke-dasharray:none;stroke-opacity:1" transform="matrix(.19923 0 0 .19557 290.2 413.479)"/></g><g style="fill:#f5c042;fill-opacity:1;stroke:#f5c042;stroke-width:2.53302646;stroke-miterlimit:4;stroke-dasharray:none;stroke-opacity:1"><path d="m396.354 222.489-6.154 6.156 20.598 127.702z" style="fill:#f5c042;fill-opacity:1;stroke:#f5c042;stroke-width:2.53302646;stroke-miterlimit:4;stroke-dasharray:none;stroke-opacity:1" transform="matrix(.19923 0 0 .19557 290.2 413.479)"/><path d="m403.255 217.124 7.543 139.223v.001l7.543-139.224-7.543-7.543zM431.396 228.645l-6.153-6.156-14.445 133.859z" style="fill:#f5c042;fill-opacity:1;stroke:#f5c042;stroke-width:2.53302646;stroke-miterlimit:4;stroke-dasharray:none;stroke-opacity:1" transform="matrix(.19923 0 0 .19557 290.2 413.479)"/></g><g style="fill:#f5c042;fill-opacity:1;stroke:#f5c042;stroke-width:2.53302646;stroke-miterlimit:4;stroke-dasharray:none;stroke-opacity:1"><path d="M324.095 443.051h10.667l76.036-86.703-86.703 76.037zM343.435 444.138h8.705l58.658-87.79z" style="fill:#f5c042;fill-opacity:1;stroke:#f5c042;stroke-width:2.53302646;stroke-miterlimit:4;stroke-dasharray:none;stroke-opacity:1" transform="matrix(.19923 0 0 .19557 290.2 413.479)"/><path d="M323.008 415.007v8.704l87.79-67.363z" style="fill:#f5c042;fill-opacity:1;stroke:#f5c042;stroke-width:2.53302646;stroke-miterlimit:4;stroke-dasharray:none;stroke-opacity:1" transform="matrix(.19923 0 0 .19557 290.2 413.479)"/></g></g><path d="M384.935 497.951c0 7.124-5.77 12.9-12.89 12.9-7.118 0-12.889-5.776-12.889-12.9s5.771-12.9 12.89-12.9c7.118 0 12.89 5.776 12.89 12.9" style="fill:#f5c042;fill-opacity:1;stroke-width:1.5;stroke-miterlimit:4;stroke-dasharray:none" transform="matrix(1 0 0 .98082 0 -5.23)"/></g></g></g><g transform="matrix(1.09639 0 0 1.09639 -35.86 -66.87)"><path d="M355.57 671.605h32.955v21.04H355.57z" style="opacity:1;fill:#f5c042;fill-opacity:1;stroke:none;stroke-width:1.5;stroke-linecap:butt;stroke-linejoin:miter;stroke-miterlimit:4;stroke-dasharray:none;stroke-dashoffset:0;stroke-opacity:1"/><path d="M355.57 682.125h32.955" style="fill:#f5c042;fill-opacity:1;fill-rule:evenodd;stroke:#750b0b;stroke-width:1.36813188;stroke-linecap:butt;stroke-linejoin:miter;stroke-miterlimit:4;stroke-dasharray:none;stroke-opacity:1"/><circle cx="372.047" cy="682.125" r="5.387" style="opacity:1;fill:#f5c042;fill-opacity:1;stroke:#750b0b;stroke-width:1.36813188;stroke-linecap:butt;stroke-linejoin:miter;stroke-miterlimit:4;stroke-dasharray:none;stroke-dashoffset:0;stroke-opacity:1"/></g></g></svg>