<svg xmlns="http://www.w3.org/2000/svg" viewBox="0 0 799.56 1085.59"><defs><style>.cls-1{fill:#800020;}.cls-2{fill:#ffd283;}</style></defs><g id="Capa_2" data-name="Capa 2"><g id="Capa_1-2" data-name="Capa 1"><g id="rect3523"><path class="cls-1" d="M0,0V1085.59H764.17a35.33,35.33,0,0,0,35.39-35.41V35.41A35.33,35.33,0,0,0,764.17,0H0Z"/></g><g id="path6"><path class="cls-2" d="M128.17,396.4l-.83,0h-.18l-.53-1.05.45,0c.58,0,1.16-.05,1.72-.06l.55,0c0-.65,0-1.31.09-1.94l.6,0v.21c.06.83.06,1.72.06,2.57v.3h-1.93Z"/></g><g id="path10"><path class="cls-2" d="M132.8,402.26a17.82,17.82,0,0,1-.13-2.89v-.29h.3l1.13,0h.9c0-.87,0-1.75,0-2.62l-2.65-.09v-.28c0-1,0-1.83,0-2.63l.6-.06a8.85,8.85,0,0,1,.26,1.84l1.05,0,1.34,0h.29v.3c0,1.34,0,2.72,0,4.09v.27l-.27,0c-.7.06-1.4.09-2.09.11,0,.73-.06,1.47-.14,2.2Z"/></g><g id="path12"><path class="cls-2" d="M132.89,402.39l-.32,0c-.51,0-1,0-1.58,0h-1.13V399h-2.45v-2.78h.29c.72,0,1.45-.08,2.16-.13,0-.75,0-1.48,0-2.24v-.3h.31c.68,0,1.39,0,2.07,0h.29v.29c0,.75,0,1.52,0,2.26.81,0,1.59.05,2.39.05h.35l0,.35a4.5,4.5,0,0,0,0,.9,2.71,2.71,0,0,1-.25,1.73l-.09.13h-.16c-.49,0-1,0-1.44,0h-.42c0,.91-.05,1.85-.05,2.75Zm-4.88-4h2.45v3.36h1.82c0-.91,0-1.85.06-2.75v-.3h2.26a2.73,2.73,0,0,0,.09-1.23c0-.23,0-.46,0-.68-.78,0-1.53,0-2.32-.06H132v-.3c0-.73,0-1.49,0-2.24h-1.5c0,.73,0,1.44,0,2.19v.28l-.28,0c-.71.06-1.44.11-2.17.14Z"/></g><g id="path14"><path class="cls-2" d="M133.36,409.41H125.5v-.3c0-.77,0-1.53.09-2.26l0-.28h1.7c.83,0,1.69,0,2.54,0,0-.27,0-.55,0-.83,0-.95,0-1.94,0-2.9v-.09l0-.06c.53-.76,1.39-.63,2.09-.53a4,4,0,0,0,.56.06h.29v.29c0,.73,0,1.47,0,2.18s0,1.24,0,1.85c1.41,0,2.77,0,4.21,0h.3v.3c0,.36,0,.72,0,1.09s0,.77,0,1.15v.3h-.3Zm-7.25-.62h3.48c2.38,0,4.83,0,7.26,0,0-.28,0-.56,0-.84s0-.53,0-.8c-1.43,0-2.8,0-4.21,0h-.29v-.29c0-.72,0-1.45,0-2.16s0-1.26,0-1.9l-.35,0c-.7-.1-1.16-.14-1.45.21-.06.91-.05,1.85,0,2.76v1.46h-.3c-.95,0-1.91,0-2.84,0h-1.14C126.14,407.69,126.12,408.23,126.11,408.79Z"/></g><g id="path16"><path class="cls-2" d="M128.28,406.79a7.93,7.93,0,0,1-2.32-.28l-.34-.11.15-.32a6.73,6.73,0,0,1,3.84-3.6l.37-.12,0,.38a29,29,0,0,1,0,3.73v.28l-.7,0Zm-1.79-.77a10.81,10.81,0,0,0,2.79.15h.14a29.28,29.28,0,0,0,0-3A6.12,6.12,0,0,0,126.49,406Z"/></g><g id="path18"><path class="cls-2" d="M134.88,406.79c-.62,0-1.24,0-1.87-.09l-.28,0v-1.18c0-.91,0-1.85,0-2.77l0-.37.36.09a6,6,0,0,1,4.08,3.82l.13.36-.38.05A17.92,17.92,0,0,1,134.88,406.79Zm-1.54-.67a18.62,18.62,0,0,0,3.17,0,5.43,5.43,0,0,0-3.16-3c0,.78,0,1.57,0,2.34Z"/></g><g id="path20"><path class="cls-2" d="M133.08,414.23l-.07-.33c0-.2-.06-.42-.08-.63a1.86,1.86,0,0,0-.5-1.37l0,0a1.47,1.47,0,0,0-1.21-.39,1.56,1.56,0,0,0-1.12.67,6.33,6.33,0,0,0-.29,1.32l-.1.67-.36-.15a6,6,0,0,1-3.66-4.4l-.07-.36H126c3.74,0,7.52,0,11.23,0h.41l-.12.39a6.56,6.56,0,0,1-4.07,4.5Zm-.27-2.8a2.41,2.41,0,0,1,.72,1.78c0,.07,0,.15,0,.22a6,6,0,0,0,3.21-3.59c-3.45,0-6.95,0-10.43,0a5.45,5.45,0,0,0,2.87,3.44,5.49,5.49,0,0,1,.32-1.36l0-.05a2.17,2.17,0,0,1,1.58-1A2.06,2.06,0,0,1,132.81,411.43Z"/></g><g id="path22"><path class="cls-2" d="M113.89,417.35l.12-.92c.22-1.72,2-1.81,3.21-1.87h.25a3.58,3.58,0,0,1,1.6-2.49l.06,0a6.22,6.22,0,0,1,2.47,0l.47.06a2,2,0,0,0,.13-.25,2.77,2.77,0,0,1,.87-1.11l.05,0a9.22,9.22,0,0,1,1.56-.41l.87-.2.26-.07.1.25a10,10,0,0,0,.5,1.1l.29.58-.63-.16a5.18,5.18,0,0,1-.56-.17,2,2,0,0,0-1.57-.12,2.4,2.4,0,0,0-1,1.32c-.09.18-.18.36-.27.52l-.14.25-.25-.12-.37-.18c-.71-.35-1.45-.72-2.09-.3l-.06,0c-.83.3-1,1.2-1.1,2.08,0,.15,0,.3-.07.44l-.06.3-.3-.06-.65-.14a10,10,0,0,0-1.15-.21,3.8,3.8,0,0,0-1.85,1.26Zm4-2.25,0,0,0-.12.06-.36c0,.05,0,.1,0,.15Zm4.07-2.43.12.06.1,0,0-.08h-.06Zm3-1.85a5.15,5.15,0,0,1,.56.16l-.12-.26Z"/></g><g id="path24"><path class="cls-2" d="M149.14,419.15l-.33-.63c-.16-.28-.28-.58-.41-.87a4.31,4.31,0,0,0-1-1.67,3.15,3.15,0,0,0-2.05-.32c-.28,0-.56,0-.85,0h-.19l-.07-.18c-.09-.2-.17-.42-.24-.62a3,3,0,0,0-1-1.64,3.9,3.9,0,0,0-2.06,0l-.42.08-.21,0-.11-.19a2.15,2.15,0,0,0-.14-.26,5,5,0,0,0-.81-1.22,2.65,2.65,0,0,0-1.52-.24h-.6l-.42,0,.15-.39c0-.09.07-.19.11-.28l.19-.49.08-.27.28.07.49.11a7.53,7.53,0,0,1,1.34.39h0a4.87,4.87,0,0,1,1.24,1.15l.29.33h0a3,3,0,0,1,2.71.27,2.86,2.86,0,0,1,1.21,2.25h.5a11.19,11.19,0,0,1,2.08.14l.06,0,.06,0a7.89,7.89,0,0,1,1.31,1.34l.07-.11a7.08,7.08,0,0,1,.51-.71l.06-.05a3.39,3.39,0,0,1,2.26-.35l.52,0h.2l.07.18c0,.07.08.17.13.26s.11.23.14.32l.21.51-.55-.1-.36-.08a2.3,2.3,0,0,0-1.88.08,2.06,2.06,0,0,0-.68,1.49,4.83,4.83,0,0,1-.18.84Zm-.34-2.09c0,.11.11.23.16.35v0c0-.19.07-.38.12-.56l-.21.27Zm-8.27-4.44v0l0,.07h0l-.08-.08Zm1.64-.12a2.47,2.47,0,0,1,.54.05,2.09,2.09,0,0,0-.79,0Zm-4.58-1.75a.5.5,0,0,0-.05.13h.56l-.27-.06Z"/></g><g id="path26"><path class="cls-2" d="M124.54,415.08h0a1.83,1.83,0,0,1-1.69-1.46,2,2,0,0,1,.74-2.21,1.93,1.93,0,0,1,2.74.73,2.06,2.06,0,0,1-.14,2A1.91,1.91,0,0,1,124.54,415.08Zm0-3.37a1.18,1.18,0,0,0-.67.2h0a1.36,1.36,0,0,0-.49,1.54,1.27,1.27,0,0,0,1.12,1,1.33,1.33,0,0,0,1.13-.66,1.46,1.46,0,0,0,.11-1.41,1.25,1.25,0,0,0-.84-.65A1.48,1.48,0,0,0,124.56,411.71Z"/></g><g id="path28"><path class="cls-2" d="M131.33,414.79a1.52,1.52,0,0,1-.89-.28,1.75,1.75,0,0,1-.77-1.78,1.62,1.62,0,0,1,1.2-1.39,1.84,1.84,0,0,1,1.65.35,1.6,1.6,0,0,1,.64,1.35,1.87,1.87,0,0,1-1,1.56A1.69,1.69,0,0,1,131.33,414.79Zm0-2.91a1.06,1.06,0,0,0-.31,0h0a1,1,0,0,0-.75.89,1.15,1.15,0,0,0,.5,1.18,1,1,0,0,0,1.07.06,1.24,1.24,0,0,0,.71-1,1,1,0,0,0-.41-.86A1.31,1.31,0,0,0,131.35,411.88Z"/></g><g id="path30"><path class="cls-2" d="M138.17,415.09a1.6,1.6,0,0,1-1-.35,2,2,0,0,1-.78-1.95,1.74,1.74,0,0,1,1.1-1.47,2,2,0,0,1,2,.28,1.55,1.55,0,0,1,.65,1.49,1.83,1.83,0,0,1-1,1.74A1.86,1.86,0,0,1,138.17,415.09Zm0-3.32a1.2,1.2,0,0,0-.47.1l0,0a1.16,1.16,0,0,0-.72,1,1.5,1.5,0,0,0,.54,1.39,1.17,1.17,0,0,0,1.29.05,1.26,1.26,0,0,0,.69-1.19V413a1,1,0,0,0-.42-.95A1.5,1.5,0,0,0,138.21,411.77Z"/></g><g id="path32"><path class="cls-2" d="M109.5,440.48l-.11-.38c-.09-.3-.18-.6-.27-.87L109,439l.25-.11a4,4,0,0,0,2.67-3.39c.14-1.48-.86-2.64-2-3.68l-.4-.37.53-.14a3.92,3.92,0,0,0,3.07-3.18v0a4,4,0,0,0-1.06-3.15l-.32-.42.53-.06a3.46,3.46,0,0,0,2.66-1.08l0,0a2.92,2.92,0,0,0,.28-3.1l-.2-.5.53.09c1.34.22,2.24,0,2.77-.68l0,0c.7-.61.53-1.65.39-2.56l-.09-.56.51.23a2.57,2.57,0,0,0,2.13.28,2.77,2.77,0,0,0,1.14-1.66c0-.12.09-.25.14-.37l.13-.31.3.16c1.1.62,1.85.7,2.35.28l0,0a2.38,2.38,0,0,0,.82-1.9c0-.1,0-.21,0-.3l.08-.52.41.32.28.21a5.91,5.91,0,0,1,1,.89l.06.07v.08a6.31,6.31,0,0,1-.12,2,8.33,8.33,0,0,0-.15,1.07v.26l-.26,0a14,14,0,0,0-10.48,6.73c-2.59,4.17-4,9.43-4.1,15.64v.18l-.15.08-1,.57-.15.09-.15-.09-.71-.36-.19.13c-.28.2-.54.38-.82.56Zm.28-1.18c0,.08,0,.16.07.24l.46-.32.35-.24.14-.1.16.08.74.37.74-.41c.16-6.24,1.57-11.54,4.18-15.77a14.65,14.65,0,0,1,10.69-7c0-.3.08-.6.13-.89a6.24,6.24,0,0,0,.14-1.7,5.5,5.5,0,0,0-.73-.63,2.72,2.72,0,0,1-1,2.1,2.41,2.41,0,0,1-2.71-.06l0,.05a3.29,3.29,0,0,1-1.43,2,2.58,2.58,0,0,1-2.14-.06,2.77,2.77,0,0,1-.64,2.56,3,3,0,0,1-2.83,1,3.37,3.37,0,0,1-.55,3.24,3.42,3.42,0,0,1-2.57,1.26,4.25,4.25,0,0,1,.88,3.19,4.41,4.41,0,0,1-3,3.55,4.82,4.82,0,0,1,1.78,3.79A4.5,4.5,0,0,1,109.78,439.3Z"/></g><g id="path34"><path class="cls-2" d="M153.15,441l-.42-.42c-.32-.32-.6-.65-.87-1a3.57,3.57,0,0,1-2.48-.52l-.15-.09v-.17c-.26-7.86-2.08-13.64-5.55-17.69a15.44,15.44,0,0,0-8.49-4.87l-.22-.05,0-.22c0-.28-.05-.56-.09-.83a11,11,0,0,1-.12-1.43v-.08l0-.08a5.19,5.19,0,0,1,.86-1l.22-.21.36-.36.14.48c.05.15.09.29.13.44.2.77.4,1.5,1,1.82a3,3,0,0,0,1.91-.23l.45-.15.09.31a3,3,0,0,0,1.09,2l0,0c.52.38,1.25.32,2.29-.21l.52-.25-.09.57a2.83,2.83,0,0,0,.63,2.66l0,0a2.91,2.91,0,0,0,2.45.71h.33v.33a3.62,3.62,0,0,0,.55,2.6l0,0a3,3,0,0,0,2.69.94l.82,0-.61.56a3.7,3.7,0,0,0-1.26,4,4,4,0,0,0,3,2.43l.64.17-.55.37c-.88.59-2.33,1.84-2.2,3.57v0a4,4,0,0,0,3,3.78l.26.08-.11.5c-.07.3-.14.59-.19.88Zm-.83-1.79c.14.18.29.35.44.52a2.46,2.46,0,0,0,.07-.29C152.66,439.35,152.49,439.28,152.32,439.19Zm-2.5-.57a2.75,2.75,0,0,0,2.08.34h0a4.28,4.28,0,0,1-2.2-3.81,4.51,4.51,0,0,1,2-3.74,4.17,4.17,0,0,1-2.81-2.63,4,4,0,0,1,.92-4.12,3.17,3.17,0,0,1-2.46-1.16,3.71,3.71,0,0,1-.72-2.69,3.27,3.27,0,0,1-2.6-.92,3.11,3.11,0,0,1-.86-2.65,2.49,2.49,0,0,1-2.41-.06,3.17,3.17,0,0,1-1.29-2,3.32,3.32,0,0,1-2.16.17l0,0a3,3,0,0,1-1.35-2.15,3.27,3.27,0,0,0-.57.67,10.9,10.9,0,0,0,.11,1.26c0,.21.06.43.08.64a16,16,0,0,1,8.6,5C147.67,424.85,149.53,430.71,149.82,438.62Z"/></g><g id="path36"><path class="cls-2" d="M120.57,416.88a1.78,1.78,0,0,1-.92-.26,2.1,2.1,0,0,1-1.22-1.78,2,2,0,0,1,.88-1.91,2.21,2.21,0,0,1,2.36-.05,1.76,1.76,0,0,1,.93,1.71,1.93,1.93,0,0,1-.87,1.91A2,2,0,0,1,120.57,416.88Zm-.08-3.71a1.38,1.38,0,0,0-.83.25h0a1.41,1.41,0,0,0-.6,1.36,1.49,1.49,0,0,0,.86,1.28l0,0a1.29,1.29,0,0,0,1.44-.1,1.31,1.31,0,0,0,.61-1.34v-.1a1.18,1.18,0,0,0-.63-1.15A1.79,1.79,0,0,0,120.49,413.17Z"/></g><g id="path38"><path class="cls-2" d="M142,417.17a1.72,1.72,0,0,1-1.1-.39,2.14,2.14,0,0,1-1-2.24,2,2,0,0,1,1.59-1.69,2.12,2.12,0,0,1,1.93.44,1.83,1.83,0,0,1,.68,1.62,2.16,2.16,0,0,1-1.19,2A2,2,0,0,1,142,417.17Zm.06-3.79a1.58,1.58,0,0,0-.38.05h0a1.41,1.41,0,0,0-1.11,1.2,1.53,1.53,0,0,0,.7,1.63l0,0a1.23,1.23,0,0,0,1.38.09,1.58,1.58,0,0,0,.88-1.46v-.07a1.25,1.25,0,0,0-.47-1.11A1.59,1.59,0,0,0,142,413.38Z"/></g><g id="path40"><path class="cls-2" d="M129.88,441.05l-.43-.51c-.17-.2-.33-.41-.49-.61l-.34-.43,0,0a8.08,8.08,0,0,0-.85.37l-.2.1-.18-.18c-.47-.47-.95-.95-1.42-1.39l-.11-.1,0-.15c.72-8.85,1.56-17.68,2.21-24.39l0-.4.38.15c.62.25,1.24.49,2,.75l.42.16-.48.52c-.58.63-1.13,1.22-1,2v.09c-.09.67.44,1.22.95,1.74l.41.43-.26.2c-.89.72-1.83,1.57-1.67,2.69v.07c-.08.79.41,1.53,1.56,2.32l.38.26-.38.25c-1.44.93-2.14,1.88-2.16,2.93v0c-.17,1.4.88,2.58,1.7,3.34l.27.26-.31.21c-.89.6-2.36,1.87-2.2,3.63h0v0a3.94,3.94,0,0,0,2.29,3.27.69.69,0,0,1,.38.39,1.3,1.3,0,0,1-.2.95,1.59,1.59,0,0,0-.14.33Zm-1.08-2.28.14.17c.17.2.33.41.49.62a1.56,1.56,0,0,1,.16.2,1.22,1.22,0,0,0,.16-.45l-.07-.05a4.39,4.39,0,0,1-2.63-3.81,4.59,4.59,0,0,1,2.16-3.94,4.46,4.46,0,0,1-1.62-3.59,4.08,4.08,0,0,1,2.08-3.16,3.06,3.06,0,0,1-1.48-2.59c-.16-1.3.72-2.23,1.65-3a2.76,2.76,0,0,1-1.07-2.15,2.84,2.84,0,0,1,1-2.33l-1.17-.45c-.64,6.62-1.45,15.21-2.16,23.84l1.2,1.17.7-.29Z"/></g><g id="path42"><path class="cls-2" d="M132.55,440.89l-.11-.48c-.08-.36-.14-.73-.2-1.09l-.05-.37.21-.09c.9-.39,2.45-1.28,2.7-2.86.45-1.77-.77-3.4-2.19-4.23l-.36-.21.32-.28a4.05,4.05,0,0,0,1.74-3.06,3.51,3.51,0,0,0-2.14-3.13l-.39-.21.34-.29a3.4,3.4,0,0,0,1.55-2.43c.11-1.18-.85-2-1.75-2.72l-.3-.23.41-.35c.61-.53,1.25-1.07,1.22-1.83V417c.12-.74-.42-1.34-1-1.93l-.22-.24-.3-.35.84-.27c.53-.17,1.09-.34,1.62-.53l.36-.14,0,.39c.39,3.89.72,7.83,1,11.65s.65,7.82,1.05,11.72c.22,1-.53,1.6-1.13,2.09a4.8,4.8,0,0,0-.61.55l-.16.19-.22-.13c-.16-.09-.31-.19-.46-.29l-.26-.17c-.4.35-.82.71-1.26,1.07Zm.31-1.57c0,.15,0,.31.07.47l1-.88.16-.15.19.12.47.29.24.15c.15-.15.33-.29.5-.43.66-.53,1.06-.9.91-1.5v0c-.4-3.91-.73-7.89-1.05-11.75-.31-3.69-.63-7.5-1-11.25l-1.23.39a2.89,2.89,0,0,1,1,2.3,3,3,0,0,1-1.28,2.15,3.26,3.26,0,0,1,.25,5.58,3.93,3.93,0,0,1,2.08,3.45,4.36,4.36,0,0,1-1.65,3.25,4.46,4.46,0,0,1,2.13,4.65A4.53,4.53,0,0,1,132.86,439.32Z"/></g><g id="path44"><path class="cls-2" d="M131.38,419.27a2,2,0,0,1-1.1-.33,2.23,2.23,0,0,1-1.18-2,2.19,2.19,0,0,1,1.1-2h0a2.82,2.82,0,0,1,2.44,0,2,2,0,0,1,1.08,1.41,2.29,2.29,0,0,1-1,2.43A2.36,2.36,0,0,1,131.38,419.27Zm-.9-3.8a1.61,1.61,0,0,0-.78,1.45,1.65,1.65,0,0,0,.87,1.49l0,0a1.57,1.57,0,0,0,1.81-.13,1.72,1.72,0,0,0,.73-1.81,1.37,1.37,0,0,0-.76-1A2.25,2.25,0,0,0,130.48,415.47Z"/></g><g id="path46"><path class="cls-2" d="M113,419.21l-.12-.45a5.9,5.9,0,0,1-.15-.73c-.11-.68-.22-1.33-.79-1.62a2.13,2.13,0,0,0-2.55.61l-.5.52,0-.73a1.34,1.34,0,0,1,.41-1,3.09,3.09,0,0,1,2.2-.57c1.14-.05,1.73.9,2.2,1.66l.11.17.12-.2.56.2a3,3,0,0,1-1.11,1.89Zm.18-2c.06.24.11.49.15.73l0,.15a2.32,2.32,0,0,0,.22-.3h0C113.45,417.6,113.32,417.39,113.2,417.2Z"/></g><g id="path48"><path class="cls-2" d="M116.72,420.12h-.1a2.59,2.59,0,0,1-2.19-1.33,2.25,2.25,0,0,1-.06-2.13,2.33,2.33,0,0,1,1.72-1.36,2.42,2.42,0,0,1,2.66,1,2.23,2.23,0,0,1,0,2.7A2.39,2.39,0,0,1,116.72,420.12Zm0-4.31a1.53,1.53,0,0,0-.47.07l-.06,0a1.73,1.73,0,0,0-1.27,1,1.63,1.63,0,0,0,0,1.58,2,2,0,0,0,1.68,1,1.78,1.78,0,0,0,1.62-.81l0,0a1.63,1.63,0,0,0,0-2A1.94,1.94,0,0,0,116.72,415.81Z"/></g><g id="path50"><path class="cls-2" d="M146.06,420.44a2,2,0,0,1-.95-.24,2.43,2.43,0,0,1-1.53-2.32,2.4,2.4,0,0,1,1.44-2.35,2.59,2.59,0,0,1,2,0,2.26,2.26,0,0,1,1.27,1.19,2.49,2.49,0,0,1-.48,2.94A2.43,2.43,0,0,1,146.06,420.44Zm0-4.51a1.94,1.94,0,0,0-.76.15h0a1.82,1.82,0,0,0-1.07,1.78,1.85,1.85,0,0,0,1.15,1.77l0,0a1.62,1.62,0,0,0,2-.44,1.89,1.89,0,0,0,.4-2.22l0,0a1.69,1.69,0,0,0-1-.89A2.18,2.18,0,0,0,146,415.93Z"/></g><g id="path52"><path class="cls-2" d="M152.2,419.48l-.2-.05a16.1,16.1,0,0,1-2.37-.77l-.16-.06,0-.16a2.54,2.54,0,0,1,.25-2.19,2,2,0,0,1,2.19-.53,1.77,1.77,0,0,1,1.28,1.57,2.39,2.39,0,0,1-.69,1.81l-.16.21Zm-2.2-1.32a15.38,15.38,0,0,0,1.94.63l.05-.06a1.88,1.88,0,0,0,.57-1.36v0a1.14,1.14,0,0,0-.86-1,1.42,1.42,0,0,0-1.53.34h0A1.84,1.84,0,0,0,150,418.16Z"/></g><g id="path54"><path class="cls-2" d="M110.7,419.67a1.69,1.69,0,0,1-.58-.1l-.05,0a2,2,0,0,1-.92-1.9,1.77,1.77,0,0,1,1.07-1.57,1.93,1.93,0,0,1,2.53,2.66l0,.07-.22.13A3.42,3.42,0,0,1,110.7,419.67Zm-.35-.66c.61.21,1.23-.19,1.83-.58l.09-.05a1.34,1.34,0,0,0-1.79-1.76h0a1.2,1.2,0,0,0-.71,1.06A1.44,1.44,0,0,0,110.35,419Z"/></g><g id="path56"><path class="cls-2" d="M150.38,441.19l-.24-.12c-.65-.34-1.22-.63-1.77-.87l-.17-.08v-.19c-.13-4.57-.67-10.47-3.68-15.53a13.88,13.88,0,0,0-6.78-5.89,9.16,9.16,0,0,0-1-.32,8.68,8.68,0,0,1-1.58-.6l-.13-.07,0-.15a6.25,6.25,0,0,1-.07-.87v-.35l.35.05a15.05,15.05,0,0,1,10.08,7c2.56,4.12,3.87,9.25,4,15.68l.7.39.84.46.28.15-.16.27c-.12.21-.37.62-.53.85Zm-1.59-1.47c.44.2.9.43,1.39.69l.2-.31-.58-.32c-.28-.16-.55-.32-.84-.47l-.16-.08v-.18c-.11-6.41-1.39-11.49-3.92-15.55a14.43,14.43,0,0,0-9.29-6.63c0,.09,0,.18,0,.25a9,9,0,0,0,1.32.49c.33.1.68.2,1,.34a14.49,14.49,0,0,1,7.08,6.14C148.08,429.2,148.65,435.11,148.79,439.72Z"/></g><g id="path58"><path class="cls-2" d="M155.34,421.61a2.1,2.1,0,0,1-1.3-.44,2.54,2.54,0,0,1,.73-4.47,2.35,2.35,0,0,1,2.47.82,2.26,2.26,0,0,1,.43,2.49,2.54,2.54,0,0,1-1.68,1.51A2.48,2.48,0,0,1,155.34,421.61Zm0-4.4a1.54,1.54,0,0,0-.43.06h0a1.83,1.83,0,0,0-1.29,1.54,1.78,1.78,0,0,0,.74,1.84l0,0a1.57,1.57,0,0,0,1.42.26,1.94,1.94,0,0,0,1.28-1.15v0a1.67,1.67,0,0,0-.34-1.83A1.88,1.88,0,0,0,155.38,417.21Z"/></g><g id="path60"><path class="cls-2" d="M106.84,421.9a2.19,2.19,0,0,1-1.43-.52,2.27,2.27,0,0,1-.93-2.52,2.2,2.2,0,0,1,1.92-1.75,2.5,2.5,0,0,1,2.16.6,2.09,2.09,0,0,1,.7,1.73,2.27,2.27,0,0,1-1.29,2.19A2.57,2.57,0,0,1,106.84,421.9Zm0-4.23a1.37,1.37,0,0,0-.36,0h-.05a1.61,1.61,0,0,0-1.39,1.29,1.68,1.68,0,0,0,.68,1.87l0,0a1.68,1.68,0,0,0,1.89.18,1.66,1.66,0,0,0,1-1.62v-.07a1.43,1.43,0,0,0-.5-1.24A2,2,0,0,0,106.87,417.67Z"/></g><g id="path62"><path class="cls-2" d="M112.29,441.29l-.94-1.09.27-.19.31-.22a7,7,0,0,0,.87-.69c.19-6.65,1.76-12.15,4.65-16.35h0c2.66-3.78,6.44-6,10.12-5.9H128l-.15.39c-.29.81-1.06,1-1.69,1.12a4,4,0,0,0-.66.18,14.27,14.27,0,0,0-8.73,8.1c-2.11,4.63-2.5,9.71-2.6,13.62v.18l-.16.09-1.15.52Zm-.05-1,.22.24.14-.06,1-.43c.11-3.94.52-9,2.65-13.67A14.84,14.84,0,0,1,125.3,418a3.79,3.79,0,0,1,.72-.2,2.78,2.78,0,0,0,.93-.32c-3.28.16-6.6,2.23-9,5.64-2.84,4.13-4.36,9.56-4.54,16.14v.12l-.08.08a6.54,6.54,0,0,1-1,.85Z"/></g><g id="path64"><path class="cls-2" d="M146.06,427.05l-.56-.11A83.56,83.56,0,0,0,136,425.7l-.26,0,0-.26c0-.61-.11-1.23-.16-1.85-.16-1.83-.33-3.73-.44-5.6l0-.38.38.07a14.56,14.56,0,0,1,10.33,8.86Zm-9.72-1.93a86.86,86.86,0,0,1,8.71,1.11,14,14,0,0,0-9.27-7.9c.12,1.73.27,3.49.42,5.19C136.25,424.05,136.3,424.58,136.34,425.12Z"/></g><g id="path66"><path class="cls-2" d="M118.3,424.77l-.48-.35a13,13,0,0,1,9.63-6.61l.39-.06,0,.39c0,.27,0,.54-.07.8s0,.58-.08.86h-.6c0-.3,0-.62-.06-1a12.49,12.49,0,0,0-4.37,1.82,14.4,14.4,0,0,0-3,2.75C119.17,423.86,118.75,424.33,118.3,424.77Z"/></g><g id="path68"><path class="cls-2" d="M116.43,426.78l.27-.52c0-.1.11-.2.16-.31a7.75,7.75,0,0,1,1-1.6c.45-.44.87-.9,1.28-1.35a15.52,15.52,0,0,1,3.14-2.85,13.54,13.54,0,0,1,5-2l.36-.07v.37c0,.45,0,.87.06,1.28v.05c-.07.74-.14,1.48-.2,2.22-.09,1.09-.19,2.21-.32,3.32l0,.27h-.27a51.37,51.37,0,0,0-7.66.77l-2.16.32ZM127,418.84a12.49,12.49,0,0,0-4.37,1.82h0a14.6,14.6,0,0,0-3,2.75c-.42.45-.84.92-1.29,1.36a6,6,0,0,0-.79,1.25l1.57-.24a52.8,52.8,0,0,1,7.48-.77c.12-1,.2-2.05.29-3.05.06-.73.12-1.46.19-2.19C127,419.47,127,419.16,127,418.84Z"/></g><g id="path70"><path class="cls-2" d="M149.7,424.24a2.46,2.46,0,0,1-1.37-.4,2.74,2.74,0,0,1-1.31-2.61,2.7,2.7,0,0,1,1.63-2.4,2.76,2.76,0,0,1,2.79.37,2.56,2.56,0,0,1,1.08,2.38,2.69,2.69,0,0,1-1.47,2.31A2.8,2.8,0,0,1,149.7,424.24Zm0-5a2.06,2.06,0,0,0-.81.17h0a2.12,2.12,0,0,0-1.26,1.88,2.16,2.16,0,0,0,1,2.05,2,2,0,0,0,2.12,0,2.1,2.1,0,0,0,1.16-1.8v0a2,2,0,0,0-.84-1.83A2.29,2.29,0,0,0,149.7,419.21Z"/></g><g id="path72"><path class="cls-2" d="M154.05,421.66l-.6-.21a2.83,2.83,0,0,1-1.73-2l-.09-.3,1.29-.32.1.25c.12.33.26.65.4,1s.29.66.41,1Zm-1.65-2.07a2.39,2.39,0,0,0,.51.8l0-.09c-.11-.24-.22-.49-.32-.75Z"/></g><g id="path74"><path class="cls-2" d="M108.24,422l.46-1.17c.21-.54.42-1.06.6-1.59l.13-.37.33.22.53.36.52.36.27.18-.19.26a5,5,0,0,1-2,1.42Zm1.5-2.19c-.11.31-.24.62-.36.94a3.74,3.74,0,0,0,.82-.63l-.26-.17Z"/></g><g id="path76"><path class="cls-2" d="M112.9,424.55a2.87,2.87,0,0,1-2.53-3.87,3.29,3.29,0,0,1,1.29-1.59l.09,0c1.24-.35,2.82-.29,3.56.9a2.74,2.74,0,0,1,.27,2.84,2.79,2.79,0,0,1-2.3,1.72A2.34,2.34,0,0,1,112.9,424.55Zm-1-4.92a2.6,2.6,0,0,0-1,1.27,2.13,2.13,0,0,0,.34,2.17,2,2,0,0,0,1.93.85h0a2.32,2.32,0,0,0,1.6-3.6l0,0C114.25,419.39,113,419.35,112,419.63Z"/></g><g id="path78"><path class="cls-2" d="M160,424.54a2.8,2.8,0,0,1-2-.81,2.54,2.54,0,0,1-.72-2.55,2.76,2.76,0,0,1,2-2.09,2.84,2.84,0,0,1,3.35,3.74,2.6,2.6,0,0,1-1.93,1.64A3.14,3.14,0,0,1,160,424.54Zm0-5a1.69,1.69,0,0,0-.57.09h0a2.21,2.21,0,0,0-1.54,1.65,1.94,1.94,0,0,0,.55,2,2.28,2.28,0,0,0,2.13.59,2,2,0,0,0,1.5-1.27,2.11,2.11,0,0,0-.45-2.27A2.22,2.22,0,0,0,160,419.58Z"/></g><g id="path80"><path class="cls-2" d="M131.26,424.85a2.6,2.6,0,0,1-1.79-.68,2.62,2.62,0,0,1-.9-2.41,2.88,2.88,0,0,1,1.64-2.26,2.64,2.64,0,0,1,2.7.22,2.74,2.74,0,0,1,1.25,2.45,2.57,2.57,0,0,1-1.59,2.39A3.27,3.27,0,0,1,131.26,424.85Zm.09-5a1.89,1.89,0,0,0-.87.21h0a2.27,2.27,0,0,0-1.29,1.79,2,2,0,0,0,.7,1.87,2.19,2.19,0,0,0,2.45.3,2,2,0,0,0,1.23-1.84h0v0a2.11,2.11,0,0,0-1-1.92A2.21,2.21,0,0,0,131.35,419.83Z"/></g><g id="path82"><path class="cls-2" d="M102.17,424.85a2.62,2.62,0,0,1-2.1-1,2.45,2.45,0,0,1-.64-2.07,2.87,2.87,0,0,1,1.38-2.08h0a4.48,4.48,0,0,1,2.53-.12l.09,0a2.89,2.89,0,0,1,1.52,3.22,2.68,2.68,0,0,1-2.15,1.94A3,3,0,0,1,102.17,424.85Zm-1.07-4.6a2.31,2.31,0,0,0-1.07,1.63,1.86,1.86,0,0,0,.49,1.58l0,0a2.28,2.28,0,0,0,3.85-.79,2.32,2.32,0,0,0-1.16-2.52A3.94,3.94,0,0,0,101.1,420.25Z"/></g><g id="path84"><path class="cls-2" d="M104.69,424l0-.56c0-.69,0-1.38,0-2.05v-.53l.46.28a4.48,4.48,0,0,0,2.12.68l1.08,0-.94.52c-.81.45-1.58.9-2.3,1.33Zm.66-2.09c0,.33,0,.66,0,1l1.06-.62A4.93,4.93,0,0,1,105.35,421.86Z"/></g><g id="path86"><path class="cls-2" d="M87.45,445.26l.31-.79a14.31,14.31,0,0,1,.87-1.8,69.49,69.49,0,0,1,8.66-12.57,36.92,36.92,0,0,1,12.63-9.16l.37-.15,0,.4c0,.12,0,.31,0,.51s0,.37,0,.48l0,.2-.17.1c-.58.37-1.2.71-1.79,1a26.63,26.63,0,0,0-2.61,1.58C100,429.06,95,435,90.44,443.29a2.49,2.49,0,0,1-1.59,1.26,4,4,0,0,0-.66.3Zm22.33-23.59a36.44,36.44,0,0,0-12,8.83h0A68.63,68.63,0,0,0,89.16,443a10.53,10.53,0,0,0-.53,1c.57-.23,1.06-.43,1.25-.93l0,0c4.56-8.37,9.68-14.4,15.65-18.41A28.78,28.78,0,0,1,108.2,423c.54-.3,1.09-.6,1.61-.93a2.85,2.85,0,0,1,0-.31Z"/></g><g id="path88"><path class="cls-2" d="M174.65,444.27l-.6-.09c-.59-.08-1.2-.18-1.83-.24l-.22,0-.05-.21a5.1,5.1,0,0,0-.51-1.46,64.15,64.15,0,0,0-7.8-11.14,38,38,0,0,0-11.19-8.74l-.17-.08V420.8l.42.17a35.81,35.81,0,0,1,13.55,10.31,77,77,0,0,1,8.11,12.46Zm-2.15-.91,1,.14a74.37,74.37,0,0,0-7.76-11.83,35.45,35.45,0,0,0-12.9-10v.2a38.81,38.81,0,0,1,11.21,8.79A65.83,65.83,0,0,1,172,442,5.59,5.59,0,0,1,172.5,443.36Z"/></g><g id="path90"><path class="cls-2" d="M157.74,423.77l-.62-.35c-.83-.47-1.68-1-2.55-1.38l-1-.49,1.12-.08a10.63,10.63,0,0,0,2.23-.47l.37-.12,0,.39a9.08,9.08,0,0,0,.27,1.82Zm-2-1.83,1.14.62c-.05-.28-.09-.58-.12-.87C156.36,421.79,156,421.87,155.7,421.94Z"/></g><g id="path92"><path class="cls-2" d="M154.79,424.07h-.6l-1.28,0h-1.84l.33-.48c.29-.42.55-.83.77-1.22l.13-.22.24.09a4.17,4.17,0,0,1,1.89,1.37Zm-2.58-.63h1.28a3.76,3.76,0,0,0-.93-.58Z"/></g><g id="path94"><path class="cls-2" d="M164.53,428.16a2.68,2.68,0,0,1-1.15-.25,3.37,3.37,0,0,1-1.78-2.37,3.29,3.29,0,0,1,2.2-3.39h0a2.84,2.84,0,0,1,2.65.51,3,3,0,0,1,1.23,2.53,2.83,2.83,0,0,1-1.33,2.4A3.34,3.34,0,0,1,164.53,428.16Zm-.53-5.44a2.67,2.67,0,0,0-1.8,2.73,2.75,2.75,0,0,0,1.44,1.92,2.49,2.49,0,0,0,2.37-.28,2.24,2.24,0,0,0,1.07-1.89v0h0a2.42,2.42,0,0,0-1-2A2.26,2.26,0,0,0,164,422.72Z"/></g><g id="path96"><path class="cls-2" d="M111.4,424.15l-.55,0-1.2,0-1.22,0-.83,0,.65-.51a10.13,10.13,0,0,1,1.87-1.1l.26-.12.14.24.3.57c.1.19.2.38.3.55Zm-2-.66h.26l.68,0,0-.11c-.06-.1-.11-.2-.16-.3C109.89,423.22,109.64,423.35,109.4,423.49Z"/></g><g id="path98"><path class="cls-2" d="M97.46,428.47a2.7,2.7,0,0,1-1.41-.39,3,3,0,0,1-1.47-2.66A2.88,2.88,0,0,1,96,422.86a3.17,3.17,0,0,1,2.92-.05,2.77,2.77,0,0,1,1.58,2.09,2.83,2.83,0,0,1-1.23,3A3.19,3.19,0,0,1,97.46,428.47Zm.08-5.39a2.5,2.5,0,0,0-1.21.31h0a2.2,2.2,0,0,0-1.13,2A2.33,2.33,0,0,0,99,427.36a2.26,2.26,0,0,0,1-2.34,2.18,2.18,0,0,0-1.24-1.67A2.66,2.66,0,0,0,97.54,423.08Z"/></g><g id="path100"><path class="cls-2" d="M159,427.18l-.39-.2c-.57-.3-1.17-.6-1.75-.94l-.07.06-.25.21-.26.19-.18-.27-.41-.6c-.35-.51-.71-1-1-1.6l-.49-.87.89.46a18.42,18.42,0,0,1,4.28,3.07Zm-3.19-2.46.38.57.23.33.24-.19.1-.08C156.4,425.13,156.08,424.92,155.76,424.72Z"/></g><g id="path102"><path class="cls-2" d="M109.52,431.42c-2,0-3.47-2-3.56-3.8v0a4,4,0,0,1,2.49-3.49,3.49,3.49,0,0,1,2.92.16,3.75,3.75,0,0,1,1.24,5.73,3.55,3.55,0,0,1-2.94,1.44Zm-3-3.81c.09,1.59,1.38,3.3,3.1,3.21a3,3,0,0,0,2.47-1.21,3.13,3.13,0,0,0-1-4.82,2.88,2.88,0,0,0-2.41-.14h0A3.4,3.4,0,0,0,106.56,427.61Z"/></g><g id="path104"><path class="cls-2" d="M152.68,431.14a3.38,3.38,0,0,1-1.53-.36,3.68,3.68,0,1,1,3.77-6.28,3.52,3.52,0,0,1,1.54,3.12,3.38,3.38,0,0,1-1.65,2.88A4,4,0,0,1,152.68,431.14Zm0-6.77a2.62,2.62,0,0,0-1.06.22h0a3.1,3.1,0,0,0-.23,5.65,3.16,3.16,0,0,0,3.08-.25,2.71,2.71,0,0,0,1.37-2.37v0a2.9,2.9,0,0,0-1.28-2.59A3.22,3.22,0,0,0,152.7,424.37Z"/></g><g id="path106"><path class="cls-2" d="M162.06,427.18l-.59-.49c-.72-.59-1.44-1.16-2.14-1.68l-.55-.42.83-.15c.61-.11,1.25-.23,1.85-.39l.4-.11,0,.41a12.68,12.68,0,0,0,.12,2.07Zm-1.82-2.24,1,.81c0-.31-.05-.66-.05-1Z"/></g><g id="path108"><path class="cls-2" d="M100.24,427.45l.06-.75a15,15,0,0,0,.06-2.08l0-.42.41.12a12,12,0,0,0,2,.42l.77.1-.64.44c-.62.44-1.26,1-2.09,1.68ZM101,425c0,.32,0,.66,0,1,.36-.3.69-.57,1-.8C101.6,425.17,101.28,425.1,101,425Z"/></g><g id="path110"><path class="cls-2" d="M94,438.18l-.41-.42a41.69,41.69,0,0,1,13.56-13.65l.41.42c-.24.38-.47.76-.7,1.15l-.72,1.15,0,0a9.56,9.56,0,0,0-1.25,2.32,16.16,16.16,0,0,1-.84,1.73l0,0,0,0a10.6,10.6,0,0,1-1.71,1.07,6.54,6.54,0,0,0-2.35,1.78l0,0a11.16,11.16,0,0,1-1.46,1.1c-.28.19-.55.36-.8.55-.58.39-1.13.82-1.65,1.23A19.13,19.13,0,0,1,94,438.18Zm12.37-12.87A40.92,40.92,0,0,0,95,436.75l.6-.46c.53-.43,1.08-.86,1.67-1.25.25-.19.54-.38.82-.57a10.42,10.42,0,0,0,1.36-1,7.07,7.07,0,0,1,2.53-1.93,11.35,11.35,0,0,0,1.58-1,15.84,15.84,0,0,0,.77-1.61,10.62,10.62,0,0,1,1.33-2.45c.24-.37.47-.75.7-1.13Z"/></g><g id="path112"><path class="cls-2" d="M131.34,431.73a3.22,3.22,0,0,1-2.87-1.7,3.47,3.47,0,0,1,1.77-5.07,3.36,3.36,0,0,1,3.19.51,3.14,3.14,0,0,1,1.33,2.75,3.28,3.28,0,0,1-1.14,2.62A3.45,3.45,0,0,1,131.34,431.73Zm0-6.37a2.42,2.42,0,0,0-.88.17h0a2.85,2.85,0,0,0-1.45,4.2,2.67,2.67,0,0,0,1.9,1.36,2.79,2.79,0,0,0,2.31-.7,2.69,2.69,0,0,0,.95-2.16v0a2.58,2.58,0,0,0-1.09-2.24A3,3,0,0,0,131.34,425.36Z"/></g><g id="path114"><path class="cls-2" d="M165.32,434.56c-.66-.38-1.3-.8-1.93-1.21a24,24,0,0,0-3-1.78l-.57-.29a3.62,3.62,0,0,1-1.87-1.51c-.19-.37-.36-.74-.53-1.11a14.17,14.17,0,0,0-1.17-2.18l-.31-.49.22-.17.23-.18.26-.21.16-.12.17.1c.62.37,1.27.71,1.9,1l.44.24a27.93,27.93,0,0,1,4.77,4.68l0,0c.51.92,1.09,1.84,1.66,2.73Zm-8.62-8.43v0a14.08,14.08,0,0,1,1.22,2.26c.16.36.34.73.52,1.09a3.13,3.13,0,0,0,1.59,1.24l.59.29a24.27,24.27,0,0,1,3.09,1.81l.81.53c-.34-.55-.67-1.1-1-1.66a26.69,26.69,0,0,0-4.63-4.54l-.36-.19c-.57-.3-1.17-.6-1.75-.94l-.07.06Z"/></g><g id="path120"><path class="cls-2" d="M92.36,433.51a3.47,3.47,0,0,1-2.76-1.28,3.39,3.39,0,0,1-.67-3.59,3.67,3.67,0,0,1,6.47-.89,3.4,3.4,0,0,1,.36,3.65,3.56,3.56,0,0,1-2.88,2.08A4.53,4.53,0,0,1,92.36,433.51Zm.11-6.74a2.4,2.4,0,0,0-.46.05h0a3,3,0,0,0-2.48,2,2.77,2.77,0,0,0,.55,3l0,0a3.11,3.11,0,0,0,5.14-.69v0a2.81,2.81,0,0,0-.31-3A3.08,3.08,0,0,0,92.47,426.77Z"/></g><g id="path122"><path class="cls-2" d="M168.19,436.92l-1-.61c-.8-.49-1.59-1-2.35-1.53a32.22,32.22,0,0,0-5.92-3.35l0,0-.2-.12a2.27,2.27,0,0,1-1.17-1.19,24,24,0,0,1-1.34-3.71l.54-.25a14.39,14.39,0,0,1,1.23,2.28c.16.36.34.73.52,1.09a3.13,3.13,0,0,0,1.59,1.24l.59.29a24.27,24.27,0,0,1,3.09,1.81l.81.53c-.34-.55-.68-1.12-1-1.68l.47-.37a19.27,19.27,0,0,1,3.6,4.58Zm-2.76-2.47,1,.65c-.22-.34-.45-.66-.69-1h0Z"/></g><g id="path124"><path class="cls-2" d="M170,433.53a3.22,3.22,0,0,1-1.5-.36,3.72,3.72,0,0,1-1.87-4.71,3.88,3.88,0,0,1,2.4-2.26,3.57,3.57,0,0,1,3.29.59,3.48,3.48,0,0,1,1.46,2.93,3.54,3.54,0,0,1-1.69,3.17A3.79,3.79,0,0,1,170,433.53Zm.1-6.9a2.62,2.62,0,0,0-.88.14h0a3.31,3.31,0,0,0-2,1.91,3.15,3.15,0,0,0,1.57,3.93,3.14,3.14,0,0,0,4.42-2.87v0a2.91,2.91,0,0,0-1.23-2.44A3.12,3.12,0,0,0,170.05,426.63Z"/></g><g id="path126"><path class="cls-2" d="M84.55,441.5l-.65-.84v-.1a4.27,4.27,0,0,1,.1-.81,1.67,1.67,0,0,0-.08-1.26l0-.05c-.08-.17-.17-.34-.26-.51a4.47,4.47,0,0,1-.62-1.84,4.87,4.87,0,0,1,3-4.74,9.75,9.75,0,0,1,2-.4,4.74,4.74,0,0,1,.41-3.29A2.49,2.49,0,0,1,90,426.49l.92-.19-.63.69A4.71,4.71,0,0,0,89,429.46a5.93,5.93,0,0,0,.26,1.84c0,.14.07.27.1.41l.08.38h-.79a6.09,6.09,0,0,0-1.77.14,3.71,3.71,0,0,0-2.63,4.11,4.14,4.14,0,0,0,.6,1.45c.15.27.31.55.44.84l0,.1,0,.1c-.09.35-.19.7-.29,1s-.19.7-.28,1.05Zm.11-2.76v0h0Z"/></g><g id="path128"><path class="cls-2" d="M98.78,434.32l.61-.84a7.19,7.19,0,0,1,2.55-2,11.35,11.35,0,0,0,1.58-1,15.84,15.84,0,0,0,.77-1.61,10.35,10.35,0,0,1,1.34-2.46l.67-.84-.13,1.07a8.25,8.25,0,0,1-.77,2.29c-.17.39-.35.79-.49,1.19a3.31,3.31,0,0,1-1.43,1.82l0,0a13.49,13.49,0,0,0-1.81.94,15.24,15.24,0,0,1-1.89,1Z"/></g><g id="path130"><path class="cls-2" d="M166.82,432.09l-.65-.63c-.86-.84-1.67-1.72-2.45-2.58l-1-1.12,2.07.17,0,.24a2.18,2.18,0,0,0,.83,1.3c0-.09,0-.19,0-.28,0-.35-.05-.7-.08-1l-.06-.42.21-.09.47-.23c.24-.12.48-.24.75-.35l.8-.35-.42.77a5.72,5.72,0,0,0-.6,3.71Zm-.68-4c0,.19,0,.37,0,.55.06-.23.13-.46.21-.68Zm-1.95.4.09.09,0-.09Z"/></g><g id="path132"><path class="cls-2" d="M178.73,441.42l-.15-.54c-.08-.32-.19-.63-.29-.93a10.61,10.61,0,0,1-.41-1.39v-.07l0-.07c.07-.28.16-.57.26-.85a4,4,0,0,0,.26-2.63,4.34,4.34,0,0,0-5-2.83l-.54.11.2-.52a5.52,5.52,0,0,0,.05-3.9l-.3-.83.75.47c1.19.75,1,2.17.79,3.31,0,.18,0,.35-.07.52h.09a4.57,4.57,0,0,1,4.85,6.7l0,0c-.32.57,0,1.09.49,1.82l.2.29-.15.18c-.18.21-.39.46-.61.7Zm.1-1.75,0,.08.15.44.09-.11Z"/></g><g id="path134"><path class="cls-2" d="M95.8,432.24l0-.93a14.76,14.76,0,0,0-.29-3.23l-.16-1,.67.67.23.21.25.24,0,.05,0,.06a11.5,11.5,0,0,1,.4,1.26,2.25,2.25,0,0,1,.4,0l.51.1-.48.56c-.36.41-.72.83-1.06,1.25Zm.59-2.69c0,.31.06.62.07.94l.27-.31h-.18l0-.23C96.46,429.82,96.43,429.68,96.39,429.55Z"/></g><g id="path136"><path class="cls-2" d="M166.35,430.81l-.55-.42a3.44,3.44,0,0,1-1.6-2.14l0-.31.32,0,0,.3v-.3c.35,0,1-.09,1.34-.09h.28l0,.27c0,.35.05.7.07,1.05s0,.65.08,1Zm-1.47-2.33a2.4,2.4,0,0,0,.75,1c0-.09,0-.19,0-.28,0-.26,0-.51-.05-.76Z"/></g><g id="path138"><path class="cls-2" d="M97.48,430.24l-.18,0a4.26,4.26,0,0,0-.51,0h-.24l0-.23a12.94,12.94,0,0,0-.45-1.42l-.16-.45.47,0c.75.06,1.54.12,2.29.15l.66,0-.45.48c-.17.19-.35.36-.52.54s-.52.52-.75.79Zm-.46-.66h.22l.66-.69,0-.06-1.17-.08C96.87,429,97,429.31,97,429.58Z"/></g><g id="path140"><path class="cls-2" d="M106.86,440.77l-.31-.34-.34-.38-.46-.51-.69.39-.34.19-.2.12-.16-.16-.92-.84-.93-.85-.12-.12,0-.16a41.44,41.44,0,0,1,3.08-9.94l.26-.54.28.53a18.81,18.81,0,0,0,1.88,2.86l.29.36-.45.12a4.15,4.15,0,0,0-3.11,2.63,3.54,3.54,0,0,0,.61,3.43,4.74,4.74,0,0,0,1.8,1.25l.3.15.26.13ZM106,439c.22.23.44.47.64.7l0,0,.14-.31,0,0C106.54,439.23,106.28,439.1,106,439Zm-3-.89c.26.25.53.49.8.73l.76.7.14-.09c.31-.18.6-.35.92-.51l.14-.06a3.54,3.54,0,0,1-1-.9,4.15,4.15,0,0,1-.71-4,4.58,4.58,0,0,1,3.1-2.89A19.14,19.14,0,0,1,105.8,429,41.43,41.43,0,0,0,103.05,438.06Z"/></g><g id="path142"><path class="cls-2" d="M156,440.82l-.21-.35c-.12-.2-.24-.4-.35-.61s-.22-.4-.34-.6l-.16-.26.26-.16a4.81,4.81,0,0,0,2.46-2.65,4.33,4.33,0,0,0-.46-3.21,4.72,4.72,0,0,0-2.64-1.69l-.59-.22.41-.34a8.88,8.88,0,0,0,2.07-2.54l.28-.51.26.52a37.26,37.26,0,0,1,2.9,9.52l0,.18-.14.11c-.18.15-.36.33-.55.52a2.51,2.51,0,0,1-2.13,1.08Zm-.23-1.61.2.35.13.25.78-.86.18,0c.71.17,1.19-.32,1.74-.88.15-.15.3-.31.46-.45a37.25,37.25,0,0,0-2.57-8.68,9.43,9.43,0,0,1-1.54,1.88,4.61,4.61,0,0,1,2.55,1.8,4.88,4.88,0,0,1,.56,3.65A5.13,5.13,0,0,1,155.72,439.21Z"/></g><g id="path146"><path class="cls-2" d="M108,439.05a3.24,3.24,0,0,1-2.31-.77,3.67,3.67,0,0,1-1.42-2.63,3.94,3.94,0,0,1,7.65-1.63,3.55,3.55,0,0,1-.28,3.12,3.63,3.63,0,0,1-2.6,1.84A8.93,8.93,0,0,1,108,439.05Zm.19-7.1a3.73,3.73,0,0,0-.47,0h0a3.35,3.35,0,0,0-2,1,3.31,3.31,0,0,0-.83,2.57,3,3,0,0,0,1.18,2.21l0,0a3.5,3.5,0,0,0,2.87.55,3,3,0,0,0,2.14-1.54,3,3,0,0,0,.25-2.61A3.4,3.4,0,0,0,108.2,432Z"/></g><g id="path148"><path class="cls-2" d="M153.79,439.1a3.52,3.52,0,0,1-2.47-1.05,4,4,0,0,1-1.22-3.21,3.92,3.92,0,0,1,2.85-3.53,3.76,3.76,0,0,1,3.36.56,3.8,3.8,0,0,1,1.66,3,3.84,3.84,0,0,1-1,2.95,3.76,3.76,0,0,1-2.73,1.27h0Zm.26-7.36a2.91,2.91,0,0,0-.92.15h0a3.28,3.28,0,0,0-2.4,3,3.42,3.42,0,0,0,1,2.73,2.86,2.86,0,0,0,2.38.85h0a3.14,3.14,0,0,0,2.33-1.07,3.22,3.22,0,0,0,.87-2.5,3.17,3.17,0,0,0-1.4-2.54A3.32,3.32,0,0,0,154.05,431.74Z"/></g><g id="path152"><path class="cls-2" d="M131.69,439l-.52,0a3.27,3.27,0,0,1-3-1.4,3.58,3.58,0,0,1-.53-3.57,4,4,0,0,1,2.29-2.37h0a4.34,4.34,0,0,1,4,.68,3.83,3.83,0,0,1,1.37,3,3.6,3.6,0,0,1-1.28,2.83A3.29,3.29,0,0,1,131.69,439Zm-.53-.63h0a2.93,2.93,0,0,0,2.48-.67l0,0a3,3,0,0,0,1.06-2.37,3.21,3.21,0,0,0-1.16-2.54,3.71,3.71,0,0,0-3.47-.56,3.42,3.42,0,0,0-1.92,2,3,3,0,0,0,.45,3,2.66,2.66,0,0,0,2.46,1.16Z"/></g><g id="path154"><path class="cls-2" d="M87.84,439.75h-.27a4.28,4.28,0,0,1-3.45-2.82,3.73,3.73,0,0,1,.33-3.09,4,4,0,0,1,6-1.09,3.52,3.52,0,0,1,1.32,3,3.37,3.37,0,0,1-1,2.69A4.2,4.2,0,0,1,87.84,439.75Zm.08-7.36a2.45,2.45,0,0,0-.76.11h0A3.26,3.26,0,0,0,85,434.13a3.12,3.12,0,0,0-.28,2.6,3.66,3.66,0,0,0,2.94,2.41,3.5,3.5,0,0,0,2.71-1.09,2.71,2.71,0,0,0,.81-2.24v-.07a2.93,2.93,0,0,0-1.1-2.54A3.36,3.36,0,0,0,87.92,432.39Z"/></g><g id="path156"><path class="cls-2" d="M174.72,440a3.28,3.28,0,0,1-.88-.12,4.06,4.06,0,0,1-3.06-5.07,4,4,0,0,1,3.07-2.87,4,4,0,0,1,3.37.76,3.9,3.9,0,0,1,1.56,3,4.17,4.17,0,0,1-4.06,4.26Zm0-7.56a3.29,3.29,0,0,0-.76.09h0a3.42,3.42,0,0,0-2.6,2.45,3.46,3.46,0,0,0,5.52,3.6,3.42,3.42,0,0,0,1.3-2.82,3.33,3.33,0,0,0-1.33-2.59A3.5,3.5,0,0,0,174.74,432.47Z"/></g><g id="path158"><path class="cls-2" d="M91.71,437.5l0-.88a9.47,9.47,0,0,0-.5-3l-.12-.39h.4c.88,0,1.81,0,2.85-.15l.68-.07-.41.55c-.28.37-.55.76-.82,1.14-.49.69-1,1.41-1.55,2.08Zm.22-3.63a10.7,10.7,0,0,1,.38,1.92c.35-.46.69-.93,1-1.4l.44-.61C93.11,433.83,92.51,433.86,91.93,433.87Z"/></g><g id="path160"><path class="cls-2" d="M170.83,437.7l-.51-.65c-.66-.82-1.26-1.7-1.85-2.55-.26-.39-.52-.77-.79-1.15l-.62-.87,1,.42a6.94,6.94,0,0,0,3,.34l.5,0-.21.45a8.29,8.29,0,0,0-.51,3.21Zm-2.15-4,.29.43c.42.61.86,1.24,1.31,1.85a8,8,0,0,1,.36-2.15A8.19,8.19,0,0,1,168.68,433.73Z"/></g><g id="path162"><path class="cls-2" d="M174.28,459.93H89.1c-1.76.12-2.75-1.7-3.09-2.48a26.42,26.42,0,0,1-1.57-5.74c-.07-.34-.13-.67-.2-1-.65-4-1.53-8.17-3.6-11.89l-.35-.63.69.19a6.43,6.43,0,0,1,3.62,3,6.71,6.71,0,0,1,.35-2.45l.09-.26.27.07c1.57.41,2.3,2,2.63,3.3a10.58,10.58,0,0,1,0,2.86,4.73,4.73,0,0,1,3-1.13,5.24,5.24,0,0,1,4.15,1.75l.21.25-.25.19a8.61,8.61,0,0,1-1.37.85,4.14,4.14,0,0,1,1.86.76l.13.11,0,.17c0,.12,0,.3,0,.49s0,.38,0,.5l0,.18-.16.07a6.38,6.38,0,0,1-1.85.43l.5.29c.31.18.63.36.93.56l.27.16-.17.26a7,7,0,0,1-2.18,1.9l-.07,0h-.08a7.89,7.89,0,0,1-3.18-.35,6.62,6.62,0,0,1-1.94-1.48c-.16-.16-.31-.31-.47-.45a4.3,4.3,0,0,0,.52,3.3A4.58,4.58,0,0,0,91,456a5.61,5.61,0,0,0,5.71-2.94l.24-.52.48.81a5.52,5.52,0,0,0,2.1,2.44,6,6,0,0,0,5.89-.82c1.41-1.24,1.52-3.37,1.37-4.93l0-.39.38.06a13.5,13.5,0,0,0,2.43.12l.32,0v.32c0,.3,0,.62,0,.93-.09,1.38-.17,2.81.8,3.75a6.94,6.94,0,0,0,5.77,1.22c1.28-.28,2.37-1.27,3.34-3l.26-.48.27.48a4.74,4.74,0,0,0,2.29,2.34c1.69.75,4.18,1.08,5.74-.42a4.16,4.16,0,0,0,1.39-4.22c-.21.16-.41.34-.62.53a5.42,5.42,0,0,1-1.92,1.29,4.56,4.56,0,0,1-5.24-1.43l-.19-.26.27-.18q.73-.46,1.53-.9a2.79,2.79,0,0,1-2-.87l0-.05v-.07a1.3,1.3,0,0,1,.21-1.16,2.48,2.48,0,0,1,1.63-.81l-.54-.24-.68-.3-.35-.16.24-.3a5.44,5.44,0,0,1,5-1.76c-.39-1.63-.2-3.69,1.53-4.73l.27-.16.15.27c.07.11.13.23.2.35a9.28,9.28,0,0,0,.73,1.15c.06-1,.27-2.23,1.6-2.32h.07l.06,0c1,.36,1.06,1.3,1.11,2.11a5.11,5.11,0,0,1,1.55-1.37l.23-.12.15.21a7.82,7.82,0,0,1,1.37,4.62,5.92,5.92,0,0,1,4.68,1.48l.24.23-.25.22a8.35,8.35,0,0,1-1.38.93,2.77,2.77,0,0,1,2.06,1.4l0,.11,0,.12a2.07,2.07,0,0,1-2.2,1.29,4.93,4.93,0,0,1,1.34.82l.18.17-.14.21c-1.06,1.68-3.27,1.68-4.49,1.53a5,5,0,0,1-3.21-2,5.45,5.45,0,0,0,1.68,4.48,6.61,6.61,0,0,0,5.19,1c1.19-.28,2.18-1.26,3-3l.22-.44.29.39.27.36a5.4,5.4,0,0,0,1.86,1.85,5.68,5.68,0,0,0,4.37.62,4.84,4.84,0,0,0,3-2.54,4,4,0,0,0,.2-3.2l-.19-.47.5.06a14.43,14.43,0,0,0,2.29.09l.35,0,0,.35a5.31,5.31,0,0,0,1.87,5c1.55,1,4.1,1.67,6.18.48a5.86,5.86,0,0,0,2-2.28l.2-.34.3-.49.23.52a5.25,5.25,0,0,0,4.35,2.94h.05a4.42,4.42,0,0,0,4.28-1.66,4.19,4.19,0,0,0,.92-3.86c-1.1,1.12-2.35,2.34-4.12,2.18a4.68,4.68,0,0,1-3.81-1.6l-.21-.2.19-.22a5.73,5.73,0,0,1,1.51-1.1,3.43,3.43,0,0,1-2.12-.8l-.13-.12,0-.17a2.25,2.25,0,0,1,2.08-1.64c-.46-.26-.92-.53-1.36-.83l-.28-.2.24-.26a5.57,5.57,0,0,1,5.67-1.5,3.59,3.59,0,0,1,1.43,1,7.81,7.81,0,0,1,.31-3.62,3.79,3.79,0,0,1,2.36-2.62l.29-.09.09.27a8.25,8.25,0,0,1,.39,2.45,6.1,6.1,0,0,1,3.54-3l.6-.16-.24.57c-.21.51-.46,1-.7,1.5a16.19,16.19,0,0,0-1,2.34,56.73,56.73,0,0,0-1.87,8l-.12.64a26.5,26.5,0,0,1-1.78,6.37C176.71,458.54,175.8,459.93,174.28,459.93Zm-.15-.61c1.29.09,2.08-1.15,2.45-1.89a26.24,26.24,0,0,0,1.73-6.22l.12-.63a56.46,56.46,0,0,1,1.88-8.12,17.62,17.62,0,0,1,1.05-2.43l.4-.82a6.8,6.8,0,0,0-3.07,3.42l-.57-.13v-.44a11,11,0,0,0-.27-2.65,3.38,3.38,0,0,0-1.7,2.14,8.21,8.21,0,0,0-.24,3.76l.11,1.22-.58-.55-.32-.32a3.81,3.81,0,0,0-1.47-1.06,4.9,4.9,0,0,0-4.79,1.09c.46.29.94.55,1.44.83l.44.25,1,.54-1.1,0c-1.1,0-2.15.19-2.47,1.08a3.78,3.78,0,0,0,2,.57l.57,0,.91.11-.79.45-.57.31a7.38,7.38,0,0,0-1.45.94,4,4,0,0,0,3.13,1.22H172c1.53.15,2.64-1,3.72-2.07l.58-.58.18.4a4.71,4.71,0,0,1-.84,4.91,5,5,0,0,1-4.87,1.87,5.91,5.91,0,0,1-4.57-2.79,6,6,0,0,1-2.1,2.36,6.81,6.81,0,0,1-6.82-.49,5.82,5.82,0,0,1-2.16-5.21c-.53,0-1,0-1.57,0a4.57,4.57,0,0,1-.36,3.22,5.48,5.48,0,0,1-3.32,2.86,6.3,6.3,0,0,1-4.82-.65,5.86,5.86,0,0,1-2.05-2,5.14,5.14,0,0,1-3.22,2.87,7.26,7.26,0,0,1-5.69-1.14,6.12,6.12,0,0,1-1.91-5.16l-.3,0a2.73,2.73,0,0,1-1.8-.2,4.7,4.7,0,0,1-1.46,5.16c-1.76,1.7-4.53,1.35-6.37.53a4.77,4.77,0,0,1-2.32-2.15,5.64,5.64,0,0,1-3.48,2.87,7.65,7.65,0,0,1-6.31-1.37c-1.18-1.15-1.08-2.79-1-4.23,0-.2,0-.4,0-.59a15.33,15.33,0,0,1-1.83-.08c.11,1.66-.11,3.76-1.62,5.08l0,0a6.6,6.6,0,0,1-6.51.87A5.68,5.68,0,0,1,97,453.83a6.21,6.21,0,0,1-6.07,2.79,5.15,5.15,0,0,1-3.72-2.55,4.79,4.79,0,0,1-.42-4.24l.15-.39.32.26c.3.25.57.52.84.79a6.15,6.15,0,0,0,1.75,1.35,7.32,7.32,0,0,0,2.84.31,7.06,7.06,0,0,0,1.75-1.43l-.64-.37c-.43-.25-.87-.51-1.3-.8l-.75-.49.89-.06a8.15,8.15,0,0,0,2.4-.4l0-.3c0-.12,0-.24,0-.34a4.79,4.79,0,0,0-2-.64l-1.23-.2,1-.5a14.43,14.43,0,0,0,1.67-.93A4.71,4.71,0,0,0,91,444.38a4,4,0,0,0-3.12,1.56l-.62.84.08-1c0-.17,0-.35,0-.52a11.45,11.45,0,0,0,0-3,3.85,3.85,0,0,0-1.93-2.75,7.73,7.73,0,0,0-.21,2.32c0,.26,0,.52,0,.78l0,1.16-.54-1a7.65,7.65,0,0,0-3.08-3.46,38.08,38.08,0,0,1,3.28,11.37c.07.33.14.67.2,1a25.91,25.91,0,0,0,1.54,5.61c.29.67,1.11,2.21,2.51,2.12ZM122.57,451a4,4,0,0,0,4.33,1,5.08,5.08,0,0,0,1.73-1.18,8.91,8.91,0,0,1,1-.82l.1-.07a2.37,2.37,0,0,1-.34-2.83,2.33,2.33,0,0,1,4,.25,2.78,2.78,0,0,1-.29,2.43l-.06.15a4.89,4.89,0,0,0,3.06,2.08c1,.12,2.83.14,3.77-1a5.13,5.13,0,0,0-1-.54,6.05,6.05,0,0,1-1.06-.57l-.68-.48.83-.07c.23,0,.47,0,.71,0,1.06,0,1.74-.08,2-.78-.45-.79-1.37-1-2.42-1.08l-1-.11,1-.54a13,13,0,0,0,1.64-1,5.5,5.5,0,0,0-4.27-1l-.36,0,0-.36a7.5,7.5,0,0,0-1.09-4.37,6.16,6.16,0,0,0-1.39,1.4l-.67.8-.09-.68c0-.21,0-.43,0-.65,0-.86-.11-1.45-.66-1.69-.85.1-.95,1-1,2.15,0,.12,0,.24,0,.34l0,.66-.48-.45a7.9,7.9,0,0,1-1.3-1.84l0-.07c-1.34,1-1.33,2.93-.88,4.32l.15.48-.5-.09a5.18,5.18,0,0,0-4.68,1.16l.3.13a15.81,15.81,0,0,1,1.5.72l.89.5-1,.06q-1.78.12-2.22.69a.75.75,0,0,0-.12.6,2.43,2.43,0,0,0,1.64.6,8.5,8.5,0,0,1,.88.15l.77.21-.71.35C123.85,450.26,123.19,450.62,122.57,451Zm8.72-4.33a1.55,1.55,0,0,0-1.38.72,1.74,1.74,0,0,0,.38,2.21,1.91,1.91,0,0,0,1.56.23l.57,0,.12-.26c.3-.69.59-1.33.29-1.94a1.62,1.62,0,0,0-1.42-.9Z"/></g><g id="path164"><path class="cls-2" d="M87.41,440.8l-.12-.12-.28-.29c-.09-.1-.19-.21-.3-.31l-.48-.49.68,0a9.77,9.77,0,0,0,3.67-.91l.36.46a1.77,1.77,0,0,0-.19.39c-.15.35-.33.78-.79.9H89.9a10.17,10.17,0,0,0-2.32.35Zm.17-.69v0l.14,0Zm2.5-.6a9.8,9.8,0,0,1-1.2.37c.32,0,.64-.06,1-.08C89.94,439.77,90,439.66,90.08,439.51Z"/></g><g id="path166"><path class="cls-2" d="M127.44,441.15l-.31-.18c-.08-.06-.17-.1-.25-.15a5.23,5.23,0,0,1-1-.68l-.08-.09v-.13c0-.36,0-.74,0-1.11l0-.61.45.41.3.24c.54.43,1.28,1,.9,2Zm-1-1.36a3.58,3.58,0,0,0,.62.43,1.46,1.46,0,0,0-.62-.77Z"/></g><g id="path168"><path class="cls-2" d="M135.56,441.32l-.19-.18a1,1,0,0,1-.37-.85c.06-.6.71-1,1.24-1.37a3,3,0,0,0,.37-.24l.39-.29.09.48c.2,1.11-.6,1.73-1.25,2.23Zm.92-1.83c-.37.24-.85.57-.88.86a.22.22,0,0,0,0,.15A2.15,2.15,0,0,0,136.48,439.49Z"/></g><g id="path170"><path class="cls-2" d="M114,452.91a5.22,5.22,0,0,1-.69,0c-1.73-.06-2.94-1.33-4-2.62l-.17-.19.17-.2a2.89,2.89,0,0,0,.67-2.09,1.33,1.33,0,0,0-.58-.94,1.68,1.68,0,0,0-2.53.93,2.62,2.62,0,0,0,.44,1.76c.05.09.09.19.14.29l.1.21-.18.15a10.16,10.16,0,0,0-.75.72,6.89,6.89,0,0,1-1.73,1.37,5,5,0,0,1-6-1.19l-.2-.25.26-.19a10.81,10.81,0,0,1,1.56-.91c-.94-.08-2.16-.22-2.14-1.54v-.08l0-.06a2.22,2.22,0,0,1,1.91-1,6,6,0,0,1-1.4-1l-.23-.22.23-.21a6.06,6.06,0,0,1,5.15-1.55,3.51,3.51,0,0,1,.33-3.58,1.5,1.5,0,0,0,.2-.24c.29-.38.77-1,1.47-.65l.06,0,0,.06a13.22,13.22,0,0,1,.74,1.1,2.08,2.08,0,0,1,.88-1.69,1.22,1.22,0,0,1,1.61.37,1.65,1.65,0,0,1,.42,1.14c.24-.34.51-.72.83-1.13l.2-.27.24.23a4.57,4.57,0,0,1,1.4,4.61,5.8,5.8,0,0,1,5.11,1.62l.19.17-.14.22a3.5,3.5,0,0,1-1.37,1.11,2.25,2.25,0,0,1,1.83,1l0,.05v.06a1.33,1.33,0,0,1-.24,1.06,2.54,2.54,0,0,1-1.87.59l.58.32.93.5.27.16-.17.27A4.17,4.17,0,0,1,114,452.91Zm-4.1-2.86c1,1.12,2,2.16,3.46,2.22a4,4,0,0,0,3.61-1.21l-.62-.33c-.49-.26-1-.54-1.47-.84l-.67-.43.79-.12a5.76,5.76,0,0,1,.78-.06c.62,0,1.4,0,1.67-.38a.65.65,0,0,0,.12-.52c-.33-.5-1-.57-1.63-.65-.23,0-.46-.05-.69-.1l-.79-.16.71-.4.51-.27a4.24,4.24,0,0,0,1.31-.88,4.93,4.93,0,0,0-4.87-1.14l-.67.24.29-.65a3.9,3.9,0,0,0-.81-4.26,17.39,17.39,0,0,0-1.1,1.63l-.44.74-.12-.85a4.43,4.43,0,0,1,0-.63,1.58,1.58,0,0,0-.28-1.14c-.2-.24-.58-.45-.81-.27l0,0c-.43.23-.51.73-.61,1.31a4.66,4.66,0,0,1-.16.76l-.19.62-.35-.55-.3-.49a12.6,12.6,0,0,0-.75-1.15c-.2-.06-.36.09-.66.49l-.23.28c-.66.79-.67,2,0,3.46l.24.55-.59-.14a5.6,5.6,0,0,0-4.89,1.07,9.25,9.25,0,0,0,1.88,1.06l.81.37-.87.2c-.24.05-.5.09-.76.12-.71.08-1.34.16-1.66.69,0,.65.56.77,1.66.87a4.54,4.54,0,0,1,1,.16l.78.24-.75.32a13.51,13.51,0,0,0-2.12,1.08,4.46,4.46,0,0,0,5,.79,6.45,6.45,0,0,0,1.57-1.26l.61-.6,0-.07a3.2,3.2,0,0,1-.49-2.16,2.27,2.27,0,0,1,3.47-1.29,1.93,1.93,0,0,1,.83,1.35A3.49,3.49,0,0,1,109.86,450.05Z"/></g><g id="path172"><path class="cls-2" d="M159.92,452.67h-.32a5,5,0,0,1-4-2.18l0-.07v-.08a3.06,3.06,0,0,1,.28-1.42,3,3,0,0,0,.26-1,1.72,1.72,0,0,0-1.58-1.23h-.06a1.48,1.48,0,0,0-1.09.32,1.41,1.41,0,0,0-.54,1,2.79,2.79,0,0,0,.38,1.47l.18.41.08.2-.16.14-.59.56a6.15,6.15,0,0,1-2.4,1.68c-1.74.43-4.15.26-5.28-1.61l-.16-.27.27-.15.92-.51.59-.32a4.6,4.6,0,0,1-2-.52l-.17-.1v-.19c0-.38.1-.76.16-1.09l0-.11.1-.08a3.88,3.88,0,0,1,1.65-.6,2.82,2.82,0,0,1-1.38-1.16l-.12-.22.21-.16a6.78,6.78,0,0,1,4.89-1.26,5.29,5.29,0,0,1,.73-3.75l.12-.18c.2-.31.54-.83,1.16-.64l.11,0,.06.1.32.59c.12.23.23.45.36.66v0c.14-.84.36-2.1,1.61-1.92s1.36,1.27,1.41,2.14c.14-.22.28-.45.41-.69s.39-.65.62-1l.23-.32.24.31a7.41,7.41,0,0,1,1.43,4.65,6.69,6.69,0,0,1,4.76,1.23l.2.15-.12.23a2.85,2.85,0,0,1-1.31,1.17,2.73,2.73,0,0,1,1.57.72,1.6,1.6,0,0,1,.38,1.2v.16l-.14.08a5,5,0,0,1-2.08.55l.29.16,1.19.67.26.15-.15.27A4.21,4.21,0,0,1,159.92,452.67Zm-.31-.62h0a3.85,3.85,0,0,0,3.33-1.29l-.89-.51-1.19-.67-.87-.5,1.33-.08a6,6,0,0,0,2.36-.44.89.89,0,0,0-.23-.58,3.48,3.48,0,0,0-2.18-.63l-1-.05.87-.51c.19-.11.39-.21.58-.3a3.42,3.42,0,0,0,1.26-.87,6.14,6.14,0,0,0-4.42-.9l-.35.06v-.36a7.57,7.57,0,0,0-1.05-4.29c-.11.19-.23.38-.34.58a8.5,8.5,0,0,1-1,1.43l-.48.53,0-.71c0-.14,0-.29,0-.43,0-1.08-.12-1.8-.93-2-.55-.08-.72.36-.9,1.43a4.77,4.77,0,0,1-.17.76l-.17.52-.35-.42a7.2,7.2,0,0,1-.81-1.32c-.08-.14-.15-.29-.23-.44-.1,0-.2.12-.37.4l-.14.19a4.87,4.87,0,0,0-.55,3.7l.09.42-.43-.06a6.38,6.38,0,0,0-4.63.92,3.36,3.36,0,0,0,1.27.84l.52.24.7.37-.77.19a6.69,6.69,0,0,1-.75.16,3.84,3.84,0,0,0-1.47.46c0,.22-.08.46-.1.7a5.7,5.7,0,0,0,2.2.4l1.26.08-.78.5c-.47.3-1,.57-1.46.84l-.63.34c1,1.34,3,1.44,4.43,1.08a5.73,5.73,0,0,0,2.14-1.53l.44-.43-.09-.2a3.41,3.41,0,0,1-.42-1.79,2,2,0,0,1,.76-1.35,2.13,2.13,0,0,1,1.52-.46,2.36,2.36,0,0,1,2.18,1.68l0,.05v.06a3.42,3.42,0,0,1-.3,1.24,2.69,2.69,0,0,0-.25,1.07,4.28,4.28,0,0,0,3.47,1.86Z"/></g><g id="path174"><path class="cls-2" d="M175.85,440.83h-.12c-.67,0-1.35,0-2-.05l-1,0h-.06c-.45-.11-.62-.54-.76-.88a1.56,1.56,0,0,0-.22-.43l.38-.46a8.32,8.32,0,0,0,4.12.87l.93,0-.75.57c-.1.08-.31.25-.42.36Zm-3.07-.69.76,0a7.47,7.47,0,0,1-1-.31C172.63,440,172.69,440.1,172.78,440.14Z"/></g><g id="path176"><path class="cls-2" d="M88,444l-.1-.83a10,10,0,0,0-.68-2.62l-.13-.32.33-.09a10.84,10.84,0,0,1,2.46-.37l.48,0-.19.44a21.33,21.33,0,0,1-1.72,3.1Zm-.09-3.35a11.58,11.58,0,0,1,.46,1.64,21.34,21.34,0,0,0,1-1.88A9.56,9.56,0,0,0,87.91,440.68Z"/></g><g id="path178"><path class="cls-2" d="M175.4,445.25l-.55-.73a19.37,19.37,0,0,1-2.39-4l-.19-.44h.47l1,0c.65,0,1.32.05,2,.05h.46l-.18.43a9.44,9.44,0,0,0-.61,3.69Zm-2.19-4.49a19.44,19.44,0,0,0,1.6,2.68,9,9,0,0,1,.48-2.61l-1.57-.05Z"/></g><g id="path180"><path class="cls-2" d="M106.7,446.35l.14-.63c.22-1,.41-2,.59-2.94.14-.74.28-1.51.44-2.25l.23-1.12.35,1.09a33.39,33.39,0,0,1,1.09,5.2l.1.65-.52-.26a1.65,1.65,0,0,1-.79-1.54,5.33,5.33,0,0,0-.07-.53,16.21,16.21,0,0,0-.34,1.61l0,.15-.14.07-.26.12-.23.09Zm1.33-3.47.27.18a1.2,1.2,0,0,1,.21.17c-.08-.45-.18-.9-.29-1.35C108.15,442.22,108.09,442.55,108,442.88Z"/></g><g id="path182"><path class="cls-2" d="M129.93,446.93l0-1.06a19.27,19.27,0,0,1,.72-3.85c.13-.51.26-1,.38-1.56h.59a27.05,27.05,0,0,1,1,5.42l.05,1-.59-.83a4.56,4.56,0,0,1-.68-1.95c0-.15,0-.31-.08-.46l-.06.27a5.39,5.39,0,0,1-.75,2.13Zm1.41-5,.15.3c0-.16-.07-.31-.11-.47A1,1,0,0,0,131.34,442Z"/></g><g id="path184"><path class="cls-2" d="M153,447l0-1.17a16.44,16.44,0,0,1,1.17-5.36l.4-1.07.18,1.13c.08.52.19,1,.29,1.56a16.27,16.27,0,0,1,.47,3.76l0,1.13-.53-1a6.23,6.23,0,0,1-.56-1.86l-.06-.34a8,8,0,0,0-.23.78,5.7,5.7,0,0,1-.53,1.44Zm1.4-5.24c-.14.43-.26.84-.35,1.25a1.84,1.84,0,0,1,.17-.25l.3-.41,0-.13Z"/></g><g id="path186"><path class="cls-2" d="M108.38,450.16a1.47,1.47,0,0,1-.85-.26,1.86,1.86,0,0,1-1-1.93,1.7,1.7,0,0,1,1.33-1.53,1.94,1.94,0,0,1,1.75.37,1.57,1.57,0,0,1,.56,1.37,1.8,1.8,0,0,1-.92,1.72A1.64,1.64,0,0,1,108.38,450.16Zm0-3.19a1.34,1.34,0,0,0-.35,0h0a1.11,1.11,0,0,0-.86,1,1.25,1.25,0,0,0,.66,1.31l0,0a1,1,0,0,0,1.1,0,1.25,1.25,0,0,0,.63-1.17v-.07a1,1,0,0,0-.35-.88A1.38,1.38,0,0,0,108.39,447Z"/></g><g id="path188"><path class="cls-2" d="M84,450.13h-.17a2,2,0,0,1-1.4-.71,1.65,1.65,0,0,1-.38-1.23,1.88,1.88,0,0,1,.84-1.46l.15-.13.15-.14.09.19A9.3,9.3,0,0,1,84,450ZM83.12,447c-.38.35-.78.71-.73,1.22h0v0a1.29,1.29,0,0,0,.3,1,1.63,1.63,0,0,0,1,.58A9,9,0,0,0,83.12,447Z"/></g><g id="path190"><path class="cls-2" d="M131.38,450.17l-.25,0a1.79,1.79,0,0,1-1.61-1.39,1.72,1.72,0,0,1,.69-2,2,2,0,0,1,1.57-.27,1.63,1.63,0,0,1,1.06.75,1.79,1.79,0,0,1,0,2A1.77,1.77,0,0,1,131.38,450.17Zm-.07-3.11a1.44,1.44,0,0,0-.77.22h0a1.15,1.15,0,0,0-.43,1.31,1.19,1.19,0,0,0,1.07.94h0a1.17,1.17,0,0,0,1.14-.6,1.19,1.19,0,0,0,0-1.34l0,0a1,1,0,0,0-.68-.47A1.24,1.24,0,0,0,131.31,447.06Z"/></g><g id="path192"><path class="cls-2" d="M154.46,450.18a1.37,1.37,0,0,1-.34,0,1.89,1.89,0,0,1-1.53-1.59,1.73,1.73,0,0,1,.91-1.88,1.91,1.91,0,0,1,2.42.53,2,2,0,0,1-.07,2.19A1.67,1.67,0,0,1,154.46,450.18Zm0-3.12a1.41,1.41,0,0,0-.65.15h0a1.12,1.12,0,0,0-.59,1.24,1.3,1.3,0,0,0,1,1.1,1.1,1.1,0,0,0,1.12-.5,1.4,1.4,0,0,0,.07-1.52A1.16,1.16,0,0,0,154.43,447.06Z"/></g><g id="path194"><path class="cls-2" d="M179.1,450.33l0-.38a11.55,11.55,0,0,1,.65-3.42l.17-.44.33.33a2.61,2.61,0,0,0,.3.27,1.67,1.67,0,0,1,.79,1.23,2.19,2.19,0,0,1-1.89,2.35Zm1.09-3.17a11.38,11.38,0,0,0-.44,2.4,1.52,1.52,0,0,0,1-1.58v0C180.75,447.65,180.54,447.45,180.19,447.16Z"/></g><g id="path196"><path class="cls-2" d="M88.46,449.57l-.18-.55a5.89,5.89,0,0,1,1.59-.64l.3-.09h0a6.24,6.24,0,0,1-1.87-.66l-1-.6,1.16,0a26.87,26.87,0,0,1,5,.82l.31.07v.59c-.53.11-1.06.24-1.58.36A21.44,21.44,0,0,1,88.46,449.57Zm3.32-1.44.18.06-.55.27.6-.15.3-.07Z"/></g><g id="path198"><path class="cls-2" d="M105.56,449.3a17.73,17.73,0,0,1-3.57-.48c-.49-.1-1-.2-1.5-.28l0-.59a26.15,26.15,0,0,1,5-.89l.92-.05-.71.59a3.37,3.37,0,0,1-1.43.6,7.72,7.72,0,0,1,1.43.53ZM102,448.2l.14,0,.67.13-.47-.16.38-.15Z"/></g><g id="path200"><path class="cls-2" d="M110.29,449.68l.63-.62a3,3,0,0,1,1.61-.72l.28-.07-.08,0a5.41,5.41,0,0,1-1.82-.63l-1-.6,1.12,0a21.05,21.05,0,0,1,5.1.89l1.08.32-1.58.38a40,40,0,0,1-4.51.92Zm4.2-1.55-.47.3.85-.2Z"/></g><g id="path202"><path class="cls-2" d="M130,449.62l-.9-.05a17.4,17.4,0,0,1-3.41-.63c-.59-.16-1.2-.31-1.81-.43v-.59a23.58,23.58,0,0,1,5.3-.86h1l-.82.56a4.38,4.38,0,0,1-1.76.62l-.19,0,.45.13a3.57,3.57,0,0,1,1.46.64Zm-4.73-1.42.57.15.65.17-.13-.1-.45-.34.12,0Z"/></g><g id="path204"><path class="cls-2" d="M132.59,449.68l.74-.61a4.33,4.33,0,0,1,2.27-.8l-.57-.11a6.65,6.65,0,0,1-1.67-.49l.13-.58a24.25,24.25,0,0,1,5.66.83v.59l-1.51.34a26.68,26.68,0,0,1-4.1.75Zm4.16-1.66.15.08.4.21.2-.05.21-.05Z"/></g><g id="path206"><path class="cls-2" d="M152.55,449.7l-.76-.1c-1.21-.16-2.4-.44-3.55-.7l-1.74-.39v-.59l.71-.16a20.14,20.14,0,0,1,4.93-.67l.12.58a6.58,6.58,0,0,1-1.66.49l-.57.12a2.83,2.83,0,0,1,2,.83ZM148,448.21l.41.09.38-.2.16-.08Z"/></g><g id="path208"><path class="cls-2" d="M155.45,449.71l.85-.65a4.56,4.56,0,0,1,1.77-.7l.38-.09-.25,0a6.32,6.32,0,0,1-1.89-.57l.15-.57a25.18,25.18,0,0,1,5.3.75l.36.08v.59c-.6.12-1.22.26-1.82.4a29.61,29.61,0,0,1-3.78.69Zm4.75-1.58h0l-.48.27.41-.09.44-.11Z"/></g><g id="path210"><path class="cls-2" d="M176.47,449.67l-1.1-.1a28.65,28.65,0,0,1-4.23-.78l-1.11-.25V448a20,20,0,0,1,5.38-.86l.13.58a8.28,8.28,0,0,1-1.78.54l-.33.07a5.11,5.11,0,0,1,2.15.74Zm-5.1-1.44.18,0,.45-.19Z"/></g><g id="path212"><path class="cls-2" d="M170.9,475.73h-5.21c-2.59,0-5.27,0-7.9,0H88.9c-1.93,0-3.93,0-5.89-.09L83,475a9.75,9.75,0,0,1,2.94-.18c.39,0,.78,0,1.18,0-.17-.32-.34-.65-.49-1l-.31-.61.1-.14c.4-.59.82-1.16,1.23-1.72a31.37,31.37,0,0,0-1.72-3l-.67-1.07-.09-.16.1-.15c.29-.48.59-.95.89-1.41.49-.78,1-1.58,1.47-2.4l-.29-.43a3,3,0,0,1-.72-2.2A2,2,0,0,0,86,459c-.15-.21-.31-.42-.44-.64a13.24,13.24,0,0,1-1.37-4.18,12.44,12.44,0,0,0-1.23-3.87l-.38-.66.73.22.51.13.45.11.18,0,0,.18c.06.32.12.64.19,1a27.49,27.49,0,0,0,1.69,6.2,5.6,5.6,0,0,0,1.85,2.18l.22.17-.15.23-.24.36a4.39,4.39,0,0,0-.48.79,3.87,3.87,0,0,0,.58.93,4.8,4.8,0,0,1,.65,1l0,.12,0,.11a15.07,15.07,0,0,1-1.42,2.36c-.33.48-.67,1-1,1.48.17.29.34.58.52.87a25.57,25.57,0,0,1,1.83,3.44l.07.18-.13.14-.33.33a6,6,0,0,0-.78.93c-.06.38.23.7.65,1.1l.06.06c10.77.06,23.5.1,36.3,0,6,0,12.18,0,18.12,0h9.06c4.92-.08,9.91-.08,14.75-.08,2.45,0,4.9,0,7.36,0h.26c.75,0,1.3-.07,1.48-.58l0,0c.3-.58-.1-1-.75-1.64l-.35-.34-.13-.14.07-.18a24.85,24.85,0,0,1,1.56-3.25l.2-.36a3.27,3.27,0,0,1,.14-.33c.13-.24.2-.4.13-.54a16.43,16.43,0,0,0-1.24-2.35c-.27-.46-.55-.94-.81-1.42l-.15-.3.31-.12a2.82,2.82,0,0,1,.6-.2l.21,0,.11.19c.48.87,1,1.79,1.4,2.68l.78,1.53.07.14-.07.13c-.25.53-.52,1.05-.79,1.57-.43.82-.86,1.67-1.25,2.53l.13.17a7.82,7.82,0,0,1,1,1.59l0,.06a2.11,2.11,0,0,1-.81,1.88c.38,0,.77,0,1.15,0a9.32,9.32,0,0,1,2.87.2l-.08.59C176.94,475.72,173.91,475.73,170.9,475.73Zm-10.46-.62h5.25c3.05,0,6.16,0,9.27,0l.14-.17.27-.29a3.75,3.75,0,0,1-1.25.18h-7.63c-4.83,0-9.83,0-14.75.08h-9.06c-5.94,0-12.08,0-18.11,0-12.86.09-25.63.05-36.44,0H88l-.09-.09-.14-.14-.26-.26c.1.2.2.39.31.58l0,.09h72.57ZM87,459.47a2,2,0,0,1,.21,1.08q.15-.24.3-.45l.08-.11A7.08,7.08,0,0,1,87,459.47Zm-3.24-8.87c.09.2.17.39.24.59,0-.19-.07-.37-.11-.55Z"/></g><g id="path214"><path class="cls-2" d="M175.53,462.91l-.22-.54a1.56,1.56,0,0,0,.65-1.11.83.83,0,0,0-.34-.71l0-.05-.21-.25-.22-.27-.18-.24.24-.18a5.08,5.08,0,0,0,1.69-2.05,25.44,25.44,0,0,0,1.81-6.54l.14-.78.17-.06.31-.09.37-.11.63-.25-.23.63a22.47,22.47,0,0,0-.82,3.28c-.44,2.2-.9,4.48-2.56,6.19a3.08,3.08,0,0,1-.16,2.87l-.07.12-.14,0Zm.51-2.8a1.27,1.27,0,0,1,.25.27,2.63,2.63,0,0,0-.2-.54l-.07-.16-.2.17h0Z"/></g><g id="path216"><path class="cls-2" d="M114.32,462.67c-8.5,0-17,0-25.49,0a1.16,1.16,0,0,1-1.15-.44,1.56,1.56,0,0,1-.21-1.59l0-.07.07-.05a4.53,4.53,0,0,1,3-.57c.34,0,.66,0,1,0,9.43,0,19,0,28.28,0s18.88.05,28.31,0c4.35,0,8.77,0,13.05,0,4.81,0,9.78.06,14.67,0h.32l0,.32a3.61,3.61,0,0,0,0,.46,1.75,1.75,0,0,1-.49,1.64l0,0-.08,0a13.55,13.55,0,0,1-2.84.13c-.52,0-1,0-1.56,0l-16.55,0C141.34,462.65,127.84,462.67,114.32,462.67ZM88.77,462h0c21.93,0,44.21,0,65.76,0l16.54,0c.52,0,1.06,0,1.58,0a12.78,12.78,0,0,0,2.64-.1c.24-.23.24-.57.21-1.08a1.48,1.48,0,0,1,0-.21c-4.79,0-9.66,0-14.37,0-4.28,0-8.7-.05-13,0-9.44,0-19,0-28.32,0s-18.85-.05-28.26,0c-.32,0-.67,0-1,0a4.21,4.21,0,0,0-2.53.42,1,1,0,0,0,.17.88.56.56,0,0,0,.58.23Z"/></g><g id="path218"><path class="cls-2" d="M130.48,472.18H93c-.55,0-1.09,0-1.63,0-.88,0-1.8,0-2.72-.06l-.7,0,.51-.48a21.59,21.59,0,0,1,4-2.73c.84-.48,1.7-1,2.5-1.54h0c-.94-.55-1.9-1.09-2.83-1.61-1.12-.63-2.28-1.28-3.4-1.95l-.12-.07,0-.13a2.27,2.27,0,0,1,0-.34c0-.11,0-.22,0-.29l-.08-.37h17.3c5.55,0,11.29,0,16.93,0,2.91,0,5.92-.06,8.9,0l.93,0-.76.53c-1.27.88-2.62,1.66-3.94,2.41-.93.53-1.89,1.08-2.81,1.66,1.14.83,2.37,1.56,3.56,2.27,1,.57,1.94,1.15,2.88,1.79l.07,0,0,.07.07.16,0,.12.16.31-.33.11A3.12,3.12,0,0,1,130.48,472.18Zm-.2-.61a2,2,0,0,0,.6,0c-.86-.56-1.75-1.09-2.62-1.61a40.61,40.61,0,0,1-4-2.57l-.34-.26.36-.23c1-.68,2.15-1.31,3.21-1.92s2.08-1.19,3.09-1.84c-2.65,0-5.32,0-7.92,0H105.76c-5.43,0-11.05,0-16.58,0,0,0,0,.1,0,.14,1.08.64,2.19,1.27,3.27,1.87s2,1.11,3,1.69l.15.09v.17a.44.44,0,0,0,0,.1.86.86,0,0,1,0,.24v.15l-.13.09c-.86.62-1.8,1.16-2.71,1.69a24.15,24.15,0,0,0-3.32,2.15c.65,0,1.3,0,1.93,0h38.87Z"/></g><g id="path220"><path class="cls-2" d="M132.91,472.18a3.25,3.25,0,0,1-1.23-.18l-.26-.1.09-.27a1.35,1.35,0,0,1,.69-.72l.21-.13,2.42-1.5c1.24-.76,2.51-1.54,3.76-2.33v0c-.85-.49-1.73-1-2.58-1.42-1.39-.76-2.84-1.54-4.2-2.42l-.85-.55h1c14.09-.06,28.39-.06,42.51,0h1l-.8.55c-1.19.81-2.43,1.54-3.64,2.24-.93.54-1.9,1.11-2.82,1.7h0c1,.66,2,1.29,3,1.9s1.83,1.11,2.73,1.69a2,2,0,0,1,.69.8l.12.2.3.46h-.55c-9.16.11-18.49.1-27.51.09h-14.1Zm-.58-.64a4.74,4.74,0,0,0,.76,0H147c8.85,0,18,0,27-.09a1,1,0,0,0-.34-.34c-.91-.59-1.83-1.15-2.72-1.7-1.08-.65-2.18-1.32-3.26-2l-.19-.13.07-.22c.07-.19.11-.31.14-.38l0-.07.07,0c1-.63,2-1.21,2.92-1.77s1.86-1.09,2.78-1.68c-13.45-.05-27.05-.05-40.47,0,1.08.66,2.19,1.26,3.28,1.84.91.5,1.85,1,2.76,1.54l.15.09v.17a2.06,2.06,0,0,1,0,.21c0,.06,0,.12,0,.15v.17l-.14.09c-1.29.82-2.61,1.63-3.89,2.42l-2.41,1.48a2.3,2.3,0,0,1-.23.15Z"/></g><g id="path222"><path class="cls-2" d="M131.67,471.37a1.91,1.91,0,0,1-1-.4l-.22-.14c-.75-.48-1.51-.95-2.25-1.39-1-.63-2.09-1.27-3.1-2l-.34-.24.33-.25a37.35,37.35,0,0,1,4.14-2.57c.78-.44,1.58-.9,2.36-1.38l.14-.09.16.08c2.31,1.23,4.36,2.37,6.27,3.49l.15.09v.73l-.13.09c-1.29.85-2.62,1.67-3.91,2.47-.69.42-1.37.84-2,1.27A.88.88,0,0,1,131.67,471.37Zm-5.86-4.16c.89.6,1.82,1.16,2.72,1.71.74.45,1.51.91,2.25,1.4a1.79,1.79,0,0,1,.24.15c.46.3.66.37.85.21l0,0,2.06-1.29c1.24-.76,2.52-1.55,3.76-2.37v-.06c-1.82-1.06-3.77-2.14-5.95-3.3-.74.45-1.5.88-2.24,1.29A42.4,42.4,0,0,0,125.81,467.21Z"/></g><g id="path224"><path class="cls-2" d="M98.91,466.87h-.17a1.7,1.7,0,0,1-1.64-1.46,1.72,1.72,0,0,1,1.15-1.87h0a1.73,1.73,0,0,1,1.83.46,1.64,1.64,0,0,1,.41,1.73A1.57,1.57,0,0,1,98.91,466.87Zm-.44-2.76a1.12,1.12,0,0,0-.78,1.19v0a1.1,1.1,0,0,0,1.09.92,1,1,0,0,0,1.13-.69v0a1,1,0,0,0-.27-1.11A1.14,1.14,0,0,0,98.47,464.11Z"/></g><g id="path226"><path class="cls-2" d="M142.54,466.87a1.72,1.72,0,0,1-1.49-.81,1.44,1.44,0,0,1-.3-1.22,2,2,0,0,1,1.05-1.32h0a1.74,1.74,0,0,1,2,.43,1.75,1.75,0,0,1-1.05,2.9Zm-.48-2.8a1.34,1.34,0,0,0-.71.89.81.81,0,0,0,.18.72l0,.05a1.16,1.16,0,0,0,1.13.52,1,1,0,0,0,.86-.67l0-.05a1,1,0,0,0-.2-1.16A1.18,1.18,0,0,0,142.06,464.07Z"/></g><g id="path228"><path class="cls-2" d="M164.21,466.57a1.72,1.72,0,0,1-1.46-.75,1.44,1.44,0,0,1-.3-1.16,1.78,1.78,0,0,1,2.73-1.18,1.68,1.68,0,0,1-.49,3A2,2,0,0,1,164.21,466.57Zm-.06-2.79a.92.92,0,0,0-.58.19l0,0a1.08,1.08,0,0,0-.49.76.85.85,0,0,0,.17.69l0,0a1.18,1.18,0,0,0,1.29.45,1,1,0,0,0,.78-.86V465a1,1,0,0,0-.48-1A1.28,1.28,0,0,0,164.15,463.78Z"/></g><g id="path230"><path class="cls-2" d="M174.59,471.25l-.29-.15c-1.33-.81-2.66-1.65-3.94-2.47l-2-1.25-.31-.2.25-.26a4.91,4.91,0,0,1,1.47-1.12l2.24-1.34c.73-.45,1.5-.91,2.26-1.35l.26-.15.26.45a6.08,6.08,0,0,0,.39.66l.19.27-.29.17c-.68.4-1.39.79-2.07,1.16s-1.56.86-2.33,1.32c.75.49,1.53,1,2.28,1.43s1.39.85,2.08,1.29l.24.16-.15.25c-.11.19-.31.6-.43.83ZM169,467.07l1.64,1.05c1.19.76,2.42,1.54,3.65,2.3.06-.12.13-.24.18-.35-.6-.39-1.22-.77-1.82-1.14-.89-.54-1.82-1.1-2.7-1.71l-.38-.26.39-.25c.91-.56,1.85-1.07,2.76-1.57.59-.32,1.19-.65,1.79-1l-.21-.35-2,1.19c-.74.44-1.5.91-2.26,1.35h0A4.31,4.31,0,0,0,169,467.07Z"/></g><g id="path232"><path class="cls-2" d="M88.78,471.35l-.67-.18v-.24c0-.06,0-.17,0-.28a2.47,2.47,0,0,1,0-.35v-.15l.11-.09a21.34,21.34,0,0,1,2.38-1.58c.59-.36,1.21-.73,1.79-1.15a.32.32,0,0,0-.21-.16l-.06,0c-.51-.32-1-.62-1.56-.91a18.61,18.61,0,0,1-2.3-1.43l-.15-.11,0-.18a4.65,4.65,0,0,0,.06-.61v-.44l.41.15a28.14,28.14,0,0,1,4.25,2.23c.66.4,1.34.81,2,1.18l.41.22-.38.29a65.53,65.53,0,0,1-6,3.77Zm-.09-.65h0c1.82-1.06,3.68-2.15,5.41-3.39-.55-.31-1.09-.64-1.62-1a30.54,30.54,0,0,0-3.78-2,.28.28,0,0,1,0,.09,21.93,21.93,0,0,0,2.1,1.29c.51.28,1,.58,1.55.91a.94.94,0,0,1,.63.81v.18l-.14.1c-.64.48-1.33.89-2,1.3a20.65,20.65,0,0,0-2.19,1.44s0,.09,0,.14S88.69,470.66,88.69,470.7Z"/></g><g id="path234"><path class="cls-2" d="M104.4,470.76c-.79,0-1.5-.55-2.1-1.65a4.05,4.05,0,0,1-.21-3.29,3.25,3.25,0,0,1,1.92-1.95l.09,0c2-.08,4.12-.07,6.13-.05,1.4,0,2.86,0,4.28,0a3,3,0,0,1,2.58,1.24,3.73,3.73,0,0,1,.61,3.32,3.31,3.31,0,0,1-2,2.33h-.09c-3,.08-6,.07-8.86.07H104.4Zm-.23-6.3a2.63,2.63,0,0,0-1.51,1.58,3.45,3.45,0,0,0,.17,2.78c.52,1,1.08,1.39,1.71,1.33h2.22c2.88,0,5.86,0,8.79-.06a2.68,2.68,0,0,0,1.56-1.9,3.1,3.1,0,0,0-.49-2.78,2.44,2.44,0,0,0-2.08-1c-1.45,0-2.91,0-4.32,0C108.23,464.39,106.18,464.37,104.17,464.46Z"/></g><g id="path236"><path class="cls-2" d="M120.62,467.16a1.24,1.24,0,0,1-.33,0,1.53,1.53,0,0,1-1.43-1.26,1.77,1.77,0,0,1,.82-2l0,0a1.93,1.93,0,0,1,2.21.62,1.66,1.66,0,0,1,0,1.93A1.62,1.62,0,0,1,120.62,467.16Zm-.7-2.78a1.19,1.19,0,0,0-.47,1.34.94.94,0,0,0,.88.8h.07a1,1,0,0,0,1.06-.49,1.07,1.07,0,0,0,0-1.24l0,0A1.32,1.32,0,0,0,119.92,464.38Z"/></g><g id="path238"><path class="cls-2" d="M164.23,466.22a1.34,1.34,0,0,1-1.23-.73,1.09,1.09,0,0,1-.14-.92,1.27,1.27,0,0,1,.67-.83,1.34,1.34,0,1,1,.8,2.48Zm-.07-2.07a.52.52,0,0,0-.29.09l-.06,0a.7.7,0,0,0-.37.45.48.48,0,0,0,.07.43l0,0a.76.76,0,0,0,.75.4.68.68,0,0,0,.62-.45v0a.66.66,0,0,0-.26-.78A.84.84,0,0,0,164.16,464.15Z"/></g><g id="path240"><path class="cls-2" d="M98.92,466.56a1.24,1.24,0,0,1-.41-.08,1.61,1.61,0,0,1-1.05-1.35,1.12,1.12,0,0,1,.69-1.08,1.24,1.24,0,0,1,1.72.28,1.33,1.33,0,0,1-.08,1.83A1.17,1.17,0,0,1,98.92,466.56Zm-.07-2.14a.64.64,0,0,0-.37.13l0,0a.51.51,0,0,0-.36.52,1,1,0,0,0,.64.81.55.55,0,0,0,.64-.17l0,0a.72.72,0,0,0,0-1A.75.75,0,0,0,98.85,464.42Z"/></g><g id="path242"><path class="cls-2" d="M142.58,466.53a1.18,1.18,0,0,1-.63-.19c-.71-.24-.71-.94-.72-1.4a2.82,2.82,0,0,0,0-.43l0-.25.24-.09.29-.11c.49-.21,1.17-.5,1.7,0a1.42,1.42,0,0,1,.12,1.93A1.15,1.15,0,0,1,142.58,466.53Zm-.75-1.87a2.44,2.44,0,0,1,0,.27c0,.53,0,.76.33.84l.08,0a.52.52,0,0,0,.78-.15.84.84,0,0,0,0-1.11l0,0c-.23-.23-.57-.11-1.06.1Z"/></g><g id="path244"><path class="cls-2" d="M149,470.79a11.15,11.15,0,0,1-1.91-.13H147l-.05,0a4.11,4.11,0,0,1-1.77-3.55,3.39,3.39,0,0,1,1.72-2.92,3.53,3.53,0,0,1,1.88-.35H149c1.3,0,2.61,0,3.89,0,1.71,0,3.47,0,5.23,0h0a2.9,2.9,0,0,1,2.3,1.24,3.62,3.62,0,0,1,.6,3.15c-.32,1.33-1.28,2.62-2.69,2.51-1.25,0-2.53,0-3.77,0s-2.52,0-3.77,0H149Zm-1.74-.72a14.11,14.11,0,0,0,2.44.11h1.17c1.25-.05,2.54,0,3.78,0s2.52,0,3.77,0h0c1.21.11,1.87-1.25,2.07-2.07a3,3,0,0,0-.51-2.63,2.24,2.24,0,0,0-1.86-1c-1.75,0-3.51,0-5.22,0-1.28,0-2.59,0-3.89,0h-.25a2.8,2.8,0,0,0-1.56.26h0a2.8,2.8,0,0,0-1.41,2.42A3.5,3.5,0,0,0,147.22,470.07Z"/></g><g id="path246"><path class="cls-2" d="M109.28,470.4c-1.63,0-3.31,0-5,0h-.06l0,0a3.36,3.36,0,0,1-1.9-3.35,2.82,2.82,0,0,1,2-2.7h.05a46.41,46.41,0,0,1,5.13-.12c1.07,0,2.19,0,3.27,0h.71c1.15,0,2.45,0,3.29,1a3.24,3.24,0,0,1,.67,2.94,3,3,0,0,1-1.83,2.22l0,0h-.06C113.44,470.38,111.4,470.4,109.28,470.4Zm-5-.64c4,.06,7.6.05,11.08,0a2.51,2.51,0,0,0,1.41-1.78,2.66,2.66,0,0,0-.55-2.41c-.66-.82-1.76-.8-2.82-.78h-.71c-1.09,0-2.21,0-3.29,0a44.45,44.45,0,0,0-5,.11,2.19,2.19,0,0,0-1.55,2.14A2.78,2.78,0,0,0,104.29,469.76Z"/></g><g id="path248"><path class="cls-2" d="M120.65,466.81a1.57,1.57,0,0,1-1.06-.4,1.19,1.19,0,0,1-.41-1,1.15,1.15,0,0,1,.55-1.16,1.41,1.41,0,0,1,1.53,0l0,0,0,.05.22.29c.15.21.3.42.43.63l.1.18-.12.16-.21.32a2.21,2.21,0,0,1-.72.81l0,0h0A1.33,1.33,0,0,1,120.65,466.81Zm-.13-2.16a.86.86,0,0,0-.46.14.55.55,0,0,0-.28.58v.08a.63.63,0,0,0,.21.51,1,1,0,0,0,.77.24,2.21,2.21,0,0,0,.48-.59l.12-.19c-.09-.14-.2-.28-.3-.42l-.19-.26A.7.7,0,0,0,120.52,464.65Z"/></g><g id="path250"><path class="cls-2" d="M131.74,470.23l-.15-.09-1.56-.85c-.94-.51-1.91-1-2.84-1.61l-.14-.09v-.16a1.62,1.62,0,0,1,0-.21.69.69,0,0,0,0-.13v-.17l.62-.37c1.2-.73,2.44-1.47,3.68-2.14l.12-.07.12.05a25.18,25.18,0,0,1,3.3,1.49l1.33.67.1,0,0,.09a2.72,2.72,0,0,1,.14.38l.08.22-.2.13c-.75.47-1.52.92-2.27,1.36s-1.51.9-2.24,1.36Zm-4.07-3c.86.52,1.77,1,2.65,1.49l1.41.76c.69-.43,1.41-.86,2.11-1.27s1.36-.8,2-1.22l-1.23-.61a25.35,25.35,0,0,0-3.09-1.42c-1.18.65-2.38,1.37-3.54,2.06Z"/></g><g id="path252"><path class="cls-2" d="M152.41,470.43h-4.34c-1,.05-1.86-.72-2.4-2.19a3.18,3.18,0,0,1,1.82-3.9l.06,0a33.43,33.43,0,0,1,4.89-.15c1,0,1.95,0,2.92,0,.37,0,.73,0,1.1,0a5.68,5.68,0,0,1,2.95.44,3.11,3.11,0,0,1,1.36,2.87,3.28,3.28,0,0,1-1.67,2.81l0,0H159C156.8,470.41,154.59,470.43,152.41,470.43Zm-4.17-.61h2c2.83,0,5.75,0,8.62-.12a2.69,2.69,0,0,0,1.29-2.27,2.52,2.52,0,0,0-1.06-2.32,5.2,5.2,0,0,0-2.63-.35c-.37,0-.75,0-1.13,0-1,0-2,0-2.92,0a34.62,34.62,0,0,0-4.77.15,2.55,2.55,0,0,0-1.42,3.11c.25.68.8,1.8,1.75,1.8h.25Z"/></g><g id="path254"><path class="cls-2" d="M175.06,469.82l-.14-.06a17.37,17.37,0,0,1-3.6-2.12l-.55-.39-.36-.25.37-.25a31.24,31.24,0,0,1,4.43-2.44l.24-.11.14.22a22.57,22.57,0,0,1,1.29,2.39l.07.15-.09.14c-.15.26-.28.55-.42.86a3.55,3.55,0,0,1-1.25,1.78ZM171.49,467l.18.13a16.91,16.91,0,0,0,3.33,2,3.46,3.46,0,0,0,.89-1.42,8.08,8.08,0,0,1,.37-.79,19.63,19.63,0,0,0-1-2A30.49,30.49,0,0,0,171.49,467Z"/></g><g id="path256"><path class="cls-2" d="M88.09,470.29l-.17-.17a11.9,11.9,0,0,1-1.72-2.53l-.17-.28.09-.15c.42-.77.93-1.58,1.49-2.42l.15-.21.23.11A31.42,31.42,0,0,1,92.24,467l.31.21-.27.26a15.7,15.7,0,0,1-2.85,2l-1.13.68Zm-1.36-3a12.7,12.7,0,0,0,1.46,2.22c.31-.2.62-.38.93-.56a16.94,16.94,0,0,0,2.45-1.65,28,28,0,0,0-3.6-2C87.51,466,87.09,466.66,86.73,467.3Z"/></g><g id="path258"><path class="cls-2" d="M110.1,469.54c-1.46,0-2.91,0-4.36,0a2.45,2.45,0,0,1-2.5-1.93,2.37,2.37,0,0,1,1.65-2.53H105c1.83-.15,3.69-.12,5.5-.09,1.12,0,2.28.05,3.42,0a2.91,2.91,0,0,1,2.09.74,2.09,2.09,0,0,1,.7,1.53,2.23,2.23,0,0,1-.66,1.66,2,2,0,0,1-1.54.61C113,469.53,111.56,469.54,110.1,469.54Zm-4.38-.63c2.93,0,5.87,0,8.77,0a1.39,1.39,0,0,0,1.09-.44,1.58,1.58,0,0,0,.48-1.21,1.48,1.48,0,0,0-.51-1.11,2.21,2.21,0,0,0-1.64-.57c-1.17,0-2.33,0-3.46,0-1.78,0-3.62-.07-5.4.08a1.77,1.77,0,0,0-1.22,1.82A1.86,1.86,0,0,0,105.72,468.91Z"/></g><g id="path260"><path class="cls-2" d="M131.75,469.79l-.14-.06a21.13,21.13,0,0,1-3.92-2.21l-.35-.25.35-.24a28.71,28.71,0,0,1,3.67-2.2l.1-.06.11,0a16.13,16.13,0,0,1,4.16,1.94l.37.22-.33.28a25,25,0,0,1-3.89,2.48Zm-3.36-2.51a21.09,21.09,0,0,0,3.33,1.83,25.88,25.88,0,0,0,3.33-2.07,14.41,14.41,0,0,0-3.52-1.62A28.92,28.92,0,0,0,128.39,467.28Z"/></g><g id="path262"><path class="cls-2" d="M158,465.64c-3.18,0-6.42,0-9.56,0l0-.6c2.74-.19,5.54-.1,8.24,0l1.35,0Z"/></g><g id="path264"><path class="cls-2" d="M157.32,469.55h-.74c-1.15,0-2.31,0-3.44,0-1.51,0-3.08,0-4.63,0h0a2.15,2.15,0,0,1-1.59-2.15,2.23,2.23,0,0,1,1.51-2.3l.09,0c3.14,0,6.38,0,9.56,0h0a2.27,2.27,0,0,1,1.79,1.48,2.11,2.11,0,0,1-.3,2.16A2.5,2.5,0,0,1,157.32,469.55Zm-.73-.61H157c.86,0,1.67,0,2.13-.63a1.52,1.52,0,0,0,.22-1.57,1.72,1.72,0,0,0-1.29-1.1c-3.16,0-6.38,0-9.5,0a1.68,1.68,0,0,0-1,1.69,1.6,1.6,0,0,0,1.1,1.58c1.52.07,3.07.06,4.57.05,1.13,0,2.3,0,3.44,0Z"/></g><g id="path266"><path class="cls-2" d="M114.36,469.19H111c-1.83,0-3.74,0-5.61-.06a1.84,1.84,0,0,1-1.71-1.64,1.71,1.71,0,0,1,1.1-1.94,5,5,0,0,1,2-.24h.44c1.21,0,2.44,0,3.63,0,.9,0,1.83,0,2.76,0,1.37.05,2.21.51,2.49,1.39a1.75,1.75,0,0,1-.27,1.68A1.91,1.91,0,0,1,114.36,469.19Zm-8-3.29a3.53,3.53,0,0,0-1.33.2h0a1.11,1.11,0,0,0-.71,1.28,1.22,1.22,0,0,0,1.13,1.12c1.86.08,3.76.07,5.59.06h3.21a1.27,1.27,0,0,0,1.13-.52,1.16,1.16,0,0,0,.19-1.12c-.2-.62-.85-.95-1.94-1h-2.74c-1.19,0-2.43,0-3.64,0h-.88Z"/></g><g id="path268"><path class="cls-2" d="M151.34,469.19c-.87,0-1.75,0-2.62-.07h0a1.79,1.79,0,0,1-1.39-1.68,1.87,1.87,0,0,1,1.08-1.94,2.49,2.49,0,0,1,1.12-.18h3.92c1.15,0,2.34,0,3.5,0a2.7,2.7,0,0,1,2.47,1.09l0,0a1.89,1.89,0,0,1-.5,2.26,3.88,3.88,0,0,1-2.31.45H156c-1,0-2,0-3,0Zm-2.56-.67c1.39.08,2.82.07,4.2.05,1,0,2,0,3,0h.62a3.36,3.36,0,0,0,2-.35,1.32,1.32,0,0,0,.28-1.53c-.34-.61-1.17-.73-1.94-.76h-3.49c-1.15,0-2.34,0-3.52,0h-.4a1.82,1.82,0,0,0-.86.11h0a1.28,1.28,0,0,0-.72,1.34A1.22,1.22,0,0,0,148.78,468.52Z"/></g><g id="path270"><path class="cls-2" d="M142.52,470.44a1.63,1.63,0,0,1-1.46-.81l0-.05a2,2,0,0,1,.75-2.39h0a1.88,1.88,0,0,1,1.87.28,1.63,1.63,0,0,1,.64,1.56,1.65,1.65,0,0,1-1.4,1.38A1.81,1.81,0,0,1,142.52,470.44Zm-.92-1.08a1.13,1.13,0,0,0,1.21.45,1.06,1.06,0,0,0,.91-.88,1,1,0,0,0-.42-1,1.26,1.26,0,0,0-1.24-.21A1.36,1.36,0,0,0,141.6,469.36Z"/></g><g id="path272"><path class="cls-2" d="M164.27,470.44a1.64,1.64,0,0,1-1.26-.57,1.73,1.73,0,0,1-.46-1.56,1.69,1.69,0,0,1,1-1.28,1.61,1.61,0,0,1,2,.34,1.69,1.69,0,0,1,.38,2,1.66,1.66,0,0,1-1.29,1A1.63,1.63,0,0,1,164.27,470.44Zm0-3a.92.92,0,0,0-.46.13l0,0a1.07,1.07,0,0,0-.63.83,1.1,1.1,0,0,0,.3,1l0,0a1,1,0,0,0,1,.35,1.07,1.07,0,0,0,.83-.65l0-.05a1.1,1.1,0,0,0-.26-1.33A1.24,1.24,0,0,0,164.27,467.43Z"/></g><g id="path276"><path class="cls-2" d="M98.39,470.75a2.6,2.6,0,0,1-.4,0H97.9l-.07-.07a2.5,2.5,0,0,1-.8-2.09,1.45,1.45,0,0,1,.85-1.14,1.58,1.58,0,0,1,1.86.07,1.68,1.68,0,0,1,.7,1.83A1.92,1.92,0,0,1,98.39,470.75Zm-.22-.62c.73.07,1.54-.19,1.68-.95v0a1.1,1.1,0,0,0-.47-1.18,1,1,0,0,0-1.18-.06l0,0a.9.9,0,0,0-.54.7A1.91,1.91,0,0,0,98.17,470.13Z"/></g><g id="path278"><path class="cls-2" d="M120.29,470.75a1.62,1.62,0,0,1-1.42-.91,1.56,1.56,0,0,1,.27-1.9,1.59,1.59,0,0,1,1.6-.54,2.21,2.21,0,0,1,1.58,1.59l0,.12-.07.11-.18.3c-.3.53-.69,1.24-1.54,1.2Zm.07-2.79a1,1,0,0,0-.77.38l0,0a1,1,0,0,0-.15,1.18,1,1,0,0,0,1.06.57h.09c.45,0,.69-.32,1-.89l.13-.22a1.65,1.65,0,0,0-1.09-1A1,1,0,0,0,120.36,468Z"/></g><g id="path280"><path class="cls-2" d="M164.27,470.09a1.08,1.08,0,0,1-.74-.3,1.4,1.4,0,0,1-.57-1.44,1.16,1.16,0,0,1,1-1h0c.92-.12,1.52.19,1.63.82a1.51,1.51,0,0,1-.62,1.71A1.16,1.16,0,0,1,164.27,470.09Zm-.27-2.15c-.33.05-.42.41-.44.52a.78.78,0,0,0,.3.82l.07.05a.48.48,0,0,0,.66,0,.89.89,0,0,0,.39-1l0-.08C164.9,467.89,164.33,467.89,164,467.94Z"/></g><g id="path282"><path class="cls-2" d="M142.59,470.08h-.2a1.32,1.32,0,0,1-.4-2.48,1.23,1.23,0,0,1,1.56.29,1.16,1.16,0,0,1,.21,1.52A1.28,1.28,0,0,1,142.59,470.08Zm0-2.06a.4.4,0,0,0-.23.08l0,0a.66.66,0,0,0-.41.8l0,.06a.63.63,0,0,0,.57.49.72.72,0,0,0,.76-.36l0-.05a.6.6,0,0,0-.14-.76A.86.86,0,0,0,142.55,468Z"/></g><g id="path284"><path class="cls-2" d="M98.41,470.59l-.16-.18a2.73,2.73,0,0,0-.23-.25,1.46,1.46,0,0,1-.59-1.45,1,1,0,0,1,.28-.71,2.19,2.19,0,0,1,1.57-.37h.42l.07.2c.14.43.26.81.34,1.15v.12c-.12.72-.72,1-1.2,1.23l-.28.14Zm.63-2.35a1.41,1.41,0,0,0-.9.19.42.42,0,0,0-.11.33v.05l0,0c-.1.32.1.54.44.89l.1.1.1,0c.47-.22.77-.38.85-.72s-.14-.53-.24-.83Z"/></g><g id="path286"><path class="cls-2" d="M120.36,470.36a1,1,0,0,1-.45-.11,1.12,1.12,0,0,1-.8-1.08,1.29,1.29,0,0,1,.77-1.29,1.1,1.1,0,0,1,1.19.08,1.81,1.81,0,0,0,.35.14l.24,0V470l-.22.07a1.84,1.84,0,0,0-.32.12A1.83,1.83,0,0,1,120.36,470.36Zm0-2a.27.27,0,0,0-.15.05l0,0,0,0a.68.68,0,0,0-.4.7.52.52,0,0,0,.37.53h0l0,0c.18.11.38,0,.69-.12l.19-.08v-.9l-.25-.11A1.15,1.15,0,0,0,120.36,468.34Z"/></g><g id="path288"><path class="cls-2" d="M88.9,474.67a1.72,1.72,0,0,1-1.23-.53,1.23,1.23,0,0,1-.29-1.11c.1-.84,1-.93,1.53-1l.16,0c13.38,0,27-.06,40.1-.07,9.88,0,20.08,0,30.13-.05,2.3,0,4.63,0,6.9,0,3,0,6.14,0,9.2,0h.23l.07.26a2.34,2.34,0,0,1,0,1.78,1,1,0,0,1-.7.4c-1.69.07-3.39.07-5,.06-1.91,0-3.87,0-5.8.09-9.23,0-18.59,0-27.64,0-10.88,0-22.13,0-33.2,0-3.79.07-7.65.06-11.38.06h-3Zm.19-2H89c-.64.07-1,.16-1,.47v.05a.61.61,0,0,0,.15.57,1.09,1.09,0,0,0,.94.32h2.88c3.73,0,7.58,0,11.38-.06,11.07,0,22.32,0,33.2,0,9,0,18.41,0,27.62,0,1.93-.11,3.91-.1,5.82-.1,1.63,0,3.31,0,5-.05a.32.32,0,0,0,.25-.14c.16-.23.06-.74,0-1.11-3-.06-6-.05-9,0-2.27,0-4.61,0-6.9,0l-30.12,0C116,472.56,102.46,472.58,89.09,472.63Z"/></g><g id="path290"><path class="cls-2" d="M108.05,475c-7,0-13.8,0-19.92-.06v-.61c12.08.06,24.34.06,36.42,0v.61C119,475,113.44,475,108.05,475Z"/></g><g id="path292"><path class="cls-2" d="M131.85,589.22l-.93-1.12a14.64,14.64,0,0,0-1.36-1.54,16.35,16.35,0,0,0-5-3.14,23.41,23.41,0,0,0-6.25-1.23l-.85-.1a76.89,76.89,0,0,1-15.52-3.29A69.66,69.66,0,0,1,91,574.28l-.06,0,0,0a52.86,52.86,0,0,1-4.66-4.71l-.06-.08a24.69,24.69,0,0,1-3.53-8.5v-.11c-.16-18.32-.17-35.55-.19-53.79,0-10.24,0-20.83,0-31.69v-.64l.63,0c1.94.1,3.92.09,5.84.08h76.8c4.67,0,9.49,0,14.23-.06l.62,0v.63c-.08,15.54-.07,31.35-.06,46.64,0,8.73,0,17.76,0,26.63,0,1.22,0,2.44,0,3.62,0,1.94,0,3.94-.09,5.92v.09a12.2,12.2,0,0,0-.2,2.54v.1c-.06.3-.1.61-.15.92a12.21,12.21,0,0,1-1.29,4.43l0,.06-.07.08a19.41,19.41,0,0,1-3.14,4.3c-.54.62-1.06,1.2-1.51,1.79l0,0c-2,2.18-4.7,3.41-7.3,4.6l-1.47.68-.1,0a20.23,20.23,0,0,0-2.21.79c-.42.17-.85.34-1.29.5l-.08,0c-1.09.23-2.19.55-3.25.87-.88.26-1.8.54-2.72.76a59,59,0,0,1-12.2,1.74h-.07a13.18,13.18,0,0,0-3.82.45l-1,.23a11.12,11.12,0,0,0-5.83,4.3l0,.06c-.1.22-.27.59-.29.67Zm-40.19-16a67.7,67.7,0,0,0,10.64,4.41,75.66,75.66,0,0,0,15.27,3.24l.86.09a25.29,25.29,0,0,1,6.57,1.31,18.07,18.07,0,0,1,5.39,3.38,13.34,13.34,0,0,1,1.08,1.19l.12-.22v0h0a.87.87,0,0,1,.35-.38A12.71,12.71,0,0,1,138,582l.09,0,1.06-.23a14.15,14.15,0,0,1,4.15-.48,57.47,57.47,0,0,0,11.91-1.71c.9-.21,1.8-.48,2.67-.74,1.07-.32,2.17-.65,3.3-.89.4-.14.81-.31,1.21-.46a22,22,0,0,1,2.28-.82l1.44-.67c2.49-1.13,5.06-2.31,6.91-4.3.47-.62,1-1.21,1.54-1.83a17.91,17.91,0,0,0,3-4.12l.05-.09.11-.11a11.69,11.69,0,0,0,1.09-3.94l.15-.89a14,14,0,0,1,.21-2.69c.13-1.93.11-3.89.09-5.79,0-1.19,0-2.42,0-3.64,0-8.86,0-17.89,0-26.62,0-15.09,0-30.69.06-46-4.56.08-9.17.07-13.64,0H88.9c-1.73,0-3.5,0-5.27-.05,0,10.63,0,21,.05,31.05,0,18.22,0,35.43.19,53.73a23.35,23.35,0,0,0,3.33,8A49.82,49.82,0,0,0,91.66,573.24Z"/></g><g id="path294"><path class="cls-2" d="M100.28,517.2H100a1.63,1.63,0,0,1-1.52-.68l-.06-.1,0-.12c-.42-2.89-.88-5.82-1.32-8.65-.82-5.28-1.67-10.75-2.34-16.15l-.08-.61.62-.06a4.1,4.1,0,0,1,4.41,2.53,4.48,4.48,0,0,1,.18,2.55,4.12,4.12,0,0,1,2.34.6,4.06,4.06,0,0,1,.92,6.26,4.61,4.61,0,0,1-3.44,1.42,2.59,2.59,0,0,0,2,1.85h0a2.75,2.75,0,0,0,2.82-1.73l.48-1.1.6,1c.61,1,1.72,2.05,3,1.76h0a2.2,2.2,0,0,0,1.49-.88,3.68,3.68,0,0,0,.67-1.78,4.54,4.54,0,0,1-1.45.58,4.15,4.15,0,0,1-4.68-2.85,4,4,0,0,1,1.37-4.48,4.63,4.63,0,0,1,2.42-.83,4.18,4.18,0,0,1,.05-2.24,4,4,0,0,1,2-2.41,4.13,4.13,0,0,1,6,3.34,8,8,0,0,1-.09,1.45,4,4,0,0,1,1.7,6.86,4,4,0,0,1-3.19,1.23,4.39,4.39,0,0,1-1.72-.59,2.81,2.81,0,0,0,.64,1.86l0,0a2.72,2.72,0,0,0,3.6.16,4.88,4.88,0,0,0,.5-.85l.25-.47.49-.87.54.84a6.6,6.6,0,0,0,1.42,1.69,2.62,2.62,0,0,0,2.55-.15,2.37,2.37,0,0,0,1.11-1.4,4.7,4.7,0,0,1-3.92-2.58l0-.08a4.17,4.17,0,0,1,3.6-5.69,6.61,6.61,0,0,1,.15-2.68l0-.07,0-.06a4.33,4.33,0,0,1,4.34-2.26l.56.09-.05.56c-.21,2.27-.58,4.55-.94,6.76-.27,1.65-.55,3.35-.75,5v0c-.35,2-.63,4-.89,6-.34,2.44-.68,5-1.17,7.42l-.1.48H112.56c-4,0-8.18,0-12.26,0Zm-.68-1.27a1.31,1.31,0,0,0,.45.05h.27c4.08,0,8.22,0,12.24,0h11.78c.43-2.27.75-4.6,1.06-6.86.27-2,.54-4,.9-6,.21-1.7.48-3.41.75-5.07.33-2,.66-4,.87-6a3.21,3.21,0,0,0-2.49,1.64,7,7,0,0,0,0,2.74l.07.64-.64,0a3.67,3.67,0,0,0-2.39.8l0,0a3.12,3.12,0,0,0-.72,3.3,3.64,3.64,0,0,0,3.46,1.86l.63,0v.63a3.54,3.54,0,0,1-1.77,3.05,3.86,3.86,0,0,1-3.79.16l-.07,0A5.5,5.5,0,0,1,119,505.6a4.2,4.2,0,0,1-.46.67l-.07.08a3.94,3.94,0,0,1-5.31-.23,4.51,4.51,0,0,1-1-3.23,4.9,4.9,0,0,1-.94,3,3.36,3.36,0,0,1-2.27,1.33,3.86,3.86,0,0,1-3.74-1.53,3.8,3.8,0,0,1-3.61,1.57c-1.56-.16-2.79-1.49-3.29-3.58l-.21-.86.88.12a3.79,3.79,0,0,0,3.31-1l0,0a2.68,2.68,0,0,0,.7-2.31,2.72,2.72,0,0,0-1.35-2.05l-.05,0a3.81,3.81,0,0,0-2.38-.38l-.77.05.15-.88a4.22,4.22,0,0,0,0-2.49l0-.08A2.73,2.73,0,0,0,96.05,492c.66,5.16,1.47,10.38,2.26,15.43C98.74,510.23,99.18,513.1,99.6,515.93Zm12.5-14.64.93.52.44.26a4.55,4.55,0,0,0,1.72.73,2.8,2.8,0,0,0,2.2-.86l0-.05a3,3,0,0,0,.4-3.69,3.58,3.58,0,0,0-2.11-1.3l-.49-.16.07-.51a9.06,9.06,0,0,0,.15-1.73v0A2.73,2.73,0,0,0,113.4,492h-.05a2.7,2.7,0,0,0-2.12.2,2.81,2.81,0,0,0-1.45,1.7l0,0a3.91,3.91,0,0,0,.14,2.22l.17.66-.68.09-.41.05a3.89,3.89,0,0,0-2.07.61,2.84,2.84,0,0,0-1,3.11l0,.07a2.94,2.94,0,0,0,3.3,2,4.42,4.42,0,0,0,1.51-.71c.15-.09.29-.19.44-.27l.78-.47.12.91a4.4,4.4,0,0,1,0,.51v0Z"/></g><g id="path296"><path class="cls-2" d="M155.07,517.18h-14a24.48,24.48,0,0,1-3-.07l-.47,0-.07-.47c-.23-1.5-.45-3-.67-4.5-.57-3.78-1.15-7.69-1.81-11.52-.16-1.32-.36-2.63-.57-3.9-.27-1.7-.55-3.45-.7-5.2l-.06-.59.59-.06a4.31,4.31,0,0,1,4.29,2.14,4.19,4.19,0,0,1,.44,2.91,3.84,3.84,0,0,1,3,1.22,4.16,4.16,0,0,1-.72,6.39,4.22,4.22,0,0,1-2.6.67,2.63,2.63,0,0,0,1.58,1.78,2.5,2.5,0,0,0,2.33-.43l0,0a8.64,8.64,0,0,0,.92-1.06l.64-.79.47.58c.12.14.23.29.35.44.51.67,1,1.31,1.68,1.36h.06a2.4,2.4,0,0,0,2.59-1.09l.05-.09a2.48,2.48,0,0,0,.38-1.39,3.22,3.22,0,0,1-1.45.5,3.93,3.93,0,0,1-3.09-.77,4,4,0,0,1-1.64-2.88,4,4,0,0,1,3.89-4.52,4.15,4.15,0,0,1,1-3.75,4.16,4.16,0,0,1,6.64.7,4.89,4.89,0,0,1,.47,3c0,.07,0,.13,0,.2a4,4,0,0,1,2.49,2.08,4.1,4.1,0,0,1,0,3.66,3.93,3.93,0,0,1-2.75,2.22,4.14,4.14,0,0,1-3-.47A2.24,2.24,0,0,0,153,505l.06.07a2.54,2.54,0,0,0,3.52.46l0,0a3.13,3.13,0,0,0,.73-.94c.07-.13.15-.26.23-.38l.48-.73.52.7.2.28a5.94,5.94,0,0,0,1,1.21,2.45,2.45,0,0,0,2.07.29,2.26,2.26,0,0,0,1.54-1.26c.06-.15.11-.3.16-.46a4.72,4.72,0,0,1-2.91-1.27,3.68,3.68,0,0,1-1.2-3.05,3.85,3.85,0,0,1,1.3-2.92,4.3,4.3,0,0,1,2.51-1.1,4.26,4.26,0,0,1,.44-3.17,4.47,4.47,0,0,1,4.15-1.89l.64.05-.09.64c-.56,3.87-1.16,7.8-1.74,11.6-.68,4.42-1.38,9-2,13.48l-.07.51h-.52C161.07,517.17,158.06,517.18,155.07,517.18ZM144.68,516h5.21c4.47,0,9.08,0,13.63-.05.62-4.33,1.29-8.73,1.94-13,.55-3.57,1.11-7.26,1.64-10.91a3.14,3.14,0,0,0-2.39,1.36,3.67,3.67,0,0,0-.21,2.62l.06.42.1.79-.78-.11a2.88,2.88,0,0,0-2.31.78,2.6,2.6,0,0,0-.91,2V500a2.49,2.49,0,0,0,.83,2.09,3.42,3.42,0,0,0,2.77.91l.92-.14-.24.9a2.81,2.81,0,0,0-.08.31,8.13,8.13,0,0,1-.34,1.1,3.53,3.53,0,0,1-2.33,2,3.67,3.67,0,0,1-3.13-.5,5.38,5.38,0,0,1-1-1,3,3,0,0,1-.79.88,3.75,3.75,0,0,1-5.22-.66,4.15,4.15,0,0,1-.84-3.12v-1.55l1,.7a3.56,3.56,0,0,0,3,.87h0a2.71,2.71,0,0,0,1.91-1.56,2.88,2.88,0,0,0,0-2.59l0-.05a3.05,3.05,0,0,0-2.17-1.55l-.46-.12v-.49c0-.23,0-.46,0-.69a3.76,3.76,0,0,0-.3-2.32l0-.05a2.94,2.94,0,0,0-4.65-.5l0,0a3,3,0,0,0-.51,3.23l.3.73-.79.1-.47.05a3.56,3.56,0,0,0-2,.62,3,3,0,0,0-1,2.57v.05a2.87,2.87,0,0,0,1.16,2,2.76,2.76,0,0,0,2.17.54l.09,0a2.78,2.78,0,0,0,1.39-.64l.43-.29.93-.59v1.51a4.45,4.45,0,0,1-.57,2.78,3.6,3.6,0,0,1-3.83,1.71,3.5,3.5,0,0,1-2.38-1.65,8.87,8.87,0,0,1-.72.78,3.56,3.56,0,0,1-3.5.76h0a4.12,4.12,0,0,1-2.62-3.43l-.14-.7.71,0h.53a3.58,3.58,0,0,0,2.18-.45l.06,0a2.77,2.77,0,0,0,1.31-2.14,2.81,2.81,0,0,0-.81-2.37l-.06-.07c-.5-.63-1.4-.87-2.81-.77l-.8.07.16-.79a3.71,3.71,0,0,0-.16-2.78l0-.07a2.94,2.94,0,0,0-2.48-1.52c.15,1.5.39,3,.63,4.47.2,1.28.41,2.6.57,3.91.65,3.81,1.24,7.73,1.8,11.53.2,1.33.4,2.68.61,4,.77.05,1.57,0,2.35,0h3.59Z"/></g><g id="path298"><path class="cls-2" d="M131.72,554.83l-15.72,0h-.52l-.08-.51c-.59-4-1.24-8.15-1.86-12.12-.93-5.92-1.89-12-2.71-18.08l-.07-.56.54-.12a4.9,4.9,0,0,1,5,2.17,5.1,5.1,0,0,1,.53,3.94,6.7,6.7,0,0,1,2,.13l.1,0a5.19,5.19,0,0,1,3.11,4.17,4.84,4.84,0,0,1-1.59,4,4.76,4.76,0,0,1-3.87,1.16.74.74,0,0,1,0,.14,3.17,3.17,0,0,0,1.6,2.21,2.8,2.8,0,0,0,2.42.25l0,0a4,4,0,0,0,2.18-2.21l.5-1,.56,1c.59,1,1.15,1.89,2.07,2.17l.06,0a3.11,3.11,0,0,0,3.82-1.49l0-.07a3.38,3.38,0,0,0,.34-1.86,4.74,4.74,0,0,1-3.87.6,4.4,4.4,0,0,1-3.09-2.59,4.93,4.93,0,0,1,.11-4.42,4.87,4.87,0,0,1,4.15-2.54,5,5,0,0,1,.3-3.3,4.88,4.88,0,0,1,4.54-2.74h.1A4.85,4.85,0,0,1,137,527v.06a7.71,7.71,0,0,1-.11,2.32,4.88,4.88,0,0,1,3.31,3,4.53,4.53,0,0,1-.23,3.92,5,5,0,0,1-3.36,2.57,4.91,4.91,0,0,1-3.56-.71,3.61,3.61,0,0,0,.51,2.13,3.11,3.11,0,0,0,3.22,1.42h.1c1.18-.13,2-1.28,2.56-2.28l.57-1,.5,1a3.62,3.62,0,0,0,2.44,2.24h.07a3,3,0,0,0,2.68-.68,3.32,3.32,0,0,0,1.16-1.94h-.08a4.89,4.89,0,0,1-3.59-1.27,4.59,4.59,0,0,1-1.54-3.78,4.66,4.66,0,0,1,2-3.62,4.23,4.23,0,0,1,2.71-.95,5.08,5.08,0,0,1,1.33-4.89l.05,0a5.12,5.12,0,0,1,4-1.17l.55.11-.06.55c-.31,2.81-.76,5.64-1.2,8.38-.31,1.93-.63,3.92-.89,5.89s-.5,3.89-.73,5.8c-.41,3.33-.83,6.78-1.33,10.18l-.08.51h-.52Zm-15.19-1.23c10.08,0,20.31,0,30.42,0,.46-3.22.86-6.48,1.25-9.64.23-1.91.47-3.87.73-5.81s.58-4,.89-5.93c.41-2.52.83-5.12,1.12-7.7a4.45,4.45,0,0,0-2.44,1,4.08,4.08,0,0,0-.77,4.34l.3.8-.85,0a4.07,4.07,0,0,0-2.75.69l-.08.06a3.46,3.46,0,0,0-1.46,2.71,3.38,3.38,0,0,0,1.12,2.79l0,0a4.14,4.14,0,0,0,3.43.91l.62-.05,0,.63A4.34,4.34,0,0,1,146.5,542a4.27,4.27,0,0,1-3.71.94,4.13,4.13,0,0,1-2.82-2,4.35,4.35,0,0,1-7.38.07,5.84,5.84,0,0,1-.71-3.65l0-1.31.91.58c1.13.72,2.33,1.4,3.55,1.1h0a3.71,3.71,0,0,0,2.52-2,3.35,3.35,0,0,0,.18-2.9l0-.06c-.33-1.09-1.36-1.89-3.07-2.39l-.59-.17.19-.59a5.94,5.94,0,0,0,.22-2.38,3.64,3.64,0,0,0-3.44-2.85h-.06a3.62,3.62,0,0,0-3.41,2.08,4.64,4.64,0,0,0,0,3.23l.18.81-.83-.07a3.76,3.76,0,0,0-3.75,1.86l0,.05a3.7,3.7,0,0,0-.07,3.33,3.2,3.2,0,0,0,2.27,1.91l.08,0c1.18.42,2.37-.11,3.8-1l1-.67-.1,1.23c0,.28,0,.58,0,.89a4.5,4.5,0,0,1-.51,2.62,4.32,4.32,0,0,1-7.54.22,4.43,4.43,0,0,1-2.35,1.9,4,4,0,0,1-3.44-.32,4.43,4.43,0,0,1-2.2-3.06.58.58,0,0,0,0-.1,1.12,1.12,0,0,1,.47-1.41l.14-.07h.16c1.22.06,2.61.12,3.39-.76l0-.05a3.64,3.64,0,0,0,1.23-3,4,4,0,0,0-2.35-3.16,7.75,7.75,0,0,0-2.16,0l-1.12.08.26-.84a4.44,4.44,0,0,0-.16-3.75,3.76,3.76,0,0,0-3.17-1.72c.79,5.83,1.72,11.73,2.62,17.45C115.33,545.79,116,549.72,116.53,553.6Z"/></g><g id="rect2220"><path class="cls-2" d="M91.06,823.87v19.27h28.42a14.31,14.31,0,0,1,28.27,0h28.42V823.87Zm42.56,11.66a9.86,9.86,0,1,0,9.85,9.85A9.86,9.86,0,0,0,133.62,835.53ZM91.06,847.62v19.27h85.11V847.62H147.75a14.31,14.31,0,0,1-28.27,0Z"/></g><path class="cls-2" d="M91.37,672.63V643h19v5H96.9v7.15h8.32v5H96.9v7.36h13.48v5Z"/><path class="cls-2" d="M129.23,643h5.53v20.26q0,4.66-2.79,7.14a12.68,12.68,0,0,1-15,0q-2.81-2.48-2.8-7.14V643h5.53v20q0,4.83,4.78,4.83t4.79-4.83Z"/><path class="cls-2" d="M154.73,672.63l-8-12.1h-1.45v12.1h-5.54V643h10.11q4.71,0,7.24,2.42a8.46,8.46,0,0,1,2.54,6.44,8.68,8.68,0,0,1-1.7,5.5,8.37,8.37,0,0,1-5,2.87L161,672.63Zm-5.16-17.14a5.43,5.43,0,0,0,3.27-.87,3.18,3.18,0,0,0,1.18-2.75,3.5,3.5,0,0,0-1.18-2.85,5,5,0,0,0-3.27-1h-4.28v7.44Z"/><path class="cls-2" d="M175.53,672.88a12.28,12.28,0,0,1-4.3-.79,9.78,9.78,0,0,1-3.83-2.58,13.39,13.39,0,0,1-2.73-4.66,24.28,24.28,0,0,1,0-14.06,13.48,13.48,0,0,1,2.73-4.66,10,10,0,0,1,3.83-2.58,12.12,12.12,0,0,1,8.61,0,10.07,10.07,0,0,1,3.83,2.58,13.49,13.49,0,0,1,2.74,4.66,23.84,23.84,0,0,1,0,14.06,13.4,13.4,0,0,1-2.74,4.66,9.85,9.85,0,0,1-3.83,2.58A12.29,12.29,0,0,1,175.53,672.88Zm0-5.07a6.5,6.5,0,0,0,2.21-.4,4.68,4.68,0,0,0,2-1.49,8.71,8.71,0,0,0,1.5-3,22.32,22.32,0,0,0,0-10.11,8.71,8.71,0,0,0-1.5-3,4.79,4.79,0,0,0-2-1.5,6.43,6.43,0,0,0-4.41,0,4.68,4.68,0,0,0-2,1.5,8.88,8.88,0,0,0-1.48,3,22.32,22.32,0,0,0,0,10.11,8.88,8.88,0,0,0,1.48,3,4.57,4.57,0,0,0,2,1.49A6.45,6.45,0,0,0,175.53,667.81Z"/><path class="cls-2" d="M192.05,672.63V643h10.07q4.74,0,7.26,2.52a9.13,9.13,0,0,1,2.52,6.76,8.74,8.74,0,0,1-2.52,6.62c-1.68,1.6-4.1,2.41-7.26,2.41h-4.54v11.31Zm9.78-16.35q4.46,0,4.45-4,0-4.24-4.45-4.24h-4.25v8.23Z"/><path class="cls-2" d="M215.85,672.63V643h19v5H221.38v7.15h8.32v5h-8.32v7.36h13.48v5Z"/><path class="cls-2" d="M237.57,672.63v-4.41h5.28v-20.8h-5.28V643h16.05v4.41h-5.24v20.8h5.24v4.41Z"/><path class="cls-2" d="M270.85,653.25c-.36-3.61-1.78-5.41-4.24-5.41a4.69,4.69,0,0,0-2.67.81,2.7,2.7,0,0,0-1.2,2.39,2.55,2.55,0,0,0,1.18,2.33,13.77,13.77,0,0,0,2.39,1.21l4.12,1.62a15,15,0,0,1,4.5,2.71c1.24,1.1,1.87,2.82,1.87,5.15a7.81,7.81,0,0,1-2.91,6.58,11.24,11.24,0,0,1-7.08,2.24,10.78,10.78,0,0,1-7.55-2.66,9.45,9.45,0,0,1-2.93-7.36l5-1.08a8.48,8.48,0,0,0,1.62,4.45,4.63,4.63,0,0,0,3.79,1.58,6.37,6.37,0,0,0,3-.77,2.75,2.75,0,0,0,1.43-2.64,2.63,2.63,0,0,0-1.27-2.46,22.37,22.37,0,0,0-3-1.45L263,659a11.58,11.58,0,0,1-4.29-2.79,6.68,6.68,0,0,1-1.58-4.7A7.81,7.81,0,0,1,260,645a10.34,10.34,0,0,1,6.74-2.27,9.07,9.07,0,0,1,6.66,2.48,9.33,9.33,0,0,1,2.49,6.92Z"/><path class="cls-2" d="M297.35,672.63,287.74,660l-1.66,1.87v10.81h-5.54V643h5.54v11.15L295.94,643h6.94l-11.6,13L304,672.63Z"/><path class="cls-2" d="M323.19,672.63l-2.33-7.15h-8.74l-2.33,7.15h-5.74L313.83,643h5.36L329,672.63ZM316.49,652l-2.75,8.44h5.54Z"/><path class="cls-2" d="M356.64,643h5.53v20.26q0,4.66-2.79,7.14a12.68,12.68,0,0,1-15,0q-2.8-2.48-2.81-7.14V643h5.54v20q0,4.83,4.78,4.83t4.79-4.83Z"/><path class="cls-2" d="M384.64,672.63,372.7,653.37v19.26h-5.54V643h5.37l11.9,19.18V643H390v29.62Z"/><path class="cls-2" d="M393.91,672.63v-4.41h5.29v-20.8h-5.29V643H410v4.41h-5.24v20.8H410v4.41Z"/><path class="cls-2" d="M424,672.88a12.28,12.28,0,0,1-4.3-.79,9.78,9.78,0,0,1-3.83-2.58,13.39,13.39,0,0,1-2.73-4.66,24.28,24.28,0,0,1,0-14.06,13.48,13.48,0,0,1,2.73-4.66,10,10,0,0,1,3.83-2.58,12.12,12.12,0,0,1,8.61,0,10.07,10.07,0,0,1,3.83,2.58,13.65,13.65,0,0,1,2.74,4.66,23.84,23.84,0,0,1,0,14.06,13.56,13.56,0,0,1-2.74,4.66,9.85,9.85,0,0,1-3.83,2.58A12.33,12.33,0,0,1,424,672.88Zm0-5.07a6.5,6.5,0,0,0,2.21-.4,4.68,4.68,0,0,0,2-1.49,8.54,8.54,0,0,0,1.49-3,22,22,0,0,0,0-10.11,8.54,8.54,0,0,0-1.49-3,4.79,4.79,0,0,0-2-1.5,6.43,6.43,0,0,0-4.41,0,4.68,4.68,0,0,0-2,1.5,8.88,8.88,0,0,0-1.48,3,22.32,22.32,0,0,0,0,10.11,8.88,8.88,0,0,0,1.48,3,4.57,4.57,0,0,0,2,1.49A6.45,6.45,0,0,0,424,667.81Z"/><path class="cls-2" d="M457.94,672.63,446,653.37v19.26h-5.53V643h5.37l11.89,19.18V643h5.54v29.62Z"/><path class="cls-2" d="M468.26,672.63V643h19v5H473.79v7.15h8.33v5h-8.33v7.36h13.48v5Z"/><path class="cls-2" d="M508.49,672.63l-11.94-19.26v19.26H491V643h5.37l11.89,19.18V643h5.54v29.62Z"/><path class="cls-2" d="M104.64,700.25q-.54-5.41-4.24-5.41a4.71,4.71,0,0,0-2.67.81,2.7,2.7,0,0,0-1.2,2.39,2.55,2.55,0,0,0,1.18,2.33,13.51,13.51,0,0,0,2.4,1.21l4.11,1.62a15,15,0,0,1,4.5,2.71q1.88,1.65,1.87,5.15a7.81,7.81,0,0,1-2.91,6.58,11.22,11.22,0,0,1-7.08,2.24,10.8,10.8,0,0,1-7.55-2.66,9.45,9.45,0,0,1-2.93-7.36l5-1.08a8.4,8.4,0,0,0,1.63,4.45,4.59,4.59,0,0,0,3.78,1.58,6.34,6.34,0,0,0,3-.77A2.75,2.75,0,0,0,105,711.4a2.63,2.63,0,0,0-1.27-2.46,22.37,22.37,0,0,0-3-1.45L96.82,706a11.66,11.66,0,0,1-4.29-2.79,6.68,6.68,0,0,1-1.58-4.7A7.81,7.81,0,0,1,93.74,692a10.34,10.34,0,0,1,6.74-2.27,9.07,9.07,0,0,1,6.66,2.48,9.33,9.33,0,0,1,2.49,6.92Z"/><path class="cls-2" d="M121.7,719.63,111.92,690h5.74L124,709.73,130.27,690H136l-9.74,29.62Z"/><path class="cls-2" d="M138.59,719.63V690h19v5H144.12v7.15h8.32v5h-8.32v7.36H157.6v5Z"/><path class="cls-2" d="M176.32,719.63l-8-12.1h-1.46v12.1h-5.53V690h10.11q4.69,0,7.24,2.42a8.45,8.45,0,0,1,2.53,6.44,8.68,8.68,0,0,1-1.7,5.5,8.37,8.37,0,0,1-5,2.87l8.07,12.39Zm-5.16-17.14a5.43,5.43,0,0,0,3.27-.87,3.19,3.19,0,0,0,1.19-2.75,3.51,3.51,0,0,0-1.19-2.85,5,5,0,0,0-3.27-1h-4.28v7.44Z"/><path class="cls-2" d="M184.6,719.63v-4.41h5.29v-20.8H184.6V690h16.06v4.41h-5.24v20.8h5.24v4.41Z"/><path class="cls-2" d="M220.67,719.63l-.16-1.45a10.25,10.25,0,0,1-5.87,1.7,12,12,0,0,1-4.3-.81,10.05,10.05,0,0,1-3.83-2.6,13.24,13.24,0,0,1-2.73-4.66,23.93,23.93,0,0,1,0-14,13.66,13.66,0,0,1,2.75-4.66,10.1,10.1,0,0,1,3.77-2.58,11.75,11.75,0,0,1,4.16-.79,11.15,11.15,0,0,1,6.11,1.94q3,1.93,4.62,6.84l-5.33,1.33a7.49,7.49,0,0,0-2.39-4,5.1,5.1,0,0,0-3-1,6.1,6.1,0,0,0-2.08.39,4.87,4.87,0,0,0-2,1.5,8.71,8.71,0,0,0-1.5,3,17.91,17.91,0,0,0-.58,5.05,18.19,18.19,0,0,0,.58,5.08,8.3,8.3,0,0,0,1.52,3,4.81,4.81,0,0,0,2.08,1.47,6.75,6.75,0,0,0,2.27.4,8,8,0,0,0,3-.61,4.51,4.51,0,0,0,2.38-2.18v-2.79H214.6v-5h11.11v15.43Z"/><path class="cls-2" d="M230.49,719.63V690h19v5H236v7.15h8.32v5H236v7.36h13.48v5Z"/><path class="cls-2" d="M91.37,766.63V737h10.07q4.74,0,7.26,2.52a9.16,9.16,0,0,1,2.51,6.76,8.77,8.77,0,0,1-2.51,6.62c-1.68,1.6-4.1,2.41-7.26,2.41H96.9v11.31Zm9.78-16.35c3,0,4.45-1.33,4.45-4,0-2.83-1.49-4.24-4.45-4.24H96.9v8.23Z"/><path class="cls-2" d="M129.89,766.63l-2.33-7.15h-8.73l-2.33,7.15h-5.74L120.53,737h5.37l9.78,29.62ZM123.2,746l-2.75,8.44H126Z"/><path class="cls-2" d="M151.7,747.25c-.37-3.61-1.78-5.41-4.25-5.41a4.66,4.66,0,0,0-2.66.81,2.69,2.69,0,0,0-1.21,2.39,2.56,2.56,0,0,0,1.19,2.33,13.77,13.77,0,0,0,2.39,1.21l4.12,1.62a14.94,14.94,0,0,1,4.49,2.71q1.88,1.65,1.87,5.15a7.81,7.81,0,0,1-2.91,6.58,11.21,11.21,0,0,1-7.07,2.24,10.76,10.76,0,0,1-7.55-2.66,9.42,9.42,0,0,1-2.94-7.36l5-1.08a8.48,8.48,0,0,0,1.62,4.45,4.61,4.61,0,0,0,3.79,1.58,6.3,6.3,0,0,0,3-.77A2.74,2.74,0,0,0,152,758.4a2.65,2.65,0,0,0-1.27-2.46,22.54,22.54,0,0,0-3-1.45L143.87,753a11.53,11.53,0,0,1-4.28-2.79,6.63,6.63,0,0,1-1.58-4.7,7.83,7.83,0,0,1,2.78-6.43,10.36,10.36,0,0,1,6.74-2.27,9,9,0,0,1,6.66,2.48,9.29,9.29,0,0,1,2.5,6.92Z"/><path class="cls-2" d="M175.08,747.25c-.37-3.61-1.78-5.41-4.25-5.41a4.66,4.66,0,0,0-2.66.81A2.69,2.69,0,0,0,167,745a2.56,2.56,0,0,0,1.19,2.33,13.77,13.77,0,0,0,2.39,1.21l4.12,1.62a14.82,14.82,0,0,1,4.49,2.71q1.88,1.65,1.88,5.15a7.81,7.81,0,0,1-2.92,6.58,11.21,11.21,0,0,1-7.07,2.24,10.76,10.76,0,0,1-7.55-2.66,9.42,9.42,0,0,1-2.93-7.36l5-1.08a8.48,8.48,0,0,0,1.62,4.45,4.61,4.61,0,0,0,3.79,1.58,6.3,6.3,0,0,0,3-.77,2.74,2.74,0,0,0,1.44-2.64,2.63,2.63,0,0,0-1.27-2.46,22.54,22.54,0,0,0-3-1.45L167.25,753a11.53,11.53,0,0,1-4.28-2.79,6.63,6.63,0,0,1-1.58-4.7,7.81,7.81,0,0,1,2.79-6.43,10.32,10.32,0,0,1,6.73-2.27,9,9,0,0,1,6.66,2.48,9.29,9.29,0,0,1,2.5,6.92Z"/></g></g></svg>