<svg xmlns="http://www.w3.org/2000/svg" viewBox="0 0 799.56 1085.59"><defs><style>.cls-2{fill:#ffd283}</style></defs><g id="Capa_2" data-name="Capa 2"><g id="Capa_1-2" data-name="Capa 1"><path id="rect3523" d="M0 0v1085.59h764.17a35.33 35.33 0 0 0 35.39-35.41V35.41A35.33 35.33 0 0 0 764.17 0z" style="fill:#800020"/><path id="path6" d="M128.17 396.4h-1.01l-.53-1.05h.45c.58 0 1.16-.05 1.72-.06h.55c0-.65 0-1.31.09-1.94h.6v.21c.06.83.06 1.72.06 2.57v.3h-1.93Z" class="cls-2"/><path id="path10" d="M132.8 402.26a18 18 0 0 1-.13-2.89v-.29H135v-2.62l-2.65-.09v-2.91l.6-.06a9 9 0 0 1 .26 1.84h2.68v4.66h-.27c-.7.06-1.4.09-2.09.11 0 .73-.06 1.47-.14 2.2Z" class="cls-2"/><path id="path12" d="M132.89 402.39h-3.03V399h-2.45v-2.78h.29c.72 0 1.45-.08 2.16-.13v-2.54h2.67v2.55c.81 0 1.59.05 2.39.05h.35v.35a4.5 4.5 0 0 0 0 .9 2.7 2.7 0 0 1-.25 1.73l-.09.13h-2.02c0 .91-.05 1.85-.05 2.75Zm-4.88-4h2.45v3.36h1.82c0-.91 0-1.85.06-2.75v-.3h2.26a2.7 2.7 0 0 0 .09-1.23v-.68c-.78 0-1.53 0-2.32-.06H132v-2.54h-1.5v2.47h-.28c-.71.06-1.44.11-2.17.14Z" class="cls-2"/><path id="path14" d="M133.36 409.41h-7.86v-.3c0-.77 0-1.53.09-2.26v-.28h4.24v-3.88c.53-.76 1.39-.63 2.09-.53a4 4 0 0 0 .56.06h.29v4.32h4.51v2.84h-.3Zm-7.25-.62h10.74v-1.64h-4.5v-4.35H132c-.7-.1-1.16-.14-1.45.21-.06.91-.05 1.85 0 2.76v1.46h-4.28c-.13.46-.15 1-.16 1.56" class="cls-2"/><path id="path16" d="M128.28 406.79a8 8 0 0 1-2.32-.28l-.34-.11.15-.32a6.73 6.73 0 0 1 3.84-3.6l.37-.12v.38a29 29 0 0 1 0 3.73v.28h-.7Zm-1.79-.77a10.8 10.8 0 0 0 2.79.15h.14a29 29 0 0 0 0-3 6.12 6.12 0 0 0-2.93 2.83Z" class="cls-2"/><path id="path18" d="M134.88 406.79c-.62 0-1.24 0-1.87-.09h-.28v-4.32l.36.09a6 6 0 0 1 4.08 3.82l.13.36-.38.05a18 18 0 0 1-2.04.09m-1.54-.67a18.6 18.6 0 0 0 3.17 0 5.43 5.43 0 0 0-3.16-3v2.34Z" class="cls-2"/><path id="path20" d="m133.08 414.23-.07-.33c0-.2-.06-.42-.08-.63a1.86 1.86 0 0 0-.5-1.37 1.47 1.47 0 0 0-1.21-.39 1.56 1.56 0 0 0-1.12.67 6.3 6.3 0 0 0-.29 1.32l-.1.67-.36-.15a6 6 0 0 1-3.66-4.4l-.07-.36h12.02l-.12.39a6.56 6.56 0 0 1-4.07 4.5Zm-.27-2.8a2.4 2.4 0 0 1 .72 1.78v.22a6 6 0 0 0 3.21-3.59h-10.43a5.45 5.45 0 0 0 2.87 3.44 5.5 5.5 0 0 1 .32-1.36v-.05a2.17 2.17 0 0 1 1.58-1 2.06 2.06 0 0 1 1.73.56" class="cls-2"/><path id="path22" d="m113.89 417.35.12-.92c.22-1.72 2-1.81 3.21-1.87h.25a3.58 3.58 0 0 1 1.6-2.49h.06a6.2 6.2 0 0 1 2.47 0l.47.06a2 2 0 0 0 .13-.25 2.77 2.77 0 0 1 .87-1.11h.05a9 9 0 0 1 1.56-.41l.87-.2.26-.07.1.25a10 10 0 0 0 .5 1.1l.29.58-.63-.16a5 5 0 0 1-.56-.17 2 2 0 0 0-1.57-.12 2.4 2.4 0 0 0-1 1.32c-.09.18-.18.36-.27.52l-.14.25-.25-.12-.37-.18c-.71-.35-1.45-.72-2.09-.3h-.06c-.83.3-1 1.2-1.1 2.08 0 .15 0 .3-.07.44l-.06.3-.3-.06-.65-.14a10 10 0 0 0-1.15-.21 3.8 3.8 0 0 0-1.85 1.26Zm4-2.25v-.12l.06-.36v.15Zm4.07-2.43.12.06h.1v-.08h-.06Zm3-1.85a5 5 0 0 1 .56.16l-.12-.26Z" class="cls-2"/><path id="path24" d="m149.14 419.15-.33-.63c-.16-.28-.28-.58-.41-.87a4.3 4.3 0 0 0-1-1.67 3.15 3.15 0 0 0-2.05-.32h-1.04l-.07-.18c-.09-.2-.17-.42-.24-.62a3 3 0 0 0-1-1.64 3.9 3.9 0 0 0-2.06 0l-.42.08h-.21l-.11-.19a2 2 0 0 0-.14-.26 5 5 0 0 0-.81-1.22 2.65 2.65 0 0 0-1.52-.24h-1.02l.15-.39c0-.09.07-.19.11-.28l.19-.49.08-.27.28.07.49.11a7.5 7.5 0 0 1 1.34.39 4.9 4.9 0 0 1 1.24 1.15l.29.33a3 3 0 0 1 2.71.27 2.86 2.86 0 0 1 1.21 2.25h.5a11 11 0 0 1 2.08.14h.12a8 8 0 0 1 1.31 1.34l.07-.11a7 7 0 0 1 .51-.71l.06-.05a3.4 3.4 0 0 1 2.26-.35h.72l.07.18c0 .07.08.17.13.26s.11.23.14.32l.21.51-.55-.1-.36-.08a2.3 2.3 0 0 0-1.88.08 2.06 2.06 0 0 0-.68 1.49 5 5 0 0 1-.18.84Zm-.34-2.09c0 .11.11.23.16.35 0-.19.07-.38.12-.56l-.21.27Zm-8.27-4.44v.07l-.08-.08Zm1.64-.12a2.5 2.5 0 0 1 .54.05 2.1 2.1 0 0 0-.79 0Zm-4.58-1.75a.5.5 0 0 0-.05.13h.56l-.27-.06Z" class="cls-2"/><path id="path26" d="M124.54 415.08a1.83 1.83 0 0 1-1.69-1.46 2 2 0 0 1 .74-2.21 1.93 1.93 0 0 1 2.74.73 2.06 2.06 0 0 1-.14 2 1.91 1.91 0 0 1-1.65.94m0-3.37a1.2 1.2 0 0 0-.67.2 1.36 1.36 0 0 0-.49 1.54 1.27 1.27 0 0 0 1.12 1 1.33 1.33 0 0 0 1.13-.66 1.46 1.46 0 0 0 .11-1.41 1.25 1.25 0 0 0-.84-.65 1.5 1.5 0 0 0-.34-.02Z" class="cls-2"/><path id="path28" d="M131.33 414.79a1.52 1.52 0 0 1-.89-.28 1.75 1.75 0 0 1-.77-1.78 1.62 1.62 0 0 1 1.2-1.39 1.84 1.84 0 0 1 1.65.35 1.6 1.6 0 0 1 .64 1.35 1.87 1.87 0 0 1-1 1.56 1.7 1.7 0 0 1-.83.19m0-2.91a1 1 0 0 0-.31 0 1 1 0 0 0-.75.89 1.15 1.15 0 0 0 .5 1.18 1 1 0 0 0 1.07.06 1.24 1.24 0 0 0 .71-1 1 1 0 0 0-.41-.86 1.3 1.3 0 0 0-.79-.27Z" class="cls-2"/><path id="path30" d="M138.17 415.09a1.6 1.6 0 0 1-1-.35 2 2 0 0 1-.78-1.95 1.74 1.74 0 0 1 1.1-1.47 2 2 0 0 1 2 .28 1.55 1.55 0 0 1 .65 1.49 1.83 1.83 0 0 1-1 1.74 1.86 1.86 0 0 1-.97.26m0-3.32a1.2 1.2 0 0 0-.47.1 1.16 1.16 0 0 0-.72 1 1.5 1.5 0 0 0 .54 1.39 1.17 1.17 0 0 0 1.29.05 1.26 1.26 0 0 0 .69-1.19V413a1 1 0 0 0-.42-.95 1.5 1.5 0 0 0-.87-.28Z" class="cls-2"/><path id="path32" d="m109.5 440.48-.11-.38c-.09-.3-.18-.6-.27-.87L109 439l.25-.11a4 4 0 0 0 2.67-3.39c.14-1.48-.86-2.64-2-3.68l-.4-.37.53-.14a3.92 3.92 0 0 0 3.07-3.18 4 4 0 0 0-1.06-3.15l-.32-.42.53-.06a3.46 3.46 0 0 0 2.66-1.08 2.92 2.92 0 0 0 .28-3.1l-.2-.5.53.09c1.34.22 2.24 0 2.77-.68.7-.61.53-1.65.39-2.56l-.09-.56.51.23a2.57 2.57 0 0 0 2.13.28 2.77 2.77 0 0 0 1.14-1.66c0-.12.09-.25.14-.37l.13-.31.3.16c1.1.62 1.85.7 2.35.28a2.38 2.38 0 0 0 .82-1.9v-.3l.08-.52.41.32.28.21a6 6 0 0 1 1 .89l.06.07v.08a6.3 6.3 0 0 1-.12 2 8 8 0 0 0-.15 1.07v.26h-.26a14 14 0 0 0-10.48 6.73c-2.59 4.17-4 9.43-4.1 15.64v.18l-.15.08-1 .57-.15.09-.15-.09-.71-.36-.19.13c-.28.2-.54.38-.82.56Zm.28-1.18c0 .08 0 .16.07.24l.46-.32.35-.24.14-.1.16.08.74.37.74-.41c.16-6.24 1.57-11.54 4.18-15.77a14.65 14.65 0 0 1 10.69-7c0-.3.08-.6.13-.89a6.2 6.2 0 0 0 .14-1.7 5.5 5.5 0 0 0-.73-.63 2.72 2.72 0 0 1-1 2.1 2.41 2.41 0 0 1-2.71-.06v.05a3.3 3.3 0 0 1-1.43 2 2.58 2.58 0 0 1-2.14-.06 2.77 2.77 0 0 1-.64 2.56 3 3 0 0 1-2.83 1 3.37 3.37 0 0 1-.55 3.24 3.42 3.42 0 0 1-2.57 1.26 4.25 4.25 0 0 1 .88 3.19 4.41 4.41 0 0 1-3 3.55 4.82 4.82 0 0 1 1.78 3.79 4.5 4.5 0 0 1-2.86 3.75" class="cls-2"/><path id="path34" d="m153.15 441-.42-.42c-.32-.32-.6-.65-.87-1a3.57 3.57 0 0 1-2.48-.52l-.15-.09v-.17c-.26-7.86-2.08-13.64-5.55-17.69a15.44 15.44 0 0 0-8.49-4.87l-.22-.05v-.22c0-.28-.05-.56-.09-.83a11 11 0 0 1-.12-1.43v-.16a5.2 5.2 0 0 1 .86-1l.22-.21.36-.36.14.48c.05.15.09.29.13.44.2.77.4 1.5 1 1.82a3 3 0 0 0 1.91-.23l.45-.15.09.31a3 3 0 0 0 1.09 2c.52.38 1.25.32 2.29-.21l.52-.25-.09.57a2.83 2.83 0 0 0 .63 2.66 2.91 2.91 0 0 0 2.45.71h.33v.33a3.62 3.62 0 0 0 .55 2.6 3 3 0 0 0 2.69.94h.82l-.61.56a3.7 3.7 0 0 0-1.26 4 4 4 0 0 0 3 2.43l.64.17-.55.37c-.88.59-2.33 1.84-2.2 3.57a4 4 0 0 0 3 3.78l.26.08-.11.5c-.07.3-.14.59-.19.88Zm-.83-1.79c.14.18.29.35.44.52a3 3 0 0 0 .07-.29c-.17-.09-.34-.16-.51-.25Zm-2.5-.57a2.75 2.75 0 0 0 2.08.34 4.28 4.28 0 0 1-2.2-3.81 4.51 4.51 0 0 1 2-3.74 4.17 4.17 0 0 1-2.81-2.63 4 4 0 0 1 .92-4.12 3.17 3.17 0 0 1-2.46-1.16 3.7 3.7 0 0 1-.72-2.69 3.27 3.27 0 0 1-2.6-.92 3.11 3.11 0 0 1-.86-2.65 2.49 2.49 0 0 1-2.41-.06 3.17 3.17 0 0 1-1.29-2 3.32 3.32 0 0 1-2.16.17 3 3 0 0 1-1.35-2.15 3.3 3.3 0 0 0-.57.67 11 11 0 0 0 .11 1.26c0 .21.06.43.08.64a16 16 0 0 1 8.6 5c3.49 4.06 5.35 9.92 5.64 17.83Z" class="cls-2"/><path id="path36" d="M120.57 416.88a1.8 1.8 0 0 1-.92-.26 2.1 2.1 0 0 1-1.22-1.78 2 2 0 0 1 .88-1.91 2.21 2.21 0 0 1 2.36-.05 1.76 1.76 0 0 1 .93 1.71 1.93 1.93 0 0 1-.87 1.91 2 2 0 0 1-1.16.38m-.08-3.71a1.38 1.38 0 0 0-.83.25 1.41 1.41 0 0 0-.6 1.36 1.49 1.49 0 0 0 .86 1.28 1.29 1.29 0 0 0 1.44-.1 1.31 1.31 0 0 0 .61-1.34v-.1a1.18 1.18 0 0 0-.63-1.15 1.8 1.8 0 0 0-.85-.2" class="cls-2"/><path id="path38" d="M142 417.17a1.72 1.72 0 0 1-1.1-.39 2.14 2.14 0 0 1-1-2.24 2 2 0 0 1 1.59-1.69 2.12 2.12 0 0 1 1.93.44 1.83 1.83 0 0 1 .68 1.62 2.16 2.16 0 0 1-1.19 2 2 2 0 0 1-.91.26m.06-3.79a1.6 1.6 0 0 0-.38.05 1.41 1.41 0 0 0-1.11 1.2 1.53 1.53 0 0 0 .7 1.63 1.23 1.23 0 0 0 1.38.09 1.58 1.58 0 0 0 .88-1.46v-.07a1.25 1.25 0 0 0-.47-1.11 1.6 1.6 0 0 0-1.06-.33Z" class="cls-2"/><path id="path40" d="m129.88 441.05-.43-.51c-.17-.2-.33-.41-.49-.61l-.34-.43a8 8 0 0 0-.85.37l-.2.1-.18-.18c-.47-.47-.95-.95-1.42-1.39l-.11-.1v-.15c.72-8.85 1.56-17.68 2.21-24.39v-.4l.38.15c.62.25 1.24.49 2 .75l.42.16-.48.52c-.58.63-1.13 1.22-1 2v.09c-.09.67.44 1.22.95 1.74l.41.43-.26.2c-.89.72-1.83 1.57-1.67 2.69v.07c-.08.79.41 1.53 1.56 2.32l.38.26-.38.25c-1.44.93-2.14 1.88-2.16 2.93-.17 1.4.88 2.58 1.7 3.34l.27.26-.31.21c-.89.6-2.36 1.87-2.2 3.63a3.94 3.94 0 0 0 2.29 3.27.7.7 0 0 1 .38.39 1.3 1.3 0 0 1-.2.95 1.6 1.6 0 0 0-.14.33Zm-1.08-2.28.14.17c.17.2.33.41.49.62a1.6 1.6 0 0 1 .16.2 1.2 1.2 0 0 0 .16-.45l-.07-.05a4.39 4.39 0 0 1-2.63-3.81 4.59 4.59 0 0 1 2.16-3.94 4.46 4.46 0 0 1-1.62-3.59 4.08 4.08 0 0 1 2.08-3.16 3.06 3.06 0 0 1-1.48-2.59c-.16-1.3.72-2.23 1.65-3a2.76 2.76 0 0 1-1.07-2.15 2.84 2.84 0 0 1 1-2.33l-1.17-.45c-.64 6.62-1.45 15.21-2.16 23.84l1.2 1.17.7-.29Z" class="cls-2"/><path id="path42" d="m132.55 440.89-.11-.48c-.08-.36-.14-.73-.2-1.09l-.05-.37.21-.09c.9-.39 2.45-1.28 2.7-2.86.45-1.77-.77-3.4-2.19-4.23l-.36-.21.32-.28a4.05 4.05 0 0 0 1.74-3.06 3.51 3.51 0 0 0-2.14-3.13l-.39-.21.34-.29a3.4 3.4 0 0 0 1.55-2.43c.11-1.18-.85-2-1.75-2.72l-.3-.23.41-.35c.61-.53 1.25-1.07 1.22-1.83V417c.12-.74-.42-1.34-1-1.93l-.22-.24-.3-.35.84-.27c.53-.17 1.09-.34 1.62-.53l.36-.14v.39c.39 3.89.72 7.83 1 11.65s.65 7.82 1.05 11.72c.22 1-.53 1.6-1.13 2.09a5 5 0 0 0-.61.55l-.16.19-.22-.13c-.16-.09-.31-.19-.46-.29l-.26-.17c-.4.35-.82.71-1.26 1.07Zm.31-1.57c0 .15 0 .31.07.47l1-.88.16-.15.19.12.47.29.24.15c.15-.15.33-.29.5-.43.66-.53 1.06-.9.91-1.5-.4-3.91-.73-7.89-1.05-11.75-.31-3.69-.63-7.5-1-11.25l-1.23.39a2.89 2.89 0 0 1 1 2.3 3 3 0 0 1-1.28 2.15 3.26 3.26 0 0 1 .25 5.58 3.93 3.93 0 0 1 2.08 3.45 4.36 4.36 0 0 1-1.65 3.25 4.46 4.46 0 0 1 2.13 4.65 4.53 4.53 0 0 1-2.79 3.16" class="cls-2"/><path id="path44" d="M131.38 419.27a2 2 0 0 1-1.1-.33 2.23 2.23 0 0 1-1.18-2 2.19 2.19 0 0 1 1.1-2 2.82 2.82 0 0 1 2.44 0 2 2 0 0 1 1.08 1.41 2.29 2.29 0 0 1-1 2.43 2.36 2.36 0 0 1-1.34.49m-.9-3.8a1.61 1.61 0 0 0-.78 1.45 1.65 1.65 0 0 0 .87 1.49 1.57 1.57 0 0 0 1.81-.13 1.72 1.72 0 0 0 .73-1.81 1.37 1.37 0 0 0-.76-1 2.25 2.25 0 0 0-1.87 0" class="cls-2"/><path id="path46" d="m113 419.21-.12-.45a6 6 0 0 1-.15-.73c-.11-.68-.22-1.33-.79-1.62a2.13 2.13 0 0 0-2.55.61l-.5.52v-.73a1.34 1.34 0 0 1 .41-1 3.1 3.1 0 0 1 2.2-.57c1.14-.05 1.73.9 2.2 1.66l.11.17.12-.2.56.2a3 3 0 0 1-1.11 1.89Zm.18-2c.06.24.11.49.15.73v.15a2.3 2.3 0 0 0 .22-.3c-.1-.19-.23-.4-.35-.59Z" class="cls-2"/><path id="path48" d="M116.72 420.12h-.1a2.59 2.59 0 0 1-2.19-1.33 2.25 2.25 0 0 1-.06-2.13 2.33 2.33 0 0 1 1.72-1.36 2.42 2.42 0 0 1 2.66 1 2.23 2.23 0 0 1 0 2.7 2.39 2.39 0 0 1-2.03 1.12m0-4.31a1.5 1.5 0 0 0-.47.07h-.06a1.73 1.73 0 0 0-1.27 1 1.63 1.63 0 0 0 0 1.58 2 2 0 0 0 1.68 1 1.78 1.78 0 0 0 1.62-.81 1.63 1.63 0 0 0 0-2 1.94 1.94 0 0 0-1.5-.84" class="cls-2"/><path id="path50" d="M146.06 420.44a2 2 0 0 1-.95-.24 2.43 2.43 0 0 1-1.53-2.32 2.4 2.4 0 0 1 1.44-2.35 2.6 2.6 0 0 1 2 0 2.26 2.26 0 0 1 1.27 1.19 2.49 2.49 0 0 1-.48 2.94 2.43 2.43 0 0 1-1.75.78m0-4.51a1.9 1.9 0 0 0-.76.15 1.82 1.82 0 0 0-1.07 1.78 1.85 1.85 0 0 0 1.15 1.77 1.62 1.62 0 0 0 2-.44 1.89 1.89 0 0 0 .4-2.22 1.7 1.7 0 0 0-1-.89 2.2 2.2 0 0 0-.78-.15Z" class="cls-2"/><path id="path52" d="m152.2 419.48-.2-.05a16 16 0 0 1-2.37-.77l-.16-.06v-.16a2.54 2.54 0 0 1 .25-2.19 2 2 0 0 1 2.19-.53 1.77 1.77 0 0 1 1.28 1.57 2.4 2.4 0 0 1-.69 1.81l-.16.21Zm-2.2-1.32a15 15 0 0 0 1.94.63l.05-.06a1.88 1.88 0 0 0 .57-1.36 1.14 1.14 0 0 0-.86-1 1.42 1.42 0 0 0-1.53.34 1.84 1.84 0 0 0-.17 1.45" class="cls-2"/><path id="path54" d="M110.7 419.67a1.7 1.7 0 0 1-.58-.1h-.05a2 2 0 0 1-.92-1.9 1.77 1.77 0 0 1 1.07-1.57 1.93 1.93 0 0 1 2.53 2.66v.07l-.22.13a3.4 3.4 0 0 1-1.83.71m-.35-.66c.61.21 1.23-.19 1.83-.58l.09-.05a1.34 1.34 0 0 0-1.79-1.76 1.2 1.2 0 0 0-.71 1.06 1.44 1.44 0 0 0 .58 1.32Z" class="cls-2"/><path id="path56" d="m150.38 441.19-.24-.12c-.65-.34-1.22-.63-1.77-.87l-.17-.08v-.19c-.13-4.57-.67-10.47-3.68-15.53a13.88 13.88 0 0 0-6.78-5.89 9 9 0 0 0-1-.32 8.7 8.7 0 0 1-1.58-.6l-.13-.07v-.15a6 6 0 0 1-.07-.87v-.35l.35.05a15.05 15.05 0 0 1 10.08 7c2.56 4.12 3.87 9.25 4 15.68l.7.39.84.46.28.15-.16.27c-.12.21-.37.62-.53.85Zm-1.59-1.47c.44.2.9.43 1.39.69l.2-.31-.58-.32c-.28-.16-.55-.32-.84-.47l-.16-.08v-.18c-.11-6.41-1.39-11.49-3.92-15.55a14.43 14.43 0 0 0-9.29-6.63v.25a9 9 0 0 0 1.32.49c.33.1.68.2 1 .34a14.5 14.5 0 0 1 7.08 6.14c3.09 5.11 3.66 11.02 3.8 15.63" class="cls-2"/><path id="path58" d="M155.34 421.61a2.1 2.1 0 0 1-1.3-.44 2.54 2.54 0 0 1 .73-4.47 2.35 2.35 0 0 1 2.47.82 2.26 2.26 0 0 1 .43 2.49 2.54 2.54 0 0 1-1.68 1.51 2.5 2.5 0 0 1-.65.09m0-4.4a1.5 1.5 0 0 0-.43.06 1.83 1.83 0 0 0-1.29 1.54 1.78 1.78 0 0 0 .74 1.84 1.57 1.57 0 0 0 1.42.26 1.94 1.94 0 0 0 1.28-1.15 1.67 1.67 0 0 0-.34-1.83 1.88 1.88 0 0 0-1.34-.72Z" class="cls-2"/><path id="path60" d="M106.84 421.9a2.2 2.2 0 0 1-1.43-.52 2.27 2.27 0 0 1-.93-2.52 2.2 2.2 0 0 1 1.92-1.75 2.5 2.5 0 0 1 2.16.6 2.09 2.09 0 0 1 .7 1.73 2.27 2.27 0 0 1-1.29 2.19 2.6 2.6 0 0 1-1.13.27m0-4.23a1.4 1.4 0 0 0-.36 0h-.05a1.61 1.61 0 0 0-1.39 1.29 1.68 1.68 0 0 0 .68 1.87 1.68 1.68 0 0 0 1.89.18 1.66 1.66 0 0 0 1-1.62v-.07a1.43 1.43 0 0 0-.5-1.24 2 2 0 0 0-1.24-.41Z" class="cls-2"/><path id="path62" d="m112.29 441.29-.94-1.09.27-.19.31-.22a7 7 0 0 0 .87-.69c.19-6.65 1.76-12.15 4.65-16.35 2.66-3.78 6.44-6 10.12-5.9h.43l-.15.39c-.29.81-1.06 1-1.69 1.12a4 4 0 0 0-.66.18 14.27 14.27 0 0 0-8.73 8.1c-2.11 4.63-2.5 9.71-2.6 13.62v.18l-.16.09-1.15.52Zm-.05-1 .22.24.14-.06 1-.43c.11-3.94.52-9 2.65-13.67a14.84 14.84 0 0 1 9.05-8.37 4 4 0 0 1 .72-.2 2.8 2.8 0 0 0 .93-.32c-3.28.16-6.6 2.23-9 5.64-2.84 4.13-4.36 9.56-4.54 16.14v.12l-.08.08a6.5 6.5 0 0 1-1 .85Z" class="cls-2"/><path id="path64" d="m146.06 427.05-.56-.11a84 84 0 0 0-9.5-1.24h-.26v-.26c0-.61-.11-1.23-.16-1.85-.16-1.83-.33-3.73-.44-5.6v-.38l.38.07a14.56 14.56 0 0 1 10.33 8.86Zm-9.72-1.93a87 87 0 0 1 8.71 1.11 14 14 0 0 0-9.27-7.9c.12 1.73.27 3.49.42 5.19.05.53.1 1.06.14 1.6" class="cls-2"/><path id="path66" d="m118.3 424.77-.48-.35a13 13 0 0 1 9.63-6.61l.39-.06v.39c0 .27 0 .54-.07.8s0 .58-.08.86h-.6c0-.3 0-.62-.06-1a12.5 12.5 0 0 0-4.37 1.82 14.4 14.4 0 0 0-3 2.75c-.49.49-.91.96-1.36 1.4" class="cls-2"/><path id="path68" d="m116.43 426.78.27-.52c0-.1.11-.2.16-.31a7.8 7.8 0 0 1 1-1.6c.45-.44.87-.9 1.28-1.35a15.5 15.5 0 0 1 3.14-2.85 13.5 13.5 0 0 1 5-2l.36-.07v.37c0 .45 0 .87.06 1.28v.05c-.07.74-.14 1.48-.2 2.22-.09 1.09-.19 2.21-.32 3.32v.27h-.27a51.4 51.4 0 0 0-7.66.77l-2.16.32Zm10.57-7.94a12.5 12.5 0 0 0-4.37 1.82 14.6 14.6 0 0 0-3 2.75c-.42.45-.84.92-1.29 1.36a6 6 0 0 0-.79 1.25l1.57-.24a53 53 0 0 1 7.48-.77c.12-1 .2-2.05.29-3.05.06-.73.12-1.46.19-2.19-.08-.3-.08-.61-.08-.93" class="cls-2"/><path id="path70" d="M149.7 424.24a2.46 2.46 0 0 1-1.37-.4 2.74 2.74 0 0 1-1.31-2.61 2.7 2.7 0 0 1 1.63-2.4 2.76 2.76 0 0 1 2.79.37 2.56 2.56 0 0 1 1.08 2.38 2.69 2.69 0 0 1-1.47 2.31 2.8 2.8 0 0 1-1.35.35m0-5a2.1 2.1 0 0 0-.81.17 2.12 2.12 0 0 0-1.26 1.88 2.16 2.16 0 0 0 1 2.05 2 2 0 0 0 2.12 0 2.1 2.1 0 0 0 1.16-1.8 2 2 0 0 0-.84-1.83 2.3 2.3 0 0 0-1.37-.5Z" class="cls-2"/><path id="path72" d="m154.05 421.66-.6-.21a2.83 2.83 0 0 1-1.73-2l-.09-.3 1.29-.32.1.25c.12.33.26.65.4 1s.29.66.41 1Zm-1.65-2.07a2.4 2.4 0 0 0 .51.8v-.09c-.11-.24-.22-.49-.32-.75Z" class="cls-2"/><path id="path74" d="m108.24 422 .46-1.17c.21-.54.42-1.06.6-1.59l.13-.37.33.22.53.36.52.36.27.18-.19.26a5 5 0 0 1-2 1.42Zm1.5-2.19c-.11.31-.24.62-.36.94a3.7 3.7 0 0 0 .82-.63l-.26-.17Z" class="cls-2"/><path id="path76" d="M112.9 424.55a2.87 2.87 0 0 1-2.53-3.87 3.3 3.3 0 0 1 1.29-1.59h.09c1.24-.35 2.82-.29 3.56.9a2.74 2.74 0 0 1 .27 2.84 2.79 2.79 0 0 1-2.3 1.72 2.3 2.3 0 0 1-.38 0m-1-4.92a2.6 2.6 0 0 0-1 1.27 2.13 2.13 0 0 0 .34 2.17 2 2 0 0 0 1.93.85 2.32 2.32 0 0 0 1.6-3.6c-.52-.93-1.77-.97-2.77-.69Z" class="cls-2"/><path id="path78" d="M160 424.54a2.8 2.8 0 0 1-2-.81 2.54 2.54 0 0 1-.72-2.55 2.76 2.76 0 0 1 2-2.09 2.84 2.84 0 0 1 3.35 3.74 2.6 2.6 0 0 1-1.93 1.64 3 3 0 0 1-.7.07m0-5a1.7 1.7 0 0 0-.57.09 2.21 2.21 0 0 0-1.54 1.65 1.94 1.94 0 0 0 .55 2 2.28 2.28 0 0 0 2.13.59 2 2 0 0 0 1.5-1.27 2.11 2.11 0 0 0-.45-2.27 2.22 2.22 0 0 0-1.62-.75Z" class="cls-2"/><path id="path80" d="M131.26 424.85a2.6 2.6 0 0 1-1.79-.68 2.62 2.62 0 0 1-.9-2.41 2.88 2.88 0 0 1 1.64-2.26 2.64 2.64 0 0 1 2.7.22 2.74 2.74 0 0 1 1.25 2.45 2.57 2.57 0 0 1-1.59 2.39 3.3 3.3 0 0 1-1.31.29m.09-5a1.9 1.9 0 0 0-.87.21 2.27 2.27 0 0 0-1.29 1.79 2 2 0 0 0 .7 1.87 2.19 2.19 0 0 0 2.45.3 2 2 0 0 0 1.23-1.84 2.11 2.11 0 0 0-1-1.92 2.2 2.2 0 0 0-1.22-.43Z" class="cls-2"/><path id="path82" d="M102.17 424.85a2.62 2.62 0 0 1-2.1-1 2.45 2.45 0 0 1-.64-2.07 2.87 2.87 0 0 1 1.38-2.08 4.5 4.5 0 0 1 2.53-.12h.09a2.89 2.89 0 0 1 1.52 3.22 2.68 2.68 0 0 1-2.15 1.94 3 3 0 0 1-.63.11m-1.07-4.6a2.31 2.31 0 0 0-1.07 1.63 1.86 1.86 0 0 0 .49 1.58 2.28 2.28 0 0 0 3.85-.79 2.32 2.32 0 0 0-1.16-2.52 3.94 3.94 0 0 0-2.11.1" class="cls-2"/><path id="path84" d="M104.69 424v-3.14l.46.28a4.5 4.5 0 0 0 2.12.68h1.08l-.94.52c-.81.45-1.58.9-2.3 1.33Zm.66-2.09v1l1.06-.62a5 5 0 0 1-1.06-.43Z" class="cls-2"/><path id="path86" d="m87.45 445.26.31-.79a14 14 0 0 1 .87-1.8 69.5 69.5 0 0 1 8.66-12.57 36.9 36.9 0 0 1 12.63-9.16l.37-.15v1.59l-.17.1c-.58.37-1.2.71-1.79 1a27 27 0 0 0-2.61 1.58c-5.72 4-10.72 9.94-15.28 18.23a2.5 2.5 0 0 1-1.59 1.26 4 4 0 0 0-.66.3Zm22.33-23.59a36.4 36.4 0 0 0-12 8.83 68.6 68.6 0 0 0-8.62 12.5 11 11 0 0 0-.53 1c.57-.23 1.06-.43 1.25-.93 4.56-8.37 9.68-14.4 15.65-18.41a29 29 0 0 1 2.67-1.66c.54-.3 1.09-.6 1.61-.93a3 3 0 0 1 0-.31Z" class="cls-2"/><path id="path88" d="m174.65 444.27-.6-.09c-.59-.08-1.2-.18-1.83-.24H172l-.05-.21a5.1 5.1 0 0 0-.51-1.46 64 64 0 0 0-7.8-11.14 38 38 0 0 0-11.19-8.74l-.17-.08v-1.51l.42.17a35.8 35.8 0 0 1 13.55 10.31 77 77 0 0 1 8.11 12.46Zm-2.15-.91 1 .14a74.4 74.4 0 0 0-7.76-11.83 35.45 35.45 0 0 0-12.9-10v.2a38.8 38.8 0 0 1 11.21 8.79A66 66 0 0 1 172 442a5.6 5.6 0 0 1 .5 1.36" class="cls-2"/><path id="path90" d="m157.74 423.77-.62-.35c-.83-.47-1.68-1-2.55-1.38l-1-.49 1.12-.08a10.6 10.6 0 0 0 2.23-.47l.37-.12v.39a9 9 0 0 0 .27 1.82Zm-2-1.83 1.14.62c-.05-.28-.09-.58-.12-.87-.4.1-.76.18-1.06.25Z" class="cls-2"/><path id="path92" d="M154.79 424.07h-3.72l.33-.48c.29-.42.55-.83.77-1.22l.13-.22.24.09a4.17 4.17 0 0 1 1.89 1.37Zm-2.58-.63h1.28a3.8 3.8 0 0 0-.93-.58Z" class="cls-2"/><path id="path94" d="M164.53 428.16a2.7 2.7 0 0 1-1.15-.25 3.37 3.37 0 0 1-1.78-2.37 3.29 3.29 0 0 1 2.2-3.39 2.84 2.84 0 0 1 2.65.51 3 3 0 0 1 1.23 2.53 2.83 2.83 0 0 1-1.33 2.4 3.34 3.34 0 0 1-1.82.57m-.53-5.44a2.67 2.67 0 0 0-1.8 2.73 2.75 2.75 0 0 0 1.44 1.92 2.49 2.49 0 0 0 2.37-.28 2.24 2.24 0 0 0 1.07-1.89 2.42 2.42 0 0 0-1-2 2.26 2.26 0 0 0-2.08-.48" class="cls-2"/><path id="path96" d="M111.4 424.15h-3.8l.65-.51a10 10 0 0 1 1.87-1.1l.26-.12.14.24.3.57c.1.19.2.38.3.55Zm-2-.66h.94v-.11c-.06-.1-.11-.2-.16-.3-.29.14-.54.27-.78.41" class="cls-2"/><path id="path98" d="M97.46 428.47a2.7 2.7 0 0 1-1.41-.39 3 3 0 0 1-1.47-2.66 2.88 2.88 0 0 1 1.42-2.56 3.17 3.17 0 0 1 2.92-.05 2.77 2.77 0 0 1 1.58 2.09 2.83 2.83 0 0 1-1.23 3 3.2 3.2 0 0 1-1.81.57m.08-5.39a2.5 2.5 0 0 0-1.21.31 2.2 2.2 0 0 0-1.13 2 2.33 2.33 0 0 0 3.8 1.97 2.26 2.26 0 0 0 1-2.34 2.18 2.18 0 0 0-1.24-1.67 2.66 2.66 0 0 0-1.22-.27" class="cls-2"/><path id="path100" d="m159 427.18-.39-.2c-.57-.3-1.17-.6-1.75-.94l-.07.06-.25.21-.26.19-.18-.27-.41-.6c-.35-.51-.71-1-1-1.6l-.49-.87.89.46a18.4 18.4 0 0 1 4.28 3.07Zm-3.19-2.46.38.57.23.33.24-.19.1-.08c-.36-.22-.68-.43-1-.63Z" class="cls-2"/><path id="path102" d="M109.52 431.42c-2 0-3.47-2-3.56-3.8a4 4 0 0 1 2.49-3.49 3.49 3.49 0 0 1 2.92.16 3.75 3.75 0 0 1 1.24 5.73 3.55 3.55 0 0 1-2.94 1.44Zm-3-3.81c.09 1.59 1.38 3.3 3.1 3.21a3 3 0 0 0 2.47-1.21 3.13 3.13 0 0 0-1-4.82 2.88 2.88 0 0 0-2.41-.14 3.4 3.4 0 0 0-2.12 2.96Z" class="cls-2"/><path id="path104" d="M152.68 431.14a3.4 3.4 0 0 1-1.53-.36 3.68 3.68 0 1 1 3.77-6.28 3.52 3.52 0 0 1 1.54 3.12 3.38 3.38 0 0 1-1.65 2.88 4 4 0 0 1-2.13.64m0-6.77a2.6 2.6 0 0 0-1.06.22 3.1 3.1 0 0 0-.23 5.65 3.16 3.16 0 0 0 3.08-.25 2.71 2.71 0 0 0 1.37-2.37 2.9 2.9 0 0 0-1.28-2.59 3.22 3.22 0 0 0-1.86-.66Z" class="cls-2"/><path id="path106" d="m162.06 427.18-.59-.49c-.72-.59-1.44-1.16-2.14-1.68l-.55-.42.83-.15c.61-.11 1.25-.23 1.85-.39l.4-.11v.41a12.7 12.7 0 0 0 .12 2.07Zm-1.82-2.24 1 .81c0-.31-.05-.66-.05-1Z" class="cls-2"/><path id="path108" d="m100.24 427.45.06-.75a15 15 0 0 0 .06-2.08v-.42l.41.12a12 12 0 0 0 2 .42l.77.1-.64.44c-.62.44-1.26 1-2.09 1.68ZM101 425v1c.36-.3.69-.57 1-.8-.4-.03-.72-.1-1-.2" class="cls-2"/><path id="path110" d="m94 438.18-.41-.42a41.7 41.7 0 0 1 13.56-13.65l.41.42c-.24.38-.47.76-.7 1.15l-.72 1.15a9.6 9.6 0 0 0-1.25 2.32 16 16 0 0 1-.84 1.73 10.6 10.6 0 0 1-1.71 1.07 6.54 6.54 0 0 0-2.35 1.78 11 11 0 0 1-1.46 1.1c-.28.19-.55.36-.8.55-.58.39-1.13.82-1.65 1.23a19 19 0 0 1-2.08 1.57m12.37-12.87A40.9 40.9 0 0 0 95 436.75l.6-.46c.53-.43 1.08-.86 1.67-1.25.25-.19.54-.38.82-.57a10.4 10.4 0 0 0 1.36-1 7.1 7.1 0 0 1 2.53-1.93 11.4 11.4 0 0 0 1.58-1 16 16 0 0 0 .77-1.61 10.6 10.6 0 0 1 1.33-2.45c.24-.37.47-.75.7-1.13Z" class="cls-2"/><path id="path112" d="M131.34 431.73a3.22 3.22 0 0 1-2.87-1.7 3.47 3.47 0 0 1 1.77-5.07 3.36 3.36 0 0 1 3.19.51 3.14 3.14 0 0 1 1.33 2.75 3.28 3.28 0 0 1-1.14 2.62 3.45 3.45 0 0 1-2.28.89m0-6.37a2.4 2.4 0 0 0-.88.17 2.85 2.85 0 0 0-1.45 4.2 2.67 2.67 0 0 0 1.9 1.36 2.79 2.79 0 0 0 2.31-.7 2.69 2.69 0 0 0 .95-2.16 2.58 2.58 0 0 0-1.09-2.24 3 3 0 0 0-1.74-.63" class="cls-2"/><path id="path114" d="M165.32 434.56c-.66-.38-1.3-.8-1.93-1.21a24 24 0 0 0-3-1.78l-.57-.29a3.62 3.62 0 0 1-1.87-1.51c-.19-.37-.36-.74-.53-1.11a14 14 0 0 0-1.17-2.18l-.31-.49.22-.17.23-.18.26-.21.16-.12.17.1c.62.37 1.27.71 1.9 1l.44.24a28 28 0 0 1 4.77 4.68c.51.92 1.09 1.84 1.66 2.73Zm-8.62-8.43a14 14 0 0 1 1.22 2.26c.16.36.34.73.52 1.09a3.13 3.13 0 0 0 1.59 1.24l.59.29a24 24 0 0 1 3.09 1.81l.81.53c-.34-.55-.67-1.1-1-1.66a26.7 26.7 0 0 0-4.63-4.54l-.36-.19c-.57-.3-1.17-.6-1.75-.94l-.07.06Z" class="cls-2"/><path id="path120" d="M92.36 433.51a3.47 3.47 0 0 1-2.76-1.28 3.39 3.39 0 0 1-.67-3.59 3.67 3.67 0 0 1 6.47-.89 3.4 3.4 0 0 1 .36 3.65 3.56 3.56 0 0 1-2.88 2.08 5 5 0 0 1-.52.03m.11-6.74a2.4 2.4 0 0 0-.46.05 3 3 0 0 0-2.48 2 2.77 2.77 0 0 0 .55 3 3.11 3.11 0 0 0 5.14-.69 2.81 2.81 0 0 0-.31-3 3.08 3.08 0 0 0-2.44-1.36" class="cls-2"/><path id="path122" d="m168.19 436.92-1-.61c-.8-.49-1.59-1-2.35-1.53a32.2 32.2 0 0 0-5.92-3.35l-.2-.12a2.27 2.27 0 0 1-1.17-1.19 24 24 0 0 1-1.34-3.71l.54-.25a14.4 14.4 0 0 1 1.23 2.28c.16.36.34.73.52 1.09a3.13 3.13 0 0 0 1.59 1.24l.59.29a24 24 0 0 1 3.09 1.81l.81.53c-.34-.55-.68-1.12-1-1.68l.47-.37a19.3 19.3 0 0 1 3.6 4.58Zm-2.76-2.47 1 .65c-.22-.34-.45-.66-.69-1Z" class="cls-2"/><path id="path124" d="M170 433.53a3.2 3.2 0 0 1-1.5-.36 3.72 3.72 0 0 1-1.87-4.71 3.88 3.88 0 0 1 2.4-2.26 3.57 3.57 0 0 1 3.29.59 3.48 3.48 0 0 1 1.46 2.93 3.54 3.54 0 0 1-1.69 3.17 3.8 3.8 0 0 1-2.09.64m.1-6.9a2.6 2.6 0 0 0-.88.14 3.31 3.31 0 0 0-2 1.91 3.15 3.15 0 0 0 1.57 3.93 3.14 3.14 0 0 0 4.42-2.87 2.91 2.91 0 0 0-1.23-2.44 3.12 3.12 0 0 0-1.93-.67Z" class="cls-2"/><path id="path126" d="m84.55 441.5-.65-.84v-.1a4.3 4.3 0 0 1 .1-.81 1.67 1.67 0 0 0-.08-1.26v-.05c-.08-.17-.17-.34-.26-.51a4.5 4.5 0 0 1-.62-1.84 4.87 4.87 0 0 1 3-4.74 9.8 9.8 0 0 1 2-.4 4.74 4.74 0 0 1 .41-3.29 2.5 2.5 0 0 1 1.55-1.17l.92-.19-.63.69a4.7 4.7 0 0 0-1.29 2.47 6 6 0 0 0 .26 1.84c0 .14.07.27.1.41l.08.38h-.79a6 6 0 0 0-1.77.14 3.71 3.71 0 0 0-2.63 4.11 4.1 4.1 0 0 0 .6 1.45c.15.27.31.55.44.84v.2c-.09.35-.19.7-.29 1s-.19.7-.28 1.05Zm.11-2.76" class="cls-2"/><path id="path128" d="m98.78 434.32.61-.84a7.2 7.2 0 0 1 2.55-2 11.4 11.4 0 0 0 1.58-1 16 16 0 0 0 .77-1.61 10.4 10.4 0 0 1 1.34-2.46l.67-.84-.13 1.07a8.3 8.3 0 0 1-.77 2.29c-.17.39-.35.79-.49 1.19a3.3 3.3 0 0 1-1.43 1.82 13.5 13.5 0 0 0-1.81.94 15 15 0 0 1-1.89 1Z" class="cls-2"/><path id="path130" d="m166.82 432.09-.65-.63c-.86-.84-1.67-1.72-2.45-2.58l-1-1.12 2.07.17v.24a2.18 2.18 0 0 0 .83 1.3v-.28c0-.35-.05-.7-.08-1l-.06-.42.21-.09.47-.23c.24-.12.48-.24.75-.35l.8-.35-.42.77a5.72 5.72 0 0 0-.6 3.71Zm-.68-4v.55c.06-.23.13-.46.21-.68Zm-1.95.4.09.09v-.09Z" class="cls-2"/><path id="path132" d="m178.73 441.42-.15-.54c-.08-.32-.19-.63-.29-.93a11 11 0 0 1-.41-1.39v-.14c.07-.28.16-.57.26-.85a4 4 0 0 0 .26-2.63 4.34 4.34 0 0 0-5-2.83l-.54.11.2-.52a5.52 5.52 0 0 0 .05-3.9l-.3-.83.75.47c1.19.75 1 2.17.79 3.31 0 .18 0 .35-.07.52h.09a4.57 4.57 0 0 1 4.85 6.7c-.32.57 0 1.09.49 1.82l.2.29-.15.18c-.18.21-.39.46-.61.7Zm.1-1.75v.08l.15.44.09-.11Z" class="cls-2"/><path id="path134" d="M95.8 432.24v-.93a14.8 14.8 0 0 0-.29-3.23l-.16-1 .67.67.23.21.25.24v.11a12 12 0 0 1 .4 1.26 2.3 2.3 0 0 1 .4 0l.51.1-.48.56c-.36.41-.72.83-1.06 1.25Zm.59-2.69c0 .31.06.62.07.94l.27-.31h-.18v-.23c-.09-.13-.12-.27-.16-.4" class="cls-2"/><path id="path136" d="m166.35 430.81-.55-.42a3.44 3.44 0 0 1-1.6-2.14v-.31h.32v.3-.3c.35 0 1-.09 1.34-.09h.28v.27c0 .35.05.7.07 1.05s0 .65.08 1Zm-1.47-2.33a2.4 2.4 0 0 0 .75 1v-.28c0-.26 0-.51-.05-.76Z" class="cls-2"/><path id="path138" d="M97.48 430.24h-.18a4 4 0 0 0-.51 0h-.24v-.23a13 13 0 0 0-.45-1.42l-.16-.45h.47c.75.06 1.54.12 2.29.15h.66l-.45.48c-.17.19-.35.36-.52.54s-.52.52-.75.79Zm-.46-.66h.22l.66-.69v-.06l-1.17-.08c.14.25.27.56.27.83Z" class="cls-2"/><path id="path140" d="m106.86 440.77-.31-.34-.34-.38-.46-.51-.69.39-.34.19-.2.12-.16-.16-.92-.84-.93-.85-.12-.12v-.16a41.4 41.4 0 0 1 3.08-9.94l.26-.54.28.53a19 19 0 0 0 1.88 2.86l.29.36-.45.12a4.15 4.15 0 0 0-3.11 2.63 3.54 3.54 0 0 0 .61 3.43 4.74 4.74 0 0 0 1.8 1.25l.3.15.26.13ZM106 439c.22.23.44.47.64.7l.14-.31q-.36-.24-.78-.39m-3-.89c.26.25.53.49.8.73l.76.7.14-.09c.31-.18.6-.35.92-.51l.14-.06a3.5 3.5 0 0 1-1-.9 4.15 4.15 0 0 1-.71-4 4.58 4.58 0 0 1 3.1-2.89 19 19 0 0 1-1.35-2.09 41.4 41.4 0 0 0-2.75 9.06Z" class="cls-2"/><path id="path142" d="m156 440.82-.21-.35c-.12-.2-.24-.4-.35-.61s-.22-.4-.34-.6l-.16-.26.26-.16a4.8 4.8 0 0 0 2.46-2.65 4.33 4.33 0 0 0-.46-3.21 4.72 4.72 0 0 0-2.64-1.69l-.59-.22.41-.34a8.9 8.9 0 0 0 2.07-2.54l.28-.51.26.52a37.3 37.3 0 0 1 2.9 9.52v.18l-.14.11c-.18.15-.36.33-.55.52a2.51 2.51 0 0 1-2.13 1.08Zm-.23-1.61.2.35.13.25.78-.86h.18c.71.17 1.19-.32 1.74-.88.15-.15.3-.31.46-.45a37.3 37.3 0 0 0-2.57-8.68 9.4 9.4 0 0 1-1.54 1.88 4.6 4.6 0 0 1 2.55 1.8 4.88 4.88 0 0 1 .56 3.65 5.13 5.13 0 0 1-2.54 2.94Z" class="cls-2"/><path id="path146" d="M108 439.05a3.24 3.24 0 0 1-2.31-.77 3.67 3.67 0 0 1-1.42-2.63 3.94 3.94 0 0 1 7.65-1.63 3.55 3.55 0 0 1-.28 3.12 3.63 3.63 0 0 1-2.6 1.84 9 9 0 0 1-1.04.07m.19-7.1a4 4 0 0 0-.47 0 3.35 3.35 0 0 0-2 1 3.3 3.3 0 0 0-.83 2.57 3 3 0 0 0 1.18 2.21 3.5 3.5 0 0 0 2.87.55 3 3 0 0 0 2.14-1.54 3 3 0 0 0 .25-2.61 3.4 3.4 0 0 0-3.13-2.13Z" class="cls-2"/><path id="path148" d="M153.79 439.1a3.52 3.52 0 0 1-2.47-1.05 4 4 0 0 1-1.22-3.21 3.92 3.92 0 0 1 2.85-3.53 3.76 3.76 0 0 1 3.36.56 3.8 3.8 0 0 1 1.66 3 3.84 3.84 0 0 1-1 2.95 3.76 3.76 0 0 1-2.73 1.27Zm.26-7.36a2.9 2.9 0 0 0-.92.15 3.28 3.28 0 0 0-2.4 3 3.42 3.42 0 0 0 1 2.73 2.86 2.86 0 0 0 2.38.85 3.14 3.14 0 0 0 2.33-1.07 3.22 3.22 0 0 0 .87-2.5 3.17 3.17 0 0 0-1.4-2.54 3.3 3.3 0 0 0-1.86-.62" class="cls-2"/><path id="path152" d="M131.69 439h-.52a3.27 3.27 0 0 1-3-1.4 3.58 3.58 0 0 1-.53-3.57 4 4 0 0 1 2.29-2.37 4.34 4.34 0 0 1 4 .68 3.83 3.83 0 0 1 1.37 3 3.6 3.6 0 0 1-1.28 2.83 3.3 3.3 0 0 1-2.33.83m-.53-.63a2.93 2.93 0 0 0 2.48-.67 3 3 0 0 0 1.06-2.37 3.21 3.21 0 0 0-1.16-2.54 3.71 3.71 0 0 0-3.47-.56 3.42 3.42 0 0 0-1.92 2 3 3 0 0 0 .45 3 2.66 2.66 0 0 0 2.46 1.16Z" class="cls-2"/><path id="path154" d="M87.84 439.75h-.27a4.28 4.28 0 0 1-3.45-2.82 3.73 3.73 0 0 1 .33-3.09 4 4 0 0 1 6-1.09 3.52 3.52 0 0 1 1.32 3 3.37 3.37 0 0 1-1 2.69 4.2 4.2 0 0 1-2.93 1.31m.08-7.36a2.5 2.5 0 0 0-.76.11 3.26 3.26 0 0 0-2.16 1.63 3.12 3.12 0 0 0-.28 2.6 3.66 3.66 0 0 0 2.94 2.41 3.5 3.5 0 0 0 2.71-1.09 2.71 2.71 0 0 0 .81-2.24v-.07a2.93 2.93 0 0 0-1.1-2.54 3.36 3.36 0 0 0-2.16-.81" class="cls-2"/><path id="path156" d="M174.72 440a3.3 3.3 0 0 1-.88-.12 4.06 4.06 0 0 1-3.06-5.07 4 4 0 0 1 3.07-2.87 4 4 0 0 1 3.37.76 3.9 3.9 0 0 1 1.56 3 4.17 4.17 0 0 1-4.06 4.26Zm0-7.56a3.3 3.3 0 0 0-.76.09 3.42 3.42 0 0 0-2.6 2.45 3.46 3.46 0 0 0 5.52 3.6 3.42 3.42 0 0 0 1.3-2.82 3.33 3.33 0 0 0-1.33-2.59 3.5 3.5 0 0 0-2.11-.7Z" class="cls-2"/><path id="path158" d="M91.71 437.5v-.88a9.5 9.5 0 0 0-.5-3l-.12-.39h.4c.88 0 1.81 0 2.85-.15l.68-.07-.41.55c-.28.37-.55.76-.82 1.14-.49.69-1 1.41-1.55 2.08Zm.22-3.63a10.7 10.7 0 0 1 .38 1.92c.35-.46.69-.93 1-1.4l.44-.61c-.64.05-1.24.08-1.82.09" class="cls-2"/><path id="path160" d="m170.83 437.7-.51-.65c-.66-.82-1.26-1.7-1.85-2.55-.26-.39-.52-.77-.79-1.15l-.62-.87 1 .42a6.9 6.9 0 0 0 3 .34h.5l-.21.45a8.3 8.3 0 0 0-.51 3.21Zm-2.15-4 .29.43c.42.61.86 1.24 1.31 1.85a8 8 0 0 1 .36-2.15 8.2 8.2 0 0 1-1.96-.1Z" class="cls-2"/><path id="path162" d="M174.28 459.93H89.1c-1.76.12-2.75-1.7-3.09-2.48a26.4 26.4 0 0 1-1.57-5.74c-.07-.34-.13-.67-.2-1-.65-4-1.53-8.17-3.6-11.89l-.35-.63.69.19a6.43 6.43 0 0 1 3.62 3 6.7 6.7 0 0 1 .35-2.45l.09-.26.27.07c1.57.41 2.3 2 2.63 3.3a10.6 10.6 0 0 1 0 2.86 4.73 4.73 0 0 1 3-1.13 5.24 5.24 0 0 1 4.15 1.75l.21.25-.25.19a8.6 8.6 0 0 1-1.37.85 4.14 4.14 0 0 1 1.86.76l.13.11v1.34l-.16.07a6.4 6.4 0 0 1-1.85.43l.5.29c.31.18.63.36.93.56l.27.16-.17.26a7 7 0 0 1-2.18 1.9h-.15a7.9 7.9 0 0 1-3.18-.35 6.6 6.6 0 0 1-1.94-1.48 10 10 0 0 0-.47-.45 4.3 4.3 0 0 0 .52 3.3A4.58 4.58 0 0 0 91 456a5.61 5.61 0 0 0 5.71-2.94l.24-.52.48.81a5.5 5.5 0 0 0 2.1 2.44 6 6 0 0 0 5.89-.82c1.41-1.24 1.52-3.37 1.37-4.93v-.39l.38.06a13.5 13.5 0 0 0 2.43.12h.32v1.25c-.09 1.38-.17 2.81.8 3.75a6.94 6.94 0 0 0 5.77 1.22c1.28-.28 2.37-1.27 3.34-3l.26-.48.27.48a4.74 4.74 0 0 0 2.29 2.34c1.69.75 4.18 1.08 5.74-.42a4.16 4.16 0 0 0 1.39-4.22c-.21.16-.41.34-.62.53a5.4 5.4 0 0 1-1.92 1.29 4.56 4.56 0 0 1-5.24-1.43l-.19-.26.27-.18q.73-.46 1.53-.9a2.8 2.8 0 0 1-2-.87v-.12a1.3 1.3 0 0 1 .21-1.16 2.48 2.48 0 0 1 1.63-.81l-.54-.24-.68-.3-.35-.16.24-.3a5.44 5.44 0 0 1 5-1.76c-.39-1.63-.2-3.69 1.53-4.73l.27-.16.15.27c.07.11.13.23.2.35a9 9 0 0 0 .73 1.15c.06-1 .27-2.23 1.6-2.32h.13c1 .36 1.06 1.3 1.11 2.11a5.1 5.1 0 0 1 1.55-1.37l.23-.12.15.21a7.82 7.82 0 0 1 1.37 4.62 5.92 5.92 0 0 1 4.68 1.48l.24.23-.25.22a8.4 8.4 0 0 1-1.38.93 2.77 2.77 0 0 1 2.06 1.4v.23a2.07 2.07 0 0 1-2.2 1.29 5 5 0 0 1 1.34.82l.18.17-.14.21c-1.06 1.68-3.27 1.68-4.49 1.53a5 5 0 0 1-3.21-2 5.45 5.45 0 0 0 1.68 4.48 6.6 6.6 0 0 0 5.19 1c1.19-.28 2.18-1.26 3-3l.22-.44.29.39.27.36a5.4 5.4 0 0 0 1.86 1.85 5.68 5.68 0 0 0 4.37.62 4.84 4.84 0 0 0 3-2.54 4 4 0 0 0 .2-3.2l-.19-.47.5.06a14.4 14.4 0 0 0 2.29.09h.35v.35a5.31 5.31 0 0 0 1.87 5c1.55 1 4.1 1.67 6.18.48a5.86 5.86 0 0 0 2-2.28l.2-.34.3-.49.23.52a5.25 5.25 0 0 0 4.35 2.94h.05a4.42 4.42 0 0 0 4.28-1.66 4.19 4.19 0 0 0 .92-3.86c-1.1 1.12-2.35 2.34-4.12 2.18a4.68 4.68 0 0 1-3.81-1.6l-.21-.2.19-.22a5.7 5.7 0 0 1 1.51-1.1 3.43 3.43 0 0 1-2.12-.8l-.13-.12v-.17a2.25 2.25 0 0 1 2.08-1.64c-.46-.26-.92-.53-1.36-.83l-.28-.2.24-.26a5.57 5.57 0 0 1 5.67-1.5 3.6 3.6 0 0 1 1.43 1 7.8 7.8 0 0 1 .31-3.62 3.79 3.79 0 0 1 2.36-2.62l.29-.09.09.27a8.3 8.3 0 0 1 .39 2.45 6.1 6.1 0 0 1 3.54-3l.6-.16-.24.57c-.21.51-.46 1-.7 1.5a16 16 0 0 0-1 2.34 57 57 0 0 0-1.87 8l-.12.64a26.5 26.5 0 0 1-1.78 6.37c-.63.89-1.54 2.28-3.06 2.28m-.15-.61c1.29.09 2.08-1.15 2.45-1.89a26.2 26.2 0 0 0 1.73-6.22l.12-.63a56.5 56.5 0 0 1 1.88-8.12 17.6 17.6 0 0 1 1.05-2.43l.4-.82a6.8 6.8 0 0 0-3.07 3.42l-.57-.13v-.44a11 11 0 0 0-.27-2.65 3.38 3.38 0 0 0-1.7 2.14 8.2 8.2 0 0 0-.24 3.76l.11 1.22-.58-.55-.32-.32a3.8 3.8 0 0 0-1.47-1.06 4.9 4.9 0 0 0-4.79 1.09c.46.29.94.55 1.44.83l.44.25 1 .54h-1.1c-1.1 0-2.15.19-2.47 1.08a3.8 3.8 0 0 0 2 .57h.57l.91.11-.79.45-.57.31a7.4 7.4 0 0 0-1.45.94 4 4 0 0 0 3.13 1.22h.03c1.53.15 2.64-1 3.72-2.07l.58-.58.18.4a4.71 4.71 0 0 1-.84 4.91 5 5 0 0 1-4.87 1.87 5.91 5.91 0 0 1-4.57-2.79 6 6 0 0 1-2.1 2.36 6.81 6.81 0 0 1-6.82-.49 5.82 5.82 0 0 1-2.16-5.21h-1.57a4.57 4.57 0 0 1-.36 3.22 5.48 5.48 0 0 1-3.32 2.86 6.3 6.3 0 0 1-4.82-.65 5.86 5.86 0 0 1-2.05-2 5.14 5.14 0 0 1-3.22 2.87 7.26 7.26 0 0 1-5.69-1.14 6.12 6.12 0 0 1-1.91-5.16h-.3a2.73 2.73 0 0 1-1.8-.2 4.7 4.7 0 0 1-1.46 5.16c-1.76 1.7-4.53 1.35-6.37.53a4.77 4.77 0 0 1-2.32-2.15 5.64 5.64 0 0 1-3.48 2.87 7.65 7.65 0 0 1-6.31-1.37c-1.18-1.15-1.08-2.79-1-4.23v-.59a15 15 0 0 1-1.83-.08c.11 1.66-.11 3.76-1.62 5.08a6.6 6.6 0 0 1-6.51.87 5.7 5.7 0 0 1-2.18-2.45 6.21 6.21 0 0 1-6.07 2.79 5.15 5.15 0 0 1-3.72-2.55 4.79 4.79 0 0 1-.42-4.24l.15-.39.32.26c.3.25.57.52.84.79a6.2 6.2 0 0 0 1.75 1.35 7.3 7.3 0 0 0 2.84.31 7 7 0 0 0 1.75-1.43l-.64-.37c-.43-.25-.87-.51-1.3-.8l-.75-.49.89-.06a8.2 8.2 0 0 0 2.4-.4v-.64a4.8 4.8 0 0 0-2-.64l-1.23-.2 1-.5a14 14 0 0 0 1.67-.93 4.7 4.7 0 0 0-3.48-1.31 4 4 0 0 0-3.12 1.56l-.62.84.08-1v-.52a11.5 11.5 0 0 0 0-3 3.85 3.85 0 0 0-1.93-2.75 7.7 7.7 0 0 0-.21 2.32v1.94l-.54-1a7.65 7.65 0 0 0-3.08-3.46 38 38 0 0 1 3.28 11.37c.07.33.14.67.2 1a26 26 0 0 0 1.54 5.61c.29.67 1.11 2.21 2.51 2.12ZM122.57 451a4 4 0 0 0 4.33 1 5.1 5.1 0 0 0 1.73-1.18 9 9 0 0 1 1-.82l.1-.07a2.37 2.37 0 0 1-.34-2.83 2.33 2.33 0 0 1 4 .25 2.78 2.78 0 0 1-.29 2.43l-.06.15a4.9 4.9 0 0 0 3.06 2.08c1 .12 2.83.14 3.77-1a5 5 0 0 0-1-.54 6 6 0 0 1-1.06-.57l-.68-.48.83-.07h.71c1.06 0 1.74-.08 2-.78-.45-.79-1.37-1-2.42-1.08l-1-.11 1-.54a13 13 0 0 0 1.64-1 5.5 5.5 0 0 0-4.27-1h-.36v-.36a7.5 7.5 0 0 0-1.09-4.37 6.2 6.2 0 0 0-1.39 1.4l-.67.8-.09-.68v-.65c0-.86-.11-1.45-.66-1.69-.85.1-.95 1-1 2.15v1l-.48-.45a7.9 7.9 0 0 1-1.3-1.84v-.07c-1.34 1-1.33 2.93-.88 4.32l.15.48-.5-.09a5.18 5.18 0 0 0-4.68 1.16l.3.13a16 16 0 0 1 1.5.72l.89.5-1 .06q-1.78.12-2.22.69a.75.75 0 0 0-.12.6 2.43 2.43 0 0 0 1.64.6 9 9 0 0 1 .88.15l.77.21-.71.35c-.75.3-1.41.66-2.03 1.04m8.72-4.33a1.55 1.55 0 0 0-1.38.72 1.74 1.74 0 0 0 .38 2.21 1.9 1.9 0 0 0 1.56.23h.57l.12-.26c.3-.69.59-1.33.29-1.94a1.62 1.62 0 0 0-1.42-.9Z" class="cls-2"/><path id="path164" d="m87.41 440.8-.12-.12-.28-.29c-.09-.1-.19-.21-.3-.31l-.48-.49h.68a9.8 9.8 0 0 0 3.67-.91l.36.46a1.8 1.8 0 0 0-.19.39c-.15.35-.33.78-.79.9h-.06a10.2 10.2 0 0 0-2.32.35Zm.17-.69h.14Zm2.5-.6a10 10 0 0 1-1.2.37c.32 0 .64-.06 1-.08.06-.03.12-.14.2-.29" class="cls-2"/><path id="path166" d="m127.44 441.15-.31-.18c-.08-.06-.17-.1-.25-.15a5.2 5.2 0 0 1-1-.68l-.08-.09v-1.85l.45.41.3.24c.54.43 1.28 1 .9 2Zm-1-1.36a3.6 3.6 0 0 0 .62.43 1.46 1.46 0 0 0-.62-.77Z" class="cls-2"/><path id="path168" d="m135.56 441.32-.19-.18a1 1 0 0 1-.37-.85c.06-.6.71-1 1.24-1.37a3 3 0 0 0 .37-.24l.39-.29.09.48c.2 1.11-.6 1.73-1.25 2.23Zm.92-1.83c-.37.24-.85.57-.88.86a.22.22 0 0 0 0 .15 2.15 2.15 0 0 0 .88-1.01" class="cls-2"/><path id="path170" d="M114 452.91a5 5 0 0 1-.69 0c-1.73-.06-2.94-1.33-4-2.62l-.17-.19.17-.2a2.9 2.9 0 0 0 .67-2.09 1.33 1.33 0 0 0-.58-.94 1.68 1.68 0 0 0-2.53.93 2.62 2.62 0 0 0 .44 1.76c.05.09.09.19.14.29l.1.21-.18.15a10 10 0 0 0-.75.72 6.9 6.9 0 0 1-1.73 1.37 5 5 0 0 1-6-1.19l-.2-.25.26-.19a11 11 0 0 1 1.56-.91c-.94-.08-2.16-.22-2.14-1.54v-.14a2.22 2.22 0 0 1 1.91-1 6 6 0 0 1-1.4-1l-.23-.22.23-.21a6.06 6.06 0 0 1 5.15-1.55 3.51 3.51 0 0 1 .33-3.58 1.5 1.5 0 0 0 .2-.24c.29-.38.77-1 1.47-.65h.06v.06a13 13 0 0 1 .74 1.1 2.08 2.08 0 0 1 .88-1.69 1.22 1.22 0 0 1 1.61.37 1.65 1.65 0 0 1 .42 1.14c.24-.34.51-.72.83-1.13l.2-.27.24.23a4.57 4.57 0 0 1 1.4 4.61 5.8 5.8 0 0 1 5.11 1.62l.19.17-.14.22a3.5 3.5 0 0 1-1.37 1.11 2.25 2.25 0 0 1 1.83 1v.11a1.33 1.33 0 0 1-.24 1.06 2.54 2.54 0 0 1-1.87.59l.58.32.93.5.27.16-.17.27a4.17 4.17 0 0 1-3.53 1.73m-4.1-2.86c1 1.12 2 2.16 3.46 2.22a4 4 0 0 0 3.61-1.21l-.62-.33c-.49-.26-1-.54-1.47-.84l-.67-.43.79-.12a6 6 0 0 1 .78-.06c.62 0 1.4 0 1.67-.38a.65.65 0 0 0 .12-.52c-.33-.5-1-.57-1.63-.65-.23 0-.46-.05-.69-.1l-.79-.16.71-.4.51-.27a4.2 4.2 0 0 0 1.31-.88 4.93 4.93 0 0 0-4.87-1.14l-.67.24.29-.65a3.9 3.9 0 0 0-.81-4.26 17 17 0 0 0-1.1 1.63l-.44.74-.12-.85a4.4 4.4 0 0 1 0-.63 1.58 1.58 0 0 0-.28-1.14c-.2-.24-.58-.45-.81-.27-.43.23-.51.73-.61 1.31a4.7 4.7 0 0 1-.16.76l-.19.62-.35-.55-.3-.49a13 13 0 0 0-.75-1.15c-.2-.06-.36.09-.66.49l-.23.28c-.66.79-.67 2 0 3.46l.24.55-.59-.14a5.6 5.6 0 0 0-4.89 1.07 9.3 9.3 0 0 0 1.88 1.06l.81.37-.87.2c-.24.05-.5.09-.76.12-.71.08-1.34.16-1.66.69 0 .65.56.77 1.66.87a4.5 4.5 0 0 1 1 .16l.78.24-.75.32a13.5 13.5 0 0 0-2.12 1.08 4.46 4.46 0 0 0 5 .79 6.5 6.5 0 0 0 1.57-1.26l.61-.6v-.07a3.2 3.2 0 0 1-.49-2.16 2.27 2.27 0 0 1 3.47-1.29 1.93 1.93 0 0 1 .83 1.35 3.5 3.5 0 0 1-.79 2.38Z" class="cls-2"/><path id="path172" d="M159.92 452.67h-.32a5 5 0 0 1-4-2.18v-.15a3.06 3.06 0 0 1 .28-1.42 3 3 0 0 0 .26-1 1.72 1.72 0 0 0-1.58-1.23h-.06a1.48 1.48 0 0 0-1.09.32 1.4 1.4 0 0 0-.54 1 2.8 2.8 0 0 0 .38 1.47l.18.41.08.2-.16.14-.59.56a6.15 6.15 0 0 1-2.4 1.68c-1.74.43-4.15.26-5.28-1.61l-.16-.27.27-.15.92-.51.59-.32a4.6 4.6 0 0 1-2-.52l-.17-.1v-.19c0-.38.1-.76.16-1.09v-.11l.1-.08a3.9 3.9 0 0 1 1.65-.6 2.82 2.82 0 0 1-1.38-1.16l-.12-.22.21-.16a6.78 6.78 0 0 1 4.89-1.26 5.3 5.3 0 0 1 .73-3.75l.12-.18c.2-.31.54-.83 1.16-.64h.11l.06.1.32.59c.12.23.23.45.36.66.14-.84.36-2.1 1.61-1.92s1.36 1.27 1.41 2.14c.14-.22.28-.45.41-.69s.39-.65.62-1l.23-.32.24.31a7.4 7.4 0 0 1 1.43 4.65 6.7 6.7 0 0 1 4.76 1.23l.2.15-.12.23a2.85 2.85 0 0 1-1.31 1.17 2.73 2.73 0 0 1 1.57.72 1.6 1.6 0 0 1 .38 1.2v.16l-.14.08a5 5 0 0 1-2.08.55l.29.16 1.19.67.26.15-.15.27a4.21 4.21 0 0 1-3.78 1.86m-.31-.62a3.85 3.85 0 0 0 3.33-1.29l-.89-.51-1.19-.67-.87-.5 1.33-.08a6 6 0 0 0 2.36-.44.9.9 0 0 0-.23-.58 3.48 3.48 0 0 0-2.18-.63l-1-.05.87-.51c.19-.11.39-.21.58-.3a3.4 3.4 0 0 0 1.26-.87 6.14 6.14 0 0 0-4.42-.9l-.35.06v-.36a7.57 7.57 0 0 0-1.05-4.29c-.11.19-.23.38-.34.58a8.5 8.5 0 0 1-1 1.43l-.48.53v-1.14c0-1.08-.12-1.8-.93-2-.55-.08-.72.36-.9 1.43a5 5 0 0 1-.17.76l-.17.52-.35-.42a7.2 7.2 0 0 1-.81-1.32c-.08-.14-.15-.29-.23-.44-.1 0-.2.12-.37.4l-.14.19a4.87 4.87 0 0 0-.55 3.7l.09.42-.43-.06a6.38 6.38 0 0 0-4.63.92 3.36 3.36 0 0 0 1.27.84l.52.24.7.37-.77.19a7 7 0 0 1-.75.16 3.8 3.8 0 0 0-1.47.46c0 .22-.08.46-.1.7a5.7 5.7 0 0 0 2.2.4l1.26.08-.78.5c-.47.3-1 .57-1.46.84l-.63.34c1 1.34 3 1.44 4.43 1.08a5.7 5.7 0 0 0 2.14-1.53l.44-.43-.09-.2a3.4 3.4 0 0 1-.42-1.79 2 2 0 0 1 .76-1.35 2.13 2.13 0 0 1 1.52-.46 2.36 2.36 0 0 1 2.18 1.68v.11a3.4 3.4 0 0 1-.3 1.24 2.7 2.7 0 0 0-.25 1.07 4.28 4.28 0 0 0 3.47 1.86Z" class="cls-2"/><path id="path174" d="M175.85 440.83h-.12c-.67 0-1.35 0-2-.05h-1.06c-.45-.11-.62-.54-.76-.88a1.6 1.6 0 0 0-.22-.43l.38-.46a8.3 8.3 0 0 0 4.12.87h.93l-.75.57c-.1.08-.31.25-.42.36Zm-3.07-.69h.76a7.5 7.5 0 0 1-1-.31c.09.17.15.27.24.31" class="cls-2"/><path id="path176" d="m88 444-.1-.83a10 10 0 0 0-.68-2.62l-.13-.32.33-.09a10.8 10.8 0 0 1 2.46-.37h.48l-.19.44a21.3 21.3 0 0 1-1.72 3.1Zm-.09-3.35a11.6 11.6 0 0 1 .46 1.64 21 21 0 0 0 1-1.88 9.6 9.6 0 0 0-1.46.27Z" class="cls-2"/><path id="path178" d="m175.4 445.25-.55-.73a19.4 19.4 0 0 1-2.39-4l-.19-.44h1.47c.65 0 1.32.05 2 .05h.46l-.18.43a9.4 9.4 0 0 0-.61 3.69Zm-2.19-4.49a19.4 19.4 0 0 0 1.6 2.68 9 9 0 0 1 .48-2.61l-1.57-.05Z" class="cls-2"/><path id="path180" d="m106.7 446.35.14-.63c.22-1 .41-2 .59-2.94.14-.74.28-1.51.44-2.25l.23-1.12.35 1.09a33.4 33.4 0 0 1 1.09 5.2l.1.65-.52-.26a1.65 1.65 0 0 1-.79-1.54 5 5 0 0 0-.07-.53 16 16 0 0 0-.34 1.61v.15l-.14.07-.26.12-.23.09Zm1.33-3.47.27.18a1.2 1.2 0 0 1 .21.17c-.08-.45-.18-.9-.29-1.35-.07.34-.13.67-.22 1Z" class="cls-2"/><path id="path182" d="M129.93 446.93v-1.06a19.3 19.3 0 0 1 .72-3.85c.13-.51.26-1 .38-1.56h.59a27 27 0 0 1 1 5.42l.05 1-.59-.83a4.56 4.56 0 0 1-.68-1.95c0-.15 0-.31-.08-.46l-.06.27a5.4 5.4 0 0 1-.75 2.13Zm1.41-5 .15.3c0-.16-.07-.31-.11-.47a1 1 0 0 0-.04.24Z" class="cls-2"/><path id="path184" d="M153 447v-1.17a16.4 16.4 0 0 1 1.17-5.36l.4-1.07.18 1.13c.08.52.19 1 .29 1.56a16.3 16.3 0 0 1 .47 3.76v1.13l-.53-1a6.2 6.2 0 0 1-.56-1.86l-.06-.34a8 8 0 0 0-.23.78 5.7 5.7 0 0 1-.53 1.44Zm1.4-5.24c-.14.43-.26.84-.35 1.25a2 2 0 0 1 .17-.25l.3-.41v-.13Z" class="cls-2"/><path id="path186" d="M108.38 450.16a1.47 1.47 0 0 1-.85-.26 1.86 1.86 0 0 1-1-1.93 1.7 1.7 0 0 1 1.33-1.53 1.94 1.94 0 0 1 1.75.37 1.57 1.57 0 0 1 .56 1.37 1.8 1.8 0 0 1-.92 1.72 1.64 1.64 0 0 1-.87.26m0-3.19a1.3 1.3 0 0 0-.35 0 1.11 1.11 0 0 0-.86 1 1.25 1.25 0 0 0 .66 1.31 1 1 0 0 0 1.1 0 1.25 1.25 0 0 0 .63-1.17v-.07a1 1 0 0 0-.35-.88 1.4 1.4 0 0 0-.82-.16Z" class="cls-2"/><path id="path188" d="M84 450.13h-.17a2 2 0 0 1-1.4-.71 1.65 1.65 0 0 1-.38-1.23 1.88 1.88 0 0 1 .84-1.46l.15-.13.15-.14.09.19A9.3 9.3 0 0 1 84 450Zm-.88-3.13c-.38.35-.78.71-.73 1.22a1.3 1.3 0 0 0 .3 1 1.63 1.63 0 0 0 1 .58 9 9 0 0 0-.57-2.8" class="cls-2"/><path id="path190" d="M131.38 450.17h-.25a1.79 1.79 0 0 1-1.61-1.39 1.72 1.72 0 0 1 .69-2 2 2 0 0 1 1.57-.27 1.63 1.63 0 0 1 1.06.75 1.79 1.79 0 0 1 0 2 1.77 1.77 0 0 1-1.46.91m-.07-3.11a1.44 1.44 0 0 0-.77.22 1.15 1.15 0 0 0-.43 1.31 1.19 1.19 0 0 0 1.07.94 1.17 1.17 0 0 0 1.14-.6 1.19 1.19 0 0 0 0-1.34 1 1 0 0 0-.68-.47 1.2 1.2 0 0 0-.33-.06" class="cls-2"/><path id="path192" d="M154.46 450.18a1.4 1.4 0 0 1-.34 0 1.89 1.89 0 0 1-1.53-1.59 1.73 1.73 0 0 1 .91-1.88 1.91 1.91 0 0 1 2.42.53 2 2 0 0 1-.07 2.19 1.67 1.67 0 0 1-1.39.75m0-3.12a1.4 1.4 0 0 0-.65.15 1.12 1.12 0 0 0-.59 1.24 1.3 1.3 0 0 0 1 1.1 1.1 1.1 0 0 0 1.12-.5 1.4 1.4 0 0 0 .07-1.52 1.16 1.16 0 0 0-.98-.47Z" class="cls-2"/><path id="path194" d="M179.1 450.33v-.38a11.6 11.6 0 0 1 .65-3.42l.17-.44.33.33a2.6 2.6 0 0 0 .3.27 1.67 1.67 0 0 1 .79 1.23 2.19 2.19 0 0 1-1.89 2.35Zm1.09-3.17a11.4 11.4 0 0 0-.44 2.4 1.52 1.52 0 0 0 1-1.58c0-.33-.21-.53-.56-.82" class="cls-2"/><path id="path196" d="m88.46 449.57-.18-.55a5.9 5.9 0 0 1 1.59-.64l.3-.09a6.2 6.2 0 0 1-1.87-.66l-1-.6h1.16a27 27 0 0 1 5 .82l.31.07v.59c-.53.11-1.06.24-1.58.36a21.4 21.4 0 0 1-3.73.7m3.32-1.44.18.06-.55.27.6-.15.3-.07Z" class="cls-2"/><path id="path198" d="M105.56 449.3a17.7 17.7 0 0 1-3.57-.48c-.49-.1-1-.2-1.5-.28v-.59a26 26 0 0 1 5-.89l.92-.05-.71.59a3.4 3.4 0 0 1-1.43.6 7.7 7.7 0 0 1 1.43.53Zm-3.56-1.1h.14l.67.13-.47-.16.38-.15Z" class="cls-2"/><path id="path200" d="m110.29 449.68.63-.62a3 3 0 0 1 1.61-.72l.28-.07h-.08a5.4 5.4 0 0 1-1.82-.63l-1-.6h1.12a21 21 0 0 1 5.1.89l1.08.32-1.58.38a40 40 0 0 1-4.51.92Zm4.2-1.55-.47.3.85-.2Z" class="cls-2"/><path id="path202" d="m130 449.62-.9-.05a17.4 17.4 0 0 1-3.41-.63c-.59-.16-1.2-.31-1.81-.43v-.59a23.6 23.6 0 0 1 5.3-.86h1l-.82.56a4.4 4.4 0 0 1-1.76.62h-.19l.45.13a3.6 3.6 0 0 1 1.46.64Zm-4.73-1.42.57.15.65.17-.13-.1-.45-.34h.12Z" class="cls-2"/><path id="path204" d="m132.59 449.68.74-.61a4.33 4.33 0 0 1 2.27-.8l-.57-.11a6.7 6.7 0 0 1-1.67-.49l.13-.58a24.3 24.3 0 0 1 5.66.83v.59l-1.51.34a27 27 0 0 1-4.1.75Zm4.16-1.66.15.08.4.21.2-.05.21-.05Z" class="cls-2"/><path id="path206" d="m152.55 449.7-.76-.1c-1.21-.16-2.4-.44-3.55-.7l-1.74-.39v-.59l.71-.16a20.1 20.1 0 0 1 4.93-.67l.12.58a6.6 6.6 0 0 1-1.66.49l-.57.12a2.83 2.83 0 0 1 2 .83Zm-4.55-1.49.41.09.38-.2.16-.08Z" class="cls-2"/><path id="path208" d="m155.45 449.71.85-.65a4.6 4.6 0 0 1 1.77-.7l.38-.09h-.25a6.3 6.3 0 0 1-1.89-.57l.15-.57a25.2 25.2 0 0 1 5.3.75l.36.08v.59c-.6.12-1.22.26-1.82.4a30 30 0 0 1-3.78.69Zm4.75-1.58-.48.27.41-.09.44-.11Z" class="cls-2"/><path id="path210" d="m176.47 449.67-1.1-.1a29 29 0 0 1-4.23-.78l-1.11-.25V448a20 20 0 0 1 5.38-.86l.13.58a8.3 8.3 0 0 1-1.78.54l-.33.07a5.1 5.1 0 0 1 2.15.74Zm-5.1-1.44h.18l.45-.19Z" class="cls-2"/><path id="path212" d="M170.9 475.73h-82c-1.93 0-3.93 0-5.89-.09L83 475a9.8 9.8 0 0 1 2.94-.18h1.18c-.17-.32-.34-.65-.49-1l-.31-.61.1-.14c.4-.59.82-1.16 1.23-1.72a31 31 0 0 0-1.72-3l-.67-1.07-.09-.16.1-.15c.29-.48.59-.95.89-1.41.49-.78 1-1.58 1.47-2.4l-.29-.43a3 3 0 0 1-.72-2.2A2 2 0 0 0 86 459c-.15-.21-.31-.42-.44-.64a13.2 13.2 0 0 1-1.37-4.18 12.4 12.4 0 0 0-1.23-3.87l-.38-.66.73.22.51.13.45.11h.18v.18c.06.32.12.64.19 1a27.5 27.5 0 0 0 1.69 6.2 5.6 5.6 0 0 0 1.85 2.18l.22.17-.15.23-.24.36a4.4 4.4 0 0 0-.48.79 3.9 3.9 0 0 0 .58.93 4.8 4.8 0 0 1 .65 1v.23a15 15 0 0 1-1.42 2.36c-.33.48-.67 1-1 1.48.17.29.34.58.52.87a25.6 25.6 0 0 1 1.83 3.44l.07.18-.13.14-.33.33a6 6 0 0 0-.78.93c-.06.38.23.7.65 1.1l.06.06c10.77.06 23.5.1 36.3 0h27.18c4.92-.08 9.91-.08 14.75-.08h7.62c.75 0 1.3-.07 1.48-.58.3-.58-.1-1-.75-1.64l-.35-.34-.13-.14.07-.18a25 25 0 0 1 1.56-3.25l.2-.36a3 3 0 0 1 .14-.33c.13-.24.2-.4.13-.54a16.4 16.4 0 0 0-1.24-2.35c-.27-.46-.55-.94-.81-1.42l-.15-.3.31-.12a2.8 2.8 0 0 1 .6-.2h.21l.11.19c.48.87 1 1.79 1.4 2.68l.78 1.53.07.14-.07.13c-.25.53-.52 1.05-.79 1.57-.43.82-.86 1.67-1.25 2.53l.13.17a7.8 7.8 0 0 1 1 1.59v.06a2.11 2.11 0 0 1-.81 1.88h1.15a9.3 9.3 0 0 1 2.87.2l-.08.59c-2.92.02-5.95.03-8.96.03m-10.46-.62h14.52l.14-.17.27-.29a3.8 3.8 0 0 1-1.25.18h-7.63c-4.83 0-9.83 0-14.75.08h-27.17c-12.86.09-25.63.05-36.44 0H88l-.09-.09-.14-.14-.26-.26c.1.2.2.39.31.58v.09h72.57ZM87 459.47a2 2 0 0 1 .21 1.08q.15-.24.3-.45l.08-.11a7 7 0 0 1-.59-.52m-3.24-8.87c.09.2.17.39.24.59 0-.19-.07-.37-.11-.55Z" class="cls-2"/><path id="path214" d="m175.53 462.91-.22-.54a1.56 1.56 0 0 0 .65-1.11.83.83 0 0 0-.34-.71v-.05l-.21-.25-.22-.27-.18-.24.24-.18a5.1 5.1 0 0 0 1.69-2.05 25.4 25.4 0 0 0 1.81-6.54l.14-.78.17-.06.31-.09.37-.11.63-.25-.23.63a22.5 22.5 0 0 0-.82 3.28c-.44 2.2-.9 4.48-2.56 6.19a3.08 3.08 0 0 1-.16 2.87l-.07.12h-.14Zm.51-2.8a1.3 1.3 0 0 1 .25.27 2.6 2.6 0 0 0-.2-.54l-.07-.16-.2.17Z" class="cls-2"/><path id="path216" d="M114.32 462.67H88.83a1.16 1.16 0 0 1-1.15-.44 1.56 1.56 0 0 1-.21-1.59v-.07l.07-.05a4.53 4.53 0 0 1 3-.57h29.28c9.28 0 18.88.05 28.31 0h13.05c4.81 0 9.78.06 14.67 0h.32v.32a4 4 0 0 0 0 .46 1.75 1.75 0 0 1-.49 1.64h-.08a13.6 13.6 0 0 1-2.84.13h-18.11c-13.31.15-26.81.17-40.33.17M88.77 462h83.88a12.8 12.8 0 0 0 2.64-.1c.24-.23.24-.57.21-1.08a2 2 0 0 1 0-.21h-14.37c-4.28 0-8.7-.05-13 0h-28.32c-9.32 0-18.85-.05-28.26 0h-1a4.2 4.2 0 0 0-2.53.42 1 1 0 0 0 .17.88.56.56 0 0 0 .58.23Z" class="cls-2"/><path id="path218" d="M130.48 472.18H91.37c-.88 0-1.8 0-2.72-.06h-.7l.51-.48a21.6 21.6 0 0 1 4-2.73c.84-.48 1.7-1 2.5-1.54-.94-.55-1.9-1.09-2.83-1.61-1.12-.63-2.28-1.28-3.4-1.95l-.12-.07v-.13a2 2 0 0 1 0-.34v-.29l-.08-.37h34.23c2.91 0 5.92-.06 8.9 0h.93l-.76.53c-1.27.88-2.62 1.66-3.94 2.41-.93.53-1.89 1.08-2.81 1.66 1.14.83 2.37 1.56 3.56 2.27 1 .57 1.94 1.15 2.88 1.79h.07v.07l.07.16v.12l.16.31-.33.11a3.1 3.1 0 0 1-1.01.14m-.2-.61a2 2 0 0 0 .6 0c-.86-.56-1.75-1.09-2.62-1.61a41 41 0 0 1-4-2.57l-.34-.26.36-.23c1-.68 2.15-1.31 3.21-1.92s2.08-1.19 3.09-1.84h-41.4v.14c1.08.64 2.19 1.27 3.27 1.87s2 1.11 3 1.69l.15.09v.17a.4.4 0 0 0 0 .1.9.9 0 0 1 0 .24v.15l-.13.09c-.86.62-1.8 1.16-2.71 1.69a24 24 0 0 0-3.32 2.15h40.8Z" class="cls-2"/><path id="path220" d="M132.91 472.18a3.3 3.3 0 0 1-1.23-.18l-.26-.1.09-.27a1.35 1.35 0 0 1 .69-.72l.21-.13 2.42-1.5c1.24-.76 2.51-1.54 3.76-2.33-.85-.49-1.73-1-2.58-1.42-1.39-.76-2.84-1.54-4.2-2.42l-.85-.55h1c14.09-.06 28.39-.06 42.51 0h1l-.8.55c-1.19.81-2.43 1.54-3.64 2.24-.93.54-1.9 1.11-2.82 1.7 1 .66 2 1.29 3 1.9s1.83 1.11 2.73 1.69a2 2 0 0 1 .69.8l.12.2.3.46h-.55c-9.16.11-18.49.1-27.51.09h-14.1Zm-.58-.64a5 5 0 0 0 .76 0H147c8.85 0 18 0 27-.09a1 1 0 0 0-.34-.34c-.91-.59-1.83-1.15-2.72-1.7-1.08-.65-2.18-1.32-3.26-2l-.19-.13.07-.22c.07-.19.11-.31.14-.38v-.07h.07c1-.63 2-1.21 2.92-1.77s1.86-1.09 2.78-1.68c-13.45-.05-27.05-.05-40.47 0 1.08.66 2.19 1.26 3.28 1.84.91.5 1.85 1 2.76 1.54l.15.09v.17a2 2 0 0 1 0 .21v.32l-.14.09c-1.29.82-2.61 1.63-3.89 2.42l-2.41 1.48a2 2 0 0 1-.23.15Z" class="cls-2"/><path id="path222" d="M131.67 471.37a1.9 1.9 0 0 1-1-.4l-.22-.14c-.75-.48-1.51-.95-2.25-1.39-1-.63-2.09-1.27-3.1-2l-.34-.24.33-.25a37 37 0 0 1 4.14-2.57c.78-.44 1.58-.9 2.36-1.38l.14-.09.16.08c2.31 1.23 4.36 2.37 6.27 3.49l.15.09v.73l-.13.09c-1.29.85-2.62 1.67-3.91 2.47-.69.42-1.37.84-2 1.27a.88.88 0 0 1-.6.24m-5.86-4.16c.89.6 1.82 1.16 2.72 1.71.74.45 1.51.91 2.25 1.4a2 2 0 0 1 .24.15c.46.3.66.37.85.21l2.06-1.29c1.24-.76 2.52-1.55 3.76-2.37v-.06a177 177 0 0 0-5.95-3.3c-.74.45-1.5.88-2.24 1.29a42 42 0 0 0-3.69 2.26" class="cls-2"/><path id="path224" d="M98.91 466.87h-.17a1.7 1.7 0 0 1-1.64-1.46 1.72 1.72 0 0 1 1.15-1.87 1.73 1.73 0 0 1 1.83.46 1.64 1.64 0 0 1 .41 1.73 1.57 1.57 0 0 1-1.58 1.14m-.44-2.76a1.12 1.12 0 0 0-.78 1.19 1.1 1.1 0 0 0 1.09.92 1 1 0 0 0 1.13-.69 1 1 0 0 0-.27-1.11 1.14 1.14 0 0 0-1.17-.31" class="cls-2"/><path id="path226" d="M142.54 466.87a1.72 1.72 0 0 1-1.49-.81 1.44 1.44 0 0 1-.3-1.22 2 2 0 0 1 1.05-1.32 1.74 1.74 0 0 1 2 .43 1.75 1.75 0 0 1-1.05 2.9Zm-.48-2.8a1.34 1.34 0 0 0-.71.89.81.81 0 0 0 .18.72v.05a1.16 1.16 0 0 0 1.13.52 1 1 0 0 0 .86-.67v-.05a1 1 0 0 0-.2-1.16 1.18 1.18 0 0 0-1.26-.3" class="cls-2"/><path id="path228" d="M164.21 466.57a1.72 1.72 0 0 1-1.46-.75 1.44 1.44 0 0 1-.3-1.16 1.78 1.78 0 0 1 2.73-1.18 1.68 1.68 0 0 1-.49 3 2 2 0 0 1-.48.09m-.06-2.79a.92.92 0 0 0-.58.19 1.08 1.08 0 0 0-.49.76.85.85 0 0 0 .17.69 1.18 1.18 0 0 0 1.29.45 1 1 0 0 0 .78-.86V465a1 1 0 0 0-.48-1 1.3 1.3 0 0 0-.69-.22" class="cls-2"/><path id="path230" d="m174.59 471.25-.29-.15c-1.33-.81-2.66-1.65-3.94-2.47l-2-1.25-.31-.2.25-.26a4.9 4.9 0 0 1 1.47-1.12l2.24-1.34c.73-.45 1.5-.91 2.26-1.35l.26-.15.26.45a6 6 0 0 0 .39.66l.19.27-.29.17c-.68.4-1.39.79-2.07 1.16s-1.56.86-2.33 1.32c.75.49 1.53 1 2.28 1.43s1.39.85 2.08 1.29l.24.16-.15.25c-.11.19-.31.6-.43.83Zm-5.59-4.18 1.64 1.05c1.19.76 2.42 1.54 3.65 2.3.06-.12.13-.24.18-.35-.6-.39-1.22-.77-1.82-1.14-.89-.54-1.82-1.1-2.7-1.71l-.38-.26.39-.25c.91-.56 1.85-1.07 2.76-1.57.59-.32 1.19-.65 1.79-1l-.21-.35-2 1.19c-.74.44-1.5.91-2.26 1.35a4.3 4.3 0 0 0-1.04.74" class="cls-2"/><path id="path232" d="m88.78 471.35-.67-.18v-.52a2.5 2.5 0 0 1 0-.35v-.15l.11-.09a21 21 0 0 1 2.38-1.58c.59-.36 1.21-.73 1.79-1.15a.32.32 0 0 0-.21-.16h-.06c-.51-.32-1-.62-1.56-.91a18.6 18.6 0 0 1-2.3-1.43l-.15-.11v-.18a5 5 0 0 0 .06-.61v-.44l.41.15a28 28 0 0 1 4.25 2.23c.66.4 1.34.81 2 1.18l.41.22-.38.29a66 66 0 0 1-6 3.77Zm-.09-.65c1.82-1.06 3.68-2.15 5.41-3.39-.55-.31-1.09-.64-1.62-1a30.5 30.5 0 0 0-3.78-2 .3.3 0 0 1 0 .09 22 22 0 0 0 2.1 1.29c.51.28 1 .58 1.55.91a.94.94 0 0 1 .63.81v.18l-.14.1c-.64.48-1.33.89-2 1.3a21 21 0 0 0-2.19 1.44s0 .09 0 .14.04.09.04.13" class="cls-2"/><path id="path234" d="M104.4 470.76c-.79 0-1.5-.55-2.1-1.65a4.05 4.05 0 0 1-.21-3.29 3.25 3.25 0 0 1 1.92-1.95h.09c2-.08 4.12-.07 6.13-.05h4.28a3 3 0 0 1 2.58 1.24 3.73 3.73 0 0 1 .61 3.32 3.31 3.31 0 0 1-2 2.33h-.09c-3 .08-6 .07-8.86.07h-2.35Zm-.23-6.3a2.63 2.63 0 0 0-1.51 1.58 3.45 3.45 0 0 0 .17 2.78c.52 1 1.08 1.39 1.71 1.33h2.22c2.88 0 5.86 0 8.79-.06a2.68 2.68 0 0 0 1.56-1.9 3.1 3.1 0 0 0-.49-2.78 2.44 2.44 0 0 0-2.08-1h-4.32c-1.99-.02-4.04-.04-6.05.05" class="cls-2"/><path id="path236" d="M120.62 467.16a1.2 1.2 0 0 1-.33 0 1.53 1.53 0 0 1-1.43-1.26 1.77 1.77 0 0 1 .82-2 1.93 1.93 0 0 1 2.21.62 1.66 1.66 0 0 1 0 1.93 1.62 1.62 0 0 1-1.27.71m-.7-2.78a1.19 1.19 0 0 0-.47 1.34.94.94 0 0 0 .88.8h.07a1 1 0 0 0 1.06-.49 1.07 1.07 0 0 0 0-1.24 1.32 1.32 0 0 0-1.54-.41" class="cls-2"/><path id="path238" d="M164.23 466.22a1.34 1.34 0 0 1-1.23-.73 1.09 1.09 0 0 1-.14-.92 1.27 1.27 0 0 1 .67-.83 1.34 1.34 0 1 1 .8 2.48Zm-.07-2.07a.5.5 0 0 0-.29.09h-.06a.7.7 0 0 0-.37.45.48.48 0 0 0 .07.43.76.76 0 0 0 .75.4.68.68 0 0 0 .62-.45.66.66 0 0 0-.26-.78.84.84 0 0 0-.46-.14" class="cls-2"/><path id="path240" d="M98.92 466.56a1.2 1.2 0 0 1-.41-.08 1.61 1.61 0 0 1-1.05-1.35 1.12 1.12 0 0 1 .69-1.08 1.24 1.24 0 0 1 1.72.28 1.33 1.33 0 0 1-.08 1.83 1.17 1.17 0 0 1-.87.4m-.07-2.14a.64.64 0 0 0-.37.13.51.51 0 0 0-.36.52 1 1 0 0 0 .64.81.55.55 0 0 0 .64-.17.72.72 0 0 0 0-1 .75.75 0 0 0-.55-.29" class="cls-2"/><path id="path242" d="M142.58 466.53a1.2 1.2 0 0 1-.63-.19c-.71-.24-.71-.94-.72-1.4a3 3 0 0 0 0-.43v-.25l.24-.09.29-.11c.49-.21 1.17-.5 1.7 0a1.42 1.42 0 0 1 .12 1.93 1.15 1.15 0 0 1-1 .54m-.75-1.87a2 2 0 0 1 0 .27c0 .53 0 .76.33.84h.08a.52.52 0 0 0 .78-.15.84.84 0 0 0 0-1.11c-.23-.23-.57-.11-1.06.1Z" class="cls-2"/><path id="path244" d="M149 470.79a11 11 0 0 1-1.91-.13h-.14a4.11 4.11 0 0 1-1.77-3.55 3.39 3.39 0 0 1 1.72-2.92 3.53 3.53 0 0 1 1.88-.35h9.34a2.9 2.9 0 0 1 2.3 1.24 3.62 3.62 0 0 1 .6 3.15c-.32 1.33-1.28 2.62-2.69 2.51H149Zm-1.74-.72a14 14 0 0 0 2.44.11h1.17c1.25-.05 2.54 0 3.78 0h3.77c1.21.11 1.87-1.25 2.07-2.07a3 3 0 0 0-.51-2.63 2.24 2.24 0 0 0-1.86-1h-9.36a2.8 2.8 0 0 0-1.56.26 2.8 2.8 0 0 0-1.41 2.42 3.5 3.5 0 0 0 1.43 2.91Z" class="cls-2"/><path id="path246" d="M109.28 470.4h-5.06a3.36 3.36 0 0 1-1.9-3.35 2.82 2.82 0 0 1 2-2.7h.05a46 46 0 0 1 5.13-.12h3.98c1.15 0 2.45 0 3.29 1a3.24 3.24 0 0 1 .67 2.94 3 3 0 0 1-1.83 2.22h-.06c-2.11-.01-4.15.01-6.27.01m-5-.64c4 .06 7.6.05 11.08 0a2.51 2.51 0 0 0 1.41-1.78 2.66 2.66 0 0 0-.55-2.41c-.66-.82-1.76-.8-2.82-.78h-4a45 45 0 0 0-5 .11 2.19 2.19 0 0 0-1.55 2.14 2.78 2.78 0 0 0 1.44 2.72Z" class="cls-2"/><path id="path248" d="M120.65 466.81a1.57 1.57 0 0 1-1.06-.4 1.19 1.19 0 0 1-.41-1 1.15 1.15 0 0 1 .55-1.16 1.41 1.41 0 0 1 1.53 0v.05l.22.29c.15.21.3.42.43.63l.1.18-.12.16-.21.32a2.2 2.2 0 0 1-.72.81 1.3 1.3 0 0 1-.31.12m-.13-2.16a.86.86 0 0 0-.46.14.55.55 0 0 0-.28.58v.08a.63.63 0 0 0 .21.51 1 1 0 0 0 .77.24 2.2 2.2 0 0 0 .48-.59l.12-.19c-.09-.14-.2-.28-.3-.42l-.19-.26a.7.7 0 0 0-.35-.09" class="cls-2"/><path id="path250" d="m131.74 470.23-.15-.09-1.56-.85c-.94-.51-1.91-1-2.84-1.61l-.14-.09v-.16a2 2 0 0 1 0-.21 1 1 0 0 0 0-.13v-.17l.62-.37c1.2-.73 2.44-1.47 3.68-2.14l.12-.07.12.05a25 25 0 0 1 3.3 1.49l1.33.67h.1v.09a3 3 0 0 1 .14.38l.08.22-.2.13c-.75.47-1.52.92-2.27 1.36s-1.51.9-2.24 1.36Zm-4.07-3c.86.52 1.77 1 2.65 1.49l1.41.76c.69-.43 1.41-.86 2.11-1.27s1.36-.8 2-1.22l-1.23-.61a25 25 0 0 0-3.09-1.42c-1.18.65-2.38 1.37-3.54 2.06Z" class="cls-2"/><path id="path252" d="M152.41 470.43h-4.34c-1 .05-1.86-.72-2.4-2.19a3.18 3.18 0 0 1 1.82-3.9h.06a33.4 33.4 0 0 1 4.89-.15h4.02a5.7 5.7 0 0 1 2.95.44 3.11 3.11 0 0 1 1.36 2.87 3.28 3.28 0 0 1-1.67 2.81h-.1c-2.2.1-4.41.12-6.59.12m-4.17-.61h2c2.83 0 5.75 0 8.62-.12a2.69 2.69 0 0 0 1.29-2.27 2.52 2.52 0 0 0-1.06-2.32 5.2 5.2 0 0 0-2.63-.35h-4.05a35 35 0 0 0-4.77.15 2.55 2.55 0 0 0-1.42 3.11c.25.68.8 1.8 1.75 1.8h.25Z" class="cls-2"/><path id="path254" d="m175.06 469.82-.14-.06a17.4 17.4 0 0 1-3.6-2.12l-.55-.39-.36-.25.37-.25a31 31 0 0 1 4.43-2.44l.24-.11.14.22a23 23 0 0 1 1.29 2.39l.07.15-.09.14c-.15.26-.28.55-.42.86a3.55 3.55 0 0 1-1.25 1.78Zm-3.57-2.82.18.13a17 17 0 0 0 3.33 2 3.46 3.46 0 0 0 .89-1.42 8 8 0 0 1 .37-.79 20 20 0 0 0-1-2 30.5 30.5 0 0 0-3.77 2.08" class="cls-2"/><path id="path256" d="m88.09 470.29-.17-.17a12 12 0 0 1-1.72-2.53l-.17-.28.09-.15c.42-.77.93-1.58 1.49-2.42l.15-.21.23.11a31.4 31.4 0 0 1 4.25 2.36l.31.21-.27.26a15.7 15.7 0 0 1-2.85 2l-1.13.68Zm-1.36-3a12.7 12.7 0 0 0 1.46 2.22c.31-.2.62-.38.93-.56a17 17 0 0 0 2.45-1.65 28 28 0 0 0-3.6-2c-.46.7-.88 1.36-1.24 2Z" class="cls-2"/><path id="path258" d="M110.1 469.54h-4.36a2.45 2.45 0 0 1-2.5-1.93 2.37 2.37 0 0 1 1.65-2.53h.11c1.83-.15 3.69-.12 5.5-.09 1.12 0 2.28.05 3.42 0a2.9 2.9 0 0 1 2.09.74 2.1 2.1 0 0 1 .7 1.53 2.23 2.23 0 0 1-.66 1.66 2 2 0 0 1-1.54.61c-1.51 0-2.95.01-4.41.01m-4.38-.63h8.77a1.39 1.39 0 0 0 1.09-.44 1.58 1.58 0 0 0 .48-1.21 1.48 1.48 0 0 0-.51-1.11 2.2 2.2 0 0 0-1.64-.57h-3.46c-1.78 0-3.62-.07-5.4.08a1.77 1.77 0 0 0-1.22 1.82 1.86 1.86 0 0 0 1.89 1.43" class="cls-2"/><path id="path260" d="m131.75 469.79-.14-.06a21 21 0 0 1-3.92-2.21l-.35-.25.35-.24a29 29 0 0 1 3.67-2.2l.1-.06h.11a16.1 16.1 0 0 1 4.16 1.94l.37.22-.33.28a25 25 0 0 1-3.89 2.48Zm-3.36-2.51a21 21 0 0 0 3.33 1.83 26 26 0 0 0 3.33-2.07 14.4 14.4 0 0 0-3.52-1.62 29 29 0 0 0-3.14 1.86" class="cls-2"/><path id="path262" d="M158 465.64h-9.56v-.6c2.74-.19 5.54-.1 8.24 0h1.35Z" class="cls-2"/><path id="path264" d="M157.32 469.55h-8.81a2.15 2.15 0 0 1-1.59-2.15 2.23 2.23 0 0 1 1.51-2.3h9.65a2.27 2.27 0 0 1 1.79 1.48 2.11 2.11 0 0 1-.3 2.16 2.5 2.5 0 0 1-2.25.81m-.73-.61h.41c.86 0 1.67 0 2.13-.63a1.52 1.52 0 0 0 .22-1.57 1.72 1.72 0 0 0-1.29-1.1h-9.5a1.68 1.68 0 0 0-1 1.69 1.6 1.6 0 0 0 1.1 1.58c1.52.07 3.07.06 4.57.05h3.44Z" class="cls-2"/><path id="path266" d="M114.36 469.19H111c-1.83 0-3.74 0-5.61-.06a1.84 1.84 0 0 1-1.71-1.64 1.71 1.71 0 0 1 1.1-1.94 5 5 0 0 1 2-.24h6.83c1.37.05 2.21.51 2.49 1.39a1.75 1.75 0 0 1-.27 1.68 1.91 1.91 0 0 1-1.47.81m-8-3.29a3.5 3.5 0 0 0-1.33.2 1.11 1.11 0 0 0-.71 1.28 1.22 1.22 0 0 0 1.13 1.12c1.86.08 3.76.07 5.59.06h3.21a1.27 1.27 0 0 0 1.13-.52 1.16 1.16 0 0 0 .19-1.12c-.2-.62-.85-.95-1.94-1h-7.26Z" class="cls-2"/><path id="path268" d="M151.34 469.19c-.87 0-1.75 0-2.62-.07a1.79 1.79 0 0 1-1.39-1.68 1.87 1.87 0 0 1 1.08-1.94 2.5 2.5 0 0 1 1.12-.18h7.42a2.7 2.7 0 0 1 2.47 1.09 1.89 1.89 0 0 1-.5 2.26 3.9 3.9 0 0 1-2.31.45H153Zm-2.56-.67c1.39.08 2.82.07 4.2.05h3.62a3.36 3.36 0 0 0 2-.35 1.32 1.32 0 0 0 .28-1.53c-.34-.61-1.17-.73-1.94-.76h-7.41a1.8 1.8 0 0 0-.86.11 1.28 1.28 0 0 0-.72 1.34 1.22 1.22 0 0 0 .83 1.14" class="cls-2"/><path id="path270" d="M142.52 470.44a1.63 1.63 0 0 1-1.46-.81v-.05a2 2 0 0 1 .75-2.39 1.88 1.88 0 0 1 1.87.28 1.63 1.63 0 0 1 .64 1.56 1.65 1.65 0 0 1-1.4 1.38 1.8 1.8 0 0 1-.4.03m-.92-1.08a1.13 1.13 0 0 0 1.21.45 1.06 1.06 0 0 0 .91-.88 1 1 0 0 0-.42-1 1.26 1.26 0 0 0-1.24-.21 1.36 1.36 0 0 0-.46 1.64" class="cls-2"/><path id="path272" d="M164.27 470.44a1.64 1.64 0 0 1-1.26-.57 1.73 1.73 0 0 1-.46-1.56 1.69 1.69 0 0 1 1-1.28 1.61 1.61 0 0 1 2 .34 1.69 1.69 0 0 1 .38 2 1.66 1.66 0 0 1-1.29 1 1.6 1.6 0 0 1-.37.07m0-3a.9.9 0 0 0-.46.13 1.07 1.07 0 0 0-.63.83 1.1 1.1 0 0 0 .3 1 1 1 0 0 0 1 .35 1.07 1.07 0 0 0 .83-.65v-.05a1.1 1.1 0 0 0-.26-1.33 1.24 1.24 0 0 0-.78-.29Z" class="cls-2"/><path id="path276" d="M98.39 470.75a2.6 2.6 0 0 1-.4 0h-.09l-.07-.07a2.5 2.5 0 0 1-.8-2.09 1.45 1.45 0 0 1 .85-1.14 1.58 1.58 0 0 1 1.86.07 1.68 1.68 0 0 1 .7 1.83 1.92 1.92 0 0 1-2.05 1.4m-.22-.62c.73.07 1.54-.19 1.68-.95a1.1 1.1 0 0 0-.47-1.18 1 1 0 0 0-1.18-.06.9.9 0 0 0-.54.7 1.9 1.9 0 0 0 .51 1.49" class="cls-2"/><path id="path278" d="M120.29 470.75a1.62 1.62 0 0 1-1.42-.91 1.56 1.56 0 0 1 .27-1.9 1.59 1.59 0 0 1 1.6-.54 2.21 2.21 0 0 1 1.58 1.59v.12l-.07.11-.18.3c-.3.53-.69 1.24-1.54 1.2Zm.07-2.79a1 1 0 0 0-.77.38 1 1 0 0 0-.15 1.18 1 1 0 0 0 1.06.57h.09c.45 0 .69-.32 1-.89l.13-.22a1.65 1.65 0 0 0-1.09-1 1 1 0 0 0-.27.02Z" class="cls-2"/><path id="path280" d="M164.27 470.09a1.08 1.08 0 0 1-.74-.3 1.4 1.4 0 0 1-.57-1.44 1.16 1.16 0 0 1 1-1c.92-.12 1.52.19 1.63.82a1.51 1.51 0 0 1-.62 1.71 1.16 1.16 0 0 1-.7.21m-.27-2.15c-.33.05-.42.41-.44.52a.78.78 0 0 0 .3.82l.07.05a.48.48 0 0 0 .66 0 .89.89 0 0 0 .39-1v-.08c-.08-.36-.65-.36-.98-.31" class="cls-2"/><path id="path282" d="M142.59 470.08h-.2a1.32 1.32 0 0 1-.4-2.48 1.23 1.23 0 0 1 1.56.29 1.16 1.16 0 0 1 .21 1.52 1.28 1.28 0 0 1-1.17.67m0-2.06a.4.4 0 0 0-.23.08.66.66 0 0 0-.41.8v.06a.63.63 0 0 0 .57.49.72.72 0 0 0 .76-.36v-.05a.6.6 0 0 0-.14-.76.86.86 0 0 0-.59-.28Z" class="cls-2"/><path id="path284" d="m98.41 470.59-.16-.18a3 3 0 0 0-.23-.25 1.46 1.46 0 0 1-.59-1.45 1 1 0 0 1 .28-.71 2.2 2.2 0 0 1 1.57-.37h.42l.07.2c.14.43.26.81.34 1.15v.12c-.12.72-.72 1-1.2 1.23l-.28.14Zm.63-2.35a1.4 1.4 0 0 0-.9.19.42.42 0 0 0-.11.33v.05c-.1.32.1.54.44.89l.1.1h.1c.47-.22.77-.38.85-.72s-.14-.53-.24-.83Z" class="cls-2"/><path id="path286" d="M120.36 470.36a1 1 0 0 1-.45-.11 1.12 1.12 0 0 1-.8-1.08 1.29 1.29 0 0 1 .77-1.29 1.1 1.1 0 0 1 1.19.08 2 2 0 0 0 .35.14h.24v1.9l-.22.07a2 2 0 0 0-.32.12 1.8 1.8 0 0 1-.76.17m0-2a.27.27 0 0 0-.15.05.68.68 0 0 0-.4.7.52.52 0 0 0 .37.53c.18.11.38 0 .69-.12l.19-.08v-.9l-.25-.11a1.2 1.2 0 0 0-.45-.09Z" class="cls-2"/><path id="path288" d="M88.9 474.67a1.72 1.72 0 0 1-1.23-.53 1.23 1.23 0 0 1-.29-1.11c.1-.84 1-.93 1.53-1h.16c13.38 0 27-.06 40.1-.07 9.88 0 20.08 0 30.13-.05h16.33l.07.26a2.34 2.34 0 0 1 0 1.78 1 1 0 0 1-.7.4c-1.69.07-3.39.07-5 .06-1.91 0-3.87 0-5.8.09h-60.84c-3.79.07-7.65.06-11.38.06h-3Zm.19-2H89c-.64.07-1 .16-1 .47v.05a.61.61 0 0 0 .15.57 1.09 1.09 0 0 0 .94.32h2.88c3.73 0 7.58 0 11.38-.06h60.82c1.93-.11 3.91-.1 5.82-.1 1.63 0 3.31 0 5-.05a.32.32 0 0 0 .25-.14c.16-.23.06-.74 0-1.11-3-.06-6-.05-9 0h-37.02c-13.22-.06-26.76-.04-40.13.01Z" class="cls-2"/><path id="path290" d="M108.05 475c-7 0-13.8 0-19.92-.06v-.61c12.08.06 24.34.06 36.42 0v.61c-5.55.06-11.11.06-16.5.06" class="cls-2"/><path id="path292" d="m131.85 589.22-.93-1.12a15 15 0 0 0-1.36-1.54 16.4 16.4 0 0 0-5-3.14 23.4 23.4 0 0 0-6.25-1.23l-.85-.1a77 77 0 0 1-15.52-3.29A69.7 69.7 0 0 1 91 574.28h-.06a53 53 0 0 1-4.66-4.71l-.06-.08a24.7 24.7 0 0 1-3.53-8.5v-.11c-.16-18.32-.17-35.55-.19-53.79v-32.33h.63c1.94.1 3.92.09 5.84.08h76.8c4.67 0 9.49 0 14.23-.06h.62v.63c-.08 15.54-.07 31.35-.06 46.64v30.25c0 1.94 0 3.94-.09 5.92v.09a12.2 12.2 0 0 0-.2 2.54v.1c-.06.3-.1.61-.15.92a12.2 12.2 0 0 1-1.29 4.43v.06l-.07.08a19.4 19.4 0 0 1-3.14 4.3c-.54.62-1.06 1.2-1.51 1.79-2 2.18-4.7 3.41-7.3 4.6l-1.47.68h-.1a20 20 0 0 0-2.21.79c-.42.17-.85.34-1.29.5h-.08c-1.09.23-2.19.55-3.25.87-.88.26-1.8.54-2.72.76a59 59 0 0 1-12.2 1.74h-.07a13.2 13.2 0 0 0-3.82.45l-1 .23a11.12 11.12 0 0 0-5.83 4.3v.06c-.1.22-.27.59-.29.67Zm-40.19-16a67.7 67.7 0 0 0 10.64 4.41 75.7 75.7 0 0 0 15.27 3.24l.86.09a25.3 25.3 0 0 1 6.57 1.31 18.1 18.1 0 0 1 5.39 3.38 13 13 0 0 1 1.08 1.19l.12-.22a.87.87 0 0 1 .35-.38A12.7 12.7 0 0 1 138 582h.09l1.06-.23a14.2 14.2 0 0 1 4.15-.48 57.5 57.5 0 0 0 11.91-1.71c.9-.21 1.8-.48 2.67-.74 1.07-.32 2.17-.65 3.3-.89.4-.14.81-.31 1.21-.46a22 22 0 0 1 2.28-.82l1.44-.67c2.49-1.13 5.06-2.31 6.91-4.3.47-.62 1-1.21 1.54-1.83a18 18 0 0 0 3-4.12l.05-.09.11-.11a11.7 11.7 0 0 0 1.09-3.94l.15-.89a14 14 0 0 1 .21-2.69c.13-1.93.11-3.89.09-5.79v-30.26c0-15.09 0-30.69.06-46-4.56.08-9.17.07-13.64 0H88.9c-1.73 0-3.5 0-5.27-.05 0 10.63 0 21 .05 31.05 0 18.22 0 35.43.19 53.73a23.4 23.4 0 0 0 3.33 8 50 50 0 0 0 4.46 4.53Z" class="cls-2"/><path id="path294" d="M100.28 517.2H100a1.63 1.63 0 0 1-1.52-.68l-.06-.1v-.12c-.42-2.89-.88-5.82-1.32-8.65-.82-5.28-1.67-10.75-2.34-16.15l-.08-.61.62-.06a4.1 4.1 0 0 1 4.41 2.53 4.5 4.5 0 0 1 .18 2.55 4.1 4.1 0 0 1 2.34.6 4.06 4.06 0 0 1 .92 6.26 4.6 4.6 0 0 1-3.44 1.42 2.59 2.59 0 0 0 2 1.85 2.75 2.75 0 0 0 2.82-1.73l.48-1.1.6 1c.61 1 1.72 2.05 3 1.76a2.2 2.2 0 0 0 1.49-.88 3.7 3.7 0 0 0 .67-1.78 4.5 4.5 0 0 1-1.45.58 4.15 4.15 0 0 1-4.68-2.85 4 4 0 0 1 1.37-4.48 4.63 4.63 0 0 1 2.42-.83 4.2 4.2 0 0 1 .05-2.24 4 4 0 0 1 2-2.41 4.13 4.13 0 0 1 6 3.34 8 8 0 0 1-.09 1.45 4 4 0 0 1 1.7 6.86 4 4 0 0 1-3.19 1.23 4.4 4.4 0 0 1-1.72-.59 2.8 2.8 0 0 0 .64 1.86 2.72 2.72 0 0 0 3.6.16 5 5 0 0 0 .5-.85l.25-.47.49-.87.54.84a6.6 6.6 0 0 0 1.42 1.69 2.62 2.62 0 0 0 2.55-.15 2.37 2.37 0 0 0 1.11-1.4 4.7 4.7 0 0 1-3.92-2.58v-.08a4.17 4.17 0 0 1 3.6-5.69 6.6 6.6 0 0 1 .15-2.68v-.13a4.33 4.33 0 0 1 4.34-2.26l.56.09-.05.56c-.21 2.27-.58 4.55-.94 6.76-.27 1.65-.55 3.35-.75 5-.35 2-.63 4-.89 6-.34 2.44-.68 5-1.17 7.42l-.1.48H100.3Zm-.68-1.27a1.3 1.3 0 0 0 .45.05h24.29c.43-2.27.75-4.6 1.06-6.86.27-2 .54-4 .9-6 .21-1.7.48-3.41.75-5.07.33-2 .66-4 .87-6a3.21 3.21 0 0 0-2.49 1.64 7 7 0 0 0 0 2.74l.07.64h-.64a3.67 3.67 0 0 0-2.39.8 3.12 3.12 0 0 0-.72 3.3 3.64 3.64 0 0 0 3.46 1.86h.63v.63a3.54 3.54 0 0 1-1.77 3.05 3.86 3.86 0 0 1-3.79.16h-.07a5.5 5.5 0 0 1-1.21-1.27 4 4 0 0 1-.46.67l-.07.08a3.94 3.94 0 0 1-5.31-.23 4.5 4.5 0 0 1-1-3.23 4.9 4.9 0 0 1-.94 3 3.36 3.36 0 0 1-2.27 1.33 3.86 3.86 0 0 1-3.74-1.53 3.8 3.8 0 0 1-3.61 1.57c-1.56-.16-2.79-1.49-3.29-3.58l-.21-.86.88.12a3.79 3.79 0 0 0 3.31-1 2.68 2.68 0 0 0 .7-2.31 2.72 2.72 0 0 0-1.35-2.05h-.05a3.8 3.8 0 0 0-2.38-.38l-.77.05.15-.88a4.2 4.2 0 0 0 0-2.49v-.08a2.73 2.73 0 0 0-2.54-1.8c.66 5.16 1.47 10.38 2.26 15.43.43 2.8.87 5.67 1.29 8.5m12.5-14.64.93.52.44.26a4.55 4.55 0 0 0 1.72.73 2.8 2.8 0 0 0 2.2-.86v-.05a3 3 0 0 0 .4-3.69 3.58 3.58 0 0 0-2.11-1.3l-.49-.16.07-.51a9 9 0 0 0 .15-1.73 2.73 2.73 0 0 0-2.01-2.5h-.05a2.7 2.7 0 0 0-2.12.2 2.8 2.8 0 0 0-1.45 1.7 3.9 3.9 0 0 0 .14 2.22l.17.66-.68.09-.41.05a3.9 3.9 0 0 0-2.07.61 2.84 2.84 0 0 0-1 3.11v.07a2.94 2.94 0 0 0 3.3 2 4.4 4.4 0 0 0 1.51-.71c.15-.09.29-.19.44-.27l.78-.47.12.91a4 4 0 0 1 0 .51Z" class="cls-2"/><path id="path296" d="M155.07 517.18h-14a25 25 0 0 1-3-.07h-.47l-.07-.47c-.23-1.5-.45-3-.67-4.5-.57-3.78-1.15-7.69-1.81-11.52-.16-1.32-.36-2.63-.57-3.9-.27-1.7-.55-3.45-.7-5.2l-.06-.59.59-.06a4.31 4.31 0 0 1 4.29 2.14 4.2 4.2 0 0 1 .44 2.91 3.84 3.84 0 0 1 3 1.22 4.16 4.16 0 0 1-.72 6.39 4.22 4.22 0 0 1-2.6.67 2.63 2.63 0 0 0 1.58 1.78 2.5 2.5 0 0 0 2.33-.43 8.6 8.6 0 0 0 .92-1.06l.64-.79.47.58c.12.14.23.29.35.44.51.67 1 1.31 1.68 1.36h.06a2.4 2.4 0 0 0 2.59-1.09l.05-.09a2.5 2.5 0 0 0 .38-1.39 3.2 3.2 0 0 1-1.45.5 3.93 3.93 0 0 1-3.09-.77 4 4 0 0 1-1.64-2.88 4 4 0 0 1 3.89-4.52 4.15 4.15 0 0 1 1-3.75 4.16 4.16 0 0 1 6.64.7 4.9 4.9 0 0 1 .47 3v.2a4 4 0 0 1 2.49 2.08 4.1 4.1 0 0 1 0 3.66 3.93 3.93 0 0 1-2.75 2.22 4.14 4.14 0 0 1-3-.47A2.24 2.24 0 0 0 153 505l.06.07a2.54 2.54 0 0 0 3.52.46 3.1 3.1 0 0 0 .73-.94c.07-.13.15-.26.23-.38l.48-.73.52.7.2.28a6 6 0 0 0 1 1.21 2.45 2.45 0 0 0 2.07.29 2.26 2.26 0 0 0 1.54-1.26c.06-.15.11-.3.16-.46a4.72 4.72 0 0 1-2.91-1.27 3.68 3.68 0 0 1-1.2-3.05 3.85 3.85 0 0 1 1.3-2.92 4.3 4.3 0 0 1 2.51-1.1 4.26 4.26 0 0 1 .44-3.17 4.47 4.47 0 0 1 4.15-1.89l.64.05-.09.64c-.56 3.87-1.16 7.8-1.74 11.6-.68 4.42-1.38 9-2 13.48l-.07.51h-.52c-2.95.05-5.96.06-8.95.06M144.68 516h5.21c4.47 0 9.08 0 13.63-.05.62-4.33 1.29-8.73 1.94-13 .55-3.57 1.11-7.26 1.64-10.91a3.14 3.14 0 0 0-2.39 1.36 3.67 3.67 0 0 0-.21 2.62l.06.42.1.79-.78-.11a2.88 2.88 0 0 0-2.31.78 2.6 2.6 0 0 0-.91 2v.1a2.49 2.49 0 0 0 .83 2.09 3.42 3.42 0 0 0 2.77.91l.92-.14-.24.9a3 3 0 0 0-.08.31 8 8 0 0 1-.34 1.1 3.53 3.53 0 0 1-2.33 2 3.67 3.67 0 0 1-3.13-.5 5.4 5.4 0 0 1-1-1 3 3 0 0 1-.79.88 3.75 3.75 0 0 1-5.22-.66 4.15 4.15 0 0 1-.84-3.12v-1.55l1 .7a3.56 3.56 0 0 0 3 .87 2.71 2.71 0 0 0 1.91-1.56 2.88 2.88 0 0 0 0-2.59v-.05a3.05 3.05 0 0 0-2.17-1.55l-.46-.12v-1.18a3.76 3.76 0 0 0-.3-2.32v-.05a2.94 2.94 0 0 0-4.65-.5 3 3 0 0 0-.51 3.23l.3.73-.79.1-.47.05a3.56 3.56 0 0 0-2 .62 3 3 0 0 0-1 2.57v.05a2.87 2.87 0 0 0 1.16 2 2.76 2.76 0 0 0 2.17.54h.09a2.8 2.8 0 0 0 1.39-.64l.43-.29.93-.59v1.51a4.45 4.45 0 0 1-.57 2.78 3.6 3.6 0 0 1-3.83 1.71 3.5 3.5 0 0 1-2.38-1.65 9 9 0 0 1-.72.78 3.56 3.56 0 0 1-3.5.76 4.12 4.12 0 0 1-2.62-3.43l-.14-.7h1.24a3.58 3.58 0 0 0 2.18-.45h.06a2.77 2.77 0 0 0 1.31-2.14 2.81 2.81 0 0 0-.81-2.37l-.06-.07c-.5-.63-1.4-.87-2.81-.77l-.8.07.16-.79a3.7 3.7 0 0 0-.16-2.78v-.07a2.94 2.94 0 0 0-2.48-1.52c.15 1.5.39 3 .63 4.47.2 1.28.41 2.6.57 3.91.65 3.81 1.24 7.73 1.8 11.53.2 1.33.4 2.68.61 4 .77.05 1.57 0 2.35 0h3.59Z" class="cls-2"/><path id="path298" d="M131.72 554.83h-16.24l-.08-.51c-.59-4-1.24-8.15-1.86-12.12-.93-5.92-1.89-12-2.71-18.08l-.07-.56.54-.12a4.9 4.9 0 0 1 5 2.17 5.1 5.1 0 0 1 .53 3.94 6.7 6.7 0 0 1 2 .13h.1a5.19 5.19 0 0 1 3.11 4.17 4.84 4.84 0 0 1-1.59 4 4.76 4.76 0 0 1-3.87 1.16 1 1 0 0 1 0 .14 3.17 3.17 0 0 0 1.6 2.21 2.8 2.8 0 0 0 2.42.25 4 4 0 0 0 2.18-2.21l.5-1 .56 1c.59 1 1.15 1.89 2.07 2.17h.06a3.11 3.11 0 0 0 3.82-1.49v-.07a3.4 3.4 0 0 0 .34-1.86 4.74 4.74 0 0 1-3.87.6 4.4 4.4 0 0 1-3.09-2.59 4.93 4.93 0 0 1 .11-4.42 4.87 4.87 0 0 1 4.15-2.54 5 5 0 0 1 .3-3.3 4.88 4.88 0 0 1 4.54-2.74h.1A4.85 4.85 0 0 1 137 527v.06a7.7 7.7 0 0 1-.11 2.32 4.88 4.88 0 0 1 3.31 3 4.53 4.53 0 0 1-.23 3.92 5 5 0 0 1-3.36 2.57 4.9 4.9 0 0 1-3.56-.71 3.6 3.6 0 0 0 .51 2.13 3.11 3.11 0 0 0 3.22 1.42h.1c1.18-.13 2-1.28 2.56-2.28l.57-1 .5 1a3.62 3.62 0 0 0 2.44 2.24h.07a3 3 0 0 0 2.68-.68 3.32 3.32 0 0 0 1.16-1.94h-.08a4.9 4.9 0 0 1-3.59-1.27 4.59 4.59 0 0 1-1.54-3.78 4.66 4.66 0 0 1 2-3.62 4.23 4.23 0 0 1 2.71-.95 5.08 5.08 0 0 1 1.33-4.89h.05a5.12 5.12 0 0 1 4-1.17l.55.11-.06.55c-.31 2.81-.76 5.64-1.2 8.38-.31 1.93-.63 3.92-.89 5.89s-.5 3.89-.73 5.8c-.41 3.33-.83 6.78-1.33 10.18l-.08.51h-.52Zm-15.19-1.23h30.42c.46-3.22.86-6.48 1.25-9.64.23-1.91.47-3.87.73-5.81s.58-4 .89-5.93c.41-2.52.83-5.12 1.12-7.7a4.45 4.45 0 0 0-2.44 1 4.08 4.08 0 0 0-.77 4.34l.3.8h-.85a4.07 4.07 0 0 0-2.75.69l-.08.06a3.46 3.46 0 0 0-1.46 2.71 3.38 3.38 0 0 0 1.12 2.79 4.14 4.14 0 0 0 3.43.91l.62-.05v.63a4.34 4.34 0 0 1-1.56 3.6 4.27 4.27 0 0 1-3.71.94 4.13 4.13 0 0 1-2.82-2 4.35 4.35 0 0 1-7.38.07 5.84 5.84 0 0 1-.71-3.65v-1.31l.91.58c1.13.72 2.33 1.4 3.55 1.1a3.71 3.71 0 0 0 2.52-2 3.35 3.35 0 0 0 .18-2.9v-.06c-.33-1.09-1.36-1.89-3.07-2.39l-.59-.17.19-.59a5.9 5.9 0 0 0 .22-2.38 3.64 3.64 0 0 0-3.44-2.85h-.06a3.62 3.62 0 0 0-3.41 2.08 4.64 4.64 0 0 0 0 3.23l.18.81-.83-.07a3.76 3.76 0 0 0-3.75 1.86v.05a3.7 3.7 0 0 0-.07 3.33 3.2 3.2 0 0 0 2.27 1.91h.08c1.18.42 2.37-.11 3.8-1l1-.67-.1 1.23v.89a4.5 4.5 0 0 1-.51 2.62 4.32 4.32 0 0 1-7.54.22 4.43 4.43 0 0 1-2.35 1.9 4 4 0 0 1-3.44-.32 4.43 4.43 0 0 1-2.2-3.06 1 1 0 0 0 0-.1 1.12 1.12 0 0 1 .47-1.41l.14-.07h.16c1.22.06 2.61.12 3.39-.76v-.05a3.64 3.64 0 0 0 1.23-3 4 4 0 0 0-2.35-3.16 7.8 7.8 0 0 0-2.16 0l-1.12.08.26-.84a4.44 4.44 0 0 0-.16-3.75 3.76 3.76 0 0 0-3.17-1.72c.79 5.83 1.72 11.73 2.62 17.45.6 3.72 1.27 7.65 1.8 11.53" class="cls-2"/><path id="rect2220" d="M91.06 823.87v19.27h28.42a14.31 14.31 0 0 1 28.27 0h28.42v-19.27Zm42.56 11.66a9.86 9.86 0 1 0 9.85 9.85 9.86 9.86 0 0 0-9.85-9.85m-42.56 12.09v19.27h85.11v-19.27h-28.42a14.31 14.31 0 0 1-28.27 0Z" class="cls-2"/><path d="M91.37 672.63V643h19v5H96.9v7.15h8.32v5H96.9v7.36h13.48v5ZM129.23 643h5.53v20.26q0 4.66-2.79 7.14a12.68 12.68 0 0 1-15 0q-2.81-2.48-2.8-7.14V643h5.53v20q0 4.83 4.78 4.83t4.79-4.83ZM154.73 672.63l-8-12.1h-1.45v12.1h-5.54V643h10.11q4.71 0 7.24 2.42a8.46 8.46 0 0 1 2.54 6.44 8.68 8.68 0 0 1-1.7 5.5 8.37 8.37 0 0 1-5 2.87l8.07 12.4Zm-5.16-17.14a5.43 5.43 0 0 0 3.27-.87 3.18 3.18 0 0 0 1.18-2.75 3.5 3.5 0 0 0-1.18-2.85 5 5 0 0 0-3.27-1h-4.28v7.44ZM175.53 672.88a12.3 12.3 0 0 1-4.3-.79 9.8 9.8 0 0 1-3.83-2.58 13.4 13.4 0 0 1-2.73-4.66 24.3 24.3 0 0 1 0-14.06 13.5 13.5 0 0 1 2.73-4.66 10 10 0 0 1 3.83-2.58 12.12 12.12 0 0 1 8.61 0 10.1 10.1 0 0 1 3.83 2.58 13.5 13.5 0 0 1 2.74 4.66 23.84 23.84 0 0 1 0 14.06 13.4 13.4 0 0 1-2.74 4.66 9.85 9.85 0 0 1-3.83 2.58 12.3 12.3 0 0 1-4.31.79m0-5.07a6.5 6.5 0 0 0 2.21-.4 4.7 4.7 0 0 0 2-1.49 8.7 8.7 0 0 0 1.5-3 22.3 22.3 0 0 0 0-10.11 8.7 8.7 0 0 0-1.5-3 4.8 4.8 0 0 0-2-1.5 6.43 6.43 0 0 0-4.41 0 4.7 4.7 0 0 0-2 1.5 8.9 8.9 0 0 0-1.48 3 22.3 22.3 0 0 0 0 10.11 8.9 8.9 0 0 0 1.48 3 4.57 4.57 0 0 0 2 1.49 6.5 6.5 0 0 0 2.2.4M192.05 672.63V643h10.07q4.74 0 7.26 2.52a9.13 9.13 0 0 1 2.52 6.76 8.74 8.74 0 0 1-2.52 6.62c-1.68 1.6-4.1 2.41-7.26 2.41h-4.54v11.31Zm9.78-16.35q4.46 0 4.45-4 0-4.24-4.45-4.24h-4.25v8.23ZM215.85 672.63V643h19v5h-13.47v7.15h8.32v5h-8.32v7.36h13.48v5ZM237.57 672.63v-4.41h5.28v-20.8h-5.28V643h16.05v4.41h-5.24v20.8h5.24v4.41ZM270.85 653.25c-.36-3.61-1.78-5.41-4.24-5.41a4.7 4.7 0 0 0-2.67.81 2.7 2.7 0 0 0-1.2 2.39 2.55 2.55 0 0 0 1.18 2.33 13.8 13.8 0 0 0 2.39 1.21l4.12 1.62a15 15 0 0 1 4.5 2.71c1.24 1.1 1.87 2.82 1.87 5.15a7.81 7.81 0 0 1-2.91 6.58 11.24 11.24 0 0 1-7.08 2.24 10.78 10.78 0 0 1-7.55-2.66 9.45 9.45 0 0 1-2.93-7.36l5-1.08a8.5 8.5 0 0 0 1.62 4.45 4.63 4.63 0 0 0 3.79 1.58 6.4 6.4 0 0 0 3-.77 2.75 2.75 0 0 0 1.43-2.64 2.63 2.63 0 0 0-1.27-2.46 22.4 22.4 0 0 0-3-1.45L263 659a11.6 11.6 0 0 1-4.29-2.79 6.68 6.68 0 0 1-1.58-4.7A7.81 7.81 0 0 1 260 645a10.34 10.34 0 0 1 6.74-2.27 9.07 9.07 0 0 1 6.66 2.48 9.33 9.33 0 0 1 2.49 6.92ZM297.35 672.63 287.74 660l-1.66 1.87v10.81h-5.54V643h5.54v11.15l9.86-11.15h6.94l-11.6 13L304 672.63ZM323.19 672.63l-2.33-7.15h-8.74l-2.33 7.15h-5.74l9.78-29.63h5.36l9.81 29.63Zm-6.7-20.63-2.75 8.44h5.54ZM356.64 643h5.53v20.26q0 4.66-2.79 7.14a12.68 12.68 0 0 1-15 0q-2.8-2.48-2.81-7.14V643h5.54v20q0 4.83 4.78 4.83t4.79-4.83ZM384.64 672.63l-11.94-19.26v19.26h-5.54V643h5.37l11.9 19.18V643H390v29.62ZM393.91 672.63v-4.41h5.29v-20.8h-5.29V643H410v4.41h-5.24v20.8H410v4.41ZM424 672.88a12.3 12.3 0 0 1-4.3-.79 9.8 9.8 0 0 1-3.83-2.58 13.4 13.4 0 0 1-2.73-4.66 24.3 24.3 0 0 1 0-14.06 13.5 13.5 0 0 1 2.73-4.66 10 10 0 0 1 3.83-2.58 12.12 12.12 0 0 1 8.61 0 10.1 10.1 0 0 1 3.83 2.58 13.65 13.65 0 0 1 2.74 4.66 23.84 23.84 0 0 1 0 14.06 13.6 13.6 0 0 1-2.74 4.66 9.85 9.85 0 0 1-3.83 2.58 12.3 12.3 0 0 1-4.31.79m0-5.07a6.5 6.5 0 0 0 2.21-.4 4.7 4.7 0 0 0 2-1.49 8.5 8.5 0 0 0 1.49-3 22 22 0 0 0 0-10.11 8.5 8.5 0 0 0-1.49-3 4.8 4.8 0 0 0-2-1.5 6.43 6.43 0 0 0-4.41 0 4.7 4.7 0 0 0-2 1.5 8.9 8.9 0 0 0-1.48 3 22.3 22.3 0 0 0 0 10.11 8.9 8.9 0 0 0 1.48 3 4.57 4.57 0 0 0 2 1.49 6.5 6.5 0 0 0 2.2.4M457.94 672.63 446 653.37v19.26h-5.53V643h5.37l11.89 19.18V643h5.54v29.62ZM468.26 672.63V643h19v5h-13.47v7.15h8.33v5h-8.33v7.36h13.48v5ZM508.49 672.63l-11.94-19.26v19.26H491V643h5.37l11.89 19.18V643h5.54v29.62ZM104.64 700.25q-.54-5.41-4.24-5.41a4.7 4.7 0 0 0-2.67.81 2.7 2.7 0 0 0-1.2 2.39 2.55 2.55 0 0 0 1.18 2.33 13.5 13.5 0 0 0 2.4 1.21l4.11 1.62a15 15 0 0 1 4.5 2.71q1.88 1.65 1.87 5.15a7.81 7.81 0 0 1-2.91 6.58 11.22 11.22 0 0 1-7.08 2.24 10.8 10.8 0 0 1-7.55-2.66 9.45 9.45 0 0 1-2.93-7.36l5-1.08a8.4 8.4 0 0 0 1.63 4.45 4.59 4.59 0 0 0 3.78 1.58 6.34 6.34 0 0 0 3-.77 2.75 2.75 0 0 0 1.47-2.64 2.63 2.63 0 0 0-1.27-2.46 22.4 22.4 0 0 0-3-1.45L96.82 706a11.7 11.7 0 0 1-4.29-2.79 6.68 6.68 0 0 1-1.58-4.7 7.81 7.81 0 0 1 2.79-6.51 10.34 10.34 0 0 1 6.74-2.27 9.07 9.07 0 0 1 6.66 2.48 9.33 9.33 0 0 1 2.49 6.92ZM121.7 719.63 111.92 690h5.74l6.34 19.73 6.27-19.73H136l-9.74 29.62ZM138.59 719.63V690h19v5h-13.47v7.15h8.32v5h-8.32v7.36h13.48v5ZM176.32 719.63l-8-12.1h-1.46v12.1h-5.53V690h10.11q4.69 0 7.24 2.42a8.45 8.45 0 0 1 2.53 6.44 8.68 8.68 0 0 1-1.7 5.5 8.37 8.37 0 0 1-5 2.87l8.07 12.39Zm-5.16-17.14a5.43 5.43 0 0 0 3.27-.87 3.19 3.19 0 0 0 1.19-2.75 3.51 3.51 0 0 0-1.19-2.85 5 5 0 0 0-3.27-1h-4.28v7.44ZM184.6 719.63v-4.41h5.29v-20.8h-5.29V690h16.06v4.41h-5.24v20.8h5.24v4.41ZM220.67 719.63l-.16-1.45a10.25 10.25 0 0 1-5.87 1.7 12 12 0 0 1-4.3-.81 10.05 10.05 0 0 1-3.83-2.6 13.2 13.2 0 0 1-2.73-4.66 23.93 23.93 0 0 1 0-14 13.7 13.7 0 0 1 2.75-4.66 10.1 10.1 0 0 1 3.77-2.58 11.8 11.8 0 0 1 4.16-.79 11.15 11.15 0 0 1 6.11 1.94q3 1.93 4.62 6.84l-5.33 1.33a7.5 7.5 0 0 0-2.39-4 5.1 5.1 0 0 0-3-1 6.1 6.1 0 0 0-2.08.39 4.87 4.87 0 0 0-2 1.5 8.7 8.7 0 0 0-1.5 3 18 18 0 0 0-.58 5.05 18.2 18.2 0 0 0 .58 5.08 8.3 8.3 0 0 0 1.52 3 4.8 4.8 0 0 0 2.08 1.47 6.8 6.8 0 0 0 2.27.4 8 8 0 0 0 3-.61 4.5 4.5 0 0 0 2.38-2.18v-2.79h-5.54v-5h11.11v15.43ZM230.49 719.63V690h19v5H236v7.15h8.32v5H236v7.36h13.48v5ZM91.37 766.63V737h10.07q4.74 0 7.26 2.52a9.16 9.16 0 0 1 2.51 6.76 8.77 8.77 0 0 1-2.51 6.62c-1.68 1.6-4.1 2.41-7.26 2.41H96.9v11.31Zm9.78-16.35c3 0 4.45-1.33 4.45-4 0-2.83-1.49-4.24-4.45-4.24H96.9v8.23ZM129.89 766.63l-2.33-7.15h-8.73l-2.33 7.15h-5.74l9.77-29.63h5.37l9.78 29.62ZM123.2 746l-2.75 8.44H126ZM151.7 747.25c-.37-3.61-1.78-5.41-4.25-5.41a4.66 4.66 0 0 0-2.66.81 2.69 2.69 0 0 0-1.21 2.39 2.56 2.56 0 0 0 1.19 2.33 13.8 13.8 0 0 0 2.39 1.21l4.12 1.62a15 15 0 0 1 4.49 2.71q1.88 1.65 1.87 5.15a7.81 7.81 0 0 1-2.91 6.58 11.2 11.2 0 0 1-7.07 2.24 10.76 10.76 0 0 1-7.55-2.66 9.42 9.42 0 0 1-2.94-7.36l5-1.08a8.5 8.5 0 0 0 1.62 4.45 4.61 4.61 0 0 0 3.79 1.58 6.3 6.3 0 0 0 3-.77 2.74 2.74 0 0 0 1.42-2.64 2.65 2.65 0 0 0-1.27-2.46 22.5 22.5 0 0 0-3-1.45l-3.86-1.49a11.5 11.5 0 0 1-4.28-2.79 6.63 6.63 0 0 1-1.58-4.7 7.83 7.83 0 0 1 2.78-6.43 10.36 10.36 0 0 1 6.74-2.27 9 9 0 0 1 6.66 2.48 9.3 9.3 0 0 1 2.5 6.92ZM175.08 747.25c-.37-3.61-1.78-5.41-4.25-5.41a4.66 4.66 0 0 0-2.66.81A2.69 2.69 0 0 0 167 745a2.56 2.56 0 0 0 1.19 2.33 13.8 13.8 0 0 0 2.39 1.21l4.12 1.62a14.8 14.8 0 0 1 4.49 2.71q1.88 1.65 1.88 5.15a7.81 7.81 0 0 1-2.92 6.58 11.2 11.2 0 0 1-7.07 2.24 10.76 10.76 0 0 1-7.55-2.66 9.42 9.42 0 0 1-2.93-7.36l5-1.08a8.5 8.5 0 0 0 1.62 4.45 4.61 4.61 0 0 0 3.79 1.58 6.3 6.3 0 0 0 3-.77 2.74 2.74 0 0 0 1.44-2.64 2.63 2.63 0 0 0-1.27-2.46 22.5 22.5 0 0 0-3-1.45l-3.93-1.45a11.5 11.5 0 0 1-4.28-2.79 6.63 6.63 0 0 1-1.58-4.7 7.81 7.81 0 0 1 2.79-6.43 10.32 10.32 0 0 1 6.73-2.27 9 9 0 0 1 6.66 2.48 9.3 9.3 0 0 1 2.5 6.92Z" class="cls-2"/></g></g></svg>