<svg xmlns="http://www.w3.org/2000/svg" xml:space="preserve" id="svg5" width="249.4" height="354.7" x="0" y="0" version="1.1"><style>.st1{fill:#b28759}.st3{fill:#591525}</style><g id="layer1" transform="translate(-96.796 -56.44)"><g id="g872" transform="translate(158.424 -22.422)"><path id="rect998" d="M-61.6 78.9v354.6h238c6.3 0 11.3-5.1 11.3-11.3v-332c0-6.3-5.1-11.3-11.3-11.3h-238" style="fill:#6d1825"/><path id="path2748-0" d="M66.1 398.8c0-1.8-1.4-3.3-3.1-3.3s-3.1 1.5-3.1 3.3 1.4 3.3 3.1 3.3 3.1-1.5 3.1-3.3m-3.1 5c-2.3 0-4.3-1.8-4.7-4.1h-8.5v6.7h26.4v-6.7h-8.5c-.4 2.3-2.4 4.1-4.7 4.1m-13.2-12.5v6.7h8.5c.4-2.3 2.3-4.1 4.7-4.1 2.3 0 4.3 1.8 4.7 4.1h8.5v-6.7z" class="st1"/><path d="M-25.5 243.1v-11.3h-4.1v-2.3h10.9v2.3h-4v11.3zM-17.6 231.3h2.4v6.4c0 1 0 1.7.1 2 .1.5.3.9.7 1.2s.9.4 1.6.4 1.2-.1 1.5-.4.5-.6.6-1 .1-1.1.1-2v-6.5h2.4v6.2c0 1.4-.1 2.4-.2 3s-.4 1.1-.7 1.5-.8.7-1.4 1c-.6.2-1.3.4-2.3.4-1.1 0-2-.1-2.6-.4s-1-.6-1.4-1c-.3-.4-.6-.8-.7-1.3-.2-.7-.2-1.7-.2-3 .1-.2.1-6.5.1-6.5m2-.7v-1.9h1.9v1.9zm3.4 0v-1.9h1.9v1.9zM-6.2 243.1v-11.8h5q1.95 0 2.7.3c.75.3 1 .6 1.4 1.1s.5 1.2.5 1.9c0 .9-.3 1.6-.8 2.2s-1.3.9-2.3 1.1c.5.3.9.6 1.3 1s.8 1 1.4 1.9l1.4 2.3H1.6l-1.7-2.6c-.6-.9-1-1.5-1.3-1.7s-.5-.4-.7-.5-.6-.1-1.2-.1h-.5v4.9zm2.4-6.8H-2c1.1 0 1.9 0 2.1-.1s.5-.3.7-.5.2-.5.2-.9-.1-.7-.3-1c-.2-.2-.5-.4-.9-.5h-3.5999999999999996zM5.3 243.1v-11.8h2.4v5.2l4.8-5.2h3.2l-4.4 4.6 4.7 7.2h-3.1l-3.2-5.5-1.9 2v3.6zM16.7 243.1v-11.8H19v11.8zm0-12.5v-2.1H19v2.1zM24 243.1v-4.9l-4.3-6.8h2.8l2.8 4.7 2.7-4.7h2.7l-4.3 6.8v4.9zM31.4 243.1v-11.8h8.7v2h-6.3v2.6h5.9v2h-5.9v3.2h6.6v2zM55.1 238.1l2.7.8c-.4 1.5-1.1 2.6-2 3.3s-2.2 1.1-3.6 1.1c-1.8 0-3.3-.6-4.5-1.9q-1.8-1.8-1.8-5.1c0-2.3.6-4 1.8-5.3s2.7-1.9 4.6-1.9c1.7 0 3 .5 4.1 1.5.6.6 1.1 1.4 1.4 2.5l-2.7.6c-.2-.7-.5-1.3-1-1.7s-1.1-.6-1.9-.6c-1 0-1.8.4-2.5 1.1-.6.7-.9 1.9-.9 3.5 0 1.7.3 3 .9 3.7s1.4 1.1 2.4 1.1c.7 0 1.4-.2 1.9-.7.5-.3.8-1 1.1-2M59.4 231.3h2.4v6.4c0 1 0 1.7.1 2 .1.5.3.9.7 1.2s.9.4 1.6.4 1.2-.1 1.5-.4.5-.6.6-1 .1-1.1.1-2v-6.5h2.4v6.2c0 1.4-.1 2.4-.2 3s-.4 1.1-.7 1.5-.8.7-1.4 1c-.6.2-1.3.4-2.3.4-1.1 0-2-.1-2.6-.4s-1-.6-1.4-1c-.3-.4-.6-.8-.7-1.3-.2-.7-.2-1.7-.2-3 .1-.2.1-6.5.1-6.5M70.9 243.1v-11.8h3.6l2.1 8 2.1-8h3.6v11.8H80v-9.3l-2.3 9.3h-2.3l-2.3-9.3v9.3zM84.2 243.1v-11.8h2.4v4.6h4.7v-4.6h2.4v11.8h-2.4V238h-4.7v5.1zM95.6 231.3H98v6.4c0 1 0 1.7.1 2 .1.5.3.9.7 1.2s.9.4 1.6.4 1.2-.1 1.5-.4.5-.6.6-1 .1-1.1.1-2v-6.5h2.4v6.2c0 1.4-.1 2.4-.2 3s-.4 1.1-.7 1.5-.8.7-1.4 1c-.6.2-1.3.4-2.3.4-1.1 0-2-.1-2.6-.4s-1-.6-1.4-1c-.3-.4-.6-.8-.7-1.3-.2-.7-.2-1.7-.2-3zM107.1 243.1v-11.8h5q1.95 0 2.7.3c.6.2 1 .6 1.4 1.1.3.5.5 1.2.5 1.9 0 .9-.3 1.6-.8 2.2s-1.3.9-2.3 1.1c.5.3.9.6 1.3 1 .3.4.8 1 1.4 1.9l1.4 2.3h-2.8l-1.7-2.6c-.6-.9-1-1.5-1.3-1.7-.2-.2-.5-.4-.7-.5s-.6-.1-1.2-.1h-.5v4.9zm2.4-6.8h1.8c1.1 0 1.9 0 2.1-.1.3-.1.5-.3.7-.5s.2-.5.2-.9-.1-.7-.3-1c-.2-.2-.5-.4-.9-.5h-3.5999999999999996zM118.5 243.1v-11.8h2.4v11.8zm0-12.5v-2.1h2.2v2.1zM125.8 243.1v-4.9l-4.3-6.8h2.8l2.8 4.7 2.7-4.7h2.7l-4.3 6.8v4.9zM133.2 243.1v-11.8h8.7v2h-6.3v2.6h5.9v2h-5.9v3.2h6.6v2zM146.4 243.1v-9.8h-3.5v-2h9.3v2h-3.5v9.8zM153.3 243.1v-11.8h2.4v11.8zm.1-12.5v-2.1h2.2v2.1zM-11.6 263.2V252h4.8c1.2 0 2.1.1 2.6.3s1 .6 1.3 1.1.5 1.1.5 1.8c0 .8-.2 1.5-.7 2.1s-1.2.9-2.2 1q.75.45 1.2.9c.3.3.7.9 1.3 1.8l1.4 2.2h-2.7l-1.6-2.4c-.6-.9-1-1.4-1.2-1.7-.2-.2-.4-.4-.7-.5-.2-.1-.6-.1-1.1-.1h-.5v4.7zm2.2-6.5h1.7c1.1 0 1.8 0 2-.1.3-.1.5-.2.6-.5.2-.2.2-.5.2-.8q0-.6-.3-.9c-.3-.3-.5-.4-.8-.4h-3.5zM-.9 263.2v-9.7h7.2v1.6H1.1v2.1h4.8v1.6H1.1v2.6h5.4v1.6zM7.8 263.2v-9.7h3.1c1.2 0 2 0 2.3.1.6.1 1 .5 1.4.9s.6 1.1.6 1.9q0 .9-.3 1.5c-.2.4-.5.7-.8.9s-.7.4-1 .5c-.5.1-1.1.1-2 .1H9.7v3.6zm1.9-8.1v2.7h1.1c.8 0 1.3 0 1.5-.2.3-.1.5-.3.6-.5s.2-.5.2-.7q0-.45-.3-.9c-.3-.45-.5-.4-.8-.4-.2 0-.7-.1-1.4-.1zM16.4 253.5h2v5.2c0 .8 0 1.4.1 1.6q.15.6.6.9c.3.2.7.4 1.3.4s1-.1 1.3-.3.4-.5.5-.8.1-.9.1-1.6v-5.3h2v5.1c0 1.2-.1 2-.2 2.5q-.15.75-.6 1.2c-.3.3-.7.6-1.1.8-.5.2-1.1.3-1.9.3q-1.35 0-2.1-.3c-.5-.2-.9-.5-1.1-.8-.3-.3-.5-.7-.5-1.1-.1-.6-.2-1.4-.2-2.5zM25.9 253.5h3.9c.8 0 1.3 0 1.7.1s.7.2 1 .4.5.5.7.8.3.7.3 1.1c0 .5-.1.9-.4 1.3-.2.4-.6.7-1 .8.6.2 1 .5 1.4.9.3.4.5.9.5 1.5 0 .4-.1.9-.3 1.3s-.5.7-.8 1c-.4.2-.8.4-1.3.5-.3 0-1.1.1-2.4.1h-3.3zm1.9 1.6v2.2h2.7c.3 0 .6-.2.8-.3.2-.2.3-.4.3-.8 0-.3-.1-.5-.2-.7-.2-.2-.4-.3-.7-.3H29zm0 3.9v2.6h1.8c.7 0 1.2 0 1.3-.1.3-.1.5-.2.7-.4s.3-.5.3-.8-.1-.5-.2-.7-.3-.3-.6-.4-.8-.1-1.7-.1zM35.3 263.2v-9.6h2v7.9h4.8v1.6zM43.1 263.2v-9.7h2v9.7zM52.8 259.6l1.9.6c-.3 1.1-.8 1.8-1.4 2.3-.7.5-1.5.8-2.6.8-1.3 0-2.3-.4-3.2-1.3s-1.2-2.1-1.2-3.6c0-1.6.4-2.9 1.2-3.7.8-.9 1.9-1.3 3.3-1.3 1.2 0 2.1.3 2.9 1 .4.4.8 1 1 1.8l-1.9.5c-.1-.5-.4-.9-.7-1.2-.4-.3-.8-.4-1.3-.4-.7 0-1.3.3-1.7.8s-.7 1.4-.7 2.5c0 1.2.2 2.1.7 2.6.4.5 1 .8 1.7.8.5 0 1-.2 1.3-.5.3-.5.5-1 .7-1.7M59 258.4c0-1 .1-1.8.4-2.5.2-.5.5-.9.9-1.3s.8-.7 1.3-.9c.6-.3 1.3-.4 2.1-.4 1.4 0 2.6.4 3.4 1.3.9.9 1.3 2.1 1.3 3.7s-.4 2.8-1.3 3.7c-.8.9-2 1.3-3.4 1.3s-2.6-.4-3.4-1.3c-.9-.9-1.3-2.1-1.3-3.6m2-.1c0 1.1.3 1.9.8 2.5s1.2.8 1.9.8 1.4-.3 1.9-.8c.5-.6.7-1.4.7-2.5s-.2-1.9-.7-2.5c-.5-.5-1.1-.8-1.9-.8s-1.5.3-1.9.8c-.5.6-.8 1.4-.8 2.5M69.6 263.2v-9.7h6.6v1.6h-4.7v2.3h4v1.6h-4v4.1zM83.6 263.2v-9.3h-3.3V252h8.9v1.9h-3.3v9.3zM90.1 253.5h2v5.2c0 .8 0 1.4.1 1.6q.15.6.6.9c.3.2.7.4 1.3.4s1-.1 1.3-.3.4-.5.5-.8.1-.9.1-1.6v-5.3h2v5.1c0 1.2-.1 2-.2 2.5q-.15.75-.6 1.2c-.3.3-.7.6-1.1.8-.5.2-1.1.3-1.9.3q-1.35 0-2.1-.3c-.75-.3-.9-.5-1.1-.8-.3-.3-.5-.7-.5-1.1-.1-.6-.2-1.4-.2-2.5zm1.6-.5v-1.6h1.6v1.6zm2.9 0v-1.6h1.6v1.6zM99.5 263.2v-9.7h4.1c1 0 1.8.1 2.3.3s.8.5 1.1.9.4.9.4 1.5q0 1.05-.6 1.8c-.4.5-1.1.8-1.9.9.4.2.8.5 1 .8.3.3.6.8 1.1 1.6l1.2 1.9h-2.3l-1.4-2.1c-.5-.7-.8-1.2-1-1.4s-.4-.3-.6-.4-.5-.1-1-.1h-.4v4zm1.9-5.6h1.4c.9 0 1.5 0 1.8-.1.2-.1.4-.2.5-.4s.2-.4.2-.7-.1-.6-.3-.8-.4-.3-.7-.4h-2.9zM108.9 263.2v-9.7h2v4.3l3.9-4.3h2.6l-3.6 3.8 3.8 5.9h-2.5l-2.7-4.5-1.6 1.6v2.9zM118.3 263.2v-9.7h2v9.7zm0-10.2v-1.8h1.8v1.8zM124.3 263.2v-4.1l-3.5-5.6h2.3l2.3 3.8 2.2-3.8h2.2l-3.6 5.6v4.1zM130.4 263.2v-9.7h7.2v1.6h-5.2v2.1h4.8v1.6h-4.8v2.6h5.4v1.6zM16.1 353.5v-12.9h4.2c1.6 0 2.6.1 3.1.2.7.2 1.4.6 1.9 1.3s.8 1.5.8 2.5c0 .8-.1 1.5-.4 2s-.6 1-1.1 1.3-.9.5-1.4.6c-.6.1-1.5.2-2.7.2h-1.7v4.9zm2.6-10.7v3.7h1.4c1 0 1.7-.1 2.1-.2s.6-.4.8-.6.3-.6.3-1c0-.5-.1-.9-.4-1.2s-.6-.5-1-.6c-.3-.1-.9-.1-1.9-.1zM38 353.5h-2.8l-1.1-2.9H29l-1.1 2.9h-2.8l5-12.9h2.7zm-4.8-5.1-1.8-4.8-1.7 4.8zM38.2 349.3l2.5-.2c.2.9.5 1.5.9 1.9s1.1.6 1.9.6 1.5-.2 1.9-.5.6-.8.6-1.2c0-.3-.1-.6-.3-.8s-.5-.4-.9-.6q-.45-.15-2.1-.6c-1.4-.4-2.4-.8-2.9-1.3-.8-.7-1.2-1.6-1.2-2.6q0-1.05.6-1.8c.4-.6.9-1 1.6-1.3s1.5-.5 2.5-.5c1.6 0 2.8.4 3.7 1.1s1.2 1.7 1.3 2.8l-2.6.1c-.1-.7-.3-1.1-.7-1.4s-.9-.4-1.7-.4-1.3.2-1.8.5c-.3.2-.4.5-.4.8s.1.6.4.8q.45.45 2.4.9c1.95.45 2.2.6 2.8.9s1.1.8 1.4 1.3.5 1.2.5 2q0 1.05-.6 2.1c-.6 1.05-1 1.1-1.7 1.4-.8.3-1.7.5-2.8.5-1.6 0-2.9-.4-3.8-1.1s-1.3-2-1.5-3.4M62.1 353.5h-2.8l-1.1-2.9H53l-1.1 2.9h-2.8l5-12.9h2.8zm-4.8-5.1-1.8-4.8-1.7 4.8zM63 353.5v-12.9h4.2c1.6 0 2.6.1 3.1.2.7.2 1.4.6 1.9 1.3s.8 1.5.8 2.5c0 .8-.1 1.5-.4 2s-.7 1-1.1 1.3-.9.5-1.3.6c-.6.1-1.5.2-2.7.2h-1.7v4.9zm2.6-10.7v3.7H67c1 0 1.7-.1 2.1-.2s.6-.4.8-.6c.2-.3.3-.6.3-1 0-.5-.1-.9-.4-1.2s-.6-.5-1-.6c-.3-.1-.9-.1-1.9-.1zM74 347.1q0-1.95.6-3.3c.3-.7.7-1.2 1.2-1.8s1.1-.9 1.7-1.2c.8-.3 1.7-.5 2.8-.5 1.9 0 3.4.6 4.6 1.8s1.7 2.8 1.7 4.9-.6 3.7-1.7 4.9q-1.65 1.8-4.5 1.8c-1.9 0-3.4-.6-4.6-1.8q-1.8-1.65-1.8-4.8m2.7-.1c0 1.5.3 2.6 1 3.3s1.5 1.1 2.6 1.1 1.9-.4 2.6-1.1 1-1.9 1-3.4-.3-2.6-1-3.3-1.5-1.1-2.6-1.1-1.9.4-2.6 1.1-1 2-1 3.4M88.1 353.5v-12.9h5.5c1.4 0 2.4.1 3 .4s1.1.6 1.5 1.2.6 1.3.6 2c0 1-.3 1.8-.8 2.4s-1.4 1-2.6 1.2c.6.3 1 .7 1.4 1.1s.9 1.1 1.5 2.1l1.6 2.5h-3.1l-1.9-2.8c-.7-1-1.1-1.6-1.4-1.9s-.5-.4-.8-.5-.7-.1-1.3-.1h-.5v5.4zm2.6-7.4h1.9c1.2 0 2 0 2.3-.2s.6-.3.7-.5.3-.6.3-1-.1-.8-.3-1c-.2-.3-.6-.4-1-.5h-3.9zM103.6 353.5v-10.7h-3.8v-2.2H110v2.2h-3.8v10.7zM23.7 375.2V363h4c1.5 0 2.5.1 3 .2q1.05.3 1.8 1.2c.5.6.7 1.4.7 2.4 0 .8-.1 1.4-.4 1.9s-.6.9-1 1.2-.9.5-1.3.6c-.6.1-1.5.2-2.6.2h-1.6v4.6zm2.5-10.2v3.5h1.4c1 0 1.6-.1 2-.2.3-.1.6-.3.8-.6s.3-.6.3-1c0-.5-.1-.8-.4-1.1s-.6-.5-1-.5c-.3-.1-.9-.1-1.8-.1zM44.1 375.2h-2.3l-.9-2.4h-4.2l-.9 2.4h-2.3l4.1-10.6h2.3zm-3.9-4.1-1.5-3.9-1.4 3.9zM44.3 371.8l2.1-.2c.1.7.4 1.2.8 1.5s.9.5 1.5.5c.7 0 1.2-.1 1.6-.4.3-.3.5-.6.5-1 0-.2-.1-.5-.2-.6s-.4-.3-.8-.5c-.2-.1-.8-.2-1.7-.5-1.2-.3-2-.6-2.4-1-.7-.6-1-1.3-1-2.1 0-.5.2-1 .5-1.5s.8-.8 1.3-1.1c.6-.2 1.3-.4 2.1-.4q1.95 0 3 .9c1.05.9 1 1.4 1.1 2.3l-2.1.1q-.15-.75-.6-1.2c-.45-.45-.8-.4-1.3-.4-.6 0-1.1.1-1.5.4-.2.2-.3.4-.3.7 0 .2.1.5.3.6.3.2.9.5 2 .7s1.8.5 2.3.8.9.6 1.2 1.1.4 1 .4 1.7c0 .6-.2 1.2-.5 1.7s-.8.9-1.4 1.2-1.4.4-2.3.4c-1.3 0-2.4-.3-3.1-.9-.9-.7-1.4-1.6-1.5-2.8M53.8 371.8l2.1-.2c.1.7.4 1.2.8 1.5s.9.5 1.5.5c.7 0 1.2-.1 1.6-.4.3-.3.5-.6.5-1 0-.2-.1-.5-.2-.6s-.4-.3-.8-.5c-.2-.1-.8-.2-1.7-.5-1.2-.3-2-.6-2.4-1-.7-.6-1-1.3-1-2.1 0-.5.2-1 .5-1.5s.8-.8 1.3-1.1c.6-.2 1.3-.4 2.1-.4q1.95 0 3 .9c1.05.9 1 1.4 1.1 2.3l-2.1.1q-.15-.75-.6-1.2c-.45-.45-.8-.4-1.3-.4-.6 0-1.1.1-1.5.4-.2.2-.3.4-.3.7 0 .2.1.5.3.6.3.2.9.5 2 .7s1.8.5 2.3.8.9.6 1.2 1.1.4 1 .4 1.7c0 .6-.2 1.2-.5 1.7s-.8.9-1.4 1.2-1.4.4-2.3.4c-1.3 0-2.4-.3-3.1-.9-.9-.7-1.4-1.6-1.5-2.8M63.8 375.2v-10.6h3.4c1.3 0 2.2 0 2.5.2.6.2 1.1.5 1.5 1s.6 1.2.6 2.1c0 .6-.1 1.2-.3 1.6s-.5.8-.9 1-.7.4-1.1.5c-.5.1-1.2.1-2.2.1H66v4zm2.2-8.7v3h1.2c.8 0 1.4 0 1.7-.2.3-.1.5-.3.7-.5s.2-.5.2-.8c0-.4-.1-.7-.3-1-.2-.2-.5-.4-.9-.5-.2 0-.8-.1-1.5-.1zM72.9 370c0-1.1.2-2 .5-2.7.2-.5.6-1 1-1.5.4-.4.9-.8 1.4-1 .7-.3 1.4-.4 2.3-.4 1.6 0 2.8.5 3.7 1.5s1.4 2.3 1.4 4-.5 3-1.4 4-2.2 1.5-3.7 1.5c-1.6 0-2.8-.5-3.8-1.4s-1.4-2.3-1.4-4m2.2 0c0 1.2.3 2.1.8 2.7q.9.9 2.1.9c1.2 0 1.6-.3 2.1-.9.6-.6.8-1.5.8-2.8 0-1.2-.3-2.1-.8-2.7s-1.2-.9-2.1-.9-1.6.3-2.1.9-.8 1.5-.8 2.8M84.5 375.2v-10.6H89c1.1 0 1.9.1 2.5.3.5.2.9.5 1.2 1s.5 1 .5 1.7c0 .8-.2 1.5-.7 2s-1.2.8-2.1 1c.5.3.8.6 1.1.9s.7.9 1.2 1.7l1.3 2.1h-2.6l-1.5-2.3c-.6-.8-.9-1.3-1.1-1.6-.2-.2-.4-.4-.6-.4-.2-.1-.6-.1-1.1-.1h-.4v4.4zm2.1-6.1h1.6c1 0 1.7 0 1.9-.1s.5-.2.6-.5.2-.5.2-.8c0-.4-.1-.6-.3-.9-.2-.2-.5-.4-.8-.4h-3.3v2.7zM97.2 375.2v-8.8H94v-1.8h8.4v1.8h-3.1v8.8zM17.2 180.3c0-18.4 14.9-33.3 33.3-33.3 11.9 0 22.3 6.2 28.2 15.5-4.9-5.4-12-8.9-19.8-8.9-14.7 0-26.7 11.9-26.7 26.7S44.1 207 58.9 207c7.9 0 15-3.4 19.8-8.9-5.9 9.3-16.3 15.5-28.2 15.5-18.4 0-33.3-14.9-33.3-33.3M108.8 170.5l-11.5 3.7-7.1-9.8v12.1l-11.5 3.8 11.5 3.7v12.1l7.1-9.8 11.5 3.8-7.1-9.8z" class="st1"/><path d="M145.5 78s41.8 25.9 31.6 51.7-61.4 46.2-29.2 77.8 40.5 42.8 17.1 71-41.2 34.8-10.3 68.6c31.8 34.7 36 37.9-14.6 90" style="fill:none;stroke:#591525;stroke-width:4;stroke-linecap:round;stroke-linejoin:round;stroke-miterlimit:10"/><path d="m159.5 128.3-14.3-10.6c-.2-.1-.4 0-.4.2l-.9 5.3c0 .2-.2.3-.4.2L138 121c-.2-.1-.4.1-.4.3l1.6 5.8c0 .2-.1.3-.3.4l-5.4.2c-.2 0-.3.2-.2.4l8.7 15.5c.9 1.6 2.1 3 3.5 4 2.8 1.9 7.6 3.4 13.6-2.1 6.1-5.3 5.4-10.2 3.8-13.2-.7-1.6-1.9-3-3.4-4M159.5 389.4l-14.3-10.6c-.2-.1-.4 0-.4.2l-.9 5.3c0 .2-.2.3-.4.2l-5.5-2.3c-.2-.1-.4.1-.4.3l1.6 5.8c0 .2-.1.3-.3.4l-5.4.2c-.2 0-.3.2-.2.4l8.7 15.5c.9 1.6 2.1 3 3.5 4 2.8 1.9 7.6 3.4 13.6-2.1 6.1-5.3 5.4-10.2 3.8-13.2-.7-1.7-1.9-3-3.4-4.1M179.9 208.5l4.3-17.3c0-.2-.1-.4-.3-.3l-5.2 1.2q-.3 0-.3-.3v-6c0-.2-.3-.4-.5-.2l-4.7 3.7c-.1.1-.3.1-.4-.1l-2.3-4.9c-.1-.2-.3-.2-.5-.1l-10.9 14c-1.1 1.4-1.9 3-2.3 4.8-.7 3.4-.2 8.3 7.2 11.8 7.2 3.6 11.4 1 13.7-1.6 1-1.2 1.7-2.9 2.2-4.7M179.9 341l4.3-17.3c0-.2-.1-.4-.3-.3l-5.2 1.2q-.3 0-.3-.3v-6c0-.2-.3-.4-.5-.2l-4.7 3.7c-.1.1-.3.1-.4-.1l-2.3-4.9c-.1-.2-.3-.2-.5-.1l-10.9 14c-1.1 1.4-1.9 3-2.3 4.8-.7 3.4-.2 8.3 7.2 11.8 7.2 3.6 11.4 1 13.7-1.6 1-1.2 1.7-2.9 2.2-4.7" class="st3"/></g></g></svg>