<svg xmlns="http://www.w3.org/2000/svg" xml:space="preserve" width="336.533" height="478.133"><defs><path id="a" d="M91.149 438.373h198.056v98.491H91.149z"/></defs><path d="M.244.713V477.68H321.65c8.244 0 14.886-6.941 14.886-15.558V16.27c0-8.616-6.642-15.557-14.886-15.557H15.13Z" style="fill:#142449;fill-opacity:1;stroke:none;stroke-width:.436576"/><path d="M150.437 437.08v9.1h11.988c.456-3.234 2.95-5.713 5.965-5.713s5.508 2.48 5.964 5.712h11.988v-9.098zm17.953 5.503a4.158 4.655 0 0 0-4.157 4.655 4.158 4.655 0 0 0 4.157 4.655 4.158 4.655 0 0 0 4.158-4.655 4.158 4.655 0 0 0-4.158-4.655m-17.953 5.714v9.099h35.905v-9.099h-11.988c-.456 3.233-2.949 5.712-5.964 5.712-3.014 0-5.509-2.479-5.965-5.712z" style="fill:#d79132;fill-opacity:1;stroke-width:.399944"/><g aria-label="PASSPORT" style="font-weight:700;font-size:26.0867px;line-height:1.5;font-family:IrisUPC;-inkscape-font-specification:&quot;IrisUPC Bold&quot;;opacity:1;fill:#d79132;fill-rule:evenodd;stroke-width:.492977;stroke-linejoin:round;stroke-dasharray:.492977,.492977,.985956,.492977,.492977;paint-order:stroke fill markers"><path d="M109.274 378.058q0-1.465-.777-2.089-.764-.624-2.153-.624h-3.655v5.528h3.655q1.389 0 2.153-.675.777-.675.777-2.14m3.885-.025q0 3.324-1.681 4.7t-4.802 1.376h-3.987v6.75H98.79v-18.775h8.178q2.827 0 4.509 1.452 1.681 1.452 1.681 4.497M119.311 383.765h4.764l-2.344-7.388zm.242-11.68h4.433l6.65 18.775h-4.255l-1.21-3.86h-6.917l-1.3 3.86h-4.1zM135.858 385.064q.178 1.286.7 1.923.955 1.16 3.274 1.16 1.388 0 2.254-.306 1.643-.586 1.643-2.178 0-.93-.815-1.44-.815-.497-2.56-.879l-1.987-.445q-2.93-.663-4.05-1.44-1.899-1.3-1.899-4.063 0-2.522 1.835-4.19 1.834-1.67 5.388-1.67 2.967 0 5.056 1.58 2.102 1.567 2.204 4.56h-3.77q-.102-1.694-1.478-2.407-.917-.472-2.28-.472-1.516 0-2.42.612-.904.611-.904 1.707 0 1.006.891 1.503.573.33 2.446.777l3.235.777q2.127.51 3.21 1.363 1.681 1.324 1.681 3.834 0 2.573-1.974 4.28-1.961 1.694-5.553 1.694-3.669 0-5.77-1.669-2.102-1.681-2.102-4.611zM153.257 385.064q.178 1.286.7 1.923.956 1.16 3.274 1.16 1.389 0 2.255-.306 1.643-.586 1.643-2.178 0-.93-.815-1.44-.815-.497-2.56-.879l-1.988-.445q-2.93-.663-4.05-1.44-1.898-1.3-1.898-4.063 0-2.522 1.834-4.19 1.834-1.67 5.388-1.67 2.968 0 5.057 1.58 2.102 1.567 2.204 4.56h-3.77q-.103-1.694-1.478-2.407-.917-.472-2.28-.472-1.516 0-2.42.612-.905.611-.905 1.707 0 1.006.892 1.503.573.33 2.445.777l3.236.777q2.127.51 3.21 1.363 1.681 1.324 1.681 3.834 0 2.573-1.974 4.28-1.962 1.694-5.554 1.694-3.668 0-5.77-1.669-2.102-1.681-2.102-4.611zM178.389 378.058q0-1.465-.777-2.089-.765-.624-2.153-.624h-3.656v5.528h3.656q1.388 0 2.153-.675.777-.675.777-2.14m3.885-.025q0 3.324-1.682 4.7t-4.802 1.376h-3.987v6.75h-3.898v-18.775h8.178q2.828 0 4.51 1.452 1.68 1.452 1.68 4.497M193.52 388.057q2.332 0 3.695-1.72 1.375-1.719 1.375-4.89 0-3.16-1.375-4.88-1.363-1.731-3.694-1.731t-3.72 1.72q-1.388 1.719-1.388 4.89 0 3.172 1.388 4.892 1.389 1.72 3.72 1.72m8.994-6.61q0 5.056-2.84 7.744-2.128 2.19-6.153 2.19t-6.152-2.19q-2.854-2.688-2.854-7.745 0-5.158 2.854-7.744 2.127-2.19 6.152-2.19t6.152 2.19q2.84 2.586 2.84 7.744M209.43 375.345v5.044h4.446q1.324 0 1.987-.305 1.172-.535 1.172-2.115 0-1.707-1.134-2.293-.637-.33-1.91-.33zm5.375-3.26q1.975.037 3.032.483 1.07.446 1.809 1.312.611.714.968 1.58.356.866.356 1.974 0 1.338-.675 2.637-.675 1.286-2.229 1.821 1.3.522 1.835 1.49.547.956.547 2.93v1.261q0 1.287.102 1.745.153.726.713 1.07v.472h-4.318q-.178-.625-.254-1.007-.153-.79-.166-1.617l-.025-1.745q-.026-1.796-.663-2.395-.624-.599-2.356-.599h-4.05v7.363h-3.835v-18.776zM237.988 372.084v3.325h-5.617v15.45h-3.949v-15.45h-5.643v-3.325z" style="font-family:Helvetica;-inkscape-font-specification:&quot;Helvetica Bold&quot;"/></g><g style="fill:#d79132;fill-opacity:1"><path d="M345.144 171.14v115.611A20.41 20.41 0 0 0 357.39 305.4l42.638 18.754 42.638-18.754a20.41 20.41 0 0 0 12.247-18.649v-115.61Zm1.663 1.664h106.444v113.097c-.008 7.647-4.438 14.946-11.876 18.243l-41.346 18.347-41.346-18.347c-7.438-3.297-11.868-10.596-11.876-18.243zm53.222 8.316c-3.1 3.518-4.99 8.123-4.99 13.178.184 11.099 1.546 22.175 1.664 33.27.246 10.341-2.856 20.054-6.627 29.528-1.257 2.618-2.616 5.181-3.976 7.746l-4.002-.806c-3.601-.72-5.944-4.222-5.224-7.824.63-3.151 3.404-5.34 6.497-5.354l1.456.156-3.249-27.136c-1.062-12.084-7.295-22.684-16.476-29.58a42 42 0 0 0-4.99-3.223v96.38h22.246c1.663 9.031 6.632 16.899 13.617 22.302a13.4 13.4 0 0 1 4.054 4.418c1.001-1.763 2.393-3.273 4.054-4.418 6.985-5.403 11.954-13.27 13.618-22.302h22.245v-96.38a42 42 0 0 0-4.99 3.223c-9.181 6.896-15.414 17.496-16.476 29.58l-3.248 27.136 1.455-.156c3.094.014 5.867 2.203 6.497 5.354.72 3.602-1.623 7.104-5.224 7.824l-4.002.806c-1.36-2.565-2.72-5.128-3.976-7.746-3.771-9.474-6.873-19.187-6.627-29.528.119-11.095 1.48-22.171 1.664-33.27 0-5.055-1.89-9.66-4.99-13.178m-33.264 23.836a34.77 34.77 0 0 1 8.056 18.272l2.677 22.38a13.33 13.33 0 0 0-6.965 8.577h-3.768zm66.528 0v49.229h-3.768a13.33 13.33 0 0 0-6.965-8.577l2.677-22.38a34.77 34.77 0 0 1 8.056-18.272m-33.264 44.992a76 76 0 0 0 7.303 16.557 14.95 14.95 0 0 0-7.303 4.913 14.95 14.95 0 0 0-7.302-4.913 76.1 76.1 0 0 0 7.302-16.557m-33.264 10.89h3.768a13.36 13.36 0 0 0 9.33 9.488l3.196.728a36.6 36.6 0 0 0-1.325 9.747h-14.969zm62.76 0h3.768v19.963h-14.969c0-3.374-.47-6.644-1.325-9.747l3.196-.728a13.36 13.36 0 0 0 9.33-9.487m-39.969 11.75c4.036.57 7.147 4.02 7.147 8.213h-8.316c0-2.852.422-5.6 1.17-8.213m20.946 0a29.8 29.8 0 0 1 1.17 8.213h-8.317c0-4.193 3.111-7.643 7.147-8.213m-21.362 14.867h7.563v14.01a29.97 29.97 0 0 1-7.563-14.01m14.215 0h7.563a29.97 29.97 0 0 1-7.563 14.01z" style="fill:#d79132;fill-opacity:1;stroke-width:.332639" transform="translate(-231.64 -41.614)"/></g><g aria-label="UKRAINE" style="font-weight:700;font-size:26.0867px;line-height:1.5;font-family:IrisUPC;-inkscape-font-specification:&quot;IrisUPC Bold&quot;;opacity:1;fill:#d79132;fill-rule:evenodd;stroke-width:.492977;stroke-linejoin:round;stroke-dasharray:.492977,.492977,.985956,.492977,.492977;paint-order:stroke fill markers"><path d="M110.497 338.084h3.987v11.54q0 1.937.458 2.828.714 1.58 3.108 1.58 2.382 0 3.096-1.58.458-.891.458-2.827v-11.54h3.987v11.54q0 2.993-.93 4.662-1.732 3.057-6.61 3.057-4.88 0-6.624-3.057-.93-1.67-.93-4.662zM129.4 338.084h3.859v7.732l7.248-7.732h5.07l-7.694 7.732 8.088 11.044h-5.044l-5.796-8.203-1.872 1.923v6.28h-3.86zM152.098 341.345v5.044h4.445q1.325 0 1.988-.305 1.171-.535 1.171-2.115 0-1.707-1.133-2.293-.637-.33-1.91-.33zm5.375-3.26q1.975.037 3.032.483 1.07.446 1.809 1.312.611.714.968 1.58.356.866.356 1.974 0 1.338-.675 2.637-.675 1.286-2.229 1.821 1.3.522 1.834 1.49.548.956.548 2.93v1.261q0 1.287.102 1.745.153.726.713 1.07v.472h-4.318q-.178-.625-.255-1.007-.152-.79-.165-1.617l-.026-1.745q-.025-1.796-.662-2.395-.624-.599-2.356-.599h-4.051v7.363h-3.834v-18.776zM172.147 349.765h4.764l-2.344-7.388zm.242-11.68h4.433l6.649 18.775h-4.255l-1.21-3.86h-6.916l-1.3 3.86h-4.1zM189.445 356.86h-3.898v-18.776h3.898zM193.037 338.084h4.114l7.477 13.107v-13.107h3.656v18.776h-3.923l-7.668-13.337v13.337h-3.656zM225.824 341.409h-9.936v3.987h9.12v3.26h-9.12v4.828h10.394v3.376h-14.228v-18.776h13.77z" style="font-family:Helvetica;-inkscape-font-specification:&quot;Helvetica Bold&quot;"/></g><g aria-label="УКРАЇНА" style="font-weight:700;font-size:28.3369px;line-height:1.5;font-family:IrisUPC;-inkscape-font-specification:&quot;IrisUPC Bold&quot;;opacity:1;fill:#d79132;fill-rule:evenodd;stroke-width:.535501;stroke-linejoin:round;stroke-dasharray:.535501,.535501,1.071,.535501,.535501;paint-order:stroke fill markers"><path d="M108.277 57.959q.402.262.927.415.526.152 1.19.152.872 0 1.37-.512t.692-1.287l-7.209-15.248h4.788l4.62 10.931 4.055-10.93h4.566l-6.49 15.012q-1.272 2.975-2.697 4.414-1.426 1.425-3.183 1.425-.553 0-.968-.056-.402-.055-.706-.138-.29-.083-.526-.166-.221-.083-.429-.152zM125.933 41.48h4.247v8.274l7.776-8.275h5.493l-8.301 8.33 8.786 12.01h-5.383l-6.295-9.008-2.076 2.117v6.89h-4.247zM146.258 41.48h9.243q1.619 0 2.809.442 1.203.443 1.992 1.287t1.176 2.048q.388 1.204.388 2.74 0 1.424-.457 2.628-.457 1.19-1.328 2.062-.858.858-2.103 1.342t-2.823.484h-4.649v7.306h-4.248zm4.248 9.519h4.026q1.44 0 2.256-.706.83-.705.83-2.297 0-.802-.222-1.37-.207-.567-.608-.926-.388-.374-.969-.54-.567-.18-1.287-.18h-4.026zM170.68 41.48h4.856l7.195 20.339h-4.621l-1.301-4.193h-7.513l-1.412 4.193h-4.483zm-.25 12.632h5.189l-2.532-8.053h-.055zM185.11 41.48h4.249v20.339h-4.248zm-2.49-5.106h3.68v3.348h-3.68zm5.549 0h3.68v3.348h-3.68zM193.15 41.48h4.261v7.734h7.984v-7.735h4.248v20.34h-4.248v-9.09h-7.984v9.09h-4.261zM219.48 41.48h4.857l7.195 20.339h-4.622l-1.3-4.193h-7.513l-1.412 4.193h-4.483zm-.249 12.632h5.189l-2.532-8.053h-.056z" style="font-family:Helvetica;-inkscape-font-specification:&quot;Helvetica Bold&quot;"/></g><g aria-label="ПАСПОРТ" style="font-weight:700;font-size:28.3369px;line-height:1.5;font-family:IrisUPC;-inkscape-font-specification:&quot;IrisUPC Bold&quot;;opacity:1;fill:#d79132;fill-rule:evenodd;stroke-width:.535501;stroke-linejoin:round;stroke-dasharray:.535501,.535501,1.071,.535501,.535501;paint-order:stroke fill markers"><path d="M99.477 76.53h16.493v20.34h-4.247V80.03h-7.984V96.87h-4.262zM125.808 76.53h4.857l7.195 20.34h-4.622l-1.3-4.193h-7.514l-1.41 4.193h-4.484zm-.249 12.633h5.189l-2.532-8.053h-.056zM153.564 83.213q-.083-.29-.208-.664-.124-.387-.346-.775-.207-.387-.54-.76-.318-.374-.802-.665-.484-.29-1.162-.47t-1.591-.18q-.388 0-.913.097-.526.097-1.08.373-.553.263-1.093.748-.54.484-.968 1.272-.415.775-.678 1.882t-.263 2.63q0 1.646.346 2.946t.996 2.2q.65.9 1.563 1.384.928.47 2.09.47 1.342 0 2.186-.415t1.342-1.01q.512-.595.761-1.245.25-.65.387-1.135h4.22q-.345 1.91-1.148 3.321-.802 1.398-1.95 2.325-1.15.927-2.588 1.383-1.425.457-3.044.457-2.27 0-4.027-.747-1.743-.761-2.947-2.159-1.19-1.397-1.812-3.362-.623-1.979-.623-4.414 0-1.882.36-3.404t.996-2.698q.65-1.19 1.522-2.048.872-.871 1.896-1.425 1.037-.567 2.172-.83 1.135-.277 2.297-.277 1.66 0 2.947.346t2.255.927 1.647 1.329q.692.747 1.12 1.55.443.788.65 1.59.222.79.278 1.453zM160.87 76.53h16.492v20.34h-4.247V80.03h-7.984V96.87h-4.262zM180.6 86.7q0-2.283.609-4.234.609-1.95 1.826-3.376 1.218-1.439 3.058-2.255 1.84-.817 4.29-.817 2.255 0 4.067.817 1.813.816 3.072 2.255 1.273 1.425 1.95 3.376.679 1.951.679 4.234 0 2.27-.678 4.234-.678 1.951-1.951 3.39-1.26 1.425-3.072 2.241t-4.068.817q-2.449 0-4.289-.817-1.84-.816-3.058-2.241-1.217-1.439-1.826-3.39-.609-1.965-.609-4.234m9.782 7.001q1.301 0 2.325-.525 1.024-.526 1.73-1.453.719-.941 1.093-2.214.373-1.287.373-2.809t-.373-2.795q-.374-1.287-1.094-2.214-.705-.94-1.73-1.466-1.023-.526-2.324-.526t-2.324.526q-1.024.525-1.744 1.466-.705.927-1.093 2.214-.373 1.273-.373 2.795t.373 2.809q.388 1.273 1.093 2.214.72.927 1.744 1.453 1.024.525 2.324.525M203.72 76.53h9.243q1.62 0 2.81.443 1.203.443 1.992 1.287t1.176 2.048q.387 1.203.387 2.74 0 1.424-.457 2.628-.456 1.19-1.328 2.062-.858.858-2.103 1.342t-2.823.484h-4.649v7.306h-4.247zm4.248 9.52h4.027q1.439 0 2.255-.706.83-.705.83-2.297 0-.802-.221-1.37-.208-.567-.609-.927-.387-.373-.968-.54-.568-.179-1.287-.179h-4.027zM220.643 76.53h16.659v3.501h-6.213V96.87h-4.248V80.03h-6.198z" style="font-family:Helvetica;-inkscape-font-specification:&quot;Helvetica Bold&quot;"/></g></svg>