<svg xmlns="http://www.w3.org/2000/svg" width="332.465" height="472.26"><path d="M229.804 486.542v472.26h317.748c8.15 0 14.716-6.872 14.716-15.404V501.945c0-8.53-6.565-15.403-14.716-15.403H229.804" style="fill:#800020;fill-opacity:1;stroke:none" transform="translate(-229.804 -486.542)"/><path d="m335.196 548.11-.046.383-.149.592-.224.558-.254.553-.338.503-.338.47-.41.468-.444.39-.484.377-.481.305-.558.263-.56.219-.592.172-.635.08-.635.049-.631-.032-.598-.091-.596-.168-.56-.216-.555-.264-.49-.29-.483-.379-.448-.392-.41-.466-.335-.469-.337-.502-.268-.554-.186-.554-.183-.592-.048-.42-11.248.03.023 9.135 35.784-.11-.017-9.092-12.257.038m-3.567-2.618-.409-.428-.445-.388-.524-.293-.595-.167-.636-.079-.593.09-.6.172-.524.292-.445.39-.41.427-.266.548-.185.551-.068.635.073.64.19.593.265.512.409.465.45.374.523.291.598.215.596.046.633-.048.594-.213.527-.293.443-.39.406-.473.264-.508.185-.594.074-.643-.075-.632-.184-.556-.267-.546m-8.518-.006-.022.087.186-.593.258-.508.33-.518.34-.505.406-.425.446-.39.484-.386.486-.288.558-.264.556-.217.599-.173.6-.074.63-.048.637.048.635.078.591.167.56.216.559.264.489.29.479.382.454.376.407.426.343.51.34.506.261.506.217.599-.02.094 12.43-.037-.021-8.672-35.787.109.022 8.628 11.467-.034" style="fill:#ffd283;fill-opacity:1;fill-rule:evenodd;stroke:none" transform="translate(-168.542 -126.048)"/><path d="M329 1c109.391 0 218.61 18.6 328 54.695C657 311.46 659.121 582.599 329 728-1.209 582.599 1 311.46 1 55.695 110.303 19.6 219.696 1 329 1" style="fill:#ffd283;fill-opacity:1;fill-rule:evenodd;stroke:none;stroke-width:2;stroke-miterlimit:4;stroke-dasharray:none;stroke-opacity:1" transform="matrix(.18587 0 0 .183 97.012 149.671)"/><path d="M329 36.513c98.654 0 197.308 16.751 295.96 49.328 0 230.896 1.941 475.501-295.96 606.732C31.055 561.343 33.04 316.737 33.04 85.841 131.691 53.265 230.345 36.513 329 36.513" style="fill:#800020;fill-opacity:1" transform="matrix(.18587 0 0 .183 97.012 149.671)"/><path d="M334.397 189.913c4.176 4.874 6.972 9.744 6.972 15.668-3.507 1.733-8.351 2.441-11.147 5.574 17.41-2.443 20.878 17.746 40.376 10.085.708 2.796 3.504 5.236 6.971 4.18l2.088-5.56c7.643-2.087 5.555 10.438 13.94 7.997 4.18 3.486 1.383 9.396 4.18 13.59 0 4.865 2.089 9.041 4.174 13.216 2.09-2.424 3.468-5.91 8.351-4.865 3.468 3.821 6.265 7.308 6.97 11.482-1.415 8.016-3.503 14.97 4.848 19.144v2.441c5.592 2.442 18.12-2.441 18.12 7.308-.71 3.486 3.467.355 4.882 2.441 3.469-1.398 8.351-.688 12.526-.688 3.469 7.307-4.175 12.526-6.263 19.143 3.467 3.468 2.088 9.75 1.38 13.905l-2.089 1.045c5.555 1.043 12.526-.671 17.411 2.46l9.06 3.467c4.174-2.422 9.023-2.794 14.613-2.422 4.177 3.133-1.415 8.35 2.09 10.775 4.884 0 9.059.709 9.73 4.885l.708 1.379c3.468-6.264 13.235-2.09 17.411-6.599 6.97 0 8.35 7.643 11.817 11.82 1.417 10.81-11.817 15.695-7.642 26.469-2.796 5.218-8.351 9.395-12.526 14.278 1.379.708.67 2.424.67 3.467-4.175 2.462-.67 9.768-6.263 10.442-.671 4.546-9.022 2.795-6.263 7.677 5.59 7.308-2.76 11.82-2.76 18.455-3.504 3.84-10.475-3.505-10.475 3.84-4.177 1.043-8.351-3.84-11.11.336-1.416 4.884 2.759 6.599 2.087 11.483 6.936-.71 9.024 6.263 11.82 10.439l6.97 6.97c-6.97 5.556-16.03-.708-24.383 2.423-2.088-1.043 0-3.802-2.088-4.846-2.088-2.461-6.263-2.461-9.73-3.134.671 3.134-5.592 4.176-2.796 7.979 0 1.043 1.38 4.176-1.38 4.176-5.592 1.753-4.883-4.846-9.768-2.423-6.263 2.423-1.379 11.819-10.438 10.774 1.379 8.39-13.906 13.944-3.468 21.252 1.379 1.38.67 4.175.67 6.263-6.263 5.592-17.375 3.505-24.345 1.416-5.592-1.416-2.088-8.388-4.175-12.19-2.088-3.504-8.35-5.928-8.35-10.812-4.18-1.717-7.68-2.793-10.477-6.264-9.73 9.395-21.582 18.454-35.492 18.79-6.263 3.131-9.767 15.697-19.498 10.475-3.822 6.265-15.323 0-16.013 9.024-4.53 1.752-2.442 7.68-5.219 10.438-1.044 6.971 0 12.899 5.909 17.076 2.441 5.218-5.22 5.218-2.088 10.104.709 1.715 0 4.175-1.044 4.882-2.088 1.044-2.777 2.09-2.088 4.177-1.733 0-2.44 1.043-3.821 2.422-1.753 3.468-7.308 5.22-11.147 7.643-3.822 1.043-6.618-1.716-9.042-4.175-.709 3.84-3.839 5.928-7.66 5.928-5.575 0-4.53-4.884-8.706-6.971 1.733-6.264-3.84-9.024-2.088-14.616 4.528-3.467 12.172-5.927 10.084-13.233-4.865-5.892-3.131-14.616-7.996-21.587-3.132-2.759-8.351-6.934-6.618-13.57 4.53-5.219 0-11.483-2.441-17.038-1.044-4.547-3.822-8.722-3.822-13.943-7.66-4.51-8.015-16.367-18.808-17.41-7.66 0-9.041-9.731-16.702-9.06-.708-1.38-2.441-2.423-3.84-3.803-5.554 3.803-12.525-1.043-19.48.671-4.53-7.643 3.822-18.082-8.369-22.63V419c1.398.67 2.089-.71 2.442-1.417.69-5.22-8.706-5.89-4.865-11.819-2.088-1.751-4.53-2.46-3.132-5.927-5.237-10.775-20.896-9.73-24.382-20.542 2.796-2.422 2.796-4.884 3.84-6.97-2.442-4.177-3.13-8.689-2.442-13.2 2.443-.708 3.822-3.838 5.22-6.3-3.132-2.087-6.955-5.219-10.44-4.175-6.262-1.044-10.793-5.89-16.366-8.687-1.398-1.38-.689-3.84-.689-5.555 7.66-2.462-1.043-13.254 8.351-11.855 2.443-3.131 7.661-4.176 11.484-6.617 3.84-.69 6.97.708 10.792 1.752 3.132 4.157 8.706 2.424 11.836 5.909 3.132-.708 6.973-2.443 10.794-.708 0-5.91 2.778-9.396 6.971-13.572.69-2.424 4.512-4.175 7.643-5.555 5.929 1.38 12.882 1.38 17.076-2.796 2.778 1.751 5.22-1.734 8.351-1.734 3.82-.708 6.953.336 9.75 2.088.335-6.972 12.525-1.044 14.968-9.395 2.778-5.575-7.661-7.661-6.972-12.545-1.734-5.575 2.442-8.351 4.53-12.173 2.44-1.045 5.219-2.441 8.35-1.753 8.016-2.778 1.751-19.143 14.633-13.216 0 1.735-.708 3.822.336 4.176 4.53 0 5.224-5.224 8.37-6.97 1.379-4.865-1.751-10.793 2.424-14.616 2.088-.353 3.839-1.043 5.22-2.796 0-3.821-2.089-5.908-5.22-8.35-1.044 1.74-3.822.354-5.57 1.044 0-4.176-2.428-6.953-3.136-10.794-2.088-1.043-3.132-2.777-2.424-5.22 3.132-3.13 0-10.792 7.308-9.055 2.778-2.427 7.66-.693 10.44-4.87 7.307-4.175 17.055-4.175 22.629-11.836 2.441.354 5.22-2.088 7.66 0 .692 4.529 7.31 2.776 7.31 6.961M388.296 95.522l-9.625-29.589-9.506 29.589H338.03l25.192 18.3-9.625 29.588 25.073-18.3 25.192 18.3-9.625-29.589 25.191-18.3zM486.211 112.752l-9.625-29.47-9.506 29.47h-31.134l25.192 18.3-9.625 29.588 25.073-18.3 25.192 18.3-9.625-29.588 25.191-18.3zM579.61 146.737l-9.506-29.47-9.625 29.47h-31.133l25.192 18.3-9.625 29.588 25.191-18.3 25.073 18.3-9.625-29.588 25.192-18.3zM288.836 95.522l-9.506-29.589-9.625 29.589h-31.133l25.191 18.3-9.625 29.588 25.192-18.3 25.073 18.3-9.625-29.589 25.191-18.3zM190.921 112.752l-9.506-29.47-9.625 29.47h-31.134l25.192 18.3-9.625 29.588 25.192-18.3 25.073 18.3-9.625-29.588 25.191-18.3zM97.522 146.737l-9.626-29.47-9.506 29.47H47.257l25.192 18.3-9.626 29.588 25.073-18.3 25.192 18.3-9.625-29.588 25.192-18.3z" style="fill:#ffd283;fill-opacity:1;stroke-width:1.18829" transform="matrix(.18587 0 0 .183 97.012 149.671)"/><g aria-label="REPUBLIKA E KOSOVËS" style="font-size:17.8029px;line-height:1.25;-inkscape-font-specification:&quot;sans-serif, Normal&quot;;fill:#ffd283;stroke-width:1.02709"><path d="M74.183 53.06h-1.931l-3.743-5.953h-2.096v5.953h-1.488V38.087h3.133q1.015 0 1.691.18.677.172 1.218.624.608.513.946 1.298.346.774.346 1.97 0 1.62-.609 2.716-.608 1.086-1.675 1.639zm-3.48-10.76q0-.643-.172-1.136-.166-.503-.556-.845-.323-.291-.767-.402-.443-.12-1.044-.12h-1.751v5.65h1.503q.706 0 1.232-.16.526-.17.894-.623.338-.423.496-.966.166-.553.166-1.398M82.997 53.06h-7.371V38.087h7.371v1.77h-5.884v4.103h5.884v1.77h-5.884v5.56h5.884zM92.676 42.612q0 .996-.263 1.85-.256.845-.722 1.469-.578.774-1.367 1.166-.79.382-1.992.382h-1.487v5.581h-1.488V38.087h3.036q1.006 0 1.705.231.7.221 1.24.704.639.573.985 1.428.353.855.353 2.162m-1.548.05q0-.774-.203-1.347t-.616-.935q-.361-.312-.827-.443-.458-.14-1.165-.14h-1.472v5.983h1.254q.902 0 1.466-.211.563-.222.917-.694.353-.483.495-1.016.15-.533.15-1.197M103.06 47.047q0 1.629-.27 2.846-.263 1.206-.872 2.01-.578.765-1.352 1.117t-1.804.352q-1.052 0-1.833-.372-.782-.372-1.315-1.096-.609-.825-.88-1.991-.262-1.167-.262-2.866v-8.96h1.488v9.06q0 1.217.12 1.921.128.704.42 1.277.331.654.895.986.57.332 1.367.332.804 0 1.368-.322.564-.332.902-.996.293-.573.413-1.307.128-.744.128-1.84v-9.111h1.488zM114.34 48.455q0 1.116-.316 1.97-.315.855-.849 1.408-.631.664-1.39.946-.752.281-1.916.281H105.9V38.087h3.314q1.225 0 1.834.12.608.121 1.164.503.616.433.894 1.117.279.673.279 1.619 0 1.066-.406 1.82-.406.744-1.082 1.196v.08q1.134.313 1.788 1.338.654 1.016.654 2.575m-2.502-6.748q0-.543-.136-.915-.135-.372-.436-.603-.353-.272-.856-.332-.504-.07-1.248-.07h-1.773v4.323h1.924q.699 0 1.112-.09.413-.1.766-.402t.496-.775q.15-.482.15-1.136m.954 6.828q0-.905-.203-1.438t-.736-.905q-.361-.251-.88-.322-.51-.08-1.247-.08h-2.337v5.57h1.969q.977 0 1.6-.13.624-.14 1.022-.503.421-.392.616-.895.196-.502.196-1.297M123.53 53.06h-7.079V38.087h1.488V51.29h5.591zM128.963 53.06h-4.419v-1.528h1.466V39.615h-1.466v-1.528h4.419v1.528h-1.465v11.917h1.465zM140.49 53.06h-1.931l-4.426-6.667-1.112 1.589v5.078h-1.488V38.087h1.488V45.9l5.433-7.813h1.803l-4.997 7.04zM150.98 53.06h-1.585l-1.097-4.173h-4.84l-1.097 4.173h-1.51l4.073-14.973h1.983zm-3.14-5.882-1.962-7.351-1.969 7.35zM165.46 53.06h-7.371V38.087h7.372v1.77h-5.884v4.103h5.884v1.77h-5.884v5.56h5.884zM182.225 53.06h-1.931l-4.426-6.667-1.112 1.589v5.078h-1.488V38.087h1.488V45.9l5.433-7.813h1.803l-4.997 7.04zM192.084 39.806q.684 1.006 1.045 2.464.368 1.458.368 3.309 0 1.85-.376 3.318-.368 1.458-1.037 2.434-.691 1.015-1.638 1.528-.94.513-2.15.513-1.179 0-2.148-.523-.962-.523-1.638-1.518-.677-.996-1.045-2.444-.36-1.448-.36-3.308 0-1.83.36-3.279.36-1.458 1.052-2.494.661-.985 1.638-1.508.985-.523 2.142-.523 1.202 0 2.157.533.961.523 1.63 1.498m-.135 5.773q0-2.917-.977-4.495-.977-1.59-2.668-1.59-1.705 0-2.682 1.59-.97 1.578-.97 4.495 0 2.946.992 4.515.992 1.558 2.66 1.558t2.653-1.558q.992-1.569.992-4.515M203.987 48.787q0 .874-.308 1.73-.3.854-.85 1.447-.6.644-1.404 1.006-.797.362-1.924.362-1.21 0-2.18-.302-.961-.302-1.96-.895v-2.494h.105q.849.946 1.96 1.458 1.113.513 2.09.513 1.383 0 2.149-.694.774-.693.774-1.85 0-.995-.368-1.468-.36-.473-1.105-.734-.563-.201-1.225-.332-.653-.13-1.39-.332-1.488-.422-2.21-1.438-.713-1.026-.713-2.665 0-1.88 1.187-3.077 1.188-1.207 3.014-1.207 1.18 0 2.164.302t1.743.744v2.353h-.105q-.639-.724-1.683-1.196-1.037-.483-2.127-.483-1.195 0-1.924.664-.721.663-.721 1.71 0 .934.36 1.467.361.533 1.27.815.482.14 1.368.342.887.2 1.503.412 1.248.443 1.879 1.338t.631 2.504M214.718 39.806q.683 1.006 1.044 2.464.368 1.458.368 3.309 0 1.85-.375 3.318-.369 1.458-1.037 2.434-.692 1.015-1.639 1.528-.939.513-2.149.513-1.18 0-2.149-.523-.962-.523-1.638-1.518-.676-.996-1.044-2.444-.361-1.448-.361-3.308 0-1.83.36-3.279.361-1.458 1.053-2.494.66-.985 1.638-1.508.984-.523 2.141-.523 1.203 0 2.157.533.962.523 1.63 1.498m-.136 5.773q0-2.917-.977-4.495-.976-1.59-2.667-1.59-1.706 0-2.683 1.59-.97 1.578-.97 4.495 0 2.946.993 4.515.992 1.558 2.66 1.558t2.652-1.558q.992-1.569.992-4.515M227.312 38.087l-4.073 14.973h-1.984l-4.073-14.973h1.593l3.51 13.173 3.509-13.173zM236.382 53.06h-7.372V38.087h7.372v1.77h-5.884v4.103h5.884v1.77h-5.884v5.56h5.884zm-1.075-16.864h-1.495v-1.96h1.495zm-3.103 0h-1.496v-1.96h1.496zM246.872 48.787q0 .874-.308 1.73-.3.854-.85 1.447-.6.644-1.405 1.006-.796.362-1.923.362-1.21 0-2.18-.302-.961-.302-1.96-.895v-2.494h.104q.85.946 1.962 1.458 1.112.513 2.089.513 1.382 0 2.149-.694.774-.693.774-1.85 0-.995-.368-1.468-.361-.473-1.105-.734-.564-.201-1.225-.332-.654-.13-1.39-.332-1.488-.422-2.21-1.438-.713-1.026-.713-2.665 0-1.88 1.187-3.077 1.187-1.207 3.013-1.207 1.18 0 2.165.302.984.302 1.743.744v2.353h-.105q-.639-.724-1.683-1.196-1.037-.483-2.127-.483-1.195 0-1.924.664-.721.663-.721 1.71 0 .934.36 1.467.361.533 1.27.815.481.14 1.368.342.887.2 1.503.412 1.247.443 1.879 1.338.63.895.63 2.504"/></g><g aria-label="РEПУБЛИKA КOCOBO" style="font-size:17.1644px;line-height:1.25;-inkscape-font-specification:&quot;sans-serif, Normal&quot;;fill:#ffd283;stroke-width:.990247"><path d="M72.673 63.142q0 .838-.29 1.557-.282.711-.797 1.236-.639.651-1.51.981-.872.322-2.2.322h-1.643v4.697H64.59V59.333h3.353q1.112 0 1.884.195.772.186 1.37.592.705.483 1.086 1.202.39.72.39 1.82m-1.71.042q0-.652-.223-1.134-.224-.483-.68-.787-.4-.263-.914-.373-.506-.118-1.286-.118h-1.627v5.036h1.386q.996 0 1.618-.178.623-.186 1.013-.584.39-.406.548-.855.166-.448.166-1.007M82.981 71.935H74.84V59.333h8.142v1.49h-6.498v3.453h6.498v1.49h-6.498v4.68h6.498zM95.04 71.935h-1.643V60.823H87.23v11.112h-1.643V59.333h9.453zM107.107 59.333l-4.697 10.605q-.282.643-.672 1.058-.382.415-.83.643-.432.212-.839.288-.398.068-.771.068-.332 0-.805-.034l-.606-.043v-1.565h.116l.415.059q.29.034.664.034.166 0 .465-.026.298-.025.53-.118.266-.102.524-.322.265-.22.448-.643l.299-.669-4.598-9.335h1.817l3.61 7.431 3.237-7.43zM118.145 68.034q0 .914-.357 1.659-.348.744-.937 1.21-.698.558-1.494.795-.797.237-2.058.237h-4.482V59.333h8.274v1.49h-6.63v3.453h2.887q1.262 0 2.059.152.796.144 1.502.703.63.499.93 1.235.306.737.306 1.668m-1.718.033q0-.634-.207-1.117-.208-.482-.647-.778-.457-.314-1.054-.381-.598-.068-1.685-.068h-2.374v4.782h2.332q1.104 0 1.693-.11.598-.11 1.046-.423.465-.33.68-.77.216-.449.216-1.134M129.632 71.935h-1.644V60.823h-4.465q-.025.956-.074 1.879-.042.914-.067 1.633-.066 1.811-.224 2.98-.15 1.167-.39 1.92-.24.762-.548 1.22-.298.448-.688.812-.399.372-.822.533-.415.16-.98.16-.174 0-.423-.016-.249-.008-.348-.008V70.31h.116q.083.008.207.017.125.008.25.008.298 0 .564-.093t.448-.288q.59-.601.863-1.98.282-1.38.398-3.928.042-.83.083-2.2.05-1.371.083-2.514h7.66zM142.388 71.935h-1.635V61.838l-6.142 10.097h-1.66V59.333h1.635v9.945l6.067-9.945h1.735zM155.642 71.935h-2.133l-4.889-5.611-1.228 1.337v4.274h-1.643V59.333h1.643v6.576l6-6.576h1.992l-5.519 5.925zM167.228 71.935h-1.752l-1.211-3.512h-5.345l-1.212 3.512h-1.668l4.498-12.602h2.191zm-3.47-4.95-2.166-6.188-2.174 6.187zM185.013 71.935h-2.108l-5.021-5.746h-1.12v5.746h-1.644V59.333h1.643v5.654q.424-.008.797-.085.374-.076.706-.288.332-.194.655-.55.324-.364.573-.888.108-.229.249-.576.15-.347.299-.728.572-1.405 1.336-1.972.772-.567 2.266-.567h.655v1.498h-.689q-.572 0-.896.11-.324.102-.58.347-.242.22-.424.593-.174.372-.365.871-.432 1.118-.88 1.642-.44.525-1.187.914zM196.068 60.78q.755.847 1.153 2.074.407 1.227.407 2.784 0 1.558-.415 2.793-.407 1.228-1.145 2.049-.764.854-1.81 1.286-1.037.432-2.373.432-1.303 0-2.374-.44-1.062-.44-1.81-1.278-.746-.838-1.153-2.057-.398-1.219-.398-2.785 0-1.54.398-2.759.399-1.227 1.162-2.099.73-.83 1.81-1.27 1.087-.44 2.365-.44 1.328 0 2.382.45 1.062.44 1.8 1.26m-.15 4.858q0-2.454-1.079-3.783-1.079-1.337-2.946-1.337-1.884 0-2.963 1.337-1.07 1.329-1.07 3.783 0 2.48 1.095 3.8 1.096 1.312 2.938 1.312t2.93-1.311q1.095-1.32 1.095-3.8M209.778 71.021q-.456.203-.83.381-.365.178-.963.373-.506.16-1.103.27-.59.119-1.303.119-1.345 0-2.449-.381-1.095-.39-1.908-1.21-.797-.804-1.245-2.04-.449-1.244-.449-2.886 0-1.557.432-2.785.432-1.227 1.245-2.073.788-.821 1.9-1.253 1.12-.431 2.482-.431.996 0 1.984.245.995.245 2.207.863v1.99h-.124q-1.021-.872-2.025-1.27t-2.15-.398q-.938 0-1.693.313-.747.305-1.336.956-.573.635-.897 1.609-.315.964-.315 2.234 0 1.329.349 2.285.357.956.913 1.557.58.627 1.352.931.78.297 1.644.297 1.186 0 2.224-.415 1.037-.415 1.942-1.244h.116zM221.314 60.78q.755.847 1.154 2.074.406 1.227.406 2.784 0 1.558-.415 2.793-.406 1.228-1.145 2.049-.763.854-1.81 1.286-1.036.432-2.373.432-1.303 0-2.373-.44-1.063-.44-1.81-1.278-.746-.838-1.153-2.057-.399-1.219-.399-2.785 0-1.54.399-2.759.398-1.227 1.162-2.099.73-.83 1.809-1.27 1.087-.44 2.365-.44 1.328 0 2.382.45 1.063.44 1.801 1.26m-.15 4.858q0-2.454-1.078-3.783-1.079-1.337-2.946-1.337-1.884 0-2.963 1.337-1.07 1.329-1.07 3.783 0 2.48 1.095 3.8 1.095 1.312 2.938 1.312 1.842 0 2.93-1.311 1.095-1.32 1.095-3.8M234.8 68.06q0 .939-.348 1.658-.349.72-.938 1.185-.697.558-1.535.795-.83.237-2.117.237h-4.382V59.333h3.66q1.353 0 2.025.102.673.101 1.287.423.68.364.987.94.308.566.308 1.362 0 .897-.449 1.532-.448.626-1.195 1.007v.068q1.253.262 1.976 1.125.722.855.722 2.167m-2.763-5.68q0-.457-.15-.77-.149-.313-.48-.508-.39-.229-.947-.28-.556-.059-1.378-.059h-1.958v3.64h2.124q.772 0 1.229-.076.456-.085.846-.339t.548-.652q.166-.406.166-.956m1.054 5.747q0-.762-.224-1.21-.224-.45-.814-.762-.398-.212-.97-.271-.565-.068-1.378-.068h-2.581v4.69h2.174q1.079 0 1.768-.11.689-.12 1.129-.424.464-.33.68-.753.216-.424.216-1.092M246.345 60.78q.755.847 1.154 2.074.406 1.227.406 2.784 0 1.558-.415 2.793-.406 1.228-1.145 2.049-.764.854-1.81 1.286-1.037.432-2.373.432-1.303 0-2.374-.44-1.062-.44-1.809-1.278t-1.153-2.057q-.399-1.219-.399-2.785 0-1.54.399-2.759.398-1.227 1.161-2.099.73-.83 1.81-1.27 1.087-.44 2.365-.44 1.328 0 2.382.45 1.062.44 1.8 1.26m-.15 4.858q0-2.454-1.078-3.783-1.08-1.337-2.947-1.337-1.884 0-2.963 1.337-1.07 1.329-1.07 3.783 0 2.48 1.095 3.8 1.096 1.312 2.938 1.312t2.93-1.311q1.096-1.32 1.096-3.8"/></g><g aria-label="REPUBLIC OF KOSOVO" style="font-size:17.424px;line-height:1.25;-inkscape-font-specification:&quot;sans-serif, Normal&quot;;fill:#ffd283;stroke-width:1.00522"><path d="M74.373 91.36h-2.04l-3.955-5.395h-2.216v5.396H64.59V77.789H67.9q1.072 0 1.787.164.715.155 1.287.565.643.465 1 1.176.365.701.365 1.786 0 1.468-.643 2.461-.643.985-1.77 1.486zm-3.676-9.752q0-.584-.183-1.03-.175-.456-.588-.766-.341-.264-.81-.365-.468-.109-1.104-.109h-1.85v5.123h1.588q.747 0 1.303-.146.556-.155.945-.565.357-.383.524-.875.175-.502.175-1.267M83.688 91.36h-7.79V77.79h7.79v1.604H77.47v3.719h6.218v1.604H77.47v5.04h6.218zM93.916 81.89q0 .903-.277 1.677-.27.766-.763 1.331-.611.702-1.445 1.058-.834.346-2.104.346h-1.573v5.059h-1.572V77.789h3.208q1.064 0 1.803.21.738.2 1.31.637.675.52 1.04 1.295.373.774.373 1.96m-1.635.046q0-.702-.215-1.222-.214-.52-.651-.847-.381-.283-.874-.401-.484-.128-1.23-.128h-1.557v5.423h1.326q.953 0 1.549-.191.595-.2.969-.629.373-.437.524-.92.159-.484.159-1.085M104.891 85.91q0 1.477-.286 2.58-.278 1.093-.92 1.822-.612.693-1.43 1.012t-1.906.32q-1.112 0-1.938-.338-.826-.337-1.39-.994-.643-.747-.929-1.804-.278-1.058-.278-2.598v-8.121h1.573V86q0 1.103.127 1.741.135.638.445 1.158.349.592.945.893.603.3 1.445.3.85 0 1.445-.291.596-.3.953-.902.31-.52.437-1.185.135-.675.135-1.668v-8.258h1.572zM116.81 87.186q0 1.012-.333 1.787t-.897 1.276q-.667.601-1.47.856-.793.256-2.024.256h-4.193V77.789h3.502q1.294 0 1.938.109.643.11 1.23.456.652.392.945 1.011.294.611.294 1.468 0 .966-.429 1.65-.428.674-1.143 1.084v.073q1.2.283 1.89 1.213.69.92.69 2.333m-2.644-6.116q0-.492-.143-.83-.142-.337-.46-.546-.373-.247-.905-.301-.532-.064-1.319-.064h-1.874v3.92h2.033q.739 0 1.175-.083.437-.09.81-.364t.525-.702q.158-.438.158-1.03m1.009 6.189q0-.82-.214-1.303-.215-.484-.779-.82-.38-.229-.929-.293-.54-.072-1.318-.072h-2.47v5.05h2.08q1.033 0 1.692-.12.66-.127 1.08-.455.445-.356.651-.811t.207-1.176M126.523 91.36h-7.48V77.79h1.572v11.967h5.908zM132.264 91.36h-4.67v-1.385h1.55V79.174h-1.55v-1.385h4.67v1.385h-1.548v10.801h1.548zM144.073 90.376q-.437.219-.794.41-.35.192-.921.401-.485.174-1.057.292-.563.128-1.246.128-1.287 0-2.343-.41-1.048-.42-1.827-1.304-.762-.866-1.19-2.197-.43-1.34-.43-3.108 0-1.677.413-2.999.413-1.321 1.192-2.233.754-.884 1.818-1.349 1.072-.465 2.375-.465.952 0 1.897.265.953.264 2.113.93v2.141h-.12q-.976-.938-1.937-1.367-.96-.428-2.057-.428-.897 0-1.62.337-.714.328-1.278 1.03-.548.684-.858 1.732-.302 1.039-.302 2.406 0 1.431.334 2.461.341 1.03.873 1.677.556.675 1.295 1.003.746.32 1.572.32 1.136 0 2.128-.448.993-.446 1.859-1.34h.11zM160.829 79.347q.722.912 1.103 2.233.39 1.322.39 3 0 1.676-.398 3.007-.389 1.322-1.095 2.206-.731.92-1.732 1.385-.992.465-2.27.465-1.247 0-2.272-.474-1.016-.474-1.731-1.376t-1.104-2.215q-.381-1.313-.381-2.999 0-1.659.381-2.971.381-1.322 1.112-2.26.699-.894 1.731-1.368 1.04-.474 2.263-.474 1.27 0 2.28.483 1.016.474 1.723 1.358m-.143 5.232q0-2.643-1.033-4.074-1.032-1.44-2.819-1.44-1.802 0-2.835 1.44-1.024 1.43-1.024 4.074 0 2.67 1.048 4.093 1.048 1.413 2.811 1.413t2.803-1.413q1.049-1.422 1.049-4.093M172.367 79.393h-5.98v3.828h5.138v1.604h-5.138v6.536h-1.572V77.789h7.552zM189.385 91.36h-2.04l-4.678-6.043-1.176 1.44v4.604h-1.572V77.789h1.572v7.082l5.742-7.082h1.906l-5.281 6.38zM199.804 79.347q.722.912 1.104 2.233.389 1.322.389 3 0 1.676-.397 3.007-.39 1.322-1.096 2.206-.73.92-1.731 1.385-.993.465-2.272.465-1.246 0-2.27-.474-1.017-.474-1.732-1.376t-1.104-2.215q-.38-1.313-.38-2.999 0-1.659.38-2.971.381-1.322 1.112-2.26.699-.894 1.731-1.368 1.04-.474 2.263-.474 1.271 0 2.28.483 1.016.474 1.723 1.358m-.143 5.232q0-2.643-1.033-4.074-1.032-1.44-2.819-1.44-1.802 0-2.835 1.44-1.024 1.43-1.024 4.074 0 2.67 1.048 4.093 1.048 1.413 2.811 1.413t2.804-1.413q1.048-1.422 1.048-4.093M212.383 87.487q0 .793-.326 1.568-.318.774-.897 1.312-.636.583-1.485.912-.842.328-2.033.328-1.279 0-2.303-.274-1.017-.273-2.073-.81v-2.261h.111q.898.856 2.073 1.321t2.208.465q1.46 0 2.27-.629.819-.629.819-1.677 0-.902-.39-1.33-.38-.43-1.167-.666-.595-.182-1.294-.3-.691-.12-1.47-.302-1.572-.383-2.334-1.303-.754-.93-.754-2.416 0-1.704 1.254-2.789 1.255-1.094 3.185-1.094 1.246 0 2.287.274 1.04.273 1.842.674v2.133h-.111q-.675-.656-1.779-1.084-1.096-.438-2.247-.438-1.263 0-2.033.602-.763.601-.763 1.55 0 .847.382 1.33.38.483 1.342.738.508.128 1.445.31.937.183 1.588.374 1.318.401 1.985 1.212.668.811.668 2.27M223.723 79.347q.722.912 1.103 2.233.39 1.322.39 3 0 1.676-.398 3.007-.389 1.322-1.095 2.206-.731.92-1.732 1.385-.992.465-2.27.465-1.248 0-2.272-.474-1.016-.474-1.731-1.376t-1.104-2.215q-.381-1.313-.381-2.999 0-1.659.381-2.971.381-1.322 1.112-2.26.699-.894 1.731-1.368 1.04-.474 2.263-.474 1.27 0 2.28.483 1.016.474 1.723 1.358m-.143 5.232q0-2.643-1.033-4.074-1.032-1.44-2.819-1.44-1.803 0-2.835 1.44-1.024 1.43-1.024 4.074 0 2.67 1.048 4.093 1.048 1.413 2.811 1.413t2.803-1.413q1.049-1.422 1.049-4.093M237.032 77.789l-4.304 13.572h-2.097l-4.304-13.572h1.684l3.708 11.94 3.709-11.94zM247.641 79.347q.723.912 1.104 2.233.39 1.322.39 3 0 1.676-.398 3.007-.389 1.322-1.096 2.206-.73.92-1.73 1.385-.994.465-2.272.465-1.247 0-2.271-.474-1.017-.474-1.731-1.376t-1.104-2.215q-.381-1.313-.381-2.999 0-1.659.38-2.971.382-1.322 1.113-2.26.698-.894 1.73-1.368 1.041-.474 2.264-.474 1.27 0 2.279.483 1.016.474 1.723 1.358m-.143 5.232q0-2.643-1.032-4.074-1.032-1.44-2.82-1.44-1.802 0-2.834 1.44-1.025 1.43-1.025 4.074 0 2.67 1.049 4.093 1.048 1.413 2.81 1.413 1.764 0 2.804-1.413 1.048-1.422 1.048-4.093"/></g><g aria-label="PASSPORT" style="font-size:14.9081px;line-height:1.25;-inkscape-font-specification:&quot;sans-serif, Normal&quot;;fill:#ffd283;stroke-width:1.01646"><path d="M129.1 386.771q0 .71-.26 1.318-.25.602-.71 1.046-.57.551-1.346.83-.777.272-1.96.272h-1.466v3.975h-1.465v-10.663h2.99q.99 0 1.679.164.688.158 1.22.502.63.408.97 1.017.348.608.348 1.54m-1.524.036q0-.551-.2-.96t-.607-.666q-.355-.222-.814-.315-.451-.1-1.147-.1h-1.45v4.261h1.236q.888 0 1.443-.15.554-.158.902-.494.348-.344.489-.724.148-.38.148-.852M139.348 394.212h-1.562l-1.08-2.972h-4.765l-1.08 2.972h-1.487l4.01-10.663h1.953zm-3.093-4.19-1.931-5.234-1.939 5.235zM148.952 391.168q0 .623-.304 1.232-.296.609-.836 1.031-.592.459-1.383.717-.785.257-1.895.257-1.19 0-2.145-.214-.947-.215-1.932-.638v-1.776h.104q.836.673 1.931 1.039t2.057.365q1.362 0 2.116-.494.762-.495.762-1.318 0-.71-.362-1.046-.355-.336-1.088-.522-.555-.144-1.206-.237-.644-.093-1.369-.236-1.465-.3-2.175-1.024-.703-.73-.703-1.898 0-1.34 1.17-2.191 1.168-.86 2.966-.86 1.162 0 2.131.215.97.215 1.717.53v1.676h-.104q-.629-.516-1.657-.852-1.021-.344-2.094-.344-1.177 0-1.894.472-.71.473-.71 1.218 0 .666.354 1.046.356.38 1.25.58.474.1 1.348.243.873.143 1.48.294 1.228.315 1.85.952.62.638.62 1.783M159.148 391.168q0 .623-.304 1.232-.296.609-.836 1.031-.592.459-1.383.717-.785.257-1.895.257-1.19 0-2.145-.214-.947-.215-1.932-.638v-1.776h.104q.836.673 1.931 1.039t2.057.365q1.362 0 2.116-.494.762-.495.762-1.318 0-.71-.362-1.046-.355-.336-1.088-.522-.555-.144-1.206-.237-.644-.093-1.369-.236-1.465-.3-2.175-1.024-.703-.73-.703-1.898 0-1.34 1.17-2.191 1.168-.86 2.966-.86 1.162 0 2.131.215.97.215 1.717.53v1.676h-.104q-.629-.516-1.657-.852-1.021-.344-2.094-.344-1.177 0-1.894.472-.71.473-.71 1.218 0 .666.354 1.046.356.38 1.25.58.474.1 1.348.243.873.143 1.48.294 1.228.315 1.85.952.62.638.62 1.783M168.707 386.771q0 .71-.259 1.318-.251.602-.71 1.046-.57.551-1.347.83-.776.272-1.96.272h-1.465v3.975H161.5v-10.663h2.989q.991 0 1.68.164.688.158 1.22.502.63.408.97 1.017.347.608.347 1.54m-1.524.036q0-.551-.2-.96t-.606-.666q-.355-.222-.814-.315-.452-.1-1.147-.1h-1.45v4.261h1.235q.888 0 1.443-.15.555-.158.903-.494.348-.344.488-.724.148-.38.148-.852M178.852 384.773q.673.716 1.028 1.755.363 1.038.363 2.356t-.37 2.363q-.363 1.039-1.021 1.733-.681.724-1.613 1.089-.925.365-2.117.365-1.161 0-2.116-.372-.947-.373-1.613-1.082t-1.028-1.74q-.355-1.031-.355-2.356 0-1.303.355-2.335.355-1.038 1.036-1.776.65-.702 1.613-1.074.969-.372 2.108-.372 1.184 0 2.124.38.947.372 1.606 1.066m-.134 4.11q0-2.076-.961-3.2-.962-1.132-2.627-1.132-1.68 0-2.642 1.132-.954 1.124-.954 3.2 0 2.1.977 3.216.976 1.11 2.619 1.11 1.642 0 2.612-1.11.976-1.117.976-3.215M191.682 394.212h-1.902l-3.685-4.24h-2.064v4.24h-1.465v-10.663h3.085q1 0 1.665.128.666.122 1.199.444.6.366.932.924.34.552.34 1.404 0 1.153-.599 1.934-.6.773-1.65 1.167zm-3.426-7.663q0-.458-.17-.809-.163-.358-.548-.602-.318-.207-.754-.286-.437-.086-1.029-.086h-1.724v4.025h1.48q.695 0 1.213-.115.518-.122.88-.444.334-.3.49-.687.162-.394.162-.996M200.516 384.809h-3.936v9.403h-1.465v-9.403h-3.936v-1.26h9.337z"/></g><g aria-label="PASAPORTË" style="font-size:15.0795px;line-height:1.25;-inkscape-font-specification:&quot;sans-serif, Normal&quot;;fill:#ffd283;stroke-width:1.02814"><path d="M123.625 349.93q0 .708-.265 1.317-.257.601-.726 1.045-.583.552-1.378.831-.795.272-2.006.272h-1.5v3.975h-1.498v-10.664h3.058q1.015 0 1.719.165.704.158 1.249.501.643.409.991 1.017.356.61.356 1.54m-1.56.035q0-.552-.204-.96t-.62-.666q-.364-.222-.833-.315-.462-.1-1.174-.1h-1.483v4.261h1.264q.908 0 1.476-.15.568-.158.924-.495.356-.343.5-.723.15-.38.15-.852M134.11 357.37h-1.597l-1.106-2.972h-4.875l-1.105 2.972h-1.522l4.103-10.664h1.999zm-3.164-4.19-1.976-5.235-1.984 5.235zM143.936 354.326q0 .623-.31 1.232-.303.609-.856 1.031-.605.459-1.415.716-.803.258-1.938.258-1.22 0-2.196-.215-.969-.214-1.975-.637v-1.776h.106q.855.673 1.975 1.038 1.12.366 2.105.366 1.393 0 2.165-.494.78-.495.78-1.318 0-.71-.371-1.046-.364-.336-1.113-.523-.568-.143-1.234-.236-.659-.093-1.4-.236-1.5-.301-2.226-1.024-.72-.73-.72-1.898 0-1.34 1.197-2.192 1.196-.859 3.035-.859 1.189 0 2.18.215t1.757.53v1.676h-.106q-.643-.516-1.696-.853-1.044-.343-2.142-.343-1.204 0-1.938.472-.727.473-.727 1.218 0 .666.364 1.045.363.38 1.279.58.484.1 1.378.244.893.143 1.514.294 1.256.315 1.892.952t.636 1.783M155.08 357.37h-1.598l-1.105-2.972h-4.875l-1.105 2.972h-1.522l4.103-10.664h1.999zm-3.165-4.19-1.976-5.235-1.983 5.235zM164.164 349.93q0 .708-.265 1.317-.257.601-.727 1.045-.583.552-1.378.831-.794.272-2.006.272h-1.499v3.975h-1.499v-10.664h3.059q1.014 0 1.718.165.704.158 1.25.501.643.409.991 1.017.356.61.356 1.54m-1.56.035q0-.552-.204-.96t-.62-.666q-.364-.222-.833-.315-.462-.1-1.174-.1h-1.484v4.261h1.265q.908 0 1.476-.15.568-.158.923-.495.356-.343.5-.723.151-.38.151-.852M174.543 347.931q.689.716 1.052 1.755.37 1.038.37 2.356t-.378 2.363q-.37 1.038-1.044 1.733-.697.723-1.65 1.089-.947.365-2.166.365-1.188 0-2.165-.372-.969-.373-1.65-1.082t-1.052-1.74q-.364-1.031-.364-2.356 0-1.304.364-2.335.363-1.038 1.06-1.776.666-.702 1.65-1.074.991-.373 2.157-.373 1.212 0 2.173.38.969.372 1.643 1.067m-.137 4.11q0-2.076-.984-3.2-.984-1.132-2.687-1.132-1.719 0-2.703 1.132-.976 1.124-.976 3.2 0 2.1.999 3.216 1 1.11 2.68 1.11t2.672-1.11q1-1.117 1-3.215M187.67 357.37h-1.946l-3.77-4.24h-2.112v4.24h-1.499v-10.664h3.157q1.022 0 1.703.13.681.121 1.226.443.614.366.954.924.349.552.349 1.404 0 1.153-.614 1.933-.613.774-1.688 1.168zm-3.506-7.663q0-.458-.174-.81-.166-.357-.56-.6-.325-.208-.772-.287-.447-.086-1.052-.086h-1.764v4.025h1.514q.712 0 1.241-.115.53-.122.901-.444.341-.3.5-.687.166-.394.166-.996M196.708 347.967h-4.027v9.403h-1.499v-9.403h-4.027v-1.26h9.553zM205.649 357.37h-7.427v-10.664h7.427v1.26h-5.928v2.923h5.928v1.26h-5.928v3.96h5.928zm-1.083-12.01h-1.506v-1.396h1.506zm-3.126 0h-1.507v-1.396h1.507z"/></g><g aria-label="ПACOШ" style="font-size:15.2352px;line-height:1.25;-inkscape-font-specification:&quot;sans-serif, Normal&quot;;fill:#ffd283;stroke-width:1.03876"><path d="M140.918 375.767h-1.463v-9.83h-5.492v9.83H132.5v-11.149h8.418zM152.552 375.767h-1.56l-1.078-3.107h-4.76l-1.08 3.107h-1.485l4.006-11.149h1.951zm-3.09-4.38-1.928-5.473-1.937 5.473zM162.723 374.958q-.407.18-.74.337-.325.157-.857.33-.45.142-.983.239-.525.105-1.16.105-1.198 0-2.18-.337-.976-.344-1.7-1.07-.71-.712-1.11-1.805-.399-1.1-.399-2.553 0-1.378.385-2.464.384-1.085 1.108-1.834.703-.726 1.693-1.108.998-.382 2.21-.382.887 0 1.767.217.887.217 1.966.764v1.76h-.111q-.91-.772-1.804-1.124-.894-.351-1.914-.351-.835 0-1.508.277-.665.27-1.19.846-.51.561-.798 1.422-.281.854-.281 1.977 0 1.175.31 2.021.318.846.814 1.378.517.554 1.204.823.695.263 1.464.263 1.057 0 1.98-.367.925-.367 1.73-1.1h.104zM172.997 365.899q.672.748 1.027 1.834.362 1.086.362 2.463t-.37 2.471q-.362 1.086-1.02 1.812-.68.756-1.61 1.138-.925.382-2.115.382-1.16 0-2.114-.39-.946-.389-1.61-1.13-.666-.741-1.028-1.82-.355-1.078-.355-2.463 0-1.362.355-2.44.355-1.086 1.035-1.857.65-.734 1.61-1.123.97-.39 2.107-.39 1.183 0 2.122.397.946.39 1.604 1.116m-.133 4.297q0-2.171-.961-3.346-.961-1.183-2.624-1.183-1.678 0-2.639 1.183-.953 1.175-.953 3.346 0 2.194.975 3.362.976 1.16 2.617 1.16 1.64 0 2.609-1.16.976-1.168.976-3.362M189.346 375.767h-12.639v-11.149h1.464v9.86h4.124v-9.86h1.463v9.86h4.125v-9.86h1.463z"/></g></svg>