<?xml version="1.0" encoding="UTF-8"?>
<svg width="600" height="856" version="1.1" xmlns="http://www.w3.org/2000/svg">
 <path d="m0 0v856h573.36c14.708 0 26.639-12.215 26.639-27.683v-800.39c0-15.468-11.931-27.928-26.639-27.928z" fill="#571927"/>
 <g fill="#ffd283">
  <path d="m254.81 782.74v17.549s67.691-0.179 67.512 0c-0.1791 0.1791 0-17.549 0-17.549h-19.781a14.137 14.137 0 0 1-13.922 11.77 14.137 14.137 0 0 1-13.936-11.77zm0-21.938v17.549s11.614-0.022 19.84-0.039a14.137 14.137 0 0 1 13.969-12.076 14.137 14.137 0 0 1 13.969 12.045c10.741 0 19.797 0.01 19.734 0.07-0.1791 0.1791 0-17.549 0-17.549zm43.022 19.569a9.2127 9.2127 0 0 1-9.2126 9.2127 9.2127 9.2127 0 0 1-9.2127-9.2127 9.2127 9.2127 0 0 1 9.2127-9.2126 9.2127 9.2127 0 0 1 9.2126 9.2126z"/>
  <path d="m185.96 745.24v4.5664h204.23v-4.5664h-13.999c-2.0665 1.2947-3.7623 1.0208-4.4893 0z"/>
  <path d="m296.83 711.64v26.726h6.7149v-9.4453c2.4518-0.021 4.5246-0.3415 6.2558-0.9863 3.2444-1.0719 5.7999-4.1073 6.2852-7.3867 0.4221-2.8529-0.6023-6.1296-4.041-7.92-2.3619-1.054-5.5133-0.9642-8.1192-0.9882zm8.8027 5.8886c0.6719 0.01 1.2966 0.045 1.8086 0.168 3.4314 1.0736 2.094 3.9945-0.041 5.1094-0.9738 0.5006-2.3441 0.6421-3.8554 0.8027v-6.0781c0.6983 0.01 1.416-0.01 2.0878 0zm44.758-4.7679v26.726h6.7149v-9.4453c0.6563-0.01 1.282-0.037 1.8847-0.086l-0.059 0.019 11.932 13.412c1.8099 2.2002 1.9749 2.8738 4.4765 1.8184 1.8106-0.9197 3.3809-1.0615 4.8985-2.2012 0.07-0.3823 0.173-0.6407-0.834-1.5332l-13.404-13.82-0.053 0.018c1.9474-1.4669 3.3535-3.664 3.6992-6 0.4221-2.8529-0.6023-6.1296-4.041-7.92-2.3619-1.054-5.5133-0.9642-8.1192-0.9882zm8.8028 5.8886c0.6719 0.01 1.2966 0.045 1.8086 0.168 3.4313 1.0736 2.0939 3.9945-0.041 5.1094-0.9738 0.5006-2.3441 0.6421-3.8554 0.8027v-6.0781c0.6983 0.01 1.4161-0.01 2.0879 0zm-27.819-7.171a13.611 13.611 0 0 0-13.612 13.612 13.611 13.611 0 0 0 13.612 13.61 13.611 13.611 0 0 0 13.61-13.61 13.611 13.611 0 0 0-13.61-13.612zm0 6.2963a7.3151 7.3151 0 0 1 7.3138 7.3156 7.3151 7.3151 0 0 1-7.3138 7.3155 7.3151 7.3151 0 0 1-7.3154-7.3155 7.3151 7.3151 0 0 1 7.3154-7.3156zm40.03 0.6234h7.8502v20.766h6.901v-20.766l7.8507-4e-4v-6.2046h-22.602zm-95.364-5.951v26.055h15.221l1.8803-2.5071s0.02-3.5398-1e-4 -3.574c-0.02-0.034-10.572 0-10.572 0l-5e-4 -4.9384h7.1301l1.3663-2.3664s0.3532-2.5402 0-2.5402h-8.4964v-4.2736h9.6329v-5.8556zm-14.036 6.514c-2.0219 0.2896-2.2652 1.6033-0.7932 2.4421 3.7502 2.2376 9.6181 4.7345 10.078 9.2054 0.4086 1.9978-0.2289 4.0665-2.5229 6.0479-3.624 3.204-9.47 2.3217-13.404 1.6905-1.5223-0.2923-2.1486-0.7369-2.3431-2.9901-0.4189-5.2404 0.2846-4.1083 7.0851-2.6155 4.2031 0.8213 4.4251-1.6842 1.5009-3.4592-1.3727-0.8721-3.0103-1.8165-4.4522-2.8054-3.7883-2.5151-3.9839-4.5347-3.6909-7.8106 0.054-3.4415 3.6916-6.279 6.7875-6.3181 7.8464 0.1905 9.4537-0.6708 9.4022 4.6406 0.2346 4.4033-5.444 1.8159-7.6472 1.9724zm-21.31 0c-2.0219 0.2896-2.2652 1.6033-0.7932 2.4421 3.7502 2.2376 9.6181 4.7345 10.078 9.2054 0.4086 1.9978-0.2289 4.0665-2.5229 6.0479-3.624 3.204-9.47 2.3217-13.404 1.6905-1.5223-0.2923-2.1486-0.7369-2.3431-2.9901-0.4189-5.2404 0.2846-4.1083 7.0851-2.6155 4.2031 0.8213 4.4251-1.6842 1.5009-3.4592-1.3727-0.8721-3.0103-1.8165-4.4522-2.8054-3.7883-2.5151-3.9839-4.5347-3.6909-7.8106 0.054-3.4415 3.6916-6.279 6.7875-6.3181 7.8464 0.1905 9.4537-0.6708 9.4022 4.6406 0.2346 4.4033-5.444 1.8159-7.6472 1.9724zm-22.639-6.9738c-0.545 0.036-1.0961 0.2547-1.5507 0.4707-0.7478 0.3499-1.4767 0.7203-2.1289 1.1328-0.6812 0.6212-0.956 1.5121-1.4493 2.6114l-9.3398 20.812c-0.5425 1.2142-0.8898 1.3261 0.498 1.3261h4.6055c1.2748 0.021 1.2919-0.3151 1.7852-1.2383l2.1406-4.5546h8.2305l2.08 4.5332c0.4375 1.2613 0.6066 1.2597 1.8535 1.2597h5.1036c1.6826 0.024 1.8452 0.2569 1.125-1.289l-9.9981-21.463c-0.4579-0.9933-0.9353-2.0731-1.4394-2.9805-0.4327-0.5107-0.9707-0.657-1.5157-0.6211zm-1.5214 10.812c0.1821-0.015 0.363 0.4059 0.7636 1.3047l1.0664 2.1758c0.8761 1.789 0.9899 1.7638-1.0957 1.6758h-1.7715c-2.0004 0-1.4503-0.1803-0.6503-1.8984l0.9218-1.9453c0.4015-0.848 0.5835-1.2993 0.7657-1.3145zm-31.373-11.16v26.726h6.7149v-9.4453c2.4518-0.021 4.5246-0.3415 6.2558-0.9863 3.2444-1.0719 5.7999-4.1073 6.2852-7.3867 0.4221-2.8529-0.6023-6.1296-4.041-7.92-2.3619-1.054-5.5133-0.9642-8.1192-0.9882zm8.8027 5.8886c0.6719 0.01 1.2966 0.045 1.8086 0.168 3.4314 1.0736 2.094 3.9945-0.041 5.1094-0.9738 0.5006-2.3441 0.6421-3.8554 0.8027v-6.0781c0.6983 0.01 1.416-0.01 2.0878 0z"/>
 </g>
 <g>
  <g fill="#571927" stroke="#ffd283">
   <path d="m377.72 288.05s-0.26514 0.92872-2.4375 2.8803c-3.445 3.095-5.9022 4.2699-8.0077 9.7311-1.7906 4.6445-2.4139 3.4486-4.3507 6.8034s-2.7839 10.828-5.15 12.168c-2.3662 1.3396-8.9778 6.7258-10.349 10.178s-1.6917 7.2921-5.982 9.6591-4.6927 6.9568-8.3912 10.396-10.114 9.1289-10.114 9.1289l-4.7113-3.9301s9.2626-8.6932 11.349-10.663c2.0865-1.9701 7.8653-6.2162 8.983-9.3238s4.699-8.1205 7.8906-10.871c3.1916-2.7504 14.752-15.976 14.893-24.09 0.0806-4.658 11.281-11.78 13.238-12.996 1.9566-1.216 3.1401 0.92917 3.1401 0.92917z" stroke-linejoin="bevel" stroke-width=".71493"/>
   <path d="m334.29 340.58c0.86758-3.6652 0.73685-3.9164-2.5357-10.856l2.7488-0.88621c2.7042 6.3714 4.2109 10.62 3.5243 11.475" stroke-width=".47662"/>
   <path d="m328.19 327.94c3.4651-0.19146 6.7012-0.93188 9.8026-2.0411-1.9019-3.8434-3.3055-11.406-8.2254-10.443-5.0478 2.0157-1.8071 8.8253-1.5772 12.484z" stroke-width=".71493"/>
   <path d="m327.77 328.04c-0.39007 3.5494 2.1999 7.0434 7.4294 6.2731 3.8203-1.1986 6.4708-4.1208 3.1165-8.585-3.464 1.2882-6.9638 2.0088-10.546 2.3119z" stroke-width=".47662"/>
  </g>
  <g fill="none" stroke="#ffd283">
   <path d="m328.6 331.83 0.86661-4.0139 5.8886 6.3598" stroke-width=".23831"/>
   <g stroke-width=".23831">
    <path d="m330.51 333.58c-0.15928-2.2472 0.3312-4.0186 0.65864-5.8982 1.8393 1.7336 3.6425 3.786 5.425 6.0173"/>
    <path d="m332.07 334.15c-0.0162-2.2832 0.49349-4.5671 0.9897-6.8472 1.7467 1.6637 3.3174 3.5864 4.8096 5.6523"/>
    <path d="m333.63 334.38c0.25113-2.5126 0.81692-5.0178 1.3216-7.5328 1.5084 1.2094 2.813 3.0318 4.0512 5.03"/>
    <path d="m334.94 334.34c0.76845-2.7418 1.2466-5.4024 1.8132-8.0608l3.0704 3.6135"/>
    <path d="m327.84 328.02c2.0857 2.2996 4.2025 4.3425 6.3346 6.3453"/>
    <path d="m327.77 329.55c1.4969 1.8102 3.3408 3.2648 5.1275 4.7771"/>
    <path d="m336.19 333.87c0.6889-2.6388 1.552-5.1537 1.9018-8.0351"/>
    <path d="m339.1 327.03c-0.30618 2.1875-0.84799 4.1946-1.5299 6.1183"/>
   </g>
  </g>
  <path d="m376.16 283.87c-0.35899-1.1598 2.1857-4.672 2.1857-4.672-0.24827-3.4697-0.79443-7.7665 2.6109-10.024 1.4397-0.69391 4.1446-0.5053 3.8898-2.5009 0.14404-2.0319 1.1158-4.7854 4.1764-4.4939 2.5446-0.22043 2.0929-2.8385 2.7303-4.3312 0.40469-1.734 2.9382-2.5838 4.9011-1.5126 1.3713 0.80134 2.9941 0.8035 4.1929 0.0456 1.5996-0.85692 4.4138-1.1552 5.7002 0.64915 0.37596 0.52351 0.582 1.1016 0.59287 1.6743 0.23092 2.8076-3.4529 4.1023-3.4756 6.8514-0.44549 2.0142-1.8066 4.652-4.785 4.4287-1.086-0.51985-2.1037 0.18687-1.8635 1.112-0.19994 2.3973-2.4087 4.5288-5.5576 4.3574-0.84581-0.0365-2.6206 0.0378-1.741 1.1181 0.92183 1.8931-0.4943 3.9077-2.8864 3.944-2.3492 0.2456-5.5477-0.83329-6.9662 1.0402l-1.5534 3.6094" fill="#571927" stroke="#ffd283" stroke-width=".61926"/>
  <path d="m400.11 265.37c-1.3993-0.60019-2.6632-1.347-4.7534-1.2168l0.69324-0.55252c1.694 0.21419 2.8611 1.0176 4.0601 1.7693zm4.9147-7.4008c-6.004 3.1289-11.66 7.11-16.357 11.509 1.479-0.13552 2.6443 0.23499 3.845 0.57275-1.4102-0.16178-2.7434-0.46677-4.5885 0.15432-3.0778 2.9897-5.6955 6.1576-7.6604 9.3757-0.77345 1.2177-1.5972 2.1847-0.66192-0.32813 2.0315-3.3446 4.4802-6.2976 7.0968-8.8732 0.90595-1.7233 1.1001-3.2131 1.4091-4.7378-0.1192 1.2989-0.20275 2.5848-0.64138 3.9916 1.9651-1.8607 3.9965-3.5168 6.011-4.9684 1.0314-1.8481 1.2252-3.4143 1.5597-5.0235-0.1315 1.4544-0.22992 2.8821-0.80901 4.4819 4.0798-2.8541 7.9738-4.8914 10.797-6.1544z" fill="#ffd283" stroke-width="3.0747"/>
  <path d="m357.33 379.02c1.081-0.55277 4.9779 1.351 4.9779 1.351 3.3755-0.84032 7.5147-2.1162 10.323 0.85097 0.93079 1.2991 1.2094 3.9962 3.1317 3.4026 2.0264-0.20698 4.9059 0.27758 5.1443 3.3427 0.65411 2.469 3.1557 1.5744 4.7357 1.946 1.7777 0.10096 3.0499 2.4509 2.3317 4.5686-0.55402 1.4885-0.27748 3.0876 0.67499 4.1384 1.1189 1.4287 1.8959 4.1499 0.33925 5.727-0.45116 0.46029-0.98531 0.7625-1.5477 0.87154-2.7263 0.70961-4.6342-2.6972-7.3464-2.2475-2.0608-0.093-4.8931-0.98098-5.1845-3.9534 0.32562-1.1591-0.54535-2.0404-1.4155-1.6449-2.396 0.21463-4.8751-1.5953-5.2469-4.7269-0.10925-0.83952-0.48711-2.5752-1.4004-1.5232-1.7067 1.2332-3.9345 0.18402-4.381-2.1663-0.64529-2.2721-0.13164-5.6084-2.2208-6.6841l-3.8224-0.91057" fill="#571927" stroke="#ffd283" stroke-width=".61926"/>
  <path d="m379.67 399.44c0.35103-1.4815 0.86973-2.8549 0.38253-4.8916l0.66331 0.58805c0.0799 1.7056-0.51127 2.9934-1.0458 4.3036zm8.1348 3.571c-4.1134-5.3776-9.0065-10.266-14.147-14.138 0.38744 1.4338 0.22253 2.6454 0.0959 3.8863-0.0827-1.4171-0.0114-2.7828-0.93989-4.4939-3.4738-2.5187-7.0442-4.5536-10.552-5.9368-1.3324-0.55291-2.4265-1.1984 0.20962-0.70847 3.6438 1.427 6.9734 3.3323 9.96 5.4678 1.8532 0.59658 3.3543 0.53207 4.9094 0.57465-1.3001 0.10557-2.5813 0.24407-4.0424 0.0535 2.1705 1.6164 4.1508 3.3333 5.9267 5.0686 1.9978 0.69884 3.574 0.62069 5.2167 0.67404-1.4554 0.12014-2.8788 0.26834-4.5542-0.0275 3.5123 3.5291 6.1879 7.0155 7.9169 9.5797z" fill="#ffd283" stroke-width="3.0747"/>
  <path d="m367.73 384.52c0.7196-1.2028 5.6994-1.7251 5.6994-1.7251 2.7895-2.8891 6.0598-6.672 10.625-5.4872 1.7064 0.70172 3.6304 3.171 5.1484 1.4132 1.8567-1.4432 4.9718-2.7318 7.0817 0.1224 2.1518 2.0162 4.0526-0.39094 5.8266-0.99452 1.8018-0.98955 4.4857 0.53176 5.0792 3.0442 0.3691 1.7961 1.6187 3.192 3.1944 3.6374 1.9698 0.71342 4.3963 2.9012 3.8382 5.3979-0.15981 0.72675-0.49759 1.3496-0.98126 1.8006-2.234 2.3636-6.1873 0.19722-8.5667 2.2978-2.0741 1.1706-5.3899 2.0355-7.495-0.69555-0.39088-1.3339-1.7829-1.6633-2.3925-0.74346-2.2139 1.677-5.7485 1.4231-8.0296-1.4144-0.62089-0.75485-2.0534-2.2224-2.3033-0.63353-0.91553 2.2519-3.7384 2.5889-5.6144 0.56172-2.0227-1.8289-3.5624-5.4089-6.2659-5.1828l-4.2989 1.4489" fill="#571927" stroke="#ffd283" stroke-width=".71493"/>
  <path d="m402.1 390.83c-0.56341-1.665-0.89652-3.3269-2.6204-5.0221l1.0093 0.16948c1.1224 1.6205 1.3322 3.2429 1.6111 4.8526zm10.149-1.485c-7.3184-2.7453-15.101-4.5346-22.503-5.1772 1.257 1.1662 1.8374 2.453 2.4732 3.7451-0.94856-1.3364-1.7147-2.717-3.6712-3.8232-4.9421-0.33855-9.6826-0.14448-13.963 0.64908-1.6427 0.27457-3.1087 0.31259-0.22858-0.82177 4.4402-0.83399 8.8656-1.0076 13.096-0.74582 2.1791-0.55065 3.6089-1.5328 5.157-2.4431-1.2079 0.89927-2.3771 1.8192-3.924 2.5272 3.1141 0.25336 6.1035 0.72139 8.9042 1.3326 2.3832-0.53904 3.8781-1.5805 5.5188-2.534-1.3509 1.0086-2.6535 2.0251-4.4745 2.7613 5.5984 1.304 10.352 3.0784 13.614 4.5297z" fill="#ffd283" stroke-width="3.5498"/>
  <path d="m378.75 359.91c0.78308-1.3089 6.2021-1.8773 6.2021-1.8773 3.0355-3.1438 6.5942-7.2604 11.562-5.9711 1.8569 0.76361 3.9505 3.4507 5.6024 1.5378 2.0205-1.5705 5.4103-2.9727 7.7062 0.13319 2.3415 2.194 4.41-0.42541 6.3404-1.0822 1.9608-1.0768 4.8813 0.57864 5.5271 3.3127 0.4016 1.9545 1.7615 3.4735 3.4761 3.9582 2.1435 0.77635 4.784 3.1571 4.1767 5.8739-0.17392 0.79084-0.54149 1.4686-1.0678 1.9594-2.4311 2.5721-6.7329 0.21462-9.3221 2.5004-2.257 1.2738-5.8653 2.215-8.1559-0.75688-0.42533-1.4515-1.9402-1.81-2.6035-0.80902-2.4091 1.8249-6.2554 1.5486-8.7376-1.5391-0.67566-0.82141-2.2345-2.4184-2.5064-0.68939-0.99627 2.4505-4.0681 2.8172-6.1095 0.61125-2.2011-1.9902-3.8766-5.8859-6.8185-5.6398l-4.678 1.5767" fill="#571927" stroke="#ffd283" stroke-width=".77797"/>
  <path d="m416.15 366.77c-0.61312-1.8118-0.97564-3.6202-2.8515-5.465l1.0983 0.18442c1.2213 1.7634 1.4496 3.5289 1.7531 5.2806zm11.043-1.6159c-7.9638-2.9874-16.432-4.9345-24.487-5.6337 1.3679 1.269 1.9994 2.6694 2.6913 4.0754-1.0322-1.4542-1.8659-2.9566-3.995-4.1603-5.378-0.36841-10.536-0.15723-15.194 0.70632-1.7875 0.29877-3.3828 0.34015-0.2487-0.89424 4.8317-0.90754 9.6474-1.0964 14.251-0.8116 2.3713-0.59921 3.9271-1.6679 5.6118-2.6586-1.3144 0.97858-2.5867 1.9796-4.27 2.7501 3.3886 0.27571 6.6418 0.785 9.6894 1.4502 2.5934-0.58658 4.2202-1.7199 6.0054-2.7575-1.4701 1.0975-2.8874 2.2037-4.869 3.0048 6.0921 1.419 11.265 3.3498 14.814 4.9292z" fill="#ffd283" stroke-width="3.8628"/>
  <path d="m377.3 358.63c0.0672-1.3194 3.9817-3.956 3.9817-3.956 1.0446-3.6383 2.0944-8.2333 6.4187-9.2656 1.7307-0.17034 4.4241 1.0346 4.9105-1.0999 0.90748-2.0223 2.9309-4.4723 5.9491-3.0292 2.6826 0.72695 3.2007-2.1172 4.4105-3.404 1.0624-1.6204 3.9691-1.5407 5.5741 0.28837 1.1014 1.332 2.7588 1.9414 4.2673 1.6156 1.9551-0.27706 4.9424 0.47126 5.5817 2.7963 0.18831 0.67562 0.18249 1.3434-0.0205 1.9327-0.81463 2.9553-5.0632 2.8998-6.1152 5.7004-1.2089 1.8915-3.5867 4.0775-6.5465 2.7348-0.91515-0.93756-2.2196-0.59626-2.3203 0.43895-1.1014 2.3748-4.156 3.7263-7.3094 2.3728-0.85062-0.35383-2.6919-0.94209-2.1974 0.49101 0.23354 2.2793-1.9673 3.808-4.4252 2.9499-2.4924-0.62811-5.357-2.9274-7.5074-1.5439l-2.9379 3.1068" fill="#571927" stroke="#ffd283" stroke-width=".67386"/>
  <path d="m408.69 348.68c-1.2052-1.1369-2.2172-2.373-4.4018-3.022l0.91511-0.30517c1.6508 0.85274 2.5428 2.1105 3.4866 3.3272zm7.7914-5.7232c-7.3059 0.95049-14.575 2.9019-21.021 5.6397 1.562 0.41497 2.614 1.2296 3.7146 2.024-1.3805-0.69301-2.6286-1.5036-4.7464-1.5593-4.2636 1.9033-8.1239 4.1608-11.336 6.7138-1.246 0.95486-2.4496 1.6347-0.55359-0.583 3.3274-2.6574 6.9345-4.7586 10.572-6.4113 1.5706-1.4219 2.3264-2.8716 3.2126-4.3139-0.60787 1.2826-1.1744 2.5654-2.149 3.8387 2.7042-1.1659 5.3997-2.0981 8.0013-2.8276 1.7456-1.5024 2.5295-3.0304 3.4736-4.5495-0.67861 1.4369-1.3135 2.859-2.5038 4.2769 5.2368-1.3898 9.9781-2.0144 13.335-2.2486z" fill="#ffd283" stroke-width="3.3459"/>
  <path d="m325.66 353.35c0.38377-1.3481 5.0588-3.1415 5.0588-3.1415 1.9467-3.5126 4.1265-8.013 8.8431-8.0502 1.8299 0.23616 4.3274 2.1234 5.3387 0.0326 1.4199-1.8746 4.0954-3.9255 6.8721-1.7147 2.6002 1.3906 3.8133-1.4265 5.3707-2.4687 1.4843-1.4222 4.4705-0.64735 5.6941 1.6259 0.82136 1.6394 2.3897 2.6643 4.0269 2.6867 2.0874 0.17929 4.9974 1.6645 5.1046 4.2206 0.0338 0.74334-0.1314 1.4324-0.48186 1.9932-1.5461 2.8613-5.9254 1.7919-7.68 4.4367-1.7004 1.6675-4.6795 3.3611-7.4196 1.268-0.72279-1.1873-2.1526-1.1452-2.5034-0.0989-1.7044 2.1928-5.1843 2.8624-8.122 0.71203-0.79514-0.56842-2.5587-1.6152-2.3888-0.0158-0.30151 2.4121-2.941 3.4682-5.2777 1.9957-2.4271-1.2431-4.841-4.3026-7.3938-3.3844l-3.7774 2.5122" fill="#571927" stroke="#ffd283" stroke-width=".71493"/>
  <path d="m360.48 350.55c-0.97516-1.4624-1.727-2.9815-3.8309-4.1728l1.0187-0.0975c1.5036 1.2748 2.1261 2.7876 2.8121 4.2703zm9.4184-4.061c-7.7796-0.75762-15.76-0.47177-23.076 0.82334 1.516 0.80109 2.4096 1.8939 3.3582 2.9774-1.2621-1.0453-2.3595-2.1806-4.5356-2.7427-4.8614 0.9521-9.3901 2.3665-13.319 4.2408-1.5156 0.69037-2.9218 1.1065-0.43348-0.73461 4.0731-1.9548 8.3028-3.2678 12.457-4.11 1.9624-1.0959 3.0892-2.4146 4.349-3.6946-0.93398 1.1812-1.8253 2.3725-3.1362 3.4567 3.0735-0.56125 6.0822-0.8829 8.9457-1.0174 2.1625-1.1375 3.3369-2.5304 4.6748-3.876-1.0438 1.3239-2.0389 2.6429-3.6073 3.8253 5.7452-0.18939 10.796 0.29426 14.322 0.85186z" fill="#ffd283" stroke-width="3.5498"/>
  <path d="m318.09 373.79c1.1552-0.37347 2.5645-4.4752 2.5645-4.4752 2.981-1.7927 6.8101-3.8174 6.6979-7.9014-0.26042-1.5768-1.9705-3.681-0.1916-4.6204 1.5793-1.2865 3.2727-3.6653 1.2739-6.0012-1.2833-2.2083 1.1181-3.3446 1.9726-4.7246 1.1857-1.3284 0.42357-3.8896-1.5817-4.8792-1.4443-0.66082-2.3795-1.9871-2.449-3.4036-0.2191-1.8014-1.5939-4.275-3.8098-4.2895-0.64453-6e-3 -1.2359 0.15756-1.7107 0.4781-2.4296 1.426-1.3698 5.1841-3.6055 6.784-1.3914 1.523-2.7663 4.1536-0.87049 6.4615 1.0499 0.58934 1.0572 1.8284 0.16224 2.164-1.8461 1.5425-2.3192 4.5753-0.36776 7.0525 0.51637 0.67088 1.4765 2.1654 0.0868 2.0673-2.0788 0.33483-2.9122 2.652-1.566 4.6297 1.1503 2.063 3.8727 4.0588 3.156 6.2968l-2.059 3.3468" fill="#571927" stroke="#ffd283" stroke-width=".61926"/>
  <path d="m319.46 343.55c1.2958 0.79939 2.6337 1.4038 3.7294 3.1884l0.0532-0.88487c-1.1496-1.2625-2.4781-1.7551-3.7826-2.3036zm3.2271-8.2772c0.89399 6.7111 0.8908 13.628-6e-3 20-0.73985-1.2878-1.7132-2.0279-2.6802-2.8159 0.94351 1.0605 1.9598 1.9757 2.5131 3.8423-0.67537 4.2373-1.761 8.2008-3.2632 11.659-0.55121 1.3331-0.86845 2.5632 0.64915 0.35275 1.5674-3.5856 2.5746-7.2872 3.1765-10.909 0.88856-1.7323 1.9956-2.7481 3.0651-3.8778-0.99394 0.84465-1.9978 1.6526-2.8963 2.8206 0.39178-2.6778 0.57809-5.2921 0.60683-7.7749 0.91849-1.9068 2.0882-2.966 3.2122-4.1654-1.114 0.94414-2.2254 1.8459-3.2009 3.2397-0.0119-4.979-0.58519-9.3362-1.1758-12.372z" fill="#ffd283" stroke-width="3.0747"/>
  <path d="m345.93 328.2c1.2028-0.7196 1.7252-5.6994 1.7252-5.6994 2.8891-2.7895 6.672-6.0598 5.4872-10.625-0.70172-1.7064-3.171-3.6304-1.4132-5.1484 1.4432-1.8567 2.7318-4.9718-0.12239-7.0817-2.0162-2.1518 0.39097-4.0526 0.99451-5.8266 0.98955-1.8018-0.53176-4.4857-3.0442-5.0792-1.7961-0.36906-3.192-1.6187-3.6374-3.1944-0.71345-1.9698-2.9012-4.3964-5.3979-3.8383-0.72675 0.1598-1.3495 0.4976-1.8006 0.98128-2.3636 2.234-0.19722 6.1873-2.2978 8.5667-1.1706 2.0741-2.0355 5.3899 0.69558 7.495 1.3339 0.39086 1.6632 1.7829 0.74343 2.3925-1.677 2.2139-1.4231 5.7484 1.4144 8.0296 0.75486 0.62091 2.2224 2.0534 0.63352 2.3033-2.2519 0.91553-2.5889 3.7384-0.5617 5.6144 1.8289 2.0227 5.4089 3.5624 5.1827 6.2659l-1.4489 4.2989" fill="#571927" stroke="#ffd283" stroke-width=".71493"/>
  <path d="m339.63 293.83c1.665 0.56344 3.3269 0.89655 5.0221 2.6204l-0.16948-1.0093c-1.6206-1.1224-3.2429-1.3322-4.8526-1.6111zm1.485-10.149c2.7453 7.3184 4.5346 15.101 5.1772 22.503-1.1662-1.257-2.453-1.8374-3.7451-2.4732 1.3363 0.94856 2.717 1.7147 3.8232 3.6712 0.33855 4.9421 0.14451 9.6826-0.64905 13.963-0.27458 1.6427-0.31262 3.1087 0.82173 0.22857 0.83399-4.4402 1.0076-8.8656 0.74586-13.096 0.55064-2.1792 1.5328-3.6089 2.4431-5.1571-0.89923 1.2079-1.8192 2.3771-2.5272 3.924-0.25332-3.1141-0.72136-6.1035-1.3326-8.9042 0.53905-2.3832 1.5805-3.8782 2.534-5.5188-1.0086 1.3509-2.0251 2.6535-2.7613 4.4745-1.304-5.5984-3.0783-10.352-4.5297-13.614z" fill="#ffd283" stroke-width="3.5498"/>
  <path d="m362.69 298.68c0.38377-1.3481 5.0588-3.1415 5.0588-3.1415 1.9467-3.5126 4.1266-8.013 8.8431-8.0502 1.8299 0.23615 4.3274 2.1234 5.3388 0.0326 1.4199-1.8746 4.0953-3.9255 6.8721-1.7147 2.6003 1.3906 3.8134-1.4265 5.3707-2.4687 1.4843-1.4222 4.4705-0.64736 5.6941 1.6259 0.82136 1.6394 2.3897 2.6643 4.0269 2.6867 2.0874 0.1793 4.9974 1.6645 5.1046 4.2206 0.0338 0.74335-0.13135 1.4324-0.48181 1.9932-1.5462 2.8613-5.9254 1.7919-7.6801 4.4367-1.7004 1.6675-4.6794 3.3611-7.4196 1.268-0.72279-1.1873-2.1527-1.1452-2.5034-0.0989-1.7044 2.1929-5.1842 2.8624-8.122 0.71204-0.79509-0.56842-2.5586-1.6152-2.3888-0.0158-0.30151 2.4121-2.941 3.4683-5.2777 1.9957-2.4271-1.2431-4.841-4.3026-7.3938-3.3844l-3.7774 2.5122" fill="#571927" stroke="#ffd283" stroke-width=".71493"/>
  <path d="m397.52 295.88c-0.97521-1.4624-1.7271-2.9815-3.8309-4.1728l1.0188-0.0975c1.5035 1.2748 2.1261 2.7876 2.8121 4.2703zm9.4183-4.061c-7.7796-0.75762-15.76-0.47177-23.076 0.82334 1.516 0.80109 2.4097 1.8939 3.3582 2.9774-1.2621-1.0453-2.3594-2.1806-4.5356-2.7427-4.8614 0.9521-9.3901 2.3665-13.319 4.2408-1.5156 0.69037-2.9219 1.1065-0.43348-0.73461 4.073-1.9548 8.3028-3.2678 12.457-4.11 1.9624-1.0959 3.0892-2.4146 4.349-3.6946-0.93398 1.1812-1.8253 2.3724-3.1362 3.4567 3.0736-0.56125 6.0822-0.8829 8.9457-1.0174 2.1625-1.1375 3.3369-2.5304 4.6749-3.876-1.0439 1.3239-2.0389 2.6429-3.6073 3.8253 5.7451-0.18939 10.796 0.29426 14.322 0.85186z" fill="#ffd283" stroke-width="3.5498"/>
  <path d="m363.05 300.19c0.67622-1.0083 5.0073-1.2374 5.0073-1.2374 2.5422-2.3744 5.5403-5.5004 9.4366-4.2714 1.4447 0.68332 2.9986 2.9054 4.3903 1.4527 1.6707-1.1654 4.4229-2.1408 6.1204 0.42254 1.7712 1.8403 3.5231-0.15694 5.0846-0.59972 1.6029-0.77542 3.8564 0.66057 4.2575 2.8605 0.23893 1.5702 1.2575 2.8336 2.6006 3.2893 1.672 0.70521 3.6732 2.7062 3.0788 4.841-0.17072 0.62151-0.49077 1.1452-0.92936 1.5137-2.0382 1.9447-5.3609-0.10607-7.5131 1.6046-1.8465 0.91987-4.7534 1.5197-6.4522-0.93682-0.27844-1.1713-1.4679-1.5185-2.0364-0.7501-1.99 1.3516-5.0362 0.97399-6.8825-1.5825-0.50336-0.68072-1.6769-2.0142-1.9641-0.65101-0.89266 1.907-3.3496 2.0723-4.8817 0.23484-1.6679-1.6725-2.8397-4.8381-5.1884-4.7634l-3.7834 1.0611" fill="#571927" stroke="#ffd283" stroke-width=".61926"/>
  <path d="m392.5 307.18c-0.41294-1.4655-0.62675-2.9179-2.0421-4.4614l0.86549 0.19174c0.89843 1.452 1.0074 2.8648 1.1766 4.2697zm8.8451-0.83074c-6.2078-2.702-12.86-4.5978-19.234-5.4846 1.0352 1.065 1.4797 2.2041 1.9719 3.3502-0.76077-1.1984-1.3617-2.4269-3.0047-3.4713-4.2599-0.51386-8.3692-0.55797-12.107-0.0629-1.4332 0.16405-2.7031 0.13138-0.16095-0.72108 3.8781-0.52287 7.714-0.47512 11.362-0.0595 1.9097-0.37887 3.1903-1.1645 4.5702-1.8828-1.0851 0.72387-2.1376 1.4674-3.5073 2.0106 2.6824 0.35842 5.2475 0.89695 7.6428 1.5509 2.0857-0.35972 3.4254-1.1938 4.8872-1.9452-1.2137 0.81204-2.3859 1.6331-3.994 2.1885 4.7845 1.3783 8.8168 3.1258 11.574 4.5271z" fill="#ffd283" stroke-width="3.0747"/>
  <path d="m364.42 299.53c1.2028-0.7196 1.7252-5.6995 1.7252-5.6995 2.8891-2.7895 6.672-6.0598 5.4872-10.625-0.70172-1.7064-3.171-3.6304-1.4132-5.1484 1.4432-1.8567 2.7318-4.9718-0.12239-7.0817-2.0162-2.1518 0.39092-4.0526 0.99451-5.8266 0.98955-1.8019-0.53177-4.4857-3.0442-5.0792-1.7961-0.36907-3.192-1.6187-3.6374-3.1944-0.71345-1.9698-2.9012-4.3963-5.3979-3.8383-0.72675 0.15981-1.3496 0.49761-1.8006 0.98128-2.3637 2.234-0.19722 6.1873-2.2978 8.5667-1.1706 2.0741-2.0355 5.3899 0.69553 7.495 1.3339 0.39087 1.6633 1.7829 0.74347 2.3925-1.677 2.2139-1.4231 5.7484 1.4144 8.0296 0.75487 0.62091 2.2224 2.0534 0.63352 2.3033-2.2519 0.91553-2.5889 3.7384-0.56169 5.6144 1.8289 2.0227 5.4089 3.5624 5.1827 6.2659l-1.4489 4.2989" fill="#571927" stroke="#ffd283" stroke-width=".71493"/>
  <path d="m358.11 265.16c1.665 0.56344 3.3268 0.89656 5.0221 2.6204l-0.16948-1.0093c-1.6206-1.1224-3.2429-1.3322-4.8526-1.6111zm1.485-10.148c2.7453 7.3184 4.5346 15.101 5.1772 22.503-1.1662-1.257-2.453-1.8374-3.7451-2.4732 1.3363 0.94856 2.717 1.7147 3.8232 3.6712 0.33854 4.9421 0.14446 9.6826-0.6491 13.963-0.27453 1.6427-0.31257 3.1087 0.82178 0.22858 0.83399-4.4402 1.0076-8.8656 0.74581-13.096 0.55068-2.1792 1.5328-3.6089 2.4431-5.1571-0.89928 1.2079-1.8192 2.3771-2.5272 3.924-0.25337-3.1141-0.72136-6.1035-1.3326-8.9042 0.53906-2.3832 1.5805-3.8782 2.534-5.5188-1.0086 1.3509-2.0251 2.6535-2.7613 4.4744-1.304-5.5984-3.0784-10.352-4.5297-13.614z" fill="#ffd283" stroke-width="3.5498"/>
  <path d="m377.32 287.8c1.149-0.39225 2.4913-4.5164 2.4913-4.5164 2.9514-1.841 6.747-3.9279 6.5682-8.0095-0.28611-1.5723-2.0303-3.6484-0.26691-4.6167 1.5581-1.3121 3.2126-3.7181 1.1759-6.0212-1.3191-2.1871 1.0635-3.3624 1.8953-4.7562 1.1638-1.3476 0.36004-3.896-1.6611-4.8528-1.4549-0.63718-2.4115-1.948-2.5042-3.3633-0.24842-1.7976-1.6633-4.2485-3.8791-4.2268-0.64453 4e-3 -1.2332 0.17769-1.7026 0.50592-2.406 1.4654-1.2851 5.2058-3.4944 6.8418-1.3664 1.5455-2.6982 4.1981-0.76506 6.4748 1.0593 0.57214 1.0868 1.8109 0.19751 2.1611-1.8207 1.5724-2.2443 4.6125-0.25275 7.0576 0.52723 0.66239 1.5116 2.1411 0.12048 2.0656-2.073 0.36866-2.8686 2.6991-1.4903 4.6546 1.1838 2.0439 3.9383 3.9952 3.2582 6.2445l-2.0042 3.3799" fill="#571927" stroke="#ffd283" stroke-width=".61926"/>
  <path d="m378.19 257.54c1.3086 0.77816 2.6563 1.3606 3.7809 3.1272l0.0386-0.88562c-1.17-1.2436-2.5064-1.7145-3.8197-2.2416zm3.0917-8.3287c1.0032 6.6956 1.1128 13.612 0.31967 19.998-0.76077-1.2756-1.746-1.9997-2.7257-2.7718 0.96063 1.045 1.9918 1.9435 2.5754 3.8008-0.60621 4.2478-1.6272 8.2284-3.0728 11.711-0.52943 1.3419-0.8265 2.577 0.65482 0.34212 1.5088-3.6107 2.4555-7.3282 2.9982-10.959 0.86025-1.7465 1.9506-2.7802 3.0015-3.9272-0.98007 0.86074-1.9706 1.685-2.8499 2.8674 0.34803-2.6838 0.49173-5.3008 0.48-7.7837 0.88727-1.9215 2.0396-2.9997 3.1438-4.2172-1.0985 0.96217-2.195 1.8819-3.1477 3.2915-0.0931-4.9782-0.73728-9.3254-1.3773-12.351z" fill="#ffd283" stroke-width="3.0747"/>
  <g fill="#571927" stroke="#ffd283">
   <path d="m359.83 315.27c1.6818-2.6727 1.9088-2.7421 7.9818-4.8634l-1.0855-2.1645c-5.3991 2.1272-8.8251 3.7231-8.9328 4.636" stroke-width=".3996"/>
   <path d="m370.97 311.49c-1.9218-2.1845-3.3808-4.5548-4.5401-7.0611 3.4159-1.1213 8.7631-4.7264 11.078-1.2184 1.761 4.203-4.2153 6.2669-6.5382 8.2795z" stroke-width=".59939"/>
   <path d="m371.16 311.8c-1.8932 2.319-5.5045 2.8237-8.117-0.75608-1.5283-2.9888-1.3385-6.291 3.3022-6.9086 1.2654 2.8284 2.8912 5.3447 4.8149 7.6647z" stroke-width=".3996"/>
  </g>
  <g fill="none" stroke="#ffd283" stroke-width=".1998">
   <path d="m368.28 313.55 1.891-2.877-7.2637 0.21617"/>
   <path d="m366.23 313.42c1.4373-1.2253 2.2083-2.5596 3.1399-3.86-2.1175-0.0811-4.4045 0.0468-6.7862 0.29219"/>
   <path d="m364.97 312.82c1.3749-1.332 2.441-2.979 3.5128-4.6156-2.0213-0.0668-4.094 0.12391-6.2063 0.44562"/>
   <path d="m363.92 312.02c1.3549-1.6267 2.5204-3.4373 3.7278-5.217-1.6096-0.19122-3.466 0.0996-5.3885 0.53342"/>
   <path d="m363.18 311.21c1.1879-2.0708 2.4979-3.9202 3.7546-5.8212l-3.9652 0.28753"/>
   <path d="m371.12 311.74c-2.6008 0.10416-5.0663 0.0389-7.5169-0.059"/>
   <path d="m370.26 312.69c-1.9621 0.1687-3.9154-0.0791-5.8698-0.25874"/>
   <path d="m362.72 310.19c1.173-1.9627 2.1698-3.9567 3.6871-5.8592"/>
   <path d="m365.1 304.43c-1.1281 1.4686-2.0099 2.9721-2.7595 4.5104"/>
  </g>
  <path d="m342.73 336.11c1.2246 0.68187 5.7985-1.3557 5.7985-1.3557 3.8603 1.1073 8.584 2.7482 11.945-0.56064 1.1269-1.4609 1.5584-4.5614 3.752-3.7981 2.3296 0.32148 5.6716-0.12011 6.0717-3.6468 0.85544-2.8219 3.7052-1.6878 5.5432-2.052 2.0552-0.0439 3.6189-2.7034 2.8767-5.176-0.57848-1.74-0.19418-3.5737 0.94765-4.7473 1.3492-1.6027 2.3567-4.7107 0.62509-6.5939-0.50179-0.54948-1.1058-0.91996-1.7501-1.0687-3.1166-0.92996-5.457 2.9228-8.5679 2.2934-2.3815 0.0233-5.6855 0.93219-6.143 4.3499 0.32844 1.3506-0.71245 2.3319-1.7003 1.8401-2.7558-0.3454-5.6898 1.6418-6.2466 5.2396-0.16029 0.96417-0.66712 2.9514-1.6779 1.7003-1.9188-1.4924-4.532-0.37283-5.1431 2.3207-0.83723 2.5952-0.38072 6.4655-2.835 7.6213l-4.4474 0.89464" fill="#571927" stroke="#ffd283" stroke-width=".71493"/>
  <path d="m369.34 313.47c0.34455 1.7237 0.88698 3.3294 0.24174 5.6595l0.78933-0.65142c0.16171-1.9646-0.46776-3.4745-1.0311-5.008zm9.5313-3.7882c-4.9652 6.0367-10.81 11.477-16.899 15.735 0.50554-1.6384 0.3647-3.0431 0.26928-4.48-0.15332 1.6316-0.12649 3.2103-1.2678 5.1466-4.1107 2.7642-8.3131 4.9664-12.417 6.4192-1.5599 0.58356-2.8485 1.2836 0.21295 0.82596 4.2623-1.4978 8.1817-3.5602 11.715-5.9023 2.1625-0.61272 3.8918-0.47704 5.6877-0.46272-1.4957-0.17485-2.9683-0.38692-4.6619-0.22664 2.5702-1.7764 4.9251-3.6765 7.0449-5.6062 2.3335-0.72479 4.1489-0.57033 6.0464-0.56485-1.6743-0.19799-3.3105-0.42706-5.2557-0.15414 4.1963-3.9285 7.4256-7.8418 9.5252-10.73z" fill="#ffd283" stroke-width="3.5498"/>
  <path d="m326.26 388.17c1.1872 0.25417 4.4586-2.5934 4.4586-2.5934 3.478-0.062 7.8064 0.0991 9.7512-3.4938 0.56284-1.4958 0.13393-4.1731 2.1443-4.0972 2.0109-0.32455 4.6669-1.5379 4.1039-4.5603-7e-3 -2.5541 2.6406-2.3375 4.0706-3.1054 1.691-0.55763 2.3116-3.1568 1.0698-5.0164-0.92039-1.2944-1.0671-2.9106-0.41909-4.1721 0.71097-1.6696 0.75721-4.4992-1.1546-5.6197-0.55493-0.32784-1.1491-0.4815-1.7205-0.44128-2.817 0.0202-3.7783 3.8047-6.5144 4.0724-1.9665 0.62324-4.4725 2.214-3.9847 5.1606 0.61459 1.0353 0 2.112-0.94151 1.9552-2.37 0.41283-4.2961 2.8028-3.8447 5.9238 0.11177 0.8392 0.19598 2.6136-0.95848 1.8338-1.9677-0.74943-3.8481 0.84058-3.671 3.2264-0.0353 2.3617 1.3244 5.4514-0.41513 7.0312l-3.4566 1.8689" fill="#571927" stroke="#ffd283" stroke-width=".61926"/>
  <path d="m342.56 362.66c0.72255 1.3402 1.579 2.5326 1.6356 4.626l0.48853-0.7397c-0.36433-1.6682-1.2686-2.759-2.1241-3.8863zm6.9334-5.5547c-2.5814 6.259-6.0425 12.247-10.006 17.318 5e-3 -1.4852-0.46971-2.6128-0.9131-3.7787 0.28678 1.3902 0.70939 2.6909 0.25523 4.584-2.7036 3.3319-5.6256 6.2216-8.6557 8.4655-1.144 0.87892-2.0337 1.7856 0.38582 0.63008 3.1502-2.3215 5.8733-5.0236 8.2054-7.8594 1.6357-1.0559 3.1023-1.3821 4.5933-1.8257-1.2831 0.23451-2.5565 0.43232-3.9185 0.99459 1.6781-2.1231 3.1467-4.294 4.413-6.4298 1.7488-1.1921 3.2915-1.5245 4.8645-2.0012-1.4369 0.26063-2.8502 0.48589-4.3919 1.2052 2.4792-4.3179 4.1613-8.378 5.1677-11.302z" fill="#ffd283" stroke-width="3.0747"/>
  <path d="m352.42 455.62c-1.3128-2.7188 2.0816-5.4604 2.4299-7.0988 0.77179-3.6313 0.89623-6.3796 2.5835-9.5063 1.4939-2.7737 4.2368-6.2845 6.4943-8.4521 1.7371-1.6627 4.8699-3.9515 7.0046-5.1505 1.1262-0.63892 2.7289-1.4933 3.4822-2.5019 0.42128-0.53133 0.78375-1.4942 0.78375-1.4942s0.75134 1.7375 0.85901 2.8023c0.25985 2.4084-0.29102 5.4259-0.88565 7.5324-0.60378 2.0778-1.8273 4.634-3.0588 6.3188-2.2027 3.024-6.0862 6.2898-9.1045 8.575-1.4443 1.1018-3.7531 2.151-5.2611 3.1944-0.94184 0.6586-1.4108 1.494-2.0848 2.4157-0.69896 0.96672-1.1128 5.1739-1.1128 5.1739" fill="#571927" stroke="#ffd283" stroke-width=".39852"/>
  <path d="m355.08 450.19c2.2339-2.4822 2.5255-4.7639 4.7569-7.0078 1.9598-2.0126 6.5012-5.0732 8.2736-7.241 1.7173-2.6091 2.6028-4.6023 3.7464-7.4376-1.0474 7.0208-4.363 9.0012-9.1684 13.213-3.3085 2.2172-4.2609 6.3838-7.2442 9.2069-1.125 2.0807-1.6296 1.475-0.36442-0.73346z" fill="#ffd283" stroke-width="4.0808"/>
  <path d="m350.01 447.06c-2.7698-0.67792-2.7266-4.7988-3.7109-6.0374-2.1815-2.7451-4.1088-4.4878-5.3724-7.5964-1.1227-2.7556-2.0316-6.8642-2.2536-9.8118-0.16711-2.265 0.0487-5.9231 0.45836-8.1989 0.21152-1.2045 0.55249-2.8856 0.27057-4.0407-0.13383-0.6263-0.61741-1.4691-0.61741-1.4691s1.7174 0.49708 2.5578 1.0587c1.9107 1.2584 3.7778 3.4736 4.955 5.1731 1.1507 1.6888 2.2775 4.1167 2.7646 6.0267 0.87888 3.4224 0.92368 8.2147 0.77402 11.787-0.0655 1.7145-0.68899 4.0272-0.83541 5.7529-0.0864 1.082 0.24031 1.9259 0.50664 2.9708 0.28411 1.0903 3.1003 3.9207 3.1003 3.9207" fill="#571927" stroke="#ffd283" stroke-width=".3764"/>
  <path d="m347.66 441.86c-0.46542-3.1194-1.9524-4.7035-2.2457-7.6779-0.28811-2.6375 0.2121-7.7858-0.3017-10.38-0.86839-2.8195-1.7882-4.6627-3.1663-7.2001 4.4851 4.9833 3.9347 8.5892 4.1144 14.622-0.37358 3.743 2.0892 6.9415 2.3526 10.812 0.83951 2.0703 0.0949 2.0739-0.75339-0.17542z" fill="#ffd283" stroke-width="3.8543"/>
  <path d="m337.6 433.72s5.3428 3.4378 9.326 8.8358 8.4048 5.7848 12.491 10.004c4.0863 4.2189 0.96477 4.0794 5.3459 8.3241 4.3811 4.2447 10.748 9.5543 10.748 9.5543s-0.16944 5.3317-0.6594 10.932c-0.49001 5.6007-5.0037 9.6613-5.0037 9.6613s-2.9183-7.3841-4.1454-13.729c-1.2271-6.345-3.2678-11.707-7.9695-15.682-4.7017-3.9757-19.986-16.006-22.547-20.686-2.5609-4.6795-10.594-11.323-10.594-11.323l10.14-3.8653z" fill="#571927" stroke="#ffd283" stroke-linejoin="bevel" stroke-width=".71493"/>
  <path d="m345.77 446.72c-1.5299-3.2706-6.6358-2.1931-8.4184-3.1075-3.9505-2.0266-6.5931-3.9866-10.767-4.7831-3.7005-0.70923-9.0277-0.81691-12.743-0.36019-2.8538 0.35529-7.3423 1.5322-10.066 2.6063-1.443 0.56194-3.4456 1.403-4.9499 1.3399-0.8109-0.0105-1.9776-0.40159-1.9776-0.40159s1.0439 2.009 1.95 2.9128c2.0373 2.0598 5.2516 3.8277 7.6543 4.867 2.3829 1.0092 5.6774 1.8049 8.17 1.9352 4.4679 0.24087 10.429-0.89424 14.828-1.9677 2.1125-0.5074 4.8291-1.8561 6.9355-2.4667 1.3221-0.37611 2.451-0.18017 3.8147-0.10911 1.4244 0.0818 5.6385 2.8753 5.6385 2.8753" fill="#571927" stroke="#ffd283" stroke-width=".47662"/>
  <path d="m338.73 445.09c-3.9889 0.19718-6.3252-1.2555-10.091-0.88069-3.3464 0.29762-9.6145 2.1979-12.963 2.2046-3.7166-0.37771-6.2337-1.0618-9.7267-2.1424 7.3019 4.3306 11.642 2.7513 19.177 1.4756 4.5548-1.3938 9.138 0.8694 14.009 0.23467 2.7792 0.52797 2.5986-0.3974-0.40503-0.89186z" fill="#ffd283" stroke-width="4.8805"/>
  <path d="m352.8 453.43c-1.9537-2.4116-5.1209 0.12569-6.5875-0.12768-3.2502-0.56154-5.5933-1.4707-8.6513-0.8771-2.712 0.52355-6.3609 2.0834-8.7569 3.6407-1.8393 1.2002-4.5593 3.6333-6.1095 5.4276-0.82316 0.94429-1.9484 2.3088-2.9879 2.7204-0.55378 0.24259-1.4556 0.25987-1.4556 0.25987s1.2708 1.449 2.139 1.9653c1.9598 1.1852 4.6376 1.7471 6.5603 1.9182 1.9008 0.15052 4.3613-0.17055 6.091-0.8299 3.1024-1.1754 6.8347-4.0292 9.5226-6.3432 1.2932-1.1041 2.7616-3.1386 4.0217-4.3318 0.79295-0.74268 1.6146-0.92043 2.5608-1.2813 0.99046-0.37024 4.6341 0.78629 4.6341 0.78629" fill="#571927" stroke="#ffd283" stroke-width=".39489"/>
  <path d="m347.56 454.18c-2.6546 1.4132-4.6478 0.85677-7.1013 2.3576-2.19 1.3023-5.9168 4.9268-8.1897 5.973-2.6303 0.82119-4.5315 0.99933-7.2065 1.1306 6.171 1.5542 8.678-1.1883 13.44-4.6551 2.7044-2.6452 6.4506-2.0714 9.582-4.1448 2.0355-0.39734 1.6542-1.158-0.52442-0.6614z" fill="#ffd283" stroke-width="4.0436"/>
  <path d="m349.66 447.43c-2.3176-2.7688 0.81683-6.941 0.74143-8.9429-0.16715-4.4368-0.82674-7.6603 0.21534-11.78 0.92111-3.6535 3.0749-8.5271 5.0589-11.701 1.5281-2.4363 4.4916-6.0068 6.6164-8.0216 1.1191-1.0704 2.7277-2.5299 3.3063-3.9199 0.33315-0.73938 0.4718-1.962 0.4718-1.962s1.3796 1.7952 1.8158 2.9984c1.0058 2.7169 1.2496 6.3772 1.1762 8.9941-0.0924 2.5861-0.76354 5.9082-1.6989 8.2223-1.6699 4.151-5.2181 9.0742-8.0499 12.607-1.3526 1.7002-3.7231 3.5922-5.1667 5.2432-0.89961 1.0392-1.1991 2.1452-1.711 3.4111-0.52781 1.3255 0.22291 6.3254 0.22291 6.3254" fill="#571927" stroke="#ffd283" stroke-width=".47662"/>
  <path d="m351.16 440.36c1.8645-3.5318 1.5353-6.2632 3.4666-9.518 1.684-2.9071 6.0552-7.7848 7.4765-10.817 1.2284-3.528 1.6722-6.0984 2.169-9.7208 0.83899 8.448-2.4268 11.714-6.7674 18.004-3.1881 3.5389-3.0739 8.6493-5.7078 12.796-0.69605 2.7419-1.4584 2.1872-0.63714-0.74397z" fill="#ffd283" stroke-width="4.8805"/>
  <path d="m363.81 461.9c-2.1388-7.4727-0.85463-4.814-1.1799-12.271l-1.8677-0.0137c0.54049 6.7209-1.4793 2.5038 0.22568 8.5427" fill="#571927" stroke="#ffd283" stroke-width=".47662"/>
  <path d="m366.23 447.49c-0.16052 2.3938-2.0796 4.2384-4.3196 4.1045-2.2165-0.15685-3.9119-2.2207-3.7549-4.634 0.1569-2.4132 2.589-5.948 4.8235-5.7951 2.2218 0.13789 3.4124 3.9116 3.251 6.3246z" fill="#571927" stroke="#ffd283" stroke-width=".71493"/>
  <path d="m369.49 473.03c1.7356-1.6946 3.7073-0.84539 3.5346 1.518-0.24579 3.6855-1.5868 8.2654-2.4045 8.0423-0.81793-0.20725-2.8294-6.4226-2.4979-7.7748 0.11053-0.41534 0.71603-1.2446 1.3678-1.7855z" fill="#ffd283" stroke-width=".47662"/>
  <path d="m368.96 468.59s-5.7138 3.1417-3.2786 9.6527c2.4352 6.5111-1.2705-7.0697 3.2786-9.6527z" fill="#ffd283"/>
  <path d="m244.24 428.37s-7.1013 10.396-12.828 12.02c-6.4542 1.8298-5.7818 7.3437-10.587 10.722s-2.9648 0.92709-8.0639 4.2753c-5.0991 3.3482-12.349 7.3701-12.349 7.3701s-0.83299 5.269-1.4015 10.862c-0.56853 5.5933 3.104 10.428 3.104 10.428s4.2508-6.7061 6.6454-12.709c2.3947-6.0025 6.6567-7.9875 12.02-11.011s17.861-13.469 21.254-17.586c3.3927-4.1165 13.514-16.592 13.514-16.592l-6.5713-0.19903z" fill="#571927" stroke="#ffd283" stroke-linejoin="bevel" stroke-width=".71493"/>
  <path d="m205.98 465.88c-1.3872-1.9899-3.4831-1.5253-3.7565 0.82852-0.44941 3.6662 9e-3 8.4163 0.85434 8.3504 0.84228-0.0503 3.9832-5.7784 3.911-7.1687-0.0307-0.42869-0.47003-1.3568-1.0089-2.0102z" fill="#ffd283" stroke-width=".47662"/>
  <path d="m207.33 461.61s5.0236 4.157 1.4111 10.096c-3.6125 5.9392 2.5732-6.7062-1.4111-10.096z" fill="#ffd283"/>
  <path d="m229.49 449.5c0.87813-0.83838 5.1564-0.12641 5.1564-0.12641 2.9951-1.7691 6.5978-4.1736 10.137-2.1318 1.263 0.97929 2.3 3.4846 3.9728 2.3669 1.883-0.77693 4.781-1.1346 5.8846 1.7348 1.3318 2.1795 3.4738 0.6079 5.0941 0.51293 1.7326-0.4108 3.6227 1.4781 3.539 3.7127-0.10595 1.5847 0.61561 3.0383 1.8285 3.7735 1.4802 1.0498 3.0018 3.4359 1.9602 5.3918-0.30098 0.56995-0.72661 1.0121-1.2344 1.2771-2.4102 1.4585-5.2114-1.2618-7.6824-0.0565-2.0016 0.49923-4.9695 0.45688-6.0975-2.3086-0.0188-1.2038-1.1052-1.7998-1.8262-1.1723-2.235 0.88981-5.1277-0.13704-6.3781-3.0321-0.3444-0.77339-1.2021-2.329-1.777-1.06-1.2836 1.6691-3.7182 1.2997-4.8171-0.82535-1.2672-1.9933-1.7274-5.3374-4.0368-5.7718l-3.9233 0.21869" fill="#571927" stroke="#ffd283" stroke-width=".61926"/>
  <path d="m256.73 462.69c-0.0866-1.5201 0.0185-2.9844-1.03-4.7972l0.80361 0.37419c0.5635 1.6118 0.36466 3.0147 0.2264 4.4231zm8.8157 1.0998c-5.4775-3.9794-11.563-7.2675-17.595-9.5104 0.78068 1.2635 0.96856 2.4717 1.2015 3.6971-0.4839-1.3344-0.80528-2.6638-2.1838-4.0385-4.0483-1.422-8.051-2.3529-11.808-2.6771-1.4348-0.14947-2.6676-0.45571-1e-3 -0.73882 3.8995 0.32732 7.6345 1.2027 11.107 2.3966 1.9464 0.0427 3.3666-0.44775 4.8691-0.85093-1.2158 0.47237-2.4041 0.97089-3.8589 1.2054 2.5416 0.92947 4.9297 2.0094 7.1272 3.1655 2.1141 0.0994 3.6024-0.42553 5.192-0.84344-1.3605 0.53066-2.6824 1.0791-4.3725 1.274 4.3737 2.3794 7.9333 4.9568 10.322 6.9206z" fill="#ffd283" stroke-width="3.0747"/>
  <path d="m224.53 447.3c0.0778-1.2116-3.2176-4.0313-3.2176-4.0313-0.57002-3.4315-1.0438-7.7369-4.8826-9.1353-1.562-0.33801-4.1478 0.4779-4.3668-1.5219-0.61519-1.9418-2.2039-4.3918-5.1115-3.3927-2.5256 0.38073-2.6986-2.2703-3.6674-3.5726-0.79898-1.5913-3.4609-1.825-5.119-0.32455-1.1459 1.0998-2.7232 1.4814-4.066 1.0248-1.7556-0.4591-4.5616-0.091-5.3904 1.9641-0.24314 0.59691-0.30825 1.2072-0.18488 1.7666 0.43202 2.7838 4.3164 3.1812 4.9814 5.8487 0.90417 1.8542 2.8443 4.1005 5.6879 3.187 0.93429-0.75938 2.0891-0.31027 2.0719 0.6454 0.75504 2.2841 3.401 3.8399 6.4224 2.9369 0.81383-0.23331 2.5568-0.57615 1.9542 0.67996-0.45355 2.0562 1.3944 3.6837 3.7287 3.1596 2.3415-0.31057 5.199-2.1075 7.0163-0.61772l2.3544 3.146" fill="#571927" stroke="#ffd283" stroke-width=".61926"/>
  <path d="m196.92 434.91c1.2201-0.91077 2.2744-1.9325 4.337-2.2946l-0.8032-0.37508c-1.5969 0.60438-2.5438 1.6585-3.5338 2.6697zm-6.5091-6.0463c6.5692 1.6381 13 4.1861 18.595 7.3651-1.4697 0.2141-2.516 0.84684-3.6045 1.456 1.3333-0.48707 2.5582-1.0954 4.4974-0.92298 3.6915 2.1871 6.9775 4.655 9.6405 7.3243 1.0368 1.0031 2.0638 1.7506 0.56687-0.47384-2.7573-2.7768-5.8287-5.0753-8.975-6.9676-1.2838-1.4636-1.821-2.8668-2.4779-4.2769 0.41967 1.235 0.80161 2.4658 1.557 3.7309-2.3457-1.3496-4.7081-2.4848-7.0062-3.425-1.435-1.5556-1.9896-3.0331-2.6912-4.5194 0.46799 1.3833 0.89755 2.7484 1.8347 4.1684-4.6341-1.821-8.8965-2.8911-11.937-3.459z" fill="#ffd283" stroke-width="3.0747"/>
  <path d="m224.57 450.85c0.91479-1.062-0.15873-5.9527-0.15873-5.9527 1.8629-3.5578 4.4225-7.8536 1.8594-11.813-1.2037-1.3984-4.1535-2.4462-2.9636-4.4408 0.7846-2.2169 1.0259-5.5794-2.3477-6.6824-2.5915-1.4068-0.90603-3.9693-0.89221-5.8432 0.37134-2.0219-1.9182-4.0896-4.4897-3.8612-1.8209 0.21572-3.5395-0.53039-4.4587-1.8854-1.2978-1.6446-4.1388-3.2582-6.3324-1.9418-0.63937 0.38067-1.124 0.89752-1.3996 1.4987-1.5392 2.865 1.7625 5.9342 0.51878 8.8543-0.45741 2.3373-0.23333 5.7567 3.0219 6.894 1.3891-0.0494 2.1404 1.168 1.4595 2.0364-0.89395 2.6295 0.46079 5.904 3.8725 7.1748 0.91205 0.35142 2.7562 1.2485 1.327 1.9863-1.8487 1.5785-1.279 4.3638 1.2361 5.5054 2.3731 1.3433 6.2559 1.6765 6.8932 4.3135l-0.0204 4.5365" fill="#571927" stroke="#ffd283" stroke-width=".71493"/>
  <path d="m207.76 420.22c1.7577 0.01 3.4399-0.19748 5.592 0.90431l-0.47888-0.90446c-1.8916-0.55453-3.4975-0.24242-5.1131 1.5e-4zm-1.7886-10.099c4.9116 6.0805 9.0621 12.902 12.004 19.725-1.5029-0.82551-2.907-0.97078-4.3336-1.167 1.5672 0.47914 3.1189 0.77119 4.7853 2.2795 1.8786 4.5836 3.1882 9.1438 3.7838 13.456 0.25705 1.6455 0.68294 3.0488 0.85193-0.042-0.60766-4.4768-1.8375-8.7315-3.419-12.664-0.1641-2.2417 0.31746-3.908 0.69359-5.6642-0.47283 1.4297-0.97745 2.8293-1.162 4.5204-1.2217-2.8756-2.608-5.5652-4.0706-8.0306-0.23942-2.4317 0.27791-4.1786 0.66587-6.0361-0.5315 1.5999-1.0858 3.1564-1.2107 5.1166-3.0017-4.9023-6.1835-8.8543-8.5889-11.493z" fill="#ffd283" stroke-width="3.5498"/>
  <path d="m225.83 451.2c0.34623-1.3582 4.9697-3.2806 4.9697-3.2806 1.8485-3.5652 3.9027-8.1244 8.6164-8.2924 1.8357 0.18532 4.3846 2.0026 5.3376-0.11552 1.3674-1.9132 3.9849-4.0376 6.8219-1.9046 2.6378 1.3179 3.7723-1.5317 5.3001-2.6167 1.4443-1.4628 4.4508-0.77108 5.737 1.4674 0.86651 1.616 2.4627 2.597 4.0999 2.574 2.0915 0.12134 5.0417 1.5253 5.2197 4.0774 0.0543 0.74212-0.0916 1.4355-0.42636 2.0058-1.4662 2.9031-5.8734 1.9555-7.5541 4.648-1.6535 1.7141-4.5844 3.4896-7.3816 1.4733-0.75545-1.1668-2.1836-1.085-2.5052-0.0294-1.6429 2.2393-5.1028 3.0051-8.0992 0.93703-0.81058-0.54615-2.6025-1.5436-2.3883 0.0505-0.23449 2.4196-2.8437 3.5485-5.2203 2.1413-2.4606-1.1753-4.9585-4.1666-7.4848-3.1781l-3.7063 2.616" fill="#571927" stroke="#ffd283" stroke-width=".71493"/>
  <path d="m260.56 447.43c-1.0154-1.4348-1.8091-2.9324-3.9452-4.0649l1.0157-0.12573c1.5383 1.2326 2.2026 2.7276 2.9295 4.1907zm9.3021-4.3207c-7.7976-0.54156-15.767-0.0345-23.044 1.463 1.5376 0.75873 2.4613 1.8264 3.4395 2.8831-1.2906-1.0099-2.419-2.1143-4.61-2.6159-4.8331 1.0866-9.3208 2.626-13.196 4.6085-1.4959 0.73215-2.8901 1.1872-0.45369-0.7223 4.0173-2.067 8.209-3.4968 12.338-4.4539 1.9313-1.1499 3.0211-2.4993 4.2449-3.8138-0.90085 1.2067-1.7588 2.4222-3.0391 3.5424 3.0568-0.64628 6.0554-1.0512 8.914-1.2651 2.1301-1.197 3.2655-2.622 4.5656-4.0042-1.0068 1.3523-1.9648 2.6984-3.4998 3.9239 5.7377-0.34866 10.8-5e-3 14.341 0.45429z" fill="#ffd283" stroke-width="3.5498"/>
  <path d="m231.14 443.45c1.0882-0.53842 1.8824-4.8022 1.8824-4.8022 2.6868-2.2094 6.1785-4.7724 5.4702-8.7961-0.48828-1.5217-2.4878-3.3531-0.86537-4.5427 1.3741-1.5037 2.7014-4.1046 0.38243-6.123-1.5925-1.9969 0.61687-3.4722 1.2603-4.9624 0.97861-1.4876-0.14996-3.9098-2.2784-4.5954-1.5254-0.44245-2.6445-1.6176-2.9205-3.0088-0.48023-1.75-2.202-3.9959-4.3962-3.6861-0.63851 0.0879-1.1996 0.33663-1.6223 0.72316-2.1948 1.766-0.59675 5.3287-2.5744 7.2384-1.1537 1.7101-2.129 4.5135 0.084 6.5194 1.1248 0.42943 1.3132 1.6541 0.47702 2.117-1.6006 1.7959-1.625 4.8653 0.66777 7.0305 0.60896 0.58815 1.7774 1.9262 0.38826 2.0324-2.0075 0.63528-2.493 3.0494-0.87198 4.8089 1.4397 1.8725 4.4247 3.4487 4.0431 5.7674l-1.5474 3.6119" fill="#571927" stroke="#ffd283" stroke-width=".61926"/>
  <path d="m228.07 413.34c1.3988 0.60125 2.8107 1.0034 4.1557 2.6087l-0.0768-0.88314c-1.3219-1.0808-2.7082-1.3738-4.0789-1.7255zm1.9817-8.6602c1.866 6.5082 2.8745 13.351 2.9191 19.786-0.92026-1.1657-1.9914-1.7555-3.0632-2.3936 1.0885 0.91113 2.2277 1.6678 3.048 3.4334-0.0483 4.2905-0.54262 8.3702-1.5228 12.011-0.35029 1.3994-0.48417 2.6626 0.69379 0.254 1.0261-3.7763 1.481-7.5854 1.5466-11.256 0.62564-1.8436 1.5722-3.0104 2.4649-4.2844-0.85971 0.98095-1.7346 1.9271-2.4525 3.2139-4e-3 -2.7062-0.20218-5.3197-0.53691-7.78 0.62969-2.0206 1.632-3.2396 2.5683-4.5904-0.96396 1.0969-1.9314 2.1515-2.6926 3.6731-0.74006-4.9237-1.9445-9.1502-2.9728-12.067z" fill="#ffd283" stroke-width="3.0747"/>
  <g fill="#571927" stroke="#ffd283">
   <path d="m225.32 455.75c3.6327 0.99501 3.7905 1.2301 8.3131 7.4281l2.0951-1.988c-4.2962-5.4268-7.3033-8.7854-8.3825-8.5924" stroke-width=".47662"/>
   <path d="m233.5 467.16c1.8286-2.9495 4.0293-5.435 6.4891-7.6255 2.4618 3.5111 8.427 8.3674 5.2238 12.224-4.1882 3.4644-8.6119-2.6432-11.713-4.5984z" stroke-width=".71493"/>
   <path d="m233.21 467.48c-3.3022-1.3586-5.1277-5.3062-1.9455-9.5269 2.8828-2.7787 6.7178-3.7046 9.0285 1.3788-2.7907 2.423-5.1004 5.1494-7.083 8.1481z" stroke-width=".47662"/>
  </g>
  <g fill="none" stroke="#ffd283" stroke-width=".23831">
   <path d="m230.21 464.83 3.9383 1.163-2.7599-8.2164"/>
   <path d="m229.65 462.42c1.896 1.2167 3.6858 1.6351 5.4925 2.2485-0.64008-2.4451-1.5774-5.0113-2.6816-7.6451"/>
   <path d="m229.9 460.77c1.9961 1.1085 4.245 1.7555 6.484 2.4127-0.62318-2.3304-1.558-4.6303-2.6561-6.9301"/>
   <path d="m230.45 459.3c2.3256 0.98368 4.7956 1.6876 7.2448 2.45-0.33866-1.9035-1.313-3.9218-2.4733-5.9662"/>
   <path d="m231.11 458.17c2.7747 0.63944 5.339 1.4948 7.9438 2.2715l-1.7002-4.4266"/>
   <path d="m233.26 467.42c-1.0188-2.9326-1.7974-5.7696-2.5336-8.6007"/>
   <path d="m231.88 466.76c-0.87147-2.1814-1.2645-4.4967-1.7356-6.7896"/>
   <path d="m232.13 457.3c2.6462 0.65994 5.2671 1.1077 7.9638 2.1814"/>
   <path d="m239.53 458.02c-2.0667-0.77954-4.0879-1.2658-6.1032-1.5892"/>
  </g>
  <g fill="#571927" stroke="#ffd283">
   <path d="m282.83 290.8h12.587v27.16h-12.587z" stroke-width=".71493"/>
   <path d="m289.37 240.44 8.3521 18.453-5.1082 11.428h-6.264l-6.1149-11.428z" stroke-width=".71491"/>
   <g stroke-width=".71493">
    <path d="m284.96 270.66h8.3296c1.4989 0 2.7107 1.316 2.7107 2.9646 0 1.6251-1.2081 2.9458-2.7107 2.9458h-8.3296c-1.4989 0-2.7107-1.3207-2.7107-2.9458 0-1.6486 1.208-2.9646 2.7107-2.9646z"/>
    <path d="m317.81 253.54s13.296 10.113 13.24 28.578c-0.056 18.466-13.24 28.779-13.24 28.779s1.8643-11.526-6.2938-17.713c-8.1581-6.1821-21.632-7.0064-21.632-7.0064-8.4899-0.32784-22.081 5.7278-22.081 5.7278l-16.808-9.6056 16.808-9.5869s13.08 6.4771 22.081 6.6364c0 0 13.605-2.0279 21.632-8.491 8.0276-6.4256 6.2938-17.319 6.2938-17.319z"/>
    <path d="m281.99 278.49v9.2731c0 1.4097-1.0626 2.5618-2.3751 2.5618-1.3236 0-2.3751-1.1568-2.3751-2.5618v-9.2731c0-1.4097 1.0477-2.5431 2.3751-2.5431 1.3124 0 2.3751 1.1334 2.3751 2.5431z"/>
   </g>
  </g>
  <path d="m275.57 282.92-7.0843 4.5429-6.5996-4.5429z" fill="#ffd283" stroke-width="4.1788"/>
  <path d="m282.76 273.83h12.729c1.5138 0 2.7218 1.316 2.7218 2.9412v12.715c0 1.6486-1.208 2.9646-2.7218 2.9646h-12.729c-1.5138 0-2.7218-1.316-2.7218-2.9646v-12.715c-4e-3 -1.6251 1.208-2.9412 2.7218-2.9412z" fill="#571927" stroke="#ffd283" stroke-width=".71493"/>
  <g fill="#ffd283">
   <path d="m287.26 290.15h7.7181v-9.2169c-1.689 4.7911-4.6607 8.0133-7.7181 9.2169z" stroke-width="4.1788"/>
   <path d="m317.33 302.22s11.046-10.311 6.6927-31.161c6.1864 21.309-6.0053 32.751-6.0053 32.751z"/>
   <path d="m287.67 250.43v17.852l-4.5428-9.2422z" stroke-width="4.773"/>
  </g>
  <g fill="#571927" stroke="#ffd283">
   <path d="m314.1 497.28v-190.02c-6.8282-5.4889-14.191-6.902-24.939-7.1473-10.748-0.24135-17.453 2.145-24.991 7.1473v190.02" stroke-width="1.4298"/>
   <g stroke-width=".71493">
    <path d="m269.15 304.45v187.27"/>
    <path d="m275.24 301.81v188.15"/>
    <path d="m281.47 300.54v188.15"/>
    <path d="m290.41 300.21v188.15"/>
    <path d="m303.94 302v188.15"/>
    <path d="m309.17 304.1v188.15"/>
    <path d="m296.87 300.68v188.15"/>
    <path d="m313.75 476.53c-2.2656-4.0539-6.0765-8.0493-10.324-11.354-4.2759-3.3243-11.814-8.857-16.964-12.298-5.0136-3.3672-16.198-9.8753-22.044-7.8971v-10.976c8.1113-1.2056 25.442 11.463 27.984 12.837 8.9714 6.3247 14.286 11.385 21.373 19.63z"/>
    <path d="m264.45 476.53c2.2656-4.0539 6.0765-8.0493 10.31-11.354 4.2899-3.3243 11.814-8.857 16.964-12.298 5.0136-3.3672 16.198-9.8753 22.058-7.8971v-10.976c-8.1253-1.2056-25.456 11.463-27.998 12.837-8.9714 6.3247-14.272 11.385-21.359 19.63z"/>
    <path d="m264.45 476.53c3.3739-2.8366 8.1113-4.5729 12.387-5.443 4.2759-0.86619 9.342-1.7363 13.849-1.627 4.5067 0.12095 7.1009 0.4409 10.926 1.7519 3.8249 1.2954 8.0029 2.4815 10.024 3.9018 2.0208 1.4163 2.1432 1.7363 2.1432 1.7363v-10.976s-2.4858-1.0808-4.5067-1.7402c-2.0348-0.65549-5.8038-2.1616-8.6183-2.5439-2.7865-0.38237-6.4751-1.1432-12.552-0.92862-6.0905 0.2107-13.754 1.6309-17.345 2.938-3.6046 1.2954-6.3387 2.8678-6.3387 2.8678z"/>
   </g>
  </g>
  <g fill="#ffd283" stroke-width="3.6934">
   <path d="m313.74 473.9 0.0699-1.9977s-3.4159-2.6844-8.3596-4.2217c-4.9297-1.5412-7.3212-1.4632-7.3212-1.4632s1.9125 0.38237 3.8249 1.0066c1.9124 0.60868 6.1324 2.9107 6.9226 3.3672 0.79366 0.47211 5.0136 3.3828 4.8633 3.3087z"/>
   <path d="m270.25 463.61c1.8285-2.302 8.9994-7.8347 8.9994-7.8347s-3.0312 2.9887-3.9892 4.2217c-0.95448 1.2369-1.9789 2.8366-1.9789 2.8366z"/>
   <path d="m291.35 454.6c1.6922 0.24581 2.6642 0.15217 4.4402 1.4046 1.7341 1.2212 2.1852 1.3851 3.0452 3.336-1.4335-1.432-3.1152-2.4971-3.7165-2.9575-0.57339-0.45651-3.769-1.7831-3.769-1.7831z"/>
   <path d="m295.38 453.84c1.6258 0.45651 3.5662 0.71793 5.164 2.1811 1.5418 1.4319 1.6537 2.4971 2.2411 4.5416-1.2307-1.5997-2.4299-3.7184-2.9508-4.2529-0.52094-0.51894-4.4542-2.4698-4.4542-2.4698z"/>
  </g>
  <g fill="#571927" stroke="#ffd283" stroke-width=".71493">
   <path d="m313.66 374.49c-2.2656-3.9968-6.0765-7.9359-10.31-11.179-4.2899-3.2929-11.828-8.7322-16.964-12.144-5.0136-3.3198-16.212-9.7362-22.058-7.7821v-10.821c8.1253-1.1887 25.456 11.298 27.984 12.652 8.9854 6.251 14.286 11.225 21.373 19.369z"/>
   <path d="m264.35 374.75c2.2656-3.9968 6.0765-7.936 10.324-11.183 4.2759-3.2736 11.814-8.7284 16.95-12.14 5.0276-3.3198 16.212-9.7362 22.058-7.7859v-10.821c-8.1113-1.1887-25.442 11.302-27.984 12.668-8.9714 6.2395-14.286 11.213-21.373 19.357z"/>
   <path d="m264.35 338.57c3.3879-2.7966 8.1113-5.2432 12.387-6.1164 4.2899-0.85399 9.356-1.7118 13.863-1.5926 4.4927 0.10771 7.0869 0.42315 10.926 1.7157 3.8249 1.2771 7.9889 2.4658 10.01 3.8468 2.0348 1.3964 2.1432 1.7118 2.1432 1.7118v-10.821s-2.4718-1.0656-4.5066-1.7118c-2.0209-0.63088-5.7898-2.135-8.6183-2.5081-2.7865-0.37699-6.4751-1.1271-12.552-0.91554-6.0765 0.22696-13.74 1.608-17.345 2.8966-3.6046 1.281-6.3387 2.8428-6.3387 2.8428z"/>
  </g>
  <g fill="#ffd283" stroke-width="3.6673">
   <path d="m267.29 336.69c2.4159 0 7.989 1.985 7.989 1.985-0.84609-1.2925-3.5522-2.5697-6.6359-3.1582z"/>
   <path d="m264.41 340.49c2.4299 0 8.0029 1.985 8.0029 1.985-0.84609-1.2925-4.7269-2.7351-7.8246-3.3198z"/>
   <path d="m270.05 331.96s4.643-1.8811 10.038-3.0082c5.3947-1.1425 11.541-1.5464 11.541-1.5464s-6.5415-0.90015-11.936 0.22696c-5.3947 1.1386-9.6427 4.3276-9.6427 4.3276z"/>
  </g>
  <g fill="#571927" stroke="#ffd283">
   <path d="m289.17 488.38c-13.779 0-24.991 3.8237-24.991 8.537 0 4.6938 11.212 8.5175 24.991 8.5175s24.939-3.8238 24.939-8.5175c-5e-3 -4.7133-11.16-8.537-24.939-8.537z" stroke-width="1.4298"/>
   <g stroke-width=".71493">
    <path d="m305.56 497.15a15.66 3.6872 0 0 1-15.66 3.6872 15.66 3.6872 0 0 1-15.66-3.6872 15.66 3.6872 0 0 1 15.66-3.6872 15.66 3.6872 0 0 1 15.66 3.6872z"/>
    <path d="m283.69 494.04s3.1508-0.47376 6.2984-0.47376c3.1383 0 6.286 0.47376 6.286 0.47376v18.087h-12.588v-18.087z"/>
    <path d="m281.6 508.62c1.2001-1.9456 3.9974-2.428 7.9947-2.428s6.1899 0.58672 7.9823 2.428v25.361c0 2.2003-3.985 5.4698-7.9823 5.4698s-7.9947-3.2734-7.9947-5.4698z"/>
    <path d="m289.59 530.89c-3.3058 0-6.6023 2.262-7.6443 4.2809 1.042 2.0227 4.3354 4.2848 7.6443 4.2848s6.5899-2.2466 7.6319-4.2848c-1.042-2.0189-4.3261-4.2809-7.6319-4.2809z"/>
   </g>
   <path d="m246.33 383.86c-3.5343 0.36974-5.2169-4.4825-6.8925-5.5215-3.7137-2.3027-6.7076-3.5363-9.4973-6.6515-2.476-2.7604-5.2703-7.1977-6.7705-10.562-1.1487-2.5867-2.4342-6.9687-2.9108-9.8107-0.25849-1.502-0.5656-3.6174-1.3822-4.8539-0.42043-0.67841-1.3422-1.4637-1.3422-1.4637s2.2238-0.13925 3.4458 0.16608c2.7708 0.67257 5.8927 2.4858 7.9885 3.9843 2.0602 1.4971 4.4031 3.8713 5.778 5.907 2.4705 3.6451 4.5387 9.248 5.8658 13.502 0.64423 2.0388 0.88561 5.014 1.4397 7.1 0.35379 1.3056 1.0919 2.1581 1.8439 3.2719 0.79186 1.1595 5.286 3.2953 5.286 3.2953" stroke-width=".46907"/>
  </g>
  <path d="m241.38 378.76c-1.858-3.4636-4.2686-4.6964-5.8638-8.0622-1.4473-2.9728-3.0259-9.2226-4.7198-12.05-2.2046-2.9422-4.0589-4.7176-6.7428-7.1145 7.3573 3.9594 8.2284 8.4208 10.977 15.422 1.1362 4.548 5.3705 7.2641 7.3073 11.694 1.8556 2.0755 0.98367 2.3929-0.95757 0.11109z" fill="#ffd283" stroke-width="4.8032"/>
  <path d="m235.94 333.04c-0.0409-3.5533-5.055-4.6643-6.2806-6.2088-2.7161-3.4229-4.2873-6.2543-7.7038-8.6656-3.0279-2.1406-7.7582-4.4038-11.273-5.5054-2.702-0.84228-7.2032-1.6131-10.081-1.7583-1.5218-0.0833-3.6586-0.14405-4.981-0.81236-0.72243-0.33927-1.6089-1.1642-1.6089-1.1642s0.11849 2.225 0.56291 3.4036c0.98805 2.6746 3.1497 5.5662 4.8802 7.4749 1.7251 1.8736 4.3539 3.9266 6.5347 5.0571 3.9061 2.033 9.7103 3.4403 14.089 4.2672 2.0996 0.40445 5.0827 0.30062 7.2187 0.61011 1.3378 0.20064 2.2698 0.83536 3.463 1.4537 1.2432 0.65265 3.8837 4.87 3.8837 4.87" fill="#571927" stroke="#ffd283" stroke-width=".46907"/>
  <path d="m230.3 328.72c-3.655-1.4456-5.1579-3.6977-8.6855-4.8935-3.12-1.0943-9.5103-1.9406-12.514-3.2966-3.1771-1.8501-5.1547-3.4869-7.8456-5.876 4.7825 6.8508 9.3148 7.2008 16.586 9.1221 4.6488 0.60333 7.8357 4.4957 12.459 5.908 2.2759 1.6035 2.4905 0.70075-2.3e-4 -0.96399z" fill="#ffd283" stroke-width="4.8032"/>
  <path d="m216.26 304.36c-0.0409-3.5534-5.055-4.6643-6.2806-6.2088-2.7161-3.4229-4.2873-6.2543-7.7038-8.6656-3.0279-2.1406-7.7582-4.4038-11.273-5.5054-2.702-0.84228-7.2032-1.6131-10.081-1.7583-1.5218-0.0833-3.6586-0.14404-4.981-0.81236-0.72243-0.33926-1.6089-1.1642-1.6089-1.1642s0.11849 2.225 0.56291 3.4036c0.98806 2.6746 3.1497 5.5662 4.8802 7.4749 1.7251 1.8736 4.3539 3.9266 6.5347 5.0571 3.9061 2.033 9.7103 3.4403 14.089 4.2672 2.0996 0.40446 5.0827 0.30063 7.2187 0.61012 1.3378 0.20064 2.2698 0.83536 3.463 1.4537 1.2432 0.65265 3.8837 4.87 3.8837 4.87" fill="#571927" stroke="#ffd283" stroke-width=".46907"/>
  <path d="m210.61 300.03c-3.655-1.4456-5.1579-3.6977-8.6855-4.8935-3.1201-1.0943-9.5103-1.9406-12.514-3.2966-3.1771-1.8501-5.1547-3.4869-7.8456-5.876 4.7825 6.8508 9.3148 7.2008 16.586 9.1221 4.6488 0.60333 7.8357 4.4957 12.459 5.908 2.2759 1.6035 2.4905 0.70074-2.3e-4 -0.96399z" fill="#ffd283" stroke-width="4.8032"/>
  <path d="m215.19 304.18c-1.7442-2.417-5.7192-0.7571-7.3056-1.2243-3.5158-1.0354-5.9607-2.2182-9.4682-2.2216-3.1102-6e-3 -7.4471 0.72716-10.39 1.6694-2.2597 0.72744-5.7187 2.3728-7.7624 3.6633-1.0838 0.67786-2.5784 1.6682-3.8081 1.8486-0.65926 0.11627-1.6656-0.0213-1.6656-0.0213s1.1559 1.4686 2.0299 2.0621c1.9693 1.3569 4.8482 2.2958 6.9568 2.7689 2.0878 0.45163 4.8821 0.58983 6.9237 0.31178 3.6605-0.49242 8.3204-2.3307 11.722-3.8784 1.6351-0.73669 3.6307-2.2487 5.2449-3.0681 1.0143-0.50853 1.96-0.5234 3.0768-0.67569 1.1677-0.15288 5.0154 1.4639 5.0154 1.4639" fill="#571927" stroke="#ffd283" stroke-width=".39343"/>
  <path d="m209.23 303.94c-3.2046 0.77394-5.323-0.0445-8.3195 0.83917-2.6681 0.75649-7.4589 3.2625-10.174 3.7834-3.0723 0.26579-5.219 0.0985-8.2181-0.24023 6.5884 2.3881 9.8654 0.43912 15.78-1.7554 3.4793-1.8315 7.5447-0.70158 11.397-1.9662 2.3352 3.6e-4 2.0463-0.72232-0.46575-0.66095z" fill="#ffd283" stroke-width="4.0287"/>
  <path d="m256.06 358.64c-3.0858-0.9258-2.7976-5.5728-3.8362-7.0276-2.3019-3.224-4.3753-5.3022-5.6203-8.8831-1.1066-3.1744-1.8934-7.8629-1.9727-11.202-0.057-2.5653 0.39905-6.6802 0.9935-9.2242 0.30865-1.3468 0.79101-3.2237 0.54001-4.5434-0.11461-0.71443-0.61129-1.6935-0.61129-1.6935s1.9089 0.66064 2.8245 1.3431c2.0828 1.5309 4.0607 4.1387 5.2902 6.1246 1.2003 1.9724 2.3305 4.7772 2.7692 6.9605 0.79279 3.9126 0.56494 9.3223 0.18853 13.344-0.17357 1.9306-1.0114 4.5038-1.2768 6.4424-0.16032 1.2158 0.15923 2.1869 0.39905 3.3814 0.2572 1.2467 3.2702 4.6039 3.2702 4.6039" fill="#571927" stroke="#ffd283" stroke-width=".42525"/>
  <path d="m253.71 352.64c-0.34393-3.5467-1.9296-5.4204-2.0878-8.7934-0.17184-2.9926 0.69166-8.7724 0.26266-11.729-0.81604-3.2317-1.7468-5.3648-3.1543-8.3078 4.771 5.8832 3.9405 9.9198 3.7928 16.737-0.63891 4.2016 1.9541 7.9534 2.0263 12.336 0.82695 2.3847-0.0133 2.3455-0.83985-0.24169z" fill="#ffd283" stroke-width="4.3545"/>
  <path d="m257.23 355.63s-8.5636-9.3826-10.492-11.508-7.3617-6.805-8.2361-9.9897c-0.87437-3.1847-4.0578-8.4591-7.0275-11.448-2.9696-2.9887-8.6404-12.258-10.574-16.496-1.9337-4.2384-12.752-21.288-14.609-22.652s-3.2025 0.68388-3.2025 0.68388 0.19259 0.94642 2.2077 3.06c3.1958 3.3518 4.1537 5.3758 5.8311 10.983 1.4266 4.769 2.2132 5.173 3.8852 8.6674 1.6719 3.4944 5.1116 7.3998 7.3672 8.9181s6.5875 8.7989 7.688 12.347c1.1005 3.5478 2.1475 6.5242 6.2422 9.2155s4.1414 7.2984 7.5633 11.013c3.4219 3.715 9.5765 11.068 9.5765 11.068 3.8253 5.6927 4.501 4.5074 5.9564 10.038s5.5306 7.5683 6.695 4.3663c1.1643-3.202 0.58217-6.9861-1.4554-8.4415-2.0376-1.4554-5.2278-6.2618-7.4168-9.8259z" fill="#571927" stroke="#ffd283" stroke-linejoin="bevel" stroke-width=".71493"/>
  <path d="m196.91 370.83c1.5943 2.8072-1.8321 5.974-2.087 7.747-0.56485 3.9293-0.50186 6.8704-2.0794 10.326-1.3964 3.0657-4.0727 7.0068-6.327 9.4802-1.7349 1.8977-4.9144 4.5628-7.1065 5.994-1.1561 0.76188-2.8051 1.7876-3.537 2.9173-0.41164 0.59689-0.72977 1.65-0.72977 1.65s-0.92539-1.8003-1.1161-2.9286c-0.44876-2.5511-0.0759-5.8097 0.40849-8.0996 0.49622-2.2598 1.6195-5.0742 2.8135-6.9595 2.1348-3.3832 6.0455-7.1442 9.1031-9.7972 1.4625-1.2784 3.8511-2.5623 5.3857-3.7828 0.958-0.76975 1.3989-1.6944 2.0522-2.7258 0.67689-1.0812 0.81876-5.5994 0.81876-5.5994" fill="#571927" stroke="#ffd283" stroke-width=".42614"/>
  <path d="m194.46 376.81c-2.2066 2.8073-2.3553 5.2626-4.5762 7.8156-1.9476 2.2868-6.575 5.8757-8.3116 8.3147-1.6465 2.906-2.4492 5.0957-3.4674 8.2022 0.61749-7.5652 4.014-9.9142 8.841-14.75 3.372-2.6012 4.0914-7.1144 7.0734-10.339 1.0521-2.3 1.6337-1.6898 0.44104 0.7566z" fill="#ffd283" stroke-width="4.3636"/>
  <path d="m202.25 371.61c-2.0137 3.2748-7.2845 1.5178-9.2806 2.2697-4.4238 1.6662-7.4561 3.4202-11.967 3.7583-4.0001 0.30299-9.6482-0.22694-13.523-1.1591-2.9758-0.72074-7.5815-2.5081-10.333-3.9736-1.4585-0.76882-3.4752-1.9005-5.0741-2.0156-0.85905-0.0868-2.1404 0.18579-2.1404 0.18579s1.3471-1.9989 2.4148-2.8455c2.404-1.9326 6.0178-3.4142 8.685-4.2233 2.6426-0.77951 6.2237-1.2231 8.8761-1.0596 4.7552 0.2852 10.924 2.2064 15.447 3.8736 2.1733 0.79204 4.884 2.5471 7.0383 3.4475 1.353 0.55763 2.5708 0.48681 4.0219 0.57645 1.5166 0.0856 6.3119-2.36 6.3119-2.36" fill="#571927" stroke="#ffd283" stroke-width=".50745"/>
  <path d="m194.61 372.49c-4.1956-0.69066-6.8426 0.5636-10.781-0.28802-3.5039-0.71927-9.9046-3.487-13.446-3.8987-3.9771-0.0497-6.7224 0.36975-10.548 1.0907 8.2474-3.6985 12.648-1.5032 20.464 0.75687 4.6496 2.0249 9.7713 0.18476 14.847 1.4449 3.0036-0.2226 2.7008 0.73445-0.5362 0.89446z" fill="#ffd283" stroke-width="5.1962"/>
  <path d="m204.48 285.24c-2.769-1.1032-2.127-5.3627-2.9665-6.7875-1.8604-3.1578-3.603-5.2411-4.4605-8.6422-0.76278-3.0152-1.1082-7.4-0.9109-10.483 0.15525-2.3688 0.90879-6.1243 1.6627-8.4208 0.39354-1.2162 0.99011-2.907 0.86566-4.1436-0.0478-0.66773-0.42623-1.6103-0.42623-1.6103s1.7058 0.76346 2.4944 1.4666c1.7956 1.5796 3.4073 4.1432 4.3796 6.0731 0.94646 1.915 1.761 4.5915 1.9884 6.6393 0.4138 3.6702-0.23432 8.6375-0.90697 12.314-0.31633 1.7653-1.2969 4.069-1.6985 5.8342-0.24622 1.1076-0.0304 2.0284 0.0939 3.1488 0.13609 1.1698 2.6411 4.5079 2.6411 4.5079" fill="#571927" stroke="#ffd283" stroke-width=".39343"/>
  <path d="m202.8 279.52c-0.0297-3.2966-1.3394-5.1519-1.212-8.2734 0.084-2.772 1.3479-8.0289 1.192-10.789-0.49036-3.0445-1.1754-5.0858-2.2343-7.9122 3.9206 5.8086 2.8283 9.4615 2.1402 15.732-0.92912 3.8206 1.1568 7.4884 0.86848 11.533 0.56901 2.2648-0.20226 2.1606-0.75446-0.29077z" fill="#ffd283" stroke-width="4.0287"/>
  <path d="m235.2 331.76c-2.0504-2.1633 0.31985-5.7602 0.15588-7.4058-0.36344-3.647-1.0709-6.2692-0.42189-9.7162 0.57303-3.057 2.0996-7.1819 3.5727-9.8979 1.135-2.085 3.395-5.1776 5.0431-6.9457 0.86761-0.9388 2.1187-2.2232 2.5247-3.3978 0.23686-0.62613 0.2889-1.6405 0.2889-1.6405s1.2279 1.4088 1.6486 2.378c0.96691 2.1873 1.354 5.1906 1.4266 7.3504 0.0554 2.1354-0.3285 4.9066-0.98141 6.8608-1.1646 3.505-3.8375 7.7418-5.9909 10.796-1.028 1.4696-2.8847 3.1491-3.9901 4.5828-0.68831 0.902-0.87881 1.8284-1.2362 2.8975-0.36741 1.1189 0.50549 5.2001 0.50549 5.2001" fill="#571927" stroke="#ffd283" stroke-width=".39343"/>
  <path d="m236.07 325.86c1.3565-3.0047 0.94628-5.2384 2.3719-8.0183 1.2395-2.4808 4.5929-6.722 5.6096-9.2925 0.83257-2.9692 1.0674-5.1096 1.2925-8.1194 1.121 6.9176-1.4034 9.775-4.6596 15.178-2.4467 3.0779-2.0926 7.2825-4.0517 10.833-0.43396 2.2945-1.0903 1.8762-0.56279-0.58054z" fill="#ffd283" stroke-width="4.0287"/>
  <path d="m201.87 372.01c-3.5892 1.3774-6.7078-3.2207-8.7499-3.8365-4.5259-1.3646-8-1.8141-11.788-4.2868-3.3611-2.1899-7.5249-6.0428-10.036-9.1374-1.9255-2.3806-4.4974-6.5987-5.7923-9.4346-0.69124-1.4969-1.6053-3.6211-2.8052-4.684-0.62951-0.59096-1.8129-1.153-1.8129-1.153s2.2845-0.76906 3.6469-0.79268c3.0836-0.0742 6.854 0.94494 9.464 1.923 2.5725 0.98659 5.6862 2.8103 7.6934 4.5518 3.6034 3.1159 7.3355 8.3901 9.9148 12.463 1.2448 1.9496 2.3313 4.9906 3.4951 7.0148 0.73576 1.265 1.746 1.9487 2.844 2.9017 1.1525 0.98948 6.4471 1.9609 6.4471 1.9609" fill="#571927" stroke="#ffd283" stroke-width=".50745"/>
  <path d="m195.27 368.06c-2.9126-3.0979-5.777-3.7101-8.3875-6.7796-2.3458-2.7003-5.7477-8.7877-8.3102-11.267-3.1285-2.456-5.5637-3.791-9.0401-5.5429 8.7975 2.0739 10.959 6.4913 15.793 13.036 2.4624 4.4334 7.6483 6.084 10.914 10.169 2.5208 1.6483 1.6988 2.2244-0.96936 0.38458z" fill="#ffd283" stroke-width="5.1962"/>
  <path d="m218.57 305.7c-2.279-1.921-0.32504-5.76-0.67164-7.377-0.7682-3.5836-1.7639-6.1106-1.5036-9.6084 0.22826-3.1018 1.2849-7.3714 2.4457-10.235 0.89524-2.1987 2.796-5.5241 4.2364-7.4651 0.75742-1.0298 1.8573-2.4457 2.1297-3.6583 0.16549-0.64866 0.10399-1.6625 0.10399-1.6625s1.3775 1.263 1.9037 2.1791c1.205 2.0657 1.9249 5.0071 2.2381 7.1452 0.29341 2.1159 0.22118 4.9127-0.20956 6.9275-0.76617 3.6131-2.9495 8.1217-4.7485 11.398-0.85751 1.5751-2.5152 3.4514-3.4537 4.9995-0.58333 0.97318-0.66925 1.9151-0.90506 3.0173-0.24023 1.1529 1.0827 5.1112 1.0827 5.1112" fill="#571927" stroke="#ffd283" stroke-width=".39343"/>
  <path d="m218.78 299.74c1.0126-3.1374 0.35573-5.3112 1.4622-8.2329 0.95491-2.6037 3.814-7.1926 4.5374-9.8605 0.49599-3.0436 0.49052-5.1968 0.37821-8.2129 1.8861 6.7493-0.30371 9.8705-2.9366 15.603-2.0879 3.3318-1.2667 7.4706-2.8173 11.217-0.17516 2.3286-0.87408 1.9862-0.62406-0.51411z" fill="#ffd283" stroke-width="4.0287"/>
  <path d="m234.14 332.72c-3.0234-1.8673-1.3897-6.7363-2.081-8.5827-1.5321-4.0922-3.1479-6.8984-3.4522-11.069-0.27277-3.6981 0.2274-8.918 1.0961-12.498 0.67166-2.7494 2.3323-7.0035 3.6919-9.5443 0.71334-1.3468 1.7631-3.2089 1.8724-4.6866 0.0818-0.79391-0.16782-1.9789-0.16782-1.9789s1.8453 1.2488 2.6259 2.2374c1.782 2.2257 3.145 5.5689 3.888 8.0358 0.71573 2.4441 1.1192 5.7552 0.96326 8.2066-0.27231 4.395-2.0595 10.094-3.6088 14.272-0.73611 2.0075-2.3633 4.5099-3.1996 6.4996-0.51793 1.2497-0.45468 2.3755-0.54019 3.7167-0.0819 1.4017 2.17 5.8388 2.17 5.8388" fill="#571927" stroke="#ffd283" stroke-width=".46907"/>
  <path d="m233.34 325.65c0.64609-3.877-0.50848-6.326 0.28593-9.965 0.67127-3.2375 3.2413-9.1491 3.6284-12.422 0.0531-3.6762-0.32951-6.2146-0.98896-9.7521 3.4037 7.6303 1.3664 11.694-0.737 18.915-1.8802 4.2942-0.18863 9.0319-1.3627 13.722 0.20028 2.7768-0.68382 2.4952-0.82582-0.49728z" fill="#ffd283" stroke-width="4.8032"/>
  <path d="m217.24 307.19c-3.29-1.3432-2.4816-6.4149-3.4679-8.1221-2.186-3.7835-4.2424-6.2848-5.2302-10.348-0.87886-3.6025-1.2463-8.8335-0.97986-12.508 0.20907-2.8226 1.1454-7.2922 2.0675-10.022 0.48148-1.446 1.2098-3.4557 1.074-4.9312-0.0502-0.79654-0.49185-1.9241-0.49185-1.9241s2.026 0.92746 2.9589 1.7737c2.1247 1.9014 4.0202 4.974 5.1599 7.2846 1.109 2.2926 2.0529 5.4918 2.3034 7.9354 0.45617 4.3798-0.36678 10.295-1.2059 14.671-0.395 2.1014-1.5873 4.8379-2.084 6.9383-0.30476 1.318-0.0567 2.418 0.0801 3.7549 0.1504 1.396 3.1031 5.401 3.1031 5.401" fill="#571927" stroke="#ffd283" stroke-width=".46907"/>
  <path d="m215.29 300.35c-2e-3 -3.9305-1.5447-6.1556-1.3612-9.8758 0.12818-3.3039 1.6882-9.5583 1.5303-12.85-0.55379-3.6346-1.3498-6.0752-2.5836-9.4555 4.6153 6.9646 3.2761 11.309 2.3922 18.777-1.1464 4.5454 1.3034 8.9393 0.91867 13.758 0.65544 2.7058-0.263 2.5738-0.89652-0.35429z" fill="#ffd283" stroke-width="4.8032"/>
  <path d="m203.71 284.86c-2.9795-0.0822-3.8436-4.3022-5.1224-5.3509-2.834-2.324-5.1874-3.6798-7.1636-6.5776-1.7544-2.5682-3.5887-6.5658-4.4652-9.5286-0.66997-2.2774-1.2557-6.0627-1.3388-8.4784-0.0494-1.2774-0.0715-3.0702-0.61417-4.1883-0.27479-0.61044-0.95467-1.365-0.95467-1.365s1.8644 0.12935 2.8468 0.51795c2.2297 0.86468 4.6257 2.7165 6.2031 4.1935 1.548 1.472 3.2344 3.7043 4.1531 5.5485 1.6523 3.3032 2.7544 8.1899 3.3889 11.873 0.3109 1.7663 0.18362 4.2667 0.4144 6.0622 0.15023 1.1246 0.66998 1.9148 1.1725 2.9238 0.5306 1.0514 4.0319 3.3227 4.0319 3.3227" fill="#571927" stroke="#ffd283" stroke-width=".39343"/>
  <path d="m200.16 280.07c-1.1631-3.0847-3.0316-4.3755-3.9869-7.35-0.8757-2.6314-1.4993-8.002-2.5961-10.539-1.5088-2.6894-2.8548-4.37-4.8222-6.6589 5.681 4.1032 5.9135 7.9089 7.4267 14.033 0.44334 3.9068 3.6647 6.632 4.7868 10.529 1.3141 1.9303 0.55413 2.0981-0.80845-0.0132z" fill="#ffd283" stroke-width="4.0287"/>
  <path d="m203.42 373.25c-2.4196-2.9874-7.4195-0.56466-9.4959-1.0525-4.6019-1.0811-7.8353-2.429-12.352-2.1817-4.0057 0.216-9.5382 1.4707-13.26 2.8953-2.8579 1.0989-7.1942 3.466-9.7336 5.2744-1.3471 0.9507-3.2008 2.3333-4.7714 2.6539-0.84065 0.19703-2.1465 0.0921-2.1465 0.0921s1.5939 1.8083 2.762 2.51c2.6334 1.6061 6.4082 2.6087 9.1576 3.0666 2.7211 0.43181 6.3295 0.40931 8.9386-0.0952 4.6786-0.89674 10.548-3.5983 14.818-5.8355 2.0528-1.066 4.5142-3.1563 6.5343-4.3274 1.2697-0.72765 2.4865-0.81465 3.9139-1.0909 1.4928-0.28066 6.5638 1.5253 6.5638 1.5253" fill="#571927" stroke="#ffd283" stroke-width=".50745"/>
  <path d="m195.73 373.37c-4.0713 1.2266-6.8581 0.32455-10.654 1.6776-3.3817 1.1656-9.3715 4.7366-12.83 5.6021-3.9374 0.5627-6.7139 0.50126-10.6 0.28024 8.6559 2.6027 12.736-0.1423 20.195-3.3927 4.3492-2.6082 9.6656-1.4448 14.536-3.3497 3.0072-0.16707 2.5834-1.077-0.6472-0.81774z" fill="#ffd283" stroke-width="5.1962"/>
  <path d="m212.89 373.79c1.5943 2.8072-1.8321 5.974-2.087 7.747-0.56485 3.9293-0.50186 6.8704-2.0794 10.326-1.3964 3.0657-4.0727 7.0068-6.327 9.4802-1.7349 1.8977-4.9144 4.5628-7.1065 5.994-1.1561 0.76189-2.8051 1.7876-3.537 2.9173-0.41164 0.59689-0.72977 1.65-0.72977 1.65s-0.92539-1.8003-1.1161-2.9286c-0.44876-2.5511-0.0759-5.8097 0.4085-8.0996 0.49622-2.2598 1.6195-5.0742 2.8135-6.9595 2.1348-3.3832 6.0455-7.1442 9.1031-9.7972 1.4625-1.2784 3.8511-2.5623 5.3857-3.7828 0.95799-0.76975 1.3989-1.6944 2.0522-2.7258 0.67688-1.0812 0.81876-5.5994 0.81876-5.5994" fill="#571927" stroke="#ffd283" stroke-width=".42614"/>
  <path d="m210.44 379.77c-2.2066 2.8073-2.3553 5.2626-4.5762 7.8156-1.9476 2.2868-6.575 5.8758-8.3116 8.3147-1.6465 2.906-2.4492 5.0957-3.4674 8.2022 0.61749-7.5652 4.014-9.9142 8.841-14.75 3.372-2.6012 4.0914-7.1144 7.0734-10.339 1.0521-2.3 1.6337-1.6898 0.44104 0.7566z" fill="#ffd283" stroke-width="4.3636"/>
  <g fill="#571927" stroke="#ffd283">
   <path d="m227.19 318.02c-1.9343-7.5282-0.72306-4.8355-0.84495-12.299l-1.8667-0.0646c0.35707 6.7332-1.547 2.4626-7e-3 8.5456" stroke-width=".47662"/>
   <path d="m230 303.68c-0.22569 2.3886-2.1944 4.1802-4.4298 3.9852-2.2114-0.21722-3.85-2.3265-3.6272-4.7346 0.22264-2.408 2.7502-5.8752 4.9797-5.6615 2.2172 0.1984 3.3045 4.0032 3.0774 6.4109z" stroke-width=".71493"/>
   <path d="m244.34 348.47c-4.6353-6.2394-3.304-3.6039-9.029-8.3936l1.124-1.4917c5.0094 4.5132 2.8875 0.34652 6.6476 5.3701" stroke-width=".47662"/>
   <path d="m231.42 341.64c1.9987 1.3271 4.6299 0.92381 5.8846-0.93659 1.2223-1.8557 0.61337-4.4563-1.3987-5.798-2.0119-1.3417-6.2971-1.558-7.5335 0.30954-1.2406 1.8484 1.0332 5.087 3.0477 6.4251z" stroke-width=".71493"/>
   <path d="m264.53 376.55c-2.7258-1.2058-1.9253-5.4384-2.7109-6.8936-1.7412-3.2251-3.4047-5.372-4.1346-8.8027-0.64964-3.0416-0.83109-7.4362-0.51873-10.51 0.24362-2.3614 1.1369-6.0861 1.976-8.3529 0.43868-1.2007 1.098-2.868 1.0198-4.1084-0.0228-0.66905-0.36579-1.6251-0.36579-1.6251s1.6761 0.82664 2.4378 1.5587c1.7353 1.6456 3.2502 4.2676 4.1497 6.2324 0.87427 1.949 1.5882 4.6541 1.7391 6.7089 0.27643 3.6831-0.55675 8.6227-1.3662 12.271-0.38204 1.7522-1.4479 4.0177-1.9152 5.7667-0.28741 1.0976-0.1061 2.0259-0.0237 3.1501 0.0923 1.1741 2.4709 4.6034 2.4709 4.6034" stroke-width=".39343"/>
  </g>
  <path d="m263.06 370.77c0.0934-3.2954-1.1461-5.1983-0.9022-8.3129 0.18745-2.7669 1.6468-7.9729 1.5941-10.737-0.37631-3.0607-0.98462-5.1262-1.9372-7.9901 3.7009 5.9509 2.473 9.5605 1.5511 15.801-1.0712 3.7832 0.87632 7.5264 0.43714 11.557 0.48403 2.2844-0.28281 2.1515-0.74308-0.31874z" fill="#ffd283" stroke-width="4.0287"/>
  <path d="m247.05 405.82c2.7843-1.634 1.4004-6.0897 2.0661-7.7525 1.4755-3.6853 3.0006-6.2008 3.3624-9.9826 0.32358-3.3532-0.0236-8.1044-0.73921-11.374-0.55364-2.5109-1.9746-6.4087-3.1574-8.7443-0.62026-1.2379-1.5355-2.9506-1.6045-4.295-0.058-0.72274 0.19301-1.7938 0.19301-1.7938s-1.7016 1.0964-2.4308 1.9782c-1.6642 1.9849-2.9706 4.9934-3.696 7.2187-0.70019 2.2052-1.1346 5.2041-1.0432 7.4339 0.15719 3.9973 1.6635 9.2098 2.985 13.036 0.6274 1.8384 2.054 4.1446 2.7727 5.9689 0.44478 1.1456 0.36425 2.1669 0.41441 3.3867 0.0456 1.2748-2.0906 5.2586-2.0906 5.2586" fill="#571927" stroke="#ffd283" stroke-width=".42614"/>
  <path d="m247.92 399.41c-0.50729-3.5345 0.59156-5.7352-0.0553-9.0566-0.54327-2.9542-2.7563-8.376-3.0407-11.357 0.0271-3.34 0.42673-5.6376 1.0982-8.837-3.2478 6.8604-1.4809 10.593 0.28145 17.194 1.6196 3.9387-0.0139 8.207 0.95627 12.49-0.23885 2.518 0.56991 2.2802 0.76025-0.43472z" fill="#ffd283" stroke-width="4.3636"/>
  <path d="m253.13 354.92c-0.66569-3.1521-5.3206-3.2518-6.6838-4.408-3.0212-2.5623-4.9196-4.8015-8.3844-6.3404-3.0712-1.367-7.6779-2.5414-10.998-2.8984-2.5516-0.27033-6.6902-0.15848-9.2748 0.22211-1.3678 0.19545-3.2784 0.51988-4.5726 0.15989-0.70241-0.1737-1.6367-0.75016-1.6367-0.75016s0.49942 1.9573 1.1033 2.9265c1.3522 2.203 3.7862 4.3912 5.6629 5.7818 1.8656 1.3603 4.5666 2.7201 6.7058 3.339 3.833 1.1158 9.2429 1.3391 13.282 1.2988 1.9384-0.0122 4.5724-0.6329 6.5264-0.73603 1.225-0.0585 2.166 0.34074 3.3365 0.67917 1.2209 0.3601 4.3156 3.6422 4.3156 3.6422" fill="#571927" stroke="#ffd283" stroke-width=".42525"/>
  <path d="m247.34 352.07c-3.5057-0.63801-5.2409-2.3742-8.5891-2.8127-2.9679-0.42039-8.7995-0.0411-11.71-0.71475-3.1525-1.0822-5.2007-2.1873-8.0164-3.835 5.4656 5.2442 9.5572 4.7527 16.363 5.173 4.2402-0.2869 7.7631 2.6094 12.124 3.0463 2.3076 1.0226 2.3384 0.18197-0.17094-0.85705z" fill="#ffd283" stroke-width="4.3545"/>
  <g fill="#571927" stroke="#ffd283">
   <path d="m272.34 343.73c-0.54656 21.052-13.118 28.16-31.154 28.16-11.926 0-22.657-7.2911-29.665-15.63-3.5912-4.2729-20.3 1.1446-20.346 6.881 0 42.377 47.122 80.927 98.226 80.927s98.226-38.55 98.226-80.927c-0.0458-5.7364-16.754-11.154-20.346-6.881-7.0084 8.3388-17.739 15.63-29.665 15.63-18.037 0-30.608-7.1085-31.154-28.16-0.54657-21.052-17.061-29.801-17.061-29.801s-16.514 8.7489-17.061 29.801z" stroke-width="1.4298"/>
   <g stroke-width=".95324">
    <path d="m351.23 411.68c16.344-13.435 26.257-31.047 26.277-48.46-1.9e-4 -0.0208 1.9e-4 -0.0325 0-0.0527-0.01-1.0812-0.35918-1.7586-0.73876-2.5867-2.4751 3.219-5.34 6.3365-8.6536 9.1853-7.9044 6.7958-18.359 12.247-30.499 12.247-10.349 0-20.503-1.8739-28.494-8.3935-5.9585-4.8618-10.382-15.632-11.955-23.54 0-9.2957 1.9211-14.934 7.3068-14.934s4.899 3.6233 3.6777 5.2626c-4.1211-6.0285-11.823 1.1323-7.4249 6.8811 2.1591 2.8225 9.393 4.6259 13.937-1.367 6.0122-7.9287 1.9261-20.588-10.242-20.588s-15.018 15.127-15.018 15.127-2.8499-15.127-15.018-15.127-16.254 12.659-10.242 20.588c4.5444 5.9929 12.051 4.3787 13.937 1.367 4.1105-6.5618-2.8246-12.318-7.4249-6.8811-1.2213-1.6393-1.5402-5.2626 3.6777-5.2626s7.3067 5.542 7.3067 14.838c-1.573 7.9081-5.9962 18.774-11.955 23.636-7.9903 6.5196-18.145 8.3935-28.494 8.3935-12.14 0-22.594-5.4512-30.499-12.247-3.3136-2.8488-6.1785-5.9663-8.6536-9.1853-0.37956 0.82812-0.7293 1.5055-0.73872 2.5867-1.9e-4 0.0204 1.6e-4 0.0321 0 0.0527 0.0199 17.413 9.9334 35.025 26.277 48.46 16.361 13.449 38.818 22.277 61.824 22.277s45.464-8.8285 61.824-22.277z"/>
    <path d="m308.87 397.25v9.3721s-2.8367-2.4445-6.2246-2.5037h-17.162v14.755c-0.10131 1.4497 5.1797 6.0911 8.4106 6.0911 0 0 1.0266-3.5407 3.6707-1.7808 1.7192 1.1443 2.5369 4.5149-2.6763 4.5149s-11.189-3.592-11.189-3.592l-8.464 2.2752c2.4689-1.976 4.69-4.0164 4.69-10.347v-35.151c0.63746-4.6234-3.3006-6.4791-6.8068-7.7574h32.008c5.0499 6.6565 10.084 10.044 17.884 15.466-8.345-1.64-16.767-10.133-23.736-10.133h-13.949v21.281h17.32c3.7026 0 6.2246-2.4906 6.2246-2.4906z" stroke-linejoin="bevel"/>
    <path d="m262.9 380.48c3.4557 2.6197 3.4298 4.3272 3.4298 10.083v21.799c0.18781 2.7199 0.4464 7.241-2.2736 7.241-2.7199 0-1.7188-3.5328-4.7321-2.6581-2.2562 0.65492-2.4061 3.9682 0.19889 5.9774 2.605 2.0092 7.1044 0.15508 11.151-2.0747 2.8815 1.7144 5.1377 1.2788 5.1377 1.2788-1.966-2.3759-4.569-2.7607-4.569-12.013 0-4.8147 0.12613-7.5681 4.6708-7.5681h9.4159s12.808 18.345 28.717 22.419c4.027 1.0314 10.937 1.2161 9.2583-3.5654-1.4297-4.0724-6.3863-1.837-6.9813 0.92584-7.33-1.5715-16.983-9.7744-22.653-19.78 8.9308 0 11.865-4.1784 11.865-11.033 0-6.9333-6.2434-11.033-9.8672-11.033zm13.37 3.3257h13.858c3.3416-0.23377 6.8068 3.812 6.8068 7.6016s-2.6856 7.4049-6.8068 7.5488h-17.779v-9.0827c-0.39418-3.4354 0.88326-6.0678 3.921-6.0678z" stroke-linejoin="bevel"/>
    <path d="m270.52 350.99h37.773c2.8338 0 5.1152 1.643 5.1152 3.684s-2.2814 3.684-5.1152 3.684h-37.773c-2.8338 0-5.1152-1.643-5.1152-3.684s2.2814-3.684 5.1152-3.684z"/>
   </g>
   <g stroke-linecap="round" stroke-linejoin="round">
    <path d="m370.17 348.48c-9e-3 -0.87874-0.26395-1.4573-0.0167-2.6477 0.75362 1.0554 1.8865 1.3932 2.8617 2.0295" stroke-width=".47662"/>
    <path d="m367.17 342.4c0.24116 1.0604 0.96925 1.7943 2.0769 2.2737-0.66469-1.2945 0.32924-2.202 0.88465-3.2118" stroke-width=".47662"/>
    <path d="m374.53 367.8-0.42486 3.1856 2.392-1.8454c-3.2242 7.3991 1.5128 8.032 6.4933 8.458-1.8552-3.8269 2.3956-6.9126 3.5192-11.223-1.1272 4.2515-0.0649 6.6404 6.5264 4.3264-6.7974-1.4878 0.21924-5.3286-2.5567-10.05 1.4386 2.6466 3.6488 1.1651 5.6149 0.98935-6.2835-1.8247-2.9937-5.9955-2.79-9.41l-2.9453-5.8411c1.4496 3.7883 3.8037 2.2569 5.9761 1.7946-4.4511-0.89742-1.481-6.797-6.8851-9.4039 1.966 0.78128 3.9594 1.8742 5.7621 0.81005-4.2765-0.5339-2.9536-4.8771-6.8626-5.8736 2.2049 0.1202 3.5334-0.64956 5.1563-1.1205-1.8672-0.30975-3.5614 0.17715-5.6454-1.13l-3.2535-2.9754-8.0277-0.0968c-1.9917 0.57737-3.8882 1.3461-5.4424 2.8029-1.4472 0.7997-3.3018 1.4-3.1711 2.9722-3.0869 0.62855-8.9173 4.0652-4.413 3.684 0.20938 3.2196 1.2053 4.7304 2.741 4.6812 3.4468 0.56833 4.1716-1.9366 6.697-2.6314 5.6825 1.4929 3.4407 5.1976 1.7936 6.7326-1.7902 1.6685-5.0887 0.90976-5.0887 0.90976-1.0344 1.5752-0.57866 2.7729 0.89657 2.9924 1.812 1.4779 2.3363 0.0847 3.2616-0.41415 6.3567-0.13798 5.3823-3.3358 7.6231-5.1917-1.6639 2.6794 0.87273 6.0547-5.9449 7.773-3.5206 0.88892-3.1707-0.45256-6.4955 0.52769-3.3247 0.98026-4.1602 3.1919-6.8036 3.3933-2.3629 0.1801-5.6287 0.44981-3.4426-4.7019-4.6939 4.9044 0.39679 8.996 6.6904 6.7948-5.6552 2.04-9.1632 4.6701-14.144 1.7478 6.9663 8.2592 10.14 2.3629 17.652 1.5406-7.4434 1.2824-6.3776 7.3437-14.481 7.0502 2.336 2.9544 4.8332 2.3308 8.1097 1.331-1.2011 1.2104-2.1524 3.9109-4.7533 3.8316 1.5015 2.1611 5.4596 1.0758 8.8737 0.1339 3.8844-1.0717 5.7631-3.9486 7.7925-6.5542z" stroke-width=".71493"/>
    <path d="m379.85 331c-0.74853-2.9682 2.0007-3.6176 3.9906-4.7706-0.0539 1.973 0.4158 4.4778-0.81225 5.2583" stroke-width=".71493"/>
   </g>
  </g>
  <g stroke="#ffd283">
   <path d="m368.38 334.39c1.0795 1.13 1.7062 0.17656 2.432-0.32017 1.7263-2.4133 3.2427-0.95749 4.8032-0.31466" fill="none" stroke-linecap="round" stroke-linejoin="round" stroke-width=".47662"/>
   <path d="m369.78 335.08c0.95181 0.44176 1.5094 0.58396 2.2886 0.23175 1.2729-0.53011 1.5854-1.3424 2.2051-1.3645-0.1141-0.52367-0.28039-1.0174-1.1611-1.1017-1.9596 0.65514-1.7923 1.3296-3.3326 2.2344z" fill="#571927" stroke-linecap="round" stroke-linejoin="round" stroke-width=".47662"/>
   <path d="m382.45 332.89c1.4008 0.14836 2.1383 3.5386-0.0544 3.9996 0.60168 0.43774 1.5552 1.032 2.4761 0 0.11677 1.4203-1.4389 3.6113-4.4496 3.8363 0.68452 0.29949 1.7544 0.43505 2.3817 0.29929-1.0914 0.83509 0.33783 4.3579 0.2721 5.1695-0.0898 1.108-0.90066 2.4077-1.9591 2.5848 1.8974 0.3244 2.9854-1.3511 3.2713-2.5752 0.38148-1.6335-0.81592-3.5364 0.40212-4.7709" fill="none" stroke-width=".71493"/>
  </g>
  <g fill="#571927" stroke="#ffd283" stroke-linecap="round" stroke-linejoin="round">
   <path d="m209 348.48c9e-3 -0.87874 0.26399-1.4573 0.0168-2.6477-0.75359 1.0554-1.8865 1.3932-2.8617 2.0295" stroke-width=".47662"/>
   <path d="m212 342.4c-0.24118 1.0604-0.96923 1.7943-2.0769 2.2737 0.66473-1.2945-0.32923-2.202-0.88466-3.2118" stroke-width=".47662"/>
   <path d="m204.64 367.8 0.42485 3.1856-2.3919-1.8454c3.2242 7.3991-1.5128 8.032-6.4933 8.458 1.8552-3.8269-2.3956-6.9126-3.5193-11.223 1.1273 4.2515 0.0649 6.6404-6.5263 4.3264 6.7974-1.4878-0.21925-5.3286 2.5567-10.05-1.4386 2.6466-3.6488 1.1651-5.6149 0.98934 6.2835-1.8246 2.9937-5.9955 2.79-9.41l2.9453-5.8411c-1.4497 3.7883-3.8038 2.2569-5.9761 1.7946 4.4511-0.89742 1.481-6.797 6.8851-9.4039-1.9659 0.78128-3.9595 1.8742-5.7621 0.81005 4.2765-0.5339 2.9536-4.8771 6.8626-5.8736-2.2049 0.1202-3.5335-0.64956-5.1563-1.1205 1.8673-0.30975 3.5614 0.17715 5.6454-1.13l3.2535-2.9754 8.0277-0.0968c1.9917 0.57737 3.8882 1.3461 5.4424 2.8029 1.4472 0.7997 3.3018 1.4 3.1712 2.9722 3.0868 0.62855 8.9173 4.0652 4.413 3.684-0.20941 3.2196-1.2054 4.7304-2.741 4.6812-3.4468 0.56833-4.1715-1.9366-6.697-2.6314-5.6825 1.4929-3.4407 5.1976-1.7937 6.7326 1.7902 1.6685 5.0887 0.90976 5.0887 0.90976 1.0343 1.5752 0.57865 2.7729-0.8966 2.9924-1.812 1.4779-2.3362 0.0847-3.2616-0.41415-6.3567-0.13799-5.3823-3.3358-7.6231-5.1917 1.6639 2.6794-0.87273 6.0547 5.9449 7.773 3.5206 0.88892 3.1707-0.45256 6.4955 0.52769 3.3248 0.98026 4.1603 3.1918 6.8036 3.3933 2.3629 0.1801 5.6286 0.44981 3.4425-4.702 4.6939 4.9045-0.39678 8.996-6.6904 6.7948 5.6552 2.04 9.1632 4.6701 14.144 1.7478-6.9663 8.2592-10.14 2.3629-17.652 1.5406 7.4434 1.2824 6.3776 7.3437 14.481 7.0502-2.336 2.9544-4.8332 2.3308-8.1097 1.331 1.2011 1.2104 2.1524 3.9109 4.7533 3.8316-1.5015 2.1611-5.4596 1.0758-8.8737 0.1339-3.8845-1.0717-5.7631-3.9486-7.7925-6.5542z" stroke-width=".71493"/>
   <path d="m199.32 331c0.74848-2.9682-2.0008-3.6176-3.9906-4.7706 0.0539 1.973-0.41582 4.4778 0.81228 5.2583" stroke-width=".71493"/>
  </g>
  <g stroke="#ffd283">
   <path d="m210.79 334.39c-1.0795 1.13-1.7061 0.17656-2.432-0.32017-1.7262-2.4133-3.2427-0.95749-4.8032-0.31466" fill="none" stroke-linecap="round" stroke-linejoin="round" stroke-width=".47662"/>
   <path d="m209.39 335.08c-0.95182 0.44176-1.5094 0.58396-2.2886 0.23175-1.2729-0.53011-1.5854-1.3424-2.2051-1.3645 0.11409-0.52367 0.28042-1.0174 1.1611-1.1017 1.9596 0.65514 1.7923 1.3296 3.3326 2.2344z" fill="#571927" stroke-linecap="round" stroke-linejoin="round" stroke-width=".47662"/>
   <path d="m196.72 332.89c-1.4008 0.14836-2.1384 3.5386 0.0544 3.9996-0.60169 0.43774-1.5552 1.032-2.4761 0-0.11674 1.4203 1.4389 3.6113 4.4497 3.8363-0.68453 0.2995-1.7544 0.43506-2.3817 0.2993 1.0914 0.83509-0.33787 4.3579-0.2721 5.1695 0.0898 1.108 0.90066 2.4077 1.9591 2.5848-1.8974 0.3244-2.9854-1.3511-3.2713-2.5752-0.38148-1.6336 0.81591-3.5364-0.40212-4.7709" fill="none" stroke-width=".71493"/>
  </g>
 </g>
 <g fill="#ffd283" font-family="Arial" font-size="39px" font-weight="bold" text-anchor="middle">
  <text x="289" y="80">Union europenne</text>
  <text x="289" y="135">Rpublique franaise</text>
 </g>
</svg>
