<?xml version="1.0" encoding="UTF-8" standalone="no"?>
<!-- Created with Inkscape (http://www.inkscape.org/) -->

<svg
   xmlns:dc="http://purl.org/dc/elements/1.1/"
   xmlns:cc="http://creativecommons.org/ns#"
   xmlns:rdf="http://www.w3.org/1999/02/22-rdf-syntax-ns#"
   xmlns:svg="http://www.w3.org/2000/svg"
   xmlns="http://www.w3.org/2000/svg"
   xmlns:sodipodi="http://sodipodi.sourceforge.net/DTD/sodipodi-0.dtd"
   xmlns:inkscape="http://www.inkscape.org/namespaces/inkscape"
   width="821.75"
   height="1115.2188"
   id="svg2"
   version="1.1"
   inkscape:version="0.92.3 (2405546, 2018-03-11)"
   sodipodi:docname="Greek_Passport.svg">
  <defs
     id="defs4">
    <inkscape:perspective
       sodipodi:type="inkscape:persp3d"
       inkscape:vp_x="0 : 526.18109 : 1"
       inkscape:vp_y="0 : 1000 : 0"
       inkscape:vp_z="744.09448 : 526.18109 : 1"
       inkscape:persp3d-origin="372.04724 : 350.78739 : 1"
       id="perspective10" />
    <inkscape:perspective
       sodipodi:type="inkscape:persp3d"
       inkscape:vp_x="0 : 389.58661 : 1"
       inkscape:vp_y="0 : 1000 : 0"
       inkscape:vp_z="708.66144 : 389.58661 : 1"
       inkscape:persp3d-origin="354.33072 : 259.72441 : 1"
       id="perspective470" />
    <style
       type="text/css"
       id="style561">.str2 {stroke:black}
    .str0 {stroke:#1F1A17;stroke-width:0.0762}
    .str1 {stroke:black;stroke-width:1.214}
    .fil0 {fill:#00923F}
    .fil1 {fill:#1F1A17}
    .fil9 {fill:#838281}
    .fil4 {fill:#C2C1C1}
    .fil3 {fill:#DA251D}
    .fil6 {fill:#DEDEDD}
    .fil5 {fill:white}
    .fil8 {fill:black}
    .fil2 {fill:#DC3623}
    .fil7 {fill:#1F1A17;fill-rule:nonzero}</style>
    <sodipodi:namedview
       showgrid="false"
       pagecolor="#ffffff"
       inkscape:zoom="1.0000000"
       inkscape:window-y="32"
       inkscape:window-x="191"
       inkscape:window-width="808"
       inkscape:window-height="696"
       inkscape:pageshadow="2"
       inkscape:pageopacity="0.0"
       inkscape:cy="154.09689"
       inkscape:cx="155.32397"
       id="base-3"
       borderopacity="1.0"
       bordercolor="#666666" />
    <sodipodi:namedview
       showgrid="false"
       pagecolor="#ffffff"
       inkscape:zoom="1.0000000"
       inkscape:window-y="32"
       inkscape:window-x="191"
       inkscape:window-width="808"
       inkscape:window-height="696"
       inkscape:pageshadow="2"
       inkscape:pageopacity="0.0"
       inkscape:cy="154.09689"
       inkscape:cx="155.32397"
       id="namedview567"
       borderopacity="1.0"
       bordercolor="#666666" />
    <sodipodi:namedview
       inkscape:window-y="-4"
       inkscape:window-x="-4"
       inkscape:window-height="712"
       inkscape:window-width="1024"
       inkscape:current-layer="layer1"
       inkscape:document-units="px"
       inkscape:cy="343.05707"
       inkscape:cx="440.71565"
       inkscape:zoom="0.54140796"
       inkscape:pageshadow="2"
       inkscape:pageopacity="0.0"
       borderopacity="1.0"
       bordercolor="#666666"
       pagecolor="#ffffff"
       id="namedview568" />
    <inkscape:perspective
       sodipodi:type="inkscape:persp3d"
       inkscape:vp_x="0 : 0.5 : 1"
       inkscape:vp_y="0 : 1000 : 0"
       inkscape:vp_z="1 : 0.5 : 1"
       inkscape:persp3d-origin="0.5 : 0.33333333 : 1"
       id="perspective4457" />
    <inkscape:perspective
       sodipodi:type="inkscape:persp3d"
       inkscape:vp_x="0 : 0.5 : 1"
       inkscape:vp_y="0 : 1000 : 0"
       inkscape:vp_z="1 : 0.5 : 1"
       inkscape:persp3d-origin="0.5 : 0.33333333 : 1"
       id="perspective4391" />
    <inkscape:perspective
       sodipodi:type="inkscape:persp3d"
       inkscape:vp_x="0 : 0.5 : 1"
       inkscape:vp_y="0 : 1000 : 0"
       inkscape:vp_z="1 : 0.5 : 1"
       inkscape:persp3d-origin="0.5 : 0.33333333 : 1"
       id="perspective4377" />
    <inkscape:perspective
       sodipodi:type="inkscape:persp3d"
       inkscape:vp_x="0 : 0.5 : 1"
       inkscape:vp_y="0 : 1000 : 0"
       inkscape:vp_z="1 : 0.5 : 1"
       inkscape:persp3d-origin="0.5 : 0.33333333 : 1"
       id="perspective4046" />
    <style
       id="style6"
       type="text/css">
   
    .str0 {stroke:black;stroke-width:0.2646}
    .str1 {stroke:#D4AE05;stroke-width:0.3969}
    .fil4 {fill:none}
    .fil0 {fill:#005121}
    .fil2 {fill:#00722E}
    .fil1 {fill:#00923F}
    .fil5 {fill:#0A73B9}
    .fil3 {fill:white}
   
  </style>
    <inkscape:perspective
       id="perspective119"
       inkscape:persp3d-origin="380.90552 : 253.93701 : 1"
       inkscape:vp_z="761.81104 : 380.90552 : 1"
       inkscape:vp_y="0 : 1000 : 0"
       inkscape:vp_x="0 : 380.90552 : 1"
       sodipodi:type="inkscape:persp3d" />
    <inkscape:perspective
       id="perspective3141"
       inkscape:persp3d-origin="0.5 : 0.33333333 : 1"
       inkscape:vp_z="1 : 0.5 : 1"
       inkscape:vp_y="0 : 1000 : 0"
       inkscape:vp_x="0 : 0.5 : 1"
       sodipodi:type="inkscape:persp3d" />
    <inkscape:perspective
       id="perspective3536"
       inkscape:persp3d-origin="0.5 : 0.33333333 : 1"
       inkscape:vp_z="1 : 0.5 : 1"
       inkscape:vp_y="0 : 1000 : 0"
       inkscape:vp_x="0 : 0.5 : 1"
       sodipodi:type="inkscape:persp3d" />
    <inkscape:perspective
       id="perspective3829"
       inkscape:persp3d-origin="52.5 : 19.333333 : 1"
       inkscape:vp_z="105 : 29 : 1"
       inkscape:vp_y="0 : 1000 : 0"
       inkscape:vp_x="0 : 29 : 1"
       sodipodi:type="inkscape:persp3d" />
    <inkscape:perspective
       id="perspective7279"
       inkscape:persp3d-origin="0.5 : 0.33333333 : 1"
       inkscape:vp_z="1 : 0.5 : 1"
       inkscape:vp_y="0 : 1000 : 0"
       inkscape:vp_x="0 : 0.5 : 1"
       sodipodi:type="inkscape:persp3d" />
  </defs>
  <sodipodi:namedview
     id="base"
     pagecolor="#ffffff"
     bordercolor="#666666"
     borderopacity="1.0"
     inkscape:pageopacity="0.0"
     inkscape:pageshadow="2"
     inkscape:zoom="0.49497475"
     inkscape:cx="636.95004"
     inkscape:cy="421.42997"
     inkscape:document-units="px"
     inkscape:current-layer="layer1"
     showgrid="false"
     inkscape:window-width="1920"
     inkscape:window-height="1017"
     inkscape:window-x="-8"
     inkscape:window-y="-8"
     inkscape:window-maximized="1">
    <inkscape:grid
       type="xygrid"
       id="grid3542"
       empspacing="5"
       visible="true"
       enabled="true"
       snapvisiblegridlinesonly="true" />
  </sodipodi:namedview>
  <metadata
     id="metadata7">
    <rdf:RDF>
      <cc:Work
         rdf:about="">
        <dc:format>image/svg+xml</dc:format>
        <dc:type
           rdf:resource="http://purl.org/dc/dcmitype/StillImage" />
        <dc:title />
      </cc:Work>
    </rdf:RDF>
  </metadata>
  <g
     inkscape:label="Layer 1"
     inkscape:groupmode="layer"
     id="layer1"
     transform="translate(945.625,22.4375)">
    <g
       id="g13180"
       transform="matrix(1.0424767,0,0,1.0429382,18.763866,-22.892676)">
      <path
         sodipodi:nodetypes="ccccccccccccc"
         id="rect3523"
         d="M -924.48215,0.82752532 V 35.684858 1034.6588 v 34.8574 h 34.85734 506.71901 211.03061 c 19.30591,0 34.85733,-15.5514 34.85733,-34.8574 V 35.684858 c 0,-19.305913 -15.55142,-34.85733268 -34.85733,-34.85733268 H -382.9058 -889.62481 Z"
         style="fill:#800020;fill-opacity:1;stroke:none"
         inkscape:connector-curvature="0" />
      <path
         id="path24065"
         class="fil4 str0"
         d="M -617.44122,599.4924 V 434.64007 l 2.52802,-1.24185 173.32594,166.09418 c 0,14.90345 -83.51839,4.30618 -84.25789,16.89318 l -1.01144,17.21601 -2.20521,0.97148 c -5.04389,-7.91098 -16.80989,-12.26655 -23.59556,-13.12379 -6.00262,-0.79605 -26.89665,-3.55575 -43.7096,-3.55575 -12.6063,0 -21.07378,-3.49768 -21.07378,-18.40113 h -3.1e-4 z"
         style="fill:#ffd283;stroke:#ffd283;stroke-width:2.26238251;stroke-linecap:round;stroke-linejoin:round;stroke-miterlimit:4;stroke-dasharray:none;stroke-opacity:1"
         sodipodi:nodetypes="ccccscccsccc"
         inkscape:connector-curvature="0" />
      <path
         sodipodi:nodetypes="ccccc"
         id="path5870"
         d="m -478.9479,397.99618 c -11.92336,5.36359 -35.52883,2.26678 -35.52883,2.26678 l -15.11244,0.0805 c 0,0 15.18469,-22.70522 39.63308,-25.01021 l 11.00819,22.66292 z"
         style="fill:#800020;fill-opacity:1;stroke:#ffd283;stroke-width:1.76624393px;stroke-linecap:butt;stroke-linejoin:round;stroke-opacity:1"
         inkscape:connector-curvature="0" />
      <path
         sodipodi:nodetypes="ccccccccccccccccccccccccccc"
         style="fill:#ffd283;fill-rule:evenodd;stroke:#ffd283;stroke-width:0.87633437;stroke-miterlimit:4;stroke-dasharray:none;stroke-opacity:1"
         d="m -524.10922,398.12174 c 4.73268,-5.85344 18.91339,-7.40723 22.68342,-8.35722 -0.46438,-0.99833 -1.73027,-1.25557 -4.34943,-2.40001 2.40835,-0.23446 5.31034,1.38028 6.00782,1.86878 2.56098,-0.66257 5.20478,-1.43535 7.82645,-2.09052 -1.0366,-1.81865 -2.85595,-2.46404 -4.41751,-3.18233 1.59913,-0.44226 5.89636,2.14863 6.11013,2.76796 3.12075,-0.77116 6.44446,-1.42425 9.58759,-2.1447 -1.29119,-1.91069 -5.45424,-4.436 -9.02106,-5.56781 5.0482,0.68396 8.85001,3.67014 10.85104,5.12953 2.82536,-0.63249 7.42894,-0.62388 10.21851,-1.17872 -1.0317,-1.80492 -5.09487,-2.16032 -7.16407,-3.37997 1.7226,0.29044 7.56057,0.60313 8.93411,2.76204 -6.53409,3.27084 -12.18915,2.34008 0.3321,1.16214 0.39524,0.70161 -6.11328,7.66499 -10.23618,9.2003 3.11945,-2.71089 9.27444,-6.55721 8.47995,-8.67319 -3.54282,0.71475 -8.75476,0.8226 -12.32099,1.64731 0.14321,1.82404 -3.67532,9.17353 -8.46893,10.83426 3.6907,-2.8123 6.82092,-8.46597 6.5181,-10.30255 -3.65034,0.86216 -7.38295,1.72704 -11.01847,2.67595 0.035,2.53543 -2.73184,5.5963 -6.11641,7.48507 3.01123,-2.4816 5.53321,-4.15454 3.88604,-6.88155 -1.96405,0.52221 -4.56012,0.99102 -6.51045,1.53176 -0.58723,2.05568 -2.79628,3.9312 -6.55187,5.9061 2.61272,-1.34131 4.57761,-3.92365 4.52112,-5.33972 -1.99369,0.49656 -13.73445,0.64012 -18.97112,5.85764 z"
         class="fil1"
         id="path5872"
         inkscape:connector-curvature="0" />
      <path
         sodipodi:nodetypes="cssccsscc"
         id="path5797"
         d="m -633.91881,407.62041 c 0,0 15.21274,-1.08943 26.74148,-7.49406 14.38055,-7.99229 8.96813,-12.43551 23.65964,-24.21166 10.20145,-8.17713 33.20713,-8.17109 33.20713,-8.17109 l 14.6113,-3.86039 c 0,0 -9.0186,25.78307 -32.11194,34.1338 -18.18955,6.57747 -30.84315,0.83895 -53.66581,13.60721 0,0 -8.80731,4.32247 -12.44167,-4.00383 z"
         style="fill:#800020;fill-opacity:1;stroke:#ffd283;stroke-width:1.76610601;stroke-linecap:butt;stroke-linejoin:round;stroke-miterlimit:4;stroke-dasharray:none;stroke-opacity:1"
         inkscape:connector-curvature="0" />
      <path
         sodipodi:nodetypes="ccccccccccccccccccccccccccccccccc"
         style="fill:#ffd283;fill-rule:evenodd;stroke:#ffd283;stroke-width:0.87633437;stroke-miterlimit:4;stroke-dasharray:none;stroke-opacity:1"
         d="m -540.44873,367.40579 c -3.11703,6.85166 -16.45749,11.90523 -19.86976,13.76857 0.69948,0.85032 1.98947,0.78253 4.81169,1.23502 -2.27301,0.82977 -5.48679,-0.008 -6.28433,-0.30563 -2.31365,1.28246 -4.67987,2.69234 -7.05411,3.98283 1.45877,1.50133 3.38174,1.67082 5.07339,1.9754 -1.43754,0.82843 -6.24646,-0.60446 -6.60844,-1.15057 -2.82841,1.52769 -5.88288,2.99188 -8.74563,4.47607 1.72831,1.52671 6.39089,2.92969 10.12747,3.13276 -5.05871,0.60131 -9.48691,-1.3383 -11.78953,-2.25041 -2.57712,1.31951 -7.03634,2.46338 -9.59824,3.69875 1.45061,1.48926 5.47339,0.81639 7.782,1.47932 -1.74046,0.14995 -7.47088,1.30838 -9.34106,-0.43803 -3.05726,1.45203 -8.98292,3.17296 -11.95657,4.43576 -2.04494,-0.0728 -3.31138,1.29089 -1.33528,0.60396 -5.23248,2.17409 -19.9912,4.97385 -24.14474,10.21481 0.0632,-0.69595 -0.89945,-1.43918 -0.93799,-2.26812 5.83621,-4.99535 19.92503,-7.04209 24.48357,-9.02078 6.68992,-8.1256 -0.54733,-5.28963 1.4082,-0.51823 2.96958,-1.30857 8.88192,-3.05727 11.87042,-4.48944 -0.55826,-0.58035 4.00027,-8.9511 7.60767,-11.46945 -2.34165,3.40536 -7.33806,8.66978 -6.03927,10.51957 3.25117,-1.57872 8.27024,-2.98762 11.51655,-4.67867 -0.5952,-1.73013 1.26232,-9.80144 5.48772,-12.60908 -2.86937,3.64653 -4.48492,9.90369 -3.73207,11.60604 3.31838,-1.74835 6.71571,-3.51992 9.99802,-5.34855 -0.6686,-2.44595 1.2442,-6.10193 4.04833,-8.77769 -2.29427,3.15628 -4.31728,5.4072 -2.04,7.63515 1.77085,-0.99717 4.16695,-2.10081 5.91985,-3.11249 0.0541,-2.13722 1.72337,-4.50594 4.86513,-7.35796 -2.19386,1.95256 -3.44988,4.94448 -3.04077,6.30134 1.80594,-0.97975 13.13709,-4.05728 16.90123,-10.4194 z"
         class="fil1"
         id="path5799"
         inkscape:connector-curvature="0" />
      <path
         style="fill:#800020;fill-opacity:1;stroke:#ffd283;stroke-width:2.06891847px;stroke-linecap:butt;stroke-linejoin:round;stroke-opacity:1"
         d="m -666.03717,500.89913 c 0,0 2.34217,-17.71115 10.64047,-30.74146 10.35495,-16.25328 11.76897,-12.85995 26.57008,-29.21114 10.2776,-11.35387 15.28731,-35.0067 15.28731,-35.0067 l 1.63135,-16.21816 c 0,0 -26.87189,8.13928 -38.25781,34.55493 -8.96817,20.8064 -3.14698,36.00473 -19.67915,61.79367 0,0 -5.6726,9.99445 3.80777,14.8287 z"
         id="path5801"
         sodipodi:nodetypes="cssccsscc"
         inkscape:connector-curvature="0" />
      <path
         id="path5803"
         class="fil1"
         d="m -616.33874,395.45546 c -4.29116,4.83439 -10.0009,15.53671 -12.19558,18.7459 -0.77624,-0.78087 -0.58001,-2.05763 -0.74849,-4.91095 -1.05255,2.17883 -0.54055,5.46012 -0.32327,6.28345 -1.50702,2.17408 -3.14609,4.38774 -4.66714,6.62128 -1.3482,-1.60135 -1.32488,-3.53166 -1.45906,-5.24526 -0.9678,1.34767 -0.0221,6.27561 0.4851,6.69029 -1.80242,2.66177 -3.56422,5.55481 -5.32679,8.2551 -1.34655,-1.87209 -2.27705,-6.65144 -2.10609,-10.38962 -1.1033,4.97341 0.38454,9.57313 1.06223,11.95528 -1.5702,2.43252 -3.15352,6.75529 -4.63848,9.18105 -1.337,-1.59203 -2.58715,-8.36655 -3.01631,-10.7298 -0.32295,1.71681 0.2736,10.14195 1.8246,12.17712 -1.75,2.89704 -4.0539,8.62128 -5.60724,11.45401 -0.53671,-1.26905 0.3421,-4.38648 -0.0837,-6.51652 -0.49741,2.12799 -1.5655,5.99466 -0.65063,7.78485 -2.68558,4.9893 -6.94473,19.3948 -12.57415,23.00438 0.69878,0.007 1.3422,1.03862 2.16315,1.15974 5.55302,-5.30838 8.99604,-19.12249 11.41992,-23.46072 0.49867,1.34752 4.55172,-0.94265 6.92046,-3.97922 -3.49779,1.59773 -5.05452,4.02364 -6.26424,2.62979 1.59849,-2.82412 3.92867,-8.53237 5.65204,-11.36295 0.52172,0.61341 6.04468,-1.28162 8.91058,-4.61959 -3.62212,1.98999 -6.09798,4.63084 -7.80886,3.15386 1.89539,-3.07732 3.7983,-7.93067 5.80499,-10.99194 1.66206,0.76493 9.87848,-0.27756 13.09392,-4.20155 -3.91475,2.49101 -10.30195,3.47382 -11.92063,2.5548 2.0709,-3.12727 4.17277,-6.33077 6.31994,-9.41413 2.36697,0.90943 6.19566,-0.62884 9.13798,-3.15183 -3.36955,1.96771 -5.81117,3.75591 -7.80066,1.2676 1.16897,-1.66246 2.50631,-3.93641 3.68793,-5.57958 2.13193,0.15956 4.65546,-1.26492 7.80687,-4.10626 -2.16179,1.98795 -5.26417,2.93902 -6.57342,2.39652 1.15515,-1.69912 2.07141,-5.67131 8.33349,-13.80136 l 1.14144,-2.85374 z"
         style="fill:#ffd283;fill-rule:evenodd;stroke:#ffd283;stroke-width:0.87633437;stroke-miterlimit:4;stroke-dasharray:none;stroke-opacity:1"
         sodipodi:nodetypes="ccccccccccccccccccccccccccccccccccc"
         inkscape:connector-curvature="0" />
      <path
         sodipodi:nodetypes="cssccsscc"
         id="path5805"
         d="m -665.79684,572.97877 c 0,0 -7.66152,-16.70966 -7.57113,-32.6048 0.11632,-19.829 10.70438,-21.21691 14.6398,-43.56664 2.73267,-15.51913 -8.01918,-38.65359 -8.01918,-38.65359 l -3.5552,-15.18504 c 0,0 -23.37987,36.63093 -18.82756,65.87623 3.58563,23.03519 12.16733,21.78506 11.89392,53.3034 0,0 0.53369,11.81262 11.43929,10.83029 z"
         style="fill:#800020;fill-opacity:1;stroke:#ffd283;stroke-width:2.12879395px;stroke-linecap:butt;stroke-linejoin:round;stroke-opacity:1"
         inkscape:connector-curvature="0" />
      <path
         sodipodi:nodetypes="ccccccccccccccccccccccccccccccccccc"
         style="fill:#ffd283;fill-rule:evenodd;stroke:#ffd283;stroke-width:0.87633437;stroke-miterlimit:4;stroke-dasharray:none;stroke-opacity:1"
         d="m -671.77807,450.82955 c 0.81777,6.41222 -0.50178,18.47038 -0.49895,22.35826 1.08139,-0.20716 1.6393,-1.37223 3.3874,-3.63363 -0.35939,2.3929 -2.6325,4.81404 -3.27621,5.37147 0.0187,2.64524 0.12399,5.39765 0.12068,8.09994 2.01639,-0.56224 3.08561,-2.16955 4.16271,-3.50905 0.0393,1.65871 -3.52053,5.19516 -4.17322,5.25163 -0.0123,3.21459 -0.18879,6.59727 -0.25585,9.8212 2.16771,-0.78676 5.63118,-4.20908 7.59793,-7.39267 -1.8933,4.72943 -5.71579,7.68912 -7.61871,9.27429 -0.0749,2.89432 0.42371,7.89823 0.2822,10.73889 2.00189,-0.56084 6.60741,-6.76108 8.29443,-8.47077 -0.70138,1.59993 -5.69789,9.53188 -8.12639,10.33804 -0.18837,3.37933 -1.51356,9.40584 -1.82809,12.62115 1.15886,-0.74539 6.73462,-6.70742 8.28731,-8.22647 -0.7892,2.03788 -6.63111,8.72541 -8.39613,9.68796 -0.59554,5.63477 -4.80246,19.3492 -2.18882,25.50454 -0.58079,-0.38861 -1.69414,0.10091 -2.4404,-0.262 -1.59261,-7.51523 2.95483,-20.28103 3.39937,-25.23055 -1.17168,0.83165 -6.93586,-5.02091 -7.1798,-8.86438 1.98772,3.29186 5.61375,7.84886 7.39879,7.37991 0.27239,-3.23369 1.56683,-9.26181 1.73974,-12.57123 -0.77678,0.21239 -8.76584,-5.82452 -9.25039,-10.19723 1.86918,3.68589 6.92126,8.62052 9.16705,8.36552 0.16995,-3.6102 -0.29344,-9.23251 -0.22442,-12.89221 -1.80396,-0.3055 -8.00164,-5.79959 -8.44441,-10.8534 1.82835,4.26469 6.549,8.67803 8.40403,8.83182 0.0532,-3.75041 0.12379,-7.58124 0.0892,-11.33841 -2.46758,-0.58365 -4.76208,-4.013 -5.7693,-7.75575 1.67316,3.52509 2.68123,6.37869 5.72738,5.44555 -0.028,-2.03212 0.14988,-4.66416 0.1006,-6.68746 -1.85064,-1.0704 -3.13143,-3.66982 -4.13183,-7.79339 0.66434,2.86078 2.69014,5.39562 4.07728,5.68584 0.005,-2.05457 1.48733,-5.85169 0.90026,-16.097 l 0.66654,-3.00041 z"
         class="fil1"
         id="path5807"
         inkscape:connector-curvature="0" />
      <path
         style="fill:#800020;fill-opacity:1;stroke:#ffd283;stroke-width:2.12879395px;stroke-linecap:butt;stroke-linejoin:round;stroke-opacity:1"
         d="m -684.88425,573.42267 c 9.70388,-17.29273 -1.39654,-29.03404 9.74648,-48.80356 8.11141,-14.39078 28.89982,-36.89685 28.89982,-36.89685 l 2.57155,3.78504 4.28248,-4.26407 c 0,0 2.20836,43.40006 -16.20963,66.56869 -14.50695,18.24901 -12.01326,-3.75005 -27.36081,23.78057 z"
         id="path5809"
         sodipodi:nodetypes="cscccscc"
         inkscape:connector-curvature="0" />
      <path
         id="path5811"
         class="fil1"
         d="m -644.88952,496.2938 c -1.78055,6.21408 -3.41527,11.74172 -4.9478,15.3148 1.07533,0.23668 2.04793,-0.61344 4.54692,-2.00085 -1.27501,2.05656 -4.31944,3.38343 -5.13094,3.64139 -1.02733,2.43768 -2.01748,5.00797 -3.0875,7.48938 2.07456,0.27963 3.69153,-0.7749 5.21001,-1.58027 -0.61885,1.53945 -5.28577,3.38295 -5.90775,3.17711 -1.27984,2.94884 -2.77822,5.98674 -4.11295,8.92215 2.30223,0.13311 6.83557,-1.64359 9.89956,-3.79191 -3.60689,3.59757 -8.2874,4.80745 -10.66162,5.51244 -1.21158,2.62959 -2.72947,7.42372 -3.98108,9.9777 2.06068,0.27517 8.74015,-3.60275 10.96515,-4.50739 -1.27611,1.19297 -8.99859,6.50751 -11.54805,6.28928 -1.50753,3.0303 -5.1045,8.04394 -6.66305,10.8738 1.359,-0.22726 8.83583,-3.50324 10.86215,-4.28578 -1.52972,1.56068 -9.53755,5.39811 -11.5392,5.58553 -2.77205,4.94177 -12.05232,15.88073 -12.08151,22.5679 -0.38012,-0.58634 -1.59629,-0.57621 -2.13864,-1.20431 1.50421,-7.5334 10.72276,-17.46636 13.08549,-21.83819 -1.40484,0.30146 -4.38976,-7.35155 -3.09628,-10.97905 0.52642,3.80924 2.05848,9.4277 3.88363,9.70169 1.52709,-2.86339 5.09654,-7.89057 6.56213,-10.86282 -0.79749,-0.11157 -5.75374,-8.81246 -4.47234,-13.0212 0.26192,4.12446 2.95504,10.65295 5.11905,11.30542 1.58181,-3.24966 3.3758,-8.59821 4.88431,-11.93326 -1.53673,-0.99298 -5.06144,-8.4878 -3.47275,-13.30579 -0.005,4.64009 2.59032,10.55878 4.23387,11.43253 1.52969,-3.42469 3.10715,-6.91638 4.55891,-10.38191 -2.03661,-1.51055 -2.79062,-5.56724 -2.23814,-9.40358 0.14533,3.89931 -0.0553,6.91908 3.11179,7.26454 0.77678,-1.878 1.97931,-4.22602 2.73297,-6.10436 -1.27763,-1.71416 -1.42795,-4.60808 -0.71885,-8.79158 -0.51925,2.89062 0.34107,6.01939 1.5009,6.83374 0.8148,-1.88611 1.13558,-2.25252 4.64156,-11.89719 h -2e-5 l 3e-5,5e-5 z"
         style="fill:#ffd283;fill-rule:evenodd;stroke:#ffd283;stroke-width:0.87633437;stroke-miterlimit:4;stroke-dasharray:none;stroke-opacity:1"
         sodipodi:nodetypes="ccccccccccccccccccccccccccccccccccccc"
         inkscape:connector-curvature="0" />
      <path
         sodipodi:nodetypes="csssssscccsssssscc"
         id="path5813"
         d="m -626.2995,640.35791 c 0,0 -14.92324,-10.73442 -22.70308,-24.59605 -4.22551,-7.52873 -4.50669,-14.00545 -4.39692,-20.55065 0.0946,-5.64685 0.48042,-11.34467 -1.12469,-17.81299 -0.80756,-3.25435 -2.119,-6.70376 -4.22487,-10.43991 -2.7395,-4.8603 -6.92504,-10.64627 -11.26735,-16.17826 -4.34511,-5.53553 -8.84722,-10.81674 -12.21457,-14.66172 -3.23145,-3.68976 -5.41791,-6.05687 -5.41791,-6.05687 -0.85718,1.26167 -1.71435,2.52335 -2.57154,3.78504 -1.42748,-1.42136 -2.85498,-2.84272 -4.28247,-4.26408 0,0 -0.25698,5.05045 0.13559,12.62534 0.30282,5.84471 0.99234,13.19238 2.48495,20.88261 1.20348,6.20063 2.92904,12.62401 5.39499,18.66183 2.13133,5.21854 4.81573,10.14909 8.19414,14.39891 4.04772,5.09176 7.49857,8.34792 10.70395,10.99436 8.28272,6.8385 14.92614,9.60607 25.99147,29.4552 0,0 6.30493,10.00355 15.29829,3.75708 l 7e-5,1.6e-4 z"
         style="fill:#800020;fill-opacity:1;stroke:#ffd283;stroke-width:2.12879395px;stroke-linecap:butt;stroke-linejoin:round;stroke-opacity:1"
         inkscape:connector-curvature="0" />
      <path
         sodipodi:nodetypes="ccccccccccccccccccccccccccccccccccccc"
         style="fill:#ffd283;fill-rule:evenodd;stroke:#ffd283;stroke-width:0.87633437;stroke-miterlimit:4;stroke-dasharray:none;stroke-opacity:1"
         d="m -689.53976,536.29933 c 1.78056,6.21409 3.41529,11.74172 4.9478,15.31482 -1.07532,0.23667 -2.04792,-0.61345 -4.54691,-2.00085 1.27501,2.05655 4.31944,3.38343 5.13095,3.64138 1.02732,2.43767 2.01748,5.00797 3.08748,7.48937 -2.07455,0.27963 -3.69151,-0.77489 -5.21,-1.58025 0.61885,1.53943 5.28577,3.38294 5.90775,3.17709 1.27984,2.94885 2.77821,5.98676 4.11296,8.92217 -2.30224,0.13307 -6.83557,-1.64359 -9.89957,-3.79192 3.60689,3.59757 8.28741,4.80747 10.66162,5.51243 1.21158,2.6296 2.72947,7.42374 3.98108,9.97771 -2.06068,0.27518 -8.74015,-3.60275 -10.96516,-4.50739 1.27612,1.19299 8.99861,6.50752 11.54806,6.28929 1.50753,3.03028 5.1045,8.04392 6.66304,10.87378 -1.359,-0.22724 -8.83583,-3.50324 -10.86214,-4.28576 1.52972,1.56069 9.53755,5.39812 11.53919,5.58554 2.77207,4.94175 12.05233,15.88069 12.08152,22.5679 0.38012,-0.58635 1.59629,-0.57624 2.13863,-1.20432 -1.5042,-7.53342 -10.72275,-17.46637 -13.08548,-21.83819 1.40485,0.30144 4.38976,-7.35158 3.09628,-10.97907 -0.52642,3.80926 -2.05849,9.42773 -3.88363,9.7017 -1.52708,-2.86337 -5.09654,-7.89058 -6.56214,-10.8628 0.7975,-0.11149 5.75375,-8.81247 4.47235,-13.02121 -0.26193,4.12447 -2.95504,10.65293 -5.11904,11.30539 -1.58181,-3.24964 -3.37581,-8.59818 -4.88432,-11.93325 1.53672,-0.99297 5.06143,-8.48779 3.47275,-13.30578 0.005,4.64009 -2.59031,10.55878 -4.23388,11.43254 -1.52969,-3.42469 -3.10714,-6.91639 -4.5589,-10.38193 2.03661,-1.51055 2.79062,-5.56721 2.23814,-9.40357 -0.14533,3.89931 0.0553,6.91908 -3.11179,7.26454 -0.77678,-1.878 -1.97931,-4.22603 -2.73297,-6.10436 1.27762,-1.71417 1.42795,-4.60807 0.71885,-8.79159 0.51926,2.89063 -0.34107,6.01939 -1.5009,6.83375 -0.8148,-1.88611 -1.13558,-2.25253 -4.64156,-11.89719 h 2e-5 l -3e-5,4e-5 z"
         class="fil1"
         id="path5815"
         inkscape:connector-curvature="0" />
      <path
         sodipodi:nodetypes="cscccsccc"
         id="path5817"
         d="m -622.56505,647.90999 c -6.23134,-18.82477 4.78744,-14.48703 -2.3848,-36.01737 -5.22086,-15.67272 -15.36911,-40.66885 -15.36911,-40.66885 l -4.28085,1.2999 -1.91721,-5.42861 c 0,0 -16.49321,31.21335 -0.63586,68.86725 6.20122,14.72502 9.04674,-17.60906 18.86761,12.34134 31.34451,25.58955 8.98014,7.21857 5.72022,-0.39374 z"
         style="fill:#800020;fill-opacity:1;stroke:#ffd283;stroke-width:2.12879395px;stroke-linecap:butt;stroke-linejoin:round;stroke-opacity:1"
         inkscape:connector-curvature="0" />
      <path
         sodipodi:nodetypes="cccccccccccccccccccccccccccc"
         style="fill:#ffd283;fill-rule:evenodd;stroke:#ffd283;stroke-width:0.87633437;stroke-miterlimit:4;stroke-dasharray:none;stroke-opacity:1"
         d="m -645.30169,574.56543 c 0.45718,6.44794 0.91359,12.19413 1.67419,16.00689 -1.10105,0.009 -1.87685,-1.02363 -4.03495,-2.8978 0.82222,2.27576 3.52646,4.20346 4.2671,4.62366 0.50109,2.59742 0.93837,5.31689 1.47214,7.96593 -2.08753,-0.15555 -3.45148,-1.52147 -4.77063,-2.62341 0.28714,1.63413 4.47199,4.40276 5.12311,4.32999 0.64244,3.14978 1.48028,6.43184 2.17918,9.57981 -2.28001,-0.34583 -4.43785,-2.19034 -6.99142,-4.92582 2.78504,4.26563 5.20414,5.58607 7.38126,6.76673 0.64166,2.82331 2.52445,6.90701 3.22091,9.66456 -2.07303,-0.15686 -5.74253,-1.65187 -7.73235,-2.9971 1.00185,1.43108 5.39472,4.5474 7.93418,4.86105 9.55951,32.22648 16.925,38.84834 1.1922,-0.19894 0.8033,0.0562 6.63888,-2.47529 6.25543,-6.85798 -1.1091,3.98112 -4.28122,4.85461 -6.53335,5.04551 -0.87569,-3.50652 -2.91396,-8.18976 -3.70028,-11.76462 1.70884,-0.65379 5.49998,-2.34179 4.94184,-7.38416 -0.95494,4.54077 -3.51045,4.87896 -5.29917,5.39398 -0.7885,-3.66698 -1.60989,-7.40939 -2.31363,-11.10021 2.30493,-1.05678 4.54215,-1.07479 3.87229,-5.13743 -0.94847,3.78498 -1.11548,3.18058 -4.2848,2.86399 -0.37164,-1.99803 -1.06265,-4.54397 -1.41167,-6.53755 1.60447,-1.41296 2.62005,-1.00791 2.79127,-5.24766 -0.0898,2.93553 -1.84851,2.61342 -3.15163,3.1704 -0.40716,-2.01382 -0.64524,-2.43866 -2.08117,-12.59982 h 2e-5 l -7e-5,2e-5 z"
         class="fil1"
         id="path5819"
         inkscape:connector-curvature="0" />
      <path
         style="fill:#800020;fill-opacity:1;stroke:#ffd283;stroke-width:2.12879395px;stroke-linecap:butt;stroke-linejoin:round;stroke-opacity:1"
         d="m -540.21045,670.61548 c 0,0 -18.38236,0.0154 -32.79872,-6.68119 -17.98276,-8.35602 -16.95525,-21.9253 -37.55359,-31.44929 -14.99422,-6.93281 -35.03785,-8.31288 -35.03785,-8.31288 l -14.70691,-3.55276 c 0,0 23.58204,36.50113 52.06982,44.52965 22.43852,6.32373 24.87233,-2.00002 53.41923,11.36243 0,0 10.96364,4.4296 14.60788,-5.89596 z"
         id="path5821"
         sodipodi:nodetypes="cssccsscc"
         inkscape:connector-curvature="0" />
      <path
         sodipodi:nodetypes="csscccss"
         id="path5823"
         d="m -475.48903,683.50002 c 0,0 -21.25857,4.2517 -32.79876,-6.68124 -11.54041,-10.93293 -13.97,-20.65107 -35.83569,-26.72492 -21.86592,-6.07387 -41.90956,-15.18464 -41.90956,-15.18464 l 0.60734,3.03692 -2.42959,2.42957 c 0,0 17.27708,25.67219 44.33915,37.65783 14.27824,6.32371 21.86592,-2.42951 50.41283,10.93294 0,0 13.97,4.85906 17.61428,-5.46646 z"
         style="fill:#800020;fill-opacity:1;stroke:#ffd283;stroke-width:2.12890816;stroke-linecap:butt;stroke-linejoin:round;stroke-miterlimit:4;stroke-dasharray:none;stroke-opacity:1"
         inkscape:connector-curvature="0" />
      <ellipse
         transform="matrix(-0.53100681,0,0,0.53100681,-19.706916,368.81361)"
         id="path5825"
         style="fill:#ffd283;fill-opacity:1;stroke:#ffd283;stroke-width:4;stroke-linecap:round;stroke-linejoin:round;stroke-miterlimit:4;stroke-dasharray:none;stroke-dashoffset:0;stroke-opacity:1"
         cx="1104.3839"
         cy="74.244293"
         rx="6.8595271"
         ry="6.4560256" />
      <ellipse
         style="fill:#ffd283;fill-opacity:1;stroke:#ffd283;stroke-width:4;stroke-linecap:round;stroke-linejoin:round;stroke-miterlimit:4;stroke-dasharray:none;stroke-dashoffset:0;stroke-opacity:1"
         id="path5827"
         transform="matrix(-0.53100681,0,0,0.53100681,-20.873505,359.63206)"
         cx="1104.3839"
         cy="74.244293"
         rx="6.8595271"
         ry="6.4560256" />
      <ellipse
         style="fill:#ffd283;fill-opacity:1;stroke:#ffd283;stroke-width:4;stroke-linecap:round;stroke-linejoin:round;stroke-miterlimit:4;stroke-dasharray:none;stroke-dashoffset:0;stroke-opacity:1"
         id="path5831"
         transform="matrix(-0.53100681,0,0,0.53100681,-68.268275,433.77431)"
         cx="1104.3839"
         cy="74.244293"
         rx="6.8595271"
         ry="6.4560256" />
      <ellipse
         transform="matrix(-0.53100681,0,0,0.53100681,-72.963606,422.6875)"
         id="path5833"
         style="fill:#ffd283;fill-opacity:1;stroke:#ffd283;stroke-width:4;stroke-linecap:round;stroke-linejoin:round;stroke-miterlimit:4;stroke-dasharray:none;stroke-dashoffset:0;stroke-opacity:1"
         cx="1104.3839"
         cy="74.244293"
         rx="6.8595271"
         ry="6.4560256" />
      <ellipse
         style="fill:#ffd283;fill-opacity:1;stroke:#ffd283;stroke-width:4;stroke-linecap:round;stroke-linejoin:round;stroke-miterlimit:4;stroke-dasharray:none;stroke-dashoffset:0;stroke-opacity:1"
         id="path5835"
         transform="matrix(-0.53100681,0,0,0.53100681,-73.015338,576.79244)"
         cx="1104.3839"
         cy="74.244293"
         rx="6.8595271"
         ry="6.4560256" />
      <ellipse
         transform="matrix(-0.53100681,0,0,0.53100681,4.9455891,631.89376)"
         id="path5837"
         style="fill:#ffd283;fill-opacity:1;stroke:#ffd283;stroke-width:4;stroke-linecap:round;stroke-linejoin:round;stroke-miterlimit:4;stroke-dasharray:none;stroke-dashoffset:0;stroke-opacity:1"
         cx="1104.3839"
         cy="74.244293"
         rx="6.8595271"
         ry="6.4560256" />
      <path
         sodipodi:nodetypes="cccccccccccccccccccccccccccccccccccc"
         style="fill:#ffd283;fill-rule:evenodd;stroke:#ffd283;stroke-width:0.87633437;stroke-miterlimit:4;stroke-dasharray:none;stroke-opacity:1"
         d="m -580.47369,641.36778 c 5.01134,4.08308 9.51084,7.68607 12.80987,9.74326 -0.74739,0.80856 -2.03131,0.66645 -4.87496,0.95532 2.22132,0.95957 5.47807,0.30942 6.29149,0.0575 2.23577,1.41387 4.51677,2.95783 6.81256,4.38321 -1.54298,1.41464 -3.47254,1.47284 -5.17894,1.6793 1.38738,0.90998 6.27095,-0.243 6.66382,-0.76728 2.73506,1.68917 5.70032,3.32657 8.47275,4.97335 -1.81352,1.4245 -4.63546,1.73342 -8.37756,1.72054 5.01557,0.89221 7.63452,0.0339 9.98593,-0.74374 2.49662,1.46611 6.76169,2.89117 9.24798,4.27235 -1.53414,1.40307 -5.1367,3.05286 -7.47972,3.58139 1.72891,0.25014 7.00825,-0.81631 8.97609,-2.45184 2.96843,1.62594 8.7738,3.66996 11.66962,5.10224 -1.24532,0.58979 -6.95715,1.38642 -9.06729,1.90173 2.14709,0.40706 8.61553,-0.23203 10.36547,-1.2217 5.09831,2.4724 14.37795,7.2992 18.99366,8.84565 -0.0229,-0.6984 0.98098,-1.38483 1.0673,-2.21019 -4.34986,-1.86255 -14.96406,-5.43471 -19.40078,-7.67321 1.32529,-0.55505 0.71262,-6.75385 -2.42128,-8.99225 1.74387,3.42731 2.38683,7.12612 1.04534,8.39362 -2.88913,-1.47775 -8.67967,-3.54861 -11.58051,-5.15086 0.59085,-0.54707 2.74337,-6.53265 -0.71267,-9.25497 2.14114,3.53484 0.60506,6.44438 -0.79831,8.21615 -3.15474,-1.76355 -7.96315,-3.48597 -11.10646,-5.36143 0.69399,-1.69289 2.06061,-5.61138 -1.99572,-8.65821 2.65459,3.80572 1.15067,5.89945 0.30084,7.5555 -3.21192,-1.93698 -6.50136,-3.90165 -9.67262,-5.91672 0.80862,-2.40323 2.32776,-4.04569 -1.0912,-6.34011 2.10825,3.28344 1.55349,2.99114 -0.84785,5.08358 -1.71038,-1.09764 -4.03874,-2.33782 -5.73035,-3.44895 0.0694,-2.13678 1.06004,-2.59936 -1.91193,-5.6279 2.07751,2.07587 0.63822,3.13683 0.15153,4.46776 -1.74622,-1.08258 -2.21884,-1.20007 -10.60612,-7.11317 h 2e-5 v 4e-5 z"
         class="fil1"
         id="path5839"
         inkscape:connector-curvature="0" />
      <path
         id="path5841"
         class="fil1"
         d="m -652.44858,627.07157 c 6.18344,1.88425 11.68296,3.6112 15.22992,5.20325 0.25462,-1.07122 -0.57911,-2.05791 -1.92454,-4.57974 2.03495,1.30922 3.31072,4.3754 3.55509,5.19112 2.42014,1.06794 4.97353,2.10094 7.4367,3.21228 0.31427,-2.06958 -0.71307,-3.70394 -1.49293,-5.23569 1.52888,0.64451 3.29408,5.3416 3.07786,5.96003 2.92704,1.32899 5.93944,2.87798 8.85212,4.2616 0.17161,-2.2997 -1.14499,-5.05042 -3.24178,-8.14993 3.53671,3.66656 4.28415,6.555 4.94933,8.94068 2.60897,1.25538 6.16967,5.17026 8.70235,6.46442 0.30961,-2.05579 -0.80049,-8.08796 -1.66788,-10.32777 1.17149,1.29589 3.70064,8.39493 3.43979,10.94036 3.00466,1.55798 7.93791,6.40659 10.7413,8.01226 -0.20452,-1.36264 -2.72735,-6.54872 -3.47587,-8.58781 1.53487,1.55559 4.61022,7.28196 4.76414,9.28648 4.89471,2.85433 16.90383,8.83091 23.5896,8.97193 -0.59262,0.37026 -0.60283,1.58643 -1.23992,2.11819 -7.50721,-1.62999 -18.5115,-7.52806 -22.8432,-9.96356 0.27801,1.40967 -9.68876,4.35668 -13.29413,3.00275 3.8175,-0.46285 11.72567,-1.99103 12.03012,-3.81134 -2.83744,-1.57475 -7.78469,-6.39608 -10.73201,-7.91117 -0.12482,0.79551 -7.6658,5.68356 -11.8525,4.33196 4.12824,-0.19301 9.45918,-2.85447 10.14777,-5.00725 -3.22277,-1.63594 -7.33322,-5.83614 -10.64254,-7.40023 -1.01856,1.51991 -7.51734,5.54606 -12.30808,3.87704 4.63937,0.0821 9.54667,-3.04066 10.44778,-4.66938 -3.39862,-1.58674 -6.86343,-3.22239 -10.3042,-4.73187 -1.5444,2.01105 -2.0611,4.18787 -5.87188,2.62849 3.90118,-0.0802 3.34927,-0.37773 3.74774,-3.5378 -1.86474,-0.80806 -4.19232,-2.0497 -6.05779,-2.83466 -1.73529,1.24876 -2.51,1.38616 -6.68107,0.60714 2.88153,0.56751 3.90293,-0.27588 4.73658,-1.4219 -1.87223,-0.84619 -2.23323,-1.17308 -11.81791,-4.83985 v 2e-5 z"
         style="fill:#ffd283;fill-rule:evenodd;stroke:#ffd283;stroke-width:0.87633437;stroke-miterlimit:4;stroke-dasharray:none;stroke-opacity:1"
         sodipodi:nodetypes="cccccccccccccccccccccccccccccccccccc"
         inkscape:connector-curvature="0" />
      <path
         style="fill:#800020;stroke:#ffd283;stroke-width:2.26238251;stroke-linecap:round;stroke-linejoin:round;stroke-miterlimit:4;stroke-dasharray:none;stroke-opacity:1"
         d="M -614.95409,598.24884 V 433.39651 h 175.85394 v 164.85233 c 0,14.90345 -8.40383,18.40114 -21.01254,18.40114 -16.81084,0 -37.76375,2.75795 -43.76636,3.55573 -6.72441,0.85756 -17.65353,5.21316 -22.69562,13.12381 -5.04389,-7.91098 -16.80989,-12.26655 -23.59556,-13.12381 -6.00262,-0.79605 -26.89665,-3.55573 -43.7096,-3.55573 -12.6063,0 -21.07378,-3.49769 -21.07378,-18.40114 h -3e-4 z"
         class="fil4 str0"
         id="path4677"
         inkscape:connector-curvature="0" />
      <g
         style="fill:#ffd283"
         id="g4679"
         transform="matrix(1.6032632,0,0,1.6032632,-698.92452,364.07461)">
        <path
           id="path4681"
           class="fil5 str1"
           d="m 54.5104,144.379 v -26.216 l 34.8942,-2e-4 v 38.8647 c -5.5111,-0.6632 -14.6092,-1.594 -22.2758,-1.594 -7.5644,-4e-4 -12.6184,-2.1041 -12.6184,-11.0545 z"
           style="fill:#ffd283;fill-opacity:1;stroke:#1b1083;stroke-width:0;stroke-linecap:round;stroke-linejoin:round;stroke-miterlimit:4;stroke-dasharray:none;stroke-opacity:1"
           inkscape:connector-curvature="0" />
        <polygon
           id="polygon4683"
           class="fil5 str1"
           points="89.4046,45.4937 89.4046,82.1541 54.5104,82.1558 54.5104,45.4937 "
           style="fill:#ffd283;fill-opacity:1;stroke:#1b1083;stroke-width:0;stroke-linecap:round;stroke-linejoin:round;stroke-miterlimit:4;stroke-dasharray:none;stroke-opacity:1"
           transform="matrix(1,0,0,0.9720817,0,1.2701068)" />
        <polygon
           id="polygon4685"
           class="fil5 str1"
           points="159.963,82.1541 124.958,82.1543 124.958,45.4937 159.963,45.4937 "
           style="fill:#ffd283;fill-opacity:1;stroke:#1b1083;stroke-width:0;stroke-linecap:round;stroke-linejoin:round;stroke-miterlimit:4;stroke-dasharray:none;stroke-opacity:1"
           transform="matrix(1,0,0,0.9720817,0,1.2701068)" />
        <path
           id="path4687"
           class="fil5 str1"
           d="m 159.963,118.162 v 26.216 c 0,8.9504 -5.056,11.0547 -12.6205,11.0547 -7.7253,0 -16.9059,0.9473 -22.3854,1.612 V 118.163 Z"
           style="fill:#ffd283;fill-opacity:1;stroke:#1b1083;stroke-width:0;stroke-linecap:round;stroke-linejoin:round;stroke-miterlimit:4;stroke-dasharray:none;stroke-opacity:1"
           inkscape:connector-curvature="0" />
      </g>
      <path
         style="fill:#800020;fill-opacity:1;stroke:#ffd283;stroke-width:1.76624393px;stroke-linecap:butt;stroke-linejoin:round;stroke-opacity:1"
         d="m -422.81731,407.62041 c 0,0 -15.21275,-1.08943 -26.74151,-7.49406 -14.38053,-7.99229 -8.96812,-12.43551 -23.65963,-24.21166 -10.20144,-8.17713 -33.20713,-8.17109 -33.20713,-8.17109 l -14.61129,-3.86039 c 0,0 9.01859,25.78307 32.11193,34.1338 18.18955,6.57747 30.84315,0.83895 53.66583,13.60721 0,0 8.80729,4.32247 12.44166,-4.00383 z"
         id="path4627"
         sodipodi:nodetypes="cssccsscc"
         inkscape:connector-curvature="0" />
      <path
         id="path5768"
         class="fil1"
         d="m -516.2874,367.40579 c 3.11702,6.85166 16.45749,11.90523 19.86975,13.76857 -0.69948,0.85032 -1.98946,0.78253 -4.81169,1.23502 2.273,0.82977 5.48679,-0.008 6.28433,-0.30563 2.31367,1.28246 4.67988,2.69234 7.0541,3.98283 -1.45876,1.50133 -3.38172,1.67082 -5.07339,1.9754 1.43755,0.82843 6.24647,-0.60446 6.60845,-1.15057 2.82843,1.52769 5.88288,2.99188 8.74564,4.47607 -1.72832,1.52671 -6.39089,2.92969 -10.12749,3.13276 5.05874,0.60131 9.48693,-1.3383 11.78955,-2.25041 2.5771,1.31951 7.03634,2.46338 9.59823,3.69875 -1.45061,1.48926 -5.4734,0.81639 -7.78199,1.47932 1.74046,0.14995 7.47088,1.30838 9.34106,-0.43803 3.05725,1.45203 8.98291,3.17296 11.95655,4.43576 2.04495,-0.0728 3.3114,1.29089 1.33529,0.60396 5.23248,2.17409 19.99121,4.97385 24.14475,10.21481 -0.0632,-0.69595 0.89945,-1.43918 0.938,-2.26812 -5.83623,-4.99535 -19.92504,-7.04209 -24.48358,-9.02078 -6.68994,-8.1256 0.54731,-5.28963 -1.4082,-0.51823 -2.9696,-1.30857 -8.88193,-3.05727 -11.87042,-4.48944 0.55827,-0.58035 -4.00027,-8.9511 -7.60769,-11.46945 2.34166,3.40536 7.33807,8.66978 6.03928,10.51957 -3.25114,-1.57872 -8.27023,-2.98762 -11.51653,-4.67867 0.59519,-1.73013 -1.26234,-9.80144 -5.48774,-12.60908 2.86937,3.64653 4.48493,9.90369 3.73208,11.60604 -3.31838,-1.74835 -6.71572,-3.51992 -9.99802,-5.34855 0.66859,-2.44595 -1.24421,-6.10193 -4.04834,-8.77769 2.29427,3.15628 4.31728,5.4072 2.04,7.63515 -1.77083,-0.99717 -4.16693,-2.10081 -5.91985,-3.11249 -0.0539,-2.13722 -1.72335,-4.50594 -4.86511,-7.35796 2.19385,1.95256 3.44987,4.94448 3.04076,6.30134 -1.80596,-0.97975 -13.1371,-4.05728 -16.90124,-10.4194 z"
         style="fill:#ffd283;fill-rule:evenodd;stroke:#ffd283;stroke-width:0.87633437;stroke-miterlimit:4;stroke-dasharray:none;stroke-opacity:1"
         sodipodi:nodetypes="ccccccccccccccccccccccccccccccccc"
         inkscape:connector-curvature="0" />
      <path
         sodipodi:nodetypes="cssccsscc"
         id="path4625"
         d="m -390.69898,500.89913 c 0,0 -2.34215,-17.71115 -10.64046,-30.74146 -10.35495,-16.25328 -11.76896,-12.85995 -26.57008,-29.21114 -10.2776,-11.35387 -15.28729,-35.0067 -15.28729,-35.0067 l -1.63136,-16.21816 c 0,0 26.8719,8.13928 38.25782,34.55493 8.96817,20.8064 3.14696,36.00473 19.67914,61.79367 0,0 5.67259,9.99445 -3.80777,14.8287 z"
         style="fill:#800020;fill-opacity:1;stroke:#ffd283;stroke-width:2.06891847px;stroke-linecap:butt;stroke-linejoin:round;stroke-opacity:1"
         inkscape:connector-curvature="0" />
      <path
         sodipodi:nodetypes="ccccccccccccccccccccccccccccccccccc"
         style="fill:#ffd283;fill-rule:evenodd;stroke:#ffd283;stroke-width:0.87633437;stroke-miterlimit:4;stroke-dasharray:none;stroke-opacity:1"
         d="m -440.39738,395.45546 c 4.29116,4.83439 10.00088,15.53671 12.19556,18.7459 0.77625,-0.78087 0.58001,-2.05763 0.74851,-4.91095 1.05252,2.17883 0.54052,5.46012 0.32325,6.28345 1.50703,2.17408 3.1461,4.38774 4.66715,6.62128 1.34821,-1.60135 1.32487,-3.53166 1.45906,-5.24526 0.96781,1.34767 0.0222,6.27561 -0.48512,6.69029 1.80244,2.66177 3.56426,5.55481 5.3268,8.2551 1.34656,-1.87209 2.27706,-6.65144 2.10608,-10.38962 1.10332,4.97341 -0.38452,9.57313 -1.06221,11.95528 1.57019,2.43252 3.15351,6.75529 4.63848,9.18105 1.33699,-1.59203 2.58716,-8.36655 3.01631,-10.7298 0.32294,1.71681 -0.27361,10.14195 -1.8246,12.17712 1.75,2.89704 4.0539,8.62128 5.60724,11.45401 0.53671,-1.26905 -0.34211,-4.38648 0.0838,-6.51652 0.49739,2.12799 1.56549,5.99466 0.65062,7.78485 2.68557,4.9893 6.94474,19.3948 12.57416,23.00438 -0.69877,0.007 -1.34221,1.03862 -2.16316,1.15974 -5.55301,-5.30838 -8.99603,-19.12249 -11.41991,-23.46072 -0.49867,1.34752 -4.5517,-0.94265 -6.92046,-3.97922 3.49779,1.59773 5.0545,4.02364 6.26424,2.62979 -1.59848,-2.82412 -3.92869,-8.53237 -5.65205,-11.36295 -0.52171,0.61341 -6.04467,-1.28162 -8.91057,-4.61959 3.62211,1.98999 6.09799,4.63084 7.80886,3.15386 -1.89539,-3.07732 -3.79831,-7.93067 -5.80498,-10.99194 -1.66206,0.76493 -9.87849,-0.27756 -13.09393,-4.20155 3.91475,2.49101 10.30195,3.47382 11.92062,2.5548 -2.07089,-3.12727 -4.17275,-6.33077 -6.31995,-9.41413 -2.36697,0.90943 -6.19563,-0.62884 -9.13796,-3.15183 3.36955,1.96771 5.81117,3.75591 7.80067,1.2676 -1.16899,-1.66246 -2.50633,-3.93641 -3.68793,-5.57958 -2.13194,0.15956 -4.65547,-1.26492 -7.80688,-4.10626 2.16179,1.98795 5.26417,2.93902 6.57341,2.39652 -1.15513,-1.69912 -2.07141,-5.67131 -8.33347,-13.80136 l -1.14146,-2.85374 z"
         class="fil1"
         id="path5766"
         inkscape:connector-curvature="0" />
      <path
         style="fill:#800020;fill-opacity:1;stroke:#ffd283;stroke-width:2.12879395px;stroke-linecap:butt;stroke-linejoin:round;stroke-opacity:1"
         d="m -390.93929,572.97877 c 0,0 7.66151,-16.70966 7.57113,-32.6048 -0.11632,-19.829 -10.70438,-21.21691 -14.6398,-43.56664 -2.73267,-15.51913 8.01917,-38.65359 8.01917,-38.65359 l 3.55522,-15.18504 c 0,0 23.37986,36.63093 18.82753,65.87623 -3.5856,23.03519 -12.16731,21.78506 -11.89391,53.3034 0,0 -0.53369,11.81262 -11.43928,10.83029 z"
         id="path4623"
         sodipodi:nodetypes="cssccsscc"
         inkscape:connector-curvature="0" />
      <path
         id="path5764"
         class="fil1"
         d="m -384.95807,450.82955 c -0.81777,6.41222 0.5018,18.47038 0.49895,22.35826 -1.08138,-0.20716 -1.63929,-1.37223 -3.38738,-3.63363 0.35937,2.3929 2.63249,4.81404 3.27621,5.37147 -0.0176,2.64524 -0.12404,5.39765 -0.12073,8.09994 -2.01639,-0.56224 -3.0856,-2.16955 -4.16271,-3.50905 -0.0394,1.65871 3.52052,5.19516 4.17321,5.25163 0.0132,3.21459 0.18882,6.59727 0.25584,9.8212 -2.1677,-0.78676 -5.63117,-4.20908 -7.59791,-7.39267 1.89329,4.72943 5.71578,7.68912 7.61871,9.27429 0.0749,2.89432 -0.42371,7.89823 -0.28221,10.73889 -2.00188,-0.56084 -6.6074,-6.76108 -8.29444,-8.47077 0.70137,1.59993 5.6979,9.53188 8.12641,10.33804 0.18837,3.37933 1.51355,9.40584 1.82807,12.62115 -1.15884,-0.74539 -6.73461,-6.70742 -8.2873,-8.22647 0.7892,2.03788 6.63112,8.72541 8.39614,9.68796 0.59554,5.63477 4.80246,19.3492 2.1888,25.50454 0.5808,-0.38861 1.69415,0.10091 2.44041,-0.262 1.59262,-7.51523 -2.95482,-20.28103 -3.39936,-25.23055 1.17167,0.83165 6.93583,-5.02091 7.1798,-8.86438 -1.98773,3.29186 -5.61376,7.84886 -7.39879,7.37991 -0.27237,-3.23369 -1.56683,-9.26181 -1.73974,-12.57123 0.77678,0.21239 8.76584,-5.82452 9.25038,-10.19723 -1.86917,3.68589 -6.92125,8.62052 -9.16705,8.36552 -0.16987,-3.6102 0.29344,-9.23251 0.22442,-12.89221 1.80395,-0.3055 8.00164,-5.79959 8.44441,-10.8534 -1.82834,4.26469 -6.54898,8.67803 -8.404,8.83182 -0.0531,-3.75041 -0.12382,-7.58124 -0.0892,-11.33841 2.46757,-0.58365 4.76208,-4.013 5.76931,-7.75575 -1.67318,3.52509 -2.68123,6.37869 -5.72738,5.44555 0.028,-2.03212 -0.14981,-4.66416 -0.10069,-6.68746 1.85064,-1.0704 3.13143,-3.66982 4.13182,-7.79339 -0.66431,2.86078 -2.69013,5.39562 -4.07727,5.68584 -0.005,-2.05457 -1.48733,-5.85169 -0.90025,-16.097 l -0.66655,-3.00041 z"
         style="fill:#ffd283;fill-rule:evenodd;stroke:#ffd283;stroke-width:0.87633437;stroke-miterlimit:4;stroke-dasharray:none;stroke-opacity:1"
         sodipodi:nodetypes="ccccccccccccccccccccccccccccccccccc"
         inkscape:connector-curvature="0" />
      <path
         sodipodi:nodetypes="cscccscc"
         id="path4619"
         d="m -371.85189,573.42267 c -9.70388,-17.29273 1.39654,-29.03404 -9.74648,-48.80356 -8.11141,-14.39078 -28.89982,-36.89685 -28.89982,-36.89685 l -2.57155,3.78504 -4.28247,-4.26407 c 0,0 -2.20836,43.40006 16.20963,66.56869 14.50693,18.24901 12.01325,-3.75005 27.36081,23.78057 z"
         style="fill:#800020;fill-opacity:1;stroke:#ffd283;stroke-width:2.12879395px;stroke-linecap:butt;stroke-linejoin:round;stroke-opacity:1"
         inkscape:connector-curvature="0" />
      <path
         sodipodi:nodetypes="ccccccccccccccccccccccccccccccccccccc"
         style="fill:#ffd283;fill-rule:evenodd;stroke:#ffd283;stroke-width:0.87633437;stroke-miterlimit:4;stroke-dasharray:none;stroke-opacity:1"
         d="m -411.84662,496.2938 c 1.78055,6.21408 3.41528,11.74172 4.9478,15.3148 -1.07532,0.23668 -2.04793,-0.61344 -4.54692,-2.00085 1.27502,2.05656 4.31945,3.38343 5.13097,3.64139 1.02731,2.43768 2.01748,5.00797 3.08747,7.48938 -2.07455,0.27963 -3.69152,-0.7749 -5.21001,-1.58027 0.61886,1.53945 5.28577,3.38295 5.90775,3.17711 1.27985,2.94884 2.77822,5.98674 4.11295,8.92215 -2.30224,0.13311 -6.83556,-1.64359 -9.89956,-3.79191 3.6069,3.59757 8.28743,4.80745 10.66162,5.51244 1.21159,2.62959 2.72948,7.42372 3.98108,9.9777 -2.06066,0.27517 -8.74014,-3.60275 -10.96513,-4.50739 1.2761,1.19297 8.99858,6.50751 11.54802,6.28928 1.50754,3.0303 5.10452,8.04394 6.66307,10.8738 -1.359,-0.22726 -8.83584,-3.50324 -10.86215,-4.28578 1.52972,1.56068 9.53753,5.39811 11.53918,5.58553 2.77206,4.94177 12.05234,15.88073 12.08153,22.5679 0.38012,-0.58634 1.59628,-0.57621 2.13863,-1.20431 -1.50421,-7.5334 -10.72275,-17.46636 -13.08548,-21.83819 1.40484,0.30146 4.38976,-7.35155 3.09629,-10.97905 -0.52643,3.80924 -2.0585,9.4277 -3.88364,9.70169 -1.52709,-2.86339 -5.09654,-7.89057 -6.56214,-10.86282 0.7975,-0.11157 5.75375,-8.81246 4.47234,-13.0212 -0.26193,4.12446 -2.95504,10.65295 -5.11903,11.30542 -1.58181,-3.24966 -3.37581,-8.59821 -4.88432,-11.93326 1.53672,-0.99298 5.06143,-8.4878 3.47275,-13.30579 0.005,4.64009 -2.59031,10.55878 -4.23387,11.43253 -1.5297,-3.42469 -3.10715,-6.91638 -4.5589,-10.38191 2.0366,-1.51055 2.79061,-5.56724 2.23813,-9.40358 -0.14541,3.89931 0.0553,6.91908 -3.11181,7.26454 -0.77677,-1.878 -1.9793,-4.22602 -2.73295,-6.10436 1.27761,-1.71416 1.42795,-4.60808 0.71884,-8.79158 0.51927,2.89062 -0.34107,6.01939 -1.5009,6.83374 -0.81481,-1.88611 -1.13558,-2.25252 -4.64154,-11.89719 h 10e-6 l -4e-5,5e-5 z"
         class="fil1"
         id="path5762"
         inkscape:connector-curvature="0" />
      <path
         style="fill:#800020;fill-opacity:1;stroke:#ffd283;stroke-width:2.12879395px;stroke-linecap:butt;stroke-linejoin:round;stroke-opacity:1"
         d="m -430.43664,640.35791 c 0,0 14.92324,-10.73442 22.70309,-24.59605 4.2255,-7.52873 4.50669,-14.00545 4.3969,-20.55065 -0.0945,-5.64685 -0.48039,-11.34467 1.1247,-17.81299 0.80757,-3.25435 2.119,-6.70376 4.22487,-10.43991 2.73952,-4.8603 6.92505,-10.64627 11.26736,-16.17826 4.34511,-5.53553 8.84722,-10.81674 12.21457,-14.66172 3.23144,-3.68976 5.4179,-6.05687 5.4179,-6.05687 0.85717,1.26167 1.71435,2.52335 2.57154,3.78504 1.42748,-1.42136 2.855,-2.84272 4.28247,-4.26408 0,0 0.25698,5.05045 -0.13549,12.62534 -0.30282,5.84471 -0.99235,13.19238 -2.48497,20.88261 -1.20349,6.20063 -2.92906,12.62401 -5.39499,18.66183 -2.13131,5.21854 -4.81573,10.14909 -8.19415,14.39891 -4.04771,5.09176 -7.49855,8.34792 -10.70393,10.99436 -8.28272,6.8385 -14.92615,9.60607 -25.99148,29.4552 0,0 -6.30493,10.00355 -15.29828,3.75708 l -8e-5,1.6e-4 z"
         id="path4607"
         sodipodi:nodetypes="csssssscccsssssscc"
         inkscape:connector-curvature="0" />
      <path
         id="path5760"
         class="fil1"
         d="m -367.19638,536.29933 c -1.78055,6.21409 -3.41528,11.74172 -4.9478,15.31482 1.07532,0.23667 2.04793,-0.61345 4.54691,-2.00085 -1.27502,2.05655 -4.31944,3.38343 -5.13095,3.64138 -1.02731,2.43767 -2.01746,5.00797 -3.08748,7.48937 2.07455,0.27963 3.69152,-0.77489 5.21001,-1.58025 -0.61885,1.53943 -5.28578,3.38294 -5.90775,3.17709 -1.27984,2.94885 -2.77821,5.98676 -4.11296,8.92217 2.30224,0.13307 6.83556,-1.64359 9.89956,-3.79192 -3.6069,3.59757 -8.28739,4.80747 -10.66161,5.51243 -1.21159,2.6296 -2.72949,7.42374 -3.98109,9.97771 2.0607,0.27518 8.74015,-3.60275 10.96517,-4.50739 -1.27614,1.19299 -8.99862,6.50752 -11.54806,6.28929 -1.50753,3.03028 -5.10451,8.04392 -6.66305,10.87378 1.359,-0.22724 8.83582,-3.50324 10.86214,-4.28576 -1.52973,1.56069 -9.53754,5.39812 -11.53919,5.58554 -2.77206,4.94175 -12.05233,15.88069 -12.08149,22.5679 -0.38014,-0.58635 -1.59631,-0.57624 -2.13867,-1.20432 1.50421,-7.53342 10.72275,-17.46637 13.0855,-21.83819 -1.40486,0.30144 -4.38977,-7.35158 -3.09629,-10.97907 0.52643,3.80926 2.05848,9.42773 3.88363,9.7017 1.52708,-2.86337 5.09655,-7.89058 6.56214,-10.8628 -0.79748,-0.11149 -5.75375,-8.81247 -4.47234,-13.02121 0.26192,4.12447 2.95504,10.65293 5.11903,11.30539 1.58181,-3.24964 3.37581,-8.59818 4.88431,-11.93325 -1.5367,-0.99297 -5.06142,-8.48779 -3.47274,-13.30578 -0.005,4.64009 2.59031,10.55878 4.23387,11.43254 1.52971,-3.42469 3.10715,-6.91639 4.55891,-10.38193 -2.03661,-1.51055 -2.79063,-5.56721 -2.23814,-9.40357 0.14541,3.89931 -0.0553,6.91908 3.1118,7.26454 0.77677,-1.878 1.9793,-4.22603 2.73296,-6.10436 -1.27762,-1.71417 -1.42793,-4.60807 -0.71884,-8.79159 -0.51925,2.89063 0.34107,6.01939 1.5009,6.83375 0.8148,-1.88611 1.13558,-2.25253 4.64155,-11.89719 h -2e-5 l 4e-5,4e-5 z"
         style="fill:#ffd283;fill-rule:evenodd;stroke:#ffd283;stroke-width:0.87633437;stroke-miterlimit:4;stroke-dasharray:none;stroke-opacity:1"
         sodipodi:nodetypes="ccccccccccccccccccccccccccccccccccccc"
         inkscape:connector-curvature="0" />
      <path
         style="fill:#800020;fill-opacity:1;stroke:#ffd283;stroke-width:2.12879395px;stroke-linecap:butt;stroke-linejoin:round;stroke-opacity:1"
         d="m -434.17108,647.90999 c 6.23133,-18.82477 -4.78744,-14.48703 2.3848,-36.01737 5.22087,-15.67272 15.3691,-40.66885 15.3691,-40.66885 l 4.28084,1.2999 1.91722,-5.42861 c 0,0 16.49321,31.21335 0.63585,68.86725 -6.20121,14.72502 -9.04671,-17.60906 -18.86759,12.34134 -31.34453,25.58955 -8.98015,7.21857 -5.72022,-0.39374 z"
         id="path4605"
         sodipodi:nodetypes="cscccsccc"
         inkscape:connector-curvature="0" />
      <path
         id="path5724"
         class="fil1"
         d="m -411.43446,574.56543 c -0.45717,6.44794 -0.91358,12.19413 -1.67416,16.00689 1.10104,0.009 1.87683,-1.02363 4.03492,-2.8978 -0.82219,2.27576 -3.52645,4.20346 -4.26709,4.62366 -0.50109,2.59742 -0.93837,5.31689 -1.47214,7.96593 2.08753,-0.15555 3.45148,-1.52147 4.77063,-2.62341 -0.28714,1.63413 -4.47198,4.40276 -5.12309,4.32999 -0.64246,3.14978 -1.4803,6.43184 -2.17919,9.57981 2.27999,-0.34583 4.43785,-2.19034 6.99141,-4.92582 -2.78504,4.26563 -5.20414,5.58607 -7.38127,6.76673 -0.64164,2.82331 -2.52443,6.90701 -3.22089,9.66456 2.07302,-0.15686 5.74253,-1.65187 7.73234,-2.9971 -1.00185,1.43108 -5.39472,4.5474 -7.93418,4.86105 -9.55952,32.22648 -16.92499,38.84834 -1.19219,-0.19894 -0.8033,0.0562 -6.63888,-2.47529 -6.25544,-6.85798 1.1091,3.98112 4.28122,4.85461 6.53336,5.04551 0.87569,-3.50652 2.91396,-8.18976 3.70026,-11.76462 -1.70882,-0.65379 -5.49996,-2.34179 -4.94183,-7.38416 0.95494,4.54077 3.51046,4.87896 5.29918,5.39398 0.7885,-3.66698 1.60988,-7.40939 2.31362,-11.10021 -2.30493,-1.05678 -4.54214,-1.07479 -3.87228,-5.13743 0.94845,3.78498 1.11548,3.18058 4.28478,2.86399 0.37165,-1.99803 1.06268,-4.54397 1.41168,-6.53755 -1.60446,-1.41296 -2.62003,-1.00791 -2.79128,-5.24766 0.0899,2.93553 1.84852,2.61342 3.15164,3.1704 0.40716,-2.01382 0.64525,-2.43866 2.08117,-12.59982 v 0 l 4e-5,2e-5 z"
         style="fill:#ffd283;fill-rule:evenodd;stroke:#ffd283;stroke-width:0.87633437;stroke-miterlimit:4;stroke-dasharray:none;stroke-opacity:1"
         sodipodi:nodetypes="cccccccccccccccccccccccccccc"
         inkscape:connector-curvature="0" />
      <path
         sodipodi:nodetypes="cssccsscc"
         id="path4603"
         d="m -516.5257,670.61548 c 0,0 18.38238,0.0154 32.79873,-6.68119 17.98277,-8.35602 16.95525,-21.9253 37.55359,-31.44929 14.99423,-6.93281 35.03785,-8.31288 35.03785,-8.31288 l 14.70691,-3.55276 c 0,0 -23.58203,36.50113 -52.0698,44.52965 -22.43854,6.32373 -24.87234,-2.00002 -53.41923,11.36243 0,0 -10.96367,4.4296 -14.60791,-5.89596 z"
         style="fill:#800020;fill-opacity:1;stroke:#ffd283;stroke-width:2.12879395px;stroke-linecap:butt;stroke-linejoin:round;stroke-opacity:1"
         inkscape:connector-curvature="0" />
      <path
         style="fill:#800020;fill-opacity:1;stroke:#ffd283;stroke-width:2.12890816;stroke-linecap:butt;stroke-linejoin:round;stroke-miterlimit:4;stroke-dasharray:none;stroke-opacity:1"
         d="m -581.2471,683.50002 c 0,0 21.25856,4.2517 32.79874,-6.68124 11.54041,-10.93293 13.97001,-20.65107 35.8357,-26.72492 21.86592,-6.07387 41.90956,-15.18464 41.90956,-15.18464 l -0.60734,3.03692 2.42961,2.42957 c 0,0 -17.27708,25.67219 -44.33917,37.65783 -14.27824,6.32371 -21.86592,-2.42951 -50.41281,10.93294 0,0 -13.97002,4.85906 -17.61429,-5.46646 z"
         id="path4495"
         sodipodi:nodetypes="csscccss"
         inkscape:connector-curvature="0" />
      <ellipse
         style="fill:#ffd283;fill-opacity:1;stroke:#ffd283;stroke-width:4;stroke-linecap:round;stroke-linejoin:round;stroke-miterlimit:4;stroke-dasharray:none;stroke-dashoffset:0;stroke-opacity:1"
         id="path4697"
         transform="matrix(0.53100681,0,0,0.53100681,-1036.3196,369.52324)"
         cx="1104.3839"
         cy="74.244293"
         rx="6.8595271"
         ry="6.4560256" />
      <ellipse
         style="fill:#ffd283;fill-opacity:1;stroke:#ffd283;stroke-width:4;stroke-linecap:round;stroke-linejoin:round;stroke-miterlimit:4;stroke-dasharray:none;stroke-dashoffset:0;stroke-opacity:1"
         id="path4701"
         transform="matrix(0.53100681,0,0,0.53100681,-1037.2819,359.27724)"
         cx="1104.3839"
         cy="74.244293"
         rx="6.8595271"
         ry="6.4560256" />
      <ellipse
         transform="matrix(0.53100681,0,0,0.53100681,-988.8226,430.93581)"
         id="path4703"
         style="fill:#ffd283;fill-opacity:1;stroke:#ffd283;stroke-width:4;stroke-linecap:round;stroke-linejoin:round;stroke-miterlimit:4;stroke-dasharray:none;stroke-dashoffset:0;stroke-opacity:1"
         cx="1104.3839"
         cy="74.244293"
         rx="6.8595271"
         ry="6.4560256" />
      <ellipse
         style="fill:#ffd283;fill-opacity:1;stroke:#ffd283;stroke-width:4;stroke-linecap:round;stroke-linejoin:round;stroke-miterlimit:4;stroke-dasharray:none;stroke-dashoffset:0;stroke-opacity:1"
         id="path4705"
         transform="matrix(0.53100681,0,0,0.53100681,-983.41768,421.62307)"
         cx="1104.3839"
         cy="74.244293"
         rx="6.8595271"
         ry="6.4560256" />
      <ellipse
         transform="matrix(0.53100681,0,0,0.53100681,-982.71727,574.78531)"
         id="path4707"
         style="fill:#ffd283;fill-opacity:1;stroke:#ffd283;stroke-width:4;stroke-linecap:round;stroke-linejoin:round;stroke-miterlimit:4;stroke-dasharray:none;stroke-dashoffset:0;stroke-opacity:1"
         cx="1104.3839"
         cy="74.244293"
         rx="6.8595271"
         ry="6.4560256" />
      <ellipse
         style="fill:#ffd283;fill-opacity:1;stroke:#ffd283;stroke-width:4;stroke-linecap:round;stroke-linejoin:round;stroke-miterlimit:4;stroke-dasharray:none;stroke-dashoffset:0;stroke-opacity:1"
         id="path4709"
         transform="matrix(0.53100681,0,0,0.53100681,-1061.6817,631.89376)"
         cx="1104.3839"
         cy="74.244293"
         rx="6.8595271"
         ry="6.4560256" />
      <path
         id="_140468096"
         class="fil1"
         d="m -476.26243,641.36778 c -5.01136,4.08308 -9.51086,7.68607 -12.80987,9.74326 0.74737,0.80856 2.03129,0.66645 4.87494,0.95532 -2.22132,0.95957 -5.47807,0.30942 -6.29148,0.0575 -2.23577,1.41387 -4.51677,2.95783 -6.81256,4.38321 1.54299,1.41464 3.47254,1.47284 5.17894,1.6793 -1.38738,0.90998 -6.27094,-0.243 -6.66383,-0.76728 -2.73506,1.68917 -5.70032,3.32657 -8.47275,4.97335 1.81352,1.4245 4.63547,1.73342 8.37757,1.72054 -5.01558,0.89221 -7.63453,0.0339 -9.98593,-0.74374 -2.49662,1.46611 -6.76171,2.89117 -9.24799,4.27235 1.53413,1.40307 5.1367,3.05286 7.47972,3.58139 -1.72891,0.25014 -7.00826,-0.81631 -8.97608,-2.45184 -2.96844,1.62594 -8.77381,3.66996 -11.66963,5.10224 1.24532,0.58979 6.95714,1.38642 9.06729,1.90173 -2.1471,0.40706 -8.61553,-0.23203 -10.36548,-1.2217 -5.0983,2.4724 -14.37794,7.2992 -18.99364,8.84565 0.023,-0.6984 -0.98099,-1.38483 -1.06731,-2.21019 4.34984,-1.86255 14.96406,-5.43471 19.40078,-7.67321 -1.32529,-0.55505 -0.71262,-6.75385 2.42127,-8.99225 -1.74385,3.42731 -2.38682,7.12612 -1.04533,8.39362 2.88913,-1.47775 8.67967,-3.54861 11.58051,-5.15086 -0.59086,-0.54707 -2.74337,-6.53265 0.71267,-9.25497 -2.14115,3.53484 -0.60506,6.44438 0.79831,8.21615 3.15474,-1.76355 7.96315,-3.48597 11.10646,-5.36143 -0.69399,-1.69289 -2.0606,-5.61138 1.99574,-8.65821 -2.6546,3.80572 -1.15069,5.89945 -0.30085,7.5555 3.21192,-1.93698 6.50135,-3.90165 9.67261,-5.91672 -0.8086,-2.40323 -2.32776,-4.04569 1.09121,-6.34011 -2.10825,3.28344 -1.5535,2.99114 0.84785,5.08358 1.71038,-1.09764 4.03873,-2.33782 5.73034,-3.44895 -0.0694,-2.13678 -1.06004,-2.59936 1.91194,-5.6279 -2.07752,2.07587 -0.63823,3.13683 -0.15158,4.46776 1.74623,-1.08258 2.21883,-1.20007 10.60613,-7.11317 h -2e-5 v 4e-5 z"
         style="fill:#ffd283;fill-rule:evenodd;stroke:#ffd283;stroke-width:0.87633437;stroke-miterlimit:4;stroke-dasharray:none;stroke-opacity:1"
         sodipodi:nodetypes="cccccccccccccccccccccccccccccccccccc"
         inkscape:connector-curvature="0" />
      <path
         sodipodi:nodetypes="cccccccccccccccccccccccccccccccccccc"
         style="fill:#ffd283;fill-rule:evenodd;stroke:#ffd283;stroke-width:0.87633437;stroke-miterlimit:4;stroke-dasharray:none;stroke-opacity:1"
         d="m -404.28756,627.07157 c -6.18343,1.88425 -11.68295,3.6112 -15.22992,5.20325 -0.25462,-1.07122 0.57911,-2.05791 1.92453,-4.57974 -2.03495,1.30922 -3.31072,4.3754 -3.55507,5.19112 -2.42013,1.06794 -4.97354,2.10094 -7.4367,3.21228 -0.31428,-2.06958 0.71305,-3.70394 1.49292,-5.23569 -1.52888,0.64451 -3.29408,5.3416 -3.07786,5.96003 -2.92702,1.32899 -5.93943,2.87798 -8.85213,4.2616 -0.17163,-2.2997 1.14501,-5.05042 3.2418,-8.14993 -3.53672,3.66656 -4.28417,6.555 -4.94934,8.94068 -2.60897,1.25538 -6.16966,5.17026 -8.70236,6.46442 -0.30958,-2.05579 0.80051,-8.08796 1.66789,-10.32777 -1.17147,1.29589 -3.70064,8.39493 -3.43978,10.94036 -3.00466,1.55798 -7.93793,6.40659 -10.7413,8.01226 0.20444,-1.36264 2.72734,-6.54872 3.47586,-8.58781 -1.53485,1.55559 -4.61021,7.28196 -4.76414,9.28648 -4.89472,2.85433 -16.90383,8.83091 -23.58959,8.97193 0.59261,0.37026 0.60282,1.58643 1.23991,2.11819 7.50722,-1.62999 18.51149,-7.52806 22.8432,-9.96356 -0.27802,1.40967 9.68877,4.35668 13.29413,3.00275 -3.81752,-0.46285 -11.72567,-1.99103 -12.0301,-3.81134 2.83743,-1.57475 7.78467,-6.39608 10.732,-7.91117 0.1247,0.79551 7.66579,5.68356 11.85249,4.33196 -4.12823,-0.19301 -9.45916,-2.85447 -10.14776,-5.00725 3.22276,-1.63594 7.33321,-5.83614 10.64252,-7.40023 1.01858,1.51991 7.51735,5.54606 12.30809,3.87704 -4.63936,0.0821 -9.54668,-3.04066 -10.44778,-4.66938 3.39862,-1.58674 6.86345,-3.22239 10.30419,-4.73187 1.54443,2.01105 2.06111,4.18787 5.87191,2.62849 -3.90119,-0.0802 -3.3493,-0.37773 -3.74776,-3.5378 1.86473,-0.80806 4.19232,-2.0497 6.0578,-2.83466 1.73528,1.24876 2.50998,1.38616 6.68107,0.60714 -2.88154,0.56751 -3.90294,-0.27588 -4.73658,-1.4219 1.87221,-0.84619 2.23322,-1.17308 11.81791,-4.83985 v 2e-5 z"
         class="fil1"
         id="path5722"
         inkscape:connector-curvature="0" />
      <ellipse
         transform="matrix(0.53100681,0,0,0.53100681,-1071.6165,626.57156)"
         id="path24179"
         style="fill:#ffd283;fill-opacity:1;stroke:#ffd283;stroke-width:4;stroke-linecap:round;stroke-linejoin:round;stroke-miterlimit:4;stroke-dasharray:none;stroke-dashoffset:0;stroke-opacity:1"
         cx="1104.3839"
         cy="74.244293"
         rx="6.8595271"
         ry="6.4560256" />
      <ellipse
         style="fill:#ffd283;fill-opacity:1;stroke:#ffd283;stroke-width:4;stroke-linecap:round;stroke-linejoin:round;stroke-miterlimit:4;stroke-dasharray:none;stroke-dashoffset:0;stroke-opacity:1"
         id="path24185"
         transform="matrix(0.53100681,0,0,0.53100681,-1157.8359,625.86195)"
         cx="1104.3839"
         cy="74.244293"
         rx="6.8595271"
         ry="6.4560256" />
      <g
         id="flowRoot3499"
         style="font-style:normal;font-weight:normal;font-size:40px;font-family:'Bitstream Vera Sans';fill:#ffd283;fill-opacity:1;stroke:none"
         transform="matrix(1.017323,0,0,1.017323,270.49501,-15.769455)">
        <path
           id="path13071"
           style="font-variant:normal;font-weight:900;font-stretch:normal;font-family:'Arial Black';-inkscape-font-specification:'Arial Black, Heavy';fill:#ffd283"
           d="m -894.16016,865.1173 h -31.1914 l 10.76172,-28.63282 h 9.66797 l 10.76171,28.63282 m -11.03515,-6.15235 -4.58985,-15.03906 -4.72656,15.03906 h 9.31641"
           inkscape:connector-curvature="0" />
        <path
           id="path13073"
           style="font-variant:normal;font-weight:900;font-stretch:normal;font-family:'Arial Black';-inkscape-font-specification:'Arial Black, Heavy';fill:#ffd283"
           d="m -890.9375,836.48448 h 8.86719 v 28.63282 h -8.86719 v -28.63282"
           inkscape:connector-curvature="0" />
        <path
           id="path13075"
           style="font-variant:normal;font-weight:900;font-stretch:normal;font-family:'Arial Black';-inkscape-font-specification:'Arial Black, Heavy';fill:#ffd283"
           d="M -858.04687,860.39073 H -868.125 l -1.38672,4.72657 h -9.04297 l 10.76172,-28.63282 h 9.64844 l 10.76172,28.63282 h -9.25781 l -1.40625,-4.72657 m -1.85547,-6.1914 -3.16407,-10.29297 -3.14453,10.29297 h 6.3086"
           inkscape:connector-curvature="0" />
        <path
           id="path13077"
           style="font-variant:normal;font-weight:900;font-stretch:normal;font-family:'Arial Black';-inkscape-font-specification:'Arial Black, Heavy';fill:#ffd283"
           d="m -844.55078,836.48448 h 16.5625 c 2.76039,3e-5 4.87628,0.68362 6.34766,2.05078 1.48434,1.36722 2.22653,3.05992 2.22656,5.07813 -3e-5,1.69273 -0.52737,3.14455 -1.58203,4.35547 -0.70315,0.80731 -1.7318,1.44533 -3.08594,1.91406 2.05726,0.49481 3.56768,1.34767 4.53125,2.55859 0.97653,1.19793 1.46481,2.70835 1.46484,4.53125 -3e-5,1.48439 -0.34508,2.81902 -1.03515,4.00391 -0.69014,1.1849 -1.63415,2.1224 -2.83203,2.8125 -0.74222,0.42969 -1.86201,0.74219 -3.35938,0.9375 -1.99221,0.26042 -3.31382,0.39063 -3.96484,0.39063 h -15.27344 v -28.63282 m 8.92578,11.23047 h 3.84766 c 1.38019,2e-5 2.33722,-0.23436 2.87109,-0.70312 0.54686,-0.48176 0.82029,-1.17186 0.82031,-2.07032 -2e-5,-0.83331 -0.27345,-1.48435 -0.82031,-1.95312 -0.53387,-0.46873 -1.47137,-0.7031 -2.8125,-0.70313 h -3.90625 v 5.42969 m 0,11.25 h 4.51172 c 1.52342,10e-6 2.59764,-0.26692 3.22266,-0.80078 0.62497,-0.54687 0.93747,-1.27603 0.9375,-2.1875 -3e-5,-0.84634 -0.31253,-1.52343 -0.9375,-2.03125 -0.612,-0.52082 -1.69273,-0.78124 -3.24219,-0.78125 h -4.49219 v 5.80078"
           inkscape:connector-curvature="0" />
        <path
           id="path13079"
           style="font-variant:normal;font-weight:900;font-stretch:normal;font-family:'Arial Black';-inkscape-font-specification:'Arial Black, Heavy';fill:#ffd283"
           d="m -795.78125,860.39073 h -10.07812 l -1.38672,4.72657 h -9.04297 l 10.76172,-28.63282 h 9.64843 l 10.76172,28.63282 h -9.25781 l -1.40625,-4.72657 m -1.85547,-6.1914 -3.16406,-10.29297 -3.14453,10.29297 h 6.30859"
           inkscape:connector-curvature="0" />
        <path
           id="path13081"
           style="font-variant:normal;font-weight:900;font-stretch:normal;font-family:'Arial Black';-inkscape-font-specification:'Arial Black, Heavy';fill:#ffd283"
           d="m -784.31641,836.48448 h 26.89454 v 7.07032 h -9.02344 v 21.5625 h -8.84766 v -21.5625 h -9.02344 v -7.07032"
           inkscape:connector-curvature="0" />
        <path
           id="path13083"
           style="font-variant:normal;font-weight:900;font-stretch:normal;font-family:'Arial Black';-inkscape-font-specification:'Arial Black, Heavy';fill:#ffd283"
           d="m -753.35937,836.48448 h 8.84765 v 10.01953 h 9.66797 v -10.01953 h 8.88672 v 28.63282 h -8.88672 v -11.58204 h -9.66797 v 11.58204 h -8.84765 v -28.63282"
           inkscape:connector-curvature="0" />
        <path
           id="path13085"
           style="font-variant:normal;font-weight:900;font-stretch:normal;font-family:'Arial Black';-inkscape-font-specification:'Arial Black, Heavy';fill:#ffd283"
           d="m -720.07812,836.48448 h 14.70703 c 3.2031,3e-5 5.59893,0.76175 7.1875,2.28516 1.60153,1.52346 2.40231,3.69143 2.40234,6.50391 -3e-5,2.89064 -0.87242,5.14975 -2.61719,6.77734 -1.73179,1.62762 -4.38153,2.44142 -7.94922,2.44141 h -4.84375 v 10.625 h -8.88671 v -28.63282 m 8.88671,12.20703 h 2.16797 c 1.70572,2e-5 2.90363,-0.29295 3.59375,-0.8789 0.69009,-0.59894 1.03514,-1.36066 1.03516,-2.28516 -2e-5,-0.89842 -0.2995,-1.66013 -0.89844,-2.28515 -0.59897,-0.62498 -1.72528,-0.93748 -3.3789,-0.9375 h -2.51954 v 6.38671"
           inkscape:connector-curvature="0" />
        <path
           id="path13087"
           style="font-variant:normal;font-weight:900;font-stretch:normal;font-family:'Arial Black';-inkscape-font-specification:'Arial Black, Heavy';fill:#ffd283"
           d="m -690.78125,836.48448 h 8.86719 v 28.63282 h -8.86719 v -28.63282"
           inkscape:connector-curvature="0" />
        <path
           id="path13089"
           style="font-variant:normal;font-weight:900;font-stretch:normal;font-family:'Arial Black';-inkscape-font-specification:'Arial Black, Heavy';fill:#ffd283"
           d="m -676.62109,850.82042 c -10e-6,-4.67446 1.30208,-8.31378 3.90625,-10.91797 2.60415,-2.60414 6.23045,-3.90622 10.8789,-3.90625 4.76561,3e-5 8.43748,1.28258 11.01563,3.84766 2.57809,2.5521 3.86715,6.13283 3.86719,10.74219 -4e-5,3.34636 -0.56644,6.09375 -1.69922,8.24218 -1.11982,2.13542 -2.74743,3.80209 -4.88282,5 -2.12241,1.1849 -4.77215,1.77735 -7.94921,1.77735 -3.22919,0 -5.90496,-0.51433 -8.02735,-1.54297 -2.10938,-1.02865 -3.82162,-2.65625 -5.13672,-4.88281 -1.3151,-2.22656 -1.97266,-5.01301 -1.97265,-8.35938 m 8.84765,0.0391 c -10e-6,2.89064 0.53385,4.96746 1.60157,6.23047 1.08071,1.26303 2.54555,1.89454 4.39453,1.89453 1.90102,10e-6 3.37237,-0.61848 4.41406,-1.85547 1.04164,-1.23697 1.56248,-3.45702 1.5625,-6.66015 -2e-5,-2.6953 -0.5469,-4.66144 -1.64063,-5.89844 -1.08075,-1.24998 -2.5521,-1.87498 -4.41406,-1.875 -1.78387,2e-5 -3.21616,0.63153 -4.29687,1.89453 -1.08074,1.26304 -1.62111,3.35288 -1.6211,6.26953"
           inkscape:connector-curvature="0" />
      </g>
      <g
         id="flowRoot3507"
         style="font-style:normal;font-weight:normal;font-size:40px;font-family:'Bitstream Vera Sans';fill:#ffd283;fill-opacity:1;stroke:none"
         transform="matrix(0.98897504,0,0,0.98897504,157.83881,-716.95133)">
        <path
           id="path13129"
           style="font-variant:normal;font-weight:900;font-stretch:normal;font-family:'Arial Black';-inkscape-font-specification:'Arial Black, Heavy';fill:#ffd283"
           d="m -922.40234,836.48448 h 23.71093 v 6.11328 h -14.84375 v 4.55079 h 13.76954 v 5.83984 h -13.76954 v 5.64453 h 15.27344 v 6.48438 h -24.14062 v -28.63282"
           inkscape:connector-curvature="0" />
        <path
           id="path13131"
           style="font-variant:normal;font-weight:900;font-stretch:normal;font-family:'Arial Black';-inkscape-font-specification:'Arial Black, Heavy';fill:#ffd283"
           d="m -896.36719,836.48448 h 9.82422 l 5.78125,9.66797 5.78125,-9.66797 h 9.76563 l -11.13282,16.64063 v 11.99219 h -8.86718 v -11.99219 l -11.15235,-16.64063"
           inkscape:connector-curvature="0" />
        <path
           id="path13133"
           style="font-variant:normal;font-weight:900;font-stretch:normal;font-family:'Arial Black';-inkscape-font-specification:'Arial Black, Heavy';fill:#ffd283"
           d="m -862.34375,836.48448 h 14.70703 c 3.20311,3e-5 5.59894,0.76175 7.1875,2.28516 1.60154,1.52346 2.40232,3.69143 2.40235,6.50391 -3e-5,2.89064 -0.87243,5.14975 -2.61719,6.77734 -1.7318,1.62762 -4.38153,2.44142 -7.94922,2.44141 h -4.84375 v 10.625 h -8.88672 v -28.63282 m 8.88672,12.20703 h 2.16797 c 1.70571,2e-5 2.90363,-0.29295 3.59375,-0.8789 0.69008,-0.59894 1.03514,-1.36066 1.03515,-2.28516 -10e-6,-0.89842 -0.29949,-1.66013 -0.89843,-2.28515 -0.59898,-0.62498 -1.72528,-0.93748 -3.37891,-0.9375 h -2.51953 v 6.38671"
           inkscape:connector-curvature="0" />
        <path
           id="path13135"
           style="font-variant:normal;font-weight:900;font-stretch:normal;font-family:'Arial Black';-inkscape-font-specification:'Arial Black, Heavy';fill:#ffd283"
           d="m -830,858.88683 c -1.10678,-0.82031 -2.13542,-2.18098 -3.08594,-4.08203 -0.9375,-1.91405 -1.40625,-3.8216 -1.40625,-5.72266 0,-4.02342 1.27604,-7.20701 3.82813,-9.55078 2.56509,-2.35674 6.21092,-3.53513 10.9375,-3.53516 4.88279,3e-5 8.5807,1.12633 11.09375,3.37891 2.52601,2.25263 3.78903,5.4883 3.78906,9.70703 -3e-5,1.90106 -0.47529,3.80861 -1.42578,5.72266 -0.93753,1.90105 -1.95966,3.26172 -3.06641,4.08203 h 4.23828 v 6.23047 h -12.91015 v -6.23047 c 2.87758,-2.01822 4.31638,-5.09114 4.3164,-9.21875 -2e-5,-4.68748 -2.01174,-7.03123 -6.03515,-7.03125 -1.94012,2e-5 -3.41147,0.62502 -4.41406,1.875 -1.00262,1.25002 -1.50392,2.96876 -1.50391,5.15625 -10e-6,3.8672 1.43879,6.94011 4.31641,9.21875 v 6.23047 h -12.92969 v -6.23047 H -830"
           inkscape:connector-curvature="0" />
        <path
           id="path13137"
           style="font-variant:normal;font-weight:900;font-stretch:normal;font-family:'Arial Black';-inkscape-font-specification:'Arial Black, Heavy';fill:#ffd283"
           d="m -772.69531,865.1173 h -8.82813 V 843.51573 H -791.25 v 21.60157 h -8.82812 v -28.63282 h 27.38281 v 28.63282"
           inkscape:connector-curvature="0" />
        <path
           id="path13139"
           style="font-variant:normal;font-weight:900;font-stretch:normal;font-family:'Arial Black';-inkscape-font-specification:'Arial Black, Heavy';fill:#ffd283"
           d="m -749.14062,860.39073 h -10.07813 l -1.38672,4.72657 h -9.04297 l 10.76172,-28.63282 h 9.64844 l 10.76172,28.63282 h -9.25781 l -1.40625,-4.72657 m -1.85547,-6.1914 -3.16407,-10.29297 -3.14453,10.29297 h 6.3086"
           inkscape:connector-curvature="0" />
        <path
           id="path13141"
           style="font-variant:normal;font-weight:900;font-stretch:normal;font-family:'Arial Black';-inkscape-font-specification:'Arial Black, Heavy';fill:#ffd283"
           d="m -735.3125,836.48448 h 8.86719 v 28.63282 h -8.86719 v -28.63282 m -2.1875,-6.69922 h 5.07813 v 4.88282 H -737.5 v -4.88282 m 8.28125,0 h 5.13672 v 4.88282 h -5.13672 v -4.88282"
           inkscape:connector-curvature="0" />
        <path
           id="path13143"
           style="font-variant:normal;font-weight:900;font-stretch:normal;font-family:'Arial Black';-inkscape-font-specification:'Arial Black, Heavy';fill:#ffd283"
           d="m -720,836.48448 h 8.84766 v 10.82032 l 9.27734,-10.82032 h 11.75781 l -10.42968,10.80078 10.89843,17.83204 h -10.89843 l -6.03516,-11.77735 -4.57031,4.78516 v 6.99219 H -720 v -28.63282"
           inkscape:connector-curvature="0" />
        <path
           id="path13145"
           style="font-variant:normal;font-weight:900;font-stretch:normal;font-family:'Arial Black';-inkscape-font-specification:'Arial Black, Heavy';fill:#ffd283"
           d="m -686.71875,836.48448 h 8.84766 v 10.01953 h 9.66797 v -10.01953 h 8.88671 v 28.63282 h -8.88671 v -11.58204 h -9.66797 v 11.58204 h -8.84766 v -28.63282"
           inkscape:connector-curvature="0" />
        <path
           id="path13147"
           style="font-variant:normal;font-weight:900;font-stretch:normal;font-family:'Arial Black';-inkscape-font-specification:'Arial Black, Heavy';fill:#ffd283"
           d="m -640.05859,836.48448 h 23.71093 v 6.11328 h -14.84375 v 4.55079 h 13.76954 v 5.83984 h -13.76954 v 5.64453 h 15.27344 v 6.48438 h -24.14062 v -28.63282"
           inkscape:connector-curvature="0" />
        <path
           id="path13149"
           style="font-variant:normal;font-weight:900;font-stretch:normal;font-family:'Arial Black';-inkscape-font-specification:'Arial Black, Heavy';fill:#ffd283"
           d="m -611.07422,836.48448 h 8.26172 l 10.78125,15.83985 v -15.83985 h 8.33984 v 28.63282 h -8.33984 l -10.72266,-15.72266 v 15.72266 h -8.32031 v -28.63282"
           inkscape:connector-curvature="0" />
        <path
           id="path13151"
           style="font-variant:normal;font-weight:900;font-stretch:normal;font-family:'Arial Black';-inkscape-font-specification:'Arial Black, Heavy';fill:#ffd283"
           d="m -574.375,858.88683 c -1.10678,-0.82031 -2.13542,-2.18098 -3.08594,-4.08203 -0.9375,-1.91405 -1.40625,-3.8216 -1.40625,-5.72266 0,-4.02342 1.27604,-7.20701 3.82813,-9.55078 2.56509,-2.35674 6.21092,-3.53513 10.9375,-3.53516 4.88279,3e-5 8.5807,1.12633 11.09375,3.37891 2.52601,2.25263 3.78903,5.4883 3.78906,9.70703 -3e-5,1.90106 -0.47529,3.80861 -1.42578,5.72266 -0.93753,1.90105 -1.95966,3.26172 -3.06641,4.08203 h 4.23828 v 6.23047 h -12.91015 v -6.23047 c 2.87758,-2.01822 4.31638,-5.09114 4.3164,-9.21875 -2e-5,-4.68748 -2.01174,-7.03123 -6.03515,-7.03125 -1.94012,2e-5 -3.41147,0.62502 -4.41406,1.875 -1.00262,1.25002 -1.50392,2.96876 -1.50391,5.15625 -10e-6,3.8672 1.43879,6.94011 4.31641,9.21875 v 6.23047 h -12.92969 v -6.23047 h 4.25781"
           inkscape:connector-curvature="0" />
        <path
           id="path13153"
           style="font-variant:normal;font-weight:900;font-stretch:normal;font-family:'Arial Black';-inkscape-font-specification:'Arial Black, Heavy';fill:#ffd283"
           d="m -520.29297,865.1173 h -24.16015 v -6.19141 l 8.47656,-8.61328 -8.47656,-7.91016 v -5.91797 h 23.71093 v 6.15235 h -14.16015 l 8.39843,7.67578 -8.39843,8.32031 h 14.60937 v 6.48438"
           inkscape:connector-curvature="0" />
        <path
           id="path13155"
           style="font-variant:normal;font-weight:900;font-stretch:normal;font-family:'Arial Black';-inkscape-font-specification:'Arial Black, Heavy';fill:#ffd283"
           d="m -515.54687,836.48448 h 8.84765 v 10.01953 h 9.66797 v -10.01953 h 8.88672 v 28.63282 h -8.88672 v -11.58204 h -9.66797 v 11.58204 h -8.84765 v -28.63282"
           inkscape:connector-curvature="0" />
      </g>
      <g
         id="flowRoot3515"
         style="font-style:normal;font-weight:normal;font-size:40px;font-family:'Bitstream Vera Sans';fill:#ffd283;fill-opacity:1;stroke:none"
         transform="matrix(0.98897504,0,0,0.98897504,96.355921,-665.7156)">
        <path
           id="path13092"
           style="font-variant:normal;font-weight:900;font-stretch:normal;font-family:'Arial Black';-inkscape-font-specification:'Arial Black, Heavy';fill:#ffd283"
           d="m -922.40234,836.48448 h 23.71093 v 6.11328 h -14.84375 v 4.55079 h 13.76954 v 5.83984 h -13.76954 v 5.64453 h 15.27344 v 6.48438 h -24.14062 v -28.63282"
           inkscape:connector-curvature="0" />
        <path
           id="path13094"
           style="font-variant:normal;font-weight:900;font-stretch:normal;font-family:'Arial Black';-inkscape-font-specification:'Arial Black, Heavy';fill:#ffd283"
           d="m -865.33203,865.1173 h -9.23828 l -6.48438,-20.64454 -6.30859,20.64454 h -9.00391 l 10.64453,-28.63282 h 9.58985 l 10.80078,28.63282"
           inkscape:connector-curvature="0" />
        <path
           id="path13096"
           style="font-variant:normal;font-weight:900;font-stretch:normal;font-family:'Arial Black';-inkscape-font-specification:'Arial Black, Heavy';fill:#ffd283"
           d="m -834.23828,865.1173 h -9.23828 l -6.48438,-20.64454 -6.30859,20.64454 h -9.00391 l 10.64453,-28.63282 h 9.58985 l 10.80078,28.63282"
           inkscape:connector-curvature="0" />
        <path
           id="path13098"
           style="font-variant:normal;font-weight:900;font-stretch:normal;font-family:'Arial Black';-inkscape-font-specification:'Arial Black, Heavy';fill:#ffd283"
           d="m -831.25,836.48448 h 8.84766 v 10.01953 h 9.66797 v -10.01953 h 8.88671 v 28.63282 h -8.88671 v -11.58204 h -9.66797 V 865.1173 H -831.25 v -28.63282"
           inkscape:connector-curvature="0" />
        <path
           id="path13100"
           style="font-variant:normal;font-weight:900;font-stretch:normal;font-family:'Arial Black';-inkscape-font-specification:'Arial Black, Heavy';fill:#ffd283"
           d="m -797.87109,836.48448 h 8.26172 l 10.78125,15.83985 v -15.83985 h 8.33984 v 28.63282 h -8.33984 l -10.72266,-15.72266 v 15.72266 h -8.32031 v -28.63282"
           inkscape:connector-curvature="0" />
        <path
           id="path13102"
           style="font-variant:normal;font-weight:900;font-stretch:normal;font-family:'Arial Black';-inkscape-font-specification:'Arial Black, Heavy';fill:#ffd283"
           d="m -764.21875,836.48448 h 8.86719 v 28.63282 h -8.86719 v -28.63282"
           inkscape:connector-curvature="0" />
        <path
           id="path13104"
           style="font-variant:normal;font-weight:900;font-stretch:normal;font-family:'Arial Black';-inkscape-font-specification:'Arial Black, Heavy';fill:#ffd283"
           d="m -748.90625,836.48448 h 8.84766 v 10.82032 l 9.27734,-10.82032 h 11.75781 l -10.42968,10.80078 10.89843,17.83204 h -10.89843 l -6.03516,-11.77735 -4.57031,4.78516 v 6.99219 h -8.84766 v -28.63282"
           inkscape:connector-curvature="0" />
        <path
           id="path13106"
           style="font-variant:normal;font-weight:900;font-stretch:normal;font-family:'Arial Black';-inkscape-font-specification:'Arial Black, Heavy';fill:#ffd283"
           d="m -715.625,836.48448 h 8.84766 v 10.01953 h 9.66797 v -10.01953 h 8.88671 v 28.63282 h -8.88671 v -11.58204 h -9.66797 v 11.58204 h -8.84766 v -28.63282"
           inkscape:connector-curvature="0" />
        <path
           id="path13108"
           style="font-variant:normal;font-weight:900;font-stretch:normal;font-family:'Arial Black';-inkscape-font-specification:'Arial Black, Heavy';fill:#ffd283"
           d="m -640.72266,865.1173 h -31.1914 l 10.76172,-28.63282 h 9.66797 l 10.76171,28.63282 m -11.03515,-6.15235 -4.58985,-15.03906 -4.72656,15.03906 h 9.31641"
           inkscape:connector-curvature="0" />
        <path
           id="path13110"
           style="font-variant:normal;font-weight:900;font-stretch:normal;font-family:'Arial Black';-inkscape-font-specification:'Arial Black, Heavy';fill:#ffd283"
           d="m -637.8125,836.48448 h 8.84766 v 10.01953 h 9.66797 v -10.01953 h 8.88671 v 28.63282 h -8.88671 v -11.58204 h -9.66797 v 11.58204 h -8.84766 v -28.63282"
           inkscape:connector-curvature="0" />
        <path
           id="path13112"
           style="font-variant:normal;font-weight:900;font-stretch:normal;font-family:'Arial Black';-inkscape-font-specification:'Arial Black, Heavy';fill:#ffd283"
           d="m -604.58984,836.48448 h 11.64062 l 4.49219,17.42188 4.47266,-17.42188 h 11.60156 v 28.63282 h -7.22656 v -21.83594 l -5.60547,21.83594 h -6.54297 l -5.58594,-21.83594 v 21.83594 h -7.24609 v -28.63282"
           inkscape:connector-curvature="0" />
        <path
           id="path13114"
           style="font-variant:normal;font-weight:900;font-stretch:normal;font-family:'Arial Black';-inkscape-font-specification:'Arial Black, Heavy';fill:#ffd283"
           d="m -567.87109,850.82042 c -10e-6,-4.67446 1.30208,-8.31378 3.90625,-10.91797 2.60415,-2.60414 6.23045,-3.90622 10.8789,-3.90625 4.76561,3e-5 8.43748,1.28258 11.01563,3.84766 2.57809,2.5521 3.86715,6.13283 3.86719,10.74219 -4e-5,3.34636 -0.56644,6.09375 -1.69922,8.24218 -1.11982,2.13542 -2.74743,3.80209 -4.88282,5 -2.12241,1.1849 -4.77215,1.77735 -7.94921,1.77735 -3.22919,0 -5.90496,-0.51433 -8.02735,-1.54297 -2.10938,-1.02865 -3.82162,-2.65625 -5.13672,-4.88281 -1.3151,-2.22656 -1.97266,-5.01301 -1.97265,-8.35938 m 8.84765,0.0391 c -10e-6,2.89064 0.53385,4.96746 1.60157,6.23047 1.08071,1.26303 2.54555,1.89454 4.39453,1.89453 1.90102,10e-6 3.37237,-0.61848 4.41406,-1.85547 1.04164,-1.23697 1.56248,-3.45702 1.5625,-6.66015 -2e-5,-2.6953 -0.5469,-4.66144 -1.64063,-5.89844 -1.08075,-1.24998 -2.5521,-1.87498 -4.41406,-1.875 -1.78387,2e-5 -3.21616,0.63153 -4.29687,1.89453 -1.08074,1.26304 -1.62111,3.35288 -1.6211,6.26953"
           inkscape:connector-curvature="0" />
        <path
           id="path13116"
           style="font-variant:normal;font-weight:900;font-stretch:normal;font-family:'Arial Black';-inkscape-font-specification:'Arial Black, Heavy';fill:#ffd283"
           d="m -533.35937,836.48448 h 8.84765 v 10.82032 l 9.27735,-10.82032 h 11.75781 l -10.42969,10.80078 10.89844,17.83204 h -10.89844 l -6.03516,-11.77735 -4.57031,4.78516 v 6.99219 h -8.84765 v -28.63282"
           inkscape:connector-curvature="0" />
        <path
           id="path13118"
           style="font-variant:normal;font-weight:900;font-stretch:normal;font-family:'Arial Black';-inkscape-font-specification:'Arial Black, Heavy';fill:#ffd283"
           d="m -500.15625,836.48448 h 14.70703 c 3.20311,3e-5 5.59894,0.76175 7.1875,2.28516 1.60154,1.52346 2.40232,3.69143 2.40235,6.50391 -3e-5,2.89064 -0.87243,5.14975 -2.61719,6.77734 -1.7318,1.62762 -4.38153,2.44142 -7.94922,2.44141 h -4.84375 v 10.625 h -8.88672 v -28.63282 m 8.88672,12.20703 h 2.16797 c 1.70571,2e-5 2.90363,-0.29295 3.59375,-0.8789 0.69008,-0.59894 1.03514,-1.36066 1.03515,-2.28516 -10e-6,-0.89842 -0.29949,-1.66013 -0.89843,-2.28515 -0.59898,-0.62498 -1.72528,-0.93748 -3.37891,-0.9375 h -2.51953 v 6.38671"
           inkscape:connector-curvature="0" />
        <path
           id="path13120"
           style="font-variant:normal;font-weight:900;font-stretch:normal;font-family:'Arial Black';-inkscape-font-specification:'Arial Black, Heavy';fill:#ffd283"
           d="m -453.59375,860.39073 h -10.07812 l -1.38672,4.72657 h -9.04297 l 10.76172,-28.63282 h 9.64843 l 10.76172,28.63282 h -9.25781 l -1.40625,-4.72657 m -1.85547,-6.1914 -3.16406,-10.29297 -3.14453,10.29297 h 6.30859"
           inkscape:connector-curvature="0" />
        <path
           id="path13122"
           style="font-variant:normal;font-weight:900;font-stretch:normal;font-family:'Arial Black';-inkscape-font-specification:'Arial Black, Heavy';fill:#ffd283"
           d="m -442.12891,836.48448 h 26.89454 v 7.07032 h -9.02344 v 21.5625 h -8.84766 v -21.5625 h -9.02344 v -7.07032"
           inkscape:connector-curvature="0" />
        <path
           id="path13124"
           style="font-variant:normal;font-weight:900;font-stretch:normal;font-family:'Arial Black';-inkscape-font-specification:'Arial Black, Heavy';fill:#ffd283"
           d="m -410.85937,836.48448 h 8.86718 v 28.63282 h -8.86718 v -28.63282"
           inkscape:connector-curvature="0" />
        <path
           id="path13126"
           style="font-variant:normal;font-weight:900;font-stretch:normal;font-family:'Arial Black';-inkscape-font-specification:'Arial Black, Heavy';fill:#ffd283"
           d="m -377.96875,860.39073 h -10.07812 l -1.38672,4.72657 h -9.04297 l 10.76172,-28.63282 h 9.64843 l 10.76172,28.63282 h -9.25781 l -1.40625,-4.72657 m -1.85547,-6.1914 -3.16406,-10.29297 -3.14453,10.29297 h 6.30859"
           inkscape:connector-curvature="0" />
      </g>
      <g
         style="fill:#800020"
         transform="matrix(0.9582772,0,0,0.9582772,-4.795273,51.077186)"
         id="g3659">
        <rect
           style="fill:#800020;fill-opacity:1;stroke:none"
           id="rect3544"
           width="61.767769"
           height="5"
           x="-634.76776"
           y="402.36218" />
        <rect
           style="fill:#800020;fill-opacity:1;stroke:none"
           id="rect3546"
           width="61.767769"
           height="5"
           x="-634.76776"
           y="412.36218" />
        <rect
           style="fill:#800020;fill-opacity:1;stroke:none"
           id="rect3548"
           width="61.767769"
           height="5"
           x="-634.76776"
           y="422.36218" />
        <rect
           style="fill:#800020;fill-opacity:1;stroke:none"
           id="rect3550"
           width="61.767769"
           height="5"
           x="-634.76776"
           y="432.36218" />
        <rect
           style="fill:#800020;fill-opacity:1;stroke:none"
           id="rect3552"
           width="61.767769"
           height="5"
           x="-634.76776"
           y="442.36218" />
        <rect
           style="fill:#800020;fill-opacity:1;stroke:none"
           id="rect3554"
           width="59.718891"
           height="5.0306125"
           x="-634.71893"
           y="452.33157" />
        <rect
           y="402.36218"
           x="-516"
           height="5"
           width="60"
           id="rect3556"
           style="fill:#800020;fill-opacity:1;stroke:none" />
        <rect
           y="412.36218"
           x="-516"
           height="5"
           width="60"
           id="rect3558"
           style="fill:#800020;fill-opacity:1;stroke:none" />
        <rect
           y="422.36218"
           x="-516"
           height="5"
           width="60"
           id="rect3560"
           style="fill:#800020;fill-opacity:1;stroke:none" />
        <rect
           y="432.36218"
           x="-516"
           height="5"
           width="60"
           id="rect3562"
           style="fill:#800020;fill-opacity:1;stroke:none" />
        <rect
           y="442.36218"
           x="-516"
           height="5"
           width="60"
           id="rect3564"
           style="fill:#800020;fill-opacity:1;stroke:none" />
        <rect
           y="452.33157"
           x="-516.98163"
           height="5.0306125"
           width="60.981583"
           id="rect3566"
           style="fill:#800020;fill-opacity:1;stroke:none" />
      </g>
      <g
         style="fill:#800020"
         transform="matrix(0.9582772,0,0,0.9582772,-4.31127,167.503)"
         id="g3673">
        <rect
           y="398.5741"
           x="-635"
           height="8.7880716"
           width="60"
           id="rect3675"
           style="fill:#800020;fill-opacity:1;stroke:none" />
        <rect
           y="412.36218"
           x="-635"
           height="5"
           width="60"
           id="rect3677"
           style="fill:#800020;fill-opacity:1;stroke:none" />
        <rect
           y="422.36218"
           x="-635"
           height="5"
           width="60"
           id="rect3679"
           style="fill:#800020;fill-opacity:1;stroke:none" />
        <rect
           y="432.36218"
           x="-635"
           height="5"
           width="60"
           id="rect3681"
           style="fill:#800020;fill-opacity:1;stroke:none" />
        <rect
           y="442.36218"
           x="-635"
           height="5"
           width="60"
           id="rect3683"
           style="fill:#800020;fill-opacity:1;stroke:none" />
        <rect
           y="452.33157"
           x="-634.21387"
           height="5.0306125"
           width="59.213814"
           id="rect3685"
           style="fill:#800020;fill-opacity:1;stroke:none" />
        <rect
           style="fill:#800020;fill-opacity:1;stroke:none"
           id="rect3687"
           width="62.77792"
           height="8.7880716"
           x="-518.77789"
           y="398.5741" />
        <rect
           style="fill:#800020;fill-opacity:1;stroke:none"
           id="rect3689"
           width="62.77792"
           height="5"
           x="-518.77789"
           y="412.36218" />
        <rect
           style="fill:#800020;fill-opacity:1;stroke:none"
           id="rect3691"
           width="62.77792"
           height="5"
           x="-518.77789"
           y="422.36218" />
        <rect
           style="fill:#800020;fill-opacity:1;stroke:none"
           id="rect3693"
           width="62.77792"
           height="5"
           x="-518.77789"
           y="432.36218" />
        <rect
           style="fill:#800020;fill-opacity:1;stroke:none"
           id="rect3695"
           width="62.77792"
           height="5"
           x="-518.77789"
           y="442.36218" />
        <rect
           style="fill:#800020;fill-opacity:1;stroke:none"
           id="rect3697"
           width="60.981583"
           height="5.0306125"
           x="-516.98163"
           y="452.33157" />
        <path
           sodipodi:nodetypes="ccccc"
           id="rect3699"
           d="m -628.40552,462.33157 h 53.40544 v 6.51539 l -45.8293,-3.283 z"
           style="fill:#800020;fill-opacity:1;stroke:none"
           inkscape:connector-curvature="0" />
        <path
           sodipodi:nodetypes="ccccc"
           id="rect3701"
           d="m -516.98163,462.33157 h 56.22397 l -13.1726,3.99001 -43.05137,2.52538 z"
           style="fill:#800020;fill-opacity:1;stroke:none"
           inkscape:connector-curvature="0" />
      </g>
      <path
         sodipodi:nodetypes="ccc"
         id="path3705"
         d="m -555.32066,610.45331 v -58.12387 h -56.53835"
         style="fill:none;stroke:#ffd283;stroke-width:1.91655445;stroke-linecap:butt;stroke-linejoin:miter;stroke-opacity:1"
         inkscape:connector-curvature="0" />
      <path
         style="fill:none;stroke:#ffd283;stroke-width:1.91655445;stroke-linecap:butt;stroke-linejoin:miter;stroke-opacity:1"
         d="m -498.78231,610.45331 v -58.12387 h 56.53836"
         id="path3711"
         sodipodi:nodetypes="ccc"
         inkscape:connector-curvature="0" />
      <path
         style="fill:none;stroke:#ffd283;stroke-width:1.91655445;stroke-linecap:butt;stroke-linejoin:miter;stroke-opacity:1"
         d="m -555.32066,441.42597 v 58.12387 h -56.53835"
         id="path3713"
         sodipodi:nodetypes="ccc"
         inkscape:connector-curvature="0" />
      <path
         sodipodi:nodetypes="ccc"
         id="path3715"
         d="m -498.78231,441.42597 v 58.12387 h 56.53836"
         style="fill:none;stroke:#ffd283;stroke-width:1.91655445;stroke-linecap:butt;stroke-linejoin:miter;stroke-opacity:1"
         inkscape:connector-curvature="0" />
      <path
         d="m -573.76323,928.65859 v 20.60296 h 30.39531 c 1.15683,-7.32031 7.47887,-12.93674 15.12286,-12.93674 7.64389,0 13.96593,5.61643 15.12276,12.93674 h 30.39537 v -20.60296 z m 45.51817,12.4576 c -5.81866,0 -10.54105,4.72239 -10.54105,10.54105 0,5.81866 4.72239,10.54105 10.54105,10.54105 5.81866,0 10.54105,-4.72239 10.54105,-10.54105 0,-5.81866 -4.72239,-10.54105 -10.54105,-10.54105 z m -45.51817,12.93675 v 20.60296 h 91.0363 v -20.60296 h -30.39537 c -1.15683,7.3203 -7.47887,12.93674 -15.12276,12.93674 -7.64399,0 -13.96603,-5.61644 -15.12286,-12.93674 z"
         style="fill:#ffd283;fill-opacity:1;fill-rule:nonzero;stroke:none"
         id="rect2220"
         inkscape:connector-curvature="0" />
    </g>
  </g>
</svg>
