<svg width="346" height="472" viewBox="0 0 346 472" fill="none" xmlns="http://www.w3.org/2000/svg">
<g clip-path="url(#clip0_234_11)">
<path d="M0 0V15.0916V37.731V456.907V472.001H37.686H316.927C325.279 472.001 332.001 465.268 332.001 456.907V15.0916C332.001 6.73035 325.279 0 316.927 0H37.686H15.0736H0Z" fill="#66152A"/>
<path d="M165.84 471.76L331.68 471.68L331.761 235.84L331.841 0L331.921 236L332 472L166 471.92L0 471.841L165.84 471.76ZM146.119 445.393C146.032 445.165 146 442.828 146.049 440.2L146.137 435.422H152.028H157.919L158.236 436.54C158.415 437.175 159.264 438.374 160.2 439.314C163.061 442.19 166.662 442.673 170.193 440.654C171.842 439.711 173.535 437.599 173.946 435.974C174.129 435.248 174.131 435.248 179.916 435.335L185.703 435.422V440.533V445.644L165.99 445.727C150.04 445.793 146.248 445.73 146.119 445.393ZM163.624 437.531C159.799 435.125 161.082 429.426 165.55 428.973C167.23 428.802 168.834 429.599 169.851 431.109C170.47 432.029 170.579 432.528 170.467 433.927C170.352 435.36 170.151 435.808 169.185 436.774C168.215 437.746 167.781 437.94 166.342 438.047C165.038 438.144 164.407 438.024 163.624 437.531ZM146.118 431.334C146.031 431.107 145.999 428.842 146.048 426.303L146.137 421.685L166 421.603L185.863 421.521V426.634V431.748H179.984H174.106L173.715 430.562C173.176 428.927 170.402 426.235 168.755 425.747C164.353 424.445 160.165 426.315 158.357 430.39L157.754 431.748H152.015C147.61 431.748 146.24 431.652 146.118 431.334Z" fill="#DDA46F"/>
<path d="M204.068 180.791C200.448 176.355 197.182 172.366 196.809 171.926L196.131 171.128L196.217 178.826C196.311 187.287 196.338 187.408 198.249 187.767C200.472 188.184 199.214 188.538 195.505 188.538C191.824 188.538 190.571 188.2 192.682 187.778C194.596 187.394 194.548 187.649 194.548 178.017V169.171L193.64 168.3C193.141 167.822 192.208 167.345 191.566 167.24C190.884 167.129 190.4 166.869 190.4 166.613C190.4 166.275 191.068 166.176 193.364 166.176H196.329L202.829 174.176C206.404 178.576 209.457 182.255 209.613 182.351C209.778 182.453 209.857 179.468 209.801 175.284C209.711 168.544 209.66 168.009 209.084 167.587C208.744 167.338 208.05 167.134 207.542 167.134C206.946 167.134 206.666 166.993 206.752 166.735C206.918 166.236 214.286 166.159 214.41 166.655C214.454 166.831 214.059 167.023 213.533 167.081C211.418 167.317 211.459 167.092 211.459 178.525C211.459 186.659 211.372 188.857 211.054 188.857C210.831 188.857 207.687 185.228 204.068 180.791ZM94.5383 188.254C94.4418 188.097 94.8594 187.876 95.4664 187.762C97.5875 187.364 97.5479 187.561 97.5479 177.373C97.5479 167.294 97.6022 167.58 95.6157 167.174C95.0816 167.064 94.6158 166.831 94.5806 166.655C94.5411 166.457 96.3018 166.302 99.2231 166.247C103.269 166.172 103.929 166.229 103.929 166.647C103.929 166.973 103.62 167.134 102.995 167.134C100.845 167.134 100.658 168.115 100.796 178.666C100.908 187.281 100.927 187.364 102.824 187.721C103.432 187.835 103.929 188.065 103.929 188.233C103.929 188.623 94.7785 188.644 94.5383 188.254ZM105.206 188.254C105.206 188.098 105.694 187.879 106.29 187.767C108.246 187.399 108.237 187.446 108.237 177.282C108.237 168.503 108.207 168.019 107.618 167.588C107.277 167.338 106.595 167.134 106.102 167.134C105.518 167.134 105.206 166.967 105.206 166.655C105.206 166.255 105.85 166.177 109.114 166.182C114.712 166.189 118.397 166.633 119.73 167.458C123.727 169.931 123.166 175.532 118.752 177.22C117.97 177.519 117.331 177.835 117.331 177.922C117.331 178.18 121.783 184.347 122.837 185.548C123.99 186.863 125.012 187.429 126.758 187.719C128.092 187.941 129.732 187.518 130.162 186.841C130.295 186.632 130.405 182.339 130.408 177.3C130.412 167.098 130.419 167.134 128.289 167.134C127.535 167.134 127.212 167.004 127.302 166.735C127.497 166.149 144.092 165.988 144.28 166.57C144.352 166.793 144.463 167.945 144.526 169.131C144.659 171.604 144.147 172.064 143.536 170.021C142.93 167.996 142.351 167.774 137.681 167.774H133.604V171.926V176.079H137.064C140.906 176.079 141.312 175.892 141.73 173.923C142.191 171.752 142.538 173.022 142.538 176.878C142.538 180.986 142.208 181.925 141.582 179.599C141.394 178.899 140.967 178.18 140.633 178.002C140.3 177.823 138.582 177.677 136.815 177.677H133.604V181.967C133.604 187.545 133.458 187.383 138.295 187.198C142.434 187.039 143.015 186.771 144.612 184.288C146.15 181.895 146.441 182.431 145.358 185.663L144.395 188.538H132.796H121.196L117.49 183.427C113.942 178.533 113.737 178.316 112.686 178.316H111.587V182.446C111.587 187.049 111.724 187.397 113.672 187.763C116.079 188.215 114.545 188.538 109.992 188.538C107.359 188.538 105.206 188.41 105.206 188.254ZM116.491 176.105C119.332 174.347 119.263 169.749 116.373 168.253C115.72 167.914 114.774 167.774 113.567 167.838L111.747 167.933L111.658 172.531L111.569 177.128L113.484 176.954C114.613 176.852 115.848 176.503 116.491 176.105ZM147.508 188.259C147.41 188.1 147.826 187.876 148.433 187.762C150.554 187.364 150.515 187.56 150.515 177.384C150.515 167.263 150.526 167.323 148.511 167.081C148.023 167.023 147.592 166.831 147.553 166.655C147.51 166.456 149.37 166.303 152.509 166.248C156.839 166.172 157.534 166.229 157.534 166.647C157.534 166.985 157.213 167.134 156.489 167.134C155.914 167.134 155.124 167.358 154.734 167.632C154.029 168.126 154.025 168.189 154.025 177.176C154.025 184.711 154.102 186.288 154.49 186.61C154.812 186.878 156.079 186.963 158.615 186.889C162.877 186.764 163.448 186.489 165.083 183.783C165.638 182.866 166.167 182.239 166.261 182.39C166.354 182.541 166.03 183.95 165.541 185.522L164.651 188.378L156.169 188.463C151.339 188.512 147.61 188.424 147.508 188.259ZM167.265 188.217C167.156 188.04 167.291 187.824 167.565 187.737C167.84 187.651 168.271 187.516 168.524 187.437C169.325 187.189 170.017 185.798 174.314 175.79C176.71 170.208 178.686 166.017 178.921 166.017C179.158 166.017 181.046 170.123 183.386 175.726C187.459 185.478 188.521 187.447 189.812 187.637C190.195 187.694 190.57 187.923 190.643 188.148C190.749 188.469 189.85 188.538 186.44 188.468C183.873 188.415 182.077 188.248 182.041 188.059C182.007 187.883 182.403 187.664 182.919 187.572C183.781 187.417 183.856 187.298 183.825 186.134C183.806 185.436 183.419 184.038 182.965 183.028L182.139 181.191H177.96H173.781L172.837 183.297C172.318 184.456 171.893 185.817 171.893 186.323C171.893 187.088 172.063 187.287 172.908 187.506C173.467 187.651 173.981 187.942 174.052 188.154C174.214 188.643 167.566 188.704 167.265 188.217ZM181.465 179.618C181.465 179.455 180.687 177.478 179.736 175.225C178.382 172.016 177.955 171.266 177.764 171.767C177.631 172.118 176.829 173.98 175.983 175.905C175.138 177.83 174.446 179.519 174.446 179.659C174.446 179.799 176.025 179.913 177.955 179.913C179.891 179.913 181.465 179.781 181.465 179.618ZM215.287 188.275C215.287 188.13 215.822 187.879 216.476 187.716C218.442 187.227 218.495 186.935 218.401 176.932C218.323 168.551 218.283 168.015 217.699 167.588C217.359 167.339 216.677 167.135 216.184 167.135C215.563 167.135 215.287 166.972 215.287 166.606C215.287 166.126 215.883 166.096 221.908 166.276C226.159 166.403 229.141 166.643 230.238 166.944C233.34 167.797 235.257 169.51 236.726 172.743C237.726 174.941 237.725 179.295 236.726 181.843C235.479 185.021 232.509 187.381 228.753 188.179C226.816 188.59 215.287 188.673 215.287 188.275ZM228.915 186.343C232.479 184.504 234.369 179.977 233.512 175.333C232.894 171.988 231.376 169.802 228.817 168.572C227.431 167.906 224.522 167.586 222.797 167.91L221.669 168.122V177.511V186.9L222.706 187.048C224.636 187.324 227.686 186.978 228.915 186.343ZM130.094 160.107C130.094 159.931 130.525 159.787 131.051 159.787C131.583 159.787 132.292 159.503 132.646 159.148C133.254 158.54 133.285 158.083 133.285 149.543C133.285 143.994 133.159 140.343 132.956 139.962C132.754 139.585 132.136 139.268 131.36 139.143C128.235 138.643 130.746 138.383 138.709 138.383H147.324V140.939C147.324 143.715 146.997 144.197 146.42 142.269C145.759 140.061 145.243 139.835 140.591 139.716L136.475 139.61V143.948V148.286H139.492C143.187 148.286 144.026 147.954 144.466 146.318C145.074 144.059 145.41 144.996 145.41 148.952C145.41 151.897 145.315 152.781 145.011 152.681C144.791 152.609 144.568 152.181 144.514 151.729C144.324 150.134 143.433 149.735 139.793 149.615L136.475 149.506V153.944C136.475 156.969 136.597 158.503 136.858 158.765C137.443 159.35 143.928 159.276 145.202 158.669C145.755 158.406 146.696 157.471 147.294 156.593C148.282 155.141 148.919 154.608 148.919 155.233C148.919 155.365 148.549 156.587 148.096 157.949L147.272 160.426H138.683C133.17 160.426 130.094 160.312 130.094 160.107ZM150.515 160.107C150.515 159.931 150.935 159.787 151.449 159.787C153.599 159.787 153.786 158.807 153.648 148.255C153.536 139.624 153.511 139.514 151.599 139.155C149.213 138.707 150.764 138.383 155.301 138.383C159.909 138.383 161.467 138.72 158.821 139.143C158.045 139.267 157.427 139.585 157.225 139.962C157.022 140.344 156.896 144.039 156.896 149.685C156.896 158.734 156.9 158.796 157.606 159.29C157.996 159.563 158.714 159.787 159.201 159.787C159.688 159.787 160.087 159.931 160.087 160.107C160.087 160.305 158.279 160.426 155.301 160.426C152.323 160.426 150.515 160.305 150.515 160.107ZM161.044 160.107C161.044 159.931 161.475 159.787 162.002 159.787C162.533 159.787 163.242 159.503 163.597 159.148C164.205 158.539 164.235 158.087 164.23 149.485C164.227 144.521 164.12 140.302 163.991 140.108C163.643 139.587 162.454 139.022 161.703 139.022C161.341 139.022 161.044 138.865 161.044 138.674C161.044 138.431 162.943 138.359 167.346 138.434C173.317 138.537 173.732 138.585 175.243 139.342C177.411 140.428 178.274 141.792 178.274 144.134C178.274 146.468 177.412 147.835 175.243 148.938C174.366 149.384 173.615 149.887 173.575 150.056C173.481 150.45 177.404 156.015 179.027 157.789C180.354 159.24 182.047 159.93 184.009 159.82C186.28 159.692 186.251 159.823 186.251 149.394C186.251 139.228 186.306 139.528 184.386 139.144C181.772 138.621 184.081 138.383 191.794 138.383H200.207L200.405 139.581C200.728 141.536 200.65 143.561 200.257 143.43C200.063 143.365 199.714 142.757 199.481 142.079C198.745 139.935 198.506 139.834 193.898 139.709L189.761 139.597V143.942V148.287H192.967C195.944 148.287 196.228 148.231 196.955 147.502C197.386 147.071 197.738 146.352 197.738 145.905C197.738 145.395 197.917 145.092 198.217 145.092C198.616 145.092 198.696 145.731 198.696 148.925C198.696 151.984 198.606 152.759 198.253 152.759C197.999 152.759 197.72 152.281 197.6 151.642C197.297 150.022 196.205 149.564 192.64 149.564H189.744L189.833 154.276L189.921 158.988L193.75 159.072C198.221 159.17 199.095 158.832 200.545 156.438C201.019 155.655 201.587 155.011 201.806 155.005C202.326 154.994 202.315 155.056 201.308 157.87L200.45 160.266L188.749 160.35L177.048 160.434L173.411 155.398C169.916 150.558 169.728 150.359 168.569 150.262L167.362 150.161L167.474 154.521C167.597 159.32 167.796 159.787 169.72 159.787C170.213 159.787 170.617 159.93 170.617 160.106C170.617 160.305 168.808 160.426 165.83 160.426C162.852 160.426 161.044 160.305 161.044 160.107ZM172.059 148.262C173.62 147.532 174.552 146.053 174.55 144.314C174.546 141.316 172.161 139.389 168.995 139.825L167.426 140.041V144.43C167.426 146.844 167.526 148.92 167.649 149.042C167.999 149.393 170.646 148.925 172.059 148.262ZM138.071 136.783C138.071 136.211 139.397 131.871 139.662 131.577C139.79 131.435 140.657 131.363 141.589 131.417L143.283 131.515L140.952 134.231C138.573 137.002 138.071 137.447 138.071 136.783Z" fill="#DDA46F"/>
<path d="M144.364 318.181C144.013 317.829 143.725 317.239 143.725 316.868C143.725 316.309 143.59 316.229 142.925 316.396C141.087 316.858 139.19 314.711 139.805 312.865C140.379 311.141 142.054 310.428 144.284 310.957L145.321 311.203V309.56C145.321 308.656 145.158 307.602 144.959 307.218C144.156 305.669 135.906 293.044 135.174 292.243C134.655 291.675 134.448 291.156 134.563 290.713C134.664 290.329 134.213 288.646 133.508 286.774C131.857 282.386 130.767 278.54 129.92 274.106C129.306 270.893 129.216 269.359 129.217 262.116C129.218 254.118 129.251 253.669 130.119 250.002C131.664 243.467 134.255 237.072 137.841 230.941C138.62 229.607 139.258 228.27 139.258 227.97C139.258 226.999 140.207 225.552 140.968 225.361C141.375 225.259 143.461 223.32 145.602 221.054C149.373 217.063 149.481 216.909 149.018 216.201C148.348 215.178 148.495 214.049 149.45 212.866C149.899 212.309 150.512 211.5 150.811 211.067C151.111 210.634 151.741 210.183 152.211 210.065C153.58 209.721 155.223 208.273 155.755 206.943C156.386 205.364 156.937 205.093 159.52 205.093C161.622 205.093 162.87 205.459 162.87 206.077C162.87 206.875 166.284 211.339 168.991 214.08C172.167 217.297 174.923 219.139 177.841 219.996C180.159 220.676 182.83 220.38 187.076 218.973C192.494 217.177 196.028 217.591 199.012 220.371C201.024 222.245 201.781 223.859 201.791 226.29C201.794 227.319 202.027 229.044 202.307 230.124C203.394 234.316 203.945 232.639 188.437 272.322C180.682 292.168 174.284 308.457 174.22 308.521C174.156 308.585 171.545 308.036 168.418 307.302L162.732 305.966L162.243 306.711C159.576 310.771 155.101 315.252 152.155 316.813C150.204 317.847 147.091 318.82 145.732 318.82C145.331 318.82 144.715 318.532 144.364 318.181ZM150.262 308.687C152.667 304.081 154.577 300.139 154.506 299.928C154.436 299.717 152.256 303.443 149.661 308.207C147.066 312.971 145.044 317.033 145.168 317.233C145.292 317.434 145.505 317.477 145.641 317.33C145.778 317.183 147.857 313.294 150.262 308.687ZM151.345 315.875C153.843 314.615 157.642 311.12 159.697 308.19L161.23 306.005L158.667 303.547C157.258 302.196 156.007 301.052 155.887 301.006C155.767 300.96 155.135 301.913 154.483 303.123C153.472 304.997 153.364 305.379 153.755 305.704C154.007 305.914 154.308 306.514 154.423 307.037C154.581 307.759 154.729 307.907 155.036 307.652C155.259 307.467 156.242 307.04 157.222 306.702C158.741 306.179 159.057 306.155 159.375 306.538C159.88 307.148 158.673 309.189 156.498 311.401C154.624 313.307 153.215 314.146 152.35 313.871C151.929 313.737 151.692 313.875 151.544 314.342C151.271 315.204 150.021 316.007 148.59 316.24C147.961 316.342 147.38 316.627 147.299 316.873C147.072 317.552 148.921 317.096 151.345 315.875ZM143.701 315.103C144.458 314.951 144.871 314.591 145.338 313.675C145.842 312.685 145.869 312.485 145.478 312.635C145.212 312.738 144.816 312.682 144.599 312.512C143.937 311.994 142.741 311.818 141.945 312.121C140.925 312.509 140.607 313.864 141.344 314.679C141.962 315.363 142.193 315.405 143.701 315.103ZM151.857 310.987C152.701 309.139 153.329 307.564 153.252 307.486C153.175 307.409 152.376 308.921 151.476 310.846C150.577 312.772 149.95 314.347 150.082 314.347C150.214 314.347 151.013 312.835 151.857 310.987ZM147.097 308.497C146.822 306.779 146.182 305.619 141.894 299.075C139.83 295.925 137.988 293.086 137.799 292.765C137.611 292.444 137.377 292.317 137.279 292.483C137.181 292.649 139.02 295.731 141.366 299.333C146.248 306.828 146.744 307.879 146.526 310.268L146.372 311.951L146.833 310.843C147.124 310.144 147.221 309.277 147.097 308.497ZM157.687 308.094C157.625 308.031 157.15 308.091 156.632 308.229C155.949 308.411 155.499 308.867 154.992 309.896C153.916 312.075 154.127 312.112 156.04 310.08C157.009 309.05 157.75 308.156 157.687 308.094ZM173.4 306.691C173.4 305.827 172.315 305.277 171.485 305.722C170.542 306.227 170.703 306.578 172.044 306.935C172.702 307.11 173.276 307.268 173.32 307.286C173.364 307.305 173.4 307.037 173.4 306.691ZM149.283 306.475C149.393 306.186 149.418 305.884 149.338 305.804C149.084 305.55 148.512 306.06 148.512 306.539C148.512 307.166 149.034 307.122 149.283 306.475ZM169.571 305.899C169.571 305.646 169.233 305.045 168.819 304.564C168.117 303.747 168.003 303.716 167.075 304.101C165.131 304.907 165.206 305.307 167.4 305.827C168.506 306.09 169.447 306.317 169.491 306.333C169.535 306.348 169.571 306.153 169.571 305.899ZM148.968 303.735C148.842 303.338 149.099 302.852 149.764 302.231C150.334 301.697 150.745 300.99 150.745 300.543C150.745 299.504 151.363 298.729 152.418 298.447L153.292 298.213L152.032 296.776L150.772 295.34L150.757 296.846C150.731 299.686 147.949 301.713 145.32 300.806L144.122 300.393L145.678 302.779C146.534 304.091 147.234 305.295 147.234 305.453C147.234 305.612 147.665 305.423 148.193 305.031C148.863 304.535 149.098 304.144 148.968 303.735ZM164.146 304.508C164.146 304.062 163.401 303.486 162.825 303.486C162.179 303.486 161.788 303.984 162.072 304.444C162.306 304.822 164.146 304.879 164.146 304.508ZM172.522 304.366C173.207 304.413 173.245 303.631 172.628 302.165L172.176 301.09L171.954 301.973C171.832 302.459 171.39 303.127 170.971 303.457C169.922 304.282 169.98 304.834 171.086 304.551C171.569 304.428 172.215 304.345 172.522 304.366ZM150.878 303.6C150.989 303.311 151.014 303.009 150.933 302.929C150.68 302.675 150.107 303.185 150.107 303.664C150.107 304.291 150.63 304.247 150.878 303.6ZM166.749 301.232C166.882 299.314 166.469 299.194 164.545 300.589C162.854 301.816 162.712 302.099 163.671 302.34C164.109 302.45 164.637 302.811 164.844 303.142C165.182 303.685 165.289 303.698 165.929 303.278C166.472 302.922 166.666 302.439 166.749 301.232ZM160.829 302.303C161.093 300.895 160.396 298.586 159.664 298.447C159.192 298.356 158.084 300.151 158.084 301.005C158.084 301.42 159.984 303.486 160.366 303.486C160.499 303.486 160.707 302.953 160.829 302.303ZM170.23 302.516C170.659 302.286 170.847 301.846 170.847 301.072C170.847 300.185 170.68 299.881 170.025 299.583C169.017 299.123 168.265 299.512 167.837 300.714C167.605 301.366 167.668 301.692 168.126 302.198C168.781 302.923 169.319 303.004 170.23 302.516ZM152.602 300.451C153.029 299.512 152.523 299.352 152.033 300.27C151.632 301.019 151.618 301.249 151.97 301.249C152.117 301.249 152.402 300.89 152.602 300.451ZM177.648 296.775C178.432 294.755 179.382 292.329 179.759 291.382L180.445 289.661L179.285 289.849C178.349 290.001 177.986 289.897 177.395 289.306L176.665 288.574L176.475 291.318C176.01 298.032 175.884 300.759 176.047 300.608C176.143 300.519 176.864 298.794 177.648 296.775ZM157.621 298.983C158.211 297.84 158.083 297.582 157.062 297.854C155.582 298.248 155.335 298.585 155.992 299.313C156.789 300.194 157.019 300.147 157.621 298.983ZM164.314 295.815C165.31 293.621 166.756 290.405 167.528 288.67L168.932 285.514L165.997 288.217C164.382 289.704 162.97 291.267 162.857 291.692C162.612 292.619 162.162 300.148 162.364 299.946C162.441 299.868 163.319 298.009 164.314 295.815ZM173.93 298.294C173.841 298.075 173.769 298.254 173.769 298.694C173.769 299.133 173.841 299.313 173.93 299.093C174.019 298.873 174.019 298.514 173.93 298.294ZM147.928 297.845C149.094 296.789 148.291 295.18 146.597 295.18C145.555 295.18 144.683 295.907 144.683 296.777C144.683 298.212 146.767 298.898 147.928 297.845ZM167.975 298.055L168.773 297.799L167.975 297.773C167.537 297.758 166.962 297.885 166.699 298.055C166.274 298.331 166.274 298.362 166.699 298.338C166.962 298.323 167.537 298.196 167.975 298.055ZM171.74 297.991C172.3 297.43 172.209 296.634 171.512 296.003C170.706 295.273 169.571 295.816 169.571 296.932C169.571 298.09 170.963 298.769 171.74 297.991ZM142.714 297.496C142.524 295.229 143.61 293.515 145.615 292.913C146.646 292.604 147.036 292.647 148.308 293.211L149.796 293.87L148.82 292.449C147.895 291.104 147.762 291.027 146.343 291.034C144.958 291.042 143.083 291.715 141.74 292.69C141.346 292.976 141.093 292.991 140.846 292.744C140.599 292.497 140.732 291.876 141.316 290.555C142.344 288.226 142.335 287.955 141.211 287.373L140.292 286.898L139.561 288.882C139.158 289.974 138.853 291.199 138.882 291.605C138.924 292.187 142.379 298.047 142.684 298.054C142.726 298.054 142.739 297.803 142.714 297.496ZM161.255 296.218L161.236 294.381L160.555 295.738C159.883 297.078 159.882 297.1 160.495 297.565C160.837 297.823 161.152 298.039 161.196 298.045C161.24 298.049 161.266 297.228 161.255 296.218ZM154.247 292.225L154.239 287.034L152.493 289.749C151.533 291.243 150.746 292.622 150.746 292.814C150.746 293.113 153.952 297.416 154.176 297.416C154.22 297.416 154.252 295.08 154.247 292.225ZM159.474 295.3C159.778 294.663 159.984 294.1 159.932 294.049C159.88 293.997 159.192 294.514 158.403 295.197L156.967 296.439L157.945 296.45C158.759 296.458 159.015 296.264 159.474 295.3ZM174.293 290.224L174.197 288.464L172.065 290.943C169.976 293.374 169.951 293.425 170.789 293.516C172.173 293.666 173.396 294.26 173.811 294.984C174.152 295.579 174.209 295.442 174.293 293.822C174.346 292.812 174.346 291.193 174.293 290.224ZM157.055 287.269L156.967 282.561L156.249 283.778C155.585 284.903 155.532 285.367 155.546 290.007L155.561 295.02L156.353 293.498C157.105 292.05 157.139 291.746 157.055 287.269ZM160.548 291.608C161.463 290.654 161.597 290.274 161.768 288.146L161.961 285.756L160.963 287.513C160.414 288.479 159.302 290.488 158.491 291.976L157.017 294.682L158.268 293.681C158.957 293.131 159.982 292.198 160.548 291.608ZM169.419 290.867C170.628 289.462 171.866 288.024 172.171 287.672C172.715 287.043 172.697 287.033 171.126 287.055L169.529 287.078L167.954 290.53C167.088 292.428 166.38 294.066 166.38 294.169C166.38 294.39 166.519 294.239 169.419 290.867ZM137.913 289.749L138.738 288.312L137.961 288.99C137.534 289.364 136.861 289.836 136.466 290.04C135.539 290.519 135.504 291.428 136.419 291.289C136.819 291.228 137.419 290.609 137.913 289.749ZM152.146 288.035L154.255 284.723V256.539V228.355L152.881 230.061C151.107 232.264 148.831 235.478 148.831 235.781C148.831 235.91 148.328 236.764 147.714 237.677C147.1 238.591 146.597 239.594 146.597 239.907C146.597 240.219 146.389 240.647 146.135 240.858C145.881 241.069 145.433 241.913 145.139 242.734C144.845 243.555 144.424 244.658 144.203 245.185C143.581 246.668 143.054 248.435 143.143 248.741C143.187 248.894 143.04 249.348 142.817 249.752C142.593 250.156 142.362 251.188 142.303 252.046C142.243 252.904 142.086 253.782 141.954 253.997C141.61 254.553 141.349 258.637 141.386 262.864C141.442 269.234 142.36 274.59 144.377 280.312C146.02 284.972 149.139 291.346 149.777 291.346C149.92 291.346 150.987 289.856 152.146 288.035ZM145.127 289.824C145.284 289.731 145.008 289.443 144.513 289.184C143.695 288.754 143.577 288.764 143.191 289.292C142.958 289.61 142.768 289.999 142.768 290.155C142.768 290.426 144.53 290.178 145.127 289.824ZM159.928 282.316L159.839 278.089L159.121 279.245C158.461 280.307 158.404 280.771 158.418 284.995L158.433 289.589L159.225 288.066C159.969 286.635 160.011 286.285 159.928 282.316ZM137.639 287.125C138.069 285.89 138.09 281.548 137.669 281.286C137.474 281.166 137.429 281.462 137.549 282.065C137.663 282.634 137.587 283.23 137.364 283.497C137.099 283.817 137.073 284.277 137.278 285.022C137.62 286.261 137.374 287.108 136.426 287.962C135.503 288.792 135.571 289.242 136.524 288.617C136.949 288.338 137.451 287.666 137.639 287.125ZM145.913 287.113L144.9 285.117L144.464 286.173C144.225 286.753 144.113 287.365 144.217 287.533C144.366 287.775 146.484 289.036 146.841 289.096C146.887 289.103 146.47 288.212 145.913 287.113ZM180.586 288.027C181.102 287.649 181.129 287.505 180.767 287.068C180.229 286.419 179.742 286.4 179.986 287.038C180.088 287.304 179.994 287.735 179.777 287.996C179.281 288.596 179.782 288.615 180.586 288.027ZM163.843 286.523C164.536 285.163 164.454 284.497 163.692 285.296C163.242 285.767 162.677 287.832 162.998 287.832C163.096 287.832 163.476 287.243 163.843 286.523ZM165.368 286.55C165.297 286.337 165.055 286.576 164.83 287.077C164.446 287.934 164.455 287.959 164.958 287.465C165.255 287.174 165.439 286.763 165.368 286.55ZM176.848 286.386C176.749 286.288 176.571 286.465 176.451 286.78C176.278 287.236 176.315 287.272 176.63 286.959C176.848 286.743 176.946 286.485 176.848 286.386ZM143.413 285.735C143.62 285.108 143.739 284.562 143.678 284.521C143.616 284.481 143.143 284.265 142.626 284.042C141.772 283.673 141.635 283.703 141.118 284.377C140.805 284.784 140.546 285.227 140.542 285.361C140.534 285.611 142.436 286.871 142.823 286.873C142.941 286.874 143.207 286.361 143.413 285.735ZM174.476 285.757C174.669 284.876 174.648 284.847 174.224 285.389C173.97 285.713 173.842 286.187 173.94 286.441C174.161 287.018 174.217 286.947 174.476 285.757ZM135.356 285.977C135.426 285.769 135.249 285.508 134.964 285.399C134.298 285.143 134.084 285.365 134.344 286.045C134.568 286.628 135.153 286.589 135.356 285.977ZM182.754 283.681C183.185 282.539 183.84 280.85 184.208 279.927C184.576 279.005 184.823 278.25 184.758 278.25C184.692 278.25 183.151 279.855 181.332 281.817C178.781 284.569 178.211 285.337 178.836 285.182C179.361 285.051 179.977 285.186 180.591 285.569C181.111 285.893 181.633 286.068 181.752 285.958C181.871 285.847 182.322 284.823 182.754 283.681ZM168.042 284.734C168.872 283.922 169.252 283.271 169.252 282.658C169.252 281.581 169.211 281.575 167.838 282.477C166.928 283.074 166.734 283.411 166.643 284.554C166.584 285.304 166.602 285.917 166.683 285.917C166.765 285.917 167.376 285.385 168.042 284.734ZM171.166 285.776C171.166 285.699 171.023 285.546 170.847 285.438C170.671 285.329 170.528 285.393 170.528 285.579C170.528 285.765 170.671 285.917 170.847 285.917C171.023 285.917 171.166 285.854 171.166 285.776ZM162.215 282.598C162.807 281.372 162.88 280.732 162.801 277.409L162.711 273.618L161.833 275.084C161.004 276.469 160.956 276.763 160.956 280.453C160.956 282.728 161.077 284.282 161.247 284.177C161.407 284.078 161.843 283.367 162.215 282.598ZM172.615 283.702C172.499 283.515 172.252 283.361 172.065 283.361C171.854 283.361 171.878 283.545 172.13 283.848C172.567 284.376 172.958 284.258 172.615 283.702ZM164.864 282.968C165.699 282.389 166.132 280.806 165.456 280.806C165.008 280.806 163.189 283.009 163.189 283.551C163.189 284.067 163.369 284.004 164.864 282.968ZM140.216 283.361C140.216 283.186 140.072 283.042 139.896 283.042C139.721 283.042 139.577 283.186 139.577 283.361C139.577 283.537 139.721 283.681 139.896 283.681C140.072 283.681 140.216 283.537 140.216 283.361ZM174.465 281.844C174.909 277.567 175.067 275.226 174.902 275.377C174.805 275.465 174.078 276.968 173.286 278.716L171.847 281.893L172.783 282.463C173.298 282.776 173.719 283.178 173.719 283.357C173.719 283.535 173.844 283.681 173.996 283.681C174.149 283.681 174.36 282.854 174.465 281.844ZM181.858 277.667C181.799 277.608 181.46 277.715 181.106 277.905C180.052 278.47 178.935 278.302 177.891 277.423L176.91 276.596L176.887 277.663C176.876 278.249 176.761 279.866 176.635 281.255L176.406 283.781L179.186 280.778C180.715 279.126 181.917 277.726 181.858 277.667ZM143.866 282.281C143.622 281.31 143.249 281.212 142.806 282.004C142.562 282.44 142.646 282.645 143.189 282.936C144.053 283.4 144.128 283.327 143.866 282.281ZM134.993 282.727C135.192 282.724 135.423 282.461 135.507 282.141C135.639 281.635 135.51 281.584 134.51 281.747C133.731 281.874 133.325 282.126 133.247 282.533C133.153 283.024 133.27 283.097 133.882 282.932C134.294 282.822 134.794 282.729 134.993 282.727ZM156.457 281.267C157.123 280.136 157.127 279.985 157.127 252.779V225.428L156.329 226.178L155.531 226.929V254.666C155.531 269.921 155.589 282.403 155.659 282.403C155.73 282.403 156.089 281.892 156.457 281.267ZM141.959 281.255C142.587 280.297 142.63 280.373 141.118 279.746C140.028 279.294 139.909 279.302 139.404 279.861C138.752 280.583 138.982 281.353 139.969 281.75C141.107 282.207 141.381 282.139 141.959 281.255ZM171.892 279.047C172.51 277.641 173.468 275.493 174.02 274.272C175.151 271.774 175.139 271.776 172.044 274.711L170.528 276.148V279.008C170.528 280.582 170.582 281.809 170.648 281.736C170.714 281.662 171.274 280.453 171.892 279.047ZM169.252 279.302C169.252 278.329 169.2 278.362 168.475 279.787C167.944 280.833 167.945 280.843 168.594 280.495C169.002 280.276 169.252 279.824 169.252 279.302ZM137.062 278.829C136.501 277.112 135.692 272.598 135.268 268.824C135.051 266.892 134.855 265.775 134.832 266.342C134.787 267.479 134.483 267.63 131.944 267.782C131.168 267.828 130.477 268.038 130.408 268.249C130.315 268.532 130.847 268.584 132.467 268.448L134.651 268.264L135.208 271.739C135.798 275.423 137 280.297 137.255 280.041C137.339 279.957 137.252 279.412 137.062 278.829ZM165.398 273.137L165.402 269.463L164.616 270.741C163.893 271.917 163.831 272.325 163.843 275.852L163.854 279.686L164.623 278.248C165.306 276.97 165.394 276.403 165.398 273.137ZM133.515 279.066C133.515 278.729 132.903 278.587 132.721 278.882C132.61 279.061 132.743 279.207 133.017 279.207C133.291 279.207 133.515 279.143 133.515 279.066ZM142.437 278.205C142.279 277.654 142.077 277.13 141.988 277.041C141.786 276.839 140.854 277.592 140.854 277.958C140.854 278.16 142.226 279.096 142.666 279.194C142.696 279.202 142.595 278.756 142.437 278.205ZM169.51 273.479L169.411 271.788L167.656 275.059C166.691 276.858 165.85 278.491 165.786 278.688C165.723 278.886 166.557 278.175 167.64 277.108L169.608 275.17L169.51 273.479ZM134.959 277.595C135.073 277.412 134.982 277.04 134.756 276.768C134.389 276.325 134.305 276.331 133.941 276.829C133.718 277.134 133.611 277.507 133.704 277.657C133.937 278.035 134.711 277.998 134.959 277.595ZM159.998 250.988V226.25L159.201 225.727L158.403 225.204V251.64V278.077L159.201 276.902L159.998 275.727V250.988ZM139.951 277.081C140.762 276.346 140.68 275.938 139.599 275.322C138.721 274.822 138.637 274.825 138.137 275.379C137.514 276.068 137.745 277.179 138.555 277.392C138.854 277.471 139.159 277.552 139.233 277.573C139.307 277.591 139.63 277.372 139.951 277.081ZM133.013 276.118C133.284 275.41 132.684 274.799 132.196 275.288C131.806 275.679 132.032 276.651 132.514 276.651C132.676 276.651 132.9 276.411 133.013 276.118ZM178.472 275.587C178.161 274.906 178.191 274.614 178.639 273.93C179.154 273.143 179.151 273.051 178.584 272.154L177.986 271.208L177.963 273.371C177.952 274.56 178.079 275.797 178.249 276.119C178.713 277 178.905 276.54 178.472 275.587ZM181.217 275.054C181.217 274.468 181.025 274.228 180.498 274.153C179.714 274.041 179.268 274.727 179.586 275.555C179.701 275.856 180.066 276.016 180.498 275.955C181.025 275.88 181.217 275.639 181.217 275.054ZM141.281 273.679C141.176 273.03 140.987 272.498 140.861 272.498C140.566 272.498 139.434 273.747 139.606 273.884C140.2 274.355 141.311 275.022 141.383 274.95C141.432 274.901 141.386 274.329 141.281 273.679ZM134.153 273.954C134.153 273.446 133.574 272.971 133.295 273.251C133.033 273.513 133.442 274.415 133.824 274.415C134.005 274.415 134.153 274.208 134.153 273.954ZM168.602 267.706L168.601 264.352L167.65 265.868C166.746 267.309 166.699 267.556 166.704 270.82L166.708 274.255L167.655 272.658C168.542 271.159 168.602 270.853 168.602 267.706ZM162.79 249.536L162.71 228.011L161.992 227.534L161.275 227.057L161.286 250.337L161.297 273.616L162.085 272.338L162.872 271.06L162.79 249.536ZM185.752 272.583C186.521 272.08 186.527 272.05 185.911 271.822C185.559 271.691 185.176 271.431 185.06 271.243C184.631 270.549 183.929 270.892 183.929 271.795C183.929 272.287 183.75 272.881 183.53 273.114C183.202 273.464 183.293 273.501 184.042 273.323C184.543 273.205 185.313 272.872 185.752 272.583ZM139.436 272.159L140.372 271.181L139.576 270.569C138.558 269.786 138.341 269.793 137.444 270.637C136.518 271.508 136.513 271.966 137.425 272.602C138.386 273.273 138.367 273.277 139.436 272.159ZM173.653 271.659C173.704 271.636 173.526 271.534 173.256 271.43C172.924 271.303 172.599 271.573 172.245 272.269L171.723 273.297L172.641 272.498C173.146 272.059 173.601 271.681 173.653 271.659ZM132.376 272.534C132.472 272.378 132.349 272.084 132.104 271.88C131.607 271.467 131.098 271.941 131.441 272.498C131.685 272.894 132.143 272.91 132.376 272.534ZM182.355 272.487C182.694 272.305 182.972 271.95 182.972 271.699C182.972 271.245 182.041 270.581 181.404 270.581C180.85 270.581 180.591 272.208 181.094 272.527C181.651 272.88 181.619 272.881 182.355 272.487ZM171.314 271.562C171.791 270.639 171.661 268.332 171.163 268.884C170.907 269.169 170.474 272.498 170.694 272.498C170.769 272.498 171.048 272.077 171.314 271.562ZM132.845 270.242C132.227 269.859 132.076 270.159 132.58 270.768C132.888 271.139 133.051 271.177 133.143 270.899C133.215 270.683 133.081 270.388 132.845 270.242ZM179.781 270.759C179.781 270.505 180.054 270.107 180.387 269.873C180.936 269.488 180.881 269.449 179.791 269.449C178.616 269.449 178.596 269.467 178.897 270.334C179.223 271.27 179.781 271.538 179.781 270.759ZM187.439 269.932C187.439 269.082 186.564 268.765 185.941 269.389C185.315 270.016 185.656 270.581 186.66 270.581C187.23 270.581 187.439 270.407 187.439 269.932ZM175.825 269.176C176.421 268.578 176.91 267.954 176.91 267.789C176.91 267.535 175.576 266.748 175.145 266.748C174.996 266.748 173.4 269.806 173.4 270.091C173.4 270.663 174.908 270.093 175.825 269.176ZM137.162 268.948C136.84 268.426 136.387 268.657 136.387 269.342C136.387 269.907 136.467 269.954 136.862 269.626C137.123 269.409 137.258 269.103 137.162 268.948ZM140.409 268.112C140.311 268.014 139.999 268.127 139.716 268.362C139.245 268.754 139.251 268.827 139.788 269.224C140.307 269.606 140.387 269.577 140.481 268.973C140.539 268.598 140.507 268.21 140.409 268.112ZM184.555 269.159C185.062 268.547 184.698 267.471 183.897 267.217C183.547 267.105 183.052 267.187 182.797 267.399C182.321 267.795 182.167 269.03 182.546 269.41C182.926 269.79 184.16 269.635 184.555 269.159ZM164.754 268.235C165.4 267.187 165.414 266.799 165.428 248.351C165.443 230.909 165.401 229.507 164.893 229.134C164.591 228.913 164.227 228.732 164.085 228.732C163.943 228.732 163.827 237.861 163.827 249.018C163.827 260.175 163.887 269.303 163.961 269.303C164.034 269.303 164.391 268.823 164.754 268.235ZM173.384 267.417C173.956 266.295 173.968 266.15 173.504 265.972C172.821 265.71 172.738 265.829 172.533 267.36C172.314 268.997 172.571 269.014 173.384 267.417ZM171.471 262.76L171.486 259.891L170.688 261.066C169.968 262.127 169.892 262.546 169.905 265.373L169.92 268.505L170.689 267.067C171.333 265.863 171.459 265.164 171.471 262.76ZM180.726 267.881C181.227 267.276 181.046 266.427 180.32 265.983C179.498 265.481 178.357 266.833 178.84 267.736C179.226 268.458 180.186 268.532 180.726 267.881ZM138.875 267.642C139.445 267.072 139.33 266.655 138.419 265.99C137.612 265.401 137.589 265.402 136.913 266.084L136.227 266.776L137.025 267.394C137.957 268.115 138.35 268.168 138.875 267.642ZM187.753 267.307C187.742 265.904 187.288 265.664 186.326 266.556C185.421 267.396 185.463 267.478 186.96 267.81C187.311 267.888 187.634 267.968 187.678 267.989C187.722 268.007 187.756 267.702 187.753 267.307ZM133.515 265.885C133.515 265.463 133.43 265.427 133.132 265.726C132.223 266.636 130.863 265.759 131.198 264.477C131.394 263.727 132.454 263.389 133.052 263.885C133.448 264.215 133.515 263.983 133.515 262.271V260.272L132.857 261.11C132.495 261.571 131.741 262.066 131.182 262.211C130.191 262.466 130.162 262.525 130.07 264.451L129.975 266.428H131.745C133.198 266.428 133.515 266.331 133.515 265.885ZM177.862 264.131C177.865 263.307 177.728 262.547 177.559 262.442C177.39 262.337 176.892 262.962 176.452 263.83C175.633 265.449 175.698 265.786 176.909 266.178C177.596 266.4 177.856 265.84 177.862 264.131ZM182.732 264.911C182.912 263.47 182.882 263.423 181.95 263.672C180.385 264.089 180.25 264.395 181.245 265.271C181.756 265.721 182.266 266.093 182.379 266.099C182.491 266.102 182.65 265.57 182.732 264.911ZM140.216 264.645C140.216 263.445 139.754 263.291 139.129 264.283C138.87 264.693 138.937 264.923 139.425 265.292C139.772 265.554 140.092 265.774 140.136 265.779C140.179 265.783 140.216 265.274 140.216 264.645ZM185.799 265.364C186.349 264.701 185.506 263.734 184.623 264.015C183.602 264.339 183.655 265.789 184.688 265.789C185.105 265.789 185.605 265.598 185.799 265.364ZM136.45 264.128C136.153 263.83 136.068 263.915 136.068 264.512C136.068 265.108 136.153 265.193 136.45 264.895C136.748 264.597 136.748 264.426 136.45 264.128ZM167.785 263.417L168.613 262.002V246.496C168.613 231.494 168.595 230.98 167.996 230.66C167.657 230.478 167.226 230.33 167.039 230.33C166.803 230.33 166.699 235.584 166.699 247.581C166.699 257.068 166.757 264.831 166.828 264.831C166.899 264.831 167.33 264.195 167.785 263.417ZM175.33 263.522C175.697 262.802 175.92 262.136 175.826 262.042C175.542 261.759 173.336 264.15 173.554 264.503C173.973 265.181 174.685 264.788 175.33 263.522ZM134.697 262.195C134.621 261.8 134.559 262.124 134.559 262.914C134.559 263.705 134.621 264.028 134.697 263.633C134.774 263.238 134.774 262.591 134.697 262.195ZM138.947 262.746L139.705 261.938L138.856 261.088C138.084 260.316 137.933 260.277 137.213 260.662C136.085 261.267 135.941 261.939 136.752 262.804C137.645 263.755 138.01 263.745 138.947 262.746ZM173.532 261.756C174.217 260.528 174.357 259.867 174.357 257.848V255.418L173.482 256.69C172.739 257.772 172.591 258.357 172.493 260.598C172.429 262.048 172.451 263.234 172.542 263.234C172.633 263.234 173.078 262.569 173.532 261.756ZM186.641 261.775C186.641 260.652 185.733 260.332 185.228 261.276C184.965 261.767 185.005 262.03 185.403 262.428C186.12 263.147 186.641 262.872 186.641 261.775ZM184.486 260.28C185.107 259.585 184.796 259.537 184.111 260.223C183.835 260.499 183.629 261.11 183.653 261.58L183.697 262.436L183.842 261.637C183.922 261.198 184.212 260.587 184.486 260.28ZM193.956 254.25C193.861 254.096 193.593 253.97 193.362 253.97C193.131 253.97 192.764 253.756 192.547 253.495C192.33 253.233 192.046 253.085 191.916 253.165C191.786 253.246 191.58 254.79 191.459 256.596C191.338 258.402 191.169 260.455 191.085 261.158C190.973 262.08 191.375 261.336 192.529 258.483C193.409 256.308 194.051 254.404 193.956 254.25ZM179.091 259.401C179.11 258.702 179.035 258.754 178.471 259.824C177.932 260.846 177.896 261.128 178.246 261.551C178.614 261.996 178.688 261.946 178.866 261.128C178.977 260.618 179.078 259.84 179.091 259.401ZM140.216 259.709C140.216 258.826 140.156 258.771 139.551 259.096C138.917 259.435 138.912 259.48 139.441 260.065C140.169 260.871 140.216 260.85 140.216 259.709ZM176.916 260.192C177.532 259.448 177.093 259.308 176.433 260.038C176.114 260.39 176.002 260.679 176.183 260.679C176.364 260.679 176.694 260.46 176.916 260.192ZM183.008 254.29C183.237 253.668 182.985 253.823 181.861 254.99C180.669 256.229 180.419 256.7 180.415 257.705C180.412 258.374 180.338 259.281 180.25 259.721C180.097 260.48 182.385 255.974 183.008 254.29ZM189.127 257.005L189.305 253.811L187.425 255.887C186.392 257.029 185.541 258.06 185.535 258.178C185.527 258.296 186.01 258.553 186.603 258.749C187.196 258.945 187.937 259.389 188.249 259.735C188.562 260.081 188.847 260.327 188.883 260.282C188.917 260.237 189.028 258.762 189.127 257.005ZM131.226 258.821C131.283 258.418 131.147 257.866 130.922 257.596C130.558 257.157 130.488 257.167 130.282 257.693C130.154 258.017 130.04 258.617 130.027 259.025C129.997 260.022 131.082 259.838 131.226 258.821ZM135.906 252.3C136.18 250.943 136.91 248.375 137.529 246.594C138.148 244.813 138.578 243.28 138.485 243.187C138.283 242.984 138.178 243.246 137.02 246.856C136.509 248.448 135.927 249.698 135.67 249.75C135.422 249.801 134.4 249.716 133.4 249.558C132.301 249.385 131.509 249.389 131.399 249.565C131.127 250.006 131.284 250.071 133.485 250.426C134.601 250.606 135.557 250.796 135.609 250.849C135.662 250.901 135.5 252.308 135.25 253.974C135 255.641 134.814 257.651 134.836 258.442C134.866 259.461 134.953 259.136 135.142 257.324C135.289 255.918 135.632 253.658 135.906 252.3ZM136.843 259.437C136.939 259.281 136.804 258.976 136.543 258.759C136.147 258.431 136.067 258.478 136.067 259.043C136.067 259.728 136.521 259.959 136.843 259.437ZM170.821 258.645C171.465 257.601 171.485 257.181 171.485 244.588V231.608H170.688H169.89V245.664C169.89 253.395 169.95 259.721 170.023 259.721C170.097 259.721 170.456 259.236 170.821 258.645ZM139.258 257.811L140.056 257.193L139.361 256.492C138.735 255.86 138.569 255.831 137.686 256.197C136.575 256.658 136.476 257.021 137.234 257.859C137.898 258.593 138.259 258.584 139.258 257.811ZM176.682 255.944C176.894 255.437 177.019 254.196 176.958 253.185L176.847 251.347L176.09 252.579C175.489 253.559 175.332 254.266 175.324 256.038C175.317 258.131 175.343 258.223 175.804 257.565C176.074 257.18 176.468 256.45 176.682 255.944ZM187.441 252.978L188.377 251.827L187.509 251.838C187.032 251.846 186.414 251.745 186.136 251.618C185.734 251.434 185.342 252.02 184.221 254.482C183.446 256.184 182.768 257.736 182.715 257.93C182.608 258.317 185.948 254.818 187.441 252.978ZM179.657 254.375C179.767 253.785 179.797 253.241 179.722 253.166C179.648 253.091 179.035 254.068 178.36 255.337L177.134 257.644L178.295 256.546C178.991 255.888 179.536 255.019 179.657 254.375ZM133.952 255.421C134.114 254.181 134.075 253.921 133.773 254.223C133.19 254.807 132.303 254.687 131.92 253.97C131.247 252.711 132.748 251.413 133.734 252.401C133.984 252.651 134.145 252.645 134.309 252.378C134.628 251.862 134.508 251.802 132.678 251.559C131.159 251.357 131.042 251.391 130.854 252.097C130.743 252.512 130.65 253.304 130.648 253.858C130.644 254.686 130.81 254.923 131.577 255.191C132.091 255.37 132.756 255.892 133.056 256.35C133.356 256.808 133.634 257.143 133.673 257.094C133.712 257.044 133.837 256.292 133.952 255.421ZM140.535 255.07C140.535 254.796 140.389 254.662 140.21 254.772C140.032 254.882 139.969 255.106 140.07 255.27C140.343 255.713 140.535 255.631 140.535 255.07ZM174.208 252.852C174.304 252.325 174.34 247.437 174.289 241.991L174.197 232.087L173.32 231.986L172.442 231.885L172.454 243.806L172.465 255.727L173.25 254.769C173.681 254.242 174.113 253.379 174.208 252.852ZM137.663 254.774C137.663 254.726 137.447 254.509 137.184 254.29C136.785 253.958 136.706 254.003 136.706 254.56C136.706 255.023 136.853 255.172 137.184 255.044C137.448 254.943 137.663 254.821 137.663 254.774ZM140.005 253.504C140.642 253.021 140.524 252.069 139.747 251.423C139.408 251.142 139.074 251.174 138.324 251.563C137.157 252.167 137.139 252.273 138.038 253.231C138.833 254.079 139.184 254.128 140.005 253.504ZM180.037 247.958L179.941 246.463L179.063 247.929C178.362 249.1 178.189 249.773 178.201 251.283L178.216 253.172L179.174 251.312C179.919 249.868 180.112 249.119 180.037 247.958ZM184.13 250.546C184.371 249.981 184.56 249.118 184.551 248.63C184.54 247.902 184.31 248.176 183.291 250.137C182.606 251.455 182.039 252.666 182.03 252.828C182 253.405 183.7 251.557 184.13 250.546ZM182.31 249.338C182.312 249.162 182.03 249.357 181.685 249.773C181.34 250.188 181.063 250.835 181.071 251.21C181.082 251.765 181.199 251.684 181.696 250.776C182.032 250.161 182.308 249.514 182.31 249.338ZM176.908 240.358L176.91 231.697L176.112 231.85L175.314 232.002L175.326 241.789L175.337 251.575L176.123 250.297C176.908 249.021 176.906 249.002 176.908 240.358ZM141.412 250.27C141.108 249.965 140.498 250.458 140.725 250.826C140.86 251.044 141.038 251.038 141.267 250.811C141.455 250.622 141.52 250.378 141.412 250.27ZM196.47 248.539C196.904 247.397 197.574 245.672 197.96 244.706C198.345 243.74 198.562 243.047 198.443 243.166C197.595 244.014 193.193 249.386 193.188 249.578C193.185 249.709 193.442 249.817 193.76 249.817C194.077 249.817 194.615 250.021 194.956 250.27C195.296 250.519 195.598 250.699 195.628 250.67C195.658 250.64 196.036 249.682 196.47 248.539ZM138.615 249.703C138.608 249.242 137.995 248.267 137.983 248.699C137.979 248.875 137.886 249.344 137.78 249.742C137.626 250.318 137.692 250.425 138.103 250.267C138.388 250.158 138.618 249.904 138.615 249.703ZM141.482 248.408C141.478 248.217 141.273 247.797 141.029 247.476C140.67 247.001 140.462 246.958 139.923 247.248C139.163 247.655 139.104 247.981 139.634 248.831C139.942 249.325 140.143 249.372 140.751 249.094C141.158 248.908 141.487 248.6 141.482 248.408ZM190.098 244.546C190.194 242.614 190.204 241.248 190.117 241.511C190.032 241.775 189.411 243.141 188.737 244.546C187.663 246.788 187.577 247.127 188.044 247.306C188.337 247.418 188.773 247.747 189.014 248.038C189.255 248.329 189.558 248.453 189.687 248.314C189.816 248.174 190.002 246.479 190.098 244.546ZM132.877 247.741C132.658 247.477 132.354 247.262 132.2 247.262C132.045 247.262 131.92 247.477 131.92 247.741C131.92 248.016 132.208 248.22 132.597 248.22C133.163 248.22 133.209 248.141 132.877 247.741ZM187.096 245.185C187.098 245.009 186.816 245.204 186.471 245.62C186.126 246.035 185.85 246.682 185.857 247.057C185.868 247.612 185.985 247.531 186.482 246.623C186.818 246.008 187.094 245.361 187.096 245.185ZM134.752 246.973C135.26 246.651 134.963 245.984 134.313 245.984C133.765 245.984 133.411 246.515 133.675 246.942C133.915 247.331 134.176 247.339 134.752 246.973ZM142.535 246.327C142.648 245.896 142.565 245.763 142.253 245.882C142.01 245.976 141.811 246.252 141.811 246.497C141.811 247.161 142.351 247.035 142.535 246.327ZM180.1 237.507C180.1 233.911 180.038 230.969 179.962 230.969C179.885 230.969 179.454 231.109 179.004 231.281L178.186 231.593V239.33V247.067L179.143 245.556L180.1 244.045L180.1 237.507ZM182.911 243.187L182.812 241.991L182.094 243.146C181.633 243.89 181.377 244.802 181.379 245.702L181.382 247.102L182.196 245.742C182.77 244.784 182.981 244.03 182.911 243.187ZM194.772 242.747C194.234 242.636 193.513 242.29 193.169 241.979C192.826 241.667 192.534 241.542 192.522 241.701C192.51 241.86 192.396 243.128 192.269 244.519L192.04 247.048L193.894 244.998L195.749 242.949L194.772 242.747ZM139.737 245.984C139.845 245.808 139.836 245.505 139.714 245.311C139.5 244.963 138.954 245.496 138.943 246.064C138.935 246.414 139.507 246.357 139.737 245.984ZM184.795 244.432C185.527 242.678 184.998 242.908 184.067 244.75C183.411 246.045 183.341 246.34 183.776 245.979C184.09 245.718 184.549 245.022 184.795 244.432ZM133.482 245.053C133.727 244.897 133.839 244.54 133.731 244.259C133.522 243.714 132.877 243.549 132.877 244.041C132.877 244.202 132.79 244.562 132.683 244.84C132.469 245.398 132.798 245.486 133.482 245.053ZM142.301 244.509C143.13 243.966 143.255 243.549 142.803 242.834C142.574 242.472 142.336 242.469 141.372 242.819C140.13 243.269 140.035 243.452 140.546 244.408C140.948 245.161 141.28 245.179 142.301 244.509ZM136.004 243.175C135.884 242.556 135.406 242.394 134.812 242.77C134.44 243.005 134.43 243.152 134.755 243.545C135.24 244.13 136.137 243.864 136.004 243.175ZM188.593 241.635C188.689 241.252 188.72 240.621 188.662 240.234C188.581 239.697 188.309 240.032 187.516 241.65L186.476 243.771L187.447 243.052C187.981 242.657 188.497 242.019 188.593 241.635ZM139.751 240.97C140.56 239.139 140.583 238.313 139.827 238.322C139.507 238.325 139.511 238.386 139.842 238.597C140.18 238.811 140.064 239.271 139.279 240.828C138.735 241.907 138.438 242.789 138.618 242.789C138.798 242.789 139.309 241.97 139.751 240.97ZM137.603 241.345C137.316 241.057 136.647 241.796 136.869 242.156C137.052 242.452 137.19 242.415 137.417 242.008C137.585 241.708 137.668 241.41 137.603 241.345ZM144.166 241.974C144.275 241.689 144.222 241.561 144.041 241.673C143.867 241.781 143.725 242.004 143.725 242.169C143.725 242.628 143.954 242.527 144.166 241.974ZM185.059 240.526C185.511 239.633 185.835 238.591 185.779 238.21C185.692 237.628 185.542 237.746 184.833 238.956C184.135 240.144 183.69 242.15 184.123 242.15C184.186 242.15 184.607 241.42 185.059 240.526ZM134.888 240.663C134.709 240.197 134.645 240.204 134.261 240.729C133.649 241.568 133.734 241.907 134.46 241.518C134.859 241.304 135.014 240.994 134.888 240.663ZM182.97 234.733L182.972 230.031L182.254 230.297C181.55 230.557 181.535 230.674 181.462 236.277L181.388 241.991L182.179 240.713C182.926 239.505 182.969 239.179 182.97 234.733ZM141.811 241.051C141.811 240.798 141.667 240.502 141.492 240.393C141.316 240.285 141.173 240.265 141.173 240.348C141.173 240.432 141.085 240.728 140.979 241.006C140.852 241.338 140.96 241.512 141.298 241.512C141.58 241.512 141.811 241.304 141.811 241.051ZM137.025 239.739C137.025 239.139 136.395 238.819 135.997 239.218C135.521 239.695 135.94 240.582 136.534 240.354C136.804 240.25 137.025 239.973 137.025 239.739ZM144.803 239.915C144.957 239.764 144.993 239.283 144.883 238.845C144.685 238.055 144.674 238.052 143.431 238.541C142.264 239 142.203 239.086 142.534 239.813C142.82 240.442 143.046 240.553 143.706 240.39C144.155 240.279 144.649 240.065 144.803 239.915ZM195.735 240.074C196.071 239.669 196.003 239.595 195.295 239.595C194.487 239.595 194.231 239.899 194.671 240.34C195.002 240.67 195.303 240.595 195.735 240.074ZM190.949 236.484C190.949 236.395 190.733 236.499 190.47 236.719C190.207 236.938 189.997 237.495 190.004 237.956C190.015 238.76 190.038 238.75 190.483 237.721C190.739 237.13 190.949 236.573 190.949 236.484ZM199.58 238.149C200.706 237.566 200.775 237.032 199.803 236.424C198.827 235.814 198.85 235.805 198.741 236.823C198.689 237.32 198.475 237.931 198.268 238.181C197.753 238.802 198.346 238.789 199.58 238.149ZM138.939 237.997C138.676 237.827 138.317 237.687 138.142 237.687C137.966 237.687 138.038 237.827 138.301 237.997C138.564 238.167 138.923 238.307 139.099 238.307C139.274 238.307 139.202 238.168 138.939 237.997ZM197.6 236.887C197.751 236.121 197.203 235.657 196.435 235.901C195.607 236.164 195.328 236.917 195.76 237.724C196.068 238.301 196.169 238.318 196.796 237.902C197.178 237.649 197.539 237.192 197.6 236.887ZM146.278 237.678C146.278 237.502 146.215 237.358 146.137 237.358C146.06 237.358 145.908 237.502 145.799 237.678C145.691 237.854 145.754 237.997 145.94 237.997C146.126 237.997 146.278 237.854 146.278 237.678ZM137.344 237.358C137.08 237.188 136.722 237.048 136.546 237.048C136.371 237.048 136.443 237.188 136.706 237.358C136.969 237.528 137.328 237.668 137.503 237.668C137.679 237.668 137.607 237.529 137.344 237.358ZM185.032 236.292C185.742 235.08 185.844 234.538 185.844 231.979C185.844 229.655 185.75 229.052 185.388 229.052C184.199 229.052 183.929 229.941 183.929 233.867C183.929 235.963 183.995 237.678 184.075 237.678C184.156 237.678 184.586 237.054 185.032 236.292ZM143.54 237.164C144.081 236.956 144.22 236.227 143.772 235.949C143.622 235.857 143.338 236.136 143.141 236.569C142.753 237.421 142.777 237.457 143.54 237.164ZM139.737 236.16C139.737 235.325 139.662 235.282 138.221 235.282C136.385 235.282 136.416 235.655 138.316 236.426C139.098 236.743 139.737 237.011 139.737 237.021L139.737 236.16ZM189.009 233.234C189.903 231.58 190.585 230.179 190.526 230.119C190.321 229.914 186.801 235.757 186.801 236.301C186.801 237.13 187.214 236.556 189.009 233.234ZM143.074 233.429C143.093 232.268 142.361 230.878 141.29 230.034C140.193 229.171 139.953 229.416 140.817 230.516C141.552 231.451 141.691 232.875 141.148 233.892C140.881 234.39 140.918 234.663 141.307 235.094C141.584 235.401 141.817 235.856 141.824 236.106C141.847 236.935 143.06 234.34 143.074 233.429ZM146.45 236.017C147.163 235.692 147.261 235.49 147.1 234.682C146.847 233.416 146.774 233.374 145.65 233.84C144.583 234.282 144.542 234.391 144.994 235.58C145.353 236.526 145.341 236.523 146.45 236.017ZM194.365 235.211C193.81 234.655 193.659 234.967 194.022 235.916C194.166 236.292 194.323 236.344 194.567 236.099C194.811 235.855 194.754 235.6 194.365 235.211ZM201.319 235.1C201.319 234.853 201.068 234.603 200.76 234.544C200.21 234.438 199.983 235.116 200.421 235.555C200.756 235.889 201.319 235.604 201.319 235.1ZM198.766 234.004C198.766 233.302 198.053 233.049 197.351 233.501C196.966 233.749 196.961 233.878 197.321 234.313C197.884 234.992 198.766 234.803 198.766 234.004ZM193.193 232.221C193.403 231.714 193.481 231.056 193.367 230.759C193.215 230.362 192.907 230.751 192.214 232.219C191.694 233.32 191.268 234.305 191.268 234.408C191.268 234.851 192.847 233.058 193.193 232.221ZM149.462 232.486C149.473 232.126 149.02 232.197 148.396 232.655C148.027 232.924 147.915 233.262 148.065 233.652C148.275 234.2 148.332 234.188 148.873 233.484C149.193 233.067 149.458 232.618 149.462 232.486ZM195.848 232.721C195.602 232.077 194.869 231.911 194.46 232.405C194.186 232.735 194.187 233.016 194.462 233.531C194.807 234.176 194.863 234.185 195.42 233.681C195.745 233.386 195.938 232.954 195.848 232.721ZM188.589 230.684C189.448 229.297 190.618 227.841 191.188 227.448C192.453 226.576 192.486 226.301 191.351 226.084C190.367 225.896 189.724 226.173 187.997 227.528C186.806 228.462 186.801 228.478 186.801 230.836C186.801 232.139 186.852 233.205 186.914 233.205C186.976 233.205 187.73 232.071 188.589 230.684ZM201.159 232.896C201.159 232.726 200.944 232.669 200.681 232.77C200.417 232.871 200.202 233.01 200.202 233.079C200.202 233.148 200.418 233.205 200.681 233.205C200.944 233.205 201.159 233.066 201.159 232.896ZM139.258 232.425C139.258 232.172 139.115 231.876 138.939 231.768C138.764 231.659 138.62 231.639 138.62 231.723C138.62 231.806 138.533 232.102 138.426 232.38C138.299 232.712 138.407 232.886 138.745 232.886C139.027 232.886 139.258 232.679 139.258 232.425ZM145.801 232.444C146.376 232.024 146.381 231.918 145.898 230.184C145.277 227.949 145.678 227.603 147.381 228.903C148.049 229.413 149.072 229.832 149.869 229.92C151 230.046 151.342 229.943 151.941 229.301L152.659 228.532L150.795 228.667C149.074 228.792 148.846 228.726 147.804 227.81C146.385 226.563 145.823 225.244 146.095 223.796C146.715 220.483 150.697 219.083 153.288 221.266L154.255 222.081V221.356C154.255 220.957 153.658 219.713 152.928 218.592L151.601 216.552L149.553 218.569C148.427 219.679 146.506 221.689 145.285 223.037L143.065 225.487L143.853 226.275C144.787 227.211 145.131 228.759 144.934 231.143C144.78 233.006 144.863 233.131 145.801 232.444ZM196.885 231.055C196.561 230.73 196.293 231.219 196.559 231.65C196.76 231.976 196.835 231.976 196.943 231.651C197.017 231.43 196.991 231.161 196.885 231.055ZM200.022 231.641C200.227 231.309 199.479 230.969 198.542 230.969C197.999 230.969 197.957 231.049 198.288 231.448C198.725 231.976 199.745 232.09 200.022 231.641ZM148.441 231.339C148.737 231.151 148.627 230.978 148.042 230.712C147.402 230.42 147.235 230.43 147.235 230.763C147.235 231.547 147.737 231.786 148.441 231.339ZM143.725 229.432C143.725 228.314 143.543 227.699 143.058 227.177C142.315 226.379 141.253 226.377 140.756 227.173C140.5 227.583 140.756 228.017 141.999 229.279C142.861 230.154 143.602 230.892 143.646 230.92C143.689 230.946 143.725 230.277 143.725 229.432ZM171.485 230.33C171.485 230.154 171.09 230.025 170.608 230.042L169.73 230.073L170.528 230.328C170.967 230.469 171.361 230.599 171.405 230.616C171.449 230.635 171.485 230.505 171.485 230.33ZM173.799 230.438C173.579 230.349 173.22 230.349 173.001 230.438C172.781 230.526 172.961 230.599 173.4 230.599C173.838 230.599 174.018 230.526 173.799 230.438ZM176.91 230.33C176.91 230.154 176.631 230.01 176.29 230.01C175.949 230.01 175.582 230.154 175.474 230.33C175.362 230.511 175.63 230.649 176.093 230.649C176.542 230.649 176.91 230.506 176.91 230.33ZM180.1 229.357C180.1 229.207 179.669 229.236 179.143 229.419C178.617 229.603 178.186 229.876 178.186 230.025C178.186 230.175 178.617 230.146 179.143 229.963C179.669 229.779 180.1 229.506 180.1 229.357ZM197.264 229.705C198.295 229.576 199.381 229.642 200.055 229.875C201.35 230.32 201.47 229.973 200.395 228.896C199.368 227.868 196.342 227.007 194.687 227.272C192.058 227.693 190.432 229.395 192.741 229.308C193.538 229.278 193.991 229.437 194.206 229.821C194.409 230.185 194.699 230.297 195.046 230.145C195.337 230.019 196.335 229.82 197.264 229.705ZM182.972 228.209C182.972 227.876 182.805 227.864 182.174 228.152C181.735 228.352 181.377 228.705 181.377 228.937C181.377 229.27 181.543 229.282 182.174 228.994C182.613 228.794 182.972 228.441 182.972 228.209ZM173.592 228.179C173.268 227.854 173 228.343 173.266 228.774C173.467 229.1 173.543 229.1 173.651 228.775C173.725 228.553 173.698 228.285 173.592 228.179ZM171.3 227.161C171.101 226.963 170.951 227.202 170.714 228.092L170.501 228.891L170.967 228.093C171.223 227.654 171.373 227.234 171.3 227.161ZM176.59 228.431C176.59 228.265 176.447 228.041 176.271 227.933C176.096 227.824 175.952 227.959 175.952 228.233C175.952 228.507 176.096 228.731 176.271 228.731C176.447 228.731 176.59 228.596 176.59 228.431ZM169.283 225.457C169.683 224.694 169.286 224.754 168.395 225.592C167.687 226.257 167.419 227.429 167.87 227.88C167.988 227.998 168.288 227.627 168.537 227.055C168.786 226.483 169.122 225.764 169.283 225.457ZM179.462 227.784C179.462 227.615 179.139 227.306 178.744 227.099C178.03 226.724 178.029 226.725 178.634 227.407C179.309 228.168 179.462 228.238 179.462 227.784ZM185.226 227.761C185.824 227.441 186.099 226.495 185.595 226.495C185.181 226.495 183.929 227.469 183.929 227.791C183.929 228.185 184.458 228.174 185.226 227.761ZM200.704 225.806C200.419 223.649 199.889 222.682 198.158 221.157C195.389 218.717 192.546 218.488 187.118 220.267C180.866 222.318 177.464 221.985 172.677 218.856C170.002 217.108 165.378 212.282 163.146 208.91L161.667 206.674L156.764 210.543C154.068 212.671 151.896 214.539 151.938 214.693C152.102 215.295 154.019 218.212 154.158 218.072C154.24 217.991 154.147 217.624 153.95 217.258C153.422 216.269 154.067 215.197 155.042 215.442C155.496 215.556 155.928 215.445 156.172 215.151C156.389 214.889 156.782 214.675 157.045 214.675C157.443 214.675 157.454 214.59 157.11 214.176C156.758 213.751 156.894 213.48 158.03 212.343C159.21 211.161 159.435 211.054 159.999 211.407C160.555 211.754 160.637 211.725 160.637 211.175C160.637 210.308 161.72 209.757 162.551 210.203C163.441 210.679 163.392 212.051 162.471 212.454C161.916 212.697 162.081 212.729 163.196 212.595C164.55 212.432 164.713 212.498 165.86 213.674C166.789 214.626 167.031 215.089 166.869 215.6C166.684 216.185 166.785 216.272 167.645 216.272C168.775 216.272 169.148 216.869 168.627 217.844C168.342 218.377 168.365 218.508 168.743 218.508C169.002 218.508 169.303 218.365 169.411 218.189C169.775 217.599 170.72 217.862 171.62 218.802C172.11 219.315 172.429 219.869 172.327 220.033C172.222 220.204 172.502 220.264 172.98 220.172C173.508 220.071 173.948 220.187 174.167 220.488C174.359 220.749 175.073 221.147 175.753 221.371C176.454 221.602 177.055 222.032 177.142 222.365C177.28 222.893 177.366 222.905 177.996 222.492C178.609 222.09 178.784 222.094 179.398 222.526C180.292 223.153 180.29 223.771 179.391 224.401C179.001 224.675 178.853 224.899 179.062 224.899C179.271 224.899 179.761 224.467 180.15 223.94C180.887 222.943 181.923 222.699 182.589 223.365C182.886 223.663 182.972 223.595 182.972 223.057C182.972 221.633 184.963 221.424 185.548 222.787C185.786 223.343 185.824 223.27 185.76 222.366C185.692 221.397 185.79 221.243 186.627 221.019C187.33 220.83 187.73 220.906 188.197 221.315C188.542 221.617 188.714 221.675 188.579 221.444C188.268 220.913 189.251 219.787 190.025 219.787C190.34 219.787 190.744 220.039 190.923 220.346C191.233 220.879 191.249 220.879 191.258 220.346C191.265 219.898 191.552 219.787 192.703 219.787C193.493 219.787 194.139 219.927 194.139 220.097C194.139 220.267 194.356 220.323 194.622 220.221C195.233 219.986 196.054 220.651 196.054 221.38C196.054 221.785 196.25 221.898 196.781 221.796C197.633 221.633 198.893 222.767 198.28 223.146C198.039 223.296 198.168 223.502 198.655 223.745C199.611 224.222 199.799 225.213 199.04 225.777C198.497 226.181 198.522 226.2 199.325 226.003C200.054 225.824 200.202 225.892 200.202 226.408C200.202 226.997 200.453 227.454 200.775 227.454C200.856 227.454 200.824 226.712 200.704 225.806ZM153.617 224.661C153.617 224.065 153.469 223.301 153.288 222.963C152.941 222.313 151.38 221.375 150.681 221.396C150.453 221.404 150.715 221.604 151.263 221.843C153.275 222.72 153.862 224.706 152.6 226.372L151.901 227.293L152.759 226.519C153.369 225.968 153.617 225.432 153.617 224.661ZM165.601 225.357C164.778 224.746 164.571 224.776 164.373 225.537C164.143 226.419 165.095 226.947 165.742 226.297C166.167 225.87 166.152 225.766 165.601 225.357ZM174.79 226.04C175.069 225.614 175.588 225.173 175.944 225.06C176.458 224.897 176.551 224.677 176.393 223.997C176.284 223.526 175.97 222.961 175.694 222.742C175.284 222.414 175.073 222.457 174.516 222.981C173.66 223.787 172.414 223.798 171.441 223.008C170.838 222.519 170.693 222.107 170.718 220.947C170.748 219.453 170.36 218.972 169.542 219.49C168.721 220.011 166.854 219.818 166.125 219.137C165.218 218.291 164.983 217.269 165.427 216.101C165.747 215.258 165.699 215.083 164.981 214.465C164.36 213.93 163.901 213.808 162.965 213.932C162.024 214.056 161.492 213.913 160.582 213.291C159.451 212.519 159.392 212.511 158.882 213.076C158.389 213.621 158.39 213.718 158.901 214.496C159.326 215.146 159.402 215.715 159.245 217.057C159.052 218.698 159.088 218.815 159.967 219.442C160.684 219.953 161.204 220.064 162.28 219.934C164.244 219.697 165.424 220.83 165.424 222.95C165.424 223.707 165.636 224.031 166.382 224.418C167.281 224.883 167.398 224.871 168.27 224.226C168.995 223.689 169.449 223.584 170.33 223.75C171.54 223.977 172.763 225.217 172.763 226.217C172.763 227.114 174.167 226.992 174.79 226.04ZM182.334 226.345C182.334 226.059 182.147 225.948 181.855 226.06C181.592 226.161 181.377 226.372 181.377 226.529C181.377 226.686 181.592 226.814 181.855 226.814C182.119 226.814 182.334 226.603 182.334 226.345ZM188.615 225.33C188.341 225.056 186.801 225.971 186.801 226.408C186.801 226.741 187.054 226.677 187.776 226.162C188.313 225.78 188.691 225.405 188.615 225.33ZM151.702 225.536C152.053 225.185 152.34 224.747 152.34 224.563C152.34 224.084 150.853 222.661 150.352 222.661C149.555 222.661 148.512 223.654 148.512 224.413C148.512 226.059 150.486 226.754 151.702 225.536ZM161.906 225.688C161.684 225.42 161.42 225.285 161.318 225.386C161.217 225.488 161.345 225.705 161.603 225.868C162.279 226.296 162.367 226.244 161.906 225.688ZM194.459 225.92C194.459 225.467 193.71 224.897 193.116 224.897C192.619 224.897 192.594 224.986 192.937 225.536C193.322 226.154 194.459 226.44 194.459 225.92ZM195.926 224.738C195.926 223.557 195.838 223.463 195.143 223.904C194.787 224.13 194.807 224.326 195.259 225.017C195.561 225.478 195.835 225.856 195.867 225.856C195.901 225.856 195.926 225.353 195.926 224.738ZM156.277 224.453C156.739 223.747 156.73 223.648 156.154 223.126C155.546 222.576 155.531 222.594 155.531 223.89C155.531 224.62 155.587 225.217 155.654 225.217C155.722 225.217 156.002 224.874 156.277 224.453ZM181.875 224.332C181.768 224.224 181.433 224.397 181.13 224.714C180.603 225.266 180.612 225.275 181.324 224.909C181.734 224.698 181.982 224.439 181.875 224.332ZM159.998 224.155C159.998 223.922 159.639 223.394 159.201 222.981C158.483 222.306 158.403 222.29 158.403 222.82C158.403 223.437 159.264 224.578 159.729 224.578C159.877 224.578 159.998 224.388 159.998 224.155ZM163.748 223.944C163.967 223.941 164.146 223.758 164.146 223.537C164.146 223.296 163.732 223.136 163.109 223.138C162.214 223.141 162.059 223.02 161.971 222.262C161.916 221.779 161.74 221.384 161.581 221.384C161.421 221.384 161.371 221.851 161.47 222.422C161.777 224.202 161.873 224.344 162.635 224.14C163.027 224.034 163.528 223.946 163.748 223.944ZM188.316 224.057C189.267 223.802 189.222 223.549 188.111 222.892C187.306 222.416 187.163 222.407 187.004 222.823C186.807 223.338 187.058 224.262 187.393 224.255C187.506 224.252 187.922 224.163 188.316 224.057ZM192.781 222.506C192.452 221.431 192.427 221.417 192.087 222.1C191.893 222.49 191.378 222.989 190.943 223.209C190.197 223.587 190.236 223.611 191.637 223.615L193.123 223.619L192.781 222.506ZM148.233 222.422C148.63 221.915 148.619 221.904 148.113 222.301C147.805 222.542 147.554 222.794 147.554 222.86C147.554 223.123 147.816 222.954 148.233 222.422ZM194.618 222.661C194.51 222.486 194.25 222.344 194.041 222.347C193.813 222.35 193.852 222.475 194.14 222.661C194.753 223.058 194.863 223.058 194.618 222.661ZM156.36 220.152C155.292 219.082 155.205 219.923 156.247 221.25C156.867 222.04 156.978 222.082 157.076 221.571C157.139 221.245 156.819 220.611 156.36 220.152ZM160.317 221.46C160.317 221.106 159.143 220.429 158.919 220.654C158.646 220.927 159.355 221.703 159.878 221.703C160.119 221.703 160.317 221.594 160.317 221.46ZM157.733 217.86C158.408 216.562 158.663 215.632 158.058 216.672C157.865 217.004 157.351 217.231 156.792 217.231C156.274 217.231 155.85 217.399 155.85 217.605C155.85 217.923 156.75 219.148 156.984 219.148C157.027 219.148 157.364 218.568 157.733 217.86ZM150.826 215.466C150.845 215.294 150.619 215.108 150.325 215.051C149.946 214.978 149.848 215.098 149.988 215.464C150.194 216.003 150.769 216.004 150.826 215.466ZM157.286 208.499C157.824 207.982 156.765 208.623 155.132 209.801C154.299 210.403 153.617 211.041 153.617 211.218C153.617 211.483 156.084 209.654 157.286 208.499ZM160.637 205.852C160.637 205.46 159.606 205.837 159.054 206.429C158.026 207.533 158.295 207.762 159.52 206.827C160.134 206.358 160.637 205.919 160.637 205.852Z" fill="#DDA46F"/>
<path d="M167.609 407.99C167.712 407.823 168.033 407.686 168.324 407.686C169.499 407.686 169.579 407.193 169.579 399.925C169.579 394.071 169.503 392.829 169.128 392.518C168.88 392.312 168.46 392.226 168.193 392.329C167.89 392.446 167.755 392.377 167.833 392.146C167.987 391.684 171.33 390.313 171.718 390.554C171.875 390.651 172.004 391.148 172.004 391.658V392.586L173.217 391.488C174.694 390.152 176.209 390.014 177.767 391.074C179.352 392.153 180.037 393.785 180.025 396.46C180.014 399.114 179.299 400.804 177.662 402.055C176.342 403.063 174.209 403.373 172.943 402.741L172.004 402.271V404.615C172.004 407.034 172.274 407.687 173.277 407.687C173.577 407.687 173.822 407.823 173.822 407.99C173.822 408.173 172.553 408.294 170.622 408.294C168.566 408.294 167.488 408.185 167.609 407.99ZM175.727 401.895C177.027 401.302 177.611 399.892 177.603 397.364C177.595 395.538 177.459 394.863 176.915 393.98C175.894 392.327 174.26 391.995 172.802 393.143C172.024 393.756 172.003 393.86 172.003 397.182C172.003 400.7 172.151 401.208 173.367 401.874C174.146 402.3 174.826 402.305 175.727 401.895ZM151.394 402.839C150.977 402.709 150.33 402.67 149.955 402.75C149.298 402.892 149.273 402.818 149.273 400.74C149.273 398.61 149.639 397.89 149.997 399.318C150.531 401.445 153.042 402.804 154.578 401.796C156.182 400.744 155.267 399.025 152.303 397.521C149.918 396.311 149.273 395.539 149.273 393.898C149.273 392.808 149.455 392.319 150.157 391.533C151.033 390.552 151.069 390.542 153.794 390.542H156.546V392.421C156.546 394.593 156.143 395.111 155.64 393.584C154.956 391.51 152.457 390.564 151.234 391.917C150.243 393.013 150.909 393.974 153.669 395.432C157.224 397.308 158.191 399.04 156.884 401.187C155.901 402.801 153.55 403.509 151.394 402.839ZM161.147 402.835C160.594 402.704 159.878 402.666 159.556 402.75C159.019 402.89 158.971 402.727 158.971 400.744C158.971 399.556 159.095 398.584 159.247 398.584C159.398 398.584 159.805 399.168 160.15 399.88C161.189 402.03 163.459 402.891 164.729 401.619C165.926 400.421 165.29 399.226 162.7 397.802C161.566 397.178 160.333 396.394 159.961 396.06C159.029 395.225 158.798 393.731 159.402 392.456C160.17 390.835 161.211 390.395 164.082 390.475L166.547 390.543L166.548 392.421C166.548 393.455 166.419 394.38 166.262 394.477C166.105 394.574 165.709 394.048 165.382 393.307C164.725 391.82 164.018 391.301 162.65 391.301C161.57 391.301 160.79 391.991 160.79 392.945C160.79 393.803 161.39 394.342 163.517 395.395C164.434 395.849 165.627 396.642 166.169 397.158C167.003 397.952 167.154 398.311 167.154 399.497C167.154 400.63 166.995 401.05 166.321 401.694C164.895 403.056 163.436 403.378 161.147 402.835ZM184.849 402.555C181.814 401.176 180.561 397.197 182.116 393.881C182.936 392.133 183.554 391.51 185.113 390.858C190.185 388.736 194.693 394.328 192.198 399.646C191.378 401.394 190.761 402.017 189.202 402.669C187.73 403.285 186.375 403.249 184.849 402.555ZM189.426 401.139C190.736 399.724 190.731 395.641 189.415 393.096C188.783 391.872 187.21 391.132 186.06 391.516C184.673 391.978 183.986 393.492 184.024 395.999C184.079 399.565 185.506 401.922 187.611 401.922C188.392 401.922 188.906 401.701 189.426 401.139ZM122.753 402.529C122.651 402.362 122.832 402.225 123.157 402.225C123.481 402.225 124.039 401.986 124.395 401.694C125.03 401.174 125.041 401.009 124.959 393.587L124.875 386.01L123.663 385.656C121.652 385.068 123.089 384.839 127.844 384.99C132.618 385.141 134.078 385.595 135.295 387.306C136.833 389.468 136.189 392.655 133.93 394.059C132.928 394.682 132.387 394.787 130.255 394.772L127.754 394.754V397.75C127.754 401.148 127.978 401.788 129.267 402.071C129.769 402.181 130.179 402.397 130.179 402.551C130.179 402.935 122.991 402.911 122.753 402.525V402.529ZM131.853 393.042C133.201 391.88 133.354 389.307 132.18 387.514C131.615 386.65 129.664 385.978 128.539 386.261L127.754 386.458V390.094V393.729H129.404C130.682 393.729 131.234 393.574 131.853 393.042ZM138.237 401.899C136.989 400.413 137.151 399.068 138.763 397.546C139.496 396.854 140.932 395.962 142.021 395.522C143.936 394.748 143.968 394.716 143.934 393.618C143.891 392.257 143.093 391.302 141.999 391.302C140.947 391.302 140.253 392.09 140.128 393.426C140.039 394.381 139.938 394.488 139.12 394.488C138.31 394.488 138.2 394.377 138.113 393.473C138.05 392.812 138.208 392.243 138.568 391.838C140.291 389.9 144.883 389.934 145.93 391.892C146.101 392.213 146.242 394.18 146.242 396.264C146.242 401.105 146.47 401.723 147.809 400.51C148.329 400.038 148.363 400.046 148.363 400.634C148.363 400.979 147.935 401.622 147.412 402.063C145.986 403.264 144.648 403 143.929 401.376C143.906 401.326 143.376 401.634 142.75 402.059C141.072 403.199 139.276 403.134 138.237 401.899ZM143.135 400.712C144.096 400.125 144.12 400.058 144.12 397.982C144.12 396.719 143.993 395.853 143.807 395.853C143.145 395.853 140.49 397.398 140.191 397.957C139.421 399.398 140.176 401.316 141.515 401.314C141.865 401.314 142.594 401.042 143.135 400.712ZM193.719 402.625C193.605 402.511 193.927 402.243 194.434 402.029L195.356 401.641L195.272 397.005L195.189 392.369L194.28 392.188L193.37 392.007L194.838 391.35C195.645 390.988 196.634 390.61 197.035 390.509C197.707 390.34 197.765 390.414 197.765 391.443V392.559L198.786 391.475C199.526 390.69 200.063 390.392 200.738 390.392C201.25 390.392 201.753 390.528 201.856 390.695C201.959 390.863 202.162 390.999 202.306 390.999C202.895 390.999 204.427 389.381 205.043 388.109C205.404 387.361 205.824 386.826 205.976 386.92C206.127 387.014 206.251 387.902 206.251 388.893V390.696H207.637C208.793 390.696 209.006 390.784 208.922 391.227C208.849 391.614 208.474 391.783 207.536 391.851L206.251 391.944V396.29C206.251 400.912 206.412 401.455 207.685 401.122C208.04 401.029 208.404 400.762 208.494 400.528C208.583 400.294 208.797 400.102 208.969 400.102C209.562 400.102 209.279 400.773 208.251 401.802C207.057 402.998 205.808 403.156 204.693 402.254C204.003 401.695 203.974 401.501 203.881 396.792C203.791 392.235 203.746 391.909 203.21 391.909C202.894 391.909 202.489 392.183 202.311 392.516C201.928 393.232 201.041 393.298 200.1 392.681C199.35 392.189 199.029 392.318 198.278 393.418C197.874 394.009 197.765 394.866 197.765 397.459C197.765 401.068 197.97 401.756 199.133 402.049C199.561 402.156 199.829 402.376 199.729 402.539C199.525 402.869 194.041 402.948 193.719 402.625ZM164.46 382.397C163.52 381.856 162.935 380.776 162.922 379.554C162.903 378.01 164.343 376.636 167.203 375.466L169.639 374.469L169.477 373.254C169.308 371.994 168.419 370.971 167.491 370.971C166.49 370.971 165.639 371.869 165.639 372.924C165.639 374.941 163.773 375.142 163.574 373.146C163.32 370.589 168.481 369.039 170.854 370.96C171.509 371.49 171.558 371.787 171.701 376.077C171.784 378.583 171.95 380.73 172.07 380.85C172.19 380.969 172.633 380.838 173.055 380.564C173.683 380.151 173.822 380.138 173.822 380.491C173.822 381.077 171.812 382.805 171.131 382.805C170.575 382.805 169.754 382.06 169.542 381.362C169.461 381.098 169.095 381.217 168.344 381.752C167.019 382.696 165.435 382.959 164.46 382.397ZM168.699 380.464C169.542 379.966 169.579 379.851 169.579 377.733C169.579 376.518 169.527 375.523 169.464 375.523C169.004 375.523 167.059 376.553 166.281 377.208C165.599 377.783 165.336 378.265 165.336 378.94C165.336 380.8 166.918 381.517 168.699 380.464ZM174.732 380.453C174.732 379.188 174.86 378.253 175.034 378.253C175.201 378.253 175.338 378.403 175.338 378.587C175.338 379.395 176.402 381.049 177.182 381.453C178.957 382.372 180.793 381.698 180.793 380.126C180.793 379.24 180.022 378.524 177.781 377.328C175.418 376.067 174.731 375.217 174.731 373.55C174.731 371.077 176.819 369.674 179.495 370.349C180.466 370.594 180.979 370.603 181.202 370.383C181.842 369.741 182.005 370.107 182.005 372.188C182.005 374.463 181.666 374.908 181.122 373.345C180.649 371.989 179.96 371.319 178.813 371.104C176.95 370.754 175.744 372.132 176.672 373.55C176.933 373.95 178.022 374.694 179.091 375.205C180.16 375.716 181.473 376.633 182.008 377.244C182.847 378.2 182.959 378.518 182.822 379.542C182.501 381.938 180.933 382.848 177.316 382.736L174.734 382.656L174.732 380.453ZM148.06 382.198C148.06 382.031 148.342 381.894 148.686 381.894C149.031 381.894 149.576 381.752 149.899 381.58C150.454 381.282 150.485 380.87 150.485 373.751C150.485 365.817 150.432 365.509 149.078 365.509C148.705 365.509 148.315 365.372 148.212 365.205C147.96 364.797 156.637 364.804 158.108 365.212C159.501 365.6 161.296 367.548 161.56 368.96C161.786 370.167 161.334 371.794 160.466 372.899C159.531 374.09 157.491 374.721 155.182 374.536L153.213 374.378V377.461C153.213 380.891 153.594 381.894 154.897 381.894C155.304 381.894 155.637 382.031 155.637 382.198C155.637 382.384 154.172 382.501 151.849 382.501C149.525 382.501 148.06 382.384 148.06 382.198ZM157.531 372.502C158.543 371.368 158.72 369.68 158.017 367.875C157.554 366.686 156.49 366.115 154.739 366.115H153.213V369.735C153.213 373.789 153.194 373.76 155.486 373.548C156.372 373.466 156.922 373.184 157.531 372.502Z" fill="#DDA46F"/>
<path d="M131.366 86.4712C131.366 86.309 131.677 86.1761 132.058 86.1761C132.438 86.1761 132.968 85.9332 133.237 85.6364C133.663 85.1646 133.724 84.1706 133.724 77.7276C133.724 69.9299 133.676 69.6502 132.339 69.6502C131.966 69.6502 131.662 69.5506 131.662 69.4288C131.663 69.2186 135.395 67.5774 135.861 67.5822C135.983 67.5834 136.082 68.1664 136.082 68.8777V70.171L137.208 69.0444C137.827 68.4248 138.69 67.8282 139.126 67.7187C142.382 66.9003 145.311 70.5929 144.808 74.8822C144.608 76.584 143.579 78.9168 142.662 79.7463C141.187 81.0807 138.534 81.528 136.952 80.7091L136.082 80.2588V82.7537C136.082 85.4041 136.42 86.1761 137.577 86.1761C137.89 86.1761 138.146 86.3089 138.146 86.4712C138.146 86.6509 136.819 86.7664 134.756 86.7664C132.693 86.7664 131.366 86.6509 131.366 86.4712ZM141.006 79.241C141.774 78.3673 142.269 76.7489 142.269 75.1097C142.269 70.8579 139.339 68.4077 136.971 70.6793C136.091 71.5235 136.082 71.5603 136.082 74.7083C136.082 76.588 136.23 78.2096 136.444 78.6793C137.197 80.3346 139.766 80.6509 141.006 79.241ZM101.882 80.3478C100.785 79.3624 100.432 77.4347 100.423 72.3884L100.416 69.0769L99.5141 68.8428C97.9342 68.4329 98.5663 68.0271 100.785 68.0271H102.922L103.086 73.339C103.177 76.2606 103.276 78.668 103.307 78.6889C103.339 78.71 103.752 78.8879 104.226 79.0846C105.252 79.51 106.005 79.3136 107.197 78.3092L108.08 77.5656V73.4965C108.08 69.3015 107.988 68.9565 106.812 68.7228C106.519 68.6648 106.254 68.4845 106.222 68.3222C106.187 68.1535 107.079 67.99 108.301 67.9404L110.438 67.8537L110.442 72.8097C110.445 78.7614 110.511 79.0936 111.651 79.0936C112.514 79.0936 112.805 79.5116 112.133 79.7835C111.888 79.8824 111.917 79.9402 112.221 79.9556C113.237 80.0074 113.385 79.3539 113.385 74.8146C113.385 70.0953 113.266 69.6502 112 69.6502C111.627 69.6502 111.322 69.5315 111.322 69.3865C111.322 69.1307 114.865 67.5845 115.452 67.5845C115.612 67.5845 115.743 68.1213 115.743 68.7773V69.9702L116.877 68.7773C118.109 67.4802 119.005 67.2764 120.099 68.0439C121.209 68.8223 120.801 70.5356 119.506 70.5356C119.208 70.5356 118.621 70.31 118.201 70.0342C117.451 69.5424 117.421 69.5508 116.59 70.4816C115.754 71.4181 115.743 71.4766 115.743 75.0902C115.743 77.1032 115.821 78.9539 115.917 79.2028C116.012 79.4516 116.555 79.8088 117.123 79.9965C118.853 80.5681 117.814 80.8917 114.539 80.8013C112.254 80.7384 111.489 80.6212 111.545 80.3432C111.6 80.0678 111.329 80.0968 110.513 80.4536C109.904 80.7198 109.108 81.0029 108.743 81.0828C108.137 81.2156 108.08 81.1206 108.08 79.9828V78.7374L107.015 79.673C105.047 81.4033 103.31 81.6317 101.882 80.3478ZM123.705 80.6892C121.28 79.6365 120.039 77.5531 120.029 74.5194C120.022 72.7782 120.159 72.2068 120.89 70.8823C123.293 66.5286 129.136 66.5613 131.444 70.9415C132.335 72.6321 132.342 75.8095 131.459 77.4705C129.795 80.5947 126.57 81.9331 123.705 80.6892ZM127.846 79.675C128.918 79.1005 129.426 77.633 129.426 75.1096C129.426 71.2628 127.958 68.7649 125.697 68.7649C123.516 68.7649 122.283 71.098 122.658 74.5156C123.101 78.5631 125.489 80.9378 127.846 79.675ZM148.453 80.4953C144.746 78.6203 144.057 72.3616 147.217 69.2719C150.378 66.182 155.205 67.5679 155.986 71.7897L156.191 72.8963H151.737C146.77 72.8963 146.971 72.7927 147.591 75.0267C148.157 77.0665 150.143 78.7997 151.911 78.7974C153.039 78.7959 154.526 77.8323 155.092 76.7361C155.686 75.5877 156.175 75.8286 155.813 77.0911C155.444 78.3793 154.08 80.0208 152.863 80.6424C151.495 81.3408 150.028 81.2918 148.453 80.4953ZM152.883 71.1659C152.883 69.2769 150.405 68.1143 148.791 69.2461C148.222 69.6453 147.283 71.2688 147.283 71.854C147.283 71.9404 148.543 72.011 150.083 72.011H152.883V71.1659ZM158.042 80.7538C156.944 80.2704 156.286 79.0867 156.286 77.5954C156.286 76.7052 156.5 76.2357 157.266 75.4449C158.091 74.5922 160.721 73.1625 162.684 72.499C163.279 72.298 163.4 70.5763 162.887 69.6166C162.422 68.7468 161.201 68.3714 160.194 68.7889C159.397 69.1195 159.192 69.5181 159.008 71.0956C158.82 72.7093 156.961 72.6325 156.767 71.0031C156.479 68.5796 160.639 66.7521 163.613 67.9959C165.324 68.7117 165.557 69.3511 165.561 73.3309C165.565 78.6549 165.931 79.9779 167.031 78.6509C167.484 78.1049 167.916 78.0779 167.916 78.5958C167.916 79.1135 166.477 80.4633 165.558 80.8078C164.555 81.1835 163.609 80.7727 163.381 79.8635L163.193 79.1107L161.943 79.9661C160.405 81.0198 159.198 81.2633 158.042 80.7538ZM162.054 78.7441L163.2 78.0996V75.7931C163.2 74.4027 163.079 73.4866 162.895 73.4866C162.253 73.4866 159.682 74.9821 159.241 75.6125C158.509 76.6585 158.649 78.0633 159.555 78.777C160.522 79.5385 160.646 79.5363 162.054 78.7441ZM191.349 80.733C189.848 80.1798 188.1 78.321 187.69 76.8438C187.515 76.2111 187.37 73.128 187.367 69.9453C187.36 63.4359 187.206 62.7722 185.668 62.6227C185.145 62.5719 184.717 62.4058 184.717 62.2538C184.717 62.0952 186.482 61.9775 188.861 61.9775C191.549 61.9775 192.941 62.0811 192.823 62.2726C192.723 62.4349 192.342 62.5677 191.977 62.5677C191.613 62.5677 191.057 62.7564 190.742 62.987C190.207 63.3793 190.17 63.8106 190.17 69.7006C190.17 76.542 190.373 77.745 191.704 78.7929C194.53 81.0186 199.384 79.6039 200.304 76.2867C200.49 75.617 200.631 72.6896 200.632 69.4946C200.634 63.2152 200.467 62.5677 198.848 62.5677C198.371 62.5677 197.981 62.4349 197.981 62.2726C197.981 62.0929 199.307 61.9775 201.371 61.9775C203.434 61.9775 204.76 62.0929 204.76 62.2726C204.76 62.4349 204.383 62.5677 203.922 62.5677C202.282 62.5677 202.177 62.9867 202.061 69.9576C201.959 76.0874 201.929 76.3669 201.205 77.7753C200.676 78.8033 200.037 79.4942 199.045 80.108C197.819 80.8672 197.306 80.9922 195.082 81.0739C193.353 81.1374 192.147 81.0272 191.349 80.733ZM226.993 80.6007C222.554 78.5821 222.113 71.5272 226.245 68.62C227.345 67.8456 227.761 67.732 229.493 67.732C231.153 67.732 231.674 67.8616 232.673 68.5237C235.093 70.1271 236.164 73.2591 235.303 76.215C234.152 80.1675 230.398 82.1489 226.993 80.6007ZM231.304 79.6751C232.347 79.1163 232.821 77.6961 232.821 75.1284C232.821 72.4546 232.328 70.8912 231.07 69.5764C229.542 67.9796 226.918 68.7967 226.289 71.0654C224.932 75.9578 228.098 81.3931 231.304 79.6751ZM83.3215 80.4216C83.3215 80.1283 83.6143 79.9789 84.189 79.9789C85.8702 79.9789 85.9748 79.4772 85.9699 71.4289C85.9664 63.3241 85.8596 62.777 84.2727 62.6227C83.7496 62.5719 83.3215 62.4058 83.3215 62.2539C83.3215 62.0896 86.2508 61.9775 90.5429 61.9775H97.7644L97.7677 62.9366C97.7694 63.4641 97.8533 64.3937 97.9535 65.0023C98.0973 65.8722 98.0412 66.109 97.6924 66.109C97.4362 66.109 97.1746 65.7388 97.0736 65.2329C96.7114 63.4197 96.092 63.1579 92.1641 63.1579H88.627V66.6992V70.2405H91.5289C94.6953 70.2405 95.1297 70.0397 95.5198 68.396C95.6256 67.9497 95.8425 67.5845 96.0015 67.5845C96.3909 67.5845 96.3835 73.9846 95.9947 74.2257C95.6904 74.4139 95.5791 74.1996 95.2916 72.8732C95.0577 71.7931 93.9881 71.4209 91.1195 71.4209H88.6279V75.1982C88.6279 77.7427 88.7435 79.0912 88.9816 79.3297C89.4449 79.7936 94.3203 79.7708 95.696 79.2984C96.4059 79.0546 97.0411 78.4725 97.7593 77.4076C99.436 74.9213 99.6557 75.3175 98.464 78.6784L97.6889 80.8644H90.5056C84.317 80.8644 83.3215 80.803 83.3215 80.4216ZM166.737 80.5747C166.737 80.4156 167.07 80.2017 167.476 80.0995C167.894 79.9945 168.284 79.6387 168.371 79.2823C168.457 78.935 168.489 76.659 168.442 74.2244L168.358 69.7978L167.4 69.7053C166.873 69.6545 166.442 69.5094 166.442 69.383C166.442 69.1724 170.157 67.5845 170.65 67.5845C170.767 67.5845 170.863 68.1156 170.863 68.7649C170.863 69.4141 170.947 69.9453 171.048 69.9453C171.15 69.9453 171.739 69.488 172.357 68.9291C174.342 67.1337 176.322 67.2164 177.761 69.1548C178.312 69.8962 178.396 70.5099 178.527 74.7587L178.674 79.5301L179.485 79.9181C180.95 80.6197 180.36 80.8642 177.2 80.8642C174.231 80.8642 173.173 80.5194 174.85 80.0981C175.26 79.9952 175.724 79.6694 175.882 79.3741C176.263 78.66 176.247 72.452 175.86 71.0554C175.333 69.1531 173.805 68.915 171.822 70.4259L170.864 71.1557V74.8103C170.864 78.8653 171.102 79.8866 172.078 80.0301C172.439 80.083 172.789 80.2925 172.855 80.4953C172.947 80.7748 172.221 80.8642 169.857 80.8642C168.014 80.8642 166.737 80.7458 166.737 80.5747ZM203.876 80.5853C203.876 80.4318 204.241 80.1315 204.686 79.9178L205.497 79.5292L205.582 75.2537C205.686 69.9899 205.618 69.6503 204.46 69.6503C203.977 69.6503 203.581 69.541 203.581 69.4076C203.581 69.1656 207.165 67.5846 207.714 67.5846C207.872 67.5846 208.003 68.1389 208.003 68.8164V70.0483L208.666 69.4376C210.821 67.4532 212.748 67.0907 214.203 68.3961C215.385 69.4562 215.65 70.7165 215.659 75.3069C215.663 77.3631 215.747 79.2555 215.845 79.5122C216.061 80.0756 218.023 80.1572 218.555 79.6249C218.927 79.2517 219.079 71.028 218.729 70.1171C218.623 69.8403 218.203 69.6503 217.698 69.6503C217.229 69.6503 216.845 69.5385 216.845 69.4018C216.845 69.178 220.535 67.5846 221.053 67.5846C221.17 67.5846 221.266 70.0327 221.266 73.0248C221.266 76.017 221.392 78.7955 221.545 79.1994C221.709 79.6312 222.104 79.9735 222.503 80.0302C222.877 80.0832 223.182 80.2594 223.182 80.4217C223.182 80.6061 220.943 80.7468 217.214 80.7967C211.39 80.8746 210.206 80.6946 212.129 80.0233L213.013 79.7147V75.1252C213.013 70.8534 212.971 70.4927 212.393 69.9147C211.622 69.143 210.41 69.3177 208.985 70.4056L208.002 71.1559V75.0684C208.002 79.1456 208.183 79.8321 209.304 80.0279C209.615 80.0822 209.925 80.2926 209.992 80.4955C210.085 80.7751 209.36 80.8644 206.995 80.8644C205.232 80.8644 203.876 80.743 203.876 80.5853ZM235.415 80.5747C235.415 80.4156 235.747 80.2017 236.154 80.0995C236.571 79.9945 236.961 79.6387 237.049 79.2823C237.135 78.935 237.167 76.659 237.12 74.2244L237.036 69.7978L236.078 69.7053C235.551 69.6545 235.12 69.5094 235.12 69.383C235.12 69.1724 238.834 67.5845 239.327 67.5845C239.445 67.5845 239.541 68.1156 239.541 68.7649C239.541 69.4141 239.624 69.9453 239.726 69.9453C239.828 69.9453 240.417 69.488 241.035 68.9291C243.02 67.1339 244.999 67.2164 246.439 69.1542C246.989 69.8952 247.073 70.5085 247.204 74.7581L247.352 79.53L248.162 79.9181C249.628 80.6198 249.037 80.8642 245.878 80.8642C242.764 80.8642 242.04 80.5911 243.657 80.0268C244.809 79.6247 244.928 79.0364 244.802 74.3542C244.704 70.6564 244.666 70.4567 243.973 69.8947C243.076 69.1678 241.92 69.3389 240.523 70.4055L239.541 71.1558L239.568 74.7558C239.603 79.0283 239.761 79.7528 240.707 79.9763C241.094 80.0678 241.465 80.3051 241.531 80.5035C241.621 80.7727 240.859 80.8642 238.532 80.8642C236.689 80.8642 235.415 80.7458 235.415 80.5747ZM219.203 63.453C218.534 62.7835 218.485 62.4739 218.919 61.6629C219.264 61.016 220.647 60.8851 221.207 61.4462C221.77 62.0097 221.619 63.084 220.906 63.5838C220.063 64.175 219.913 64.1635 219.203 63.453ZM217.729 59.4787C217.729 59.2035 217.995 59.0264 218.407 59.0264C219.748 59.0264 219.793 58.7581 219.793 50.7555V43.1929L218.942 43.318C218.447 43.3907 217.773 43.2345 217.331 42.9449C216.594 42.461 216.55 42.4701 215.817 43.2622C214.806 44.3545 214.712 44.868 214.829 48.6464C214.912 51.3247 215.026 51.9907 215.491 52.504C215.799 52.8452 216.297 53.1243 216.596 53.1243C216.895 53.1243 217.14 53.2571 217.14 53.4194C217.14 53.5991 215.813 53.7146 213.75 53.7146C210.325 53.7146 209.566 53.4805 211.318 52.9641L212.276 52.6817L212.358 47.9995C212.441 43.181 212.283 42.3873 211.273 42.5586C211.014 42.6025 210.757 42.5098 210.701 42.3527C210.623 42.1352 214.15 40.4348 214.679 40.4348C214.736 40.4348 214.782 41.0626 214.782 41.83V43.2252L215.706 42.1026C216.937 40.6072 217.796 40.2986 219.058 40.898C219.803 41.2522 220.185 41.2884 220.635 41.0477C221.792 40.4278 222.151 40.641 222.151 41.9479V43.1659L223.435 41.9806C225.08 40.4631 226.145 40.2179 227.837 40.9676C229.93 41.8943 230.993 43.9048 230.993 46.9341C230.993 51.0902 228.621 54.0097 225.243 54.0097C224.499 54.0097 223.481 53.7982 222.982 53.5396L222.074 53.0694L222.206 55.5837C222.342 58.1746 222.653 58.9239 223.658 59.0825C223.977 59.1328 224.265 59.3069 224.3 59.4691C224.337 59.6482 223.058 59.7971 221.046 59.8477C218.227 59.9186 217.729 59.8634 217.729 59.4787ZM226.974 52.3978C228.049 51.4001 228.34 50.4797 228.34 48.0788C228.34 44.7332 227.152 42.7955 225.1 42.7955C224.273 42.7955 223.815 43.0226 223.05 43.8126L222.066 44.8296L222.226 48.0178C222.411 51.6932 222.53 52.1048 223.586 52.6787C224.786 53.3318 226.083 53.2242 226.974 52.3978ZM105.44 53.1815L104.544 52.2844V47.0973V41.9102H103.512C102.399 41.9102 102.124 41.4732 103.052 41.1782C103.809 40.9375 105.399 39.1001 105.911 37.874C106.556 36.3283 106.902 36.7071 106.902 38.9592V41.0249H108.376C109.489 41.0249 109.849 41.1331 109.849 41.4676C109.849 41.802 109.489 41.9102 108.376 41.9102H106.902V46.6109C106.902 50.4907 106.983 51.3925 107.365 51.7752C107.985 52.3965 108.356 52.3601 109.166 51.5984C109.967 50.8449 110.337 51.0319 109.849 51.9438C109.661 52.2962 109.569 52.6473 109.646 52.7239C110.003 53.0808 111.294 50.4885 114.541 42.9013C116.513 38.2931 118.224 34.6801 118.434 34.6801C118.646 34.6801 120.305 38.2409 122.245 42.8554C124.134 47.3517 125.908 51.3792 126.187 51.8053C126.466 52.2314 127.082 52.7154 127.557 52.881C129.228 53.4643 128.381 53.7145 124.735 53.7145C122.708 53.7145 121.05 53.6108 121.05 53.4841C121.05 53.3573 121.448 53.1033 121.934 52.9195C123.045 52.4997 123.06 51.9527 122.026 49.4329L121.233 47.5005L117.565 47.5826L113.897 47.6648L113.075 49.7193C112.146 52.0421 112.262 52.6646 113.679 52.9762C115.511 53.379 114.457 53.7145 111.36 53.7145C109.597 53.7145 107.745 53.7964 107.245 53.8966C106.493 54.0472 106.181 53.9233 105.44 53.1815ZM120.298 45.2302C120.042 44.6215 119.425 43.1275 118.926 41.9102C118.427 40.6929 117.923 39.5888 117.806 39.4566C117.641 39.2708 115.745 43.1801 114.648 45.9679C114.537 46.249 115.247 46.3368 117.633 46.3368H120.763L120.298 45.2302ZM130.935 53.3537C127.383 51.2898 126.78 45.3559 129.825 42.4421C131.36 40.973 132.152 40.6312 134.018 40.633C138.801 40.6375 141.518 45.853 139.204 50.5886C138.075 52.8987 136.665 53.8157 134.052 53.9402C132.445 54.0166 131.898 53.9137 130.935 53.3537ZM136.699 51.5364C137.124 50.8377 137.26 50.0552 137.26 48.2893C137.262 45.402 136.824 43.8838 135.62 42.6062C134.502 41.419 133.062 41.2707 131.858 42.2188C129.991 43.6893 130.036 48.9487 131.938 51.6234C133.161 53.3439 135.625 53.2989 136.699 51.5364ZM154.712 53.2774L153.781 52.4929L153.701 47.2753L153.62 42.0578L152.662 41.9653C151.447 41.848 151.461 41.6299 152.738 40.8019C153.303 40.4358 154.176 39.4066 154.679 38.5148C155.181 37.6231 155.713 36.8934 155.859 36.8934C156.006 36.8934 156.126 37.823 156.126 38.9592V41.0249H157.6C158.713 41.0249 159.073 41.1331 159.073 41.4676C159.073 41.8023 158.712 41.9102 157.592 41.9102H156.112L156.192 46.8215C156.263 51.124 156.337 51.773 156.789 52.0581C157.599 52.5693 158.32 51.93 158.431 50.6016C158.578 48.8556 159.44 47.9344 162.116 46.666C163.442 46.0377 164.77 45.4407 165.068 45.3394C165.526 45.1833 165.578 44.9631 165.404 43.9015C165.131 42.2322 164.539 41.6151 163.213 41.6151C161.919 41.6151 161.431 42.0404 161.431 43.1691C161.431 44.4128 160.929 45.1564 160.088 45.1564C159.058 45.1564 158.574 44.04 159.115 42.9138C160.318 40.4088 164.977 39.7204 167.004 41.748C167.754 42.4977 167.77 42.6024 167.863 47.2459C167.956 51.9171 167.965 51.9783 168.6 51.8879C169.127 51.8127 169.258 51.5718 169.333 50.5421C169.394 49.6881 169.559 49.2879 169.849 49.2879C170.083 49.2879 170.274 49.5203 170.275 49.8043C170.277 50.66 171.368 52.1798 172.343 52.6846C173.618 53.3448 174.951 53.1495 175.656 52.199C176.171 51.5056 176.19 51.3304 175.831 50.581C175.427 49.7372 175.036 49.4409 172.042 47.7145C169.339 46.1551 168.743 43.9616 170.465 41.9118C171.433 40.7604 172.894 40.3706 174.749 40.7688C175.773 40.9889 176.303 40.9861 176.576 40.759C176.787 40.5833 177.047 40.527 177.154 40.6338C177.444 40.9243 177.388 44.8014 177.091 44.9852C176.95 45.0727 176.607 44.5491 176.33 43.8218C175.705 42.1832 174.927 41.6149 173.31 41.6149C172.283 41.6149 171.965 41.7546 171.551 42.3867C170.773 43.5759 171.447 44.4751 174.196 45.9131C177.072 47.4176 177.936 48.2663 178.139 49.7848C178.34 51.2825 177.704 52.5605 176.338 53.4061C175.426 53.97 174.994 54.0263 172.425 53.915C170.112 53.8147 169.519 53.6983 169.446 53.3298C169.367 52.9326 169.215 52.9519 168.337 53.4707C167.065 54.222 165.938 54.0107 165.678 52.972C165.449 52.0612 165.323 52.0613 164.089 52.9729C163.542 53.3767 162.652 53.7903 162.111 53.892C161.001 54.1005 159.492 53.5882 159.088 52.8658C158.852 52.4428 158.745 52.463 158.123 53.0475C156.986 54.1169 155.804 54.1968 154.712 53.2774ZM164.409 51.5644C165.386 50.906 165.413 50.8353 165.497 48.6133C165.553 47.1327 165.472 46.3368 165.266 46.3368C164.586 46.3368 162.047 47.8336 161.46 48.5801C160.678 49.5761 160.676 50.4722 161.453 51.4614C162.205 52.4185 163.095 52.4496 164.409 51.5644ZM202.255 53.4557C201.039 52.6971 199.855 51.3795 199.438 50.3208L199.09 49.4354L198.363 51.575L197.637 53.7145H190.293C185.593 53.7145 182.948 53.6082 182.948 53.4193C182.948 53.2571 183.265 53.1242 183.653 53.1242C184.04 53.1242 184.64 52.8918 184.987 52.6078C185.606 52.1 185.615 51.9556 185.535 43.9759L185.454 35.8605L184.187 35.5546C183.491 35.3864 183.015 35.154 183.131 35.0382C183.247 34.9224 186.569 34.8276 190.514 34.8276H197.686V36.8933C197.686 39.0142 197.294 39.645 196.95 38.0774C196.578 36.3845 195.66 36.008 191.899 36.008H188.549V39.7321V43.4561L191.318 43.3348C194.334 43.2027 194.901 42.9478 195.26 41.5599C195.721 39.7785 196.065 40.7689 196.065 43.8775C196.065 46.1334 195.96 47.0601 195.696 47.1483C195.471 47.2235 195.328 47.0007 195.328 46.5745C195.328 46.1913 195.122 45.5827 194.869 45.222C194.447 44.619 194.174 44.5661 191.479 44.5661H188.549V48.1959C188.549 50.6256 188.666 51.9428 188.902 52.1799C189.432 52.7101 194.839 52.6499 195.897 52.1021C196.356 51.8645 197.19 51.0303 197.751 50.2484C198.559 49.123 198.805 48.4541 198.933 47.0393C199.177 44.3503 200.502 42.1725 202.549 41.0984C203.62 40.5368 206.398 40.4866 207.414 41.0106C209.948 42.3168 211.511 45.3031 211.099 48.053C210.869 49.5896 209.821 51.8366 208.981 52.5965C207.399 54.0276 203.89 54.4759 202.255 53.4557ZM207.389 52.1163C208.684 50.7369 208.794 46.0686 207.587 43.7317C206.51 41.6474 204.208 40.9606 202.851 42.319C201.3 43.8718 201.158 47.7884 202.548 50.6378C203.719 53.0362 205.901 53.7027 207.389 52.1163ZM232.837 53.7211C231.744 53.2562 230.941 51.68 231.104 50.3208C231.292 48.7526 232.931 47.2851 235.782 46.1323C237.465 45.4515 237.941 45.124 238.018 44.5918C238.268 42.8726 237.365 41.6151 235.881 41.6151C234.701 41.6151 234.019 42.3122 233.89 43.6511C233.711 45.5064 231.851 45.6732 231.635 43.8534C231.416 42.0103 233.352 40.6276 236.151 40.6276C238.066 40.6276 239.612 41.2358 240.122 42.189C240.289 42.5013 240.427 44.6578 240.43 46.9814C240.433 49.305 240.556 51.3978 240.704 51.632C241.099 52.2583 242.624 51.5422 242.36 50.8539C240.555 46.1426 242.68 41.3655 246.91 40.6291C248.39 40.3715 250.084 40.8488 251.08 41.8047C252.621 43.2822 252.458 44.8613 250.765 44.8613C249.796 44.8613 249.268 44.3717 249.268 43.4743C249.268 42.5492 248.264 41.6152 247.27 41.6152C245.379 41.6152 244.149 43.4497 244.17 46.2406C244.194 49.5221 245.786 51.7293 248.13 51.7293C249.497 51.7293 250.594 51.0484 251.383 49.7089C251.962 48.727 252.51 48.3832 252.51 49.0023C252.51 50.3076 250.713 52.8063 249.209 53.5933C247.514 54.4797 244.536 53.8529 243.429 52.3765L242.931 51.7132L241.685 52.8614C240.173 54.2539 239.182 54.3573 238.458 53.1981C238.179 52.7517 237.92 52.3399 237.881 52.2829C237.843 52.226 237.343 52.5367 236.771 52.9735C235.643 53.8351 233.889 54.1684 232.837 53.7211ZM237.075 51.6247L238.067 51.0104V48.6537C238.067 46.3478 238.053 46.3013 237.404 46.4951C236.253 46.839 234.258 48.1036 233.946 48.6875C233.459 49.5982 233.597 51.0098 234.235 51.6487C234.989 52.4033 235.828 52.3963 237.075 51.6247ZM66.5205 53.4121C66.5205 53.2457 66.8387 52.9885 67.2276 52.8405C67.6166 52.6924 68.1403 52.2776 68.3914 51.9186C68.6424 51.5597 70.4619 47.5009 72.4344 42.8993C74.4069 38.2976 76.1712 34.5332 76.3551 34.534C76.5389 34.5349 78.2617 38.3096 80.1833 42.9224C82.105 47.5353 83.8758 51.5933 84.1186 51.9403C84.7664 52.8664 85.968 53.2571 86.5073 52.7171C87.0481 52.1756 87.2993 47.6455 86.9512 44.7137C86.7137 42.7142 86.68 42.6484 85.8979 42.6596C85.4536 42.666 85.09 42.5224 85.09 42.3404C85.09 41.9547 88.8866 40.3781 89.2596 40.6089C89.3982 40.6946 89.5113 41.2334 89.5113 41.8063V42.848L90.4693 42.0393C92.4006 40.4088 94.197 40.1401 95.5103 41.2852C96.6868 42.3111 96.8802 43.2004 96.8802 47.5845C96.8802 52.0996 97.1559 53.1243 98.3707 53.1243C98.6857 53.1243 98.9434 53.257 98.9434 53.4194C98.9434 53.5983 97.6662 53.7145 95.7012 53.7145C93.7361 53.7145 92.4589 53.5983 92.4589 53.4194C92.4589 53.2571 92.7148 53.1243 93.0273 53.1243C94.3193 53.1243 94.5224 52.4479 94.5178 48.1602C94.5143 43.3468 94.2943 42.6913 92.6523 42.5551C91.8035 42.4848 91.2865 42.6505 90.5143 43.2401L89.4958 44.0179L89.5772 48.3497L89.6587 52.6816L90.6166 52.9639C91.1435 53.1192 91.5746 53.3516 91.5746 53.4804C91.5746 53.6092 88.7229 53.7145 85.2374 53.7145C81.7519 53.7145 78.9002 53.6108 78.9002 53.4841C78.9002 53.3573 79.2981 53.1033 79.7844 52.9195C80.9119 52.4934 80.9355 51.7133 79.8934 49.3073L79.118 47.5173H75.5163H71.9147L71.1101 49.4127C70.1018 51.788 70.179 52.5702 71.4578 52.9358C73.1887 53.4306 72.4635 53.7145 69.4683 53.7145C67.6523 53.7145 66.5205 53.5983 66.5205 53.4121ZM78.6054 46.2182C78.6054 45.9595 75.8775 39.6814 75.6673 39.4563C75.5437 39.324 75.2375 39.7224 74.9869 40.3417C74.7362 40.9609 74.0602 42.5632 73.4846 43.9022L72.438 46.3368H75.5217C77.2177 46.3368 78.6054 46.2835 78.6054 46.2182ZM139.325 53.4194C139.325 53.2571 139.581 53.1242 139.893 53.1242C141.211 53.1242 141.388 52.4805 141.388 47.6798C141.388 42.85 141.21 42.2362 139.928 42.6435C139.528 42.7708 139.325 42.7041 139.325 42.445C139.325 42.1138 140.27 41.6579 143.23 40.5624C143.676 40.3976 143.746 40.5618 143.746 41.7654V43.1593L144.887 42.1277C146.481 40.6851 147.819 40.2812 149.154 40.8395C150.907 41.5728 151.223 42.5731 151.355 47.8123C151.418 50.3281 151.605 52.5525 151.771 52.7553C151.936 52.9582 152.32 53.1242 152.625 53.1242C152.929 53.1242 153.178 53.257 153.178 53.4193C153.178 53.5974 151.95 53.7145 150.083 53.7145C148.216 53.7145 146.988 53.5974 146.988 53.4193C146.988 53.2571 147.227 53.1242 147.519 53.1242C148.623 53.1242 148.757 52.5635 148.757 47.9466C148.757 43.9915 148.695 43.421 148.218 42.9888C147.441 42.2849 146.112 42.3874 144.846 43.2488L143.746 43.9972V48.0723C143.746 51.6454 143.813 52.2076 144.285 52.6358C144.582 52.9045 145.046 53.1242 145.317 53.1242C145.588 53.1242 145.809 53.257 145.809 53.4194C145.809 53.5982 144.532 53.7145 142.567 53.7145C140.602 53.7145 139.325 53.5983 139.325 53.4194ZM251.921 53.4514C251.921 53.3067 252.25 53.1055 252.653 53.0043C253.078 52.8975 253.453 52.5433 253.547 52.1608C253.635 51.798 253.67 48.0485 253.625 43.8285L253.542 36.1558L252.584 36.0633C252.057 36.0125 251.626 35.8606 251.626 35.7258C251.626 35.4832 255.194 33.9425 255.756 33.9425C255.936 33.9425 256.047 35.7081 256.047 38.551V43.1595L257.188 42.1279C257.815 41.5605 258.811 40.9369 259.4 40.7421C260.316 40.4395 260.633 40.4666 261.576 40.9278C263.272 41.7577 263.528 42.5944 263.704 47.8978C263.861 52.6497 263.984 53.1061 265.111 53.1199C265.314 53.1223 265.48 53.2572 265.48 53.4195C265.48 53.5975 264.251 53.7146 262.385 53.7146C260.518 53.7146 259.29 53.5975 259.29 53.4195C259.29 53.2572 259.547 53.1243 259.863 53.1243C260.992 53.1243 261.354 52.0423 261.34 48.7059C261.326 45.1729 261.013 43.1351 260.428 42.7642C259.777 42.351 258.297 42.4637 257.513 42.9863C256.158 43.89 256.047 44.2321 256.047 47.5368C256.047 51.7627 256.224 52.5407 257.272 52.9367C258.775 53.5046 258.166 53.7145 255.016 53.7145C253.314 53.7145 251.921 53.5961 251.921 53.4514Z" fill="#DDA46F"/>
<path d="M286 0H317C325.284 0 332 6.71573 332 15V457C332 465.284 325.284 472 317 472H286V0Z" fill="#66152A"/>
<rect y="467" width="327" height="5" fill="#66152A"/>
</g>
<path d="M315 0H331C339.284 0 346 6.71573 346 15V457C346 465.284 339.284 472 331 472H315V0Z" fill="#66152A"/>
<defs>
<clipPath id="clip0_234_11">
<rect width="332" height="472" fill="white"/>
</clipPath>
</defs>
</svg>
